<svg id="Layer_1" data-name="Layer 1" xmlns="http://www.w3.org/2000/svg" xmlns:xlink="http://www.w3.org/1999/xlink" viewBox="0 0 30 30"><defs><style>.cls-1,.cls-2{fill:none;}.cls-2{clip-rule:evenodd;}.cls-3{fill:#fff;}.cls-4{clip-path:url(#clip-path);}.cls-5{clip-path:url(#clip-path-2);}.cls-6{clip-path:url(#clip-path-3);}.cls-7{clip-path:url(#clip-path-4);}.cls-8{clip-path:url(#clip-path-5);}.cls-9{clip-path:url(#clip-path-6);}.cls-10{clip-path:url(#clip-path-7);}.cls-11{clip-path:url(#clip-path-8);}.cls-12{clip-path:url(#clip-path-9);}.cls-13{clip-path:url(#clip-path-10);}.cls-14{clip-path:url(#clip-path-11);}.cls-15{clip-path:url(#clip-path-12);}.cls-16{clip-path:url(#clip-path-13);}.cls-17{clip-path:url(#clip-path-14);}.cls-18{clip-path:url(#clip-path-15);}.cls-19{clip-path:url(#clip-path-16);}.cls-20{clip-path:url(#clip-path-17);}.cls-21{clip-path:url(#clip-path-18);}.cls-22{clip-path:url(#clip-path-19);}.cls-23{clip-path:url(#clip-path-20);}.cls-24{fill:#d70751;}</style><clipPath id="clip-path"><path class="cls-1" d="M-48.75-85.88a2.06,2.06,0,0,0-2.26,2c0,1.26.74,1.85,1.86,2.33l.38.16c.71.31,1.05.5,1.05,1s-.33.76-1,.76-1.12-.52-1.45-1.06l-1.22.81a2.82,2.82,0,0,0,2.7,1.62c1.47,0,2.56-.76,2.56-2.15s-.74-1.87-2-2.43l-.39-.16c-.66-.29-1-.48-1-.94a.67.67,0,0,1,.74-.66,1,1,0,0,1,1,.66l1.2-.77A2.28,2.28,0,0,0-48.75-85.88Zm-5,0v5.09c0,.78-.29,1-.81,1a1.33,1.33,0,0,1-1.15-.77l-1.28.77a2.86,2.86,0,0,0,2.53,1.62,2.12,2.12,0,0,0,2.33-2.36v-5.33Zm-6.61-6.88h14.84a.27.27,0,0,1,.27.27v14.84a.27.27,0,0,1-.27.27H-60.4a.27.27,0,0,1-.27-.27V-92.49A.27.27,0,0,1-60.4-92.76Zm0-.81a1.09,1.09,0,0,0-1.08,1.08v14.84a1.09,1.09,0,0,0,1.08,1.08h14.84a1.09,1.09,0,0,0,1.08-1.08V-92.49a1.08,1.08,0,0,0-1.08-1.08Z"/></clipPath><clipPath id="clip-path-2"><path class="cls-2" d="M-22.6-84.91l-.3-.49q-.15-.24-.3-.51a5.51,5.51,0,0,1-.47-1.16A2,2,0,0,1-23-88.79a2,2,0,0,1,.19-.22c.39-.45.93-1,1.35-1.44a2.64,2.64,0,0,0,.73-1.71c0-.39,0-1.21-.29-1.36A2.94,2.94,0,0,1-21.18-92a3.5,3.5,0,0,1-1.12,1.49c-.39.33-1,.91-1.34,1.26a3.33,3.33,0,0,0-.73,1,1.39,1.39,0,0,0,.24,1.35c.11.19.23.35.35.53s.26.33.37.49.27.32.4.48.33.39.41.45"/></clipPath><clipPath id="clip-path-3"><path class="cls-2" d="M-17.3-79.88c.17.2,0,.29-.22.37a29.23,29.23,0,0,1-5.46.43,22.78,22.78,0,0,1-3.22-.16c-.17,0-.91-.11-.95-.26s.11-.16.18-.19a4.14,4.14,0,0,1,1-.24,3.69,3.69,0,0,0,.37,0,4.73,4.73,0,0,0-2.46.53c-.22.24.15.35.39.41a22.21,22.21,0,0,0,3.86.28c1.52,0,5.17,0,6.51-.69.07,0,.23-.12.24-.2s-.14-.2-.22-.23"/></clipPath><clipPath id="clip-path-4"><path class="cls-2" d="M-21.43-83.68a3.7,3.7,0,0,0,.8-.58,1.56,1.56,0,0,0,.51-.89,2,2,0,0,0-.38-1c-.47-.69-.85-1.09-.21-1.86a5.17,5.17,0,0,1,.72-.68,14.4,14.4,0,0,1,1.25-.85l.43-.27a8,8,0,0,0-1.08.35,7.35,7.35,0,0,0-1,.46c-1,.54-1.93,1.39-1.54,2.56.27.8,1,1.27,1,1.87,0,.37-.39.73-.5.91"/></clipPath><clipPath id="clip-path-5"><path class="cls-2" d="M-19.54-80.48a5.93,5.93,0,0,1-.85-.38c-.17-.08-.11-.07-.32,0a15.76,15.76,0,0,1-3.23.16c-.23,0-.9,0-1-.21s0-.21.08-.28c-.6.11-1.22.54-.38.89a9.45,9.45,0,0,0,4,.25,15.19,15.19,0,0,0,1.77-.4"/></clipPath><clipPath id="clip-path-6"><path class="cls-2" d="M-19.54-81.69a1.47,1.47,0,0,1-.55-.31c-.12-.1-.08-.08-.33,0-.91.15-3.63.41-4.41.09-.1,0-.21-.1-.22-.22s.11-.21.16-.29c-.63.08-1.23.67-.39,1a12.11,12.11,0,0,0,4,.2,10.19,10.19,0,0,0,1.75-.4"/></clipPath><clipPath id="clip-path-7"><path class="cls-2" d="M-18.31-84.38a3.19,3.19,0,0,0-.42,0l-.44,0c-.89.11-1.88.19-2.77.23-.7,0-3.33.11-3.73-.19,0-.14.16-.23.28-.28A8,8,0,0,1-24-84.9a7.57,7.57,0,0,0-2.71.61c-.61.31.4.43.78.48a27.2,27.2,0,0,0,6.44-.14,1.54,1.54,0,0,0,.67-.15c.17-.09.39-.19.53-.28"/></clipPath><clipPath id="clip-path-8"><path class="cls-2" d="M-25.69-77.92a14.57,14.57,0,0,0,2.52.36,25.34,25.34,0,0,0,2.89,0,12.73,12.73,0,0,0,3.69-.6c.25-.11.7-.35.75-.58a1.19,1.19,0,0,0-.22.12c-1.86,1-6.13.92-8.34.8l-1.29-.09"/></clipPath><clipPath id="clip-path-9"><path class="cls-2" d="M-18-84.61a1.19,1.19,0,0,1,1.23.24,1.32,1.32,0,0,1,.09,1.4,4.58,4.58,0,0,1-1.42,1.57c-.08.07-.17.12-.25.18a4.66,4.66,0,0,0,1.41-.67,2.56,2.56,0,0,0,1-1.21,1.36,1.36,0,0,0-.49-1.58,1.36,1.36,0,0,0-.81-.23,1.16,1.16,0,0,0-.73.3"/></clipPath><clipPath id="clip-path-10"><path class="cls-1" d="M7.27-90.9a.67.67,0,0,1,.65.69.67.67,0,0,1-.65.68.67.67,0,0,1-.65-.68A.67.67,0,0,1,7.27-90.9ZM9.13-92a9.2,9.2,0,0,0-1.64.14C6-91.58,5.76-91,5.76-90v1.36H9.21v.46H4.47a2.16,2.16,0,0,0-2.15,1.81,6.88,6.88,0,0,0,0,3.63c.25,1.06.83,1.81,1.83,1.81H5.34v-1.63a2.23,2.23,0,0,1,2.15-2.22h3.44a1.78,1.78,0,0,0,1.72-1.82V-90a2,2,0,0,0-1.72-1.86A10.92,10.92,0,0,0,9.13-92Z"/></clipPath><clipPath id="clip-path-11"><path class="cls-1" d="M11.18-79.51a.66.66,0,0,1,.65.67.67.67,0,0,1-.65.68.67.67,0,0,1-.64-.68A.66.66,0,0,1,11.18-79.51Zm1.93-8.56v1.58A2.24,2.24,0,0,1,11-84.24H7.53a1.78,1.78,0,0,0-1.72,1.8v3.38c0,1,.81,1.52,1.72,1.8a5.57,5.57,0,0,0,3.43,0c.87-.26,1.72-.78,1.72-1.8v-1.36H9.25v-.45H14.4c1,0,1.37-.71,1.72-1.79a6.31,6.31,0,0,0,0-3.61c-.25-1-.72-1.8-1.72-1.8Z"/></clipPath><clipPath id="clip-path-12"><path class="cls-2" d="M82.85-83.8l.36-1.69H81.58l-.36,1.69Zm-3.36,1.28H78.42l.27-1.28h1.07l.36-1.69H79l.27-1.27h1.08L81-89.63l1.4.32-.54,2.55h1.63l.61-2.87,1.4.29L85-86.76H86l-.28,1.27H84.68l-.36,1.69h1.06l-.27,1.28h-1l-.62,2.86L82-80l.54-2.55H81l-.61,2.86L78.94-80Zm-2.06-5.36-1.25,1.16a7.12,7.12,0,0,0-.86-.79A3.22,3.22,0,0,0,73.5-88,3.36,3.36,0,0,0,70-84.66a3.39,3.39,0,0,0,3.44,3.39,3.29,3.29,0,0,0,1.93-.62,7.07,7.07,0,0,0,.82-.73l1.25,1.15a5.19,5.19,0,0,1-4,1.8,5.11,5.11,0,0,1-5.25-5,5.12,5.12,0,0,1,5.26-5A5.21,5.21,0,0,1,77.43-87.88Z"/></clipPath><clipPath id="clip-path-13"><path class="cls-3" d="M41.41-51.78l-2.92,2.93a.25.25,0,0,1-.36,0l-.65-.66a.24.24,0,0,1,0-.35L39.57-52,37.48-54a.24.24,0,0,1,0-.35l.65-.66a.25.25,0,0,1,.36,0l2.92,2.93A.24.24,0,0,1,41.41-51.78Z"/></clipPath><clipPath id="clip-path-14"><rect class="cls-3" x="42.4" y="-50.54" width="5.55" height="1.51" rx="0.38"/></clipPath><clipPath id="clip-path-15"><polygon class="cls-1" points="-62.46 -22.29 -42.06 -22.29 -42.06 -14.86 -52.26 -14.86 -52.26 -13.55 -56.93 -13.55 -56.93 -14.86 -62.46 -14.86 -62.46 -22.29"/></clipPath><clipPath id="clip-path-16"><polygon class="cls-1" points="-60.27 -15.73 -58.45 -15.73 -58.45 -19.44 -57.36 -19.44 -57.36 -15.73 -56.63 -15.73 -56.63 -20.84 -60.27 -20.84 -60.27 -15.73"/></clipPath><clipPath id="clip-path-17"><path class="cls-1" d="M-52.26-17.5h-1.09v-2.09h1.09Zm-2.91-3.34V-15h1.82v-1.25h1.82v-4.58Z"/></clipPath><clipPath id="clip-path-18"><polygon class="cls-1" points="-50.8 -20.84 -50.8 -15.73 -48.75 -15.73 -48.75 -19.44 -47.52 -19.44 -47.52 -15.73 -46.29 -15.73 -46.29 -19.44 -45.06 -19.44 -45.06 -15.73 -44.24 -15.73 -44.24 -20.84 -50.8 -20.84"/></clipPath><clipPath id="clip-path-19"><path class="cls-1" d="M20.38-19v2.77A1.38,1.38,0,0,1,19-14.89H16.23a1.38,1.38,0,0,1-1.39-1.38V-19a1.38,1.38,0,0,1,1.39-1.38H19A1.38,1.38,0,0,1,20.38-19ZM13-19v2.77a1.38,1.38,0,0,1-1.38,1.38H8.85a1.38,1.38,0,0,1-1.38-1.38V-19a1.38,1.38,0,0,1,1.38-1.38h2.77A1.38,1.38,0,0,1,13-19ZM5.62-19v2.77a1.38,1.38,0,0,1-1.38,1.38H1.47A1.38,1.38,0,0,1,.09-16.27V-19a1.38,1.38,0,0,1,1.38-1.38H4.24A1.38,1.38,0,0,1,5.62-19Z"/></clipPath><clipPath id="clip-path-20"><path class="cls-1" d="M49.05-13.76H45.36v-5.86h3.57v1.09H46.67v1.21H48.8v1.08H46.67v1.39h2.38v1.09ZM48.76-8.9H36v-3.78H48.76ZM35.51-13.76v-5.86h3.57v1.09H36.82v1.21H39v1.08H36.82v1.39H39.2v1.09Zm4.22-5.86h1.5l.51,1.07c.17.35.3.64.43,1h0c.14-.37.25-.63.4-1l.48-1.07h1.5l-1.63,2.86,1.71,3H43.14l-.52-1.06c-.21-.41-.35-.72-.51-1.06h0c-.12.34-.27.65-.45,1.06l-.48,1.06H39.67l1.67-3ZM36-27.12h9v4a.38.38,0,0,0,.39.39h3.42v2H36Zm14,6.37h-.48v-2.36a.43.43,0,0,0-.09-.26l-3.81-4.4h0l-.08-.07h0l-.07,0H36a.78.78,0,0,0-.77.78v6.37h-.48a1.11,1.11,0,0,0-1.1,1.12v5.83a1.11,1.11,0,0,0,1.1,1.12h.48v4A.79.79,0,0,0,36-7.9H48.76a.78.78,0,0,0,.77-.79v-4H50a1.12,1.12,0,0,0,1.11-1.12v-5.83A1.12,1.12,0,0,0,50-20.75Z"/></clipPath></defs><title>apt_icon</title><rect class="cls-1" x="-493.89" y="-1062.05" width="1366" height="2644"/><rect class="cls-1" x="-785.5" y="-1191.62" width="1366" height="3311"/><path class="cls-3" d="M41.41-51.78l-2.92,2.93a.25.25,0,0,1-.36,0l-.65-.66a.24.24,0,0,1,0-.35L39.57-52,37.48-54a.24.24,0,0,1,0-.35l.65-.66a.25.25,0,0,1,.36,0l2.92,2.93A.24.24,0,0,1,41.41-51.78Z"/><g class="cls-16"><rect class="cls-3" x="-518.66" y="-400.98" width="742.75" height="1800.34"/></g><rect class="cls-3" x="42.4" y="-50.54" width="5.55" height="1.51" rx="0.38"/><g class="cls-17"><rect class="cls-3" x="-517.66" y="-400.98" width="742.75" height="1800.34"/></g><rect class="cls-1" x="-543.91" y="-1117.91" width="1366" height="3024"/><path class="cls-24" d="M16.78,15.62c-.32,0,.06.17.48.24.12-.1.23-.19.32-.28a2.15,2.15,0,0,1-.8,0"/><path class="cls-24" d="M18.52,15.19a2.13,2.13,0,0,0,.38-.86,2,2,0,0,1-.27.6c-.6.38-.06-.23,0-.46-.65.82-.09.49-.11.72"/><path class="cls-24" d="M19.16,13.52c0-.58-.12-.4-.17-.18.06,0,.11.42.17.18"/><path class="cls-24" d="M15.55,5.55c.17,0,.37,0,.35.09.19,0,.23-.07-.35-.09"/><path class="cls-24" d="M15.9,5.64l-.13,0h.12v0"/><path class="cls-24" d="M21.29,13.74A2.94,2.94,0,0,1,21,15l-.28.14c-.23.44,0,.28-.14.64a8.18,8.18,0,0,1-1.32,1.05c-.17,0,.11-.2.15-.28-.48.33-.38.5-1.12.7l0,0C16.45,18,13.94,16.34,14,14c0,.15-.05.11-.09.17a2.89,2.89,0,0,1,1.62-2.86,2.76,2.76,0,0,1,3.05.4,2.75,2.75,0,0,0-2.22-1.07A2.53,2.53,0,0,0,14.17,12c-.49.31-.54,1.19-.76,1.35-.29,2.12.54,3,1.95,4.11.22.15.06.17.09.28a3.85,3.85,0,0,1-1.25-.95,3.58,3.58,0,0,0,.65.75c-.44-.15-1-1.07-1.2-1.11.76,1.36,3.08,2.38,4.29,1.88A5,5,0,0,1,16,18.05c-.26-.13-.62-.41-.56-.47a4.72,4.72,0,0,0,4.8-.68c.36-.28.76-.76.88-.77-.18.26,0,.13-.11.36.37-.59-.15-.24.38-1l.2.28c-.08-.49.6-1.08.53-1.85.16-.23.17.25,0,.79.23-.6.06-.69.12-1.19.06.17.14.35.19.52a2.31,2.31,0,0,1,.22-1.31c-.07,0-.23.26-.26-.43,0-.3.08-.16.11-.23a1.27,1.27,0,0,1-.3-.7c.06-.1.18.27.27.28a7.45,7.45,0,0,1-.17-.88c-.26-.56-.09.08-.31-.24-.28-.89.24-.2.27-.61a7.17,7.17,0,0,1,.8,2,8.39,8.39,0,0,0-.4-1.43c.13,0-.21-1,.17-.31a6.39,6.39,0,0,0-3-3.57c.15.14.34.31.27.34-.61-.37-.51-.39-.59-.55-.5-.2-.54,0-.87,0a9.92,9.92,0,0,0-2-.76l0,.19c-.62-.21-.73.08-1.4,0,0,0,.21-.12.43-.15-.61.08-.58-.12-1.17,0a4,4,0,0,1,.45-.25c-.49,0-1.17.28-1,0a11.44,11.44,0,0,0-3,1.61l0-.17c-.36.44-1.59,1.32-1.69,1.89l-.1,0a10.38,10.38,0,0,0-.47,1c-.25.43-.36.17-.33.23a15.5,15.5,0,0,0-.94,2.52,14.85,14.85,0,0,1,.06,2.25,10.05,10.05,0,0,0,6.81,9.78,7.53,7.53,0,0,0,2,.2c-.8-.23-.91-.12-1.69-.39-.57-.27-.69-.58-1.09-.92l.16.28c-.79-.28-.46-.35-1.1-.55l.17-.22a1.42,1.42,0,0,1-.79-.66h-.28c-.34-.41-.52-.71-.5-.94l-.09.16c-.11-.18-1.24-1.55-.65-1.23a1.31,1.31,0,0,1-.41-.45l.12-.14a2.22,2.22,0,0,1-.5-1,.67.67,0,0,0,.36.28c-.72-1.77-.76-.1-1.3-1.8h.12a4.11,4.11,0,0,1-.21-.42l0-.49c-.52-.6-.15-2.53-.07-3.59a9.84,9.84,0,0,1,.71-1.61l-.17,0c.33-.58,1.9-2.34,2.63-2.25.36-.44-.07,0-.14-.11.78-.8,1-.57,1.55-.71.56-.34-.49.13-.22-.13,1-.25.69-.56,2-.69.14.08-.31.12-.42.22a5.24,5.24,0,0,1,3.72.22,5.45,5.45,0,0,1,2.87,4.17l.07,0a7.93,7.93,0,0,1-.14,2.21l.17-.35"/><path class="cls-24" d="M13.24,16.07l0,.22a4.11,4.11,0,0,0,.65.83c-.19-.38-.34-.54-.61-1.05"/><path class="cls-24" d="M13.75,16.05a1.9,1.9,0,0,1-.26-.43,3,3,0,0,0,.36.72l-.1-.29"/><path class="cls-24" d="M22.65,14.11l0,.12A5.54,5.54,0,0,1,22,16a5.67,5.67,0,0,0,.61-1.92"/><path class="cls-24" d="M15.62,5.39a6,6,0,0,1,.77-.09c-.31,0-.61,0-.91.08h.14"/><path class="cls-24" d="M7.93,9.48c.05.47-.35.65.09.34.23-.53-.1-.15-.09-.34"/><path class="cls-24" d="M7.41,11.64A5.16,5.16,0,0,0,7.57,11c-.28.36-.13.44-.16.68"/></svg>