<svg id="Layer_1" data-name="Layer 1" xmlns="http://www.w3.org/2000/svg" xmlns:xlink="http://www.w3.org/1999/xlink" viewBox="0 0 25 25"><defs><style>.cls-1,.cls-2,.cls-4{fill:none;}.cls-2{clip-rule:evenodd;}.cls-3{fill:#fff;}.cls-4,.cls-47{fill-rule:evenodd;}.cls-5{clip-path:url(#clip-path);}.cls-6{clip-path:url(#clip-path-2);}.cls-7{clip-path:url(#clip-path-3);}.cls-8{clip-path:url(#clip-path-4);}.cls-9{clip-path:url(#clip-path-5);}.cls-10{clip-path:url(#clip-path-6);}.cls-11{clip-path:url(#clip-path-7);}.cls-12{clip-path:url(#clip-path-8);}.cls-13{clip-path:url(#clip-path-9);}.cls-14{clip-path:url(#clip-path-10);}.cls-15{clip-path:url(#clip-path-11);}.cls-16{clip-path:url(#clip-path-12);}.cls-17{clip-path:url(#clip-path-13);}.cls-18{clip-path:url(#clip-path-14);}.cls-19{clip-path:url(#clip-path-15);}.cls-20{clip-path:url(#clip-path-16);}.cls-21{clip-path:url(#clip-path-17);}.cls-22{clip-path:url(#clip-path-18);}.cls-23{clip-path:url(#clip-path-19);}.cls-24{clip-path:url(#clip-path-20);}.cls-25{clip-path:url(#clip-path-21);}.cls-26{clip-path:url(#clip-path-22);}.cls-27{clip-path:url(#clip-path-23);}.cls-28{clip-path:url(#clip-path-24);}.cls-29{clip-path:url(#clip-path-25);}.cls-30{clip-path:url(#clip-path-26);}.cls-31{clip-path:url(#clip-path-28);}.cls-32{clip-path:url(#clip-path-29);}.cls-33{clip-path:url(#clip-path-30);}.cls-34{clip-path:url(#clip-path-31);}.cls-35{clip-path:url(#clip-path-32);}.cls-36{clip-path:url(#clip-path-33);}.cls-37{clip-path:url(#clip-path-34);}.cls-38{clip-path:url(#clip-path-35);}.cls-39{clip-path:url(#clip-path-36);}.cls-40{clip-path:url(#clip-path-37);}.cls-41{clip-path:url(#clip-path-38);}.cls-42{clip-path:url(#clip-path-39);}.cls-43{clip-path:url(#clip-path-40);}.cls-44{clip-path:url(#clip-path-41);}.cls-45{clip-path:url(#clip-path-42);}.cls-46{clip-path:url(#clip-path-43);}.cls-47{fill:#0089d6;}</style><clipPath id="clip-path"><rect class="cls-1" x="-63.42" y="772" width="19.26" height="20"/></clipPath><clipPath id="clip-path-2"><path class="cls-1" d="M-140.23-178.84a2.06,2.06,0,0,0-2.26,2c0,1.26.74,1.85,1.86,2.32l.38.17c.7.31,1.05.5,1.05,1s-.33.76-1,.76-1.13-.52-1.46-1.06l-1.21.81a2.81,2.81,0,0,0,2.7,1.62c1.47,0,2.56-.76,2.56-2.15s-.74-1.87-2-2.43l-.39-.17c-.66-.28-.95-.47-.95-.93a.68.68,0,0,1,.74-.67,1,1,0,0,1,1,.67l1.21-.77A2.28,2.28,0,0,0-140.23-178.84Zm-5,0v5.09c0,.78-.29,1-.81,1a1.34,1.34,0,0,1-1.16-.77l-1.27.77a2.84,2.84,0,0,0,2.53,1.62,2.12,2.12,0,0,0,2.33-2.36v-5.33Zm-6.61-6.88H-137a.27.27,0,0,1,.27.27v14.84a.27.27,0,0,1-.27.27h-14.84a.27.27,0,0,1-.27-.27v-14.84A.27.27,0,0,1-151.88-185.72Zm0-.81a1.09,1.09,0,0,0-1.08,1.08v14.84a1.09,1.09,0,0,0,1.08,1.08H-137a1.09,1.09,0,0,0,1.08-1.08v-14.84a1.09,1.09,0,0,0-1.08-1.08Z"/></clipPath><clipPath id="clip-path-3"><path class="cls-2" d="M-114.08-177.87l-.31-.49c-.1-.16-.19-.34-.29-.51a5.51,5.51,0,0,1-.47-1.16,2,2,0,0,1,.63-1.72l.18-.22c.4-.45.93-1,1.35-1.45a2.55,2.55,0,0,0,.74-1.7c0-.39,0-1.22-.29-1.36a2.84,2.84,0,0,1-.13,1.55,3.35,3.35,0,0,1-1.12,1.49c-.38.32-1,.91-1.33,1.26a3.41,3.41,0,0,0-.73,1,1.4,1.4,0,0,0,.24,1.36c.11.19.22.35.34.52s.27.34.38.5.27.32.4.47a4.75,4.75,0,0,0,.41.46"/></clipPath><clipPath id="clip-path-4"><path class="cls-2" d="M-108.78-172.84c.16.2,0,.29-.22.37a29.33,29.33,0,0,1-5.47.43,22.71,22.71,0,0,1-3.21-.16c-.17,0-.92-.11-.95-.26s.11-.16.18-.2a4.14,4.14,0,0,1,1-.23,3.13,3.13,0,0,0,.36-.05,4.78,4.78,0,0,0-2.46.53c-.22.24.15.35.4.41a23.15,23.15,0,0,0,3.86.28c1.52,0,5.17,0,6.51-.69.07,0,.23-.12.24-.21s-.14-.19-.22-.22"/></clipPath><clipPath id="clip-path-5"><path class="cls-2" d="M-112.92-176.64a3.49,3.49,0,0,0,.81-.59,1.5,1.5,0,0,0,.51-.88,2,2,0,0,0-.38-1c-.47-.69-.85-1.09-.21-1.87a5.76,5.76,0,0,1,.72-.67,13,13,0,0,1,1.25-.85l.43-.27a8,8,0,0,0-1.08.35,6.81,6.81,0,0,0-1,.46c-1,.54-1.93,1.39-1.54,2.56.27.8,1,1.27,1,1.87,0,.36-.4.73-.51.91"/></clipPath><clipPath id="clip-path-6"><path class="cls-2" d="M-111-173.44a6.06,6.06,0,0,1-.86-.38c-.16-.08-.1-.08-.31,0a16.5,16.5,0,0,1-3.23.16c-.24,0-.9,0-1-.21s0-.21.08-.28c-.61.11-1.22.53-.38.89a9.6,9.6,0,0,0,4,.25,15.19,15.19,0,0,0,1.77-.4"/></clipPath><clipPath id="clip-path-7"><path class="cls-2" d="M-111-174.66a1.38,1.38,0,0,1-.55-.3c-.12-.1-.08-.08-.33,0-.92.14-3.63.41-4.41.09-.1,0-.22-.1-.22-.22s.11-.21.16-.29c-.63.08-1.23.67-.39.95a12.09,12.09,0,0,0,4,.21,9.33,9.33,0,0,0,1.75-.41"/></clipPath><clipPath id="clip-path-8"><path class="cls-2" d="M-109.79-177.34a3.19,3.19,0,0,0-.42.05l-.44,0c-.89.11-1.88.19-2.78.23-.69,0-3.33.11-3.72-.19,0-.14.16-.23.28-.28a9.13,9.13,0,0,1,1.37-.39,7.74,7.74,0,0,0-2.71.61c-.61.32.4.44.77.49a27.81,27.81,0,0,0,6.45-.14,1.41,1.41,0,0,0,.67-.16,5.24,5.24,0,0,0,.53-.27"/></clipPath><clipPath id="clip-path-9"><path class="cls-2" d="M-117.17-170.88a14.43,14.43,0,0,0,2.52.36,25.16,25.16,0,0,0,2.88,0,12.3,12.3,0,0,0,3.69-.61c.26-.1.71-.34.75-.58l-.21.12c-1.87,1-6.14.93-8.34.8l-1.29-.08"/></clipPath><clipPath id="clip-path-10"><path class="cls-2" d="M-109.44-177.57a1.2,1.2,0,0,1,1.23.24,1.34,1.34,0,0,1,.09,1.4,4.58,4.58,0,0,1-1.42,1.57l-.25.18a4.91,4.91,0,0,0,1.41-.67,2.56,2.56,0,0,0,1-1.21,1.35,1.35,0,0,0-.5-1.58,1.32,1.32,0,0,0-.8-.23,1.09,1.09,0,0,0-.73.3"/></clipPath><clipPath id="clip-path-11"><path class="cls-1" d="M-84.21-183.86a.67.67,0,0,1,.64.69.66.66,0,0,1-.64.67.66.66,0,0,1-.65-.67A.67.67,0,0,1-84.21-183.86Zm1.86-1.09a9.2,9.2,0,0,0-1.64.14c-1.46.27-1.73.83-1.73,1.86v1.36h3.45v.46H-87a2.16,2.16,0,0,0-2.15,1.81,6.88,6.88,0,0,0,0,3.63c.24,1.06.83,1.81,1.83,1.81h1.18v-1.63A2.24,2.24,0,0,1-84-177.73h3.44a1.78,1.78,0,0,0,1.72-1.82v-3.4a2,2,0,0,0-1.72-1.86A10,10,0,0,0-82.35-184.95Z"/></clipPath><clipPath id="clip-path-12"><path class="cls-1" d="M-80.3-172.48a.66.66,0,0,1,.64.68.66.66,0,0,1-.64.68.67.67,0,0,1-.65-.68A.67.67,0,0,1-80.3-172.48Zm1.93-8.55v1.58a2.24,2.24,0,0,1-2.15,2.25h-3.43a1.78,1.78,0,0,0-1.72,1.8V-172c0,1,.81,1.53,1.72,1.81a5.57,5.57,0,0,0,3.43,0c.87-.26,1.72-.78,1.72-1.81v-1.35h-3.43v-.45h5.15c1,0,1.37-.72,1.72-1.79a6.31,6.31,0,0,0,0-3.61c-.25-1-.72-1.8-1.72-1.8Z"/></clipPath><clipPath id="clip-path-13"><path class="cls-3" d="M-50.07-144.74-53-141.81a.24.24,0,0,1-.35,0l-.66-.66a.26.26,0,0,1,0-.35l2.1-2.1L-54-147a.27.27,0,0,1,0-.36l.66-.65a.24.24,0,0,1,.35,0l2.93,2.93A.24.24,0,0,1-50.07-144.74Z"/></clipPath><clipPath id="clip-path-14"><rect class="cls-3" x="-49.09" y="-143.5" width="5.55" height="1.51" rx="0.38"/></clipPath><clipPath id="clip-path-15"><polygon class="cls-1" points="-153.94 -115.25 -133.54 -115.25 -133.54 -107.82 -143.74 -107.82 -143.74 -106.51 -148.41 -106.51 -148.41 -107.82 -153.94 -107.82 -153.94 -115.25"/></clipPath><clipPath id="clip-path-16"><polygon class="cls-1" points="-151.75 -108.7 -149.93 -108.7 -149.93 -112.41 -148.84 -112.41 -148.84 -108.7 -148.11 -108.7 -148.11 -113.8 -151.75 -113.8 -151.75 -108.7"/></clipPath><clipPath id="clip-path-17"><path class="cls-1" d="M-143.74-110.47h-1.09v-2.08h1.09Zm-2.91-3.33V-108h1.82v-1.25H-143v-4.58Z"/></clipPath><clipPath id="clip-path-18"><polygon class="cls-1" points="-142.28 -113.8 -142.28 -108.7 -140.23 -108.7 -140.23 -112.41 -139 -112.41 -139 -108.7 -137.77 -108.7 -137.77 -112.41 -136.54 -112.41 -136.54 -108.7 -135.72 -108.7 -135.72 -113.8 -142.28 -113.8"/></clipPath><clipPath id="clip-path-19"><path class="cls-1" d="M-71.11-112v2.76a1.38,1.38,0,0,1-1.38,1.39h-2.77a1.38,1.38,0,0,1-1.38-1.39V-112a1.38,1.38,0,0,1,1.38-1.39h2.77A1.38,1.38,0,0,1-71.11-112Zm-7.37,0v2.76a1.39,1.39,0,0,1-1.39,1.39h-2.76A1.39,1.39,0,0,1-84-109.24V-112a1.39,1.39,0,0,1,1.39-1.39h2.76A1.39,1.39,0,0,1-78.48-112Zm-7.38,0v2.76a1.38,1.38,0,0,1-1.38,1.39H-90a1.38,1.38,0,0,1-1.38-1.39V-112A1.38,1.38,0,0,1-90-113.39h2.77A1.38,1.38,0,0,1-85.86-112Z"/></clipPath><clipPath id="clip-path-20"><path class="cls-1" d="M-42.43-106.73h-3.69v-5.85h3.57v1.08h-2.26v1.22h2.13v1.08h-2.13v1.39h2.38v1.08Zm-.29,4.87H-55.51v-3.78h12.79ZM-56-106.73v-5.85h3.57v1.08h-2.26v1.22h2.13v1.08h-2.13v1.39h2.38v1.08Zm4.22-5.85h1.5l.5,1.07c.18.35.3.64.44,1h0c.14-.37.25-.63.39-1l.49-1.07h1.5l-1.63,2.86,1.71,3h-1.51l-.52-1.06c-.22-.4-.35-.71-.52-1h0c-.12.34-.27.65-.45,1l-.48,1.06h-1.49l1.67-3Zm-3.76-7.5h9v4a.38.38,0,0,0,.38.39h3.43v2H-55.51Zm14,6.37h-.48v-2.36a.39.39,0,0,0-.09-.26l-3.81-4.4h0a.46.46,0,0,0-.07-.07l0,0-.08,0h-9.47a.78.78,0,0,0-.77.79v6.37h-.48a1.12,1.12,0,0,0-1.11,1.12v5.83a1.12,1.12,0,0,0,1.11,1.12h.48v4a.77.77,0,0,0,.77.78h12.79a.78.78,0,0,0,.77-.78v-4h.48a1.11,1.11,0,0,0,1.1-1.12v-5.83A1.11,1.11,0,0,0-41.47-113.71Z"/></clipPath><clipPath id="clip-path-21"><path class="cls-1" d="M-18.29-19.23a1,1,0,0,0-1,1h2A1,1,0,0,0-18.29-19.23Zm0-1.2a2.45,2.45,0,0,1,2.62,2.71v.49h-3.64v.08A1,1,0,0,0-18.25-16a1,1,0,0,0,1-.49h1.56a2.34,2.34,0,0,1-2.58,1.73A2.5,2.5,0,0,1-21-17.55C-21-19.37-20-20.43-18.29-20.43Zm-7.29-1.83c1.65,0,2.8.89,2.85,2.23h-1.69a1.07,1.07,0,0,0-1.16-.85c-.62,0-1.07.31-1.07.76s.32.62,1.07.75l.93.18c1.43.27,2,.89,2,2,0,1.47-1.11,2.36-3,2.36s-2.93-.84-3-2.22h1.74c0,.53.57.84,1.29.84s1.15-.31,1.15-.8-.31-.62-1.11-.75l-.93-.18c-1.29-.27-2-1-2-2.09C-28.42-21.37-27.31-22.26-25.58-22.26Zm-3.64-9.91A1.8,1.8,0,0,0-31-30.35V-14a1.8,1.8,0,0,0,1.83,1.82h16.35A1.8,1.8,0,0,0-11-14V-30.26l-6.8,6.85L-22.47-28l1.91-1.92,2.67,2.67L-13-32.17Z"/></clipPath><clipPath id="clip-path-22"><path class="cls-2" d="M17.24-24.26l1.07-.51a.16.16,0,0,1,.15,0A1.82,1.82,0,0,1,19-24s0,0,0,0c.2-.39,1.44-2.41,2.93-2.7A11.31,11.31,0,0,0,20.42-25a15.72,15.72,0,0,0-1,1.87.24.24,0,0,1-.2.15H18a.11.11,0,0,1-.1-.1,1.51,1.51,0,0,0-.64-1.19s0,0,0,0"/></clipPath><clipPath id="clip-path-23"><path class="cls-2" d="M-1.19-19.21l-.35.75a.15.15,0,0,0,.12.21H2.85a.47.47,0,0,0,.44-.29L4-19.92a.12.12,0,0,0-.1-.18h-2a.14.14,0,0,1-.12-.18l.44-1a.3.3,0,0,1,.29-.21h.23a.11.11,0,0,1,.09.18l-.25.5a.15.15,0,0,0,.12.2H4.09a.49.49,0,0,0,.41-.26l.5-.91A.15.15,0,0,0,4.89-22H.54a.41.41,0,0,0-.38.26L-.76-20a.13.13,0,0,0,.09.21H1.78a.11.11,0,0,1,.09.18l-.43.86s-.05,0-.07,0H.75a.08.08,0,0,1-.07-.13l.25-.47c0-.07,0-.15-.09-.15H-.87c-.14,0-.25.08-.32.21"/></clipPath><clipPath id="clip-path-24"><path class="cls-2" d="M5.85-21.31l-.59,1a.12.12,0,0,0,.11.18H7.1a.5.5,0,0,0,.41-.23l.3-.52a.46.46,0,0,1,.36-.21h.05c.09,0,.14.09.12.19l-.41.8a.5.5,0,0,1-.45.25H5l-.88,1.44a.14.14,0,0,0,.12.2H8.5a.51.51,0,0,0,.43-.25l1.59-2.83a.15.15,0,0,0-.12-.21H6.23a.57.57,0,0,0-.38.23M7-18.66H6.84a.15.15,0,0,1-.12-.21l.22-.43a.38.38,0,0,1,.31-.18.2.2,0,0,1,.19.29l-.19.35a.29.29,0,0,1-.26.18m5.68-5.05-.07.14L9.69-18.45a.14.14,0,0,0,.12.2h1.65a.4.4,0,0,0,.34-.18L13.38-21a.5.5,0,0,1,.41-.23A.17.17,0,0,1,14-21l-1.42,2.54a.14.14,0,0,0,.14.2h1.54a.59.59,0,0,0,.48-.27l1.25-2.31.29-.55s.14-.27-.05-.27H14a.1.1,0,0,1-.08-.12l.24-.43a.57.57,0,0,0,0-.55,5,5,0,0,0-.83-1.09c-.14,0-.48-.12-.62.13"/></clipPath><clipPath id="clip-path-25"><path class="cls-2" d="M17.09-21.91l-1.73,3.37a.2.2,0,0,0,.14.29h1.82a.14.14,0,0,0,.14-.1l1.61-3.38a.17.17,0,0,0-.14-.26H17.25c-.09,0-.14,0-.16.08"/></clipPath><clipPath id="clip-path-26"><rect class="cls-1" x="17.29" y="-26.69" width="4.6" height="3.69"/></clipPath><clipPath id="clip-path-28"><path class="cls-2" d="M-150.08,22.63a1.82,1.82,0,0,1-.93-.24,2,2,0,0,1-1-1.76v-8a2,2,0,0,1,2-2,2,2,0,0,1,2,2V16.9l6.31-4.26-9.38-6.34a2,2,0,0,1-.55-2.78A2,2,0,0,1-149,3l11.85,8a2,2,0,0,1,.87,1.67,2,2,0,0,1-.87,1.66l-11.84,8a2,2,0,0,1-1.1.33"/></clipPath><clipPath id="clip-path-29"><rect class="cls-1" x="-92.78" y="2.6" width="20.49" height="20"/></clipPath><clipPath id="clip-path-30"><path class="cls-2" d="M-80.81,21l-.33,0h-.23l.19-.44.37.39"/></clipPath><clipPath id="clip-path-31"><path class="cls-2" d="M-80.94,12.75a5.14,5.14,0,0,1-.54.37l-.63.37a7.19,7.19,0,0,0-.75.15l0,0a.1.1,0,0,0-.06.08l-.64,2.06-3.4.74-1.07-.74-.31-2.48c.61-.11,1.42-.24,2.4-.34-.11.12-.21.25-.31.38l-.58.83.85-.56a12.57,12.57,0,0,1,1.43-.78c1-.07,1.93-.11,2.89-.11Zm-5.29,2.8a2,2,0,0,1,.94-.11H-85c.44,0,.8,0,.8-.64s-.32-1.23-.76-1.22-.86.56-.84,1.24a1.15,1.15,0,0,0,.08.39.73.73,0,0,0-.5.35ZM-75,13.31l-.31,2.11-1.08.75-3.39-.38-.64-2a.15.15,0,0,0-.09-.1,6.49,6.49,0,0,0-.89-.16h.08a12.79,12.79,0,0,0,2.64-.62C-77.18,13-75.92,13.16-75,13.31Zm-2.17,2s-.1-.29-.51-.24a.89.89,0,0,0,.06-.43c-.06-.68-.46-1.22-.9-1.2s-.72.58-.7,1.26.4.67.84.66C-77.84,15.3-77.52,15.13-77.22,15.27Z"/></clipPath><clipPath id="clip-path-32"><path class="cls-2" d="M-78.38,14.21c0,.22-.1.4-.22.4s-.23-.16-.23-.38h0c0-.22.09-.4.22-.4h0c.12,0,.22.16.23.38h0m-6.3.29c0,.22-.1.4-.22.4s-.23-.16-.23-.38h0c0-.21.09-.39.21-.4h0c.12,0,.22.17.23.38"/></clipPath><clipPath id="clip-path-33"><path class="cls-2" d="M-73.57,14.24A4.12,4.12,0,0,0-74,14l-.29,2a.11.11,0,0,1-.06.09l-.4.28,0,.13a1.2,1.2,0,0,0,1-.39,8.3,8.3,0,0,0,.22-1.18c0-.51,0-.62,0-.66m-6.29,7.46a1.86,1.86,0,0,1-.71-.45l-.06-.05a4,4,0,0,1-.5.07h-.36a2,2,0,0,1-1,.68,6.18,6.18,0,0,0,2.64-.26m-8.69-4.81,0-.09-.53-.36a.17.17,0,0,1-.06-.1l-.26-2.06a4.41,4.41,0,0,0-.47.27s-.09.15,0,.64a7.51,7.51,0,0,0,.31,1.36,1.4,1.4,0,0,0,1.07.34m7.9-.09a.17.17,0,0,1-.12-.1l-.65-2.12-.29,0-.29,0-.63,2.06a.14.14,0,0,1-.11.09l-.3.07c0,.11-.11.26-.4.34a32.79,32.79,0,0,1-3.65.94,3.33,3.33,0,0,1-.83-.39l-.18-.45h0a9.59,9.59,0,0,0,1.18,2.21l1.75-.53c.45-.7,1.11-1.39,1.57-1.42h.25a4.45,4.45,0,0,1,.65,0,.75.75,0,0,1-.23-.41,2,2,0,0,0,1.34.36A2.43,2.43,0,0,0-80.36,17l0-.13-.31,0"/></clipPath><clipPath id="clip-path-34"><path class="cls-2" d="M-80,17.07a.67.67,0,0,1-.32-.17V17a.75.75,0,0,1-.33.56,4.36,4.36,0,0,1,1.07-.25.52.52,0,0,1,.38.15l.06,0,1.24,1,1.22.13c.23,0,.44,0,.64,0h.18a9.37,9.37,0,0,0,.58-1.31,4.12,4.12,0,0,1-1,.56A33.37,33.37,0,0,1-80,17.07"/></clipPath><clipPath id="clip-path-35"><path class="cls-2" d="M-72.71,9.66l0-.2a.59.59,0,0,0,0-.14,3.25,3.25,0,0,0-.61-.41,6.24,6.24,0,0,0-.73-.37c-.25-.12-.51-.22-.77-.33l-.38-.14-.4-.15c.28,0,.55.11.82.18a4.61,4.61,0,0,1,.53.15A8.07,8.07,0,0,0-81.75,3a8.06,8.06,0,0,0-7.44,5.27,5.08,5.08,0,0,1,.52-.15c.28-.07.55-.13.83-.18l-.4.15-.39.14c-.25.11-.51.21-.76.33a6.24,6.24,0,0,0-.73.37,3.25,3.25,0,0,0-.61.41l0,.14a1.23,1.23,0,0,1,0,.2c0,.14,0,.28,0,.41a4.46,4.46,0,0,0,.05.82,4.36,4.36,0,0,0,.16.8c0,.13.08.26.13.39a1.42,1.42,0,0,0,.08.18.36.36,0,0,0,0,.09l0,0,.06,0,.12.06.24.11h0l-.23-.86s.48-.13,1.23-.27l-.18,0-.5-.16-.24-.12A.8.8,0,0,1-90,11a13.19,13.19,0,0,0,4,0,41.26,41.26,0,0,1,4.16-.23,41.26,41.26,0,0,1,4.16.23,13.19,13.19,0,0,0,4,0,1,1,0,0,1-.21.15l-.24.12-.5.16h-.08c.83.15,1.3.27,1.36.29l-.22.81.13,0,.12-.06.06,0,0,0a.36.36,0,0,0,0-.09,1.42,1.42,0,0,0,.08-.18c.05-.13.09-.26.13-.39a7.08,7.08,0,0,0,.16-.8,4.46,4.46,0,0,0,0-.82c0-.13,0-.27,0-.41"/></clipPath><clipPath id="clip-path-36"><path class="cls-2" d="M-78.34,8.08a5.53,5.53,0,0,1-.17,1.64v.07l-.66-.06a3.68,3.68,0,0,0,.32-1.24,6.05,6.05,0,0,0,.51-.41m-6.3.41a3.68,3.68,0,0,0,.32,1.24l-.66.06V9.72a5.21,5.21,0,0,1-.17-1.64,6.05,6.05,0,0,0,.51.41m9,1.81v0l.07,0a6.32,6.32,0,0,1,.61.22,2.18,2.18,0,0,1-.65-1.26,6.52,6.52,0,0,1,0,1M-85.42,8l-2.11.59a7,7,0,0,0-.06,1.63h0A6,6,0,0,1-87.37,9c.07-.17.51-.28.84-.36s.87-.24,1,.23a2.84,2.84,0,0,0,.24.7A5.91,5.91,0,0,1-85.42,8m7.35,0a6.1,6.1,0,0,1-.12,1.64,3.2,3.2,0,0,0,.27-.77c.11-.47.64-.31,1-.23s.77.19.84.36a5.61,5.61,0,0,1,.21,1.16A6.76,6.76,0,0,0-76,8.55L-78.07,8m-6.58.18.23.17a.14.14,0,0,1,.06.11A3.13,3.13,0,0,0-84,9.68s0,0,0,0c.76-.05,1.52-.07,2.28-.07s1.53,0,2.29.07c0,0,0,0,0,0a3.13,3.13,0,0,0,.32-1.26.14.14,0,0,1,.06-.11l.22-.17v0a10.5,10.5,0,0,0-.31-3.62C-79.16,5-79.28,9-80.3,9h-2.83c-1.09,0-1.18-4.59-1.18-4.59l-.06.16a10.44,10.44,0,0,0-.28,3.53m-3.2,2.18v0a6.52,6.52,0,0,1,0-1,2.27,2.27,0,0,1-.65,1.26,6.32,6.32,0,0,1,.61-.22l.07,0"/></clipPath><clipPath id="clip-path-37"><path class="cls-2" d="M-74.75,16.47l-.06.27a2.83,2.83,0,0,0,.8.06,2.28,2.28,0,0,0,.27-.72,1.2,1.2,0,0,1-1,.39m-8.36,5.62a5.13,5.13,0,0,0,1.69.18,6.85,6.85,0,0,0,2.06-.47,1.71,1.71,0,0,1-.5-.1A6.2,6.2,0,0,1-82.5,22a2.84,2.84,0,0,1-.49.11l-.12,0M-88.52,17l0-.12a1.4,1.4,0,0,1-1.07-.34,1.44,1.44,0,0,0,.24.55,2.34,2.34,0,0,0,.86-.09m.6.68a3.33,3.33,0,0,0,.83.39,32.79,32.79,0,0,0,3.65-.94c.29-.08.37-.23.4-.34l-4.15.91h0l-.08,0-.16-.11-.49-.34h0l-.19-.13v0l0,.09h0s.08.21.18.46m12.72-.78.08-.29-.15.1-.38.26-.42.29a.11.11,0,0,1-.07,0h0l-4.17-.47v.07a.67.67,0,0,0,.32.17,33.37,33.37,0,0,0,3.69.77,4.12,4.12,0,0,0,1-.56v0l.12-.35"/></clipPath><clipPath id="clip-path-38"><path class="cls-2" d="M-79.62,11.38l-.1.13a9.7,9.7,0,0,1-.8.87l-1.17,0c-.66,0-1.3,0-1.9.05a15,15,0,0,1,3-.89c.33-.06.66-.11,1-.14m-5,.37a8,8,0,0,0-1,.8c-.74.08-1.47.17-2.21.29a17,17,0,0,1,3.19-1.09m10.42,1.73-.35,2.39L-76.19,17l-4.33-.48-.66-2.11a.13.13,0,0,0-.11-.1,2.27,2.27,0,0,0-.42,0,2.27,2.27,0,0,0-.42,0,.13.13,0,0,0-.11.1l-.64,2.06-4.31.94-1.7-1.18-.34-2.67.22-.13.36-.07.31,2.53a.17.17,0,0,0,.06.1l1.18.81.08,0h0l3.54-.78h0a.18.18,0,0,0,.07-.08l.64-2.07a4.73,4.73,0,0,1,1-.14,4.73,4.73,0,0,1,1,.14l.64,2.07a.17.17,0,0,0,.12.1l3.54.39a.12.12,0,0,0,.1,0l1.18-.81a.12.12,0,0,0,0-.1l.32-2.16.59.12m.43-1.49-.3,1.13a35.58,35.58,0,0,0-3.86-.58,9.25,9.25,0,0,0,1.8-1c1.11.15,1.92.32,2.36.42m-15.88,0,.08.31c.21-.16.42-.32.64-.46a7.27,7.27,0,0,0-.72.15"/></clipPath><clipPath id="clip-path-39"><path class="cls-2" d="M-77.67,11.35l-1.4-.07-.16.23A9.06,9.06,0,0,1-80.61,13a11,11,0,0,0,3.32-1.6l-.38,0m-3.42-.12h-1.75l-.65.3h0a7.27,7.27,0,0,0-1.73,1.21l.22-.11a11,11,0,0,1,3.39-1.42h.53m-4,.08-.89,0-1,.07-.51,0-.15,0A14.12,14.12,0,0,0-91,14.19l.06-.07A13.51,13.51,0,0,1-85,11.31m9.88,7.53,0,0a2,2,0,0,1-.88.17c-.22,0-.44,0-.68,0-.48,0-1.29-.14-1.29-.14h-.07l0,0s-.71-.57-1.29-1l-.06-.05c-.06-.05-.06-.05-.1-.05a12.74,12.74,0,0,0-1.89.52l-.07,0-.07,0a5.2,5.2,0,0,0-1.7-.29h-.22c-.1,0-.61.24-1.28,1.28l0,.06-.07,0s-1.16.36-2.37.7l-.07,0-.08,0-.93-.42.1,0c.45.38,1.3,1.11,1.39,1.21l0,.05-.06-.08h0a2.65,2.65,0,0,0,.65.46,2.65,2.65,0,0,0,.37.12h.4l.8-.06.8-.09c.27,0,.53-.06.8-.1l.39-.07.18-.05.15-.1.29-.28.28-.28c.16-.16.29-.33.44-.5l.06-.06h0l.1.07c.18.13.37.28.55.4s.47.32.72.46l.18.08h.19a3,3,0,0,0,.42-.06l.84-.14.84-.17.83-.19a2.34,2.34,0,0,0,.4-.13,1.63,1.63,0,0,0,.35-.23,2.47,2.47,0,0,0,.55-.65h0a4.08,4.08,0,0,0,.19-.42m-5.24-13h.5v-1h-3.61v1H-83v-.5h1V8.41h-.42V9H-81V8.41h-.42v-3h1v.5"/></clipPath><clipPath id="clip-path-40"><path class="cls-2" d="M-76.66,11.42h0l-.61-.05h0A11,11,0,0,1-80.61,13l0,0a11.33,11.33,0,0,0,2.48-.73,8.68,8.68,0,0,0,1.39-.77l.11-.07m-5-.2A11,11,0,0,0-85,12.64c.4-.2.81-.39,1.22-.56l.15-.06,0,0,.13-.05.07,0,.11,0,.09,0,.11,0,.1,0,.1,0,.11,0,.1,0,.13-.05.08,0,.22-.07.49-.14.66-.16h-.53m-3.42.09a13.51,13.51,0,0,0-5.86,2.81l-.06.07a19.2,19.2,0,0,1,5.37-2.57l.23-.07c.4-.11.8-.2,1.21-.28l-.89,0m10.3,7.33-.07,0,0,0h0l0,0h0l0,0h0l0,0h0l-.1.05a4.08,4.08,0,0,1-.19.42h0a2.67,2.67,0,0,1-.55.65,1.63,1.63,0,0,1-.35.23,2.34,2.34,0,0,1-.4.13l-.83.19-.84.17-.84.14a3,3,0,0,1-.42.06h-.19l-.18-.08c-.25-.14-.49-.3-.72-.46l-.55-.4,0,0h0l0,0h0l0,0,.15.18,0,0c.08.09.41.46.79.84a1.48,1.48,0,0,0,1.06.43,1.7,1.7,0,0,0,.44-.05l.44-.1,1.28-.31.07,0,.13,0,.19-.05A1.63,1.63,0,0,0-75.41,20l.27-.52c.14-.28.29-.56.44-.84h0l0-.05-.07,0m-6.61,1.24,0,0c-.15.16-.28.34-.44.5l-.28.28-.29.28-.15.1-.18.05-.39.07c-.27,0-.53.08-.8.1l-.8.09-.8.06h-.2a.68.68,0,0,1-.2,0,1.73,1.73,0,0,1-.37-.11,2.65,2.65,0,0,1-.65-.46h0l.08.1,0,0,0-.05c-.09-.1-.94-.83-1.39-1.21l-.1,0,.26.36.4.56.18.23a2.65,2.65,0,0,0,2.25,1.18l.47,0h.2c1-.12,1.3-.17,1.45-.19l.11,0h0a2.38,2.38,0,0,0,.68-.2,1.15,1.15,0,0,0,.57-.52c.28-.62.34-.77.34-.78l.1-.26"/></clipPath><clipPath id="clip-path-41"><path class="cls-2" d="M-78.6,14.27a.22.22,0,0,0,.22-.22.22.22,0,0,0-.23-.22h0a.22.22,0,0,0-.22.22h0A.22.22,0,0,0-78.6,14.27Zm1.38,1c-.3-.14-.62,0-1.21.05-.44,0-.81,0-.84-.66s.26-1.25.7-1.26.84.52.9,1.2a.89.89,0,0,1-.06.43C-77.32,15-77.23,15.25-77.22,15.27Zm-7.68-.83a.24.24,0,0,0,.22-.23.24.24,0,0,0-.23-.22.22.22,0,0,0-.22.23A.22.22,0,0,0-84.9,14.44Zm.68.35c0,.68-.36.64-.8.64h-.27a2,2,0,0,0-.95.11.73.73,0,0,1,.5-.35,1.15,1.15,0,0,1-.08-.39c0-.68.4-1.24.84-1.24S-84.23,14.11-84.22,14.79Zm8.33-4.67a.49.49,0,0,0,0,.12l-.53-.13a17.42,17.42,0,0,0-1.76-.28h-.06v0l0-.2A6.1,6.1,0,0,0-78.07,8l2.1.59A6.76,6.76,0,0,1-75.89,10.12Zm-2.62-.4v.07l-.66-.06a3.68,3.68,0,0,0,.32-1.24,6.05,6.05,0,0,0,.51-.41A5.53,5.53,0,0,1-78.51,9.72ZM-85,9.79V9.72a5.21,5.21,0,0,1-.17-1.64,6.05,6.05,0,0,0,.51.41,3.68,3.68,0,0,0,.32,1.24Zm-.32,0c-.3,0-.59.07-.89.12l-.87.16-.53.13v-.06a7,7,0,0,1,.06-1.63L-85.42,8a5.91,5.91,0,0,0,.11,1.57,2,2,0,0,0,.06.26v0Zm10.53.83,0,0a.19.19,0,0,0-.09,0l-.06,0a5.31,5.31,0,0,0-.6-.22l-.07,0v0a6.52,6.52,0,0,0,0-1,6.24,6.24,0,0,0-.1-.88.14.14,0,0,0-.1-.11l-.29-.08a5.47,5.47,0,0,0-1.05-3.39,6.26,6.26,0,0,1,.83,3.33l-1.86-.52h-.14l-.12.12c0-.17,0-.43,0-.75V7A6.89,6.89,0,0,0-79.29,4s.06.18.13.46a10.21,10.21,0,0,1,.32,3.62v0h0l-.22.17a.14.14,0,0,0-.06.11,3.13,3.13,0,0,1-.32,1.26s0,0,0,0c-.76-.05-1.52-.07-2.29-.07s-1.52,0-2.28.07c0,0,0,0,0,0a3.13,3.13,0,0,1-.32-1.26.14.14,0,0,0-.06-.11l-.23-.17a10.44,10.44,0,0,1,.28-3.53c.09-.34.16-.55.17-.57A7.4,7.4,0,0,0-85,7.8l-.13-.12h-.13l-1.86.52a6.26,6.26,0,0,1,.83-3.33,5.47,5.47,0,0,0-1,3.39l-.29.08a.13.13,0,0,0-.1.11,6.4,6.4,0,0,0-.1.88,6.52,6.52,0,0,0,0,1v0l-.07,0a6.32,6.32,0,0,0-.61.22l0,0h0l-.08,0,0,0h0a3.31,3.31,0,0,1,.42-.12,3.43,3.43,0,0,1,.44-.09c.28-.06.57-.1.87-.14s.58-.07.87-.09l.88-.07c1.17-.07,2.35-.09,3.52-.09s2.36,0,3.53.09l.88.07q.44,0,.87.09c.29,0,.58.08.87.14a3,3,0,0,1,.43.09,2.13,2.13,0,0,1,.43.13Z"/></clipPath><clipPath id="clip-path-42"><path class="cls-2" d="M-81.42,5.36V8.41H-81V9h-1.42V8.41H-82v-3h-1v.5h-.49v-1h3.61v1h-.5v-.5Zm1.89.87V4.51h-4.35V6.23h1.23v-.5h.28V8h-.42v1.3h2.16V8H-81V5.73h.28v.5Z"/></clipPath><clipPath id="clip-path-43"><rect class="cls-1" x="-60.55" y="2.5" width="19.26" height="20"/></clipPath></defs><title>azure</title><rect class="cls-1" x="-585.38" y="-1155.01" width="1366" height="2644"/><rect class="cls-1" x="-876.98" y="-1284.59" width="1366" height="3311"/><path class="cls-3" d="M-50.07-144.74-53-141.81a.24.24,0,0,1-.35,0l-.66-.66a.26.26,0,0,1,0-.35l2.1-2.1L-54-147a.27.27,0,0,1,0-.36l.66-.65a.24.24,0,0,1,.35,0l2.93,2.93A.24.24,0,0,1-50.07-144.74Z"/><g class="cls-17"><rect class="cls-3" x="-610.14" y="-493.94" width="742.75" height="1800.34"/></g><rect class="cls-3" x="-49.09" y="-143.5" width="5.55" height="1.51" rx="0.38"/><g class="cls-18"><rect class="cls-3" x="-609.14" y="-493.94" width="742.75" height="1800.34"/></g><rect class="cls-1" x="-635.39" y="-1210.87" width="1366" height="3024"/><rect class="cls-1" x="-518.19" y="-1011.42" width="1366" height="2291"/><rect class="cls-1" x="-532.27" y="-1388.77" width="1366" height="2291"/><rect class="cls-1" x="-733.71" y="-1131" width="1366" height="2291"/><rect class="cls-1" x="-733.71" y="-1131" width="1366" height="2291"/><rect class="cls-1" x="-733.71" y="-1131" width="1366" height="2291"/><rect class="cls-1" x="-373.76" y="-1669.99" width="1366" height="2291"/><path class="cls-47" d="M12.22,18.89l4.71-.84H17l-2.43-2.88-2.42-2.9s2.5-6.91,2.52-6.94,1.71,2.94,4.13,7.14c2.27,3.93,4.14,7.17,4.15,7.2l0,.05H7.55Z"/><path class="cls-47" d="M3,18s1.14-2,2.54-4.41L8.05,9.2l3-2.49,3-2.49a1,1,0,0,1-.05.12l-3.22,6.9L7.56,18H3"/><rect class="cls-1" x="-670.81" y="-1132" width="1366" height="2291"/></svg>