<svg id="Layer_1" data-name="Layer 1" xmlns="http://www.w3.org/2000/svg" xmlns:xlink="http://www.w3.org/1999/xlink" viewBox="0 0 25 25"><defs><style>.cls-1,.cls-2,.cls-4{fill:none;}.cls-2{clip-rule:evenodd;}.cls-3{fill:#fff;}.cls-4{fill-rule:evenodd;}.cls-5{clip-path:url(#clip-path);}.cls-6{clip-path:url(#clip-path-2);}.cls-7{clip-path:url(#clip-path-3);}.cls-8{clip-path:url(#clip-path-4);}.cls-9{clip-path:url(#clip-path-5);}.cls-10{clip-path:url(#clip-path-6);}.cls-11{clip-path:url(#clip-path-7);}.cls-12{clip-path:url(#clip-path-8);}.cls-13{clip-path:url(#clip-path-9);}.cls-14{clip-path:url(#clip-path-10);}.cls-15{clip-path:url(#clip-path-11);}.cls-16{clip-path:url(#clip-path-12);}.cls-17{clip-path:url(#clip-path-13);}.cls-18{clip-path:url(#clip-path-14);}.cls-19{clip-path:url(#clip-path-15);}.cls-20{clip-path:url(#clip-path-16);}.cls-21{clip-path:url(#clip-path-17);}.cls-22{clip-path:url(#clip-path-18);}.cls-23{clip-path:url(#clip-path-19);}.cls-24{clip-path:url(#clip-path-20);}.cls-25{clip-path:url(#clip-path-21);}.cls-26{clip-path:url(#clip-path-22);}.cls-27{clip-path:url(#clip-path-23);}.cls-28{clip-path:url(#clip-path-24);}.cls-29{clip-path:url(#clip-path-25);}.cls-30{clip-path:url(#clip-path-26);}.cls-31{clip-path:url(#clip-path-28);}.cls-32{clip-path:url(#clip-path-29);}.cls-33{clip-path:url(#clip-path-30);}.cls-34{clip-path:url(#clip-path-31);}.cls-35{clip-path:url(#clip-path-32);}.cls-36{clip-path:url(#clip-path-33);}.cls-37{clip-path:url(#clip-path-34);}.cls-38{clip-path:url(#clip-path-35);}.cls-39{clip-path:url(#clip-path-36);}.cls-40{clip-path:url(#clip-path-37);}.cls-41{clip-path:url(#clip-path-38);}.cls-42{clip-path:url(#clip-path-39);}.cls-43{clip-path:url(#clip-path-40);}.cls-44{clip-path:url(#clip-path-41);}.cls-45{clip-path:url(#clip-path-42);}.cls-46{clip-path:url(#clip-path-43);}.cls-47{clip-path:url(#clip-path-44);}.cls-48{isolation:isolate;}.cls-49{clip-path:url(#clip-path-45);}.cls-50{clip-path:url(#clip-path-46);}.cls-51{fill:#343434;}</style><clipPath id="clip-path"><rect class="cls-1" y="772" width="19.26" height="20"/></clipPath><clipPath id="clip-path-2"><path class="cls-1" d="M-76.81-178.84a2.06,2.06,0,0,0-2.26,2c0,1.26.74,1.85,1.86,2.32l.38.17c.71.31,1,.5,1,1s-.33.76-1,.76-1.12-.52-1.46-1.06l-1.21.81a2.81,2.81,0,0,0,2.7,1.62c1.47,0,2.56-.76,2.56-2.15s-.74-1.87-2-2.43l-.39-.17c-.66-.28-1-.47-1-.93a.68.68,0,0,1,.74-.67,1.06,1.06,0,0,1,1,.67l1.2-.77A2.28,2.28,0,0,0-76.81-178.84Zm-5,0v5.09c0,.78-.29,1-.81,1a1.34,1.34,0,0,1-1.16-.77l-1.27.77a2.84,2.84,0,0,0,2.53,1.62,2.12,2.12,0,0,0,2.33-2.36v-5.33Zm-6.61-6.88h14.84a.27.27,0,0,1,.27.27v14.84a.27.27,0,0,1-.27.27H-88.46a.27.27,0,0,1-.27-.27v-14.84A.27.27,0,0,1-88.46-185.72Zm0-.81a1.09,1.09,0,0,0-1.08,1.08v14.84a1.09,1.09,0,0,0,1.08,1.08h14.84a1.09,1.09,0,0,0,1.08-1.08v-14.84a1.09,1.09,0,0,0-1.08-1.08Z"/></clipPath><clipPath id="clip-path-3"><path class="cls-2" d="M-50.66-177.87l-.3-.49c-.11-.16-.2-.34-.3-.51a5.51,5.51,0,0,1-.47-1.16,2,2,0,0,1,.63-1.72l.18-.22c.4-.45.94-1,1.35-1.45a2.55,2.55,0,0,0,.74-1.7c0-.39,0-1.22-.29-1.36a2.84,2.84,0,0,1-.13,1.55,3.35,3.35,0,0,1-1.12,1.49c-.38.32-1,.91-1.33,1.26a3.41,3.41,0,0,0-.73,1,1.4,1.4,0,0,0,.24,1.36c.11.19.22.35.34.52s.27.34.38.5.27.32.4.47a4.75,4.75,0,0,0,.41.46"/></clipPath><clipPath id="clip-path-4"><path class="cls-2" d="M-45.36-172.84c.16.2,0,.29-.22.37A29.33,29.33,0,0,1-51-172a22.71,22.71,0,0,1-3.21-.16c-.17,0-.91-.11-1-.26s.11-.16.18-.2a4.14,4.14,0,0,1,1-.23,3.69,3.69,0,0,0,.37-.05,4.73,4.73,0,0,0-2.46.53c-.23.24.14.35.39.41a23.23,23.23,0,0,0,3.86.28c1.52,0,5.17,0,6.51-.69.07,0,.23-.12.24-.21s-.14-.19-.22-.22"/></clipPath><clipPath id="clip-path-5"><path class="cls-2" d="M-49.49-176.64a3.67,3.67,0,0,0,.8-.59,1.5,1.5,0,0,0,.51-.88,2,2,0,0,0-.38-1c-.47-.69-.85-1.09-.21-1.87a5.76,5.76,0,0,1,.72-.67,13,13,0,0,1,1.25-.85l.43-.27a8,8,0,0,0-1.08.35,7.35,7.35,0,0,0-1,.46c-1,.54-1.93,1.39-1.54,2.56.27.8,1,1.27,1,1.87,0,.36-.4.73-.5.91"/></clipPath><clipPath id="clip-path-6"><path class="cls-2" d="M-47.6-173.44a6.06,6.06,0,0,1-.86-.38c-.16-.08-.1-.08-.31,0a16.5,16.5,0,0,1-3.23.16c-.24,0-.9,0-1-.21s0-.21.08-.28c-.61.11-1.22.53-.38.89a9.61,9.61,0,0,0,4,.25,15.19,15.19,0,0,0,1.77-.4"/></clipPath><clipPath id="clip-path-7"><path class="cls-2" d="M-47.6-174.66a1.38,1.38,0,0,1-.55-.3c-.12-.1-.08-.08-.33,0-.91.14-3.63.41-4.41.09-.1,0-.22-.1-.22-.22s.11-.21.16-.29c-.63.08-1.23.67-.39.95a12.09,12.09,0,0,0,4,.21,9.33,9.33,0,0,0,1.75-.41"/></clipPath><clipPath id="clip-path-8"><path class="cls-2" d="M-46.37-177.34a3.19,3.19,0,0,0-.42.05l-.44,0c-.89.11-1.88.19-2.78.23-.69,0-3.32.11-3.72-.19,0-.14.16-.23.28-.28a9.13,9.13,0,0,1,1.37-.39,7.79,7.79,0,0,0-2.71.61c-.61.32.4.44.78.49a27.74,27.74,0,0,0,6.44-.14,1.41,1.41,0,0,0,.67-.16,5.24,5.24,0,0,0,.53-.27"/></clipPath><clipPath id="clip-path-9"><path class="cls-2" d="M-53.75-170.88a14.43,14.43,0,0,0,2.52.36,25.16,25.16,0,0,0,2.88,0,12.42,12.42,0,0,0,3.7-.61c.25-.1.7-.34.75-.58-.08,0-.15.09-.22.12-1.87,1-6.14.93-8.34.8l-1.29-.08"/></clipPath><clipPath id="clip-path-10"><path class="cls-2" d="M-46-177.57a1.19,1.19,0,0,1,1.23.24,1.32,1.32,0,0,1,.09,1.4,4.58,4.58,0,0,1-1.42,1.57l-.25.18a4.91,4.91,0,0,0,1.41-.67,2.56,2.56,0,0,0,1-1.21,1.35,1.35,0,0,0-.5-1.58,1.3,1.3,0,0,0-.8-.23,1.11,1.11,0,0,0-.73.3"/></clipPath><clipPath id="clip-path-11"><path class="cls-1" d="M-20.79-183.86a.68.68,0,0,1,.65.69.67.67,0,0,1-.65.67.66.66,0,0,1-.65-.67A.67.67,0,0,1-20.79-183.86Zm1.86-1.09a9.2,9.2,0,0,0-1.64.14c-1.46.27-1.73.83-1.73,1.86v1.36h3.45v.46h-4.74a2.16,2.16,0,0,0-2.15,1.81,6.88,6.88,0,0,0,0,3.63c.24,1.06.83,1.81,1.83,1.81h1.18v-1.63a2.24,2.24,0,0,1,2.16-2.22h3.44a1.78,1.78,0,0,0,1.72-1.82v-3.4a2,2,0,0,0-1.72-1.86A10,10,0,0,0-18.93-184.95Z"/></clipPath><clipPath id="clip-path-12"><path class="cls-1" d="M-16.88-172.48a.66.66,0,0,1,.64.68.66.66,0,0,1-.64.68.67.67,0,0,1-.65-.68A.67.67,0,0,1-16.88-172.48Zm1.93-8.55v1.58a2.24,2.24,0,0,1-2.15,2.25h-3.43a1.78,1.78,0,0,0-1.72,1.8V-172c0,1,.81,1.53,1.72,1.81a5.57,5.57,0,0,0,3.43,0c.87-.26,1.72-.78,1.72-1.81v-1.35h-3.43v-.45h5.15c1,0,1.37-.72,1.72-1.79a6.31,6.31,0,0,0,0-3.61c-.25-1-.72-1.8-1.72-1.8Z"/></clipPath><clipPath id="clip-path-13"><path class="cls-3" d="M13.35-144.74l-2.93,2.93a.24.24,0,0,1-.35,0l-.66-.66a.26.26,0,0,1,0-.35l2.1-2.1L9.41-147a.27.27,0,0,1,0-.36l.66-.65a.24.24,0,0,1,.35,0l2.93,2.93A.24.24,0,0,1,13.35-144.74Z"/></clipPath><clipPath id="clip-path-14"><rect class="cls-3" x="14.33" y="-143.5" width="5.55" height="1.51" rx="0.38"/></clipPath><clipPath id="clip-path-15"><polygon class="cls-1" points="-90.52 -115.25 -70.12 -115.25 -70.12 -107.82 -80.32 -107.82 -80.32 -106.51 -84.99 -106.51 -84.99 -107.82 -90.52 -107.82 -90.52 -115.25"/></clipPath><clipPath id="clip-path-16"><polygon class="cls-1" points="-88.33 -108.7 -86.51 -108.7 -86.51 -112.41 -85.42 -112.41 -85.42 -108.7 -84.69 -108.7 -84.69 -113.8 -88.33 -113.8 -88.33 -108.7"/></clipPath><clipPath id="clip-path-17"><path class="cls-1" d="M-80.32-110.47h-1.09v-2.08h1.09Zm-2.91-3.33V-108h1.82v-1.25h1.82v-4.58Z"/></clipPath><clipPath id="clip-path-18"><polygon class="cls-1" points="-78.86 -113.8 -78.86 -108.7 -76.81 -108.7 -76.81 -112.41 -75.58 -112.41 -75.58 -108.7 -74.35 -108.7 -74.35 -112.41 -73.12 -112.41 -73.12 -108.7 -72.3 -108.7 -72.3 -113.8 -78.86 -113.8"/></clipPath><clipPath id="clip-path-19"><path class="cls-1" d="M-7.68-112v2.76a1.39,1.39,0,0,1-1.39,1.39h-2.76a1.39,1.39,0,0,1-1.39-1.39V-112a1.39,1.39,0,0,1,1.39-1.39h2.76A1.39,1.39,0,0,1-7.68-112Zm-7.38,0v2.76a1.39,1.39,0,0,1-1.39,1.39h-2.76a1.39,1.39,0,0,1-1.39-1.39V-112a1.39,1.39,0,0,1,1.39-1.39h2.76A1.39,1.39,0,0,1-15.06-112Zm-7.38,0v2.76a1.38,1.38,0,0,1-1.38,1.39h-2.77A1.38,1.38,0,0,1-28-109.24V-112a1.38,1.38,0,0,1,1.38-1.39h2.77A1.38,1.38,0,0,1-22.44-112Z"/></clipPath><clipPath id="clip-path-20"><path class="cls-1" d="M21-106.73H17.3v-5.85h3.57v1.08H18.61v1.22h2.13v1.08H18.61v1.39H21v1.08Zm-.29,4.87H7.91v-3.78H20.7ZM7.45-106.73v-5.85H11v1.08H8.76v1.22h2.13v1.08H8.76v1.39h2.38v1.08Zm4.22-5.85h1.5l.5,1.07a10.15,10.15,0,0,1,.44,1h0c.14-.37.25-.63.39-1l.49-1.07h1.5l-1.63,2.86,1.71,3H15.08l-.52-1.06c-.22-.4-.35-.71-.52-1h0c-.12.34-.27.65-.45,1l-.48,1.06H11.61l1.67-3Zm-3.76-7.5h9v4a.38.38,0,0,0,.39.39H20.7v2H7.91Zm14,6.37h-.48v-2.36a.39.39,0,0,0-.09-.26l-3.81-4.4h0a.23.23,0,0,0-.07-.07l0,0-.07,0H7.91a.78.78,0,0,0-.77.79v6.37H6.66a1.11,1.11,0,0,0-1.1,1.12v5.83a1.11,1.11,0,0,0,1.1,1.12h.48v4a.77.77,0,0,0,.77.78H20.7a.77.77,0,0,0,.77-.78v-4H22a1.12,1.12,0,0,0,1.11-1.12v-5.83A1.12,1.12,0,0,0,22-113.71Z"/></clipPath><clipPath id="clip-path-21"><path class="cls-1" d="M45.13-19.23a1,1,0,0,0-1,1h2A1,1,0,0,0,45.13-19.23Zm0-1.2a2.45,2.45,0,0,1,2.62,2.71v.49H44.11v.08A1,1,0,0,0,45.18-16a1,1,0,0,0,1-.49h1.56a2.34,2.34,0,0,1-2.58,1.73,2.5,2.5,0,0,1-2.71-2.8C42.46-19.37,43.44-20.43,45.13-20.43Zm-7.29-1.83c1.65,0,2.8.89,2.85,2.23H39a1.07,1.07,0,0,0-1.16-.85c-.62,0-1.06.31-1.06.76s.31.62,1.06.75l.94.18c1.42.27,2,.89,2,2,0,1.47-1.11,2.36-3,2.36s-2.93-.84-3-2.22H36.6c0,.53.58.84,1.29.84S39-16.48,39-17s-.31-.62-1.11-.75L37-17.9c-1.29-.27-2-1-2-2.09C35-21.37,36.11-22.26,37.84-22.26ZM34.2-32.17a1.8,1.8,0,0,0-1.82,1.82V-14a1.8,1.8,0,0,0,1.82,1.82H50.55A1.8,1.8,0,0,0,52.38-14V-30.26l-6.8,6.85L41-28l1.91-1.92,2.67,2.67,4.89-4.89Z"/></clipPath><clipPath id="clip-path-22"><path class="cls-2" d="M80.66-24.26l1.07-.51a.16.16,0,0,1,.15,0,1.82,1.82,0,0,1,.49.75s0,0,0,0c.2-.39,1.44-2.41,2.93-2.7A11.31,11.31,0,0,0,83.84-25a15.72,15.72,0,0,0-1,1.87.24.24,0,0,1-.2.15H81.38a.11.11,0,0,1-.1-.1,1.51,1.51,0,0,0-.64-1.19s0,0,0,0"/></clipPath><clipPath id="clip-path-23"><path class="cls-2" d="M62.23-19.21l-.34.75a.14.14,0,0,0,.11.21h4.27a.47.47,0,0,0,.44-.29l.71-1.38a.12.12,0,0,0-.1-.18h-2a.14.14,0,0,1-.12-.18l.44-1a.3.3,0,0,1,.29-.21h.23a.11.11,0,0,1,.09.18l-.25.5a.15.15,0,0,0,.12.2h1.44a.49.49,0,0,0,.41-.26l.5-.91a.15.15,0,0,0-.11-.23H64a.43.43,0,0,0-.38.26L62.66-20a.13.13,0,0,0,.09.21H65.2a.11.11,0,0,1,.09.18l-.43.86s0,0-.07,0h-.62a.08.08,0,0,1-.07-.13l.25-.47c.05-.07,0-.15-.09-.15H62.55c-.14,0-.25.08-.32.21"/></clipPath><clipPath id="clip-path-24"><path class="cls-2" d="M69.27-21.31l-.59,1c-.05.09,0,.18.12.18h1.72a.5.5,0,0,0,.41-.23l.31-.52a.43.43,0,0,1,.35-.21h0c.09,0,.14.09.12.19l-.41.8a.5.5,0,0,1-.45.25H68.39l-.87,1.44a.14.14,0,0,0,.11.2h4.29a.51.51,0,0,0,.43-.25l1.59-2.83a.15.15,0,0,0-.12-.21H69.65a.57.57,0,0,0-.38.23m1.14,2.65h-.15a.14.14,0,0,1-.11-.21l.21-.43a.38.38,0,0,1,.31-.18.2.2,0,0,1,.19.29l-.19.35a.29.29,0,0,1-.26.18m5.68-5.05-.07.14-2.91,5.12a.14.14,0,0,0,.12.2h1.65a.39.39,0,0,0,.34-.18L76.8-21a.5.5,0,0,1,.41-.23.17.17,0,0,1,.16.25L76-18.45a.14.14,0,0,0,.14.2h1.54a.59.59,0,0,0,.48-.27l1.25-2.31.29-.55s.14-.27-.05-.27H77.4a.1.1,0,0,1-.08-.12l.24-.43a.57.57,0,0,0,0-.55,5,5,0,0,0-.83-1.09c-.14,0-.47-.12-.62.13"/></clipPath><clipPath id="clip-path-25"><path class="cls-2" d="M80.51-21.91l-1.73,3.37a.2.2,0,0,0,.14.29h1.82a.13.13,0,0,0,.14-.1l1.61-3.38a.17.17,0,0,0-.14-.26H80.67c-.09,0-.14,0-.16.08"/></clipPath><clipPath id="clip-path-26"><rect class="cls-1" x="80.71" y="-26.69" width="4.6" height="3.69"/></clipPath><clipPath id="clip-path-28"><path class="cls-2" d="M-86.66,22.63a1.82,1.82,0,0,1-.93-.24,2,2,0,0,1-1-1.76v-8a2,2,0,0,1,2-2,2,2,0,0,1,2,2V16.9l6.31-4.26L-87.76,6.3a2,2,0,0,1-.55-2.78A2,2,0,0,1-85.57,3l11.85,8a2,2,0,0,1,.87,1.67,2,2,0,0,1-.87,1.66l-11.84,8a2,2,0,0,1-1.1.33"/></clipPath><clipPath id="clip-path-29"><rect class="cls-1" x="-29.35" y="2.6" width="20.49" height="20"/></clipPath><clipPath id="clip-path-30"><path class="cls-2" d="M-17.39,21l-.33,0h-.23c.08-.18.15-.33.19-.44l.37.39"/></clipPath><clipPath id="clip-path-31"><path class="cls-2" d="M-17.52,12.75a5.14,5.14,0,0,1-.54.37l-.62.37a7,7,0,0,0-.76.15l0,0a.1.1,0,0,0-.06.08l-.64,2.06-3.4.74-1.07-.74-.31-2.48c.61-.11,1.42-.24,2.4-.34-.11.12-.21.25-.31.38l-.58.83.85-.56a12.57,12.57,0,0,1,1.43-.78c1-.07,1.93-.11,2.89-.11Zm-5.29,2.8a2,2,0,0,1,.94-.11h.27c.44,0,.8,0,.8-.64s-.32-1.23-.76-1.22-.86.56-.84,1.24a1.15,1.15,0,0,0,.08.39.67.67,0,0,0-.49.35Zm11.18-2.24-.31,2.11-1.08.75-3.39-.38-.64-2a.15.15,0,0,0-.09-.1,6.49,6.49,0,0,0-.89-.16h.08a12.79,12.79,0,0,0,2.64-.62C-13.76,13-12.5,13.16-11.63,13.31Zm-2.17,2s-.1-.29-.51-.24a.89.89,0,0,0,.06-.43c-.06-.68-.46-1.22-.9-1.2s-.72.58-.7,1.26.4.67.84.66C-14.42,15.3-14.1,15.13-13.8,15.27Z"/></clipPath><clipPath id="clip-path-32"><path class="cls-2" d="M-15,14.21c0,.22-.1.4-.22.4s-.23-.16-.23-.38h0c0-.22.09-.4.22-.4h0c.12,0,.23.16.23.38h0m-6.3.29c0,.22-.1.4-.22.4s-.23-.16-.23-.38h0c0-.21.09-.39.22-.4h0c.12,0,.22.17.23.38"/></clipPath><clipPath id="clip-path-33"><path class="cls-2" d="M-10.15,14.24a4.12,4.12,0,0,0-.4-.23l-.29,2a.1.1,0,0,1-.06.09l-.4.28,0,.13a1.2,1.2,0,0,0,1-.39,8.3,8.3,0,0,0,.22-1.18c0-.51,0-.62-.05-.66m-6.29,7.46a1.86,1.86,0,0,1-.71-.45l-.06-.05a4,4,0,0,1-.5.07h-.36a2,2,0,0,1-1,.68,6.18,6.18,0,0,0,2.64-.26m-8.69-4.81,0-.09-.53-.36a.17.17,0,0,1-.06-.1L-26,14.28a4.41,4.41,0,0,0-.47.27c-.05,0-.09.15,0,.64a7.51,7.51,0,0,0,.31,1.36,1.4,1.4,0,0,0,1.07.34m7.9-.09a.17.17,0,0,1-.12-.1L-18,14.58l-.29,0-.29,0-.63,2.06a.14.14,0,0,1-.11.09l-.3.07a.49.49,0,0,1-.39.34,33.51,33.51,0,0,1-3.66.94,3.13,3.13,0,0,1-.82-.39c-.11-.25-.17-.41-.19-.45h0a9.59,9.59,0,0,0,1.18,2.21l1.75-.53c.46-.7,1.11-1.39,1.58-1.42h.24a4.45,4.45,0,0,1,.65,0,.75.75,0,0,1-.23-.41,2,2,0,0,0,1.35.36A2.42,2.42,0,0,0-16.94,17l0-.13-.31,0"/></clipPath><clipPath id="clip-path-34"><path class="cls-2" d="M-16.61,17.07a.67.67,0,0,1-.32-.17V17a.75.75,0,0,1-.33.56,4.36,4.36,0,0,1,1.07-.25.52.52,0,0,1,.38.15l.06,0,1.24,1,1.22.13c.23,0,.44,0,.64,0h.19a10.73,10.73,0,0,0,.57-1.31,4.12,4.12,0,0,1-1,.56,33.86,33.86,0,0,1-3.69-.77"/></clipPath><clipPath id="clip-path-35"><path class="cls-2" d="M-9.29,9.66l0-.2a.59.59,0,0,0,0-.14,3.25,3.25,0,0,0-.61-.41,6.24,6.24,0,0,0-.73-.37c-.25-.12-.51-.22-.76-.33l-.39-.14-.4-.15c.28,0,.55.11.82.18a4.61,4.61,0,0,1,.53.15A8.07,8.07,0,0,0-18.33,3a8.07,8.07,0,0,0-7.44,5.27,4.61,4.61,0,0,1,.53-.15c.27-.07.54-.13.82-.18l-.4.15-.39.14c-.25.11-.51.21-.76.33a6.24,6.24,0,0,0-.73.37,3.25,3.25,0,0,0-.61.41.59.59,0,0,0,0,.14l0,.2c0,.14,0,.28,0,.41a4.46,4.46,0,0,0,.05.82,7.08,7.08,0,0,0,.16.8c0,.13.08.26.13.39a1.42,1.42,0,0,0,.08.18.36.36,0,0,0,0,.09l0,0,.06,0,.12.06.24.11h0l-.23-.86c.05,0,.48-.13,1.23-.27l-.18,0-.5-.16-.24-.12a.8.8,0,0,1-.21-.15,13.19,13.19,0,0,0,4,0,41.26,41.26,0,0,1,4.16-.23,41.26,41.26,0,0,1,4.16.23,13.19,13.19,0,0,0,4,0,.8.8,0,0,1-.21.15l-.24.12-.5.16h-.08c.83.15,1.3.27,1.36.29l-.22.81.13,0,.12-.06.06,0,0,0a.36.36,0,0,0,0-.09,1.42,1.42,0,0,0,.08-.18c0-.13.09-.26.13-.39a5.39,5.39,0,0,0,.16-.8,4.46,4.46,0,0,0,.05-.82c0-.13,0-.27,0-.41"/></clipPath><clipPath id="clip-path-36"><path class="cls-2" d="M-14.92,8.08a5.21,5.21,0,0,1-.17,1.64v.07l-.66-.06a3.68,3.68,0,0,0,.32-1.24,6.05,6.05,0,0,0,.51-.41m-6.3.41a3.68,3.68,0,0,0,.32,1.24l-.66.06V9.72a5.53,5.53,0,0,1-.17-1.64,6.05,6.05,0,0,0,.51.41m9,1.81v0l.07,0a6.32,6.32,0,0,1,.61.22,2.18,2.18,0,0,1-.65-1.26,6.52,6.52,0,0,1,0,1M-22,8l-2.11.59a7,7,0,0,0-.06,1.63h0A6,6,0,0,1-23.95,9c.07-.17.51-.28.84-.36s.88-.24,1,.23a2.84,2.84,0,0,0,.24.7A5.91,5.91,0,0,1-22,8m7.35,0a6.1,6.1,0,0,1-.12,1.64,3.2,3.2,0,0,0,.27-.77c.11-.47.64-.31,1-.23s.77.19.84.36a5.61,5.61,0,0,1,.21,1.16,7.19,7.19,0,0,0-.07-1.57L-14.65,8m-6.58.18.23.17a.14.14,0,0,1,.06.11,3.13,3.13,0,0,0,.32,1.26s0,0,0,0c.76-.05,1.52-.07,2.29-.07s1.52,0,2.28.07c0,0,0,0,0,0a3.13,3.13,0,0,0,.32-1.26.14.14,0,0,1,.06-.11l.22-.17v0a10.5,10.5,0,0,0-.31-3.62C-15.74,5-15.86,9-16.88,9h-2.83c-1.09,0-1.18-4.59-1.18-4.59l-.06.16a10.44,10.44,0,0,0-.28,3.53m-3.2,2.18v0a6.52,6.52,0,0,1,0-1,2.21,2.21,0,0,1-.65,1.26,6.32,6.32,0,0,1,.61-.22l.07,0"/></clipPath><clipPath id="clip-path-37"><path class="cls-2" d="M-11.33,16.47l-.06.27a2.85,2.85,0,0,0,.8.06,2.28,2.28,0,0,0,.27-.72,1.2,1.2,0,0,1-1,.39m-8.36,5.62a5.13,5.13,0,0,0,1.69.18,7,7,0,0,0,2.07-.47,1.71,1.71,0,0,1-.51-.1,6.18,6.18,0,0,1-2.64.26,2.84,2.84,0,0,1-.49.11l-.12,0M-25.1,17l0-.12a1.4,1.4,0,0,1-1.07-.34,1.44,1.44,0,0,0,.24.55A2.34,2.34,0,0,0-25.1,17m.61.68a3.13,3.13,0,0,0,.82.39A33.51,33.51,0,0,0-20,17.14a.49.49,0,0,0,.39-.34l-4.15.91h0l-.08,0-.16-.11-.49-.34h0l-.19-.13v0l0,.09h0s.08.21.19.46m12.71-.78c0-.1.06-.19.08-.29l-.15.1-.38.26-.42.29a.11.11,0,0,1-.07,0h0l-4.17-.47v.07a.67.67,0,0,0,.32.17,33.86,33.86,0,0,0,3.69.77,4.12,4.12,0,0,0,1-.56v0l.12-.35"/></clipPath><clipPath id="clip-path-38"><path class="cls-2" d="M-16.19,11.38l-.11.13a9.7,9.7,0,0,1-.8.87l-1.17,0c-.66,0-1.3,0-1.9.05a15,15,0,0,1,3-.89c.33-.06.66-.11,1-.14m-5,.37a8.88,8.88,0,0,0-1,.8c-.74.08-1.47.17-2.21.29a17,17,0,0,1,3.19-1.09m10.42,1.73-.35,2.39L-12.77,17l-4.33-.48-.65-2.11a.14.14,0,0,0-.12-.1,2.27,2.27,0,0,0-.42,0,2.27,2.27,0,0,0-.42,0,.14.14,0,0,0-.11.1l-.64,2.06-4.31.94-1.7-1.18-.34-2.67.22-.13.36-.07.32,2.53a.11.11,0,0,0,.06.1l1.17.81.08,0h0l3.54-.78h0a.18.18,0,0,0,.07-.08l.64-2.07a4.73,4.73,0,0,1,1-.14,4.85,4.85,0,0,1,1,.14l.63,2.07a.17.17,0,0,0,.12.1l3.54.39a.12.12,0,0,0,.1,0l1.18-.81a.17.17,0,0,0,.06-.1l.31-2.16.59.12m.43-1.49-.3,1.13a35.16,35.16,0,0,0-3.86-.58,9.25,9.25,0,0,0,1.8-1c1.11.15,1.92.32,2.36.42m-15.88,0,.08.31c.21-.16.42-.32.64-.46a7.27,7.27,0,0,0-.72.15"/></clipPath><clipPath id="clip-path-39"><path class="cls-2" d="M-14.25,11.35l-1.4-.07-.16.23A9.06,9.06,0,0,1-17.19,13a11,11,0,0,0,3.32-1.6l-.38,0m-3.42-.12h-1.75l-.65.3h0a7.27,7.27,0,0,0-1.73,1.21l.22-.11a11,11,0,0,1,3.39-1.42h.53m-3.95.08-.89,0-1,.07-.51,0-.15,0a14.12,14.12,0,0,0-3.34,2.71l.06-.07a13.51,13.51,0,0,1,5.86-2.81m9.88,7.53,0,0a2,2,0,0,1-.88.17c-.22,0-.44,0-.68,0-.48,0-1.29-.14-1.29-.14h-.07l0,0s-.72-.57-1.3-1l-.06-.05c-.06-.05-.06-.05-.1-.05a12.74,12.74,0,0,0-1.89.52l-.07,0-.07,0a5.2,5.2,0,0,0-1.7-.29h-.22c-.09,0-.61.24-1.28,1.28l0,.06-.07,0s-1.16.36-2.36.7L-24,20l-.08,0-.93-.42.1,0c.45.38,1.3,1.11,1.39,1.21l.05.05-.06-.08h0a2.65,2.65,0,0,0,.65.46,2.4,2.4,0,0,0,.38.12h.39l.8-.06.8-.09c.27,0,.53-.06.8-.1l.39-.07.18-.05a.65.65,0,0,0,.15-.1l.29-.28a3.7,3.7,0,0,0,.28-.28c.16-.16.29-.33.44-.5l.06-.06h0l.1.07c.18.13.37.28.55.4s.47.32.72.46l.18.08h.19a3,3,0,0,0,.42-.06l.84-.14.84-.17.83-.19a2.34,2.34,0,0,0,.4-.13,1.63,1.63,0,0,0,.35-.23,2.47,2.47,0,0,0,.55-.65h0a4.08,4.08,0,0,0,.19-.42M-17,5.86h.5v-1h-3.61v1h.49v-.5h1V8.41H-19V9h1.42V8.41H-18v-3h1v.5"/></clipPath><clipPath id="clip-path-40"><path class="cls-2" d="M-13.24,11.42h0l-.62-.05h0A11,11,0,0,1-17.19,13l0,0a11.33,11.33,0,0,0,2.48-.73,9.22,9.22,0,0,0,1.4-.77l.1-.07m-5-.2a11,11,0,0,0-3.39,1.42c.4-.2.81-.39,1.22-.56l.15-.06,0,0L-20,12l.07,0,.11,0,.09,0,.11,0,.1,0,.1,0,.12,0,.09,0,.13-.05.08,0,.22-.07.49-.14.66-.16h-.53m-3.42.09a13.51,13.51,0,0,0-5.86,2.81l-.06.07a19.2,19.2,0,0,1,5.37-2.57l.23-.07c.4-.11.8-.2,1.21-.28l-.89,0m10.3,7.33-.07,0,0,0h0l-.05,0h0l-.05,0h0l-.05,0h0l-.1.05a4.08,4.08,0,0,1-.19.42h0a2.67,2.67,0,0,1-.55.65,1.63,1.63,0,0,1-.35.23,2.34,2.34,0,0,1-.4.13l-.83.19-.84.17-.84.14a3,3,0,0,1-.42.06h-.19l-.18-.08c-.25-.14-.48-.3-.72-.46l-.55-.4,0,0h0l0,0h0l0,0,.16.18v0c.08.09.41.46.8.84a1.45,1.45,0,0,0,1.06.43,1.67,1.67,0,0,0,.43-.05l.44-.1,1.28-.31.07,0,.13,0,.19-.05A1.63,1.63,0,0,0-12,20l.27-.52c.14-.28.29-.56.44-.84h0l0-.05-.07,0m-6.61,1.24,0,0c-.15.16-.28.34-.44.5s-.18.19-.28.28l-.29.28a.65.65,0,0,1-.15.1l-.18.05-.39.07c-.27,0-.53.08-.8.1l-.8.09-.8.06h-.2a.58.58,0,0,1-.19,0,1.66,1.66,0,0,1-.38-.11,2.85,2.85,0,0,1-.65-.46h0l.08.1,0,0-.05-.05c-.09-.1-.94-.83-1.39-1.21l-.1,0,.26.36.4.56.18.23a2.65,2.65,0,0,0,2.25,1.18l.47,0h.2c1-.12,1.3-.17,1.45-.19l.11,0h.05a2.38,2.38,0,0,0,.68-.2,1.15,1.15,0,0,0,.57-.52c.28-.62.34-.77.34-.78l.1-.26"/></clipPath><clipPath id="clip-path-41"><path class="cls-2" d="M-15.18,14.27a.22.22,0,0,0,.22-.22.22.22,0,0,0-.23-.22h0a.22.22,0,0,0-.22.22h0A.22.22,0,0,0-15.18,14.27Zm1.38,1c-.3-.14-.62,0-1.21.05-.44,0-.81,0-.84-.66s.26-1.25.7-1.26.84.52.9,1.2a.89.89,0,0,1-.06.43C-13.9,15-13.8,15.25-13.8,15.27Zm-7.68-.83a.24.24,0,0,0,.22-.23.24.24,0,0,0-.23-.22.22.22,0,0,0-.22.23A.22.22,0,0,0-21.48,14.44Zm.68.35c0,.68-.36.64-.8.64h-.27a2,2,0,0,0-.94.11.67.67,0,0,1,.49-.35,1.15,1.15,0,0,1-.08-.39c0-.68.4-1.24.84-1.24S-20.81,14.11-20.8,14.79Zm8.33-4.67a.49.49,0,0,0,0,.12l-.53-.13a17.42,17.42,0,0,0-1.76-.28h-.06v0l.05-.2A6.1,6.1,0,0,0-14.65,8l2.11.59A7.19,7.19,0,0,1-12.47,10.12Zm-2.62-.4v.07l-.66-.06a3.68,3.68,0,0,0,.32-1.24,6.05,6.05,0,0,0,.51-.41A5.21,5.21,0,0,1-15.09,9.72Zm-6.47.07V9.72a5.53,5.53,0,0,1-.17-1.64,6.05,6.05,0,0,0,.51.41,3.68,3.68,0,0,0,.32,1.24Zm-.32,0c-.3,0-.59.07-.88.12l-.88.16-.53.13v-.06a6.62,6.62,0,0,1,.07-1.63L-22,8a5.91,5.91,0,0,0,.11,1.57l.06.26v0Zm10.53.83-.05,0a.19.19,0,0,0-.09,0l0,0a6.32,6.32,0,0,0-.61-.22l-.07,0v0a6.52,6.52,0,0,0,0-1,6.24,6.24,0,0,0-.1-.88.14.14,0,0,0-.09-.11l-.3-.08a5.47,5.47,0,0,0-1.05-3.39,6.26,6.26,0,0,1,.83,3.33l-1.86-.52h-.13L-15,7.8c0-.17,0-.43,0-.75V7A6.89,6.89,0,0,0-15.87,4s.06.18.14.46a10.5,10.5,0,0,1,.31,3.62v0h0l-.22.17a.14.14,0,0,0-.06.11A3.13,3.13,0,0,1-16,9.68s0,0,0,0c-.76-.05-1.52-.07-2.29-.07s-1.52,0-2.28.07c0,0,0,0,0,0a3.13,3.13,0,0,1-.32-1.26A.14.14,0,0,0-21,8.31l-.23-.17a10.44,10.44,0,0,1,.28-3.53c.09-.34.17-.55.17-.57a7.51,7.51,0,0,0-.85,3.76l-.13-.12h-.13l-1.86.52a6.26,6.26,0,0,1,.83-3.33,5.47,5.47,0,0,0-1,3.39l-.29.08a.14.14,0,0,0-.1.11,8.46,8.46,0,0,0-.1.88,6.52,6.52,0,0,0,0,1v0l-.07,0a6.32,6.32,0,0,0-.61.22l-.05,0h0l-.09,0-.05,0h0a3,3,0,0,1,.43-.12,3,3,0,0,1,.43-.09c.29-.06.58-.1.87-.14s.58-.07.87-.09l.88-.07c1.17-.07,2.35-.09,3.52-.09s2.36,0,3.53.09l.88.07q.43,0,.87.09c.29,0,.59.08.87.14a3,3,0,0,1,.43.09,2.13,2.13,0,0,1,.43.13Z"/></clipPath><clipPath id="clip-path-42"><path class="cls-2" d="M-18,5.36V8.41h.42V9H-19V8.41h.42v-3h-1v.5h-.49v-1h3.61v1H-17v-.5Zm1.89.87V4.51h-4.35V6.23h1.23v-.5h.28V8h-.42v1.3h2.17V8h-.43V5.73h.28v.5Z"/></clipPath><clipPath id="clip-path-43"><rect class="cls-1" x="2.87" y="2.5" width="19.26" height="20"/></clipPath><clipPath id="clip-path-44"><rect class="cls-1" x="-375.13" y="-1554.5" width="1366" height="2291"/></clipPath><clipPath id="clip-path-45"><rect class="cls-1" x="2.87" y="2.5" width="20" height="20"/></clipPath><clipPath id="clip-path-46"><path class="cls-2" d="M10,12.5a2.32,2.32,0,1,1,2.32,2.38A2.35,2.35,0,0,1,10,12.5m2.32-10A9.8,9.8,0,0,0,2.89,10s0,.06,0,.09a.46.46,0,0,0,.46.48H7.27a.47.47,0,0,0,.42-.29,5.13,5.13,0,0,1,4.66-3.06,5.25,5.25,0,0,1,0,10.5,5.15,5.15,0,0,1-4.66-3.06.47.47,0,0,0-.42-.29H3.33a.46.46,0,0,0-.46.48.16.16,0,0,0,0,.09,9.8,9.8,0,0,0,9.46,7.53,9.91,9.91,0,0,0,9.78-10,9.88,9.88,0,0,0-9.78-10"/></clipPath></defs><title>circleci</title><rect class="cls-1" x="-521.96" y="-1155.01" width="1366" height="2644"/><rect class="cls-1" x="-813.56" y="-1284.59" width="1366" height="3311"/><path class="cls-3" d="M13.35-144.74l-2.93,2.93a.24.24,0,0,1-.35,0l-.66-.66a.26.26,0,0,1,0-.35l2.1-2.1L9.41-147a.27.27,0,0,1,0-.36l.66-.65a.24.24,0,0,1,.35,0l2.93,2.93A.24.24,0,0,1,13.35-144.74Z"/><g class="cls-17"><rect class="cls-3" x="-546.72" y="-493.94" width="742.75" height="1800.34"/></g><rect class="cls-3" x="14.33" y="-143.5" width="5.55" height="1.51" rx="0.38"/><g class="cls-18"><rect class="cls-3" x="-545.72" y="-493.94" width="742.75" height="1800.34"/></g><rect class="cls-1" x="-571.97" y="-1210.87" width="1366" height="3024"/><rect class="cls-1" x="-454.77" y="-1011.42" width="1366" height="2291"/><rect class="cls-1" x="-468.85" y="-1388.77" width="1366" height="2291"/><g class="cls-46"><g class="cls-47"><g class="cls-48"><g class="cls-49"><g class="cls-50"><g class="cls-49"><rect class="cls-51" x="-2.13" y="-2.5" width="29.26" height="30"/></g></g></g></g></g></g><rect class="cls-1" x="-670.29" y="-1131" width="1366" height="2291"/><rect class="cls-1" x="-670.29" y="-1131" width="1366" height="2291"/><rect class="cls-1" x="-670.29" y="-1131" width="1366" height="2291"/><rect class="cls-1" x="-310.34" y="-1669.99" width="1366" height="2291"/><rect class="cls-1" x="-607.39" y="-1132" width="1366" height="2291"/></svg>