<svg id="Layer_1" data-name="Layer 1" xmlns="http://www.w3.org/2000/svg" xmlns:xlink="http://www.w3.org/1999/xlink" viewBox="0 0 25 25"><defs><style>.cls-1,.cls-2{fill:none;}.cls-2{clip-rule:evenodd;}.cls-3{fill:#fff;}.cls-4{clip-path:url(#clip-path);}.cls-5{clip-path:url(#clip-path-2);}.cls-6{clip-path:url(#clip-path-3);}.cls-7{clip-path:url(#clip-path-4);}.cls-8{clip-path:url(#clip-path-5);}.cls-9{clip-path:url(#clip-path-6);}.cls-10{clip-path:url(#clip-path-7);}.cls-11{clip-path:url(#clip-path-8);}.cls-12{clip-path:url(#clip-path-9);}.cls-13{clip-path:url(#clip-path-10);}.cls-14{clip-path:url(#clip-path-11);}.cls-15{clip-path:url(#clip-path-12);}.cls-16{clip-path:url(#clip-path-13);}.cls-17{clip-path:url(#clip-path-14);}.cls-18{clip-path:url(#clip-path-15);}.cls-19{clip-path:url(#clip-path-16);}.cls-20{clip-path:url(#clip-path-17);}.cls-21{clip-path:url(#clip-path-18);}.cls-22{clip-path:url(#clip-path-19);}.cls-23{clip-path:url(#clip-path-20);}.cls-24{clip-path:url(#clip-path-21);}.cls-25{clip-path:url(#clip-path-22);}</style><clipPath id="clip-path"><path class="cls-1" d="M-78.61-21.38a2.08,2.08,0,0,0-2.27,2c0,1.26.75,1.86,1.86,2.33l.39.17c.7.3,1,.49,1,1s-.34.76-1,.76-1.12-.51-1.45-1.06l-1.21.81a2.8,2.8,0,0,0,2.7,1.62c1.46,0,2.56-.76,2.56-2.15S-76.7-17.7-78-18.27l-.38-.16c-.67-.29-.95-.47-.95-.94a.67.67,0,0,1,.74-.66,1,1,0,0,1,1,.66l1.2-.77A2.26,2.26,0,0,0-78.61-21.38Zm-5,0v5.09c0,.78-.3,1-.81,1a1.32,1.32,0,0,1-1.16-.77l-1.27.77a2.84,2.84,0,0,0,2.52,1.62A2.12,2.12,0,0,0-82-16v-5.34Zm-6.61-6.88h14.84a.27.27,0,0,1,.27.27v14.84a.27.27,0,0,1-.27.27H-90.26a.27.27,0,0,1-.27-.27V-28A.27.27,0,0,1-90.26-28.26Zm0-.81A1.08,1.08,0,0,0-91.34-28v14.84a1.08,1.08,0,0,0,1.08,1.08h14.84a1.08,1.08,0,0,0,1.08-1.08V-28a1.09,1.09,0,0,0-1.08-1.08Z"/></clipPath><clipPath id="clip-path-2"><path class="cls-2" d="M-52.46-20.4l-.31-.49c-.1-.16-.2-.34-.29-.52a5,5,0,0,1-.47-1.15,2,2,0,0,1,.62-1.73l.19-.21c.39-.46.93-1,1.35-1.45a2.61,2.61,0,0,0,.73-1.7c0-.39,0-1.22-.29-1.37A2.88,2.88,0,0,1-51-27.46,3.39,3.39,0,0,1-52.17-26c-.38.33-1,.92-1.34,1.26a3.49,3.49,0,0,0-.72,1A1.36,1.36,0,0,0-54-22.36c.11.19.23.36.35.53s.27.34.38.49.26.32.39.48a4.79,4.79,0,0,0,.42.46"/></clipPath><clipPath id="clip-path-3"><path class="cls-2" d="M-47.17-15.37c.17.2,0,.28-.22.36a29.16,29.16,0,0,1-5.46.44,22.93,22.93,0,0,1-3.22-.16c-.17,0-.91-.11-.94-.26s.1-.17.17-.2a4.11,4.11,0,0,1,1-.23c.08,0,.29,0,.36-.05a4.73,4.73,0,0,0-2.46.52c-.22.24.15.35.4.41a22.05,22.05,0,0,0,3.86.29c1.51,0,5.16,0,6.5-.69.08,0,.23-.13.25-.21s-.14-.2-.23-.22"/></clipPath><clipPath id="clip-path-4"><path class="cls-2" d="M-51.3-19.17a4.52,4.52,0,0,0,.81-.59,1.55,1.55,0,0,0,.5-.89,2,2,0,0,0-.37-1c-.48-.7-.86-1.1-.21-1.87a4.25,4.25,0,0,1,.72-.68,15,15,0,0,1,1.24-.85l.44-.27a8.67,8.67,0,0,0-1.09.36,6.7,6.7,0,0,0-1,.45c-1,.54-1.93,1.39-1.53,2.57.26.79,1,1.27,1,1.86,0,.37-.4.73-.51.92"/></clipPath><clipPath id="clip-path-5"><path class="cls-2" d="M-49.4-16a4.74,4.74,0,0,1-.86-.37c-.17-.09-.1-.08-.32,0a17.21,17.21,0,0,1-3.22.16c-.24,0-.91,0-1-.22s0-.2.07-.27c-.6.1-1.22.53-.38.89a9.46,9.46,0,0,0,4,.24A11.83,11.83,0,0,0-49.4-16"/></clipPath><clipPath id="clip-path-6"><path class="cls-2" d="M-49.4-17.19A1.38,1.38,0,0,1-50-17.5c-.11-.1-.07-.07-.33,0a14.21,14.21,0,0,1-4.4.1c-.1,0-.22-.11-.23-.22s.11-.22.16-.29c-.62.07-1.22.67-.38,1a11.78,11.78,0,0,0,4,.2,9.62,9.62,0,0,0,1.76-.4"/></clipPath><clipPath id="clip-path-7"><path class="cls-2" d="M-48.17-19.88l-.43.06-.44.05c-.89.1-1.88.19-2.77.23-.7,0-3.33.11-3.72-.2,0-.14.16-.22.27-.27a7.93,7.93,0,0,1,1.38-.39,7.57,7.57,0,0,0-2.72.61c-.6.31.4.44.78.48a26.68,26.68,0,0,0,6.44-.14,1.38,1.38,0,0,0,.67-.15c.17-.09.39-.18.54-.28"/></clipPath><clipPath id="clip-path-8"><path class="cls-2" d="M-55.56-13.42a12.86,12.86,0,0,0,2.53.36,25.16,25.16,0,0,0,2.88,0,12.4,12.4,0,0,0,3.69-.61c.25-.1.71-.35.75-.58a1.43,1.43,0,0,0-.21.12c-1.87,1-6.14.93-8.35.8l-1.29-.09"/></clipPath><clipPath id="clip-path-9"><path class="cls-2" d="M-47.82-20.1a1.16,1.16,0,0,1,1.23.24,1.34,1.34,0,0,1,.08,1.4,4.55,4.55,0,0,1-1.41,1.57,1.6,1.6,0,0,0-.25.18,4.53,4.53,0,0,0,1.4-.68,2.61,2.61,0,0,0,1-1.2,1.35,1.35,0,0,0-.5-1.58,1.26,1.26,0,0,0-.8-.23,1,1,0,0,0-.73.3"/></clipPath><clipPath id="clip-path-10"><path class="cls-1" d="M-22.6-26.39a.66.66,0,0,1,.65.68.66.66,0,0,1-.65.68.66.66,0,0,1-.64-.68A.66.66,0,0,1-22.6-26.39Zm1.87-1.1a10.42,10.42,0,0,0-1.65.15c-1.46.27-1.72.83-1.72,1.86v1.36h3.44v.45h-4.73a2.18,2.18,0,0,0-2.16,1.81,7,7,0,0,0,0,3.64c.25,1,.83,1.81,1.83,1.81h1.19V-18a2.23,2.23,0,0,1,2.15-2.22h3.44a1.76,1.76,0,0,0,1.72-1.81v-3.4a2,2,0,0,0-1.72-1.86A10.9,10.9,0,0,0-20.73-27.49Z"/></clipPath><clipPath id="clip-path-11"><path class="cls-1" d="M-18.69-15a.66.66,0,0,1,.65.67.66.66,0,0,1-.65.68.66.66,0,0,1-.64-.68A.66.66,0,0,1-18.69-15Zm1.94-8.55V-22a2.25,2.25,0,0,1-2.15,2.25h-3.43A1.78,1.78,0,0,0-24-17.94v3.38c0,1,.81,1.53,1.72,1.8a5.57,5.57,0,0,0,3.43,0c.86-.26,1.72-.78,1.72-1.8v-1.35h-3.44v-.45h5.16c1,0,1.37-.72,1.71-1.8a6.19,6.19,0,0,0,0-3.6c-.24-1-.71-1.8-1.71-1.8Z"/></clipPath><clipPath id="clip-path-12"><path class="cls-2" d="M53-19.29,53.34-21H51.71l-.35,1.69ZM49.63-18H48.55l.27-1.27h1.07L50.25-21H49.18l.27-1.28h1.07l.61-2.86,1.4.31L52-22.26h1.62l.61-2.86,1.41.28-.56,2.58h1.08L55.87-21h-1l-.36,1.69h1.06L55.25-18H54.19l-.61,2.87-1.4-.32L52.71-18H51.09l-.61,2.87-1.41-.32Zm-2.06-5.35-1.26,1.16a5.8,5.8,0,0,0-.86-.79,3.15,3.15,0,0,0-1.82-.55,3.37,3.37,0,0,0-3.46,3.4,3.39,3.39,0,0,0,3.45,3.38,3.21,3.21,0,0,0,1.92-.62,5.53,5.53,0,0,0,.82-.73L47.61-17a5.16,5.16,0,0,1-4,1.8,5.11,5.11,0,0,1-5.25-5,5.11,5.11,0,0,1,5.26-5A5.23,5.23,0,0,1,47.57-23.37Z"/></clipPath><clipPath id="clip-path-13"><path class="cls-3" d="M11.55,12.73,8.62,15.65a.25.25,0,0,1-.36,0L7.61,15a.25.25,0,0,1,0-.36L9.7,12.55l-2.09-2.1a.24.24,0,0,1,0-.35l.65-.66a.27.27,0,0,1,.36,0l2.93,2.93A.27.27,0,0,1,11.55,12.73Z"/></clipPath><clipPath id="clip-path-14"><rect class="cls-3" x="-548.53" y="-336.48" width="742.75" height="1800.34"/></clipPath><clipPath id="clip-path-15"><rect class="cls-3" x="12.53" y="13.97" width="5.55" height="1.51" rx="0.38"/></clipPath><clipPath id="clip-path-16"><rect class="cls-3" x="-547.53" y="-336.48" width="742.75" height="1800.34"/></clipPath><clipPath id="clip-path-17"><polygon class="cls-1" points="-92.32 42.21 -71.92 42.21 -71.92 49.64 -82.12 49.64 -82.12 50.95 -86.8 50.95 -86.8 49.64 -92.32 49.64 -92.32 42.21"/></clipPath><clipPath id="clip-path-18"><polygon class="cls-1" points="-90.14 48.77 -88.32 48.77 -88.32 45.06 -87.22 45.06 -87.22 48.77 -86.49 48.77 -86.49 43.67 -90.14 43.67 -90.14 48.77"/></clipPath><clipPath id="clip-path-19"><path class="cls-1" d="M-82.12,47h-1.1V44.92h1.1ZM-85,43.67V49.5h1.82V48.25h1.83V43.67Z"/></clipPath><clipPath id="clip-path-20"><polygon class="cls-1" points="-80.67 43.67 -80.67 48.77 -78.62 48.77 -78.62 45.06 -77.39 45.06 -77.39 48.77 -76.16 48.77 -76.16 45.06 -74.93 45.06 -74.93 48.77 -74.11 48.77 -74.11 43.67 -80.67 43.67"/></clipPath><clipPath id="clip-path-21"><path class="cls-1" d="M-9.49,45.46v2.77a1.38,1.38,0,0,1-1.38,1.38h-2.77A1.38,1.38,0,0,1-15,48.23V45.46a1.38,1.38,0,0,1,1.38-1.38h2.77A1.38,1.38,0,0,1-9.49,45.46Zm-7.38,0v2.77a1.38,1.38,0,0,1-1.38,1.38H-21a1.38,1.38,0,0,1-1.38-1.38V45.46A1.38,1.38,0,0,1-21,44.08h2.77A1.38,1.38,0,0,1-16.87,45.46Zm-7.38,0v2.77a1.38,1.38,0,0,1-1.38,1.38h-2.76a1.38,1.38,0,0,1-1.39-1.38V45.46a1.38,1.38,0,0,1,1.39-1.38h2.76A1.38,1.38,0,0,1-24.25,45.46Z"/></clipPath><clipPath id="clip-path-22"><path class="cls-1" d="M19.18,50.74H15.49V44.88h3.57V46H16.81v1.22h2.13v1.07H16.81v1.39h2.37v1.09Zm-.29,4.86H6.11V51.82H18.89ZM5.64,50.74V44.88H9.22V46H7v1.22H9.09v1.07H7v1.39H9.34v1.09Zm4.22-5.86h1.5L11.87,46c.17.36.3.65.44,1h0c.14-.38.25-.64.4-1l.49-1.07H14.7l-1.63,2.86,1.72,3H13.28l-.53-1.06c-.21-.41-.35-.71-.51-1h0c-.12.34-.26.64-.45,1l-.48,1.06H9.8l1.67-3Zm-3.75-7.5h9v4a.4.4,0,0,0,.39.39h3.42v2H6.11Zm14,6.37h-.47V41.44a.09.09,0,0,0,0,0,.38.38,0,0,0-.09-.25l-3.81-4.41h0a.24.24,0,0,0-.08-.06l0,0-.08,0H6.11a.78.78,0,0,0-.78.78v6.37H4.86a1.12,1.12,0,0,0-1.11,1.12V50.7a1.12,1.12,0,0,0,1.11,1.12h.47v4a.78.78,0,0,0,.78.78H18.89a.78.78,0,0,0,.78-.78v-4h.47a1.12,1.12,0,0,0,1.11-1.12V44.87A1.12,1.12,0,0,0,20.14,43.75Z"/></clipPath></defs><title>command_line_icon</title><rect class="cls-1" x="-523.76" y="-997.54" width="1366" height="2644"/><rect class="cls-1" x="-815.37" y="-1127.12" width="1366" height="3311"/><rect x="5.07" y="6.35" width="15.49" height="12.31"/><path class="cls-3" d="M11.55,12.73,8.62,15.65a.25.25,0,0,1-.36,0L7.61,15a.25.25,0,0,1,0-.36L9.7,12.55l-2.09-2.1a.24.24,0,0,1,0-.35l.65-.66a.27.27,0,0,1,.36,0l2.93,2.93A.27.27,0,0,1,11.55,12.73Z"/><g class="cls-16"><rect class="cls-3" x="-548.53" y="-336.48" width="742.75" height="1800.34"/><g class="cls-17"><rect class="cls-3" x="4.82" y="6.65" width="9.52" height="11.79"/></g></g><rect class="cls-3" x="12.53" y="13.97" width="5.55" height="1.51" rx="0.38"/><g class="cls-18"><rect class="cls-3" x="-547.53" y="-336.48" width="742.75" height="1800.34"/><g class="cls-19"><rect class="cls-3" x="9.81" y="11.25" width="10.99" height="6.95"/></g></g><rect class="cls-1" x="-573.78" y="-1053.4" width="1366" height="3024"/></svg>