<svg id="Layer_1" data-name="Layer 1" xmlns="http://www.w3.org/2000/svg" xmlns:xlink="http://www.w3.org/1999/xlink" viewBox="0 0 25 25"><defs><style>.cls-1,.cls-2{fill:none;}.cls-1{clip-rule:evenodd;}.cls-3{fill:#fff;}.cls-4{clip-path:url(#clip-path);}.cls-5{clip-path:url(#clip-path-2);}.cls-6{clip-path:url(#clip-path-3);}.cls-7{clip-path:url(#clip-path-4);}.cls-8{clip-path:url(#clip-path-5);}.cls-9{clip-path:url(#clip-path-6);}.cls-10{clip-path:url(#clip-path-7);}.cls-11{clip-path:url(#clip-path-8);}.cls-12{clip-path:url(#clip-path-9);}.cls-13{clip-path:url(#clip-path-10);}.cls-14{clip-path:url(#clip-path-11);}.cls-15{clip-path:url(#clip-path-12);}.cls-16{clip-path:url(#clip-path-13);}.cls-17{clip-path:url(#clip-path-14);}.cls-18{clip-path:url(#clip-path-15);}.cls-19{clip-path:url(#clip-path-16);}.cls-20{clip-path:url(#clip-path-17);}.cls-21{clip-path:url(#clip-path-18);}.cls-22{clip-path:url(#clip-path-19);}.cls-23{clip-path:url(#clip-path-20);}.cls-24{clip-path:url(#clip-path-21);}</style><clipPath id="clip-path"><path class="cls-2" d="M-113.47,11.64a2.07,2.07,0,0,0-2.27,2c0,1.25.75,1.85,1.86,2.32l.39.17c.7.31,1,.5,1,1s-.34.76-1,.76-1.12-.52-1.45-1.06l-1.21.81a2.82,2.82,0,0,0,2.7,1.62c1.46,0,2.56-.77,2.56-2.15s-.74-1.87-2.06-2.43l-.38-.17c-.66-.28-.95-.47-.95-.93a.68.68,0,0,1,.74-.67,1,1,0,0,1,1,.67l1.2-.78A2.27,2.27,0,0,0-113.47,11.64Zm-5,0v5.09c0,.78-.3,1-.81,1a1.34,1.34,0,0,1-1.16-.77l-1.27.77a2.84,2.84,0,0,0,2.52,1.62A2.13,2.13,0,0,0-116.89,17V11.64Zm-6.61-6.88h14.84A.27.27,0,0,1-110,5V19.87a.27.27,0,0,1-.27.27h-14.84a.27.27,0,0,1-.27-.27V5A.27.27,0,0,1-125.12,4.76Zm0-.81A1.08,1.08,0,0,0-126.2,5V19.87A1.08,1.08,0,0,0-125.12,21h14.84a1.09,1.09,0,0,0,1.08-1.08V5A1.08,1.08,0,0,0-110.28,4Z"/></clipPath><clipPath id="clip-path-2"><path class="cls-1" d="M-87.32,12.61l-.31-.49c-.1-.16-.2-.34-.29-.51a5,5,0,0,1-.47-1.16,1.94,1.94,0,0,1,.62-1.72c.06-.08.13-.15.19-.22.39-.45.93-1,1.35-1.45a2.54,2.54,0,0,0,.73-1.7c0-.39,0-1.22-.29-1.37a2.88,2.88,0,0,1-.12,1.56A3.49,3.49,0,0,1-87,7c-.38.32-1,.91-1.34,1.25a3.79,3.79,0,0,0-.72,1,1.4,1.4,0,0,0,.23,1.36c.11.19.23.35.35.52s.27.34.38.5.26.32.39.47a4.79,4.79,0,0,0,.42.46"/></clipPath><clipPath id="clip-path-3"><path class="cls-1" d="M-82,17.64c.17.2,0,.29-.22.37a29.16,29.16,0,0,1-5.46.43,22.93,22.93,0,0,1-3.22-.16c-.17,0-.91-.11-.94-.26s.1-.16.17-.2a4.11,4.11,0,0,1,1-.23,3.48,3.48,0,0,0,.36-.05,4.73,4.73,0,0,0-2.46.53c-.22.23.15.34.4.41a23.08,23.08,0,0,0,3.86.28c1.51,0,5.16,0,6.5-.69.08,0,.23-.12.25-.21s-.14-.19-.23-.22"/></clipPath><clipPath id="clip-path-4"><path class="cls-1" d="M-86.16,13.84a4.08,4.08,0,0,0,.81-.59,1.49,1.49,0,0,0,.5-.88,2,2,0,0,0-.37-1c-.48-.69-.86-1.09-.21-1.87a4.64,4.64,0,0,1,.72-.67A12.85,12.85,0,0,1-83.47,8l.44-.27A8.57,8.57,0,0,0-84.12,8a8,8,0,0,0-1,.46c-1,.54-1.92,1.39-1.53,2.56.26.8,1,1.27,1,1.87a2.44,2.44,0,0,1-.51.91"/></clipPath><clipPath id="clip-path-5"><path class="cls-1" d="M-84.26,17a4.74,4.74,0,0,1-.86-.37c-.17-.08-.1-.08-.32,0a16.4,16.4,0,0,1-3.22.16c-.24,0-.91,0-1-.21s0-.21.07-.28c-.6.11-1.22.53-.38.89a9.62,9.62,0,0,0,4,.25A13.11,13.11,0,0,0-84.26,17"/></clipPath><clipPath id="clip-path-6"><path class="cls-1" d="M-84.26,15.82a1.5,1.5,0,0,1-.56-.3c-.11-.1-.07-.08-.33,0-.91.15-3.63.42-4.4.1-.1,0-.22-.1-.23-.22s.11-.21.16-.29c-.62.08-1.22.67-.38.95a12,12,0,0,0,4,.21,9.63,9.63,0,0,0,1.76-.41"/></clipPath><clipPath id="clip-path-7"><path class="cls-1" d="M-83,13.13l-.43.06-.44.05c-.89.11-1.88.19-2.77.23-.7,0-3.33.11-3.72-.2,0-.13.16-.22.27-.27a8.92,8.92,0,0,1,1.38-.39,7.79,7.79,0,0,0-2.72.61c-.6.32.4.44.78.48a27.2,27.2,0,0,0,6.44-.13,1.5,1.5,0,0,0,.67-.16c.17-.09.39-.18.54-.28"/></clipPath><clipPath id="clip-path-8"><path class="cls-1" d="M-90.42,19.6a13.77,13.77,0,0,0,2.53.35A23.06,23.06,0,0,0-85,20a12.4,12.4,0,0,0,3.69-.61c.25-.1.71-.34.75-.58-.08,0-.14.09-.21.12-1.87,1-6.14.93-8.35.8l-1.29-.08"/></clipPath><clipPath id="clip-path-9"><path class="cls-1" d="M-82.68,12.91a1.2,1.2,0,0,1,1.23.24,1.34,1.34,0,0,1,.08,1.4,4.55,4.55,0,0,1-1.41,1.57l-.25.18a4.74,4.74,0,0,0,1.4-.67,2.64,2.64,0,0,0,1-1.21,1.35,1.35,0,0,0-.5-1.58,1.32,1.32,0,0,0-.8-.23,1.07,1.07,0,0,0-.73.3"/></clipPath><clipPath id="clip-path-10"><path class="cls-2" d="M-57.46,6.62a.67.67,0,0,1,.65.68.66.66,0,0,1-.65.68.66.66,0,0,1-.64-.68A.67.67,0,0,1-57.46,6.62Zm1.87-1.09a9.4,9.4,0,0,0-1.65.14C-58.7,5.94-59,6.5-59,7.53V8.89h3.44v.46h-4.73a2.18,2.18,0,0,0-2.16,1.81,7,7,0,0,0,0,3.63c.25,1.06.83,1.81,1.84,1.81h1.18V15a2.23,2.23,0,0,1,2.15-2.22h3.44a1.77,1.77,0,0,0,1.72-1.82V7.53A2,2,0,0,0-53.8,5.67,9.82,9.82,0,0,0-55.59,5.53Z"/></clipPath><clipPath id="clip-path-11"><path class="cls-2" d="M-53.55,18a.66.66,0,0,1,.65.68.67.67,0,0,1-.65.68.67.67,0,0,1-.64-.68A.66.66,0,0,1-53.55,18Zm1.94-8.55V11a2.25,2.25,0,0,1-2.15,2.25h-3.43a1.78,1.78,0,0,0-1.72,1.8v3.37c0,1,.81,1.53,1.72,1.81a5.57,5.57,0,0,0,3.43,0C-52.9,20-52,19.48-52,18.45V17.1h-3.44v-.45h5.16c1,0,1.37-.72,1.71-1.8a6.19,6.19,0,0,0,0-3.6c-.24-1-.71-1.8-1.71-1.8Z"/></clipPath><clipPath id="clip-path-12"><path class="cls-1" d="M18.12,13.72,18.48,12H16.85l-.35,1.69ZM14.77,15H13.69L14,13.72H15L15.39,12H14.32l.27-1.27h1.07l.61-2.87,1.4.32-.53,2.55h1.62l.61-2.87,1.41.29-.56,2.58H21.3L21,12H20l-.36,1.69h1.06L20.39,15H19.33l-.61,2.86-1.4-.31L17.85,15H16.23l-.61,2.86-1.41-.31ZM12.71,9.64,11.45,10.8a6.43,6.43,0,0,0-.86-.79,3.15,3.15,0,0,0-1.82-.54,3.39,3.39,0,1,0,0,6.77,3.27,3.27,0,0,0,1.92-.61,6.27,6.27,0,0,0,.82-.73L12.75,16a5.17,5.17,0,0,1-4,1.81,5.11,5.11,0,0,1-5.25-5,5.12,5.12,0,0,1,5.27-5A5.23,5.23,0,0,1,12.71,9.64Z"/></clipPath><clipPath id="clip-path-13"><rect class="cls-2" x="-827.59" y="-762.14" width="1517.78" height="3678.89"/></clipPath><clipPath id="clip-path-14"><path class="cls-3" d="M-23.31,45.74l-2.93,2.93a.25.25,0,0,1-.36,0l-.65-.66a.24.24,0,0,1,0-.35l2.09-2.1-2.09-2.09a.25.25,0,0,1,0-.36l.65-.65a.25.25,0,0,1,.36,0l2.93,2.93A.26.26,0,0,1-23.31,45.74Z"/></clipPath><clipPath id="clip-path-15"><rect class="cls-3" x="-22.33" y="46.98" width="5.55" height="1.51" rx="0.38"/></clipPath><clipPath id="clip-path-16"><polygon class="cls-2" points="-127.18 75.23 -106.78 75.23 -106.78 82.66 -116.98 82.66 -116.98 83.97 -121.66 83.97 -121.66 82.66 -127.18 82.66 -127.18 75.23"/></clipPath><clipPath id="clip-path-17"><polygon class="cls-2" points="-125 81.78 -123.18 81.78 -123.18 78.07 -122.08 78.07 -122.08 81.78 -121.35 81.78 -121.35 76.68 -125 76.68 -125 81.78"/></clipPath><clipPath id="clip-path-18"><path class="cls-2" d="M-117,80h-1.1V77.93h1.1Zm-2.92-3.33v5.83h1.82V81.26h1.83V76.68Z"/></clipPath><clipPath id="clip-path-19"><polygon class="cls-2" points="-115.53 76.68 -115.53 81.78 -113.48 81.78 -113.48 78.07 -112.25 78.07 -112.25 81.78 -111.02 81.78 -111.02 78.07 -109.79 78.07 -109.79 81.78 -108.97 81.78 -108.97 76.68 -115.53 76.68"/></clipPath><clipPath id="clip-path-20"><path class="cls-2" d="M-44.35,78.48v2.76a1.38,1.38,0,0,1-1.38,1.39H-48.5a1.38,1.38,0,0,1-1.38-1.39V78.48a1.38,1.38,0,0,1,1.38-1.39h2.77A1.38,1.38,0,0,1-44.35,78.48Zm-7.38,0v2.76a1.38,1.38,0,0,1-1.38,1.39h-2.77a1.38,1.38,0,0,1-1.38-1.39V78.48a1.38,1.38,0,0,1,1.38-1.39h2.77A1.38,1.38,0,0,1-51.73,78.48Zm-7.37,0v2.76a1.39,1.39,0,0,1-1.39,1.39h-2.76a1.39,1.39,0,0,1-1.39-1.39V78.48a1.39,1.39,0,0,1,1.39-1.39h2.76A1.39,1.39,0,0,1-59.1,78.48Z"/></clipPath><clipPath id="clip-path-21"><path class="cls-2" d="M-15.68,83.75h-3.69V77.9h3.57V79H-18V80.2h2.13v1.08H-18v1.39h2.37v1.08ZM-16,88.62H-28.75V84.84H-16Zm-13.24-4.87V77.9h3.57V79H-27.9V80.2h2.13v1.08H-27.9v1.39h2.38v1.08ZM-25,77.9h1.5L-23,79c.17.35.3.64.44,1h0c.14-.37.25-.64.4-1l.49-1.07h1.49l-1.63,2.86,1.72,3h-1.51l-.53-1.06c-.21-.4-.35-.71-.51-1h0c-.12.34-.26.65-.44,1l-.49,1.06h-1.49l1.67-3Zm-3.75-7.5h9v4a.39.39,0,0,0,.39.39H-16v2H-28.75Zm14,6.37h-.47V74.45s0,0,0,0a.39.39,0,0,0-.09-.26l-3.81-4.4h0l-.08-.06,0,0-.08,0h-9.47a.78.78,0,0,0-.78.79v6.37H-30a1.12,1.12,0,0,0-1.11,1.12v5.83A1.12,1.12,0,0,0-30,84.84h.47v4a.78.78,0,0,0,.78.78H-16a.78.78,0,0,0,.78-.78v-4h.47a1.12,1.12,0,0,0,1.11-1.12V77.89A1.12,1.12,0,0,0-14.72,76.77Z"/></clipPath></defs><title>csharp_icon</title><rect class="cls-2" x="-558.62" y="-964.53" width="1366" height="2644"/><g class="cls-15"><g class="cls-16"><rect x="-2.03" y="2.31" width="28.89" height="21.11"/></g></g><rect class="cls-2" x="-850.23" y="-1094.11" width="1366" height="3311"/><path class="cls-3" d="M-23.31,45.74l-2.93,2.93a.25.25,0,0,1-.36,0l-.65-.66a.24.24,0,0,1,0-.35l2.09-2.1-2.09-2.09a.25.25,0,0,1,0-.36l.65-.65a.25.25,0,0,1,.36,0l2.93,2.93A.26.26,0,0,1-23.31,45.74Z"/><g class="cls-17"><rect class="cls-3" x="-583.39" y="-303.46" width="742.75" height="1800.34"/></g><rect class="cls-3" x="-22.33" y="46.98" width="5.55" height="1.51" rx="0.38"/><g class="cls-18"><rect class="cls-3" x="-582.39" y="-303.46" width="742.75" height="1800.34"/></g><rect class="cls-2" x="-608.64" y="-1020.39" width="1366" height="3024"/></svg>