<?xml version="1.0" standalone="no"?>
<!DOCTYPE svg PUBLIC "-//W3C//DTD SVG 20010904//EN"
 "http://www.w3.org/TR/2001/REC-SVG-20010904/DTD/svg10.dtd">
<svg version="1.0" xmlns="http://www.w3.org/2000/svg"
 viewBox="0 0 789.000000 690.000000"
 preserveAspectRatio="xMidYMid meet">
<metadata>
Created by potrace 1.15, written by Peter Selinger 2001-2017
</metadata>
<g transform="translate(0.000000,690.000000) scale(0.100000,-0.100000)"
fill="#000000" stroke="none">
<path d="M4686 6349 c-163 -40 -312 -184 -360 -348 -20 -69 -21 -192 -1 -258
l15 -51 -1183 -2027 -1183 -2027 -55 -18 c-123 -42 -235 -133 -291 -236 -176
-326 69 -734 442 -734 276 0 501 220 501 490 0 41 -6 96 -14 121 l-14 47 1188
2033 1189 2034 68 27 c137 56 245 160 292 285 27 70 37 196 21 273 -35 168
-161 315 -319 373 -65 23 -231 33 -296 16z m239 -238 c51 -23 109 -82 136
-139 27 -55 29 -158 5 -215 -20 -45 -76 -109 -120 -137 -116 -71 -287 -31
-365 87 -153 230 91 517 344 404z m-2736 -4710 c59 -31 94 -65 126 -123 56
-101 35 -237 -48 -320 -105 -105 -278 -108 -386 -5 -95 90 -109 249 -33 358
32 44 91 88 145 105 54 18 145 10 196 -15z"/>
<path d="M6741 6344 c-251 -67 -412 -328 -357 -577 16 -72 16 -77 -1 -110 -10
-19 -542 -932 -1182 -2029 l-1164 -1995 -48 -12 c-98 -25 -218 -117 -281 -214
-99 -154 -94 -376 13 -536 212 -318 701 -284 864 61 56 117 67 205 39 315
l-16 63 1189 2035 1188 2034 54 17 c69 22 155 79 207 135 249 272 116 721
-241 814 -73 19 -192 18 -264 -1z m259 -239 c90 -46 150 -143 150 -245 0 -153
-127 -277 -280 -274 -77 2 -125 21 -182 72 -115 103 -118 297 -7 398 55 49 68
57 117 71 62 17 142 9 202 -22z m-2781 -4691 c153 -45 236 -234 167 -379 -88
-187 -343 -215 -467 -51 -89 117 -78 258 26 363 78 78 166 99 274 67z"/>
<path d="M945 4950 c-95 -25 -150 -50 -211 -96 -131 -99 -194 -226 -194 -389
0 -251 179 -458 430 -496 244 -38 492 126 555 366 58 225 -59 477 -270 581
-115 56 -194 65 -310 34z m187 -226 c151 -51 225 -234 154 -379 -101 -205
-388 -206 -493 -1 -31 60 -37 158 -14 216 58 143 210 213 353 164z"/>
<path d="M942 3185 c-150 -39 -258 -112 -328 -221 -70 -110 -94 -264 -60 -390
69 -262 339 -421 604 -359 93 22 159 60 233 134 161 161 193 375 88 584 -60
118 -184 221 -301 250 -106 27 -137 27 -236 2z m214 -233 c102 -52 156 -137
157 -245 2 -253 -307 -375 -476 -187 -137 151 -77 373 122 447 49 18 146 11
197 -15z"/>
</g>
</svg>
