<svg id="Layer_1" data-name="Layer 1" xmlns="http://www.w3.org/2000/svg" xmlns:xlink="http://www.w3.org/1999/xlink" viewBox="0 0 30 30"><defs><style>.cls-1,.cls-2{fill:none;}.cls-2{clip-rule:evenodd;}.cls-3{fill:#fff;}.cls-4{clip-path:url(#clip-path);}.cls-5{clip-path:url(#clip-path-2);}.cls-6{clip-path:url(#clip-path-3);}.cls-7{clip-path:url(#clip-path-4);}.cls-8{clip-path:url(#clip-path-5);}.cls-9{clip-path:url(#clip-path-6);}.cls-10{clip-path:url(#clip-path-7);}.cls-11{clip-path:url(#clip-path-8);}.cls-12{clip-path:url(#clip-path-9);}.cls-13{clip-path:url(#clip-path-10);}.cls-14{clip-path:url(#clip-path-11);}.cls-15{clip-path:url(#clip-path-12);}.cls-16{clip-path:url(#clip-path-13);}.cls-17{clip-path:url(#clip-path-14);}.cls-18{clip-path:url(#clip-path-15);}.cls-19{clip-path:url(#clip-path-16);}.cls-20{clip-path:url(#clip-path-17);}.cls-21{clip-path:url(#clip-path-18);}.cls-22{clip-path:url(#clip-path-19);}.cls-23{clip-path:url(#clip-path-20);}.cls-24{clip-path:url(#clip-path-21);}.cls-25{clip-path:url(#clip-path-22);}.cls-26{fill:#0c544c;}.cls-27{clip-path:url(#clip-path-23);}.cls-28{fill:#073551;}.cls-29{clip-path:url(#clip-path-25);}.cls-30{clip-path:url(#clip-path-27);}</style><clipPath id="clip-path"><path class="cls-1" d="M18.15-85.56a2.07,2.07,0,0,0-2.26,2c0,1.25.74,1.85,1.85,2.32l.39.17c.7.31,1.05.49,1.05,1s-.34.76-1,.76-1.12-.51-1.45-1.05l-1.21.81a2.82,2.82,0,0,0,2.7,1.61c1.47,0,2.56-.76,2.56-2.15s-.74-1.86-2.05-2.42l-.39-.17c-.66-.29-.95-.47-.95-.94a.68.68,0,0,1,.74-.66,1,1,0,0,1,1,.66l1.21-.77A2.3,2.3,0,0,0,18.15-85.56Zm-5,0v5.09c0,.78-.3,1-.81,1a1.34,1.34,0,0,1-1.16-.77l-1.27.77a2.83,2.83,0,0,0,2.52,1.61,2.12,2.12,0,0,0,2.34-2.35v-5.34ZM6.5-92.44H21.34a.27.27,0,0,1,.27.27v14.84a.27.27,0,0,1-.27.27H6.5a.27.27,0,0,1-.27-.27V-92.17A.27.27,0,0,1,6.5-92.44Zm0-.81a1.09,1.09,0,0,0-1.08,1.08v14.84A1.08,1.08,0,0,0,6.5-76.25H21.34a1.08,1.08,0,0,0,1.08-1.08V-92.17a1.09,1.09,0,0,0-1.08-1.08Z"/></clipPath><clipPath id="clip-path-2"><path class="cls-2" d="M44.3-84.58,44-85.07c-.1-.16-.2-.34-.29-.52a4.77,4.77,0,0,1-.47-1.15,2,2,0,0,1,.63-1.72,1.92,1.92,0,0,1,.18-.22c.39-.46.93-1,1.35-1.45a2.56,2.56,0,0,0,.73-1.7c0-.39,0-1.22-.29-1.37a2.88,2.88,0,0,1-.12,1.56,3.39,3.39,0,0,1-1.12,1.48c-.38.33-1,.92-1.34,1.26a3.63,3.63,0,0,0-.72,1,1.4,1.4,0,0,0,.23,1.35c.12.2.23.36.35.53s.27.34.38.5.27.31.39.47.34.4.42.46"/></clipPath><clipPath id="clip-path-3"><path class="cls-2" d="M49.6-79.55c.16.2,0,.28-.23.36a28.34,28.34,0,0,1-5.46.44,22.71,22.71,0,0,1-3.21-.16c-.17,0-.92-.11-1-.26s.11-.17.17-.2a4.22,4.22,0,0,1,1-.23,3.13,3.13,0,0,0,.36-.05,4.66,4.66,0,0,0-2.46.53c-.22.23.15.34.4.4a22.13,22.13,0,0,0,3.86.29c1.52,0,5.17,0,6.5-.69.08,0,.23-.13.25-.21s-.14-.2-.22-.22"/></clipPath><clipPath id="clip-path-4"><path class="cls-2" d="M45.46-83.35a4.52,4.52,0,0,0,.81-.59,1.47,1.47,0,0,0,.5-.88,1.87,1.87,0,0,0-.37-1c-.48-.7-.86-1.1-.21-1.87a4.18,4.18,0,0,1,.72-.67,12.31,12.31,0,0,1,1.24-.85l.44-.28a8,8,0,0,0-1.08.36,8.06,8.06,0,0,0-1,.45c-1,.55-1.93,1.4-1.54,2.57.26.79,1,1.27,1,1.87a2.44,2.44,0,0,1-.51.91"/></clipPath><clipPath id="clip-path-5"><path class="cls-2" d="M47.36-80.16a5.07,5.07,0,0,1-.86-.37c-.17-.09-.1-.08-.32,0A17.21,17.21,0,0,1,43-80.4c-.24,0-.91,0-1-.21s0-.21.08-.28c-.61.1-1.22.53-.38.89a9.4,9.4,0,0,0,4,.24,11.83,11.83,0,0,0,1.78-.4"/></clipPath><clipPath id="clip-path-6"><path class="cls-2" d="M47.36-81.37a1.38,1.38,0,0,1-.55-.3c-.12-.1-.08-.08-.34,0a14.21,14.21,0,0,1-4.4.1c-.1,0-.22-.1-.23-.22S42-82,42-82.12c-.63.08-1.23.67-.39,1a12,12,0,0,0,4,.21,10.3,10.3,0,0,0,1.76-.41"/></clipPath><clipPath id="clip-path-7"><path class="cls-2" d="M48.59-84.06l-.42.06-.44,0c-.9.1-1.89.19-2.78.23-.7,0-3.33.11-3.72-.2,0-.13.16-.22.27-.27a9.59,9.59,0,0,1,1.38-.39,7.62,7.62,0,0,0-2.72.61c-.6.31.41.44.78.48a26.66,26.66,0,0,0,6.44-.14,1.46,1.46,0,0,0,.68-.15c.16-.09.38-.18.53-.28"/></clipPath><clipPath id="clip-path-8"><path class="cls-2" d="M41.21-77.59a13.55,13.55,0,0,0,2.52.35,25.16,25.16,0,0,0,2.88,0,12.4,12.4,0,0,0,3.69-.61c.25-.1.71-.34.75-.58a2.25,2.25,0,0,0-.21.12c-1.87,1-6.14.93-8.34.8l-1.29-.08"/></clipPath><clipPath id="clip-path-9"><path class="cls-2" d="M48.94-84.28a1.15,1.15,0,0,1,1.23.24,1.34,1.34,0,0,1,.09,1.4,4.68,4.68,0,0,1-1.42,1.57,2.27,2.27,0,0,0-.25.18A4.69,4.69,0,0,0,50-81.57a2.59,2.59,0,0,0,1-1.2,1.35,1.35,0,0,0-.5-1.58,1.26,1.26,0,0,0-.8-.23,1,1,0,0,0-.73.3"/></clipPath><clipPath id="clip-path-10"><path class="cls-1" d="M74.17-90.57a.67.67,0,0,1,.64.68.66.66,0,0,1-.64.68.66.66,0,0,1-.65-.68A.67.67,0,0,1,74.17-90.57ZM76-91.67a10.42,10.42,0,0,0-1.65.15c-1.45.27-1.72.83-1.72,1.86v1.36H76.1v.45H71.37A2.17,2.17,0,0,0,69.22-86a6.88,6.88,0,0,0,0,3.63c.24,1.05.83,1.81,1.83,1.81h1.18v-1.63a2.23,2.23,0,0,1,2.15-2.22h3.44a1.77,1.77,0,0,0,1.72-1.82v-3.4a2,2,0,0,0-1.72-1.86A10.81,10.81,0,0,0,76-91.67Z"/></clipPath><clipPath id="clip-path-11"><path class="cls-1" d="M78.08-79.19a.66.66,0,0,1,.64.68.66.66,0,0,1-.64.67.66.66,0,0,1-.65-.67A.66.66,0,0,1,78.08-79.19ZM80-87.74v1.58a2.24,2.24,0,0,1-2.15,2.24H74.43a1.79,1.79,0,0,0-1.72,1.81v3.37c0,1,.81,1.53,1.72,1.8a5.57,5.57,0,0,0,3.43,0c.87-.25,1.72-.77,1.72-1.8v-1.35H76.15v-.45H81.3c1,0,1.37-.72,1.72-1.8a6.37,6.37,0,0,0,0-3.6c-.25-1-.72-1.8-1.72-1.8Z"/></clipPath><clipPath id="clip-path-12"><path class="cls-2" d="M149.74-83.47l.36-1.69h-1.62l-.36,1.69Zm-3.35,1.28h-1.08l.27-1.28h1.08l.35-1.69h-1.07l.27-1.28h1.07l.61-2.86,1.41.31-.54,2.55h1.62L151-89.3l1.4.29-.55,2.57h1.07l-.28,1.28h-1.06l-.36,1.69h1.06L152-82.19H151l-.61,2.86-1.4-.31.54-2.55h-1.63l-.61,2.86-1.4-.31Zm-2.06-5.36-1.25,1.16a6.37,6.37,0,0,0-.87-.79,3.15,3.15,0,0,0-1.82-.54,3.36,3.36,0,0,0-3.46,3.39,3.39,3.39,0,0,0,3.45,3.38,3.27,3.27,0,0,0,1.92-.61,6,6,0,0,0,.82-.74l1.25,1.15a5.17,5.17,0,0,1-4,1.81,5.11,5.11,0,0,1-5.25-5,5.12,5.12,0,0,1,5.27-5A5.21,5.21,0,0,1,144.33-87.55Z"/></clipPath><clipPath id="clip-path-13"><path class="cls-3" d="M108.31-51.45l-2.93,2.92a.24.24,0,0,1-.35,0l-.66-.65a.24.24,0,0,1,0-.35l2.1-2.1-2.1-2.09a.25.25,0,0,1,0-.36l.66-.65a.24.24,0,0,1,.35,0l2.93,2.92A.25.25,0,0,1,108.31-51.45Z"/></clipPath><clipPath id="clip-path-14"><rect class="cls-3" x="109.29" y="-50.21" width="5.55" height="1.51" rx="0.38"/></clipPath><clipPath id="clip-path-15"><polygon class="cls-1" points="4.44 -21.97 24.84 -21.97 24.84 -14.54 14.64 -14.54 14.64 -13.22 9.96 -13.22 9.96 -14.54 4.44 -14.54 4.44 -21.97"/></clipPath><clipPath id="clip-path-16"><polygon class="cls-1" points="6.63 -15.41 8.45 -15.41 8.45 -19.12 9.54 -19.12 9.54 -15.41 10.27 -15.41 10.27 -20.51 6.63 -20.51 6.63 -15.41"/></clipPath><clipPath id="clip-path-17"><path class="cls-1" d="M14.64-17.18H13.55v-2.08h1.09Zm-2.92-3.33v5.83h1.83v-1.25h1.82v-4.58Z"/></clipPath><clipPath id="clip-path-18"><polygon class="cls-1" points="16.1 -20.51 16.1 -15.41 18.14 -15.41 18.14 -19.12 19.38 -19.12 19.38 -15.41 20.6 -15.41 20.6 -19.12 21.83 -19.12 21.83 -15.41 22.65 -15.41 22.65 -20.51 16.1 -20.51"/></clipPath><clipPath id="clip-path-19"><path class="cls-1" d="M87.27-18.72v2.77a1.38,1.38,0,0,1-1.38,1.38H83.12a1.38,1.38,0,0,1-1.38-1.38v-2.77a1.38,1.38,0,0,1,1.38-1.38h2.77A1.38,1.38,0,0,1,87.27-18.72Zm-7.38,0v2.77a1.37,1.37,0,0,1-1.38,1.38H75.74a1.38,1.38,0,0,1-1.38-1.38v-2.77a1.38,1.38,0,0,1,1.38-1.38h2.77A1.38,1.38,0,0,1,79.89-18.72Zm-7.37,0v2.77a1.38,1.38,0,0,1-1.39,1.38H68.37A1.38,1.38,0,0,1,67-15.95v-2.77a1.38,1.38,0,0,1,1.39-1.38h2.76A1.38,1.38,0,0,1,72.52-18.72Z"/></clipPath><clipPath id="clip-path-20"><path class="cls-1" d="M116-13.44h-3.69v-5.85h3.57v1.08h-2.26V-17h2.13v1.08h-2.13v1.39H116v1.08Zm-.29,4.86H102.87v-3.77h12.79Zm-13.25-4.86v-5.85H106v1.08h-2.26V-17h2.13v1.08h-2.13v1.39h2.38v1.08Zm4.21-5.85h1.51l.5,1.06c.17.36.3.65.44,1h0c.13-.38.25-.64.39-1l.49-1.06h1.49l-1.63,2.85,1.72,3H110l-.52-1.06c-.22-.41-.36-.71-.52-1.05h0c-.12.34-.26.64-.44,1.05l-.48,1.06h-1.5l1.68-3Zm-3.75-7.5h9v4a.39.39,0,0,0,.38.39h3.43v2H102.87Zm14,6.36h-.47v-2.36a.35.35,0,0,0-.1-.25l-3.81-4.4h0l-.08-.06,0,0-.08,0h-9.47a.78.78,0,0,0-.78.79v6.36h-.47a1.12,1.12,0,0,0-1.11,1.13v5.83a1.12,1.12,0,0,0,1.11,1.12h.47v4a.78.78,0,0,0,.78.78h12.79a.78.78,0,0,0,.77-.78v-4h.47A1.12,1.12,0,0,0,118-13.47V-19.3A1.12,1.12,0,0,0,116.9-20.43Z"/></clipPath><clipPath id="clip-path-21"><path class="cls-1" d="M24.21,8.46a.87.87,0,1,1,.87-.87.87.87,0,0,1-.87.87M15.57,23.28a.87.87,0,1,1,.87-.87.87.87,0,0,1-.87.87M24.21,6a1.59,1.59,0,0,0-1.59,1.59,1.57,1.57,0,0,0,.11.53L15.25,20.89A1.56,1.56,0,0,0,14,22.41a1.59,1.59,0,1,0,3.08-.49L24.57,9.1a1.56,1.56,0,0,0,1.24-1.51A1.6,1.6,0,0,0,24.21,6"/></clipPath><clipPath id="clip-path-22"><rect class="cls-1" x="4.19" y="6" width="21.61" height="18.01"/></clipPath><clipPath id="clip-path-23"><path class="cls-1" d="M17.69,8.46a.87.87,0,1,1,.87-.87.87.87,0,0,1-.87.87M9.05,23.28a.87.87,0,1,1,.87-.87.87.87,0,0,1-.87.87M17.69,6A1.59,1.59,0,0,0,16.1,7.59a1.57,1.57,0,0,0,.11.53L8.73,20.89a1.56,1.56,0,0,0-1.27,1.52,1.59,1.59,0,1,0,3.08-.49L18.05,9.1a1.56,1.56,0,0,0,1.24-1.51A1.6,1.6,0,0,0,17.69,6"/></clipPath><clipPath id="clip-path-25"><path class="cls-1" d="M5.79,11.11a.87.87,0,1,1-.87.87.87.87,0,0,1,.87-.87m0,2.46A1.59,1.59,0,0,0,7.38,12a1.65,1.65,0,0,0-.1-.5,1.57,1.57,0,0,0-1.49-1.09,1.8,1.8,0,0,0-.32.06,1.57,1.57,0,0,0,.32,3.12"/></clipPath><clipPath id="clip-path-27"><path class="cls-1" d="M4.92,17.53a.87.87,0,1,1,.87.87.87.87,0,0,1-.87-.87m2.46,0a1.65,1.65,0,0,0-.1-.5,1.57,1.57,0,0,0-1.49-1.09,1.8,1.8,0,0,0-.32.06,1.57,1.57,0,0,0-1.28,1.53,1.6,1.6,0,0,0,3.19,0"/></clipPath></defs><title>curl_icon</title><rect class="cls-1" x="-427" y="-1061.72" width="1366" height="2644"/><rect class="cls-1" x="-718.61" y="-1191.3" width="1366" height="3311"/><path class="cls-3" d="M108.31-51.45l-2.93,2.92a.24.24,0,0,1-.35,0l-.66-.65a.24.24,0,0,1,0-.35l2.1-2.1-2.1-2.09a.25.25,0,0,1,0-.36l.66-.65a.24.24,0,0,1,.35,0l2.93,2.92A.25.25,0,0,1,108.31-51.45Z"/><g class="cls-16"><rect class="cls-3" x="-451.77" y="-400.66" width="742.75" height="1800.34"/></g><rect class="cls-3" x="109.29" y="-50.21" width="5.55" height="1.51" rx="0.38"/><g class="cls-17"><rect class="cls-3" x="-450.77" y="-400.66" width="742.75" height="1800.34"/></g><rect class="cls-1" x="-477.02" y="-1117.58" width="1366" height="3024"/><g class="cls-24"><g class="cls-25"><rect class="cls-26" x="9.47" y="1.5" width="20.84" height="27.01"/></g></g><g class="cls-27"><g class="cls-25"><rect class="cls-28" x="2.95" y="1.5" width="20.84" height="27.01"/></g></g><g class="cls-29"><g class="cls-25"><rect class="cls-28" x="-0.31" y="5.89" width="12.19" height="12.18"/></g></g><g class="cls-30"><g class="cls-25"><rect class="cls-28" x="-0.31" y="11.44" width="12.19" height="12.18"/></g></g></svg>