<svg id="Layer_1" data-name="Layer 1" xmlns="http://www.w3.org/2000/svg" xmlns:xlink="http://www.w3.org/1999/xlink" viewBox="0 0 30 30"><defs><style>.cls-1,.cls-2{fill:none;}.cls-2{clip-rule:evenodd;}.cls-3{fill:#fff;}.cls-4{clip-path:url(#clip-path);}.cls-5{clip-path:url(#clip-path-2);}.cls-6{clip-path:url(#clip-path-3);}.cls-7{clip-path:url(#clip-path-4);}.cls-8{clip-path:url(#clip-path-5);}.cls-9{clip-path:url(#clip-path-6);}.cls-10{clip-path:url(#clip-path-7);}.cls-11{clip-path:url(#clip-path-8);}.cls-12{clip-path:url(#clip-path-9);}.cls-13{clip-path:url(#clip-path-10);}.cls-14{clip-path:url(#clip-path-11);}.cls-15{clip-path:url(#clip-path-12);}.cls-16{clip-path:url(#clip-path-13);}.cls-17{clip-path:url(#clip-path-14);}.cls-18{clip-path:url(#clip-path-15);}.cls-19{clip-path:url(#clip-path-16);}.cls-20{clip-path:url(#clip-path-17);}.cls-21{clip-path:url(#clip-path-18);}.cls-22{clip-path:url(#clip-path-19);}.cls-23{clip-path:url(#clip-path-20);}.cls-24{fill:#294172;}.cls-25{fill:#3c6eb4;}</style><clipPath id="clip-path"><path class="cls-1" d="M-13.13-85.56a2.07,2.07,0,0,0-2.26,2c0,1.25.74,1.85,1.86,2.32l.38.17c.71.31,1.05.49,1.05,1s-.33.76-1,.76-1.12-.51-1.45-1.05l-1.22.81A2.83,2.83,0,0,0-13-77.87c1.47,0,2.56-.76,2.56-2.15s-.74-1.86-2-2.42l-.39-.17c-.66-.29-.95-.47-.95-.94a.68.68,0,0,1,.74-.66,1.06,1.06,0,0,1,1,.66l1.2-.77A2.29,2.29,0,0,0-13.13-85.56Zm-5,0v5.09c0,.78-.29,1-.81,1a1.33,1.33,0,0,1-1.15-.77l-1.28.77a2.85,2.85,0,0,0,2.53,1.61,2.12,2.12,0,0,0,2.33-2.35v-5.34Zm-6.61-6.88H-9.94a.27.27,0,0,1,.27.27v14.84a.27.27,0,0,1-.27.27H-24.78a.27.27,0,0,1-.27-.27V-92.17A.27.27,0,0,1-24.78-92.44Zm0-.81a1.09,1.09,0,0,0-1.08,1.08v14.84a1.08,1.08,0,0,0,1.08,1.08H-9.94a1.08,1.08,0,0,0,1.08-1.08V-92.17a1.08,1.08,0,0,0-1.08-1.08Z"/></clipPath><clipPath id="clip-path-2"><path class="cls-2" d="M13-84.58l-.3-.49c-.1-.16-.2-.34-.3-.52A5.22,5.22,0,0,1,12-86.74a2,2,0,0,1,.63-1.72,2,2,0,0,1,.19-.22c.39-.46.93-1,1.34-1.45a2.57,2.57,0,0,0,.74-1.7c0-.39,0-1.22-.29-1.37a2.88,2.88,0,0,1-.13,1.56,3.38,3.38,0,0,1-1.11,1.48c-.39.33-1,.92-1.34,1.26a3.46,3.46,0,0,0-.73,1,1.38,1.38,0,0,0,.24,1.35,4.05,4.05,0,0,0,.35.53c.14.2.26.34.37.5s.27.31.4.47a4.75,4.75,0,0,0,.41.46"/></clipPath><clipPath id="clip-path-3"><path class="cls-2" d="M18.32-79.55c.17.2,0,.28-.22.36a28.41,28.41,0,0,1-5.46.44,22.78,22.78,0,0,1-3.22-.16c-.17,0-.91-.11-.95-.26s.11-.17.18-.2a4.14,4.14,0,0,1,1-.23,3.69,3.69,0,0,0,.37-.05,4.64,4.64,0,0,0-2.46.53c-.22.23.15.34.39.4a22.2,22.2,0,0,0,3.86.29c1.52,0,5.17,0,6.51-.69.07,0,.23-.13.24-.21s-.14-.2-.22-.22"/></clipPath><clipPath id="clip-path-4"><path class="cls-2" d="M14.19-83.35a4.13,4.13,0,0,0,.8-.59,1.53,1.53,0,0,0,.51-.88,2,2,0,0,0-.38-1c-.47-.7-.85-1.1-.21-1.87a4.58,4.58,0,0,1,.72-.67,11.41,11.41,0,0,1,1.25-.85l.43-.28a8,8,0,0,0-1.08.36,8.82,8.82,0,0,0-1,.45c-1,.55-1.93,1.4-1.54,2.57.27.79,1,1.27,1,1.87,0,.36-.39.73-.5.91"/></clipPath><clipPath id="clip-path-5"><path class="cls-2" d="M16.08-80.16a5,5,0,0,1-.85-.37c-.17-.09-.11-.08-.32,0a17.32,17.32,0,0,1-3.23.16c-.24,0-.9,0-1-.21s0-.21.08-.28c-.6.1-1.22.53-.38.89a9.45,9.45,0,0,0,4,.24,12,12,0,0,0,1.77-.4"/></clipPath><clipPath id="clip-path-6"><path class="cls-2" d="M16.08-81.37a1.45,1.45,0,0,1-.55-.3c-.12-.1-.08-.08-.33,0a14.27,14.27,0,0,1-4.41.1c-.1,0-.21-.1-.22-.22s.11-.21.16-.29c-.63.08-1.23.67-.39,1a12.11,12.11,0,0,0,4,.21,10.19,10.19,0,0,0,1.75-.41"/></clipPath><clipPath id="clip-path-7"><path class="cls-2" d="M17.31-84.06l-.42.06-.44,0c-.89.1-1.88.19-2.78.23-.69,0-3.32.11-3.72-.2,0-.13.16-.22.28-.27a9.13,9.13,0,0,1,1.37-.39A7.57,7.57,0,0,0,8.89-84c-.61.31.4.44.78.48a26.68,26.68,0,0,0,6.44-.14,1.41,1.41,0,0,0,.67-.15,5.24,5.24,0,0,0,.53-.28"/></clipPath><clipPath id="clip-path-8"><path class="cls-2" d="M9.93-77.59a13.67,13.67,0,0,0,2.52.35,25.33,25.33,0,0,0,2.89,0A12.4,12.4,0,0,0,19-77.85c.25-.1.7-.34.75-.58a1.55,1.55,0,0,0-.22.12c-1.86,1-6.14.93-8.34.8l-1.29-.08"/></clipPath><clipPath id="clip-path-9"><path class="cls-2" d="M17.66-84.28a1.15,1.15,0,0,1,1.23.24,1.32,1.32,0,0,1,.09,1.4,4.58,4.58,0,0,1-1.42,1.57c-.08.06-.17.11-.25.18a4.69,4.69,0,0,0,1.41-.68,2.53,2.53,0,0,0,1-1.2,1.36,1.36,0,0,0-.49-1.58,1.29,1.29,0,0,0-.81-.23,1.06,1.06,0,0,0-.73.3"/></clipPath><clipPath id="clip-path-10"><path class="cls-1" d="M42.89-90.57a.67.67,0,0,1,.65.68.66.66,0,0,1-.65.68.66.66,0,0,1-.65-.68A.67.67,0,0,1,42.89-90.57Zm1.86-1.1a10.18,10.18,0,0,0-1.64.15c-1.46.27-1.73.83-1.73,1.86v1.36h3.45v.45H40.09A2.17,2.17,0,0,0,37.94-86a6.88,6.88,0,0,0,0,3.63c.25,1.05.83,1.81,1.83,1.81H41v-1.63a2.23,2.23,0,0,1,2.15-2.22h3.44a1.78,1.78,0,0,0,1.72-1.82v-3.4a2,2,0,0,0-1.72-1.86A10.93,10.93,0,0,0,44.75-91.67Z"/></clipPath><clipPath id="clip-path-11"><path class="cls-1" d="M46.8-79.19a.66.66,0,0,1,.65.68.66.66,0,0,1-.65.67.66.66,0,0,1-.64-.67A.66.66,0,0,1,46.8-79.19Zm1.93-8.55v1.58a2.23,2.23,0,0,1-2.15,2.24H43.15a1.79,1.79,0,0,0-1.72,1.81v3.37c0,1,.81,1.53,1.72,1.8a5.57,5.57,0,0,0,3.43,0c.87-.25,1.72-.77,1.72-1.8v-1.35H44.87v-.45H50c1,0,1.37-.72,1.72-1.8a6.28,6.28,0,0,0,0-3.6c-.25-1-.72-1.8-1.72-1.8Z"/></clipPath><clipPath id="clip-path-12"><path class="cls-2" d="M118.47-83.47l.36-1.69H117.2l-.36,1.69Zm-3.36,1.28H114l.27-1.28h1.07l.36-1.69h-1.08l.27-1.28H116l.61-2.86L118-89l-.54,2.55h1.63l.61-2.86,1.4.29-.55,2.57h1.07l-.28,1.28H120.3l-.36,1.69H121l-.27,1.28h-1l-.62,2.86-1.4-.31.54-2.55h-1.63L116-79.33l-1.4-.31Zm-2.06-5.36-1.25,1.16a7.12,7.12,0,0,0-.86-.79,3.15,3.15,0,0,0-1.82-.54,3.36,3.36,0,0,0-3.46,3.39,3.38,3.38,0,0,0,3.44,3.38,3.28,3.28,0,0,0,1.93-.61,7.68,7.68,0,0,0,.82-.74l1.25,1.15a5.17,5.17,0,0,1-4,1.81,5.11,5.11,0,0,1-5.25-5,5.11,5.11,0,0,1,5.26-5A5.21,5.21,0,0,1,113.05-87.55Z"/></clipPath><clipPath id="clip-path-13"><path class="cls-3" d="M77-51.45l-2.92,2.92a.25.25,0,0,1-.36,0l-.65-.65a.24.24,0,0,1,0-.35l2.09-2.1L73.1-53.72a.25.25,0,0,1,0-.36l.65-.65a.25.25,0,0,1,.36,0L77-51.81A.25.25,0,0,1,77-51.45Z"/></clipPath><clipPath id="clip-path-14"><rect class="cls-3" x="78.02" y="-50.21" width="5.55" height="1.51" rx="0.38"/></clipPath><clipPath id="clip-path-15"><polygon class="cls-1" points="-26.84 -21.97 -6.44 -21.97 -6.44 -14.54 -16.64 -14.54 -16.64 -13.22 -21.31 -13.22 -21.31 -14.54 -26.84 -14.54 -26.84 -21.97"/></clipPath><clipPath id="clip-path-16"><polygon class="cls-1" points="-24.65 -15.41 -22.83 -15.41 -22.83 -19.12 -21.74 -19.12 -21.74 -15.41 -21.01 -15.41 -21.01 -20.51 -24.65 -20.51 -24.65 -15.41"/></clipPath><clipPath id="clip-path-17"><path class="cls-1" d="M-16.64-17.18h-1.09v-2.08h1.09Zm-2.91-3.33v5.83h1.82v-1.25h1.82v-4.58Z"/></clipPath><clipPath id="clip-path-18"><polygon class="cls-1" points="-15.18 -20.51 -15.18 -15.41 -13.13 -15.41 -13.13 -19.12 -11.9 -19.12 -11.9 -15.41 -10.67 -15.41 -10.67 -19.12 -9.44 -19.12 -9.44 -15.41 -8.62 -15.41 -8.62 -20.51 -15.18 -20.51"/></clipPath><clipPath id="clip-path-19"><path class="cls-1" d="M56-18.72v2.77a1.38,1.38,0,0,1-1.39,1.38H51.85a1.38,1.38,0,0,1-1.39-1.38v-2.77a1.38,1.38,0,0,1,1.39-1.38h2.76A1.38,1.38,0,0,1,56-18.72Zm-7.38,0v2.77a1.38,1.38,0,0,1-1.38,1.38H44.47a1.38,1.38,0,0,1-1.38-1.38v-2.77a1.38,1.38,0,0,1,1.38-1.38h2.77A1.38,1.38,0,0,1,48.62-18.72Zm-7.38,0v2.77a1.38,1.38,0,0,1-1.38,1.38H37.09a1.38,1.38,0,0,1-1.38-1.38v-2.77a1.38,1.38,0,0,1,1.38-1.38h2.77A1.38,1.38,0,0,1,41.24-18.72Z"/></clipPath><clipPath id="clip-path-20"><path class="cls-1" d="M84.67-13.44H81v-5.85h3.57v1.08H82.29V-17h2.13v1.08H82.29v1.39h2.38v1.08Zm-.29,4.86H71.59v-3.77H84.38ZM71.13-13.44v-5.85H74.7v1.08H72.44V-17h2.13v1.08H72.44v1.39h2.38v1.08Zm4.22-5.85h1.5l.51,1.06c.17.36.3.65.43,1h0c.14-.38.25-.64.4-1l.48-1.06h1.5l-1.63,2.85,1.71,3H78.76l-.52-1.06c-.21-.41-.35-.71-.51-1.05h0c-.12.34-.27.64-.45,1.05l-.48,1.06H75.29l1.67-3Zm-3.76-7.5h9v4a.39.39,0,0,0,.39.39h3.42v2H71.59Zm14,6.36h-.48v-2.36a.38.38,0,0,0-.09-.25l-3.81-4.4h0l-.08-.06,0,0-.07,0H71.59a.78.78,0,0,0-.77.79v6.36h-.48a1.12,1.12,0,0,0-1.1,1.13v5.83a1.11,1.11,0,0,0,1.1,1.12h.48v4a.78.78,0,0,0,.77.78H84.38a.77.77,0,0,0,.77-.78v-4h.48a1.12,1.12,0,0,0,1.11-1.12V-19.3A1.12,1.12,0,0,0,85.63-20.43Z"/></clipPath></defs><title>dnf_icon</title><rect class="cls-1" x="-458.27" y="-1061.72" width="1366" height="2644"/><rect class="cls-1" x="-749.88" y="-1191.3" width="1366" height="3311"/><path class="cls-3" d="M77-51.45l-2.92,2.92a.25.25,0,0,1-.36,0l-.65-.65a.24.24,0,0,1,0-.35l2.09-2.1L73.1-53.72a.25.25,0,0,1,0-.36l.65-.65a.25.25,0,0,1,.36,0L77-51.81A.25.25,0,0,1,77-51.45Z"/><g class="cls-16"><rect class="cls-3" x="-483.04" y="-400.66" width="742.75" height="1800.34"/></g><rect class="cls-3" x="78.02" y="-50.21" width="5.55" height="1.51" rx="0.38"/><g class="cls-17"><rect class="cls-3" x="-482.04" y="-400.66" width="742.75" height="1800.34"/></g><rect class="cls-1" x="-508.29" y="-1117.58" width="1366" height="3024"/><g id="voice"><path class="cls-24" d="M25.18,15.13a10,10,0,0,0-20,0v7.73a2.27,2.27,0,0,0,2.27,2.27h7.73a10,10,0,0,0,10-10"/></g><g id="in"><path class="cls-25" d="M11,24.06a4.69,4.69,0,1,1,0-9.38h4.69v4.69A4.7,4.7,0,0,1,11,24.06Zm0-7.19a2.5,2.5,0,1,0,2.49,2.5v-2.5Z"/></g><g id="finity"><path class="cls-25" d="M18.12,16.88h-4.7V12.19a4.7,4.7,0,1,1,4.7,4.69Zm-2.5-2.19h2.5a2.5,2.5,0,1,0-2.5-2.5Z"/></g><g id="free"><path class="cls-3" d="M15.64,14.68v4.69A4.69,4.69,0,0,1,11,24.06a3.53,3.53,0,0,1-1-.14,1.21,1.21,0,0,1-1-1.08,1,1,0,0,1,1.11-1.06c.32,0,.43.06.9.06a2.47,2.47,0,0,0,2.47-2.47V17.22a.35.35,0,0,0-.35-.35H11.45a1.1,1.1,0,1,1,0-2.19"/></g><g id="dom"><path class="cls-3" d="M13.42,16.88V12.2a4.69,4.69,0,0,1,4.7-4.7,3.88,3.88,0,0,1,1,.14,1.22,1.22,0,0,1,1,1.08A1,1,0,0,1,19,9.78c-.32,0-.43-.06-.89-.06a2.48,2.48,0,0,0-2.48,2.47v2.15a.35.35,0,0,0,.35.35h1.63a1.1,1.1,0,1,1,0,2.19"/></g><g id="TM"><path class="cls-25" d="M23.45,23.4V23l-.19.43L23.08,23v.41H23v-.65h.11l.19.41.18-.41h.11v.65Zm-.77-.55v.55h-.11v-.55h-.19v-.1h.48v.1"/></g></svg>