<svg id="Layer_1" data-name="Layer 1" xmlns="http://www.w3.org/2000/svg" viewBox="0 0 23.28 22.93"><defs><style>.cls-1{fill:none;}</style></defs><title>download_icon</title><path d="M21.87,19.78a1.15,1.15,0,0,1-1.15,1.15H3a1.16,1.16,0,0,1-1.16-1.15V15.93A1.15,1.15,0,0,1,3,14.78H8.62l1.62,1.63a2.33,2.33,0,0,0,1.63.67,2.35,2.35,0,0,0,1.64-.67l1.63-1.63h5.58a1.14,1.14,0,0,1,1.15,1.15ZM17.8,9.93l-5.38,5.39a.79.79,0,0,1-1.09,0L6,9.93a.75.75,0,0,1-.17-.84.78.78,0,0,1,.71-.47H9.57V3.24a.78.78,0,0,1,.77-.77h3.07a.78.78,0,0,1,.77.77V8.62h3.08a.78.78,0,0,1,.71.47A.75.75,0,0,1,17.8,9.93Zm-1.31,7.92a.77.77,0,1,0,.77.77A.78.78,0,0,0,16.49,17.85Zm3.08,0a.77.77,0,1,0,.77.77A.78.78,0,0,0,19.57,17.85Z"/><rect class="cls-1" x="-526.95" y="-1041.09" width="1366" height="2644"/></svg>