<svg id="Layer_1" data-name="Layer 1" xmlns="http://www.w3.org/2000/svg" viewBox="0 0 16 15"><defs><style>.cls-1{fill:#7e7e7e;}</style></defs><title>External_icon</title><g id="Page-1"><path id="path-1" d="M12.5,8.91v2.81A2.54,2.54,0,0,1,10,14.25H2.66A2.53,2.53,0,0,1,.13,11.72V4.41A2.53,2.53,0,0,1,2.66,1.88H8.84a.27.27,0,0,1,.28.28v.56A.27.27,0,0,1,8.84,3H2.66A1.42,1.42,0,0,0,1.25,4.41v7.31a1.41,1.41,0,0,0,1.41,1.4H10a1.4,1.4,0,0,0,1.4-1.4V8.91a.29.29,0,0,1,.28-.29h.57A.29.29,0,0,1,12.5,8.91Zm3.37-7.59V5.81a.57.57,0,0,1-.56.57.6.6,0,0,1-.4-.17L13.37,4.66,7.64,10.39a.27.27,0,0,1-.4,0l-1-1a.3.3,0,0,1-.08-.2A.34.34,0,0,1,6.23,9L12,3.26,10.42,1.71a.52.52,0,0,1-.17-.39.57.57,0,0,1,.56-.57h4.5A.57.57,0,0,1,15.87,1.32Z"/><path class="cls-1" d="M12.5,8.91v2.81A2.54,2.54,0,0,1,10,14.25H2.66A2.53,2.53,0,0,1,.13,11.72V4.41A2.53,2.53,0,0,1,2.66,1.88H8.84a.27.27,0,0,1,.28.28v.56A.27.27,0,0,1,8.84,3H2.66A1.42,1.42,0,0,0,1.25,4.41v7.31a1.41,1.41,0,0,0,1.41,1.4H10a1.4,1.4,0,0,0,1.4-1.4V8.91a.29.29,0,0,1,.28-.29h.57A.29.29,0,0,1,12.5,8.91Zm3.37-7.59V5.81a.57.57,0,0,1-.56.57.6.6,0,0,1-.4-.17L13.37,4.66,7.64,10.39a.27.27,0,0,1-.4,0l-1-1a.3.3,0,0,1-.08-.2A.34.34,0,0,1,6.23,9L12,3.26,10.42,1.71a.52.52,0,0,1-.17-.39.57.57,0,0,1,.56-.57h4.5A.57.57,0,0,1,15.87,1.32Z"/></g></svg>