<?xml version="1.0" encoding="UTF-8" standalone="no"?>
<svg width="1120px" height="282px" viewBox="0 0 1120 282" version="1.1" xmlns="http://www.w3.org/2000/svg" xmlns:xlink="http://www.w3.org/1999/xlink" xmlns:sketch="http://www.bohemiancoding.com/sketch/ns">
    <!-- Generator: Sketch Beta 3.4 (15575) - http://www.bohemiancoding.com/sketch -->
    <title>Slice 1</title>
    <desc>Created with Sketch Beta.</desc>
    <defs>
        <path id="path-1" d="M0,0.386 L1118.034,0.386 L1118.034,282 L0,282"/>
    </defs>
    <g id="Page-1" stroke="none" stroke-width="1" fill="none" fill-rule="evenodd" sketch:type="MSPage">
        <g sketch:type="MSLayerGroup" transform="translate(1.000000, 0.000000)">
            <path d="M417.9839,112.2236 C415.2699,105.4406 411.5879,99.4806 406.9369,94.3446 C402.2859,89.2086 396.9079,85.1876 390.8019,82.2806 C384.6969,79.3736 378.1559,77.9196 371.1789,77.9196 C364.2019,77.9196 357.6129,79.3736 351.4099,82.2806 C345.2089,85.1876 339.8789,89.2086 335.4209,94.3446 C330.9639,99.4806 327.4269,105.4406 324.8099,112.2236 C322.1949,119.0066 320.8859,126.2746 320.8859,134.0276 C320.8859,141.5856 322.1949,148.7566 324.8099,155.5386 C327.4269,162.3236 330.9639,168.2336 335.4209,173.2736 C339.8789,178.3126 345.2089,182.2856 351.4099,185.1926 C357.6129,188.0996 364.2019,189.5536 371.1789,189.5536 C378.1559,189.5536 384.6969,188.0996 390.8019,185.1926 C396.9079,182.2856 402.2859,178.3126 406.9369,173.2736 C411.5879,168.2336 415.2699,162.3236 417.9839,155.5386 C420.6969,148.7566 422.0539,141.5856 422.0539,134.0276 C422.0539,126.2746 420.6969,119.0066 417.9839,112.2236 M441.2409,234.3236 C437.5589,244.2066 432.3259,252.6856 425.5419,259.7606 C418.7589,266.8336 410.6189,272.3096 401.1229,276.1856 C391.6259,280.0616 381.1609,281.9996 369.7259,281.9996 C351.8949,281.9996 336.6329,277.5906 323.9379,268.7726 C311.2439,259.9526 302.9589,247.8896 299.0819,232.5776 L324.9559,232.5776 C327.4749,238.1996 330.6729,242.7046 334.5489,246.0966 C338.4259,249.4886 342.5439,252.0566 346.9049,253.8006 C351.2649,255.5446 355.4809,256.7066 359.5509,257.2886 C363.6209,257.8706 367.0119,258.1606 369.7259,258.1606 C379.2219,258.1606 387.3139,256.4656 393.9999,253.0736 C400.6859,249.6826 406.1129,245.3216 410.2799,239.9926 C414.4469,234.6616 417.4509,228.6056 419.2919,221.8226 C421.1329,215.0386 422.0539,208.2556 422.0539,201.4726 L422.0539,185.7736 C416.6279,193.1386 409.5049,199.3896 400.6859,204.5256 C391.8679,209.6616 382.0319,212.2286 371.1789,212.2286 C360.3259,212.2286 350.3449,210.1936 341.2359,206.1226 C332.1269,202.0536 324.2289,196.4336 317.5429,189.2626 C310.8559,182.0916 305.6229,173.7576 301.8449,164.2606 C298.0649,154.7656 296.1749,144.5896 296.1749,133.7366 C296.1749,122.8836 298.0649,112.6596 301.8449,103.0666 C305.6229,93.4726 310.8559,85.1396 317.5429,78.0656 C324.2289,70.9906 332.1269,65.3706 341.2359,61.2036 C350.3449,57.0366 360.3259,54.9536 371.1789,54.9536 C382.2259,54.9536 392.3049,57.6666 401.4139,63.0936 C410.5219,68.5206 417.6929,75.0126 422.9259,82.5716 L422.9259,58.7326 L446.7639,58.7326 L446.7639,201.4726 C446.7639,213.4886 444.9229,224.4386 441.2409,234.3236" id="Fill-1" fill="#FEFEFE" sketch:type="MSShapeGroup"/>
            <path d="M586.0186,112.5137 C583.3036,105.7317 579.6226,99.8207 574.9716,94.7817 C570.3206,89.7427 564.9426,85.7697 558.8366,82.8627 C552.7316,79.9537 546.1906,78.5007 539.2136,78.5007 C532.2366,78.5007 525.6476,79.9537 519.4446,82.8627 C513.2436,85.7697 507.9136,89.7427 503.4556,94.7817 C498.9976,99.8207 495.4616,105.7317 492.8446,112.5137 C490.2296,119.2967 488.9206,126.4687 488.9206,134.0277 C488.9206,141.5857 490.2296,148.6597 492.8446,155.2487 C495.4616,161.8377 498.9976,167.6047 503.4556,172.5467 C507.9136,177.4887 513.2436,181.4127 519.4446,184.3207 C525.6476,187.2277 532.2366,188.6817 539.2136,188.6817 C546.1906,188.6817 552.7316,187.2277 558.8366,184.3207 C564.9426,181.4127 570.3206,177.4887 574.9716,172.5467 C579.6226,167.6047 583.3036,161.8377 586.0186,155.2487 C588.7316,148.6597 590.0876,141.5857 590.0876,134.0277 C590.0876,126.4687 588.7316,119.2967 586.0186,112.5137 L586.0186,112.5137 Z M590.9596,208.4497 L590.9596,184.3207 C585.7276,192.0727 578.5566,198.6617 569.4486,204.0877 C560.3386,209.5157 550.2606,212.2297 539.2136,212.2297 C528.3606,212.2297 518.3796,210.1947 509.2696,206.1227 C500.1616,202.0527 492.2636,196.4337 485.5776,189.2617 C478.8906,182.0917 473.6576,173.7577 469.8796,164.2617 C466.0996,154.7657 464.2086,144.5897 464.2086,133.7367 C464.2086,122.8827 466.0996,112.6597 469.8796,103.0667 C473.6576,93.4717 478.8906,85.1387 485.5776,78.0657 C492.2636,70.9917 500.1616,65.3697 509.2696,61.2027 C518.3796,57.0367 528.3606,54.9527 539.2136,54.9527 C550.2606,54.9527 560.3386,57.6667 569.4486,63.0937 C578.5566,68.5207 585.7276,75.0127 590.9596,82.5717 L590.9596,58.7327 L614.7976,58.7327 L614.7976,208.4497 L590.9596,208.4497 Z" id="Fill-3" fill="#FEFEFE" sketch:type="MSShapeGroup"/>
            <path d="M740.3877,208.4492 L740.3877,192.1702 C735.3487,198.3712 729.1477,203.2172 721.7817,206.7052 C714.4167,210.1932 706.0827,211.9382 696.7817,211.9382 C687.6727,211.9382 679.5327,210.3872 672.3617,207.2872 C665.1907,204.1852 659.1337,199.8242 654.1927,194.2052 C649.2497,188.5842 645.5187,181.9462 642.9997,174.2912 C640.4797,166.6362 639.2207,158.1562 639.2207,148.8532 L639.2207,58.7322 L663.6407,58.7322 L663.6407,150.0162 C663.6407,162.0322 666.7897,171.6272 673.0887,178.7982 C679.3877,185.9692 688.5447,189.5532 700.5607,189.5532 C705.9877,189.5532 711.0747,188.5842 715.8227,186.6452 C720.5717,184.7092 724.6897,181.9942 728.1777,178.5072 C731.6667,175.0172 734.4287,170.8982 736.4637,166.1502 C738.4987,161.4022 739.5157,156.2182 739.5157,150.5972 L739.5157,58.7322 L764.2267,58.7322 L764.2267,208.4492 L740.3877,208.4492 Z" id="Fill-5" fill="#FEFEFE" sketch:type="MSShapeGroup"/>
            <path d="M905.8037,112.2236 C903.0897,105.4406 899.4077,99.4806 894.7557,94.3446 C890.1057,89.2086 884.7277,85.1876 878.6217,82.2806 C872.5167,79.3736 865.9757,77.9196 858.9987,77.9196 C852.0217,77.9196 845.4327,79.3736 839.2297,82.2806 C833.0287,85.1876 827.6987,89.2086 823.2407,94.3446 C818.7827,99.4806 815.2467,105.4406 812.6297,112.2236 C810.0147,119.0066 808.7057,126.2746 808.7057,134.0276 C808.7057,141.5856 810.0147,148.7566 812.6297,155.5386 C815.2467,162.3236 818.7827,168.2336 823.2407,173.2736 C827.6987,178.3126 833.0287,182.2856 839.2297,185.1926 C845.4327,188.0996 852.0217,189.5536 858.9987,189.5536 C865.9757,189.5536 872.5167,188.0996 878.6217,185.1926 C884.7277,182.2856 890.1057,178.3126 894.7557,173.2736 C899.4077,168.2336 903.0897,162.3236 905.8037,155.5386 C908.5167,148.7566 909.8737,141.5856 909.8737,134.0276 C909.8737,126.2746 908.5167,119.0066 905.8037,112.2236 M929.0607,234.3236 C925.3787,244.2066 920.1457,252.6856 913.3627,259.7606 C906.5777,266.8336 898.4387,272.3096 888.9427,276.1856 C879.4457,280.0616 868.9807,281.9996 857.5447,281.9996 C839.7147,281.9996 824.4517,277.5906 811.7577,268.7726 C799.0637,259.9526 790.7787,247.8896 786.9017,232.5776 L812.7757,232.5776 C815.2947,238.1996 818.4917,242.7046 822.3677,246.0966 C826.2447,249.4886 830.3637,252.0566 834.7247,253.8006 C839.0847,255.5446 843.3007,256.7066 847.3697,257.2886 C851.4407,257.8706 854.8307,258.1606 857.5447,258.1606 C867.0417,258.1606 875.1337,256.4656 881.8197,253.0736 C888.5057,249.6826 893.9327,245.3216 898.0997,239.9926 C902.2667,234.6616 905.2707,228.6056 907.1117,221.8226 C908.9517,215.0386 909.8737,208.2556 909.8737,201.4726 L909.8737,185.7736 C904.4477,193.1386 897.3247,199.3896 888.5057,204.5256 C879.6877,209.6616 869.8527,212.2286 858.9987,212.2286 C848.1457,212.2286 838.1647,210.1936 829.0557,206.1226 C819.9467,202.0536 812.0487,196.4336 805.3627,189.2626 C798.6757,182.0916 793.4427,173.7576 789.6647,164.2606 C785.8847,154.7656 783.9937,144.5896 783.9937,133.7366 C783.9937,122.8836 785.8847,112.6596 789.6647,103.0666 C793.4427,93.4726 798.6757,85.1396 805.3627,78.0656 C812.0487,70.9906 819.9467,65.3706 829.0557,61.2036 C838.1647,57.0366 848.1457,54.9536 858.9987,54.9536 C870.0457,54.9536 880.1237,57.6666 889.2327,63.0936 C898.3417,68.5206 905.5127,75.0126 910.7447,82.5716 L910.7447,58.7326 L934.5827,58.7326 L934.5827,201.4726 C934.5827,213.4886 932.7417,224.4386 929.0607,234.3236" id="Fill-7" fill="#FEFEFE" sketch:type="MSShapeGroup"/>
            <path d="M1068.46,101.4678 C1065.262,96.4288 1061.53,92.1168 1057.267,88.5308 C1053.004,84.9458 1048.304,82.1838 1043.168,80.2458 C1038.032,78.3078 1032.75,77.3388 1027.323,77.3388 C1022.091,77.3388 1016.907,78.2588 1011.771,80.1008 C1006.635,81.9418 1001.886,84.6058 997.525,88.0948 C993.166,91.5838 989.289,95.8468 985.897,100.8858 C982.506,105.9248 980.035,111.6428 978.483,118.0388 L1075.582,118.0388 C1074.032,112.0308 1071.658,106.5068 1068.46,101.4678 M1073.257,199.0018 C1061.047,207.6258 1046.22,211.9388 1028.776,211.9388 C1017.924,211.9388 1007.846,209.9038 998.543,205.8328 C989.239,201.7628 981.148,196.2398 974.269,189.2628 C967.389,182.2848 961.962,174.0488 957.989,164.5518 C954.017,155.0558 952.028,144.7828 952.028,133.7368 C952.028,122.8838 954.017,112.6598 957.989,103.0668 C961.962,93.4728 967.34,85.1398 974.123,78.0648 C980.907,70.9908 988.853,65.3708 997.962,61.2038 C1007.071,57.0368 1016.857,54.9538 1027.323,54.9538 C1037.015,54.9538 1046.414,56.8918 1055.522,60.7678 C1064.632,64.6438 1072.724,70.2648 1079.798,77.6288 C1086.871,84.9938 1092.492,93.9088 1096.659,104.3748 C1100.826,114.8408 1102.909,126.7598 1102.909,140.1328 L977.03,140.1328 C977.806,147.8848 979.792,154.8128 982.989,160.9178 C986.188,167.0238 990.161,172.2078 994.91,176.4718 C999.658,180.7348 1004.939,183.9808 1010.753,186.2108 C1016.567,188.4388 1022.576,189.5528 1028.776,189.5528 C1039.437,189.5528 1048.497,187.1308 1055.959,182.2848 C1063.421,177.4398 1069.186,170.6558 1073.257,161.9358 L1099.421,161.9358 C1094.188,178.0218 1085.466,190.3768 1073.257,199.0018" id="Fill-9" fill="#FEFEFE" sketch:type="MSShapeGroup"/>
            <g id="Group-13">
                <mask id="mask-2" sketch:name="Clip 12" fill="white">
                    <use xlink:href="#path-1"/>
                </mask>
                <g id="Clip-12"/>
                <path d="M222.7256,247.8594 L24.7466,247.8594 C11.0796,247.8594 -0.0004,236.7794 -0.0004,223.1114 L-0.0004,136.4854 C-0.0004,122.8184 11.0796,111.7384 24.7466,111.7384 C38.4146,111.7384 49.4946,122.8184 49.4946,136.4854 L49.4946,198.3644 L162.9806,198.3644 L7.2476,42.6314 C-2.4164,32.9674 -2.4164,17.2984 7.2476,7.6334 C16.9126,-2.0306 32.5816,-2.0306 42.2456,7.6334 L240.2246,205.6134 C247.3026,212.6894 249.4196,223.3354 245.5886,232.5824 C241.7586,241.8294 232.7346,247.8594 222.7256,247.8594" id="Fill-11" fill="#FEFEFE" sketch:type="MSShapeGroup" mask="url(#mask-2)"/>
            </g>
            <path d="M222.7256,124.123 C216.3926,124.123 210.0586,121.707 205.2266,116.874 L130.9846,42.633 C121.3206,32.968 121.3206,17.299 130.9846,7.634 C140.6496,-2.03 156.3176,-2.03 165.9826,7.634 L240.2246,81.876 C249.8886,91.541 249.8886,107.21 240.2246,116.874 C235.3926,121.707 229.0586,124.123 222.7256,124.123" id="Fill-14" fill="#FEFEFE" sketch:type="MSShapeGroup"/>
            <path d="M1115.626,28.4971 L1115.626,17.4991 L1111.575,28.4971 L1109.132,28.4971 L1105.115,17.4991 L1105.115,28.4971 L1102.672,28.4971 L1102.672,13.2741 L1105.92,13.2741 L1110.354,25.5291 L1114.822,13.2741 L1118.034,13.2741 L1118.034,28.4971 L1115.626,28.4971 Z M1101.102,15.5441 L1096.806,15.5441 L1096.806,28.4971 L1094.397,28.4971 L1094.397,15.5441 L1090.032,15.5441 L1090.032,13.2741 L1101.102,13.2741 L1101.102,15.5441 Z" id="Fill-16" fill="#FEFEFE" sketch:type="MSShapeGroup"/>
        </g>
    </g>
</svg>