<?xml version="1.0" encoding="utf-8"?>
<!-- Generator: Adobe Illustrator 19.1.0, SVG Export Plug-In . SVG Version: 6.00 Build 0)  -->
<svg version="1.1" id="Layer_1" xmlns="http://www.w3.org/2000/svg" xmlns:xlink="http://www.w3.org/1999/xlink" x="0px" y="0px"
	 viewBox="380 195 1360.6 411" style="enable-background:new 380 195 1360.6 411;" xml:space="preserve">
<style type="text/css">
	.st0{fill:#FFFFFF;}
</style>
<g>
	<path class="st0" d="M927.9,505.5c-4.2,11.3-10.2,21-18,29.1c-7.8,8.1-17.1,14.4-28,18.8c-10.9,4.4-22.9,6.7-36,6.7
		c-20.4,0-37.9-5.1-52.4-15.2c-14.5-10.1-24-23.9-28.5-41.5h29.6c2.9,6.4,6.5,11.6,11,15.5c4.4,3.9,9.2,6.8,14.2,8.8s9.8,3.3,14.5,4
		c4.7,0.7,8.5,1,11.7,1c10.9,0,20.1-1.9,27.8-5.8c7.7-3.9,13.9-8.9,18.6-15c4.8-6.1,8.2-13,10.3-20.8s3.2-15.5,3.2-23.3v-18
		c-6.2,8.4-14.4,15.6-24.5,21.5s-21.4,8.8-33.8,8.8s-23.9-2.3-34.3-7s-19.5-11.1-27.1-19.3c-7.7-8.2-13.7-17.8-18-28.6
		c-4.3-10.9-6.5-22.5-6.5-35s2.2-24.1,6.5-35.1c4.3-11,10.3-20.5,18-28.6c7.7-8.1,16.7-14.5,27.1-19.3c10.4-4.8,21.9-7.2,34.3-7.2
		c12.7,0,24.2,3.1,34.6,9.3c10.4,6.2,18.8,13.7,24.8,22.4v-27.3h27.3v163.5C934.3,481.6,932.2,494.2,927.9,505.5z M901.3,365.6
		c-3.1-7.8-7.3-14.6-12.7-20.5c-5.3-5.9-11.5-10.5-18.5-13.8c-7-3.3-14.5-5-22.5-5s-15.5,1.7-22.6,5c-7.1,3.3-13.2,7.9-18.3,13.8
		s-9.2,12.7-12.2,20.5s-4.5,16.1-4.5,25c0,8.7,1.5,16.9,4.5,24.6c3,7.8,7,14.5,12.2,20.3c5.1,5.8,11.2,10.3,18.3,13.7
		c7.1,3.3,14.7,5,22.6,5c8,0,15.5-1.7,22.5-5s13.2-7.9,18.5-13.7c5.3-5.8,9.5-12.5,12.7-20.3c3.1-7.8,4.7-16,4.7-24.6
		C906,381.7,904.4,373.4,901.3,365.6z"/>
	<path class="st0" d="M1099.4,475.8v-27.6c-6,8.9-14.2,16.4-24.6,22.6s-22,9.3-34.6,9.3c-12.4,0-23.9-2.3-34.3-7
		s-19.5-11.1-27.1-19.3c-7.7-8.2-13.7-17.8-18-28.6c-4.3-10.9-6.5-22.5-6.5-35s2.2-24.1,6.5-35.1s10.3-20.5,18-28.6
		s16.7-14.5,27.1-19.3c10.4-4.8,21.9-7.2,34.3-7.2c12.7,0,24.2,3.1,34.6,9.3c10.4,6.2,18.6,13.7,24.6,22.3v-27.3h27.3v171.5H1099.4z
		 M1093.8,366c-3.1-7.8-7.3-14.5-12.7-20.3c-5.3-5.8-11.5-10.3-18.5-13.7s-14.5-5-22.5-5s-15.5,1.7-22.6,5s-13.2,7.9-18.3,13.7
		c-5.1,5.8-9.2,12.5-12.2,20.3s-4.5,16-4.5,24.6s1.5,16.8,4.5,24.3s7,14.2,12.2,19.8c5.1,5.7,11.2,10.2,18.3,13.5s14.7,5,22.6,5
		c8,0,15.5-1.7,22.5-5s13.2-7.8,18.5-13.5s9.5-12.3,12.7-19.8c3.1-7.5,4.7-15.7,4.7-24.3S1096.9,373.7,1093.8,366z"/>
	<path class="st0" d="M1270.6,475.8v-18.6c-5.8,7.1-12.9,12.7-21.3,16.6c-8.4,4-18,6-28.6,6c-10.4,0-19.8-1.8-28-5.3
		c-8.2-3.5-15.2-8.5-20.8-15c-5.7-6.4-9.9-14-12.8-22.8c-2.9-8.8-4.3-18.5-4.3-29.1V304.4h28V409c0,13.8,3.6,24.8,10.8,33
		c7.2,8.2,17.7,12.3,31.5,12.3c6.2,0,12-1.1,17.5-3.3c5.4-2.2,10.2-5.3,14.2-9.3s7.2-8.7,9.5-14.2c2.3-5.4,3.5-11.4,3.5-17.8V304.4
		h28.3v171.5h-27.5V475.8z"/>
	<path class="st0" d="M1486.7,505.5c-4.2,11.3-10.2,21-18,29.1c-7.8,8.1-17.1,14.4-28,18.8c-10.9,4.4-22.9,6.7-36,6.7
		c-20.4,0-37.9-5.1-52.4-15.2c-14.5-10.1-24-23.9-28.5-41.5h29.6c2.9,6.4,6.5,11.6,11,15.5c4.4,3.9,9.2,6.8,14.2,8.8s9.8,3.3,14.5,4
		c4.7,0.7,8.5,1,11.7,1c10.9,0,20.1-1.9,27.8-5.8c7.7-3.9,13.9-8.9,18.6-15c4.8-6.1,8.2-13,10.3-20.8c2.1-7.8,3.2-15.5,3.2-23.3v-18
		c-6.2,8.4-14.4,15.6-24.5,21.5s-21.4,8.8-33.8,8.8s-23.9-2.3-34.3-7c-10.4-4.7-19.5-11.1-27.1-19.3c-7.7-8.2-13.7-17.8-18-28.6
		c-4.3-10.9-6.5-22.5-6.5-35s2.2-24.1,6.5-35.1c4.3-11,10.3-20.5,18-28.6c7.7-8.1,16.7-14.5,27.1-19.3c10.4-4.8,21.9-7.2,34.3-7.2
		c12.7,0,24.2,3.1,34.6,9.3c10.4,6.2,18.6,13.7,24.6,22.3v-27.3h27.3v163.5C1493,481.6,1490.9,494.2,1486.7,505.5z M1460.1,365.6
		c-3.1-7.8-7.3-14.6-12.7-20.5c-5.3-5.9-11.5-10.5-18.5-13.8c-7-3.3-14.5-5-22.5-5s-15.5,1.7-22.6,5c-7.1,3.3-13.2,7.9-18.3,13.8
		c-5.1,5.9-9.2,12.7-12.2,20.5s-4.5,16.1-4.5,25c0,8.7,1.5,16.9,4.5,24.6c3,7.8,7,14.5,12.2,20.3c5.1,5.8,11.2,10.3,18.3,13.7
		c7.1,3.3,14.7,5,22.6,5c8,0,15.5-1.7,22.5-5s13.2-7.9,18.5-13.7c5.3-5.8,9.5-12.5,12.7-20.3c3.1-7.8,4.7-16,4.7-24.6
		C1464.7,381.7,1463.2,373.4,1460.1,365.6z"/>
	<path class="st0" d="M1651.9,465c-14,9.9-31,14.8-50.9,14.8c-12.4,0-24-2.3-34.6-7c-10.7-4.7-19.9-11-27.8-19s-14.1-17.4-18.6-28.3
		c-4.6-10.9-6.8-22.6-6.8-35.3c0-12.4,2.3-24.1,6.8-35.1s10.7-20.5,18.5-28.6s16.9-14.5,27.3-19.3c10.4-4.8,21.6-7.2,33.6-7.2
		c11.1,0,21.9,2.2,32.3,6.7s19.7,10.9,27.8,19.3s14.5,18.6,19.3,30.6s7.2,25.6,7.2,41h-144.2c0.9,8.9,3.2,16.8,6.8,23.8
		s8.2,12.9,13.7,17.8c5.4,4.9,11.5,8.6,18.1,11.2c6.7,2.6,13.5,3.8,20.6,3.8c12.2,0,22.6-2.8,31.1-8.3c8.5-5.5,15.2-13.3,19.8-23.3
		h30C1675.8,441,1665.9,455.1,1651.9,465z M1646.4,353.3c-3.7-5.8-7.9-10.7-12.8-14.8s-10.3-7.3-16.2-9.5s-11.9-3.3-18.1-3.3
		c-6,0-11.9,1.1-17.8,3.2s-11.3,5.2-16.3,9.2s-9.4,8.9-13.3,14.7s-6.7,12.3-8.5,19.6h111.2C1652.8,365.4,1650,359.1,1646.4,353.3z"
		/>
</g>
<g>
	<path class="st0" d="M677.6,521H450.9c-15.7,0-28.3-12.7-28.3-28.3v-99.2c0-15.7,12.7-28.3,28.3-28.3s28.3,12.7,28.3,28.3v70.9h130
		L430.8,285.9c-11.1-11.1-11.1-29,0-40.1c11.1-11.1,29-11.1,40.1,0l226.8,226.8c8.1,8.1,10.5,20.3,6.1,30.9
		C699.4,514.1,689.1,521,677.6,521z"/>
	<path class="st0" d="M677.6,379.3c-7.3,0-14.5-2.8-20-8.3l-85-85c-11.1-11.1-11.1-29,0-40.1c11.1-11.1,29-11.1,40.1,0l85,85
		c11.1,11.1,11.1,29,0,40.1C692.1,376.5,684.9,379.3,677.6,379.3z"/>
</g>
</svg>
