<?xml version="1.0" encoding="UTF-8" standalone="no"?>
<svg width="37px" height="19px" viewBox="0 0 37 19" version="1.1" xmlns="http://www.w3.org/2000/svg" xmlns:xlink="http://www.w3.org/1999/xlink">
    <!-- Generator: Sketch 50.2 (55047) - http://www.bohemiancoding.com/sketch -->
    <title>Github star Copy</title>
    <desc>Created with Sketch.</desc>
    <defs></defs>
    <g id="Home-page-design" stroke="none" stroke-width="1" fill="none" fill-rule="evenodd">
        <g id="Github-star-Copy">
            <g id="Group-2" transform="translate(23.904762, 4.000000)" fill="#FFFFFF">
                <g id="Group-8">
                    <polygon id="Star-2-Copy" points="6.59000015 9.92222527 2.82617307 11.9663161 3.54500008 7.63686226 0.5 4.57072603 4.70808661 3.93906722 6.59000015 0 8.4719137 3.93906722 12.6800003 4.57072603 9.63500023 7.63686226 10.3538272 11.9663161"></polygon>
                </g>
            </g>
            <path d="M9.04761905,0.904761905 C14.0426587,0.904761905 18.0952381,4.84080511 18.0952381,9.69220719 C18.0952381,13.5710405 15.5034722,16.8663324 11.9103423,18.033415 C11.4508929,18.1135089 11.2859623,17.8389013 11.2859623,17.6100615 C11.2859623,17.3240119 11.2977431,16.374327 11.2977431,15.1958025 C11.2977431,14.3719795 11.015005,13.8456481 10.6851438,13.5710405 C12.6996528,13.3536427 14.8201885,12.6099136 14.8201885,9.23452775 C14.8201885,8.27340092 14.4667659,7.49534587 13.8895089,6.87747862 C13.983755,6.6486389 14.2900546,5.75616399 13.7952629,4.54331347 C13.0412946,4.31447375 11.3095238,5.44723037 11.3095238,5.44723037 C10.5908978,5.25271661 9.81336806,5.14973873 9.04761905,5.14973873 C8.28187004,5.14973873 7.50434028,5.25271661 6.78571429,5.44723037 C6.78571429,5.44723037 5.05394345,4.31447375 4.2999752,4.54331347 C3.80518353,5.75616399 4.11148313,6.6486389 4.20572917,6.87747862 C3.62847222,7.49534587 3.2750496,8.27340092 3.2750496,9.23452775 C3.2750496,12.5984717 5.38380456,13.3536427 7.39831349,13.5710405 C7.1391369,13.7998802 6.90352183,14.1889077 6.82105655,14.749565 C6.30270337,14.9784048 4.98325893,15.3674323 4.19394841,14.0172779 C3.69915675,13.1820129 2.80381944,13.113361 2.80381944,13.113361 C1.9202629,13.101919 2.74491567,13.6511344 2.74491567,13.6511344 C3.33395337,13.9143 3.74627976,14.9326368 3.74627976,14.9326368 C4.27641369,16.5001889 6.79749504,15.9738575 6.79749504,15.9738575 C6.79749504,16.7061446 6.80927579,17.3926638 6.80927579,17.6100615 C6.80927579,17.8389013 6.64434524,18.1135089 6.18489583,18.033415 C2.59176587,16.8663324 0,13.5710405 0,9.69220719 C0,4.84080511 4.05257937,0.904761905 9.04761905,0.904761905 Z M3.4281994,13.5252725 C3.4046379,13.5710405 3.33395337,13.5824825 3.2750496,13.5481565 C3.20436508,13.5138305 3.16902282,13.4566206 3.19258433,13.4108527 C3.21614583,13.3765267 3.2750496,13.3650847 3.34573413,13.3879687 C3.41641865,13.4222946 3.45176091,13.4795046 3.4281994,13.5252725 Z M3.79340278,13.9143 C3.74627976,13.960068 3.66381448,13.937184 3.60491071,13.8799741 C3.54600694,13.8113222 3.53422619,13.7312283 3.58134921,13.6969023 C3.62847222,13.6511344 3.7109375,13.6740183 3.76984127,13.7312283 C3.82874504,13.7998802 3.84052579,13.8799741 3.79340278,13.9143 Z M4.1468254,14.4291894 C4.09970238,14.4635154 4.00545635,14.4291894 3.94655258,14.3490955 C3.88764881,14.2690016 3.88764881,14.1774657 3.94655258,14.1431398 C4.00545635,14.0973718 4.09970238,14.1316978 4.1468254,14.2117917 C4.20572917,14.2918856 4.20572917,14.3834215 4.1468254,14.4291894 Z M4.64161706,14.9097528 C4.59449405,14.9669628 4.48846726,14.9555208 4.40600198,14.8754269 C4.32353671,14.806775 4.2999752,14.7037971 4.35887897,14.6580291 C4.40600198,14.6008192 4.51202877,14.6122612 4.59449405,14.6923551 C4.66517857,14.761007 4.68874008,14.8639849 4.64161706,14.9097528 Z M5.31312004,15.1958025 C5.28955853,15.2644544 5.18353175,15.2987804 5.08928571,15.2644544 C4.98325893,15.2415704 4.9125744,15.1614765 4.93613591,15.0928246 C4.95969742,15.0241727 5.06572421,14.9898467 5.15997024,15.0127307 C5.26599702,15.0470567 5.33668155,15.1271506 5.31312004,15.1958025 Z M6.05530754,15.2530124 C6.05530754,15.3216643 5.97284226,15.3788743 5.86681548,15.3788743 C5.74900794,15.3903162 5.66654266,15.3331063 5.66654266,15.2530124 C5.66654266,15.1843605 5.74900794,15.1271506 5.85503472,15.1271506 C5.96106151,15.1157086 6.05530754,15.1729185 6.05530754,15.2530124 Z M6.73859127,15.1385926 C6.75037202,15.2072445 6.6796875,15.2758964 6.57366071,15.2987804 C6.46763393,15.3216643 6.3733879,15.2758964 6.36160714,15.2072445 C6.34982639,15.1271506 6.42051091,15.0584987 6.5265377,15.0356147 C6.63256448,15.0241727 6.72681052,15.0699406 6.73859127,15.1385926 Z" id="github---FontAwesome" fill="#FFCC00"></path>
        </g>
    </g>
</svg>