<?xml version="1.0" encoding="utf-8"?>
<!-- Generator: Adobe Illustrator 21.1.0, SVG Export Plug-In . SVG Version: 6.00 Build 0)  -->
<svg version="1.1" id="Layer_1" xmlns="http://www.w3.org/2000/svg" xmlns:xlink="http://www.w3.org/1999/xlink" x="0px" y="0px"
	 viewBox="0 0 50 20" style="enable-background:new 0 0 50 20;" xml:space="preserve">
<style type="text/css">
	.st0{clip-path:url(#SVGID_2_);}
	.st1{clip-path:url(#SVGID_4_);fill:#FFFFFF;}
	.st2{clip-path:url(#SVGID_6_);}
	.st3{clip-path:url(#SVGID_8_);fill:#FFFFFF;}
</style>
<g>
	<defs>
		<polygon id="SVGID_1_" points="39.5,15.2 35.1,17.6 36,12.5 32.4,8.9 37.3,8.2 39.5,3.6 41.7,8.2 46.6,8.9 43.1,12.5 43.9,17.6 		
			"/>
	</defs>
	<clipPath id="SVGID_2_">
		<use xlink:href="#SVGID_1_"  style="overflow:visible;"/>
	</clipPath>
	<g class="st0">
		<defs>
			<rect id="SVGID_3_" x="-1082.2" y="-48.9" width="1593.7" height="4748.3"/>
		</defs>
		<clipPath id="SVGID_4_">
			<use xlink:href="#SVGID_3_"  style="overflow:visible;"/>
		</clipPath>
		<rect x="26.6" y="-2.2" class="st1" width="25.9" height="25.6"/>
	</g>
</g>
<g>
	<defs>
		<path id="SVGID_5_" d="M11.8,16.6c0,0.1-0.1,0.2-0.2,0.2c-0.1,0-0.2,0-0.2-0.1c0-0.1,0.1-0.2,0.2-0.2
			C11.7,16.5,11.8,16.5,11.8,16.6z M11,16.7c0,0.1-0.1,0.1-0.2,0.1c-0.1,0-0.2-0.1-0.2-0.1c0-0.1,0.1-0.1,0.2-0.1
			C10.9,16.6,11,16.6,11,16.7z M10.1,16.7c0,0.1-0.2,0.1-0.3,0.1c-0.1,0-0.2-0.1-0.2-0.2c0-0.1,0.2-0.1,0.3-0.1
			C10.1,16.5,10.2,16.6,10.1,16.7z M9.4,16.3c-0.1,0.1-0.2,0.1-0.3,0C9,16.2,9,16.1,9,16c0.1-0.1,0.2-0.1,0.3,0
			C9.4,16.2,9.4,16.3,9.4,16.3z M8.8,15.8c-0.1,0-0.2,0-0.2-0.1c-0.1-0.1-0.1-0.2,0-0.2c0.1-0.1,0.2,0,0.2,0.1
			C8.8,15.6,8.8,15.7,8.8,15.8z M8.4,15.2c-0.1,0.1-0.2,0-0.2,0c-0.1-0.1-0.1-0.2,0-0.2c0.1-0.1,0.2,0,0.2,0
			C8.4,15,8.4,15.1,8.4,15.2z M7.9,14.7c0,0.1-0.1,0.1-0.2,0c-0.1,0-0.1-0.1-0.1-0.2c0,0,0.1-0.1,0.2,0C7.9,14.6,8,14.7,7.9,14.7z
			 M14.5,0C20.3,0,25,4.6,25,10.3c0,4.5-3,8.4-7.2,9.7c-0.5,0.1-0.7-0.2-0.7-0.5c0-0.3,0-1.4,0-2.8c0-1-0.3-1.6-0.7-1.9
			c2.4-0.3,4.8-1.1,4.8-5.1c0-1.1-0.4-2-1.1-2.7c0.1-0.3,0.5-1.3-0.1-2.7c-0.9-0.3-2.9,1.1-2.9,1.1C16.3,5.1,15.4,5,14.5,5
			c-0.9,0-1.8,0.1-2.6,0.3c0,0-2-1.3-2.9-1.1C8.4,5.7,8.7,6.7,8.8,7C8.2,7.7,7.8,8.6,7.8,9.7c0,3.9,2.5,4.8,4.8,5.1
			c-0.3,0.3-0.6,0.7-0.7,1.4c-0.6,0.3-2.1,0.7-3.1-0.9c-0.6-1-1.6-1.1-1.6-1.1c-1,0-0.1,0.6-0.1,0.6c0.7,0.3,1.2,1.5,1.2,1.5
			c0.6,1.8,3.6,1.2,3.6,1.2c0,0.9,0,1.7,0,1.9c0,0.3-0.2,0.6-0.7,0.5c-4.2-1.4-7.2-5.2-7.2-9.7C3.9,4.6,8.7,0,14.5,0z"/>
	</defs>
	<clipPath id="SVGID_6_">
		<use xlink:href="#SVGID_5_"  style="overflow:visible;"/>
	</clipPath>
	<g class="st2">
		<defs>
			<rect id="SVGID_7_" x="-1082.2" y="-48.9" width="1593.7" height="4748.3"/>
		</defs>
		<clipPath id="SVGID_8_">
			<use xlink:href="#SVGID_7_"  style="overflow:visible;"/>
		</clipPath>
		<rect x="-1.9" y="-5.8" class="st3" width="32.8" height="31.7"/>
	</g>
</g>
</svg>
