<?xml version="1.0" encoding="utf-8"?>
<!-- Generator: Adobe Illustrator 21.1.0, SVG Export Plug-In . SVG Version: 6.00 Build 0)  -->
<svg version="1.1" id="Layer_1" xmlns="http://www.w3.org/2000/svg" xmlns:xlink="http://www.w3.org/1999/xlink" x="0px" y="0px"
	 viewBox="0 0 30 30" style="enable-background:new 0 0 30 30;" xml:space="preserve">
<style type="text/css">
	.st0{clip-path:url(#SVGID_2_);fill:#FFFFFF;}
</style>
<g>
	<defs>
		<path id="SVGID_1_" d="M11.2,24.7c0,0.1-0.1,0.2-0.3,0.3c-0.2,0-0.3,0-0.4-0.2c0-0.1,0.1-0.3,0.3-0.3C11,24.5,11.2,24.5,11.2,24.7
			z M10,24.9c0,0.1-0.1,0.2-0.3,0.2c-0.2,0-0.3-0.1-0.3-0.2c0-0.1,0.1-0.2,0.3-0.2C9.9,24.6,10,24.7,10,24.9z M8.8,24.8
			c0,0.1-0.2,0.2-0.4,0.1c-0.2,0-0.3-0.2-0.3-0.3s0.2-0.2,0.4-0.1C8.7,24.5,8.8,24.6,8.8,24.8z M7.7,24.3c-0.1,0.1-0.3,0.1-0.4-0.1
			c-0.1-0.1-0.2-0.3-0.1-0.4c0.1-0.1,0.3-0.1,0.4,0.1C7.7,24,7.8,24.2,7.7,24.3z M6.9,23.5c-0.1,0.1-0.2,0-0.3-0.1
			c-0.1-0.1-0.1-0.3,0-0.4c0.1-0.1,0.3,0,0.3,0.1C7,23.2,7,23.4,6.9,23.5z M6.3,22.6c-0.1,0.1-0.2,0-0.3-0.1c-0.1-0.1-0.1-0.3,0-0.3
			c0.1-0.1,0.2,0,0.3,0.1C6.3,22.4,6.4,22.5,6.3,22.6z M5.7,21.9c0,0.1-0.2,0.1-0.3,0c-0.1-0.1-0.2-0.2-0.1-0.2c0-0.1,0.1-0.1,0.3,0
			C5.7,21.7,5.7,21.8,5.7,21.9z M15,0.4c8.3,0,15,6.7,15,15c0,6.6-4.3,12.2-10.3,14.2c-0.8,0.1-1-0.3-1-0.7c0-0.5,0-2.1,0-4.1
			c0-1.4-0.5-2.3-1-2.8c3.3-0.4,6.9-1.6,6.9-7.4c0-1.6-0.6-3-1.5-4c0.2-0.4,0.7-1.9-0.2-4c-1.2-0.4-4.1,1.5-4.1,1.5
			c-1.2-0.3-2.5-0.5-3.8-0.5s-2.6,0.2-3.8,0.5c0,0-2.9-1.9-4.1-1.5c-0.8,2.1-0.3,3.6-0.2,4c-1,1.1-1.5,2.4-1.5,4
			c0,5.7,3.5,7,6.8,7.4c-0.4,0.4-0.8,1.1-1,2c-0.9,0.4-3,1.1-4.4-1.2c-0.8-1.4-2.3-1.5-2.3-1.5c-1.5,0-0.1,0.9-0.1,0.9
			c1,0.4,1.7,2.2,1.7,2.2c0.9,2.7,5.1,1.8,5.1,1.8c0,1.2,0,2.4,0,2.8c0,0.4-0.3,0.9-1,0.7C4.3,27.6,0,22,0,15.4
			C0,7.1,6.7,0.4,15,0.4z"/>
	</defs>
	<clipPath id="SVGID_2_">
		<use xlink:href="#SVGID_1_"  style="overflow:visible;"/>
	</clipPath>
	<rect x="-5" y="-4.6" class="st0" width="40" height="39.3"/>
</g>
</svg>
