<svg id="Layer_1" data-name="Layer 1" xmlns="http://www.w3.org/2000/svg" xmlns:xlink="http://www.w3.org/1999/xlink" viewBox="0 0 25 25"><defs><style>.cls-1,.cls-2{fill:none;}.cls-2{clip-rule:evenodd;}.cls-3{fill:#fff;}.cls-4{clip-path:url(#clip-path);}.cls-5{clip-path:url(#clip-path-2);}.cls-6{clip-path:url(#clip-path-3);}.cls-7{clip-path:url(#clip-path-4);}.cls-8{clip-path:url(#clip-path-5);}.cls-9{clip-path:url(#clip-path-6);}.cls-10{clip-path:url(#clip-path-7);}.cls-11{clip-path:url(#clip-path-8);}.cls-12{clip-path:url(#clip-path-9);}.cls-13{clip-path:url(#clip-path-10);}.cls-14{clip-path:url(#clip-path-11);}.cls-15{clip-path:url(#clip-path-12);}.cls-16{clip-path:url(#clip-path-13);}.cls-17{clip-path:url(#clip-path-14);}.cls-18{clip-path:url(#clip-path-15);}.cls-19{clip-path:url(#clip-path-16);}.cls-20{clip-path:url(#clip-path-17);}.cls-21{clip-path:url(#clip-path-18);}.cls-22{clip-path:url(#clip-path-19);}.cls-23{clip-path:url(#clip-path-20);}.cls-24{clip-path:url(#clip-path-21);}.cls-25{clip-path:url(#clip-path-22);}.cls-26{clip-path:url(#clip-path-23);}.cls-27{clip-path:url(#clip-path-24);}.cls-28{clip-path:url(#clip-path-25);}.cls-29{clip-path:url(#clip-path-26);}.cls-30{clip-path:url(#clip-path-27);}.cls-31{clip-path:url(#clip-path-28);}.cls-32{clip-path:url(#clip-path-29);}.cls-33{clip-path:url(#clip-path-30);}.cls-34{clip-path:url(#clip-path-31);}.cls-35{clip-path:url(#clip-path-32);}.cls-36{clip-path:url(#clip-path-33);}.cls-37{clip-path:url(#clip-path-34);}.cls-38{clip-path:url(#clip-path-35);}.cls-39{clip-path:url(#clip-path-36);}.cls-40{clip-path:url(#clip-path-37);}.cls-41{clip-path:url(#clip-path-38);}.cls-42{clip-path:url(#clip-path-39);}.cls-43{clip-path:url(#clip-path-40);}.cls-44{clip-path:url(#clip-path-41);}.cls-45{clip-path:url(#clip-path-42);}.cls-46{clip-path:url(#clip-path-43);}.cls-47{clip-path:url(#clip-path-44);}</style><clipPath id="clip-path"><rect class="cls-1" x="94.26" y="772" width="19.26" height="20"/></clipPath><clipPath id="clip-path-2"><path class="cls-1" d="M17.45-178.84a2.07,2.07,0,0,0-2.26,2c0,1.26.74,1.85,1.86,2.32l.38.17c.71.31,1.06.5,1.06,1s-.34.76-1,.76-1.12-.52-1.45-1.06l-1.22.81a2.82,2.82,0,0,0,2.7,1.62c1.47,0,2.56-.76,2.56-2.15s-.74-1.87-2.05-2.43l-.39-.17c-.66-.28-.95-.47-.95-.93a.68.68,0,0,1,.74-.67,1.06,1.06,0,0,1,1,.67l1.2-.77A2.28,2.28,0,0,0,17.45-178.84Zm-5,0v5.09c0,.78-.29,1-.81,1a1.33,1.33,0,0,1-1.15-.77l-1.27.77a2.83,2.83,0,0,0,2.52,1.62A2.12,2.12,0,0,0,14-173.51v-5.33ZM5.8-185.72H20.64a.27.27,0,0,1,.27.27v14.84a.27.27,0,0,1-.27.27H5.8a.27.27,0,0,1-.27-.27v-14.84A.27.27,0,0,1,5.8-185.72Zm0-.81a1.09,1.09,0,0,0-1.08,1.08v14.84a1.09,1.09,0,0,0,1.08,1.08H20.64a1.08,1.08,0,0,0,1.08-1.08v-14.84a1.08,1.08,0,0,0-1.08-1.08Z"/></clipPath><clipPath id="clip-path-3"><path class="cls-2" d="M43.6-177.87l-.3-.49c-.1-.16-.2-.34-.29-.51a5,5,0,0,1-.48-1.16,2,2,0,0,1,.63-1.72c.06-.08.13-.15.19-.22.39-.45.93-1,1.35-1.45a2.59,2.59,0,0,0,.73-1.7c0-.39,0-1.22-.29-1.36a2.94,2.94,0,0,1-.12,1.55,3.5,3.5,0,0,1-1.12,1.49,17.92,17.92,0,0,0-1.34,1.26,3.41,3.41,0,0,0-.73,1,1.4,1.4,0,0,0,.24,1.36c.11.19.23.35.35.52s.26.34.38.5a5.71,5.71,0,0,0,.39.47,4.75,4.75,0,0,0,.41.46"/></clipPath><clipPath id="clip-path-4"><path class="cls-2" d="M48.9-172.84c.17.2,0,.29-.22.37a29.23,29.23,0,0,1-5.46.43A22.85,22.85,0,0,1,40-172.2c-.17,0-.91-.11-1-.26s.11-.16.18-.2a4.14,4.14,0,0,1,1-.23,3.69,3.69,0,0,0,.37-.05,4.73,4.73,0,0,0-2.46.53c-.22.24.15.35.39.41a23.27,23.27,0,0,0,3.87.28c1.51,0,5.16,0,6.5-.69.08,0,.23-.12.25-.21s-.15-.19-.23-.22"/></clipPath><clipPath id="clip-path-5"><path class="cls-2" d="M44.77-176.64a3.44,3.44,0,0,0,.8-.59,1.5,1.5,0,0,0,.51-.88,2,2,0,0,0-.37-1c-.48-.69-.86-1.09-.22-1.87a5.23,5.23,0,0,1,.73-.67,12.85,12.85,0,0,1,1.24-.85l.44-.27a7.66,7.66,0,0,0-1.09.35,7.35,7.35,0,0,0-1,.46c-1,.54-1.93,1.39-1.54,2.56.27.8,1,1.27,1,1.87,0,.36-.39.73-.5.91"/></clipPath><clipPath id="clip-path-6"><path class="cls-2" d="M46.67-173.44a5.59,5.59,0,0,1-.86-.38c-.17-.08-.11-.08-.32,0a16.47,16.47,0,0,1-3.23.16c-.23,0-.9,0-1-.21s0-.21.08-.28c-.6.11-1.22.53-.38.89a9.62,9.62,0,0,0,4,.25,15.39,15.39,0,0,0,1.78-.4"/></clipPath><clipPath id="clip-path-7"><path class="cls-2" d="M46.67-174.66a1.42,1.42,0,0,1-.56-.3c-.12-.1-.08-.08-.33,0-.91.14-3.63.41-4.41.09-.1,0-.21-.1-.22-.22s.11-.21.16-.29c-.62.08-1.22.67-.39.95a12.11,12.11,0,0,0,4,.21,9.63,9.63,0,0,0,1.76-.41"/></clipPath><clipPath id="clip-path-8"><path class="cls-2" d="M47.9-177.34a3.15,3.15,0,0,0-.43.05l-.44,0c-.89.11-1.88.19-2.77.23-.7,0-3.33.11-3.73-.19,0-.14.16-.23.28-.28a8.92,8.92,0,0,1,1.38-.39,7.79,7.79,0,0,0-2.72.61c-.6.32.4.44.78.49a27.74,27.74,0,0,0,6.44-.14,1.41,1.41,0,0,0,.67-.16c.17-.08.39-.18.54-.27"/></clipPath><clipPath id="clip-path-9"><path class="cls-2" d="M40.51-170.88a14.57,14.57,0,0,0,2.52.36,25.33,25.33,0,0,0,2.89,0,12.4,12.4,0,0,0,3.69-.61c.25-.1.7-.34.75-.58-.08,0-.14.09-.21.12-1.87,1-6.14.93-8.35.8l-1.29-.08"/></clipPath><clipPath id="clip-path-10"><path class="cls-2" d="M48.24-177.57a1.19,1.19,0,0,1,1.23.24,1.32,1.32,0,0,1,.09,1.4,4.58,4.58,0,0,1-1.42,1.57c-.08.07-.17.12-.24.18a5,5,0,0,0,1.4-.67,2.64,2.64,0,0,0,1-1.21,1.37,1.37,0,0,0-.5-1.58,1.32,1.32,0,0,0-.8-.23,1.11,1.11,0,0,0-.74.3"/></clipPath><clipPath id="clip-path-11"><path class="cls-1" d="M73.47-183.86a.67.67,0,0,1,.65.69.66.66,0,0,1-.65.67.66.66,0,0,1-.65-.67A.67.67,0,0,1,73.47-183.86Zm1.86-1.09a9.2,9.2,0,0,0-1.64.14c-1.46.27-1.72.83-1.72,1.86v1.36h3.44v.46H70.67a2.17,2.17,0,0,0-2.15,1.81,7,7,0,0,0,0,3.63c.25,1.06.83,1.81,1.83,1.81h1.19v-1.63a2.23,2.23,0,0,1,2.15-2.22h3.44a1.77,1.77,0,0,0,1.72-1.82v-3.4a2,2,0,0,0-1.72-1.86A9.93,9.93,0,0,0,75.33-184.95Z"/></clipPath><clipPath id="clip-path-12"><path class="cls-1" d="M77.38-172.48a.67.67,0,0,1,.65.68.67.67,0,0,1-.65.68.67.67,0,0,1-.64-.68A.67.67,0,0,1,77.38-172.48ZM79.31-181v1.58a2.24,2.24,0,0,1-2.14,2.25H73.73A1.78,1.78,0,0,0,72-175.4V-172c0,1,.81,1.53,1.72,1.81a5.6,5.6,0,0,0,3.44,0c.86-.26,1.71-.78,1.71-1.81v-1.35H75.45v-.45H80.6c1,0,1.37-.72,1.72-1.79a6.31,6.31,0,0,0,0-3.61c-.25-1-.72-1.8-1.72-1.8Z"/></clipPath><clipPath id="clip-path-13"><path class="cls-3" d="M107.61-144.74l-2.92,2.93a.25.25,0,0,1-.36,0l-.65-.66a.24.24,0,0,1,0-.35l2.09-2.1L103.68-147a.25.25,0,0,1,0-.36l.65-.65a.25.25,0,0,1,.36,0l2.92,2.93A.24.24,0,0,1,107.61-144.74Z"/></clipPath><clipPath id="clip-path-14"><rect class="cls-3" x="108.6" y="-143.5" width="5.55" height="1.51" rx="0.38"/></clipPath><clipPath id="clip-path-15"><polygon class="cls-1" points="3.75 -115.25 24.14 -115.25 24.14 -107.82 13.95 -107.82 13.95 -106.51 9.27 -106.51 9.27 -107.82 3.75 -107.82 3.75 -115.25"/></clipPath><clipPath id="clip-path-16"><polygon class="cls-1" points="5.93 -108.7 7.75 -108.7 7.75 -112.41 8.85 -112.41 8.85 -108.7 9.57 -108.7 9.57 -113.8 5.93 -113.8 5.93 -108.7"/></clipPath><clipPath id="clip-path-17"><path class="cls-1" d="M13.94-110.47H12.85v-2.08h1.09ZM11-113.8V-108h1.82v-1.25h1.82v-4.58Z"/></clipPath><clipPath id="clip-path-18"><polygon class="cls-1" points="15.4 -113.8 15.4 -108.7 17.45 -108.7 17.45 -112.41 18.68 -112.41 18.68 -108.7 19.91 -108.7 19.91 -112.41 21.14 -112.41 21.14 -108.7 21.96 -108.7 21.96 -113.8 15.4 -113.8"/></clipPath><clipPath id="clip-path-19"><path class="cls-1" d="M86.58-112v2.76a1.39,1.39,0,0,1-1.39,1.39H82.43A1.39,1.39,0,0,1,81-109.24V-112a1.39,1.39,0,0,1,1.39-1.39h2.76A1.39,1.39,0,0,1,86.58-112Zm-7.38,0v2.76a1.38,1.38,0,0,1-1.38,1.39H75.05a1.38,1.38,0,0,1-1.38-1.39V-112a1.38,1.38,0,0,1,1.38-1.39h2.77A1.38,1.38,0,0,1,79.2-112Zm-7.38,0v2.76a1.38,1.38,0,0,1-1.38,1.39H67.67a1.38,1.38,0,0,1-1.38-1.39V-112a1.38,1.38,0,0,1,1.38-1.39h2.77A1.38,1.38,0,0,1,71.82-112Z"/></clipPath><clipPath id="clip-path-20"><path class="cls-1" d="M115.25-106.73h-3.69v-5.85h3.57v1.08h-2.26v1.22H115v1.08h-2.13v1.39h2.38v1.08Zm-.29,4.87H102.17v-3.78H115Zm-13.25-4.87v-5.85h3.57v1.08H103v1.22h2.13v1.08H103v1.39h2.37v1.08Zm4.22-5.85h1.5l.51,1.07c.17.35.3.64.43,1h0c.14-.37.25-.63.4-1l.49-1.07h1.49l-1.63,2.86,1.72,3h-1.51l-.53-1.06c-.21-.4-.35-.71-.51-1h0c-.12.34-.27.65-.45,1l-.48,1.06h-1.49l1.67-3Zm-3.76-7.5h9v4a.38.38,0,0,0,.39.39H115v2H102.17Zm14,6.37h-.47V-116s0,0,0,0a.39.39,0,0,0-.09-.26l-3.81-4.4h0l-.08-.07,0,0-.07,0h-9.48a.79.79,0,0,0-.77.79v6.37h-.47a1.11,1.11,0,0,0-1.11,1.12v5.83a1.11,1.11,0,0,0,1.11,1.12h.47v4a.78.78,0,0,0,.77.78H115a.78.78,0,0,0,.78-.78v-4h.47a1.12,1.12,0,0,0,1.11-1.12v-5.83A1.12,1.12,0,0,0,116.21-113.71Z"/></clipPath><clipPath id="clip-path-21"><path class="cls-1" d="M139.39-19.23a1,1,0,0,0-1,1h2A1,1,0,0,0,139.39-19.23Zm0-1.2A2.46,2.46,0,0,1,142-17.72v.49h-3.65v.08A1,1,0,0,0,139.44-16a1,1,0,0,0,1-.49H142a2.34,2.34,0,0,1-2.58,1.73,2.5,2.5,0,0,1-2.71-2.8C136.73-19.37,137.7-20.43,139.39-20.43Zm-7.29-1.83c1.65,0,2.8.89,2.85,2.23h-1.69a1.06,1.06,0,0,0-1.16-.85c-.62,0-1.06.31-1.06.76s.31.62,1.06.75l.94.18c1.42.27,2,.89,2,2,0,1.47-1.11,2.36-3,2.36s-2.93-.84-3-2.22h1.73c0,.53.58.84,1.29.84s1.15-.31,1.15-.8-.31-.62-1.11-.75l-.93-.18c-1.29-.27-2-1-2-2.09C129.26-21.37,130.37-22.26,132.1-22.26Zm-3.64-9.91a1.8,1.8,0,0,0-1.82,1.82V-14a1.8,1.8,0,0,0,1.82,1.82h16.36A1.8,1.8,0,0,0,146.64-14V-30.26l-6.8,6.85L135.22-28l1.91-1.92,2.66,2.67,4.89-4.89Z"/></clipPath><clipPath id="clip-path-22"><path class="cls-2" d="M174.92-24.26l1.07-.51a.15.15,0,0,1,.15,0,1.94,1.94,0,0,1,.5.75s0,0,0,0c.2-.39,1.44-2.41,2.93-2.7A12,12,0,0,0,178.1-25a15.72,15.72,0,0,0-1,1.87.24.24,0,0,1-.2.15h-1.29a.11.11,0,0,1-.1-.1,1.51,1.51,0,0,0-.64-1.19s0,0,0,0"/></clipPath><clipPath id="clip-path-23"><path class="cls-2" d="M156.49-19.21l-.34.75a.14.14,0,0,0,.11.21h4.28a.47.47,0,0,0,.43-.29l.71-1.38a.12.12,0,0,0-.09-.18h-2.06a.13.13,0,0,1-.11-.18l.43-1a.31.31,0,0,1,.3-.21h.23a.12.12,0,0,1,.09.18l-.25.5a.14.14,0,0,0,.11.2h1.44a.49.49,0,0,0,.41-.26l.5-.91a.15.15,0,0,0-.11-.23h-4.34a.43.43,0,0,0-.39.26L156.92-20a.13.13,0,0,0,.1.21h2.44a.11.11,0,0,1,.09.18l-.43.86a.1.1,0,0,1-.07,0h-.62a.08.08,0,0,1-.07-.13l.26-.47c0-.07,0-.15-.1-.15h-1.71c-.14,0-.25.08-.32.21"/></clipPath><clipPath id="clip-path-24"><path class="cls-2" d="M163.53-21.31l-.59,1c-.05.09,0,.18.12.18h1.73a.48.48,0,0,0,.4-.23l.31-.52a.43.43,0,0,1,.35-.21h.05c.1,0,.14.09.12.19l-.4.8a.52.52,0,0,1-.45.25h-2.52l-.87,1.44a.14.14,0,0,0,.12.2h4.28a.5.5,0,0,0,.43-.25l1.59-2.83a.14.14,0,0,0-.12-.21h-4.17a.57.57,0,0,0-.38.23m1.14,2.65h-.14a.14.14,0,0,1-.12-.21l.21-.43a.38.38,0,0,1,.31-.18.2.2,0,0,1,.19.29l-.19.35a.28.28,0,0,1-.26.18m5.69-5.05-.08.14-2.91,5.12a.14.14,0,0,0,.12.2h1.66a.39.39,0,0,0,.33-.18L171.07-21a.47.47,0,0,1,.4-.23.17.17,0,0,1,.16.25l-1.42,2.54a.15.15,0,0,0,.15.2h1.54a.58.58,0,0,0,.47-.27l1.25-2.31.29-.55s.14-.27,0-.27h-2.2a.09.09,0,0,1-.07-.12l.23-.43a.54.54,0,0,0,0-.55,5,5,0,0,0-.83-1.09c-.14,0-.47-.12-.61.13"/></clipPath><clipPath id="clip-path-25"><path class="cls-2" d="M174.77-21.91l-1.72,3.37a.19.19,0,0,0,.13.29H175a.13.13,0,0,0,.14-.1l1.61-3.38a.17.17,0,0,0-.14-.26h-1.68c-.09,0-.13,0-.16.08"/></clipPath><clipPath id="clip-path-26"><rect class="cls-1" x="174.97" y="-26.69" width="4.6" height="3.69"/></clipPath><clipPath id="clip-path-27"><path class="cls-2" d="M174.92-24.26l1.07-.51a.16.16,0,0,1,.15,0,1.94,1.94,0,0,1,.5.75s0,0,0,0c.2-.39,1.44-2.41,2.93-2.7A12,12,0,0,0,178.1-25a15.72,15.72,0,0,0-1,1.87.24.24,0,0,1-.2.15h-1.29a.11.11,0,0,1-.1-.1,1.48,1.48,0,0,0-.64-1.19s0,0,0,0"/></clipPath><clipPath id="clip-path-28"><path class="cls-2" d="M7.61,22.63a1.88,1.88,0,0,1-.94-.24,2,2,0,0,1-1-1.76v-8a2,2,0,1,1,3.94,0V16.9l6.31-4.26L6.51,6.3A2,2,0,0,1,6,3.52,2,2,0,0,1,8.69,3l11.85,8a2,2,0,0,1,0,3.33L8.7,22.3a2,2,0,0,1-1.09.33"/></clipPath><clipPath id="clip-path-29"><rect class="cls-1" x="-394.37" y="-1445.79" width="1437.89" height="2411.58"/></clipPath><clipPath id="clip-path-30"><rect class="cls-1" x="64.91" y="2.6" width="20.49" height="20"/></clipPath><clipPath id="clip-path-31"><path class="cls-2" d="M76.87,21l-.32,0h-.24l.2-.44c.09.11.22.25.36.39"/></clipPath><clipPath id="clip-path-32"><path class="cls-2" d="M76.74,12.75a5.14,5.14,0,0,1-.54.37l-.62.37a7.19,7.19,0,0,0-.75.15l0,0a.1.1,0,0,0-.06.08l-.64,2.06-3.4.74-1.07-.74-.31-2.48c.61-.11,1.42-.24,2.4-.34a3.57,3.57,0,0,0-.3.38l-.58.83.84-.56a12.26,12.26,0,0,1,1.44-.78c1-.07,1.92-.11,2.88-.11Zm-5.29,2.8a2,2,0,0,1,.94-.11h.27c.44,0,.81,0,.8-.64s-.31-1.23-.75-1.22-.87.56-.84,1.24a1,1,0,0,0,.07.39.67.67,0,0,0-.49.35Zm11.18-2.24-.31,2.11-1.07.75-3.4-.38-.63-2a.17.17,0,0,0-.1-.1,6.49,6.49,0,0,0-.89-.16h.08A12.65,12.65,0,0,0,79,12.85C80.5,13,81.77,13.16,82.63,13.31Zm-2.17,2S80.36,15,80,15A1.05,1.05,0,0,0,80,14.6c-.05-.68-.46-1.22-.9-1.2s-.72.58-.69,1.26.39.67.83.66C79.84,15.3,80.17,15.13,80.46,15.27Z"/></clipPath><clipPath id="clip-path-33"><path class="cls-2" d="M79.3,14.21c0,.22-.1.4-.22.4s-.23-.16-.23-.38h0c0-.22.1-.4.22-.4h0c.13,0,.23.16.23.38h0M73,14.5c0,.22-.1.4-.22.4s-.23-.16-.23-.38h0c0-.21.09-.39.22-.4h0c.12,0,.23.17.23.38"/></clipPath><clipPath id="clip-path-34"><path class="cls-2" d="M84.11,14.24a4.12,4.12,0,0,0-.4-.23l-.28,2a.15.15,0,0,1-.06.09l-.41.28,0,.13a1.2,1.2,0,0,0,1-.39,8.3,8.3,0,0,0,.22-1.18c0-.51,0-.62,0-.66M77.83,21.7a1.82,1.82,0,0,1-.72-.45s0,0,0-.05a4.61,4.61,0,0,1-.5.07h-.37a1.94,1.94,0,0,1-1,.68,6.25,6.25,0,0,0,2.65-.26m-8.7-4.81,0-.09-.53-.36a.17.17,0,0,1-.06-.1l-.26-2.06a3.28,3.28,0,0,0-.46.27c-.06,0-.1.15,0,.64a7.51,7.51,0,0,0,.31,1.36,1.42,1.42,0,0,0,1.07.34M77,16.8a.17.17,0,0,1-.12-.1l-.65-2.12-.29,0-.28,0-.64,2.06a.12.12,0,0,1-.1.09l-.31.07c0,.11-.11.26-.39.34a33.51,33.51,0,0,1-3.66.94,3.29,3.29,0,0,1-.82-.39,4.59,4.59,0,0,1-.18-.45h0a8.94,8.94,0,0,0,1.17,2.21l1.75-.53c.46-.7,1.11-1.39,1.58-1.42h.24a4.45,4.45,0,0,1,.65,0,.75.75,0,0,1-.23-.41,2,2,0,0,0,1.35.36A2.42,2.42,0,0,0,77.32,17l0-.13-.31,0"/></clipPath><clipPath id="clip-path-35"><path class="cls-2" d="M77.65,17.07a.67.67,0,0,1-.32-.17V17a.75.75,0,0,1-.33.56,4.4,4.4,0,0,1,1.08-.25.56.56,0,0,1,.38.15l0,0,1.24,1,1.23.13c.22,0,.43,0,.63,0h.19a9.37,9.37,0,0,0,.57-1.31,4,4,0,0,1-1,.56,34.35,34.35,0,0,1-3.69-.77"/></clipPath><clipPath id="clip-path-36"><path class="cls-2" d="M85,9.66c0-.06,0-.13,0-.2a.78.78,0,0,1,0-.14,4.07,4.07,0,0,0-.61-.41,7.29,7.29,0,0,0-.74-.37c-.25-.12-.5-.22-.76-.33l-.39-.14L82,7.92c.27,0,.55.11.82.18a5.08,5.08,0,0,1,.52.15,7.89,7.89,0,0,0-14.89,0A5.26,5.26,0,0,1,69,8.1c.27-.07.54-.13.82-.18l-.39.15-.39.14c-.26.11-.52.21-.77.33a6.24,6.24,0,0,0-.73.37,3.25,3.25,0,0,0-.61.41.59.59,0,0,0,0,.14,1.5,1.5,0,0,0,0,.2,2.88,2.88,0,0,0,0,.41,5.56,5.56,0,0,0,0,.82,7.08,7.08,0,0,0,.16.8c0,.13.08.26.13.39a1.42,1.42,0,0,0,.08.18l0,.09,0,0,.06,0,.12.06.25.11h0l-.23-.86s.48-.13,1.23-.27l-.18,0-.5-.16-.24-.12a1,1,0,0,1-.21-.15,13.19,13.19,0,0,0,4,0A37.74,37.74,0,0,1,80,11a13.18,13.18,0,0,0,4,0,.8.8,0,0,1-.21.15,1.34,1.34,0,0,1-.24.12l-.5.16h-.07c.82.15,1.3.27,1.35.29l-.22.81.13,0,.12-.06.07,0v0l0-.09.07-.18a3,3,0,0,0,.13-.39,5.42,5.42,0,0,0,.17-.8,7.37,7.37,0,0,0,0-.82c0-.13,0-.27,0-.41"/></clipPath><clipPath id="clip-path-37"><path class="cls-2" d="M79.34,8.08a5.47,5.47,0,0,1-.16,1.64.08.08,0,0,0,0,.07l-.66-.06a3.6,3.6,0,0,0,.31-1.24,4.78,4.78,0,0,0,.51-.41m-6.29.41a3.38,3.38,0,0,0,.31,1.24l-.66.06a.08.08,0,0,0,0-.07,5.89,5.89,0,0,1-.17-1.64,6.31,6.31,0,0,0,.52.41m9,1.81v0l.08,0c.2.07.4.13.6.22a2.24,2.24,0,0,1-.65-1.26,6.52,6.52,0,0,1,0,1M72.26,8l-2.1.59a6.62,6.62,0,0,0-.07,1.63h0A6,6,0,0,1,70.31,9c.07-.17.51-.28.85-.36s.87-.24,1,.23a3.32,3.32,0,0,0,.24.7A5.91,5.91,0,0,1,72.26,8m7.36,0a6.65,6.65,0,0,1-.13,1.64,3.2,3.2,0,0,0,.27-.77c.11-.47.64-.31,1-.23s.78.19.85.36a5.54,5.54,0,0,1,.2,1.16,7.19,7.19,0,0,0-.07-1.57L79.62,8M73,8.14l.23.17a.11.11,0,0,1,.06.11,3.33,3.33,0,0,0,.32,1.26,0,0,0,0,1,0,0c.76-.05,1.53-.07,2.29-.07s1.52,0,2.28.07a0,0,0,0,0,0,0,3.23,3.23,0,0,0,.33-1.26.11.11,0,0,1,.06-.11l.22-.17v0a10.71,10.71,0,0,0-.32-3.62C78.52,5,78.4,9,77.38,9H74.55c-1.09,0-1.18-4.59-1.18-4.59l-.05.16A10.39,10.39,0,0,0,73,8.14m-3.2,2.18v0a4.74,4.74,0,0,1,0-1,2.26,2.26,0,0,1-.64,1.26,5.31,5.31,0,0,1,.6-.22l.07,0"/></clipPath><clipPath id="clip-path-38"><path class="cls-2" d="M82.93,16.47a1.31,1.31,0,0,1-.06.27,2.85,2.85,0,0,0,.8.06,2.28,2.28,0,0,0,.27-.72,1.2,1.2,0,0,1-1,.39m-8.36,5.62a5.13,5.13,0,0,0,1.69.18,7,7,0,0,0,2.07-.47,1.71,1.71,0,0,1-.5-.1,6.23,6.23,0,0,1-2.65.26,2.84,2.84,0,0,1-.49.11l-.12,0M69.16,17l0-.12a1.42,1.42,0,0,1-1.07-.34,1.62,1.62,0,0,0,.24.55,2.32,2.32,0,0,0,.86-.09m.61.68a3.29,3.29,0,0,0,.82.39,33.51,33.51,0,0,0,3.66-.94c.28-.08.37-.23.39-.34l-4.14.91h0l-.08,0-.16-.11-.48-.34h0l-.2-.13v0l0,.09h0a4.3,4.3,0,0,0,.18.46m12.71-.78c0-.1.06-.19.08-.29l-.14.1L82,17l-.42.29a.11.11,0,0,1-.07,0h0l-4.17-.47v.07a.67.67,0,0,0,.32.17,34.35,34.35,0,0,0,3.69.77,4,4,0,0,0,1-.56v0a3.58,3.58,0,0,0,.11-.35"/></clipPath><clipPath id="clip-path-39"><path class="cls-2" d="M78.07,11.38l-.11.13a8.4,8.4,0,0,1-.8.87l-1.17,0c-.66,0-1.29,0-1.9.05a15.09,15.09,0,0,1,3-.89c.32-.06.66-.11,1-.14m-5,.37a8.88,8.88,0,0,0-1,.8c-.73.08-1.47.17-2.2.29a16.69,16.69,0,0,1,3.18-1.09M83.5,13.48l-.35,2.39L81.49,17l-4.33-.48-.65-2.11a.14.14,0,0,0-.12-.1,2.22,2.22,0,0,0-.84,0,.14.14,0,0,0-.11.1l-.64,2.06-4.3.94-1.71-1.18-.34-2.67.22-.13.36-.07.32,2.53a.11.11,0,0,0,.06.1l1.17.81.08,0h0l3.55-.78h0a.18.18,0,0,0,.07-.08L75,13.89a3.61,3.61,0,0,1,2,0L77.6,16a.17.17,0,0,0,.12.1l3.55.39a.1.1,0,0,0,.09,0l1.18-.81a.17.17,0,0,0,.06-.1l.31-2.16.59.12M83.94,12l-.31,1.13a35.16,35.16,0,0,0-3.86-.58,9.25,9.25,0,0,0,1.8-1c1.11.15,1.92.32,2.37.42M68.05,12l.09.31c.2-.16.42-.32.63-.46-.29.05-.54.1-.72.15"/></clipPath><clipPath id="clip-path-40"><path class="cls-2" d="M80,11.35l-1.4-.07-.16.23A8.63,8.63,0,0,1,77.07,13a10.93,10.93,0,0,0,3.32-1.6l-.38,0m-3.42-.12H74.84l-.64.3h0a7.23,7.23,0,0,0-1.74,1.21l.22-.11a11.14,11.14,0,0,1,3.39-1.42h.53m-3.94.08-.9,0-1,.07-.51,0-.15,0a14.33,14.33,0,0,0-3.34,2.71l.06-.07a13.54,13.54,0,0,1,5.87-2.81m9.87,7.53,0,0a2,2,0,0,1-.88.17c-.22,0-.43,0-.67,0-.48,0-1.29-.14-1.3-.14h-.06l0,0-1.29-1-.07-.05c-.06-.05-.06-.05-.09-.05a12.39,12.39,0,0,0-1.89.52l-.08,0-.07,0a5.13,5.13,0,0,0-1.7-.29h-.22c-.09,0-.61.24-1.27,1.28l0,.06-.07,0s-1.15.36-2.36.7l-.08,0-.08,0-.92-.42.09,0c.45.38,1.3,1.11,1.39,1.21l.06.05-.07-.08h0a2.7,2.7,0,0,0,.66.46,2.29,2.29,0,0,0,.37.12h.39l.8-.06c.27,0,.54,0,.8-.09s.54-.06.8-.1l.39-.07.18-.05a.65.65,0,0,0,.15-.1,3.83,3.83,0,0,0,.29-.28,3.7,3.7,0,0,0,.28-.28c.16-.16.29-.33.45-.5l.06-.06h0l.09.07c.18.13.37.28.55.4s.48.32.72.46l.19.08h.18a3,3,0,0,0,.42-.06l.84-.14.84-.17.84-.19a2.55,2.55,0,0,0,.39-.13,1.63,1.63,0,0,0,.35-.23,2.47,2.47,0,0,0,.55-.65h0a2.68,2.68,0,0,0,.19-.42m-5.23-13h.49v-1H74.17v1h.5v-.5h1V8.41h-.42V9h1.42V8.41h-.42v-3h1v.5"/></clipPath><clipPath id="clip-path-41"><path class="cls-2" d="M81,11.42h0l-.62-.05h0A10.93,10.93,0,0,1,77.07,13l0,0a11.43,11.43,0,0,0,2.47-.73,8.77,8.77,0,0,0,1.4-.77l.1-.07m-5-.2a11.14,11.14,0,0,0-3.39,1.42c.4-.2.81-.39,1.23-.56l.15-.06,0,0,.13-.05.07,0,.12,0,.08,0,.11,0,.1,0,.1,0,.12,0,.09,0,.14-.05.07,0,.22-.07.49-.14.66-.16h-.53m-3.41.09a13.54,13.54,0,0,0-5.87,2.81l-.06.07a19.15,19.15,0,0,1,5.38-2.57l.23-.07c.39-.11.8-.2,1.2-.28l-.88,0m10.29,7.33-.06,0,0,0h0l0,0h0l0,0h0l-.06,0h0l-.11.05a2.68,2.68,0,0,1-.19.42h0a2.47,2.47,0,0,1-.55.65,1.63,1.63,0,0,1-.35.23,2.55,2.55,0,0,1-.39.13l-.84.19-.84.17-.84.14a3,3,0,0,1-.42.06h-.18l-.19-.08c-.25-.14-.48-.3-.72-.46l-.55-.4,0,0h0l0,0h0l0,0,.15.18,0,0c.07.09.4.46.79.84a1.45,1.45,0,0,0,1.06.43,1.63,1.63,0,0,0,.43-.05l.44-.1,1.29-.31.06,0,.13,0,.2-.05A1.63,1.63,0,0,0,82.27,20l.27-.52.44-.84h0l0-.05-.07,0m-6.61,1.24,0,0c-.16.16-.29.34-.45.5s-.18.19-.28.28a3.83,3.83,0,0,1-.29.28.65.65,0,0,1-.15.1l-.18.05-.39.07c-.26,0-.53.08-.8.1s-.53.06-.8.09l-.8.06H72a.58.58,0,0,1-.19,0,1.58,1.58,0,0,1-.37-.11,2.7,2.7,0,0,1-.66-.46h0l.09.1,0,0-.06-.05c-.09-.1-.94-.83-1.39-1.21l-.1,0,.26.36.4.56.18.23a2.66,2.66,0,0,0,2.26,1.18l.46,0H73c1-.12,1.29-.17,1.44-.19l.12,0h0a2.3,2.3,0,0,0,.68-.2,1.15,1.15,0,0,0,.57-.52c.28-.62.34-.77.34-.78l.1-.26"/></clipPath><clipPath id="clip-path-42"><path class="cls-2" d="M79.08,14.27a.22.22,0,0,0,.22-.22.22.22,0,0,0-.23-.22h0a.22.22,0,0,0-.22.22h0A.22.22,0,0,0,79.08,14.27Zm1.38,1c-.3-.14-.62,0-1.21.05-.44,0-.81,0-.83-.66s.25-1.25.69-1.26.84.52.9,1.2A1.05,1.05,0,0,1,80,15C80.36,15,80.46,15.25,80.46,15.27Zm-7.68-.83a.24.24,0,0,0,.22-.23.23.23,0,1,0-.22.23Zm.68.35c0,.68-.36.64-.8.64h-.27a2,2,0,0,0-.94.11.67.67,0,0,1,.49-.35,1,1,0,0,1-.07-.39c0-.68.4-1.24.84-1.24S73.45,14.11,73.46,14.79Zm8.33-4.67s0,.08,0,.12l-.53-.13a17.42,17.42,0,0,0-1.76-.28h-.06v0l0-.2A6.65,6.65,0,0,0,79.62,8l2.1.59A7.19,7.19,0,0,1,81.79,10.12Zm-2.61-.4a.08.08,0,0,0,0,.07l-.66-.06a3.6,3.6,0,0,0,.31-1.24,4.78,4.78,0,0,0,.51-.41A5.47,5.47,0,0,1,79.18,9.72Zm-6.48.07a.08.08,0,0,0,0-.07,5.89,5.89,0,0,1-.17-1.64,6.31,6.31,0,0,0,.52.41,3.38,3.38,0,0,0,.31,1.24Zm-.32,0c-.29,0-.59.07-.88.12l-.88.16-.52.13v-.06a6.62,6.62,0,0,1,.07-1.63L72.26,8a5.91,5.91,0,0,0,.11,1.57l.06.26v0Zm10.54.83-.06,0a.2.2,0,0,0-.08,0l-.06,0c-.2-.09-.4-.15-.6-.22l-.08,0v0a6.52,6.52,0,0,0,0-1A8,8,0,0,0,82,8.42a.16.16,0,0,0-.1-.11l-.3-.08a5.47,5.47,0,0,0-1-3.39,6.26,6.26,0,0,1,.83,3.33L79.5,7.65h-.13l-.13.12c0-.17,0-.43,0-.75V7A6.89,6.89,0,0,0,78.39,4s.06.18.14.46a10.71,10.71,0,0,1,.32,3.62v0h0l-.22.17a.11.11,0,0,0-.06.11,3.23,3.23,0,0,1-.33,1.26,0,0,0,0,1,0,0c-.76-.05-1.52-.07-2.28-.07s-1.53,0-2.29.07a0,0,0,0,0,0,0,3.33,3.33,0,0,1-.32-1.26.11.11,0,0,0-.06-.11L73,8.14a10.39,10.39,0,0,1,.29-3.53c.08-.34.16-.55.16-.57a7.47,7.47,0,0,0-.84,3.76l-.13-.12h-.14l-1.85.52a6.12,6.12,0,0,1,.82-3.33,5.51,5.51,0,0,0-1,3.39l-.3.08a.16.16,0,0,0-.1.11,8.46,8.46,0,0,0-.1.88,4.74,4.74,0,0,0,0,1v0l-.07,0a5.31,5.31,0,0,0-.6.22l-.06,0h0l-.09,0-.05,0h0a2.9,2.9,0,0,1,.42-.12,3,3,0,0,1,.43-.09c.29-.06.58-.1.87-.14s.58-.07.87-.09l.88-.07c1.18-.07,2.35-.09,3.53-.09s2.35,0,3.52.09l.88.07.88.09c.29,0,.58.08.87.14l.43.09a2.25,2.25,0,0,1,.42.13Z"/></clipPath><clipPath id="clip-path-43"><path class="cls-2" d="M76.27,5.36V8.41h.42V9H75.27V8.41h.42v-3h-1v.5h-.5v-1h3.61v1h-.49v-.5Zm1.88.87V4.51H73.8V6.23H75v-.5h.27V8H74.9v1.3h2.16V8h-.42V5.73h.28v.5Z"/></clipPath><clipPath id="clip-path-44"><rect class="cls-1" x="97.13" y="2.5" width="19.26" height="20"/></clipPath></defs><title>gocd</title><rect class="cls-1" x="-427.69" y="-1155.01" width="1366" height="2644"/><rect class="cls-1" x="-719.3" y="-1284.59" width="1366" height="3311"/><path class="cls-3" d="M107.61-144.74l-2.92,2.93a.25.25,0,0,1-.36,0l-.65-.66a.24.24,0,0,1,0-.35l2.09-2.1L103.68-147a.25.25,0,0,1,0-.36l.65-.65a.25.25,0,0,1,.36,0l2.92,2.93A.24.24,0,0,1,107.61-144.74Z"/><g class="cls-16"><rect class="cls-3" x="-452.46" y="-493.94" width="742.75" height="1800.34"/></g><rect class="cls-3" x="108.6" y="-143.5" width="5.55" height="1.51" rx="0.38"/><g class="cls-17"><rect class="cls-3" x="-451.46" y="-493.94" width="742.75" height="1800.34"/></g><rect class="cls-1" x="-477.71" y="-1210.87" width="1366" height="3024"/><rect class="cls-1" x="-360.51" y="-1011.42" width="1366" height="2291"/><g class="cls-31"><g class="cls-32"><rect x="0.36" y="-2.63" width="26.32" height="30.53"/></g></g><rect class="cls-1" x="-374.58" y="-1388.77" width="1366" height="2291"/><rect class="cls-1" x="-576.03" y="-1131" width="1366" height="2291"/><rect class="cls-1" x="-576.03" y="-1131" width="1366" height="2291"/><rect class="cls-1" x="-576.03" y="-1131" width="1366" height="2291"/><rect class="cls-1" x="-216.08" y="-1669.99" width="1366" height="2291"/><rect class="cls-1" x="-513.13" y="-1132" width="1366" height="2291"/></svg>