<svg id="Layer_1" data-name="Layer 1" xmlns="http://www.w3.org/2000/svg" viewBox="0 0 100 40"><title>gpl_icon</title><g id="Page-1"><g id="Artboard"><g id="GPL-icon"><path id="path74" d="M9.21,0,0,40H64.77c-2.64-.23-4.72-1.15-6-2.83a6.16,6.16,0,0,1-.59-1c-.11-.26-.21-.52-.31-.78a8,8,0,0,1-.32-2.76c.13-2.76,1.44-6,3.69-9.48a51.12,51.12,0,0,1,10.17-11c1-.79,2-1.58,3-2.34,1.29-1,2.59-1.82,3.89-2.63A49.34,49.34,0,0,1,92.15,1,53.43,53.43,0,0,0,79.06,7.52l-.48.33a59,59,0,0,0-6.72,5.38C65.53,19.16,62.18,25.3,63.7,28.9a4.43,4.43,0,0,0,.39.71c1.63,2.39,5.69,2.81,10.83,1.52.35-.08.7-.18,1.06-.28A43,43,0,0,0,81.16,29c.43-.19.86-.38,1.3-.59l.14-.07c5.66-2.8,10-6,11-7.95a1.21,1.21,0,0,0,.12-1.07c-.68-1.35-5.38-.44-11.08,2-.46.2-.92.4-1.39.62.38-.35.77-.71,1.18-1.06.65-.55,1.31-1.09,2-1.63,1.11-.83,2.24-1.59,3.35-2.27C93,13.06,95.59,9.37,95,8a.93.93,0,0,0-.66-.54c-1.08-.35-3.06.06-5.46,1A41,41,0,0,0,82.36,12l-.32.2-.06,0-1.1.73.63-1.16a20,20,0,0,1,4.4-5.18,31.82,31.82,0,0,1,4.75-3.38c.65-.38,1.3-.73,2-1s1.34-.62,2-.87A18.69,18.69,0,0,1,99.91,0H9.21ZM56.72.06C56.46,4,57.23,9.77,59,16.17c.31,1.14.65,2.3,1,3.47.23.73.47,1.44.71,2.14l-.42.63a22,22,0,0,0-3.76,9.17,55.83,55.83,0,0,1-2-10c-.11-1-.2-2-.25-3C53.83,11.36,54.78,4.81,56.72.06ZM13.34,5.18h9.94a3.45,3.45,0,0,1,1.94.47,1.1,1.1,0,0,1,.52,1.22l-1.16,5.24H21.12L22.26,7H13.62L10.5,21,9.38,26.11H18v0l1.73-7.77h-4l.39-1.75h7.5l-2.15,9.69a1.32,1.32,0,0,1-.15.39,2.08,2.08,0,0,1-.92.82,4.46,4.46,0,0,1-2.15.47H8.43a3.37,3.37,0,0,1-1.94-.47A1.06,1.06,0,0,1,6,26.25L10.28,6.87a1.89,1.89,0,0,1,1.06-1.22l.06,0A4.62,4.62,0,0,1,13.34,5.18Zm15.34,0H41a3.45,3.45,0,0,1,1.94.47,1.11,1.11,0,0,1,.53,1.22l-2.3,10.34a1.89,1.89,0,0,1-1.07,1.21A4.66,4.66,0,0,1,38,18.9H29l-1.73,7.76L27,27.93H23.62l.25-1.15Zm17,0h3.38L45.25,22.36l-.83,3.75h8.07c.09.62.19,1.22.29,1.82H40.64l1-4.31ZM31.65,7,29.41,17.07h8.41L40.06,7Zm-7.07,22.5h.09a2.33,2.33,0,0,1,1,.2,1.16,1.16,0,0,1,.62.61,1.44,1.44,0,0,1,.09.88l0,.12h-1v-.11a.72.72,0,0,0-.09-.53l0-.05a.24.24,0,0,0-.08-.06,1.16,1.16,0,0,0-.62-.14,1.48,1.48,0,0,0-.82.19.73.73,0,0,0-.33.43.33.33,0,0,0,.06.31h0a2.09,2.09,0,0,0,.82.29,5.89,5.89,0,0,1,1.07.34,1.28,1.28,0,0,1,.61.58,1.32,1.32,0,0,1,.07.82,1.9,1.9,0,0,1-.44.81,2.15,2.15,0,0,1-.84.6,3,3,0,0,1-1.07.21,2.73,2.73,0,0,1-1.16-.21,1.33,1.33,0,0,1-.67-.69,1.57,1.57,0,0,1-.08-1l0-.12h.95v.12a1,1,0,0,0,.06.52.68.68,0,0,0,.33.32,1.65,1.65,0,0,0,.66.13,1.77,1.77,0,0,0,.63-.11,1,1,0,0,0,.44-.26.7.7,0,0,0,.19-.36.37.37,0,0,0,0-.28.61.61,0,0,0-.31-.23l-.81-.24a3.8,3.8,0,0,1-.93-.32,1.16,1.16,0,0,1-.51-.55,1.13,1.13,0,0,1,0-.71,1.85,1.85,0,0,1,.4-.79,2.16,2.16,0,0,1,.82-.55A3,3,0,0,1,24.58,29.51Zm8.68,0a.85.85,0,0,1,.16,0l.6.06.2,0-.29.73-.06.12-.46,0a.61.61,0,0,0-.3.06v0s0,0,0,0a.84.84,0,0,0-.13.32s0,.07,0,.13h.71l-.18.81h-.7c-.05.24-.7,3.14-.7,3.14h-1l.7-3.14h-.55l.18-.81H32c0-.12.06-.26.06-.26a2,2,0,0,1,.2-.58,1.24,1.24,0,0,1,.46-.45A1.46,1.46,0,0,1,33.26,29.53Zm2.3,0L35.24,31h.62l-.18.81h-.62l-.45,2s0,.21,0,.27h.11l.45,0,0,.73v.13l-.65.08a1.17,1.17,0,0,1-.59-.13.63.63,0,0,1-.27-.38s0-.07,0-.14a3.18,3.18,0,0,1,.1-.66s.35-1.55.42-1.88h-.46l.19-.81h.45c0-.19.19-.84.19-.84l.77-.41Zm-30.5,0H8.79l-.21.92H5.86l-.27,1.22H7.94l-.2.92H5.38l-.51,2.27h-1Zm5,1.3h.12a1.13,1.13,0,0,1,.67.23l.13.09-.51.84-.14-.1a.58.58,0,0,0-.33-.1.46.46,0,0,0-.29.1.66.66,0,0,0-.25.27,2.81,2.81,0,0,0-.25.67l-.45,2h-1L8.68,31h.89l0,.16.13-.1A1.14,1.14,0,0,1,10.05,30.9Zm2.85,0h.17a1.42,1.42,0,0,1,1.22.56,1.51,1.51,0,0,1,.26.89,3,3,0,0,1-.08.64l-.07.28H11.7a1,1,0,0,0,0,.17.78.78,0,0,0,.13.48l.15.15a.76.76,0,0,0,.41.11,1,1,0,0,0,.53-.16,1.42,1.42,0,0,0,.43-.47h1l-.09.2a2.19,2.19,0,0,1-2,1.26A1.5,1.5,0,0,1,11,34.45a1.8,1.8,0,0,1-.18-1.5,2.74,2.74,0,0,1,.84-1.51A2.22,2.22,0,0,1,12.9,30.9Zm4.31,0h.17a1.41,1.41,0,0,1,1.22.56,1.51,1.51,0,0,1,.26.89,3,3,0,0,1-.08.63l-.07.29H16a.41.41,0,0,1,0,.11v0h0s0,.08,0,.11a.61.61,0,0,0,.13.37l0,.06a.66.66,0,0,0,.51.2,1,1,0,0,0,.53-.16,1.42,1.42,0,0,0,.43-.47h1l-.1.2a2.14,2.14,0,0,1-.81.92,2.19,2.19,0,0,1-1.2.34A1.37,1.37,0,0,1,15,33.55v-.17c0-.14,0-.27.07-.43a2.68,2.68,0,0,1,.84-1.51A2.19,2.19,0,0,1,17.21,30.9ZM29,30.9h.18a1.5,1.5,0,0,1,1.25.55,1.78,1.78,0,0,1,.19,1.49,2.88,2.88,0,0,1-.48,1.16,2.3,2.3,0,0,1-1.81.91A1.45,1.45,0,0,1,27,34.45a1.5,1.5,0,0,1-.26-.9,3,3,0,0,1,.07-.63,2.62,2.62,0,0,1,1-1.59A2.25,2.25,0,0,1,29,30.9Zm14.54,0h.21a2.15,2.15,0,0,1,.79.12.9.9,0,0,1,.45.34,1,1,0,0,1,.12.51l-.1.6-.18.81c-.15.7-.19,1-.2,1a1.53,1.53,0,0,0,0,.38l.07.22h-1l0-.13a1.15,1.15,0,0,1,0-.19,3.39,3.39,0,0,1-.54.27,2.48,2.48,0,0,1-.76.13,1.27,1.27,0,0,1-1-.35.86.86,0,0,1-.22-.6,1.33,1.33,0,0,1,0-.28,1.51,1.51,0,0,1,.26-.56,1.67,1.67,0,0,1,.45-.39,1.91,1.91,0,0,1,.53-.22l.59-.09a8,8,0,0,0,1-.19.22.22,0,0,1,0-.06.46.46,0,0,0,0-.36v0l0,0a.8.8,0,0,0-.49-.12,1,1,0,0,0-.58.13,1.11,1.11,0,0,0-.36.44h-1l.09-.2a2.05,2.05,0,0,1,.44-.67,1.85,1.85,0,0,1,.7-.41A2.91,2.91,0,0,1,43.49,30.9Zm4.2,0h.11a1.16,1.16,0,0,1,.68.23l.12.09-.51.84L48,32a.55.55,0,0,0-.32-.1.51.51,0,0,0-.3.1.71.71,0,0,0-.24.27,2.81,2.81,0,0,0-.25.67l-.45,2h-1L46.31,31h.9l0,.16.13-.1A1.07,1.07,0,0,1,47.69,30.9Zm2.83,0h.18a1.39,1.39,0,0,1,1.21.56,1.51,1.51,0,0,1,.26.89,3,3,0,0,1-.08.64l-.07.28h-2.7c0,.06,0,.12,0,.17a.78.78,0,0,0,.13.48l.05.06,0,0a.69.69,0,0,0,.48.17,1,1,0,0,0,.53-.16,1.32,1.32,0,0,0,.43-.47h1l-.1.2a2.28,2.28,0,0,1-.81.92,2.21,2.21,0,0,1-1.2.34,1.49,1.49,0,0,1-1.29-.56,1.83,1.83,0,0,1-.19-1.5,2.74,2.74,0,0,1,.84-1.51A2.22,2.22,0,0,1,50.52,30.9ZM36,31h1s.12,2.34.12,2.38.08-.16.08-.17L38.3,31h.9s.09,2.31.09,2.33S40.52,31,40.52,31h1l-2.15,3.95h-.89s-.09-2.14-.09-2.27l-1.11,2.27h-.91Zm-23.12.75a1.07,1.07,0,0,0-.63.24,1.14,1.14,0,0,0-.34.47h1.63s0-.06,0-.09a.61.61,0,0,0-.08-.34.57.57,0,0,0-.54-.28Zm4.31,0a1.07,1.07,0,0,0-.63.24,1.24,1.24,0,0,0-.34.47h1.63s0-.06,0-.09a.61.61,0,0,0-.08-.34.44.44,0,0,0-.08-.11.62.62,0,0,0-.46-.17Zm33.34,0a1,1,0,0,0-.65.24,1.35,1.35,0,0,0-.34.47H51.2a.28.28,0,0,0,0-.09.62.62,0,0,0-.07-.34.59.59,0,0,0-.55-.28Zm-21.68,0a1.17,1.17,0,0,0-.61.3,1.79,1.79,0,0,0-.49,1,2.15,2.15,0,0,0-.05.47.83.83,0,0,0,.1.45l.07.08a.66.66,0,0,0,.49.19,1,1,0,0,0,.73-.31,1.77,1.77,0,0,0,.48-1,1.22,1.22,0,0,0,0-.89.62.62,0,0,0-.55-.27Zm15,1.44a7.73,7.73,0,0,1-.81.16,3.08,3.08,0,0,0-.53.11.63.63,0,0,0-.23.16.53.53,0,0,0-.11.21.38.38,0,0,0,0,.1h0v0a.06.06,0,0,0,0,0v0l0,0,0,0a.51.51,0,0,0,.38.1,1.25,1.25,0,0,0,.6-.13,1.16,1.16,0,0,0,.44-.38A1.61,1.61,0,0,0,43.85,33.18Z"/></g></g></g></svg>