<svg id="Layer_1" data-name="Layer 1" xmlns="http://www.w3.org/2000/svg" xmlns:xlink="http://www.w3.org/1999/xlink" viewBox="0 0 25 25"><defs><style>.cls-1,.cls-2{fill:none;}.cls-2{clip-rule:evenodd;}.cls-3{fill:#fff;}.cls-4{clip-path:url(#clip-path);}.cls-5{clip-path:url(#clip-path-2);}.cls-6{clip-path:url(#clip-path-3);}.cls-7{clip-path:url(#clip-path-4);}.cls-8{clip-path:url(#clip-path-5);}.cls-9{clip-path:url(#clip-path-6);}.cls-10{clip-path:url(#clip-path-7);}.cls-11{clip-path:url(#clip-path-8);}.cls-12{clip-path:url(#clip-path-9);}.cls-13{clip-path:url(#clip-path-10);}.cls-14{clip-path:url(#clip-path-11);}.cls-15{clip-path:url(#clip-path-12);}.cls-16{clip-path:url(#clip-path-13);}.cls-17{clip-path:url(#clip-path-14);}.cls-18{clip-path:url(#clip-path-15);}.cls-19{clip-path:url(#clip-path-16);}.cls-20{clip-path:url(#clip-path-17);}.cls-21{clip-path:url(#clip-path-18);}.cls-22{clip-path:url(#clip-path-19);}.cls-23{clip-path:url(#clip-path-20);}.cls-24{clip-path:url(#clip-path-21);}.cls-25{fill:#02303a;}.cls-26{clip-path:url(#clip-path-22);}.cls-27{clip-path:url(#clip-path-23);}.cls-28{clip-path:url(#clip-path-24);}.cls-29{clip-path:url(#clip-path-25);}.cls-30{clip-path:url(#clip-path-26);}.cls-31{clip-path:url(#clip-path-27);}.cls-32{clip-path:url(#clip-path-28);}.cls-33{clip-path:url(#clip-path-29);}.cls-34{clip-path:url(#clip-path-30);}.cls-35{clip-path:url(#clip-path-31);}.cls-36{clip-path:url(#clip-path-32);}.cls-37{clip-path:url(#clip-path-33);}.cls-38{clip-path:url(#clip-path-34);}.cls-39{clip-path:url(#clip-path-35);}.cls-40{clip-path:url(#clip-path-36);}.cls-41{clip-path:url(#clip-path-37);}.cls-42{clip-path:url(#clip-path-38);}.cls-43{clip-path:url(#clip-path-39);}.cls-44{clip-path:url(#clip-path-40);}.cls-45{clip-path:url(#clip-path-41);}.cls-46{clip-path:url(#clip-path-42);}.cls-47{clip-path:url(#clip-path-43);}.cls-48{clip-path:url(#clip-path-44);}.cls-49{clip-path:url(#clip-path-45);}.cls-50{clip-path:url(#clip-path-46);}</style><clipPath id="clip-path"><rect class="cls-1" x="94.26" y="806.75" width="19.26" height="20"/></clipPath><clipPath id="clip-path-2"><path class="cls-1" d="M17.45-144.09a2.07,2.07,0,0,0-2.26,2c0,1.26.74,1.85,1.86,2.33l.38.16c.71.31,1.06.5,1.06,1s-.34.76-1,.76-1.12-.52-1.45-1.06l-1.22.81a2.82,2.82,0,0,0,2.7,1.62c1.47,0,2.56-.76,2.56-2.15s-.74-1.87-2.05-2.43l-.39-.16c-.66-.29-.95-.48-.95-.94a.67.67,0,0,1,.74-.66,1,1,0,0,1,1,.66l1.2-.77A2.28,2.28,0,0,0,17.45-144.09Zm-5,0V-139c0,.78-.29,1-.81,1a1.33,1.33,0,0,1-1.15-.77L9.18-138a2.83,2.83,0,0,0,2.52,1.62A2.12,2.12,0,0,0,14-138.76v-5.33ZM5.8-151H20.64a.27.27,0,0,1,.27.27v14.84a.27.27,0,0,1-.27.27H5.8a.27.27,0,0,1-.27-.27V-150.7A.27.27,0,0,1,5.8-151Zm0-.81a1.09,1.09,0,0,0-1.08,1.08v14.84a1.09,1.09,0,0,0,1.08,1.08H20.64a1.08,1.08,0,0,0,1.08-1.08V-150.7a1.08,1.08,0,0,0-1.08-1.08Z"/></clipPath><clipPath id="clip-path-3"><path class="cls-2" d="M43.6-143.12l-.3-.49c-.1-.16-.2-.33-.29-.51a5,5,0,0,1-.48-1.16,2,2,0,0,1,.63-1.72c.06-.08.13-.15.19-.22.39-.45.93-1,1.35-1.44a2.64,2.64,0,0,0,.73-1.71c0-.39,0-1.21-.29-1.36a2.94,2.94,0,0,1-.12,1.55,3.5,3.5,0,0,1-1.12,1.49,17.92,17.92,0,0,0-1.34,1.26,3.33,3.33,0,0,0-.73,1,1.39,1.39,0,0,0,.24,1.35c.11.19.23.35.35.52s.26.34.38.5.26.32.39.48.33.39.41.45"/></clipPath><clipPath id="clip-path-4"><path class="cls-2" d="M48.9-138.09c.17.2,0,.29-.22.37a29.23,29.23,0,0,1-5.46.43,22.85,22.85,0,0,1-3.22-.16c-.17,0-.91-.11-1-.26s.11-.16.18-.19a3.7,3.7,0,0,1,1-.24,3.69,3.69,0,0,0,.37-.05,4.73,4.73,0,0,0-2.46.53c-.22.24.15.35.39.41a22.25,22.25,0,0,0,3.87.28c1.51,0,5.16,0,6.5-.69.08,0,.23-.12.25-.2s-.15-.2-.23-.23"/></clipPath><clipPath id="clip-path-5"><path class="cls-2" d="M44.77-141.89a3.7,3.7,0,0,0,.8-.58,1.56,1.56,0,0,0,.51-.89,2,2,0,0,0-.37-1c-.48-.69-.86-1.09-.22-1.86a4.74,4.74,0,0,1,.73-.68,12.85,12.85,0,0,1,1.24-.85l.44-.27a7.66,7.66,0,0,0-1.09.35,7.35,7.35,0,0,0-1,.46c-1,.54-1.93,1.39-1.54,2.56.27.8,1,1.27,1,1.87,0,.36-.39.73-.5.91"/></clipPath><clipPath id="clip-path-6"><path class="cls-2" d="M46.67-138.69a5.59,5.59,0,0,1-.86-.38c-.17-.08-.11-.07-.32,0a16.47,16.47,0,0,1-3.23.16c-.23,0-.9,0-1-.21s0-.21.08-.28c-.6.11-1.22.54-.38.89a9.46,9.46,0,0,0,4,.25,15.39,15.39,0,0,0,1.78-.4"/></clipPath><clipPath id="clip-path-7"><path class="cls-2" d="M46.67-139.9a1.43,1.43,0,0,1-.56-.31c-.12-.1-.08-.08-.33,0-.91.15-3.63.41-4.41.09-.1,0-.21-.1-.22-.22s.11-.21.16-.29c-.62.08-1.22.67-.39,1a12.38,12.38,0,0,0,4,.2,10.53,10.53,0,0,0,1.76-.4"/></clipPath><clipPath id="clip-path-8"><path class="cls-2" d="M47.9-142.59a3.15,3.15,0,0,0-.43.05l-.44,0c-.89.11-1.88.19-2.77.23-.7,0-3.33.11-3.73-.19,0-.14.16-.23.28-.28a7.89,7.89,0,0,1,1.38-.38,7.57,7.57,0,0,0-2.72.61c-.6.31.4.43.78.48a27.2,27.2,0,0,0,6.44-.14,1.54,1.54,0,0,0,.67-.15c.17-.09.39-.19.54-.28"/></clipPath><clipPath id="clip-path-9"><path class="cls-2" d="M40.51-136.13a14.57,14.57,0,0,0,2.52.36,25.33,25.33,0,0,0,2.89,0,12.73,12.73,0,0,0,3.69-.6c.25-.11.7-.35.75-.58a.88.88,0,0,0-.21.12c-1.87,1-6.14.92-8.35.8l-1.29-.09"/></clipPath><clipPath id="clip-path-10"><path class="cls-2" d="M48.24-142.82a1.19,1.19,0,0,1,1.23.24,1.32,1.32,0,0,1,.09,1.4,4.58,4.58,0,0,1-1.42,1.57c-.08.07-.17.12-.24.18a4.72,4.72,0,0,0,1.4-.67,2.64,2.64,0,0,0,1-1.21,1.37,1.37,0,0,0-.5-1.58,1.32,1.32,0,0,0-.8-.23,1.11,1.11,0,0,0-.74.3"/></clipPath><clipPath id="clip-path-11"><path class="cls-1" d="M73.47-149.11a.67.67,0,0,1,.65.69.67.67,0,0,1-.65.68.67.67,0,0,1-.65-.68A.67.67,0,0,1,73.47-149.11Zm1.86-1.09a9.2,9.2,0,0,0-1.64.14c-1.46.27-1.72.83-1.72,1.86v1.36h3.44v.46H70.67a2.17,2.17,0,0,0-2.15,1.81,7,7,0,0,0,0,3.63c.25,1.06.83,1.81,1.83,1.81h1.19v-1.63A2.23,2.23,0,0,1,73.69-143h3.44a1.77,1.77,0,0,0,1.72-1.82v-3.4a2,2,0,0,0-1.72-1.86A10.92,10.92,0,0,0,75.33-150.2Z"/></clipPath><clipPath id="clip-path-12"><path class="cls-1" d="M77.38-137.72A.66.66,0,0,1,78-137a.67.67,0,0,1-.65.68.67.67,0,0,1-.64-.68A.66.66,0,0,1,77.38-137.72Zm1.93-8.56v1.58a2.24,2.24,0,0,1-2.14,2.25H73.73a1.78,1.78,0,0,0-1.72,1.8v3.38c0,1,.81,1.52,1.72,1.8a5.6,5.6,0,0,0,3.44,0c.86-.26,1.71-.78,1.71-1.8v-1.36H75.45v-.45H80.6c1,0,1.37-.71,1.72-1.79a6.31,6.31,0,0,0,0-3.61c-.25-1-.72-1.8-1.72-1.8Z"/></clipPath><clipPath id="clip-path-13"><path class="cls-3" d="M107.61-110l-2.92,2.93a.25.25,0,0,1-.36,0l-.65-.66a.24.24,0,0,1,0-.35l2.09-2.1-2.09-2.09a.25.25,0,0,1,0-.36l.65-.65a.25.25,0,0,1,.36,0l2.92,2.93A.24.24,0,0,1,107.61-110Z"/></clipPath><clipPath id="clip-path-14"><rect class="cls-3" x="108.6" y="-108.75" width="5.55" height="1.51" rx="0.38"/></clipPath><clipPath id="clip-path-15"><polygon class="cls-1" points="3.75 -80.5 24.14 -80.5 24.14 -73.07 13.95 -73.07 13.95 -71.76 9.27 -71.76 9.27 -73.07 3.75 -73.07 3.75 -80.5"/></clipPath><clipPath id="clip-path-16"><polygon class="cls-1" points="5.93 -73.95 7.75 -73.95 7.75 -77.66 8.85 -77.66 8.85 -73.95 9.57 -73.95 9.57 -79.05 5.93 -79.05 5.93 -73.95"/></clipPath><clipPath id="clip-path-17"><path class="cls-1" d="M13.94-75.71H12.85V-77.8h1.09ZM11-79v5.83h1.82v-1.25h1.82V-79Z"/></clipPath><clipPath id="clip-path-18"><polygon class="cls-1" points="15.4 -79.05 15.4 -73.95 17.45 -73.95 17.45 -77.66 18.68 -77.66 18.68 -73.95 19.91 -73.95 19.91 -77.66 21.14 -77.66 21.14 -73.95 21.96 -73.95 21.96 -79.05 15.4 -79.05"/></clipPath><clipPath id="clip-path-19"><path class="cls-1" d="M86.58-77.25v2.77a1.38,1.38,0,0,1-1.39,1.38H82.43A1.38,1.38,0,0,1,81-74.48v-2.77a1.38,1.38,0,0,1,1.39-1.38h2.76A1.38,1.38,0,0,1,86.58-77.25Zm-7.38,0v2.77a1.38,1.38,0,0,1-1.38,1.38H75.05a1.38,1.38,0,0,1-1.38-1.38v-2.77a1.38,1.38,0,0,1,1.38-1.38h2.77A1.38,1.38,0,0,1,79.2-77.25Zm-7.38,0v2.77a1.38,1.38,0,0,1-1.38,1.38H67.67a1.38,1.38,0,0,1-1.38-1.38v-2.77a1.38,1.38,0,0,1,1.38-1.38h2.77A1.38,1.38,0,0,1,71.82-77.25Z"/></clipPath><clipPath id="clip-path-20"><path class="cls-1" d="M115.25-72h-3.69v-5.86h3.57v1.09h-2.26v1.21H115v1.08h-2.13v1.39h2.38V-72ZM115-67.11H102.17v-3.78H115ZM101.71-72v-5.86h3.57v1.09H103v1.21h2.13v1.08H103v1.39h2.37V-72Zm4.22-5.86h1.5l.51,1.07c.17.35.3.64.43,1h0c.14-.37.25-.63.4-1l.49-1.07h1.49L109.14-75l1.72,3h-1.51L108.82-73c-.21-.41-.35-.72-.51-1.06h0c-.12.34-.27.65-.45,1.06L107.36-72h-1.49l1.67-3Zm-3.76-7.5h9v4a.38.38,0,0,0,.39.39H115v2H102.17Zm14,6.37h-.47v-2.32s0,0,0,0a.43.43,0,0,0-.09-.26L111.83-86h0l-.08-.07h0l-.07,0h0l-.09,0h-9.37a.79.79,0,0,0-.77.79V-79h-.47a1.11,1.11,0,0,0-1.11,1.12V-72a1.11,1.11,0,0,0,1.11,1.12h.47v4a.78.78,0,0,0,.77.78H115a.78.78,0,0,0,.78-.78v-4h.47A1.12,1.12,0,0,0,117.32-72v-5.83A1.12,1.12,0,0,0,116.21-79Z"/></clipPath><clipPath id="clip-path-21"><path class="cls-1" d="M23.49,9.35a7.73,7.73,0,0,0-1.36.23l0,.05c-1,1.48-2.43,1.45-5.54-1.47C13.24,5,8.69,6.32,7.19,6.82S5,7.8,5.6,8.94A17.78,17.78,0,0,0,6.92,11.3c1.23,2,3.95-.94,3.95-.94-2,3-3.75,2.29-4.41,1.24a16.2,16.2,0,0,1-1.06-2c-5.11,1.83-3.73,9.88-3.73,9.88H4.21c.65-3,3-2.85,3.36,0H9.5c1.7-5.79,5.37,0,5.37,0H17c0-3.09-.33-4.25,1.27-4.47a5.44,5.44,0,0,0,4.81-3.53A4.71,4.71,0,0,0,23.49,9.35Z"/></clipPath><clipPath id="clip-path-22"><path class="cls-1" d="M14.35,10.27l2.6.86a1.42,1.42,0,0,1-1.79.85A1.3,1.3,0,0,1,14.35,10.27Z"/></clipPath><clipPath id="clip-path-23"><ellipse class="cls-1" cx="15.61" cy="11.07" rx="0.67" ry="0.65" transform="translate(-1.29 2.08) rotate(-7.33)"/></clipPath><clipPath id="clip-path-24"><path class="cls-1" d="M139.39,15.52a1,1,0,0,0-1,1h2A1,1,0,0,0,139.39,15.52Zm0-1.2A2.46,2.46,0,0,1,142,17v.49h-3.65v.09a1,1,0,0,0,1.07,1.15,1,1,0,0,0,1-.49H142A2.35,2.35,0,0,1,139.39,20a2.51,2.51,0,0,1-2.71-2.8C136.73,15.38,137.7,14.32,139.39,14.32Zm-7.29-1.83c1.65,0,2.8.89,2.85,2.23h-1.69a1.06,1.06,0,0,0-1.16-.85c-.62,0-1.06.31-1.06.76s.31.62,1.06.75l.94.18c1.42.27,2,.89,2,2,0,1.46-1.11,2.35-3,2.35s-2.93-.84-3-2.22h1.73c0,.53.58.84,1.29.84s1.15-.31,1.15-.8-.31-.62-1.11-.75l-.93-.18c-1.29-.27-2-1-2-2.09C129.26,13.38,130.37,12.49,132.1,12.49Zm-3.64-9.91a1.8,1.8,0,0,0-1.82,1.83V20.76a1.8,1.8,0,0,0,1.82,1.82h16.36a1.8,1.8,0,0,0,1.82-1.82V4.49l-6.8,6.85-4.62-4.62,1.91-1.91,2.66,2.66,4.89-4.89Z"/></clipPath><clipPath id="clip-path-25"><path class="cls-2" d="M174.92,10.49,176,10a.15.15,0,0,1,.15,0,1.94,1.94,0,0,1,.5.75s0,0,0,0c.2-.39,1.44-2.41,2.93-2.7a12,12,0,0,0-1.49,1.73,16.57,16.57,0,0,0-1,1.87.24.24,0,0,1-.2.15h-1.29a.11.11,0,0,1-.1-.1,1.51,1.51,0,0,0-.64-1.19s0,0,0,0"/></clipPath><clipPath id="clip-path-26"><path class="cls-2" d="M156.49,15.54l-.34.75a.14.14,0,0,0,.11.21h4.28a.48.48,0,0,0,.43-.28l.71-1.39a.12.12,0,0,0-.09-.18h-2.06a.13.13,0,0,1-.11-.18l.43-1a.31.31,0,0,1,.3-.21h.23a.12.12,0,0,1,.09.18l-.25.5a.15.15,0,0,0,.11.21h1.44a.51.51,0,0,0,.41-.26l.5-.92a.15.15,0,0,0-.11-.23h-4.34a.43.43,0,0,0-.39.26l-.92,1.77c-.06.11,0,.21.1.21h2.44a.11.11,0,0,1,.09.18l-.43.86s-.05.06-.07.06h-.62a.09.09,0,0,1-.07-.14l.26-.46a.1.1,0,0,0-.1-.16h-1.71c-.14,0-.25.08-.32.21"/></clipPath><clipPath id="clip-path-27"><path class="cls-2" d="M163.53,13.44l-.59,1c-.05.09,0,.18.12.18h1.73a.5.5,0,0,0,.4-.22l.31-.53a.45.45,0,0,1,.35-.21h.05c.1,0,.14.1.12.19l-.4.8a.52.52,0,0,1-.45.25h-2.52l-.87,1.44a.14.14,0,0,0,.12.2h4.28a.5.5,0,0,0,.43-.25l1.59-2.83a.14.14,0,0,0-.12-.21h-4.17a.57.57,0,0,0-.38.23m1.14,2.65h-.14a.14.14,0,0,1-.12-.2l.21-.44a.38.38,0,0,1,.31-.18.2.2,0,0,1,.19.3l-.19.34a.28.28,0,0,1-.26.18M170.36,11l-.08.14-2.91,5.12a.14.14,0,0,0,.12.2h1.66a.39.39,0,0,0,.33-.18l1.59-2.58a.47.47,0,0,1,.4-.23.17.17,0,0,1,.16.25l-1.42,2.54a.15.15,0,0,0,.15.2h1.54a.58.58,0,0,0,.47-.27l1.25-2.31.29-.55s.14-.27,0-.27h-2.2s-.1-.07-.07-.11l.23-.44a.54.54,0,0,0,0-.55,5,5,0,0,0-.83-1.09c-.14,0-.47-.12-.61.13"/></clipPath><clipPath id="clip-path-28"><path class="cls-2" d="M174.77,12.84l-1.72,3.37a.19.19,0,0,0,.13.29H175a.12.12,0,0,0,.14-.1L176.75,13a.17.17,0,0,0-.14-.26h-1.68c-.09,0-.13,0-.16.08"/></clipPath><clipPath id="clip-path-29"><rect class="cls-1" x="174.97" y="8.06" width="4.6" height="3.69"/></clipPath><clipPath id="clip-path-30"><path class="cls-2" d="M174.92,10.49,176,10a.16.16,0,0,1,.15,0,1.94,1.94,0,0,1,.5.75s0,0,0,0c.2-.39,1.44-2.41,2.93-2.7a12,12,0,0,0-1.49,1.73,16.57,16.57,0,0,0-1,1.87.24.24,0,0,1-.2.15h-1.29a.11.11,0,0,1-.1-.1,1.48,1.48,0,0,0-.64-1.19s0,0,0,0"/></clipPath><clipPath id="clip-path-31"><path class="cls-2" d="M7.61,57.39a2,2,0,0,1-.94-.24,2,2,0,0,1-1-1.77v-8a2,2,0,1,1,3.94,0v4.26l6.31-4.26L6.51,41.05A2,2,0,0,1,6,38.28a2,2,0,0,1,2.73-.56l11.85,8a2,2,0,0,1,0,3.33l-11.84,8a2,2,0,0,1-1.09.34"/></clipPath><clipPath id="clip-path-32"><rect class="cls-1" x="64.91" y="37.35" width="20.49" height="20"/></clipPath><clipPath id="clip-path-33"><path class="cls-2" d="M76.87,55.76l-.32,0h-.24l.2-.43.36.38"/></clipPath><clipPath id="clip-path-34"><path class="cls-2" d="M76.74,47.5a4,4,0,0,1-.54.37l-.62.37a7.19,7.19,0,0,0-.75.15l0,0a.1.1,0,0,0-.06.08l-.64,2.06-3.4.74-1.07-.73-.31-2.49c.61-.11,1.42-.23,2.4-.34a2.88,2.88,0,0,0-.3.39l-.58.82.84-.56a12.26,12.26,0,0,1,1.44-.78c1-.07,1.92-.11,2.88-.11Zm-5.29,2.8a2,2,0,0,1,.94-.11h.27c.44,0,.81,0,.8-.65s-.31-1.23-.75-1.22-.87.56-.84,1.24a1,1,0,0,0,.07.39.67.67,0,0,0-.49.35Zm11.18-2.24-.31,2.12-1.07.74-3.4-.38-.63-2a.17.17,0,0,0-.1-.1,6.49,6.49,0,0,0-.89-.16h.08A13.91,13.91,0,0,0,79,47.6C80.5,47.72,81.77,47.91,82.63,48.06Zm-2.17,2s-.1-.29-.5-.24a1,1,0,0,0,.05-.43c-.05-.68-.46-1.22-.9-1.2s-.72.58-.69,1.26.39.67.83.66C79.84,50.06,80.17,49.88,80.46,50Z"/></clipPath><clipPath id="clip-path-35"><path class="cls-2" d="M79.3,49c0,.21-.1.39-.22.39s-.23-.16-.23-.38h0c0-.22.1-.4.22-.4h0c.13,0,.23.17.23.38h0m-6.3.28c0,.22-.1.4-.22.41s-.23-.17-.23-.39h0c0-.21.09-.39.22-.4h0c.12,0,.23.17.23.38"/></clipPath><clipPath id="clip-path-36"><path class="cls-2" d="M84.11,49a4.12,4.12,0,0,0-.4-.23l-.28,2a.21.21,0,0,1-.06.1L83,51.1l0,.12a1.2,1.2,0,0,0,1-.39,8.3,8.3,0,0,0,.22-1.18c0-.51,0-.61,0-.66m-6.28,7.46a1.82,1.82,0,0,1-.72-.45s0,0,0,0a4.61,4.61,0,0,1-.5.07h-.37a1.94,1.94,0,0,1-1,.68,6.25,6.25,0,0,0,2.65-.26m-8.7-4.81,0-.09-.53-.36a.17.17,0,0,1-.06-.1L68.25,49a3.28,3.28,0,0,0-.46.27c-.06,0-.1.15,0,.64a7.51,7.51,0,0,0,.31,1.36,1.42,1.42,0,0,0,1.07.34m7.9-.09a.17.17,0,0,1-.12-.1l-.65-2.12-.29,0-.28,0-.64,2.06a.12.12,0,0,1-.1.09l-.31.07c0,.11-.11.26-.39.35a33.36,33.36,0,0,1-3.66.93,3.21,3.21,0,0,1-.82-.38,4.3,4.3,0,0,1-.18-.46h0a8.77,8.77,0,0,0,1.17,2.21l1.75-.53c.46-.7,1.11-1.39,1.58-1.41h.24a6.48,6.48,0,0,1,.65,0,.75.75,0,0,1-.23-.41,2,2,0,0,0,1.35.36,2.42,2.42,0,0,0,1.22-.53l0-.13-.31,0"/></clipPath><clipPath id="clip-path-37"><path class="cls-2" d="M77.65,51.82a.67.67,0,0,1-.32-.17v.06a.75.75,0,0,1-.33.56A4.4,4.4,0,0,1,78.07,52a.56.56,0,0,1,.38.15l0,0,1.24,1,1.23.13c.22,0,.43,0,.63,0h.19A9.37,9.37,0,0,0,82.36,52a4,4,0,0,1-1,.56,34.35,34.35,0,0,1-3.69-.77"/></clipPath><clipPath id="clip-path-38"><path class="cls-2" d="M85,44.41c0-.06,0-.13,0-.2a.68.68,0,0,1,0-.14,5,5,0,0,0-.61-.41,7.29,7.29,0,0,0-.74-.37c-.25-.12-.5-.22-.76-.32a3.12,3.12,0,0,0-.39-.15L82,42.67c.27,0,.55.11.82.18a5.08,5.08,0,0,1,.52.15,7.89,7.89,0,0,0-14.89,0,5.26,5.26,0,0,1,.53-.15c.27-.07.54-.13.82-.18l-.39.15a3.12,3.12,0,0,0-.39.15c-.26.1-.52.2-.77.32a6.24,6.24,0,0,0-.73.37,3.82,3.82,0,0,0-.61.41.68.68,0,0,0,0,.14,1.5,1.5,0,0,0,0,.2,2.88,2.88,0,0,0,0,.41,5.56,5.56,0,0,0,0,.82,7.08,7.08,0,0,0,.16.8c0,.13.08.26.13.39a1.42,1.42,0,0,0,.08.18l0,.09,0,0,.06,0,.12.06.25.11h0l-.23-.86s.48-.12,1.23-.27l-.18,0-.5-.16-.24-.11a1.66,1.66,0,0,1-.21-.16,13.19,13.19,0,0,0,4,0,37.74,37.74,0,0,1,8.32,0,13.18,13.18,0,0,0,4,0,1.16,1.16,0,0,1-.21.16l-.24.11-.5.16h-.07c.82.15,1.3.28,1.35.29l-.22.82.13-.06.12-.06.07,0v0l0-.09.07-.18a3,3,0,0,0,.13-.39,5.42,5.42,0,0,0,.17-.8,7.37,7.37,0,0,0,0-.82c0-.13,0-.27,0-.41"/></clipPath><clipPath id="clip-path-39"><path class="cls-2" d="M79.34,42.83a5.47,5.47,0,0,1-.16,1.64.11.11,0,0,0,0,.08l-.66-.06a3.64,3.64,0,0,0,.31-1.25,4.78,4.78,0,0,0,.51-.41m-6.29.41a3.38,3.38,0,0,0,.31,1.24l-.66.06a.08.08,0,0,0,0-.07,5.85,5.85,0,0,1-.17-1.64,6.31,6.31,0,0,0,.52.41m9,1.81v0l.08,0,.6.22a2.24,2.24,0,0,1-.65-1.26,6.52,6.52,0,0,1,0,1m-9.79-2.34-2.1.59a6.62,6.62,0,0,0-.07,1.63h0a6.08,6.08,0,0,1,.21-1.22c.07-.17.51-.28.85-.36s.87-.24,1,.23a3.32,3.32,0,0,0,.24.7,5.91,5.91,0,0,1-.11-1.57m7.36,0a6.76,6.76,0,0,1-.13,1.65,3.48,3.48,0,0,0,.27-.78c.11-.47.64-.31,1-.23s.78.19.85.36a5.54,5.54,0,0,1,.2,1.16,7.19,7.19,0,0,0-.07-1.57l-2.1-.59M73,42.89l.23.17a.11.11,0,0,1,.06.11,3.36,3.36,0,0,0,.32,1.27s0,0,0,0c.76-.05,1.53-.07,2.29-.07s1.52,0,2.28.07c0,0,0,0,0,0a3.26,3.26,0,0,0,.33-1.27.11.11,0,0,1,.06-.11l.22-.16v0a10.71,10.71,0,0,0-.32-3.62c0,.47-.13,4.54-1.15,4.54H74.55c-1.09,0-1.18-4.59-1.18-4.59l-.05.17A10.3,10.3,0,0,0,73,42.89m-3.2,2.18v0a4.74,4.74,0,0,1,0-1,2.23,2.23,0,0,1-.64,1.26,5.31,5.31,0,0,1,.6-.22l.07,0"/></clipPath><clipPath id="clip-path-40"><path class="cls-2" d="M82.93,51.22a1.31,1.31,0,0,1-.06.27,2.85,2.85,0,0,0,.8.06,2.18,2.18,0,0,0,.27-.72,1.2,1.2,0,0,1-1,.39m-8.36,5.62a5.13,5.13,0,0,0,1.69.18,7,7,0,0,0,2.07-.47,1.71,1.71,0,0,1-.5-.1,6.23,6.23,0,0,1-2.65.26,2.84,2.84,0,0,1-.49.11l-.12,0m-5.41-5.07,0-.13a1.42,1.42,0,0,1-1.07-.34,1.82,1.82,0,0,0,.24.56,2.83,2.83,0,0,0,.86-.09m.61.68a3.21,3.21,0,0,0,.82.38,33.36,33.36,0,0,0,3.66-.93c.28-.09.37-.24.39-.35l-4.14.91h0l-.08,0-.16-.11L69.74,52h0l-.2-.13v0a1,1,0,0,1,0,.1h0a4.3,4.3,0,0,0,.18.46m12.71-.79a2.45,2.45,0,0,0,.08-.29l-.14.1-.39.27-.42.29-.07,0h0l-4.17-.47v.07a.67.67,0,0,0,.32.17,34.35,34.35,0,0,0,3.69.77,4,4,0,0,0,1-.56h0c0-.12.08-.24.11-.36"/></clipPath><clipPath id="clip-path-41"><path class="cls-2" d="M78.07,46.13l-.11.13a8.4,8.4,0,0,1-.8.87l-1.17,0c-.66,0-1.29,0-1.9,0a15.09,15.09,0,0,1,3-.89c.32-.06.66-.11,1-.14m-5,.37a8,8,0,0,0-1,.81c-.73.07-1.47.16-2.2.28a16.69,16.69,0,0,1,3.18-1.09M83.5,48.23l-.35,2.39-1.66,1.15-4.33-.49-.65-2.11a.15.15,0,0,0-.12-.1,2.23,2.23,0,0,0-.84,0,.14.14,0,0,0-.11.1l-.64,2.06-4.3.94L68.79,51l-.34-2.68.22-.12.36-.08.32,2.53a.11.11,0,0,0,.06.1l1.17.81.08,0h0l3.55-.77,0,0a.11.11,0,0,0,.07-.08L75,48.64a3.61,3.61,0,0,1,2,0l.63,2.07a.17.17,0,0,0,.12.1l3.55.39a.1.1,0,0,0,.09,0l1.18-.81a.18.18,0,0,0,.06-.09l.31-2.16.59.11m.44-1.49-.31,1.13a33.49,33.49,0,0,0-3.86-.57,9.88,9.88,0,0,0,1.8-1c1.11.15,1.92.32,2.37.42m-15.89,0,.09.31c.2-.16.42-.32.63-.46-.29,0-.54.11-.72.15"/></clipPath><clipPath id="clip-path-42"><path class="cls-2" d="M80,46.1,78.61,46l-.16.23a8.63,8.63,0,0,1-1.38,1.46,10.93,10.93,0,0,0,3.32-1.6l-.38,0M76.59,46H74.84l-.64.3h0a7.58,7.58,0,0,0-1.74,1.21l.22-.11A11,11,0,0,1,76.06,46h.53m-3.94.08-.9,0-1,.07-.51,0-.15,0a14.33,14.33,0,0,0-3.34,2.71l.06-.07a13.54,13.54,0,0,1,5.87-2.81m9.87,7.53,0,0a1.84,1.84,0,0,1-.88.17c-.22,0-.43,0-.67,0-.48,0-1.29-.14-1.3-.14h-.06l0,0-1.29-1-.07,0c-.06,0-.06,0-.09,0a12.39,12.39,0,0,0-1.89.52l-.08,0L76,53a5.13,5.13,0,0,0-1.7-.29h-.22c-.09,0-.61.25-1.27,1.28l0,.06-.07,0s-1.15.36-2.36.7l-.08,0-.08,0-.92-.42.09,0c.45.38,1.3,1.11,1.39,1.21l.06.05-.07-.07h0a2.45,2.45,0,0,0,.66.46,1.6,1.6,0,0,0,.37.12h.39l.8-.06.8-.08.8-.11.39-.06.18-.06a.65.65,0,0,0,.15-.1l.29-.27.28-.29c.16-.16.29-.33.45-.5l.06-.06h0l.09.07c.18.13.37.28.55.4s.48.33.72.46l.19.09h.18l.42,0,.84-.15.84-.17L81,55a2.55,2.55,0,0,0,.39-.13,1.63,1.63,0,0,0,.35-.23,2.47,2.47,0,0,0,.55-.65h0a2.68,2.68,0,0,0,.19-.42m-5.23-13h.49v-1H74.17v1h.5v-.5h1v3h-.42v.56h1.42v-.56h-.42v-3h1v.5"/></clipPath><clipPath id="clip-path-43"><path class="cls-2" d="M81,46.17h0l-.62,0h0a10.93,10.93,0,0,1-3.32,1.6l0,0A10.88,10.88,0,0,0,79.52,47a8.77,8.77,0,0,0,1.4-.77l.1-.07m-5-.2a11.14,11.14,0,0,0-3.39,1.42c.4-.2.81-.39,1.23-.56l.15-.06,0,0,.13,0,.07,0,.12,0,.08,0,.11,0,.1,0,.1,0,.12,0,.09,0,.14-.05.07,0,.22-.07.49-.14.66-.16h-.53m-3.41.09a13.54,13.54,0,0,0-5.87,2.81l-.06.07a19.15,19.15,0,0,1,5.38-2.57l.23-.07c.39-.11.8-.2,1.2-.28l-.88,0m10.29,7.33-.06,0,0,0h0l0,0h0l0,0h0l-.06,0h0l-.11.05a2.68,2.68,0,0,1-.19.42h0a2.47,2.47,0,0,1-.55.65,1.63,1.63,0,0,1-.35.23A2.55,2.55,0,0,1,81,55l-.84.19-.84.17-.84.15-.42,0h-.18a1.11,1.11,0,0,1-.19-.09A7.94,7.94,0,0,1,77,55c-.18-.12-.37-.27-.55-.4l0,0h0l0,0h0l0,0,.15.18,0,0c.07.09.4.46.79.84a1.46,1.46,0,0,0,1.06.44,1.65,1.65,0,0,0,.43-.06l.44-.1,1.29-.31.06,0,.13,0,.2,0a1.63,1.63,0,0,0,1.24-.79l.27-.52.44-.84h0l0,0-.07,0m-6.61,1.24,0,0c-.16.17-.29.34-.45.5l-.28.29-.29.27a.65.65,0,0,1-.15.1l-.18,0-.39.07-.8.11-.8.08-.8.06h-.39a2.29,2.29,0,0,1-.37-.12,2.66,2.66,0,0,1-.66-.45h0l.09.09,0,0-.06-.05c-.09-.1-.94-.83-1.39-1.21l-.1,0,.26.37c.13.18.26.37.4.55l.18.23a2.66,2.66,0,0,0,2.26,1.18l.46,0H73c1-.12,1.29-.17,1.44-.19l.12,0h0a2.3,2.3,0,0,0,.68-.2,1.15,1.15,0,0,0,.57-.52c.28-.62.34-.77.34-.78l.1-.26"/></clipPath><clipPath id="clip-path-44"><path class="cls-2" d="M79.08,49a.22.22,0,0,0,.22-.22.22.22,0,0,0-.23-.22h0a.22.22,0,0,0-.22.22h0A.22.22,0,0,0,79.08,49Zm1.38,1c-.3-.14-.62,0-1.21,0-.44,0-.81,0-.83-.66s.25-1.25.69-1.26.84.52.9,1.2a1,1,0,0,1-.05.43C80.36,49.73,80.46,50,80.46,50Zm-7.68-.83A.24.24,0,0,0,73,49a.23.23,0,1,0-.22.23Zm.68.35c0,.68-.36.64-.8.65h-.27a2,2,0,0,0-.94.11.67.67,0,0,1,.49-.35,1,1,0,0,1-.07-.39c0-.68.4-1.24.84-1.24S73.45,48.86,73.46,49.54Zm8.33-4.67s0,.08,0,.12l-.53-.13a17.42,17.42,0,0,0-1.76-.28h-.06v0c0-.07,0-.13,0-.19a6.76,6.76,0,0,0,.13-1.65l2.1.59A7.19,7.19,0,0,1,81.79,44.87Zm-2.61-.4a.11.11,0,0,0,0,.08l-.66-.06a3.64,3.64,0,0,0,.31-1.25,4.78,4.78,0,0,0,.51-.41A5.47,5.47,0,0,1,79.18,44.47Zm-6.48.07a.08.08,0,0,0,0-.07,5.89,5.89,0,0,1-.17-1.64,6.31,6.31,0,0,0,.52.41,3.38,3.38,0,0,0,.31,1.24Zm-.32,0c-.29,0-.59.07-.88.12l-.88.16L70.1,45v-.06a6.62,6.62,0,0,1,.07-1.63l2.1-.59a5.91,5.91,0,0,0,.11,1.57l.06.27v0Zm10.54.83-.06,0-.08,0-.06,0-.6-.22-.08,0v0a6.52,6.52,0,0,0,0-1,8,8,0,0,0-.09-.88.16.16,0,0,0-.1-.11l-.3-.08a5.51,5.51,0,0,0-1-3.39,6.26,6.26,0,0,1,.83,3.33L79.5,42.4h-.13l-.13.12c0-.17,0-.43,0-.75v-.09a6.89,6.89,0,0,0-.83-2.92s.06.18.14.46a10.74,10.74,0,0,1,.32,3.62v0h0l-.22.16a.11.11,0,0,0-.06.11,3.26,3.26,0,0,1-.33,1.27s0,0,0,0c-.76-.05-1.52-.07-2.28-.07s-1.53,0-2.29.07c0,0,0,0,0,0a3.36,3.36,0,0,1-.32-1.27.11.11,0,0,0-.06-.11L73,42.89a10.3,10.3,0,0,1,.29-3.52c.08-.35.16-.56.16-.58a7.47,7.47,0,0,0-.84,3.76l-.13-.12h-.14l-1.85.52a6.12,6.12,0,0,1,.82-3.33,5.54,5.54,0,0,0-1,3.39l-.3.08a.16.16,0,0,0-.1.11,8.46,8.46,0,0,0-.1.88,4.74,4.74,0,0,0,0,1v0l-.07,0c-.21.07-.41.14-.6.22a.09.09,0,0,1-.06,0h0l-.09,0-.05,0,0,0a2,2,0,0,1,.42-.13,3,3,0,0,1,.43-.09c.29-.06.58-.1.87-.14l.87-.09.88-.07c1.18-.06,2.35-.09,3.53-.09s2.35,0,3.52.09l.88.07.88.09c.29,0,.58.08.87.14l.43.09a2.25,2.25,0,0,1,.42.13Z"/></clipPath><clipPath id="clip-path-45"><path class="cls-2" d="M76.27,40.11v3h.42v.56H75.27v-.56h.42v-3h-1v.5h-.5v-1h3.61v1h-.49v-.5Zm1.88.87V39.26H73.8V41H75v-.5h.27v2.31H74.9v1.3h2.16v-1.3h-.42V40.48h.28V41Z"/></clipPath><clipPath id="clip-path-46"><rect class="cls-1" x="97.13" y="37.25" width="19.26" height="20"/></clipPath></defs><title>gradle</title><rect class="cls-1" x="-427.69" y="-1120.26" width="1366" height="2644"/><rect class="cls-1" x="-719.3" y="-1249.83" width="1366" height="3311"/><path class="cls-3" d="M107.61-110l-2.92,2.93a.25.25,0,0,1-.36,0l-.65-.66a.24.24,0,0,1,0-.35l2.09-2.1-2.09-2.09a.25.25,0,0,1,0-.36l.65-.65a.25.25,0,0,1,.36,0l2.92,2.93A.24.24,0,0,1,107.61-110Z"/><g class="cls-16"><rect class="cls-3" x="-452.46" y="-459.19" width="742.75" height="1800.34"/></g><rect class="cls-3" x="108.6" y="-108.75" width="5.55" height="1.51" rx="0.38"/><g class="cls-17"><rect class="cls-3" x="-451.46" y="-459.19" width="742.75" height="1800.34"/></g><rect class="cls-1" x="-477.71" y="-1176.12" width="1366" height="3024"/><g class="cls-24"><rect class="cls-25" x="0.14" y="4.77" width="24.72" height="16.02"/></g><g class="cls-26"><rect class="cls-3" x="12.91" y="8.91" width="5.4" height="4.51"/></g><g class="cls-27"><rect class="cls-25" x="13.58" y="9.06" width="4.06" height="4.02" transform="translate(-1.08 1.71) rotate(-6.07)"/></g><rect class="cls-1" x="-360.51" y="-976.67" width="1366" height="2291"/><rect class="cls-1" x="-374.58" y="-1354.02" width="1366" height="2291"/><rect class="cls-1" x="-576.03" y="-1096.25" width="1366" height="2291"/><rect class="cls-1" x="-576.03" y="-1096.25" width="1366" height="2291"/><rect class="cls-1" x="-576.03" y="-1096.25" width="1366" height="2291"/><rect class="cls-1" x="-216.08" y="-1635.24" width="1366" height="2291"/><rect class="cls-1" x="-513.13" y="-1097.25" width="1366" height="2291"/></svg>