<svg id="Layer_1" data-name="Layer 1" xmlns="http://www.w3.org/2000/svg" xmlns:xlink="http://www.w3.org/1999/xlink" viewBox="0 0 25 25"><defs><style>.cls-1,.cls-2,.cls-4{fill:none;}.cls-2{clip-rule:evenodd;}.cls-3{fill:#fff;}.cls-4{fill-rule:evenodd;}.cls-5{clip-path:url(#clip-path);}.cls-6{clip-path:url(#clip-path-2);}.cls-7{clip-path:url(#clip-path-3);}.cls-8{clip-path:url(#clip-path-4);}.cls-9{clip-path:url(#clip-path-5);}.cls-10{clip-path:url(#clip-path-6);}.cls-11{clip-path:url(#clip-path-7);}.cls-12{clip-path:url(#clip-path-8);}.cls-13{clip-path:url(#clip-path-9);}.cls-14{clip-path:url(#clip-path-10);}.cls-15{clip-path:url(#clip-path-11);}.cls-16{clip-path:url(#clip-path-12);}.cls-17{clip-path:url(#clip-path-13);}.cls-18{clip-path:url(#clip-path-14);}.cls-19{clip-path:url(#clip-path-15);}.cls-20{clip-path:url(#clip-path-16);}.cls-21{clip-path:url(#clip-path-17);}.cls-22{clip-path:url(#clip-path-18);}.cls-23{clip-path:url(#clip-path-19);}.cls-24{clip-path:url(#clip-path-20);}.cls-25{clip-path:url(#clip-path-21);}.cls-26{clip-path:url(#clip-path-22);}.cls-27{clip-path:url(#clip-path-23);}.cls-28{clip-path:url(#clip-path-24);}.cls-29{clip-path:url(#clip-path-25);}.cls-30{clip-path:url(#clip-path-26);}.cls-31{clip-path:url(#clip-path-28);}.cls-32{clip-path:url(#clip-path-29);}.cls-33{clip-path:url(#clip-path-30);}.cls-34{clip-path:url(#clip-path-31);}.cls-35{clip-path:url(#clip-path-32);}.cls-36{clip-path:url(#clip-path-33);}.cls-37{clip-path:url(#clip-path-34);}.cls-38{clip-path:url(#clip-path-35);}.cls-39{clip-path:url(#clip-path-36);}.cls-40{clip-path:url(#clip-path-37);}.cls-41{clip-path:url(#clip-path-38);}.cls-42{clip-path:url(#clip-path-39);}.cls-43{clip-path:url(#clip-path-40);}.cls-44{clip-path:url(#clip-path-41);}.cls-45{clip-path:url(#clip-path-42);}.cls-46{clip-path:url(#clip-path-43);}</style><clipPath id="clip-path"><rect class="cls-1" x="-91" y="806.75" width="19.26" height="20"/></clipPath><clipPath id="clip-path-2"><path class="cls-1" d="M-167.81-144.09a2.06,2.06,0,0,0-2.26,2c0,1.26.74,1.85,1.85,2.33l.39.16c.7.31,1.05.5,1.05,1s-.34.76-1,.76-1.12-.52-1.45-1.06l-1.21.81a2.8,2.8,0,0,0,2.7,1.62c1.47,0,2.56-.76,2.56-2.15s-.74-1.87-2.06-2.43l-.38-.16c-.66-.29-1-.48-1-.94a.67.67,0,0,1,.74-.66,1,1,0,0,1,1,.66l1.2-.77A2.26,2.26,0,0,0-167.81-144.09Zm-5,0V-139c0,.78-.3,1-.81,1a1.34,1.34,0,0,1-1.16-.77l-1.27.77a2.84,2.84,0,0,0,2.52,1.62,2.13,2.13,0,0,0,2.34-2.36v-5.33Zm-6.61-6.88h14.84a.27.27,0,0,1,.27.27v14.84a.27.27,0,0,1-.27.27h-14.84a.27.27,0,0,1-.27-.27V-150.7A.27.27,0,0,1-179.46-151Zm0-.81a1.09,1.09,0,0,0-1.08,1.08v14.84a1.09,1.09,0,0,0,1.08,1.08h14.84a1.09,1.09,0,0,0,1.08-1.08V-150.7a1.09,1.09,0,0,0-1.08-1.08Z"/></clipPath><clipPath id="clip-path-3"><path class="cls-2" d="M-141.66-143.12l-.31-.49c-.1-.16-.2-.33-.29-.51a5,5,0,0,1-.47-1.16c-.18-.76.25-1.22.63-1.72a1.92,1.92,0,0,1,.18-.22c.39-.45.93-1,1.35-1.44a2.59,2.59,0,0,0,.73-1.71c0-.39,0-1.21-.29-1.36a2.84,2.84,0,0,1-.12,1.55,3.43,3.43,0,0,1-1.12,1.49c-.38.32-1,.91-1.34,1.26a3.49,3.49,0,0,0-.72,1,1.41,1.41,0,0,0,.23,1.35c.12.19.23.35.35.52s.27.34.38.5.26.32.39.48.34.39.42.45"/></clipPath><clipPath id="clip-path-4"><path class="cls-2" d="M-136.36-138.09c.16.2,0,.29-.23.37a29.16,29.16,0,0,1-5.46.43,22.93,22.93,0,0,1-3.22-.16c-.16,0-.91-.11-.94-.26s.11-.16.17-.19a3.68,3.68,0,0,1,1-.24,3.48,3.48,0,0,0,.36-.05,4.75,4.75,0,0,0-2.46.53c-.22.24.15.35.4.41a22.06,22.06,0,0,0,3.86.28c1.52,0,5.16,0,6.5-.69.08,0,.23-.12.25-.2s-.14-.2-.22-.23"/></clipPath><clipPath id="clip-path-5"><path class="cls-2" d="M-140.5-141.89a4,4,0,0,0,.81-.58,1.55,1.55,0,0,0,.5-.89,1.87,1.87,0,0,0-.37-1c-.48-.69-.86-1.09-.21-1.86a4.66,4.66,0,0,1,.72-.68,14.22,14.22,0,0,1,1.24-.85l.44-.27a8,8,0,0,0-1.08.35,7.49,7.49,0,0,0-1,.46c-1,.54-1.92,1.39-1.53,2.56.26.8,1,1.27,1,1.87a2.44,2.44,0,0,1-.51.91"/></clipPath><clipPath id="clip-path-6"><path class="cls-2" d="M-138.6-138.69a5.59,5.59,0,0,1-.86-.38c-.17-.08-.1-.07-.32,0a16.4,16.4,0,0,1-3.22.16c-.24,0-.91,0-1-.21s0-.21.07-.28c-.6.11-1.22.54-.37.89a9.4,9.4,0,0,0,4,.25,14.93,14.93,0,0,0,1.78-.4"/></clipPath><clipPath id="clip-path-7"><path class="cls-2" d="M-138.6-139.9a1.51,1.51,0,0,1-.56-.31c-.11-.1-.07-.08-.33,0-.91.15-3.63.41-4.4.09-.1,0-.22-.1-.23-.22s.11-.21.16-.29c-.62.08-1.22.67-.38,1a12.32,12.32,0,0,0,4,.2,10.31,10.31,0,0,0,1.76-.4"/></clipPath><clipPath id="clip-path-8"><path class="cls-2" d="M-137.37-142.59a3.15,3.15,0,0,0-.43.05l-.43,0c-.9.11-1.89.19-2.78.23-.7,0-3.33.11-3.72-.19,0-.14.16-.23.27-.28a7.89,7.89,0,0,1,1.38-.38,7.57,7.57,0,0,0-2.72.61c-.6.31.41.43.78.48a27.2,27.2,0,0,0,6.44-.14,1.59,1.59,0,0,0,.68-.15c.16-.09.38-.19.53-.28"/></clipPath><clipPath id="clip-path-9"><path class="cls-2" d="M-144.76-136.13a14.69,14.69,0,0,0,2.53.36,25.16,25.16,0,0,0,2.88,0,12.73,12.73,0,0,0,3.69-.6c.25-.11.71-.35.75-.58a1.13,1.13,0,0,0-.21.12c-1.87,1-6.14.92-8.34.8l-1.3-.09"/></clipPath><clipPath id="clip-path-10"><path class="cls-2" d="M-137-142.82a1.2,1.2,0,0,1,1.23.24,1.36,1.36,0,0,1,.09,1.4,4.68,4.68,0,0,1-1.42,1.57l-.25.18a4.5,4.5,0,0,0,1.4-.67,2.64,2.64,0,0,0,1-1.21,1.35,1.35,0,0,0-.5-1.58,1.32,1.32,0,0,0-.8-.23,1.09,1.09,0,0,0-.73.3"/></clipPath><clipPath id="clip-path-11"><path class="cls-1" d="M-111.8-149.11a.67.67,0,0,1,.65.69.67.67,0,0,1-.65.68.67.67,0,0,1-.64-.68A.67.67,0,0,1-111.8-149.11Zm1.87-1.09a9.4,9.4,0,0,0-1.65.14c-1.46.27-1.72.83-1.72,1.86v1.36h3.44v.46h-4.73a2.16,2.16,0,0,0-2.15,1.81,6.88,6.88,0,0,0,0,3.63c.24,1.06.82,1.81,1.83,1.81h1.18v-1.63a2.23,2.23,0,0,1,2.15-2.22h3.44a1.77,1.77,0,0,0,1.72-1.82v-3.4a2,2,0,0,0-1.72-1.86A10.8,10.8,0,0,0-109.93-150.2Z"/></clipPath><clipPath id="clip-path-12"><path class="cls-1" d="M-107.88-137.72a.66.66,0,0,1,.64.67.67.67,0,0,1-.64.68.67.67,0,0,1-.65-.68A.66.66,0,0,1-107.88-137.72Zm1.93-8.56v1.58a2.25,2.25,0,0,1-2.15,2.25h-3.43a1.78,1.78,0,0,0-1.72,1.8v3.38c0,1,.81,1.52,1.72,1.8a5.57,5.57,0,0,0,3.43,0c.86-.26,1.72-.78,1.72-1.8v-1.36h-3.44v-.45h5.16c1,0,1.37-.71,1.71-1.79a6.23,6.23,0,0,0,0-3.61c-.24-1-.71-1.8-1.71-1.8Z"/></clipPath><clipPath id="clip-path-13"><path class="cls-3" d="M-77.65-110l-2.93,2.93a.24.24,0,0,1-.35,0l-.66-.66a.24.24,0,0,1,0-.35l2.09-2.1-2.09-2.09a.25.25,0,0,1,0-.36l.66-.65a.24.24,0,0,1,.35,0l2.93,2.93A.24.24,0,0,1-77.65-110Z"/></clipPath><clipPath id="clip-path-14"><rect class="cls-3" x="-76.67" y="-108.75" width="5.55" height="1.51" rx="0.38"/></clipPath><clipPath id="clip-path-15"><polygon class="cls-1" points="-181.52 -80.5 -161.12 -80.5 -161.12 -73.07 -171.32 -73.07 -171.32 -71.76 -176 -71.76 -176 -73.07 -181.52 -73.07 -181.52 -80.5"/></clipPath><clipPath id="clip-path-16"><polygon class="cls-1" points="-179.34 -73.95 -177.51 -73.95 -177.51 -77.66 -176.42 -77.66 -176.42 -73.95 -175.69 -73.95 -175.69 -79.05 -179.34 -79.05 -179.34 -73.95"/></clipPath><clipPath id="clip-path-17"><path class="cls-1" d="M-171.32-75.71h-1.09V-77.8h1.09ZM-174.24-79v5.83h1.83v-1.25h1.82V-79Z"/></clipPath><clipPath id="clip-path-18"><polygon class="cls-1" points="-169.87 -79.05 -169.87 -73.95 -167.82 -73.95 -167.82 -77.66 -166.59 -77.66 -166.59 -73.95 -165.36 -73.95 -165.36 -77.66 -164.13 -77.66 -164.13 -73.95 -163.31 -73.95 -163.31 -79.05 -169.87 -79.05"/></clipPath><clipPath id="clip-path-19"><path class="cls-1" d="M-98.69-77.25v2.77a1.38,1.38,0,0,1-1.38,1.38h-2.77a1.38,1.38,0,0,1-1.38-1.38v-2.77a1.38,1.38,0,0,1,1.38-1.38h2.77A1.38,1.38,0,0,1-98.69-77.25Zm-7.38,0v2.77a1.38,1.38,0,0,1-1.38,1.38h-2.77a1.38,1.38,0,0,1-1.38-1.38v-2.77a1.38,1.38,0,0,1,1.38-1.38h2.77A1.38,1.38,0,0,1-106.07-77.25Zm-7.37,0v2.77a1.38,1.38,0,0,1-1.39,1.38h-2.76A1.38,1.38,0,0,1-119-74.48v-2.77a1.38,1.38,0,0,1,1.39-1.38h2.76A1.38,1.38,0,0,1-113.44-77.25Z"/></clipPath><clipPath id="clip-path-20"><path class="cls-1" d="M-70-72h-3.7v-5.86h3.58v1.09h-2.26v1.21h2.13v1.08h-2.13v1.39H-70V-72Zm-.3,4.86H-83.09v-3.78h12.78ZM-83.55-72v-5.86H-80v1.09h-2.26v1.21h2.13v1.08h-2.13v1.39h2.38V-72Zm4.21-5.86h1.5l.51,1.07c.17.35.3.64.44,1h0c.13-.37.24-.63.39-1l.49-1.07h1.49L-76.13-75l1.72,3h-1.51L-76.45-73c-.21-.41-.35-.72-.51-1.06h0c-.12.34-.26.65-.44,1.06L-77.9-72h-1.5l1.68-3Zm-3.75-7.5h9v4a.39.39,0,0,0,.39.39h3.42v2H-83.09Zm14,6.37h-.47v-2.32a.06.06,0,0,0,0,0,.38.38,0,0,0-.09-.26L-73.44-86h0a.27.27,0,0,0-.08-.07h0l-.08,0h0l-.09,0h-9.36a.79.79,0,0,0-.78.79V-79h-.47a1.12,1.12,0,0,0-1.11,1.12V-72a1.12,1.12,0,0,0,1.11,1.12h.47v4a.78.78,0,0,0,.78.78h12.78a.78.78,0,0,0,.78-.78v-4h.47A1.12,1.12,0,0,0-67.95-72v-5.83A1.12,1.12,0,0,0-69.06-79Z"/></clipPath><clipPath id="clip-path-21"><path class="cls-1" d="M-45.87,15.52a1,1,0,0,0-1,1h2A1,1,0,0,0-45.87,15.52Zm0-1.2A2.45,2.45,0,0,1-43.25,17v.49H-46.9v.09a1,1,0,0,0,1.07,1.15,1,1,0,0,0,1-.49h1.55A2.34,2.34,0,0,1-45.87,20a2.5,2.5,0,0,1-2.71-2.8C-48.54,15.38-47.56,14.32-45.87,14.32Zm-7.29-1.83c1.64,0,2.8.89,2.84,2.23H-52a1.06,1.06,0,0,0-1.15-.85c-.62,0-1.07.31-1.07.76s.31.62,1.07.75l.93.18c1.42.27,2,.89,2,2,0,1.46-1.12,2.35-3,2.35s-2.94-.84-3-2.22h1.73c0,.53.58.84,1.29.84s1.16-.31,1.16-.8-.31-.62-1.11-.75l-.94-.18c-1.29-.27-2-1-2-2.09C-56,13.38-54.9,12.49-53.16,12.49Zm-3.65-9.91a1.8,1.8,0,0,0-1.82,1.83V20.76a1.8,1.8,0,0,0,1.82,1.82h16.36a1.8,1.8,0,0,0,1.82-1.82V4.49l-6.8,6.85L-50,6.72l1.91-1.91,2.67,2.66,4.89-4.89Z"/></clipPath><clipPath id="clip-path-22"><path class="cls-2" d="M-10.34,10.49-9.28,10a.15.15,0,0,1,.15,0,1.74,1.74,0,0,1,.5.75s0,0,0,0c.2-.39,1.44-2.41,2.93-2.7A12,12,0,0,0-7.17,9.79a17.69,17.69,0,0,0-1,1.87.25.25,0,0,1-.2.15H-9.62a.11.11,0,0,1-.1-.1,1.53,1.53,0,0,0-.65-1.19,0,0,0,0,1,0,0"/></clipPath><clipPath id="clip-path-23"><path class="cls-2" d="M-28.78,15.54l-.34.75a.14.14,0,0,0,.12.21h4.27a.48.48,0,0,0,.43-.28l.71-1.39a.12.12,0,0,0-.09-.18h-2.06c-.09,0-.13-.1-.11-.18l.43-1a.31.31,0,0,1,.3-.21h.23a.11.11,0,0,1,.09.18L-25,14a.15.15,0,0,0,.11.21h1.44a.51.51,0,0,0,.41-.26l.51-.92c0-.1,0-.23-.12-.23H-27a.43.43,0,0,0-.39.26l-.91,1.77a.13.13,0,0,0,.09.21h2.44a.12.12,0,0,1,.1.18l-.44.86s0,.06-.07.06h-.61A.09.09,0,0,1-26.9,16l.25-.46a.1.1,0,0,0-.09-.16h-1.72c-.13,0-.25.08-.32.21"/></clipPath><clipPath id="clip-path-24"><path class="cls-2" d="M-21.74,13.44l-.59,1c-.05.09,0,.18.12.18h1.73a.48.48,0,0,0,.4-.22l.31-.53a.45.45,0,0,1,.36-.21h0a.14.14,0,0,1,.12.19l-.4.8a.52.52,0,0,1-.45.25h-2.51l-.88,1.44a.14.14,0,0,0,.12.2h4.29a.49.49,0,0,0,.42-.25l1.59-2.83a.14.14,0,0,0-.12-.21h-4.17a.62.62,0,0,0-.38.23m1.14,2.65h-.14a.14.14,0,0,1-.12-.2l.21-.44a.39.39,0,0,1,.31-.18.2.2,0,0,1,.19.3l-.19.34a.27.27,0,0,1-.26.18M-14.91,11l-.07.14L-17.9,16.3a.14.14,0,0,0,.12.2h1.66a.39.39,0,0,0,.33-.18l1.59-2.58a.48.48,0,0,1,.4-.23.18.18,0,0,1,.17.25L-15,16.3a.14.14,0,0,0,.14.2h1.54a.55.55,0,0,0,.47-.27l1.26-2.31.28-.55s.14-.27,0-.27h-2.21a.09.09,0,0,1-.07-.11l.24-.44a.57.57,0,0,0,0-.55,4.69,4.69,0,0,0-.83-1.09c-.14,0-.47-.12-.61.13"/></clipPath><clipPath id="clip-path-25"><path class="cls-2" d="M-10.49,12.84l-1.73,3.37a.19.19,0,0,0,.14.29h1.82a.12.12,0,0,0,.13-.1L-8.52,13a.17.17,0,0,0-.13-.26h-1.68c-.1,0-.14,0-.16.08"/></clipPath><clipPath id="clip-path-26"><rect class="cls-1" x="-10.29" y="8.06" width="4.6" height="3.69"/></clipPath><clipPath id="clip-path-28"><path class="cls-2" d="M-177.66,57.39a1.92,1.92,0,0,1-.93-.24,2,2,0,0,1-1-1.77v-8a2,2,0,0,1,2-2,2,2,0,0,1,2,2v4.26l6.31-4.26-9.37-6.34a2,2,0,0,1-.55-2.77,2,2,0,0,1,2.74-.56l11.84,8a2,2,0,0,1,.88,1.67,2,2,0,0,1-.88,1.66l-11.84,8a2,2,0,0,1-1.09.34"/></clipPath><clipPath id="clip-path-29"><rect class="cls-1" x="-120.36" y="37.35" width="20.49" height="20"/></clipPath><clipPath id="clip-path-30"><path class="cls-2" d="M-108.4,55.76l-.32,0H-109c.09-.18.15-.33.2-.43l.36.38"/></clipPath><clipPath id="clip-path-31"><path class="cls-2" d="M-108.53,47.5a4,4,0,0,1-.54.37l-.62.37a7.19,7.19,0,0,0-.75.15l0,0a.11.11,0,0,0-.07.08l-.63,2.06-3.4.74-1.07-.73-.32-2.49c.61-.11,1.43-.23,2.4-.34q-.15.18-.3.39l-.58.82.85-.56a12.57,12.57,0,0,1,1.43-.78c1-.07,1.92-.11,2.89-.11Zm-5.29,2.8a2,2,0,0,1,.94-.11h.27c.44,0,.81,0,.8-.65s-.31-1.23-.75-1.22-.87.56-.84,1.24a1,1,0,0,0,.08.39.7.7,0,0,0-.5.35Zm11.18-2.24-.3,2.12-1.08.74-3.4-.38-.63-2a.14.14,0,0,0-.1-.1,6.54,6.54,0,0,0-.88-.16h.08a14.09,14.09,0,0,0,2.64-.63C-104.76,47.72-103.5,47.91-102.64,48.06Zm-2.16,2s-.1-.29-.51-.24a.78.78,0,0,0,0-.43c0-.68-.45-1.22-.89-1.2s-.72.58-.7,1.26.39.67.83.66S-105.1,49.88-104.8,50Z"/></clipPath><clipPath id="clip-path-32"><path class="cls-2" d="M-106,49c0,.21-.09.39-.22.39s-.22-.16-.23-.38h0c0-.22.1-.4.22-.4h0c.12,0,.22.17.22.38h0m-6.3.28c0,.22-.09.4-.22.41s-.22-.17-.23-.39h0c0-.21.1-.39.22-.4h0c.13,0,.23.17.23.38"/></clipPath><clipPath id="clip-path-33"><path class="cls-2" d="M-101.15,49a4.67,4.67,0,0,0-.41-.23l-.28,2a.21.21,0,0,1-.06.1l-.41.28s0,.08,0,.12a1.17,1.17,0,0,0,1-.39,7.1,7.1,0,0,0,.22-1.18c0-.51,0-.61,0-.66m-6.29,7.46a1.82,1.82,0,0,1-.72-.45l0,0a4.29,4.29,0,0,1-.5.07h-.37a1.9,1.9,0,0,1-1,.68,6.23,6.23,0,0,0,2.65-.26m-8.7-4.81,0-.09-.52-.36a.11.11,0,0,1-.06-.1L-117,49a4.41,4.41,0,0,0-.47.27s-.09.15,0,.64a9.7,9.7,0,0,0,.31,1.36,1.42,1.42,0,0,0,1.07.34m7.91-.09a.14.14,0,0,1-.12-.1l-.65-2.12-.29,0-.29,0-.64,2.06a.12.12,0,0,1-.1.09l-.3.07a.53.53,0,0,1-.4.35,33.22,33.22,0,0,1-3.65.93,3.11,3.11,0,0,1-.83-.38,4.3,4.3,0,0,1-.18-.46h0a9.16,9.16,0,0,0,1.17,2.21l1.75-.53c.46-.7,1.12-1.39,1.58-1.41h.25c.22,0,.44,0,.64,0a.82.82,0,0,1-.23-.41,2.06,2.06,0,0,0,1.35.36,2.43,2.43,0,0,0,1.23-.53v-.13l-.3,0"/></clipPath><clipPath id="clip-path-34"><path class="cls-2" d="M-107.62,51.82a.79.79,0,0,1-.32-.17v.06a.79.79,0,0,1-.33.56A4.36,4.36,0,0,1-107.2,52a.54.54,0,0,1,.38.15l0,0,1.25,1,1.22.13c.23,0,.43,0,.64,0h.18a9.37,9.37,0,0,0,.57-1.31,3.79,3.79,0,0,1-1,.56,34.35,34.35,0,0,1-3.69-.77"/></clipPath><clipPath id="clip-path-35"><path class="cls-2" d="M-100.3,44.41a1.5,1.5,0,0,0,0-.2c0-.05,0-.09,0-.14a3.82,3.82,0,0,0-.61-.41,7.14,7.14,0,0,0-.73-.37c-.25-.12-.51-.22-.77-.32a3.12,3.12,0,0,0-.39-.15l-.39-.15c.27,0,.55.11.82.18a5.26,5.26,0,0,1,.53.15,8.09,8.09,0,0,0-7.45-5.27A8.07,8.07,0,0,0-116.77,43a5.08,5.08,0,0,1,.52-.15c.27-.07.55-.13.82-.18l-.39.15a3.12,3.12,0,0,0-.39.15c-.26.1-.51.2-.76.32a6.38,6.38,0,0,0-.74.37,5,5,0,0,0-.61.41s0,.09,0,.14,0,.14,0,.2,0,.28,0,.41a7.37,7.37,0,0,0,0,.82,5.42,5.42,0,0,0,.17.8,2.91,2.91,0,0,0,.12.39l.08.18a.36.36,0,0,1,0,.09l0,0,.06,0,.13.06.24.11h0l-.23-.86s.49-.12,1.24-.27l-.19,0-.5-.16-.23-.11a1.16,1.16,0,0,1-.21-.16,13.12,13.12,0,0,0,4,0,41.45,41.45,0,0,1,4.17-.23,41.42,41.42,0,0,1,4.16.23,13.12,13.12,0,0,0,4,0,1.08,1.08,0,0,1-.2.16l-.24.11-.5.16h-.08c.82.15,1.3.28,1.35.29l-.22.82.13-.06.13-.06.06,0,0,0,0-.09.08-.18c.05-.13.09-.26.13-.39a7.08,7.08,0,0,0,.16-.8,7.37,7.37,0,0,0,0-.82c0-.13,0-.27,0-.41"/></clipPath><clipPath id="clip-path-36"><path class="cls-2" d="M-105.92,42.83a5.89,5.89,0,0,1-.17,1.64.11.11,0,0,0,0,.08l-.66-.06a3.41,3.41,0,0,0,.31-1.25,6.31,6.31,0,0,0,.52-.41m-6.3.41a3.6,3.6,0,0,0,.31,1.24l-.66.06a.08.08,0,0,0,0-.07,5.85,5.85,0,0,1-.17-1.64,6.31,6.31,0,0,0,.52.41m9,1.81v0l.07,0c.2.07.41.14.6.22a2.23,2.23,0,0,1-.64-1.26,4.74,4.74,0,0,1,0,1M-113,42.71l-2.1.59a6.62,6.62,0,0,0-.07,1.63h0a6.08,6.08,0,0,1,.21-1.22c.07-.17.51-.28.85-.36s.87-.24,1,.23a3.37,3.37,0,0,0,.23.7,6.92,6.92,0,0,1-.11-1.57m7.36,0a6.29,6.29,0,0,1-.13,1.65,3.43,3.43,0,0,0,.28-.78c.1-.47.64-.31,1-.23s.78.19.85.36a5,5,0,0,1,.2,1.16,6.59,6.59,0,0,0-.07-1.57l-2.1-.59m-6.59.18.23.17a.11.11,0,0,1,.06.11,3.36,3.36,0,0,0,.32,1.27l0,0c.76-.05,1.52-.07,2.28-.07s1.53,0,2.29.07v0a3.36,3.36,0,0,0,.32-1.27.11.11,0,0,1,.06-.11l.22-.16v0a10.21,10.21,0,0,0-.32-3.62c0,.47-.12,4.54-1.15,4.54h-2.83c-1.09,0-1.17-4.59-1.17-4.59l-.06.17a10.3,10.3,0,0,0-.29,3.52m-3.2,2.18v0a5.26,5.26,0,0,1,0-1,2.3,2.3,0,0,1-.65,1.26,6.13,6.13,0,0,1,.6-.22l.07,0"/></clipPath><clipPath id="clip-path-37"><path class="cls-2" d="M-102.33,51.22l-.06.27a2.76,2.76,0,0,0,.79.06,2.18,2.18,0,0,0,.27-.72,1.17,1.17,0,0,1-1,.39m-8.37,5.62A5.13,5.13,0,0,0-109,57a6.84,6.84,0,0,0,2.07-.47,1.71,1.71,0,0,1-.5-.1,6.23,6.23,0,0,1-2.65.26,2.84,2.84,0,0,1-.48.11l-.13,0m-5.4-5.07,0-.13a1.42,1.42,0,0,1-1.07-.34,2.11,2.11,0,0,0,.24.56,2.93,2.93,0,0,0,.87-.09m.6.68a3.11,3.11,0,0,0,.83.38A33.22,33.22,0,0,0-111,51.9a.53.53,0,0,0,.4-.35l-4.15.91h0l-.08,0-.17-.11-.48-.34h0l-.19-.13v0l0,.1h0a4.3,4.3,0,0,0,.18.46m12.72-.79c0-.09,0-.19.07-.29l-.14.1-.39.27-.42.29-.07,0h0l-4.18-.47v.07a.79.79,0,0,0,.32.17,34.35,34.35,0,0,0,3.69.77,3.79,3.79,0,0,0,1-.56h0l.12-.36"/></clipPath><clipPath id="clip-path-38"><path class="cls-2" d="M-107.2,46.13l-.11.13a8.19,8.19,0,0,1-.79.87l-1.17,0c-.67,0-1.3,0-1.9,0a14.79,14.79,0,0,1,3-.89c.33-.06.66-.11,1-.14m-5,.37a6.75,6.75,0,0,0-1,.81c-.74.07-1.48.16-2.21.28a16.8,16.8,0,0,1,3.19-1.09m10.41,1.73-.35,2.39-1.66,1.15-4.33-.49-.65-2.11a.16.16,0,0,0-.11-.1,2.27,2.27,0,0,0-.42,0,2.45,2.45,0,0,0-.43,0,.16.16,0,0,0-.11.1l-.63,2.06-4.31.94L-116.48,51l-.34-2.68.23-.12.35-.08.32,2.53a.17.17,0,0,0,.06.1l1.18.81.08,0h0l3.54-.77,0,0a.1.1,0,0,0,.06-.08l.64-2.07a4.74,4.74,0,0,1,1-.14,4.73,4.73,0,0,1,1,.14l.64,2.07a.14.14,0,0,0,.12.1l3.54.39a.12.12,0,0,0,.1,0l1.17-.81a.13.13,0,0,0,.06-.09l.31-2.16.59.11m.44-1.49-.31,1.13a33.57,33.57,0,0,0-3.85-.57,9.48,9.48,0,0,0,1.79-1c1.11.15,1.93.32,2.37.42m-15.88,0,.08.31c.21-.16.42-.32.64-.46-.3,0-.54.11-.72.15"/></clipPath><clipPath id="clip-path-39"><path class="cls-2" d="M-105.26,46.1l-1.4-.07a1.88,1.88,0,0,1-.16.23,8.91,8.91,0,0,1-1.37,1.46,11.15,11.15,0,0,0,3.32-1.6l-.39,0m-3.42-.12h-1.75l-.64.3h0a7.4,7.4,0,0,0-1.73,1.21l.22-.11A10.83,10.83,0,0,1-109.2,46h.52m-3.94.08-.89,0-1,.07-.52,0-.14,0a13.92,13.92,0,0,0-3.34,2.71l.06-.07a13.46,13.46,0,0,1,5.86-2.81m9.87,7.53,0,0a1.8,1.8,0,0,1-.87.17c-.22,0-.44,0-.68,0-.48,0-1.29-.14-1.3-.14h-.06l0,0-1.29-1-.06,0c-.06,0-.06,0-.1,0a12.74,12.74,0,0,0-1.89.52l-.07,0-.07,0a5.2,5.2,0,0,0-1.7-.29h-.23c-.09,0-.61.25-1.27,1.28l0,.06-.08,0s-1.15.36-2.36.7l-.08,0-.07,0-.93-.42.1,0c.44.38,1.29,1.11,1.39,1.21l0,.05-.06-.07h0a2.26,2.26,0,0,0,.65.46,1.6,1.6,0,0,0,.37.12h.39l.8-.06.81-.08.79-.11.4-.06.18-.06a.61.61,0,0,0,.14-.1l.3-.27.28-.29c.15-.16.29-.33.44-.5l.06-.06h0l.09.07.56.4a7.8,7.8,0,0,0,.71.46l.19.09h.19l.42,0,.84-.15.84-.17.83-.19a2.67,2.67,0,0,0,.4-.13,1.92,1.92,0,0,0,.35-.23,2.64,2.64,0,0,0,.54-.65h0a2,2,0,0,0,.19-.42m-5.23-13h.49v-1h-3.6v1h.49v-.5h1v3H-110v.56h1.42v-.56H-109v-3h1v.5"/></clipPath><clipPath id="clip-path-40"><path class="cls-2" d="M-104.25,46.17h0l-.61,0h0a11.15,11.15,0,0,1-3.32,1.6l0,0a10.94,10.94,0,0,0,2.48-.73,9.13,9.13,0,0,0,1.39-.77l.1-.07m-5-.2a11,11,0,0,0-3.39,1.42c.4-.2.8-.39,1.22-.56l.15-.06,0,0,.12,0,.07,0,.12,0,.09,0,.1,0,.1,0,.1,0,.12,0,.09,0,.14-.05.08,0,.21-.07.49-.14.66-.16h-.52m-3.42.09a13.46,13.46,0,0,0-5.86,2.81l-.06.07a18.93,18.93,0,0,1,5.37-2.57l.23-.07c.4-.11.8-.2,1.21-.28l-.89,0m10.3,7.33-.07,0,0,0h0l0,0h0l0,0h0l0,0h0l-.11.05a2,2,0,0,1-.19.42h0a2.64,2.64,0,0,1-.54.65,1.92,1.92,0,0,1-.35.23,2.67,2.67,0,0,1-.4.13l-.83.19-.84.17-.84.15-.42,0h-.19l-.19-.09a7.8,7.8,0,0,1-.71-.46l-.56-.4v0h0l0,0h0l0,0,.15.18,0,0c.08.09.4.46.79.84a1.47,1.47,0,0,0,1.06.44,1.72,1.72,0,0,0,.44-.06l.43-.1c.46-.11,1-.22,1.29-.31l.07,0,.12,0,.2,0a1.65,1.65,0,0,0,1.25-.79l.26-.52.45-.84h0l0,0-.07,0m-6.61,1.24,0,0c-.15.17-.29.34-.44.5l-.28.29-.3.27a.61.61,0,0,1-.14.1l-.18,0-.4.07-.79.11-.81.08-.8.06h-.39a2.29,2.29,0,0,1-.37-.12,2.44,2.44,0,0,1-.65-.45h0l.08.09,0,0,0-.05c-.1-.1-1-.83-1.39-1.21l-.1,0c.08.12.17.24.25.37l.4.55.18.23a2.67,2.67,0,0,0,2.26,1.18l.46,0h.21c1-.12,1.29-.17,1.45-.19l.11,0h0a2.4,2.4,0,0,0,.69-.2,1.15,1.15,0,0,0,.57-.52c.28-.62.33-.77.34-.78l.1-.26"/></clipPath><clipPath id="clip-path-41"><path class="cls-2" d="M-106.19,49a.21.21,0,0,0,.22-.22.22.22,0,0,0-.22-.22h0a.22.22,0,0,0-.22.22h0A.23.23,0,0,0-106.19,49Zm1.39,1c-.3-.14-.63,0-1.22,0s-.81,0-.83-.66.26-1.25.7-1.26.84.52.89,1.2a.78.78,0,0,1,0,.43C-104.9,49.73-104.81,50-104.8,50Zm-7.69-.83a.22.22,0,0,0,.22-.23.22.22,0,0,0-.23-.22.24.24,0,0,0-.22.23A.24.24,0,0,0-112.49,49.19Zm.68.35c0,.68-.36.64-.8.65h-.27a2,2,0,0,0-.94.11.7.7,0,0,1,.5-.35,1,1,0,0,1-.08-.39c0-.68.4-1.24.84-1.24S-111.81,48.86-111.81,49.54Zm8.33-4.67a.49.49,0,0,1,0,.12l-.52-.13a17.42,17.42,0,0,0-1.76-.28h-.07v0a1.8,1.8,0,0,0,0-.19,6.29,6.29,0,0,0,.13-1.65l2.1.59A6.59,6.59,0,0,1-103.48,44.87Zm-2.61-.4a.11.11,0,0,0,0,.08l-.66-.06a3.41,3.41,0,0,0,.31-1.25,6.31,6.31,0,0,0,.52-.41A5.89,5.89,0,0,1-106.09,44.47Zm-6.48.07a.08.08,0,0,0,0-.07,5.89,5.89,0,0,1-.17-1.64,6.31,6.31,0,0,0,.52.41,3.6,3.6,0,0,0,.31,1.24Zm-.31,0c-.3,0-.59.07-.89.12l-.87.16-.53.13v-.06a6.62,6.62,0,0,1,.07-1.63l2.1-.59a6.92,6.92,0,0,0,.11,1.57,2.68,2.68,0,0,0,.07.27v0Zm10.53.83-.05,0-.09,0-.06,0c-.19-.08-.4-.15-.6-.22l-.07,0v0a4.74,4.74,0,0,0,0-1c0-.26,0-.55-.1-.88a.16.16,0,0,0-.1-.11l-.3-.08a5.43,5.43,0,0,0-1-3.39,6.07,6.07,0,0,1,.83,3.33l-1.85-.52h-.14l-.13.12a6.55,6.55,0,0,0,0-.75v-.09a7,7,0,0,0-.82-2.92s.06.18.13.46a10.24,10.24,0,0,1,.32,3.62v0h0l-.22.16a.11.11,0,0,0-.06.11,3.36,3.36,0,0,1-.32,1.27v0c-.76-.05-1.53-.07-2.29-.07s-1.52,0-2.28.07l0,0a3.36,3.36,0,0,1-.32-1.27.11.11,0,0,0-.06-.11l-.23-.17a10.3,10.3,0,0,1,.29-3.52c.09-.35.16-.56.17-.58a7.4,7.4,0,0,0-.85,3.76l-.13-.12h-.13l-1.86.52a6.16,6.16,0,0,1,.83-3.33A5.43,5.43,0,0,0-115,43l-.3.08a.16.16,0,0,0-.1.11,6.4,6.4,0,0,0-.09.88,5.26,5.26,0,0,0,0,1v0l-.07,0c-.2.07-.41.14-.6.22l-.06,0h0l-.09,0,0,0,0,0a2.25,2.25,0,0,1,.42-.13,3.29,3.29,0,0,1,.43-.09c.29-.06.58-.1.87-.14l.88-.09.88-.07c1.17-.06,2.34-.09,3.52-.09s2.35,0,3.53.09l.87.07c.3,0,.59.06.88.09s.58.08.87.14a3.29,3.29,0,0,1,.43.09,2,2,0,0,1,.42.13Z"/></clipPath><clipPath id="clip-path-42"><path class="cls-2" d="M-109,40.11v3h.42v.56H-110v-.56h.42v-3h-1v.5h-.49v-1h3.6v1H-108v-.5Zm1.89.87V39.26h-4.36V41h1.24v-.5h.28v2.31h-.42v1.3h2.16v-1.3h-.42V40.48h.28V41Z"/></clipPath><clipPath id="clip-path-43"><rect class="cls-1" x="-88.13" y="37.25" width="19.26" height="20"/></clipPath></defs><title>guice</title><rect class="cls-1" x="-612.96" y="-1120.26" width="1366" height="2644"/><rect class="cls-1" x="-904.57" y="-1249.83" width="1366" height="3311"/><path class="cls-3" d="M-77.65-110l-2.93,2.93a.24.24,0,0,1-.35,0l-.66-.66a.24.24,0,0,1,0-.35l2.09-2.1-2.09-2.09a.25.25,0,0,1,0-.36l.66-.65a.24.24,0,0,1,.35,0l2.93,2.93A.24.24,0,0,1-77.65-110Z"/><g class="cls-17"><rect class="cls-3" x="-637.73" y="-459.19" width="742.75" height="1800.34"/></g><rect class="cls-3" x="-76.67" y="-108.75" width="5.55" height="1.51" rx="0.38"/><g class="cls-18"><rect class="cls-3" x="-636.73" y="-459.19" width="742.75" height="1800.34"/></g><rect class="cls-1" x="-662.98" y="-1176.12" width="1366" height="3024"/><path d="M7.54,12.39V13a3,3,0,0,1-3.08,3.26,3.5,3.5,0,1,1,0-7,3.25,3.25,0,0,1,1.94.62,5.55,5.55,0,0,1,.71.61l-.85.82a3.33,3.33,0,0,0-.58-.54,2,2,0,0,0-1.23-.39,2.38,2.38,0,0,0,0,4.75,1.8,1.8,0,0,0,1.63-.88,1.85,1.85,0,0,0,.23-.71H4.43V12.39Z"/><path d="M11.31,15.84a1.48,1.48,0,0,1-1,.38,1.9,1.9,0,0,1-1.37-.59A2.2,2.2,0,0,1,8.41,14V11.62H9.55v2.32a1.45,1.45,0,0,0,.22,1,.75.75,0,0,0,.6.24.89.89,0,0,0,.73-.31,1.6,1.6,0,0,0,.21-1V11.62h1.14v4.45H11.31Z"/><path d="M14.82,10.1a.72.72,0,0,1-1.44,0,.72.72,0,0,1,1.44,0Zm-.15,6H13.52V11.62h1.15Z"/><path d="M19,13.14c-.51-.54-.7-.64-1.14-.64a1.21,1.21,0,0,0-1.22,1.34,1.21,1.21,0,0,0,1.23,1.34A1.44,1.44,0,0,0,19,14.52l.76.73a2.39,2.39,0,0,1-1.93,1,2.38,2.38,0,1,1,0-4.75,2.42,2.42,0,0,1,1.9.92Z"/><path d="M21.19,14.27a1.1,1.1,0,0,0,1.11.91,1.31,1.31,0,0,0,.95-.37,2,2,0,0,0,.23-.31l1,.4a2.31,2.31,0,0,1-2.14,1.32A2.3,2.3,0,0,1,20,13.84a2.29,2.29,0,0,1,2.25-2.37,2.17,2.17,0,0,1,2.09,1.59,3.14,3.14,0,0,1,.12.89c0,.07,0,.15,0,.32Zm2.14-.85c-.2-.64-.54-.94-1.07-.94a1.09,1.09,0,0,0-1.07.94Z"/><rect class="cls-1" x="-545.78" y="-976.67" width="1366" height="2291"/><rect class="cls-1" x="-559.85" y="-1354.02" width="1366" height="2291"/><rect class="cls-1" x="-761.29" y="-1096.25" width="1366" height="2291"/><rect class="cls-1" x="-761.29" y="-1096.25" width="1366" height="2291"/><rect class="cls-1" x="-761.29" y="-1096.25" width="1366" height="2291"/><rect class="cls-1" x="-401.35" y="-1635.24" width="1366" height="2291"/><rect class="cls-1" x="-698.39" y="-1097.25" width="1366" height="2291"/></svg>