<svg id="Layer_1" data-name="Layer 1" xmlns="http://www.w3.org/2000/svg" xmlns:xlink="http://www.w3.org/1999/xlink" viewBox="0 0 30 30"><defs><style>.cls-1,.cls-2{fill:none;}.cls-2{clip-rule:evenodd;}.cls-27,.cls-3{fill:#fff;}.cls-4{clip-path:url(#clip-path);}.cls-5{clip-path:url(#clip-path-2);}.cls-6{clip-path:url(#clip-path-3);}.cls-7{clip-path:url(#clip-path-4);}.cls-8{clip-path:url(#clip-path-5);}.cls-9{clip-path:url(#clip-path-6);}.cls-10{clip-path:url(#clip-path-7);}.cls-11{clip-path:url(#clip-path-8);}.cls-12{clip-path:url(#clip-path-9);}.cls-13{clip-path:url(#clip-path-10);}.cls-14{clip-path:url(#clip-path-11);}.cls-15{clip-path:url(#clip-path-12);}.cls-16{clip-path:url(#clip-path-13);}.cls-17{clip-path:url(#clip-path-14);}.cls-18{clip-path:url(#clip-path-15);}.cls-19{clip-path:url(#clip-path-16);}.cls-20{clip-path:url(#clip-path-17);}.cls-21{clip-path:url(#clip-path-18);}.cls-22{clip-path:url(#clip-path-19);}.cls-23{clip-path:url(#clip-path-20);}.cls-24{fill:#d1d3d4;}.cls-24,.cls-25,.cls-27{fill-rule:evenodd;}.cls-25{fill:#fbb040;}.cls-26{fill:#ffdb96;}</style><clipPath id="clip-path"><path class="cls-1" d="M-143.66-53a2.07,2.07,0,0,0-2.26,2c0,1.26.74,1.86,1.85,2.33l.39.17c.7.3,1.05.49,1.05,1s-.33.76-1,.76-1.13-.51-1.46-1.05l-1.21.8a2.81,2.81,0,0,0,2.7,1.62c1.47,0,2.56-.76,2.56-2.15s-.74-1.86-2.05-2.42l-.39-.17c-.66-.29-1-.47-1-.94a.68.68,0,0,1,.74-.66,1,1,0,0,1,1,.66l1.21-.77A2.28,2.28,0,0,0-143.66-53Zm-5,0v5.09c0,.78-.3,1-.81,1a1.32,1.32,0,0,1-1.16-.77l-1.27.77a2.84,2.84,0,0,0,2.52,1.62,2.12,2.12,0,0,0,2.34-2.35V-53Zm-6.61-6.88h14.84a.27.27,0,0,1,.27.27v14.84a.27.27,0,0,1-.27.27h-14.84a.27.27,0,0,1-.27-.27V-59.59A.27.27,0,0,1-155.31-59.86Zm0-.81a1.09,1.09,0,0,0-1.08,1.08v14.84a1.09,1.09,0,0,0,1.08,1.08h14.84a1.08,1.08,0,0,0,1.08-1.08V-59.59a1.09,1.09,0,0,0-1.08-1.08Z"/></clipPath><clipPath id="clip-path-2"><path class="cls-2" d="M-117.51-52l-.31-.49c-.1-.16-.2-.34-.29-.52a4.77,4.77,0,0,1-.47-1.15,2,2,0,0,1,.63-1.73c0-.07.12-.14.18-.21.39-.46.93-1,1.35-1.45a2.56,2.56,0,0,0,.73-1.7c0-.39,0-1.22-.29-1.37a2.78,2.78,0,0,1-.12,1.56,3.39,3.39,0,0,1-1.12,1.48c-.38.33-1,.92-1.34,1.26a3.49,3.49,0,0,0-.72,1A1.4,1.4,0,0,0-119-54c.12.19.23.36.35.53s.27.34.38.49.27.32.39.48.34.4.42.46"/></clipPath><clipPath id="clip-path-3"><path class="cls-2" d="M-112.21-47c.16.2,0,.28-.23.36a28.34,28.34,0,0,1-5.46.44,22.71,22.71,0,0,1-3.21-.16c-.17,0-.92-.11-1-.26s.11-.17.17-.2a4.34,4.34,0,0,1,1-.23,3.13,3.13,0,0,0,.36,0,4.75,4.75,0,0,0-2.46.52c-.22.24.15.35.4.41a22.13,22.13,0,0,0,3.86.29c1.52,0,5.17,0,6.5-.69.08,0,.23-.13.25-.21s-.14-.2-.22-.22"/></clipPath><clipPath id="clip-path-4"><path class="cls-2" d="M-116.35-50.77a4.52,4.52,0,0,0,.81-.59,1.5,1.5,0,0,0,.5-.89,1.87,1.87,0,0,0-.37-1c-.48-.7-.86-1.1-.21-1.87a4.66,4.66,0,0,1,.72-.68c.33-.26.86-.61,1.24-.85l.44-.27a8,8,0,0,0-1.08.36,5.86,5.86,0,0,0-1,.45c-1,.54-1.93,1.39-1.54,2.57.26.79,1,1.27,1,1.87a2.44,2.44,0,0,1-.51.91"/></clipPath><clipPath id="clip-path-5"><path class="cls-2" d="M-114.45-47.58a5.07,5.07,0,0,1-.86-.37c-.17-.09-.1-.08-.32,0a17.17,17.17,0,0,1-3.22.16c-.24,0-.91,0-1-.22s0-.2.08-.27c-.61.1-1.22.53-.38.89a9.44,9.44,0,0,0,4,.24,12,12,0,0,0,1.77-.4"/></clipPath><clipPath id="clip-path-6"><path class="cls-2" d="M-114.45-48.79a1.28,1.28,0,0,1-.55-.31c-.12-.1-.08-.07-.33,0a14.28,14.28,0,0,1-4.41.1c-.1,0-.22-.11-.23-.22s.12-.22.17-.29c-.63.07-1.23.67-.39.95a12,12,0,0,0,4,.21,10.3,10.3,0,0,0,1.76-.41"/></clipPath><clipPath id="clip-path-7"><path class="cls-2" d="M-113.22-51.48l-.42.06-.44.05c-.9.1-1.89.19-2.78.23-.7,0-3.33.11-3.72-.2,0-.14.16-.22.27-.27a8.46,8.46,0,0,1,1.38-.39,7.62,7.62,0,0,0-2.72.61c-.6.31.41.44.78.48a26.66,26.66,0,0,0,6.44-.14,1.43,1.43,0,0,0,.68-.15c.16-.09.38-.18.53-.28"/></clipPath><clipPath id="clip-path-8"><path class="cls-2" d="M-120.6-45a12.76,12.76,0,0,0,2.52.36,25.16,25.16,0,0,0,2.88,0,12.35,12.35,0,0,0,3.69-.61c.26-.1.71-.35.75-.58l-.21.12c-1.87,1-6.14.93-8.34.8L-120.6-45"/></clipPath><clipPath id="clip-path-9"><path class="cls-2" d="M-112.87-51.7a1.15,1.15,0,0,1,1.23.24,1.34,1.34,0,0,1,.09,1.4A4.68,4.68,0,0,1-113-48.49a2.27,2.27,0,0,0-.25.18,4.69,4.69,0,0,0,1.41-.68,2.59,2.59,0,0,0,1-1.2,1.35,1.35,0,0,0-.5-1.58,1.26,1.26,0,0,0-.8-.23,1,1,0,0,0-.73.3"/></clipPath><clipPath id="clip-path-10"><path class="cls-1" d="M-87.64-58a.67.67,0,0,1,.64.68.66.66,0,0,1-.64.68.66.66,0,0,1-.65-.68A.67.67,0,0,1-87.64-58Zm1.86-1.1a10.42,10.42,0,0,0-1.65.15c-1.45.27-1.72.83-1.72,1.86v1.36h3.45v.45h-4.74a2.17,2.17,0,0,0-2.15,1.81,6.92,6.92,0,0,0,0,3.64c.24,1,.83,1.81,1.83,1.81h1.18v-1.64a2.23,2.23,0,0,1,2.15-2.21H-84a1.78,1.78,0,0,0,1.73-1.82v-3.4A2,2,0,0,0-84-58.94,10.81,10.81,0,0,0-85.78-59.09Z"/></clipPath><clipPath id="clip-path-11"><path class="cls-1" d="M-83.73-46.61a.66.66,0,0,1,.64.67.66.66,0,0,1-.64.68.66.66,0,0,1-.65-.68A.66.66,0,0,1-83.73-46.61Zm1.93-8.55v1.57a2.24,2.24,0,0,1-2.15,2.25h-3.43a1.78,1.78,0,0,0-1.72,1.8v3.38c0,1,.81,1.53,1.72,1.8a5.57,5.57,0,0,0,3.43,0c.87-.26,1.72-.78,1.72-1.8v-1.35h-3.43V-48h5.15c1,0,1.37-.72,1.72-1.8a6.28,6.28,0,0,0,0-3.6c-.25-1-.72-1.8-1.72-1.8Z"/></clipPath><clipPath id="clip-path-12"><path class="cls-2" d="M-12.07-50.89l.36-1.69h-1.62l-.36,1.69Zm-3.35,1.27H-16.5l.27-1.27h1.08l.35-1.69h-1.07l.27-1.28h1.07l.61-2.86,1.41.31L-13-53.86h1.63l.61-2.86,1.4.28L-10-53.86h1.07l-.28,1.28h-1.06l-.36,1.69h1.06l-.27,1.27h-1.06l-.61,2.87-1.4-.32.54-2.55H-14l-.61,2.87-1.4-.32ZM-17.48-55l-1.25,1.16a5.76,5.76,0,0,0-.87-.79,3.13,3.13,0,0,0-1.82-.55,3.37,3.37,0,0,0-3.46,3.4,3.39,3.39,0,0,0,3.45,3.38A3.21,3.21,0,0,0-19.51-49a5,5,0,0,0,.82-.73l1.25,1.15a5.17,5.17,0,0,1-4,1.81,5.12,5.12,0,0,1-5.25-5,5.12,5.12,0,0,1,5.27-5A5.21,5.21,0,0,1-17.48-55Z"/></clipPath><clipPath id="clip-path-13"><path class="cls-3" d="M-53.5-18.87l-2.93,2.92a.24.24,0,0,1-.35,0l-.66-.65a.25.25,0,0,1,0-.36l2.1-2.09-2.1-2.09a.25.25,0,0,1,0-.36l.66-.65a.24.24,0,0,1,.35,0l2.93,2.92A.25.25,0,0,1-53.5-18.87Z"/></clipPath><clipPath id="clip-path-14"><rect class="cls-3" x="-52.52" y="-17.63" width="5.55" height="1.51" rx="0.38"/></clipPath><clipPath id="clip-path-15"><polygon class="cls-1" points="-157.37 10.61 -136.97 10.61 -136.97 18.04 -147.17 18.04 -147.17 19.36 -151.84 19.36 -151.84 18.04 -157.37 18.04 -157.37 10.61"/></clipPath><clipPath id="clip-path-16"><polygon class="cls-1" points="-155.19 17.17 -153.36 17.17 -153.36 13.46 -152.27 13.46 -152.27 17.17 -151.54 17.17 -151.54 12.07 -155.19 12.07 -155.19 17.17"/></clipPath><clipPath id="clip-path-17"><path class="cls-1" d="M-147.17,15.4h-1.09V13.32h1.09Zm-2.91-3.33V17.9h1.82V16.65h1.82V12.07Z"/></clipPath><clipPath id="clip-path-18"><polygon class="cls-1" points="-145.71 12.07 -145.71 17.17 -143.66 17.17 -143.66 13.46 -142.44 13.46 -142.44 17.17 -141.21 17.17 -141.21 13.46 -139.98 13.46 -139.98 17.17 -139.16 17.17 -139.16 12.07 -145.71 12.07"/></clipPath><clipPath id="clip-path-19"><path class="cls-1" d="M-74.54,13.86v2.77A1.38,1.38,0,0,1-75.92,18h-2.77a1.38,1.38,0,0,1-1.38-1.38V13.86a1.38,1.38,0,0,1,1.38-1.38h2.77A1.38,1.38,0,0,1-74.54,13.86Zm-7.37,0v2.77A1.38,1.38,0,0,1-83.3,18h-2.76a1.38,1.38,0,0,1-1.39-1.38V13.86a1.38,1.38,0,0,1,1.39-1.38h2.76A1.38,1.38,0,0,1-81.91,13.86Zm-7.38,0v2.77A1.38,1.38,0,0,1-90.68,18h-2.76a1.38,1.38,0,0,1-1.39-1.38V13.86a1.38,1.38,0,0,1,1.39-1.38h2.76A1.38,1.38,0,0,1-89.29,13.86Z"/></clipPath><clipPath id="clip-path-20"><path class="cls-1" d="M-45.86,19.14h-3.69V13.28H-46v1.09h-2.26v1.22h2.13v1.07h-2.13v1.39h2.38v1.09ZM-46.15,24H-58.94V20.23h12.79ZM-59.4,19.14V13.28h3.57v1.09h-2.26v1.22H-56v1.07h-2.13v1.39h2.38v1.09Zm4.21-5.86h1.51l.5,1.07c.17.36.3.65.44,1h0c.13-.38.25-.64.39-1l.49-1.07h1.49L-52,16.14l1.72,3h-1.51l-.52-1.06c-.22-.41-.36-.71-.52-1h0c-.12.34-.26.64-.44,1l-.48,1.06h-1.5l1.68-3Zm-3.75-7.5h9v4a.39.39,0,0,0,.38.39h3.43v2H-58.94Zm14,6.37h-.48V9.79a.35.35,0,0,0-.1-.25l-3.81-4.41h0a.24.24,0,0,0-.08-.06l0,0-.08,0h-9.47a.78.78,0,0,0-.78.78v6.37h-.47a1.12,1.12,0,0,0-1.11,1.12V19.1a1.12,1.12,0,0,0,1.11,1.13h.47v4a.78.78,0,0,0,.78.78h12.79a.78.78,0,0,0,.77-.78v-4h.48a1.12,1.12,0,0,0,1.1-1.13V13.27A1.11,1.11,0,0,0-44.9,12.15Z"/></clipPath></defs><title>homebrew_icon</title><rect class="cls-1" x="-588.81" y="-1029.14" width="1366" height="2644"/><rect class="cls-1" x="-880.42" y="-1158.72" width="1366" height="3311"/><path class="cls-3" d="M-53.5-18.87l-2.93,2.92a.24.24,0,0,1-.35,0l-.66-.65a.25.25,0,0,1,0-.36l2.1-2.09-2.1-2.09a.25.25,0,0,1,0-.36l.66-.65a.24.24,0,0,1,.35,0l2.93,2.92A.25.25,0,0,1-53.5-18.87Z"/><g class="cls-16"><rect class="cls-3" x="-613.57" y="-368.08" width="742.75" height="1800.34"/></g><rect class="cls-3" x="-52.52" y="-17.63" width="5.55" height="1.51" rx="0.38"/><g class="cls-17"><rect class="cls-3" x="-612.57" y="-368.08" width="742.75" height="1800.34"/></g><rect class="cls-1" x="-638.83" y="-1085" width="1366" height="3024"/><g id="Group"><g id="Path"><path class="cls-24" d="M13.76,8.44a3.23,3.23,0,0,0-2.29-3.56C11,6.61,13,8.21,13.76,8.44Z"/><path d="M13.76,8.51h0c-.8-.25-2.83-1.88-2.33-3.63,0,0,0,0,0,0h.05a3.27,3.27,0,0,1,2.33,3.61.08.08,0,0,1,0,.05ZM11.51,5a2.46,2.46,0,0,0,.69,2.22,4.3,4.3,0,0,0,1.5,1.16,3.6,3.6,0,0,0-.47-2.07A3.42,3.42,0,0,0,11.51,5Z"/><path class="cls-24" d="M18.48,11.49A3.68,3.68,0,0,0,17.89,9a2.54,2.54,0,0,0-1.81-1c-.79,0-1,.42-1.71.44a2.39,2.39,0,0,1,.88-2.06,1.61,1.61,0,0,0-.5-.48,2.93,2.93,0,0,0-1,2.5c-.68-.12-1.15-.51-1.86-.37A2.83,2.83,0,0,0,9.68,10,5.11,5.11,0,0,0,10,13.21c.13.42,1.11,2.23,1.89,2.5s.77.14,1.18,0a2.47,2.47,0,0,1,2-.12c.92.34,1,.42,1.61,0a6.6,6.6,0,0,0,1.49-1.86,4.07,4.07,0,0,0,.32-.68C19,12.8,18.43,12.81,18.48,11.49Z"/><path d="M12.52,15.93a2.37,2.37,0,0,1-.68-.16c-.8-.28-1.8-2.11-1.93-2.54,0-.05,0-.1-.06-.17A4.85,4.85,0,0,1,9.62,10a2.88,2.88,0,0,1,2.25-2.09,2.1,2.1,0,0,1,1.23.18,4.58,4.58,0,0,0,.56.17,3,3,0,0,1,1.05-2.47.08.08,0,0,1,.07,0,1.83,1.83,0,0,1,.53.51.06.06,0,0,1,0,.08,2.38,2.38,0,0,0-.86,2,2,2,0,0,0,.71-.21,1.87,1.87,0,0,1,.95-.23A2.62,2.62,0,0,1,17.94,9a3.84,3.84,0,0,1,.61,2.54h0a2.85,2.85,0,0,0,.13,1.11c.08.26.09.36-.22.52a4,4,0,0,1-.28.59l0,.07a6.86,6.86,0,0,1-1.51,1.89c-.57.36-.73.3-1.52,0L15,15.63a2.32,2.32,0,0,0-1.83.09l-.08,0-.17.07A.83.83,0,0,1,12.52,15.93ZM12.18,8l-.29,0a2.8,2.8,0,0,0-2.16,2A4.82,4.82,0,0,0,10,13a1.62,1.62,0,0,0,.06.17c.13.41,1.1,2.2,1.85,2.46s.71.17,1,.06l.18-.08.08,0A2.45,2.45,0,0,1,15,15.51l.16.06c.77.28.89.32,1.4,0A6.35,6.35,0,0,0,18,13.72l0-.07a4,4,0,0,0,.28-.59s0,0,0,0,.2-.12.22-.16a.53.53,0,0,0,0-.22,3.27,3.27,0,0,1-.14-1.15h0A3.56,3.56,0,0,0,17.83,9a2.4,2.4,0,0,0-1.75-1,1.65,1.65,0,0,0-.89.21,2,2,0,0,1-.82.22.05.05,0,0,1-.06,0,2.44,2.44,0,0,1,.86-2.08,1.74,1.74,0,0,0-.41-.4,2.88,2.88,0,0,0-1,2.42.14.14,0,0,1,0,.06l-.06,0a5.7,5.7,0,0,1-.66-.2A2.42,2.42,0,0,0,12.18,8Z"/></g><g id="Shape"><path class="cls-3" d="M20,22.28a1.33,1.33,0,0,0,1-.4,1.38,1.38,0,0,0,.41-1v-5A1.36,1.36,0,0,0,21,15a1.35,1.35,0,0,0-1-.41H18.84a.29.29,0,0,1-.3-.3v-.73h-9s0,9.23,0,10.59a.31.31,0,0,0,.14.26,9.86,9.86,0,0,0,4.37.67c2.74,0,4-.59,4.32-.86a.3.3,0,0,0,.11-.23V22.59a.28.28,0,0,1,.09-.22.31.31,0,0,1,.22-.09Zm-1.44-6.11a.38.38,0,0,1,.38-.38h1a.4.4,0,0,1,.27.11.39.39,0,0,1,.11.27v4.46a.39.39,0,0,1-.11.27.4.4,0,0,1-.27.11h-1a.38.38,0,0,1-.38-.38Z"/><path d="M14.11,25.11c-3.07,0-4.21-.57-4.4-.68h0a.37.37,0,0,1-.17-.31c0-1.36,0-10.59,0-10.59l0,0,.05,0h9a.06.06,0,0,1,.06.06v.73a.24.24,0,0,0,.24.24H20a1.43,1.43,0,0,1,1,.42,1.45,1.45,0,0,1,.42,1v5a1.45,1.45,0,0,1-.42,1,1.49,1.49,0,0,1-1,.42H18.85a.24.24,0,0,0-.25.25V24a.37.37,0,0,1-.13.28h0C18.27,24.39,17.16,25.11,14.11,25.11Zm-4.34-.79c.2.11,1.3.66,4.34.66s4.09-.69,4.28-.84a.23.23,0,0,0,.08-.18V22.59a.4.4,0,0,1,.12-.27.35.35,0,0,1,.26-.1H20a1.34,1.34,0,0,0,.93-.38,1.37,1.37,0,0,0,.39-.93v-5A1.31,1.31,0,0,0,20,14.63H18.84a.38.38,0,0,1-.37-.37V13.6H9.64c0,.81,0,9.23,0,10.52A.23.23,0,0,0,9.77,24.32ZM19.9,21.07h-1a.4.4,0,0,1-.31-.13.41.41,0,0,1-.14-.31V16.17a.41.41,0,0,1,.14-.31.4.4,0,0,1,.31-.13h1a.42.42,0,0,1,.31.13.4.4,0,0,1,.13.31v4.46a.4.4,0,0,1-.13.31A.42.42,0,0,1,19.9,21.07Zm-1-5.22a.34.34,0,0,0-.23.1.31.31,0,0,0-.09.22v4.46a.31.31,0,0,0,.09.22.34.34,0,0,0,.23.1h1a.28.28,0,0,0,.22-.1.32.32,0,0,0,.1-.22V16.17a.34.34,0,0,0-.32-.32Z"/></g><g id="Path1"><path class="cls-25" d="M10.46,13.45v9.49a.33.33,0,0,0,.15.27,8.33,8.33,0,0,0,3.49.62,6.61,6.61,0,0,0,3.44-.76.31.31,0,0,0,.14-.25V13.45Z"/></g><g id="Path2"><path class="cls-26" d="M11.52,22.55a.16.16,0,0,1-.16-.16V15.05a.16.16,0,0,1,.32,0v7.34A.16.16,0,0,1,11.52,22.55Z"/></g><g id="Path3"><path class="cls-27" d="M15.6,15.39a.52.52,0,0,0-.24-.42,1.28,1.28,0,0,1-.53-.64,16.76,16.76,0,0,1-4.65-.52,5.88,5.88,0,0,0-.7-.16,1.18,1.18,0,0,1-1-1.15,1.15,1.15,0,0,1,1.12-1.16,1.42,1.42,0,0,1,2.81.25,1.45,1.45,0,0,1-.08.47h0a1.36,1.36,0,0,1,2.59,0,.76.76,0,0,1,0-.15,1.48,1.48,0,0,1,2.89-.44l.12,0a1.24,1.24,0,0,1,.57-.15,1.16,1.16,0,0,1,1.16,1.16,1.15,1.15,0,0,1-1,1.15,2.24,2.24,0,0,0-.37.1,9.43,9.43,0,0,1-1,.32,1.34,1.34,0,0,1-.15.48,1.59,1.59,0,0,0-.18.86v.13a.63.63,0,0,1-.69.61A.69.69,0,0,1,15.6,15.39Z"/><path d="M16.28,16.14a.74.74,0,0,1-.74-.75.48.48,0,0,0-.21-.37,1.38,1.38,0,0,1-.54-.63,16.94,16.94,0,0,1-4.63-.52,5.73,5.73,0,0,0-.69-.16,1.26,1.26,0,0,1-1-1.21,1.22,1.22,0,0,1,1.13-1.22,1.48,1.48,0,0,1,2.93.31v.06a1.42,1.42,0,0,1,1.16-.59,1.41,1.41,0,0,1,1.22.7,1.56,1.56,0,0,1,1.54-1.4,1.54,1.54,0,0,1,1.45,1H18a1.24,1.24,0,0,1,.59-.16,1.23,1.23,0,0,1,1.23,1.23,1.24,1.24,0,0,1-1.06,1.21,1.58,1.58,0,0,0-.36.09,9.55,9.55,0,0,1-1,.31,1.31,1.31,0,0,1-.15.46,1.47,1.47,0,0,0-.18.82h0v.13A.68.68,0,0,1,16.28,16.14Zm-1.45-1.87a.06.06,0,0,1,.06,0,1.18,1.18,0,0,0,.5.6.6.6,0,0,1,.27.48.63.63,0,0,0,.62.63.57.57,0,0,0,.63-.55v-.13a1.61,1.61,0,0,1,.19-.89,1.45,1.45,0,0,0,.14-.46s0,0,.05-.05c.35-.09.69-.2,1-.32a2.36,2.36,0,0,1,.38-.1,1.1,1.1,0,0,0,.95-1.09,1.09,1.09,0,0,0-1.1-1.09,1.1,1.1,0,0,0-.53.14h0l-.13,0a.06.06,0,0,1-.07,0A1.42,1.42,0,0,0,15,11.9s0,.1,0,.15a.06.06,0,0,1,0,.06.06.06,0,0,1-.07,0,1.3,1.3,0,0,0-2.47,0,.05.05,0,0,1-.07,0h0s0,0,0,0a.07.07,0,0,1,0-.05,1.42,1.42,0,0,0,.08-.45,1.36,1.36,0,0,0-2.69-.24.06.06,0,0,1-.06.05,1.09,1.09,0,0,0-1.06,1.1,1.11,1.11,0,0,0,.9,1.08c.24.05.47.1.71.17a16.82,16.82,0,0,0,4.63.52Z"/></g></g></svg>