<?xml version="1.0" encoding="utf-8"?>
<!-- Generator: Adobe Illustrator 21.1.0, SVG Export Plug-In . SVG Version: 6.00 Build 0)  -->
<svg version="1.1" id="Layer_1" xmlns="http://www.w3.org/2000/svg" xmlns:xlink="http://www.w3.org/1999/xlink" x="0px" y="0px"
	 viewBox="0 0 15 15" style="enable-background:new 0 0 15 15;" xml:space="preserve">
<style type="text/css">
	.st0{clip-path:url(#SVGID_2_);fill:#0D0D0D;}
	.st1{clip-path:url(#SVGID_4_);fill:#0D0D0D;}
	.st2{clip-path:url(#SVGID_6_);fill:#0D0D0D;}
	.st3{clip-path:url(#SVGID_8_);fill:#0D0D0D;}
	.st4{clip-path:url(#SVGID_10_);fill:#0D0D0D;}
	.st5{clip-path:url(#SVGID_12_);fill:#0D0D0D;}
</style>
<g>
	<g>
		<defs>
			<path id="SVGID_1_" d="M4.6,7.5c-0.8,0-1.5,0.4-2.1,0.9h-1C0.7,8.4,0,8.1,0,7.3c0-0.6,0-2.6,1-2.6c0.2,0,1,0.6,2,0.6
				c0.4,0,0.7-0.1,1-0.2c0,0.2,0,0.3,0,0.5C4,6.3,4.2,7,4.6,7.5z"/>
		</defs>
		<clipPath id="SVGID_2_">
			<use xlink:href="#SVGID_1_"  style="overflow:visible;"/>
		</clipPath>
		<rect x="-4.7" y="0" class="st0" width="14.1" height="13.2"/>
	</g>
	<g>
		<defs>
			<path id="SVGID_3_" d="M13,12.2c0,1.2-0.8,1.9-2.1,1.9H4.1c-1.2,0-2.1-0.7-2.1-1.9C2,10.5,2.4,8,4.7,8C5,8,5.9,9,7.5,9
				c1.6,0,2.5-1,2.8-1C12.6,8,13,10.5,13,12.2z"/>
		</defs>
		<clipPath id="SVGID_4_">
			<use xlink:href="#SVGID_3_"  style="overflow:visible;"/>
		</clipPath>
		<rect x="-2.7" y="3.3" class="st1" width="20.4" height="15.5"/>
	</g>
	<g>
		<defs>
			<ellipse id="SVGID_5_" cx="3" cy="2.8" rx="2" ry="1.9"/>
		</defs>
		<clipPath id="SVGID_6_">
			<use xlink:href="#SVGID_5_"  style="overflow:visible;"/>
		</clipPath>
		<rect x="-3.7" y="-3.8" class="st2" width="13.4" height="13.2"/>
	</g>
	<g>
		<defs>
			<ellipse id="SVGID_7_" cx="7.5" cy="5.6" rx="3" ry="2.8"/>
		</defs>
		<clipPath id="SVGID_8_">
			<use xlink:href="#SVGID_7_"  style="overflow:visible;"/>
		</clipPath>
		<rect x="-0.2" y="-1.9" class="st3" width="15.4" height="15.1"/>
	</g>
	<g>
		<defs>
			<path id="SVGID_9_" d="M15,7.3c0,0.8-0.7,1.2-1.5,1.2h-1c-0.5-0.6-1.3-0.9-2.1-0.9C10.8,7,11,6.3,11,5.6c0-0.2,0-0.3,0-0.5
				c0.3,0.1,0.7,0.2,1,0.2c1.1,0,1.9-0.6,2-0.6C15,4.7,15,6.7,15,7.3z"/>
		</defs>
		<clipPath id="SVGID_10_">
			<use xlink:href="#SVGID_9_"  style="overflow:visible;"/>
		</clipPath>
		<rect x="5.6" y="0" class="st4" width="14.1" height="13.2"/>
	</g>
	<g>
		<defs>
			<ellipse id="SVGID_11_" cx="12" cy="2.8" rx="2" ry="1.9"/>
		</defs>
		<clipPath id="SVGID_12_">
			<use xlink:href="#SVGID_11_"  style="overflow:visible;"/>
		</clipPath>
		<rect x="5.3" y="-3.8" class="st5" width="13.4" height="13.2"/>
	</g>
</g>
</svg>
