<?xml version="1.0" encoding="utf-8"?>
<!-- Generator: Adobe Illustrator 21.1.0, SVG Export Plug-In . SVG Version: 6.00 Build 0)  -->
<svg version="1.1" id="Layer_1" xmlns="http://www.w3.org/2000/svg" xmlns:xlink="http://www.w3.org/1999/xlink" x="0px" y="0px"
	 viewBox="0 0 15 15" style="enable-background:new 0 0 15 15;" xml:space="preserve">
<style type="text/css">
	.st0{clip-path:url(#SVGID_2_);fill:#0D0D0D;}
</style>
<g>
	<defs>
		<path id="SVGID_1_" d="M11.1,11H4v1.3h7.1V11z M12.5,13.7H2.6v-4H1.1V15h12.8V9.6h-1.4L12.5,13.7L12.5,13.7z M11.4,9.3L4.4,8
			L4.1,9.3l7,1.4L11.4,9.3z M14.6,5.4L10.3,0L9.2,0.8l4.2,5.4L14.6,5.4z M13.2,6.4L7.7,2.1l-0.9,1l5.5,4.3L13.2,6.4z M11.5,9L5,6.1
			l0.6-1.2l6.4,2.8L11.5,9z"/>
	</defs>
	<clipPath id="SVGID_2_">
		<use xlink:href="#SVGID_1_"  style="overflow:visible;"/>
	</clipPath>
	<rect x="-3.9" y="-5" class="st0" width="23.5" height="25"/>
</g>
</svg>
