<svg id="Layer_1" data-name="Layer 1" xmlns="http://www.w3.org/2000/svg" xmlns:xlink="http://www.w3.org/1999/xlink" viewBox="0 0 25 25"><defs><style>.cls-1,.cls-2{fill:none;}.cls-2{clip-rule:evenodd;}.cls-3{fill:#fff;}.cls-4{clip-path:url(#clip-path);}.cls-5{clip-path:url(#clip-path-2);}.cls-6{clip-path:url(#clip-path-3);}.cls-7{clip-path:url(#clip-path-4);}.cls-8{clip-path:url(#clip-path-5);}.cls-9{clip-path:url(#clip-path-6);}.cls-10{clip-path:url(#clip-path-7);}.cls-11{clip-path:url(#clip-path-8);}.cls-12{clip-path:url(#clip-path-9);}.cls-13{clip-path:url(#clip-path-10);}.cls-14{clip-path:url(#clip-path-11);}.cls-15{clip-path:url(#clip-path-12);}.cls-16{fill:url(#linear-gradient);}.cls-17{fill:url(#linear-gradient-2);}.cls-18{fill:url(#linear-gradient-3);}.cls-19{fill:url(#linear-gradient-4);}.cls-20{clip-path:url(#clip-path-13);}.cls-21{clip-path:url(#clip-path-14);}.cls-22{clip-path:url(#clip-path-15);}.cls-23{clip-path:url(#clip-path-16);}.cls-24{clip-path:url(#clip-path-17);}.cls-25{clip-path:url(#clip-path-18);}.cls-26{clip-path:url(#clip-path-19);}.cls-27{clip-path:url(#clip-path-20);}</style><clipPath id="clip-path"><path class="cls-1" d="M-14.32-21.38a2.08,2.08,0,0,0-2.27,2c0,1.26.75,1.86,1.86,2.33l.39.17c.7.3,1.05.49,1.05,1s-.34.76-1,.76-1.12-.51-1.45-1.06l-1.22.81a2.83,2.83,0,0,0,2.71,1.62c1.46,0,2.56-.76,2.56-2.15s-.74-1.86-2.06-2.43l-.38-.16c-.67-.29-1-.47-1-.94a.67.67,0,0,1,.74-.66,1,1,0,0,1,1,.66l1.2-.77A2.26,2.26,0,0,0-14.32-21.38Zm-5,0v5.09c0,.78-.3,1-.81,1a1.32,1.32,0,0,1-1.16-.77l-1.27.77a2.84,2.84,0,0,0,2.52,1.62A2.12,2.12,0,0,0-17.74-16v-5.34ZM-26-28.26h14.84a.27.27,0,0,1,.27.27v14.84a.27.27,0,0,1-.27.27H-26a.27.27,0,0,1-.27-.27V-28A.27.27,0,0,1-26-28.26Zm0-.81A1.08,1.08,0,0,0-27-28v14.84A1.08,1.08,0,0,0-26-12.07h14.84A1.08,1.08,0,0,0-10-13.15V-28a1.09,1.09,0,0,0-1.08-1.08Z"/></clipPath><clipPath id="clip-path-2"><path class="cls-2" d="M11.82-20.4l-.3-.49c-.1-.16-.2-.34-.29-.52a5,5,0,0,1-.47-1.15,2,2,0,0,1,.62-1.73l.19-.21c.39-.46.93-1,1.35-1.45a2.61,2.61,0,0,0,.73-1.7c0-.39,0-1.22-.29-1.37a3,3,0,0,1-.12,1.56A3.39,3.39,0,0,1,12.12-26c-.38.33-1,.92-1.34,1.26a3.49,3.49,0,0,0-.72,1,1.36,1.36,0,0,0,.23,1.35c.11.19.23.36.35.53s.26.34.38.49.26.32.39.48a4.75,4.75,0,0,0,.41.46"/></clipPath><clipPath id="clip-path-3"><path class="cls-2" d="M17.12-15.37c.17.2,0,.28-.22.36a29.16,29.16,0,0,1-5.46.44,22.93,22.93,0,0,1-3.22-.16c-.17,0-.91-.11-1-.26s.11-.17.18-.2a4.14,4.14,0,0,1,1-.23,3.69,3.69,0,0,0,.37-.05,4.73,4.73,0,0,0-2.46.52c-.22.24.15.35.4.41a22.05,22.05,0,0,0,3.86.29c1.51,0,5.16,0,6.5-.69.08,0,.23-.13.25-.21s-.14-.2-.23-.22"/></clipPath><clipPath id="clip-path-4"><path class="cls-2" d="M13-19.17a4.52,4.52,0,0,0,.81-.59,1.61,1.61,0,0,0,.5-.89,2,2,0,0,0-.37-1c-.48-.7-.86-1.1-.22-1.87a4.74,4.74,0,0,1,.73-.68,15,15,0,0,1,1.24-.85l.44-.27A8.17,8.17,0,0,0,15-25a6.7,6.7,0,0,0-1,.45c-1,.54-1.93,1.39-1.53,2.57.26.79,1,1.27,1,1.86,0,.37-.39.73-.5.92"/></clipPath><clipPath id="clip-path-5"><path class="cls-2" d="M14.89-16a4.74,4.74,0,0,1-.86-.37c-.17-.09-.1-.08-.32,0a17.21,17.21,0,0,1-3.22.16c-.24,0-.91,0-1-.22s0-.2.07-.27c-.6.1-1.22.53-.38.89a9.46,9.46,0,0,0,4,.24,11.83,11.83,0,0,0,1.78-.4"/></clipPath><clipPath id="clip-path-6"><path class="cls-2" d="M14.89-17.19a1.38,1.38,0,0,1-.56-.31c-.11-.1-.07-.07-.33,0a14.21,14.21,0,0,1-4.4.1c-.1,0-.22-.11-.23-.22s.11-.22.16-.29c-.62.07-1.22.67-.39,1a11.86,11.86,0,0,0,4,.2,9.62,9.62,0,0,0,1.76-.4"/></clipPath><clipPath id="clip-path-7"><path class="cls-2" d="M16.12-19.88l-.43.06-.44.05c-.89.1-1.88.19-2.77.23-.7,0-3.33.11-3.72-.2,0-.14.16-.22.27-.27a7.93,7.93,0,0,1,1.38-.39,7.57,7.57,0,0,0-2.72.61c-.6.31.4.44.78.48a26.68,26.68,0,0,0,6.44-.14,1.38,1.38,0,0,0,.67-.15c.17-.09.39-.18.54-.28"/></clipPath><clipPath id="clip-path-8"><path class="cls-2" d="M8.73-13.42a12.86,12.86,0,0,0,2.53.36,25.16,25.16,0,0,0,2.88,0,12.4,12.4,0,0,0,3.69-.61c.25-.1.71-.35.75-.58a1.43,1.43,0,0,0-.21.12c-1.87,1-6.14.93-8.35.8l-1.29-.09"/></clipPath><clipPath id="clip-path-9"><path class="cls-2" d="M16.47-20.1a1.16,1.16,0,0,1,1.23.24,1.34,1.34,0,0,1,.08,1.4,4.55,4.55,0,0,1-1.41,1.57,1.6,1.6,0,0,0-.25.18,4.53,4.53,0,0,0,1.4-.68,2.61,2.61,0,0,0,1-1.2,1.35,1.35,0,0,0-.5-1.58,1.26,1.26,0,0,0-.8-.23,1,1,0,0,0-.73.3"/></clipPath><clipPath id="clip-path-10"><path class="cls-1" d="M41.69-26.39a.66.66,0,0,1,.65.68.66.66,0,0,1-.65.68.66.66,0,0,1-.64-.68A.66.66,0,0,1,41.69-26.39Zm1.87-1.1a10.31,10.31,0,0,0-1.65.15c-1.46.27-1.72.83-1.72,1.86v1.36h3.44v.45H38.9a2.18,2.18,0,0,0-2.16,1.81,7,7,0,0,0,0,3.64c.25,1,.83,1.81,1.83,1.81h1.19V-18a2.23,2.23,0,0,1,2.15-2.22h3.44a1.76,1.76,0,0,0,1.72-1.81v-3.4a2,2,0,0,0-1.72-1.86A10.9,10.9,0,0,0,43.56-27.49Z"/></clipPath><clipPath id="clip-path-11"><path class="cls-1" d="M45.6-15a.66.66,0,0,1,.65.67.66.66,0,0,1-.65.68.66.66,0,0,1-.64-.68A.66.66,0,0,1,45.6-15Zm1.93-8.55V-22a2.24,2.24,0,0,1-2.14,2.25H42a1.78,1.78,0,0,0-1.71,1.8v3.38c0,1,.81,1.53,1.71,1.8a5.6,5.6,0,0,0,3.44,0c.86-.26,1.72-.78,1.72-1.8v-1.35H43.67v-.45h5.15c1,0,1.38-.72,1.72-1.8a6.19,6.19,0,0,0,0-3.6c-.24-1-.72-1.8-1.72-1.8Z"/></clipPath><clipPath id="clip-path-12"><path class="cls-2" d="M117.27-19.29l.36-1.69H116l-.35,1.69ZM113.92-18h-1.08l.27-1.27h1.07l.36-1.69h-1.07l.27-1.28h1.07l.61-2.86,1.4.31-.53,2.55h1.62l.61-2.86,1.41.28-.56,2.58h1.08L120.16-21h-1l-.36,1.69h1.06L119.54-18h-1.06l-.61,2.87-1.4-.32L117-18h-1.62l-.61,2.87-1.41-.32Zm-2.06-5.35-1.26,1.16a5.8,5.8,0,0,0-.86-.79,3.15,3.15,0,0,0-1.82-.55,3.37,3.37,0,0,0-3.46,3.4,3.38,3.38,0,0,0,3.44,3.38,3.22,3.22,0,0,0,1.93-.62,5.53,5.53,0,0,0,.82-.73L111.9-17a5.16,5.16,0,0,1-4,1.8,5.11,5.11,0,0,1-5.25-5,5.11,5.11,0,0,1,5.26-5A5.23,5.23,0,0,1,111.86-23.37Z"/></clipPath><linearGradient id="linear-gradient" x1="320.97" y1="468.92" x2="329.19" y2="468.92" gradientTransform="translate(-316.88 -455.06)" gradientUnits="userSpaceOnUse"><stop offset="0.26" stop-color="#f97a12"/><stop offset="0.46" stop-color="#b07b58"/><stop offset="0.72" stop-color="#577bae"/><stop offset="0.91" stop-color="#1e7ce5"/><stop offset="1" stop-color="#087cfa"/></linearGradient><linearGradient id="linear-gradient-2" x1="327.28" y1="465.09" x2="340.87" y2="472.61" gradientTransform="translate(-316.88 -455.06)" gradientUnits="userSpaceOnUse"><stop offset="0" stop-color="#f97a12"/><stop offset="0.07" stop-color="#cb7a3e"/><stop offset="0.15" stop-color="#9e7b6a"/><stop offset="0.24" stop-color="#757b91"/><stop offset="0.33" stop-color="#537bb1"/><stop offset="0.43" stop-color="#387ccc"/><stop offset="0.54" stop-color="#237ce0"/><stop offset="0.66" stop-color="#147cef"/><stop offset="0.79" stop-color="#0b7cf7"/><stop offset="1" stop-color="#087cfa"/></linearGradient><linearGradient id="linear-gradient-3" x1="336.78" y1="469.65" x2="333" y2="458.34" gradientTransform="translate(-316.88 -455.06)" gradientUnits="userSpaceOnUse"><stop offset="0" stop-color="#fe315d"/><stop offset="0.08" stop-color="#cb417e"/><stop offset="0.16" stop-color="#9e4e9b"/><stop offset="0.25" stop-color="#755bb4"/><stop offset="0.34" stop-color="#5365ca"/><stop offset="0.44" stop-color="#386ddb"/><stop offset="0.54" stop-color="#2374e9"/><stop offset="0.66" stop-color="#1478f3"/><stop offset="0.79" stop-color="#0b7bf8"/><stop offset="1" stop-color="#087cfa"/></linearGradient><linearGradient id="linear-gradient-4" x1="323.47" y1="462.95" x2="334.82" y2="481.72" gradientTransform="translate(-316.88 -455.06)" gradientUnits="userSpaceOnUse"><stop offset="0" stop-color="#fe315d"/><stop offset="0.04" stop-color="#f63462"/><stop offset="0.1" stop-color="#df3a71"/><stop offset="0.17" stop-color="#c24383"/><stop offset="0.29" stop-color="#ad4a91"/><stop offset="0.55" stop-color="#755bb4"/><stop offset="0.92" stop-color="#1d76ed"/><stop offset="1" stop-color="#087cfa"/></linearGradient><clipPath id="clip-path-13"><path class="cls-3" d="M75.84,12.73l-2.93,2.92a.25.25,0,0,1-.36,0L71.9,15a.25.25,0,0,1,0-.36L74,12.55l-2.09-2.1a.24.24,0,0,1,0-.35l.65-.66a.27.27,0,0,1,.36,0l2.93,2.93A.27.27,0,0,1,75.84,12.73Z"/></clipPath><clipPath id="clip-path-14"><rect class="cls-3" x="76.82" y="13.97" width="5.55" height="1.51" rx="0.38"/></clipPath><clipPath id="clip-path-15"><polygon class="cls-1" points="-28.03 42.21 -7.63 42.21 -7.63 49.64 -17.83 49.64 -17.83 50.95 -22.51 50.95 -22.51 49.64 -28.03 49.64 -28.03 42.21"/></clipPath><clipPath id="clip-path-16"><polygon class="cls-1" points="-25.85 48.77 -24.03 48.77 -24.03 45.06 -22.93 45.06 -22.93 48.77 -22.2 48.77 -22.2 43.67 -25.85 43.67 -25.85 48.77"/></clipPath><clipPath id="clip-path-17"><path class="cls-1" d="M-17.83,47h-1.1V44.92h1.1Zm-2.92-3.33V49.5h1.82V48.25h1.83V43.67Z"/></clipPath><clipPath id="clip-path-18"><polygon class="cls-1" points="-16.38 43.67 -16.38 48.77 -14.33 48.77 -14.33 45.06 -13.1 45.06 -13.1 48.77 -11.87 48.77 -11.87 45.06 -10.64 45.06 -10.64 48.77 -9.82 48.77 -9.82 43.67 -16.38 43.67"/></clipPath><clipPath id="clip-path-19"><path class="cls-1" d="M54.8,45.46v2.77a1.38,1.38,0,0,1-1.38,1.38H50.65a1.38,1.38,0,0,1-1.38-1.38V45.46a1.38,1.38,0,0,1,1.38-1.38h2.77A1.38,1.38,0,0,1,54.8,45.46Zm-7.38,0v2.77A1.38,1.38,0,0,1,46,49.61H43.27a1.38,1.38,0,0,1-1.38-1.38V45.46a1.38,1.38,0,0,1,1.38-1.38H46A1.38,1.38,0,0,1,47.42,45.46Zm-7.38,0v2.77a1.38,1.38,0,0,1-1.38,1.38H35.89a1.38,1.38,0,0,1-1.38-1.38V45.46a1.38,1.38,0,0,1,1.38-1.38h2.77A1.38,1.38,0,0,1,40,45.46Z"/></clipPath><clipPath id="clip-path-20"><path class="cls-1" d="M83.47,50.74H79.78V44.88h3.57V46H81.1v1.22h2.12v1.07H81.1v1.39h2.37v1.09Zm-.29,4.86H70.4V51.82H83.18ZM69.93,50.74V44.88h3.58V46H71.25v1.22h2.13v1.07H71.25v1.39h2.38v1.09Zm4.22-5.86h1.5L76.16,46c.17.36.3.65.44,1h0c.14-.38.25-.64.4-1l.49-1.07H79l-1.63,2.86,1.72,3H77.57L77,49.68c-.21-.41-.35-.71-.51-1h0c-.12.34-.27.64-.45,1l-.48,1.06H74.09l1.67-3Zm-3.75-7.5h9v4a.4.4,0,0,0,.39.39h3.42v2H70.4Zm14,6.37H84V41.44a.09.09,0,0,0,0,0,.38.38,0,0,0-.09-.25l-3.81-4.41h0a.24.24,0,0,0-.08-.06l0,0-.08,0H70.4a.78.78,0,0,0-.78.78v6.37h-.47A1.12,1.12,0,0,0,68,44.87V50.7a1.12,1.12,0,0,0,1.11,1.12h.47v4a.78.78,0,0,0,.78.78H83.18a.78.78,0,0,0,.78-.78v-4h.47a1.12,1.12,0,0,0,1.11-1.12V44.87A1.12,1.12,0,0,0,84.43,43.75Z"/></clipPath></defs><title>intellij_icon</title><rect class="cls-1" x="-459.47" y="-997.54" width="1366" height="2644"/><polygon class="cls-16" points="8.35 17.55 4.1 14.14 6.22 10.17 12.32 12.58 8.35 17.55"/><polygon class="cls-17" points="21.61 8.47 21.26 18.68 14.45 21.45 10.34 18.82 16.36 12.58 13.74 6.83 16.08 4 21.61 8.47"/><polygon class="cls-18" points="21.61 8.47 16.22 14.85 13.74 6.83 16.08 4 21.61 8.47"/><polygon class="cls-19" points="12.39 18.47 5.3 21.02 6.44 17.05 7.93 12.08 3.88 10.74 6.44 3.71 12.04 4.42 17.5 10.66 12.39 18.47"/><rect x="7.36" y="7.12" width="10.92" height="10.92"/><rect class="cls-3" x="8.35" y="16.06" width="4.11" height="0.71"/><polygon class="cls-3" points="11.33 9.39 11.33 8.54 9.06 8.54 9.06 9.39 9.7 9.39 9.7 12.22 9.06 12.22 9.06 13.08 11.33 13.08 11.33 12.22 10.69 12.22 10.69 9.39 11.33 9.39"/><path class="cls-3" d="M13.53,13.15a1.43,1.43,0,0,1-.85-.22,1.81,1.81,0,0,1-.57-.49l.64-.71.35.35a1.06,1.06,0,0,0,.43.15.75.75,0,0,0,.42-.15,1.07,1.07,0,0,0,.15-.56V8.61h1v2.91a2.25,2.25,0,0,1-.07.71.79.79,0,0,1-.36.49.72.72,0,0,1-.49.29,2.17,2.17,0,0,1-.64.14"/><rect class="cls-1" x="-751.08" y="-1127.12" width="1366" height="3311"/><path class="cls-3" d="M75.84,12.73l-2.93,2.92a.25.25,0,0,1-.36,0L71.9,15a.25.25,0,0,1,0-.36L74,12.55l-2.09-2.1a.24.24,0,0,1,0-.35l.65-.66a.27.27,0,0,1,.36,0l2.93,2.93A.27.27,0,0,1,75.84,12.73Z"/><g class="cls-20"><rect class="cls-3" x="-484.24" y="-336.48" width="742.75" height="1800.34"/></g><rect class="cls-3" x="76.82" y="13.97" width="5.55" height="1.51" rx="0.38"/><g class="cls-21"><rect class="cls-3" x="-483.24" y="-336.48" width="742.75" height="1800.34"/></g><rect class="cls-1" x="-509.49" y="-1053.4" width="1366" height="3024"/></svg>