<svg id="Layer_1" data-name="Layer 1" xmlns="http://www.w3.org/2000/svg" xmlns:xlink="http://www.w3.org/1999/xlink" viewBox="0 0 25 25"><defs><style>.cls-1,.cls-2{fill:none;}.cls-2{clip-rule:evenodd;}.cls-3{fill:#999;}.cls-4{clip-path:url(#clip-path);}.cls-5{clip-path:url(#clip-path-2);}.cls-6{fill:#1a1c19;}.cls-7{clip-path:url(#clip-path-3);}.cls-8{clip-path:url(#clip-path-4);}.cls-9{clip-path:url(#clip-path-5);}.cls-10{clip-path:url(#clip-path-6);}.cls-11{clip-path:url(#clip-path-7);}.cls-12{clip-path:url(#clip-path-8);}.cls-13{clip-path:url(#clip-path-9);}.cls-14{clip-path:url(#clip-path-10);}.cls-15{clip-path:url(#clip-path-11);}.cls-16{clip-path:url(#clip-path-12);}</style><clipPath id="clip-path"><path class="cls-1" d="M16.52,11.64a2.06,2.06,0,0,0-2.26,2c0,1.25.74,1.85,1.85,2.32l.39.17c.7.31,1.05.5,1.05,1s-.34.76-1,.76-1.12-.52-1.45-1.06l-1.21.81a2.82,2.82,0,0,0,2.7,1.62c1.47,0,2.56-.77,2.56-2.15s-.74-1.87-2.06-2.43l-.38-.17c-.66-.28-1-.47-1-.93a.68.68,0,0,1,.74-.67,1,1,0,0,1,1,.67l1.2-.78A2.27,2.27,0,0,0,16.52,11.64Zm-5,0v5.09c0,.78-.3,1-.81,1a1.34,1.34,0,0,1-1.16-.77l-1.27.77a2.84,2.84,0,0,0,2.52,1.62A2.13,2.13,0,0,0,13.1,17V11.64ZM4.87,4.76H19.71A.27.27,0,0,1,20,5V19.87a.27.27,0,0,1-.27.27H4.87a.27.27,0,0,1-.27-.27V5A.27.27,0,0,1,4.87,4.76Zm0-.81A1.08,1.08,0,0,0,3.79,5V19.87A1.09,1.09,0,0,0,4.87,21H19.71a1.09,1.09,0,0,0,1.08-1.08V5A1.08,1.08,0,0,0,19.71,4Z"/></clipPath><clipPath id="clip-path-2"><rect class="cls-1" x="-743.21" y="-465.05" width="1366" height="3311"/></clipPath><clipPath id="clip-path-3"><path class="cls-2" d="M42.67,12.61l-.31-.49c-.1-.16-.2-.34-.29-.51a5,5,0,0,1-.47-1.16,1.92,1.92,0,0,1,.63-1.72,1.92,1.92,0,0,1,.18-.22c.39-.45.93-1,1.35-1.45a2.54,2.54,0,0,0,.73-1.7c0-.39,0-1.22-.29-1.37a2.88,2.88,0,0,1-.12,1.56A3.49,3.49,0,0,1,43,7c-.38.32-1,.91-1.34,1.25a3.79,3.79,0,0,0-.72,1,1.43,1.43,0,0,0,.23,1.36c.12.19.23.35.35.52s.27.34.38.5.26.32.39.47a4.79,4.79,0,0,0,.42.46"/></clipPath><clipPath id="clip-path-4"><path class="cls-2" d="M48,17.64c.16.2,0,.29-.23.37a29.16,29.16,0,0,1-5.46.43,22.93,22.93,0,0,1-3.22-.16c-.16,0-.91-.11-.94-.26s.11-.16.17-.2a4.11,4.11,0,0,1,1-.23,3.48,3.48,0,0,0,.36-.05,4.75,4.75,0,0,0-2.46.53c-.22.23.15.34.4.41a23.08,23.08,0,0,0,3.86.28c1.52,0,5.16,0,6.5-.69.08,0,.23-.12.25-.21s-.14-.19-.22-.22"/></clipPath><clipPath id="clip-path-5"><path class="cls-2" d="M43.83,13.84a4.08,4.08,0,0,0,.81-.59,1.49,1.49,0,0,0,.5-.88,1.87,1.87,0,0,0-.37-1c-.48-.69-.86-1.09-.21-1.87a5.14,5.14,0,0,1,.72-.67A14.22,14.22,0,0,1,46.52,8L47,7.69A8,8,0,0,0,45.88,8a7.49,7.49,0,0,0-1,.46c-1,.54-1.92,1.39-1.53,2.56.26.8,1,1.27,1,1.87a2.44,2.44,0,0,1-.51.91"/></clipPath><clipPath id="clip-path-6"><path class="cls-2" d="M45.73,17a4.74,4.74,0,0,1-.86-.37c-.17-.08-.1-.08-.32,0a16.4,16.4,0,0,1-3.22.16c-.24,0-.91,0-1-.21s0-.21.07-.28c-.6.11-1.22.53-.37.89a9.57,9.57,0,0,0,4,.25A13.11,13.11,0,0,0,45.73,17"/></clipPath><clipPath id="clip-path-7"><path class="cls-2" d="M45.73,15.82a1.5,1.5,0,0,1-.56-.3c-.11-.1-.07-.08-.33,0-.91.15-3.62.42-4.4.1-.1,0-.22-.1-.23-.22s.11-.21.16-.29c-.62.08-1.22.67-.38.95a12,12,0,0,0,4,.21,9.44,9.44,0,0,0,1.76-.41"/></clipPath><clipPath id="clip-path-8"><path class="cls-2" d="M47,13.13l-.43.06-.43.05c-.9.11-1.89.19-2.78.23-.7,0-3.33.11-3.72-.2,0-.13.16-.22.27-.27a8.92,8.92,0,0,1,1.38-.39,7.79,7.79,0,0,0-2.72.61c-.6.32.41.44.78.48a27.2,27.2,0,0,0,6.44-.13,1.58,1.58,0,0,0,.68-.16c.16-.09.38-.18.53-.28"/></clipPath><clipPath id="clip-path-9"><path class="cls-2" d="M39.57,19.6A13.77,13.77,0,0,0,42.1,20,23.06,23.06,0,0,0,45,20a12.4,12.4,0,0,0,3.69-.61c.25-.1.71-.34.75-.58-.07,0-.14.09-.21.12-1.87,1-6.14.93-8.34.8l-1.3-.08"/></clipPath><clipPath id="clip-path-10"><path class="cls-2" d="M47.31,12.91a1.2,1.2,0,0,1,1.23.24,1.36,1.36,0,0,1,.09,1.4,4.68,4.68,0,0,1-1.42,1.57L47,16.3a4.74,4.74,0,0,0,1.4-.67,2.64,2.64,0,0,0,1-1.21,1.35,1.35,0,0,0-.5-1.58,1.32,1.32,0,0,0-.8-.23,1.09,1.09,0,0,0-.73.3"/></clipPath><clipPath id="clip-path-11"><path class="cls-1" d="M72.53,6.62a.68.68,0,0,1,0,1.36.68.68,0,0,1,0-1.36ZM74.4,5.53a9.4,9.4,0,0,0-1.65.14C71.29,5.94,71,6.5,71,7.53V8.89h3.44v.46H69.74a2.16,2.16,0,0,0-2.15,1.81,6.88,6.88,0,0,0,0,3.63c.24,1.06.82,1.81,1.83,1.81H70.6V15a2.23,2.23,0,0,1,2.15-2.22h3.44a1.77,1.77,0,0,0,1.72-1.82V7.53a2,2,0,0,0-1.72-1.86A9.82,9.82,0,0,0,74.4,5.53Z"/></clipPath><clipPath id="clip-path-12"><path class="cls-1" d="M76.45,18a.68.68,0,0,1,0,1.36.68.68,0,0,1,0-1.36Zm1.93-8.55V11a2.25,2.25,0,0,1-2.15,2.25H72.8a1.78,1.78,0,0,0-1.72,1.8v3.37c0,1,.81,1.53,1.72,1.81a5.57,5.57,0,0,0,3.43,0C77.09,20,78,19.48,78,18.45V17.1H74.51v-.45h5.16c1,0,1.37-.72,1.71-1.8a6.19,6.19,0,0,0,0-3.6c-.24-1-.71-1.8-1.71-1.8Z"/></clipPath></defs><title>javascript_icon</title><rect class="cls-1" x="-428.63" y="-964.53" width="1366" height="2644"/><path class="cls-3" d="M22,.5A2.5,2.5,0,0,1,24.5,3V22A2.5,2.5,0,0,1,22,24.5H3A2.5,2.5,0,0,1,.5,22V3A2.5,2.5,0,0,1,3,.5H22M22,0H3A3,3,0,0,0,0,3V22a3,3,0,0,0,3,3H22a3,3,0,0,0,3-3V3a3,3,0,0,0-3-3Z"/><g class="cls-4"><g class="cls-5"><rect class="cls-6" x="-1.21" y="-1.05" width="27" height="27"/></g></g></svg>