<svg id="Layer_1" data-name="Layer 1" xmlns="http://www.w3.org/2000/svg" xmlns:xlink="http://www.w3.org/1999/xlink" viewBox="0 0 25 25"><defs><style>.cls-1,.cls-2{fill:none;}.cls-2{clip-rule:evenodd;}.cls-3{fill:#fff;}.cls-4{clip-path:url(#clip-path);}.cls-5{clip-path:url(#clip-path-2);}.cls-6{clip-path:url(#clip-path-3);}.cls-7{fill:#d9262a;}.cls-8{clip-path:url(#clip-path-4);}.cls-9{fill:#1e80b4;}.cls-10{clip-path:url(#clip-path-6);}.cls-11{clip-path:url(#clip-path-8);}.cls-12{clip-path:url(#clip-path-10);}.cls-13{clip-path:url(#clip-path-12);}.cls-14{clip-path:url(#clip-path-14);}.cls-15{clip-path:url(#clip-path-16);}.cls-16{clip-path:url(#clip-path-18);}.cls-17{clip-path:url(#clip-path-19);}.cls-18{clip-path:url(#clip-path-20);}.cls-19{clip-path:url(#clip-path-21);}.cls-20{clip-path:url(#clip-path-22);}.cls-21{clip-path:url(#clip-path-23);}.cls-22{clip-path:url(#clip-path-24);}.cls-23{clip-path:url(#clip-path-25);}.cls-24{clip-path:url(#clip-path-26);}.cls-25{clip-path:url(#clip-path-27);}.cls-26{clip-path:url(#clip-path-28);}</style><clipPath id="clip-path"><path class="cls-1" d="M-14.43,11.64a2.06,2.06,0,0,0-2.26,2c0,1.25.74,1.85,1.85,2.32l.39.17c.7.31,1,.5,1,1s-.34.76-1,.76-1.12-.52-1.45-1.06l-1.21.81a2.82,2.82,0,0,0,2.7,1.62c1.47,0,2.56-.77,2.56-2.15s-.74-1.87-2.06-2.43l-.38-.17c-.66-.28-.95-.47-.95-.93a.68.68,0,0,1,.74-.67,1,1,0,0,1,1,.67l1.2-.78A2.27,2.27,0,0,0-14.43,11.64Zm-5,0v5.09c0,.78-.3,1-.81,1a1.34,1.34,0,0,1-1.16-.77l-1.27.77a2.84,2.84,0,0,0,2.52,1.62A2.13,2.13,0,0,0-17.85,17V11.64Zm-6.61-6.88h14.84A.27.27,0,0,1-11,5V19.87a.27.27,0,0,1-.27.27H-26.08a.27.27,0,0,1-.27-.27V5A.27.27,0,0,1-26.08,4.76Zm0-.81A1.08,1.08,0,0,0-27.16,5V19.87A1.09,1.09,0,0,0-26.08,21h14.84a1.09,1.09,0,0,0,1.08-1.08V5A1.08,1.08,0,0,0-11.24,4Z"/></clipPath><clipPath id="clip-path-2"><path class="cls-2" d="M11.72,12.61l-.31-.49c-.1-.16-.2-.34-.29-.51a5,5,0,0,1-.47-1.16,1.92,1.92,0,0,1,.63-1.72,1.92,1.92,0,0,1,.18-.22c.39-.45.93-1,1.35-1.45a2.54,2.54,0,0,0,.73-1.7c0-.39,0-1.22-.29-1.37a2.88,2.88,0,0,1-.12,1.56A3.49,3.49,0,0,1,12,7c-.38.32-1,.91-1.34,1.25a3.79,3.79,0,0,0-.72,1,1.43,1.43,0,0,0,.23,1.36c.12.19.23.35.35.52s.27.34.38.5.26.32.39.47a4.79,4.79,0,0,0,.42.46"/></clipPath><clipPath id="clip-path-3"><rect class="cls-1" x="-919.38" y="-642.16" width="1681.23" height="4075.08"/></clipPath><clipPath id="clip-path-4"><path class="cls-2" d="M17,17.64c.16.2,0,.29-.23.37a29.16,29.16,0,0,1-5.46.43,22.93,22.93,0,0,1-3.22-.16c-.16,0-.91-.11-.94-.26s.11-.16.17-.2a4.11,4.11,0,0,1,1-.23,3.48,3.48,0,0,0,.36-.05,4.75,4.75,0,0,0-2.46.53c-.22.23.15.34.4.41a23.08,23.08,0,0,0,3.86.28c1.52,0,5.16,0,6.5-.69.08,0,.23-.12.25-.21s-.14-.19-.22-.22"/></clipPath><clipPath id="clip-path-6"><path class="cls-2" d="M12.88,13.84a4.08,4.08,0,0,0,.81-.59,1.49,1.49,0,0,0,.5-.88,1.87,1.87,0,0,0-.37-1c-.48-.69-.86-1.09-.21-1.87a5.14,5.14,0,0,1,.72-.67A12.85,12.85,0,0,1,15.57,8L16,7.69A8,8,0,0,0,14.93,8a7.49,7.49,0,0,0-1,.46C13,9,12,9.89,12.41,11.06c.26.8,1,1.27,1,1.87a2.44,2.44,0,0,1-.51.91"/></clipPath><clipPath id="clip-path-8"><path class="cls-2" d="M14.78,17a4.74,4.74,0,0,1-.86-.37c-.17-.08-.1-.08-.32,0a16.4,16.4,0,0,1-3.22.16c-.24,0-.91,0-1-.21s0-.21.07-.28c-.6.11-1.22.53-.38.89a9.62,9.62,0,0,0,4,.25A13.11,13.11,0,0,0,14.78,17"/></clipPath><clipPath id="clip-path-10"><path class="cls-2" d="M14.78,15.82a1.5,1.5,0,0,1-.56-.3c-.11-.1-.07-.08-.33,0-.91.15-3.63.42-4.4.1-.1,0-.22-.1-.23-.22s.11-.21.16-.29c-.62.08-1.22.67-.38.95a12,12,0,0,0,4,.21,9.44,9.44,0,0,0,1.76-.41"/></clipPath><clipPath id="clip-path-12"><path class="cls-2" d="M16,13.13l-.43.06-.43.05c-.9.11-1.89.19-2.78.23-.7,0-3.33.11-3.72-.2,0-.13.16-.22.27-.27a8.92,8.92,0,0,1,1.38-.39,7.79,7.79,0,0,0-2.72.61c-.6.32.41.44.78.48a27.2,27.2,0,0,0,6.44-.13,1.58,1.58,0,0,0,.68-.16c.16-.09.38-.18.53-.28"/></clipPath><clipPath id="clip-path-14"><path class="cls-2" d="M8.62,19.6a13.77,13.77,0,0,0,2.53.35A23.06,23.06,0,0,0,14,20a12.4,12.4,0,0,0,3.69-.61c.25-.1.71-.34.75-.58-.07,0-.14.09-.21.12-1.87,1-6.14.93-8.34.8l-1.3-.08"/></clipPath><clipPath id="clip-path-16"><path class="cls-2" d="M16.36,12.91a1.2,1.2,0,0,1,1.23.24,1.36,1.36,0,0,1,.09,1.4,4.68,4.68,0,0,1-1.42,1.57L16,16.3a4.74,4.74,0,0,0,1.4-.67,2.64,2.64,0,0,0,1-1.21,1.35,1.35,0,0,0-.5-1.58,1.32,1.32,0,0,0-.8-.23,1.07,1.07,0,0,0-.73.3"/></clipPath><clipPath id="clip-path-18"><path class="cls-1" d="M41.58,6.62a.68.68,0,0,1,0,1.36.68.68,0,0,1,0-1.36Zm1.87-1.09a9.4,9.4,0,0,0-1.65.14c-1.46.27-1.72.83-1.72,1.86V8.89h3.44v.46H38.79a2.16,2.16,0,0,0-2.15,1.81,6.78,6.78,0,0,0,0,3.63c.24,1.06.82,1.81,1.83,1.81h1.18V15a2.23,2.23,0,0,1,2.15-2.22h3.44A1.77,1.77,0,0,0,47,10.93V7.53a2,2,0,0,0-1.72-1.86A9.82,9.82,0,0,0,43.45,5.53Z"/></clipPath><clipPath id="clip-path-19"><path class="cls-1" d="M45.5,18a.68.68,0,0,1,0,1.36.68.68,0,0,1,0-1.36Zm1.93-8.55V11a2.25,2.25,0,0,1-2.15,2.25H41.85a1.78,1.78,0,0,0-1.72,1.8v3.37c0,1,.81,1.53,1.72,1.81a5.57,5.57,0,0,0,3.43,0C46.14,20,47,19.48,47,18.45V17.1H43.56v-.45h5.16c1,0,1.37-.72,1.71-1.8a6.19,6.19,0,0,0,0-3.6c-.24-1-.71-1.8-1.71-1.8Z"/></clipPath><clipPath id="clip-path-20"><path class="cls-2" d="M117.16,13.72l.36-1.69h-1.63l-.35,1.69ZM113.81,15h-1.08l.27-1.28h1.07l.36-1.69h-1.07l.27-1.27h1.07l.61-2.87,1.4.32-.53,2.55h1.62l.61-2.87,1.41.29-.55,2.58h1.07L120.06,12H119l-.36,1.69h1.06L119.43,15h-1.06l-.61,2.86-1.4-.31.53-2.55h-1.62l-.61,2.86-1.41-.31Zm-2.06-5.36L110.5,10.8a7,7,0,0,0-.87-.79,3.15,3.15,0,0,0-1.82-.54,3.39,3.39,0,1,0,0,6.77,3.27,3.27,0,0,0,1.92-.61,6.27,6.27,0,0,0,.82-.73L111.79,16a5.17,5.17,0,0,1-4,1.81,5.11,5.11,0,0,1-5.25-5,5.12,5.12,0,0,1,5.27-5A5.21,5.21,0,0,1,111.75,9.64Z"/></clipPath><clipPath id="clip-path-21"><path class="cls-3" d="M75.73,45.74,72.8,48.67a.25.25,0,0,1-.36,0L71.79,48a.24.24,0,0,1,0-.35l2.09-2.1-2.09-2.09a.25.25,0,0,1,0-.36l.65-.65a.25.25,0,0,1,.36,0l2.93,2.93A.24.24,0,0,1,75.73,45.74Z"/></clipPath><clipPath id="clip-path-22"><rect class="cls-3" x="76.71" y="46.98" width="5.55" height="1.51" rx="0.38"/></clipPath><clipPath id="clip-path-23"><polygon class="cls-1" points="-28.14 75.23 -7.74 75.23 -7.74 82.66 -17.94 82.66 -17.94 83.97 -22.62 83.97 -22.62 82.66 -28.14 82.66 -28.14 75.23"/></clipPath><clipPath id="clip-path-24"><polygon class="cls-1" points="-25.96 81.78 -24.14 81.78 -24.14 78.07 -23.04 78.07 -23.04 81.78 -22.31 81.78 -22.31 76.68 -25.96 76.68 -25.96 81.78"/></clipPath><clipPath id="clip-path-25"><path class="cls-1" d="M-17.94,80H-19V77.93h1.1Zm-2.92-3.33v5.83H-19V81.26h1.83V76.68Z"/></clipPath><clipPath id="clip-path-26"><polygon class="cls-1" points="-16.48 76.68 -16.48 81.78 -14.44 81.78 -14.44 78.07 -13.21 78.07 -13.21 81.78 -11.98 81.78 -11.98 78.07 -10.75 78.07 -10.75 81.78 -9.93 81.78 -9.93 76.68 -16.48 76.68"/></clipPath><clipPath id="clip-path-27"><path class="cls-1" d="M54.69,78.48v2.76a1.38,1.38,0,0,1-1.38,1.39H50.54a1.38,1.38,0,0,1-1.38-1.39V78.48a1.38,1.38,0,0,1,1.38-1.39h2.77A1.38,1.38,0,0,1,54.69,78.48Zm-7.38,0v2.76a1.38,1.38,0,0,1-1.38,1.39H43.16a1.38,1.38,0,0,1-1.38-1.39V78.48a1.38,1.38,0,0,1,1.38-1.39h2.77A1.38,1.38,0,0,1,47.31,78.48Zm-7.37,0v2.76a1.39,1.39,0,0,1-1.39,1.39H35.79a1.39,1.39,0,0,1-1.39-1.39V78.48a1.39,1.39,0,0,1,1.39-1.39h2.76A1.39,1.39,0,0,1,39.94,78.48Z"/></clipPath><clipPath id="clip-path-28"><path class="cls-1" d="M83.37,83.75h-3.7V77.9h3.57V79H81V80.2h2.13v1.08H81v1.39h2.38v1.08Zm-.3,4.87H70.29V84.84H83.07ZM69.83,83.75V77.9H73.4V79H71.14V80.2h2.13v1.08H71.14v1.39h2.38v1.08ZM74,77.9h1.5L76.05,79c.17.35.3.64.44,1h0c.13-.37.24-.64.39-1l.49-1.07h1.49l-1.63,2.86,1.72,3H77.46l-.53-1.06c-.21-.4-.35-.71-.51-1h0c-.12.34-.26.65-.44,1l-.48,1.06H74l1.68-3Zm-3.75-7.5h9v4a.39.39,0,0,0,.39.39h3.42v2H70.29Zm14,6.37h-.47V74.45s0,0,0,0a.39.39,0,0,0-.09-.26l-3.81-4.4h0l-.08-.06,0,0-.08,0H70.29a.78.78,0,0,0-.78.79v6.37H69a1.12,1.12,0,0,0-1.11,1.12v5.83A1.12,1.12,0,0,0,69,84.84h.47v4a.78.78,0,0,0,.78.78H83.07a.78.78,0,0,0,.78-.78v-4h.47a1.12,1.12,0,0,0,1.11-1.12V77.89A1.12,1.12,0,0,0,84.32,76.77Z"/></clipPath></defs><title>java_icon</title><rect class="cls-1" x="-459.58" y="-964.53" width="1366" height="2644"/><g class="cls-5"><g class="cls-6"><rect class="cls-7" x="3.7" y="-2.16" width="16" height="20.92"/></g></g><g class="cls-8"><g class="cls-6"><rect class="cls-9" x="0.01" y="11.38" width="23.38" height="13.54"/></g></g><g class="cls-10"><g class="cls-6"><rect class="cls-7" x="6.16" y="1.53" width="16" height="18.46"/></g></g><g class="cls-11"><g class="cls-6"><rect class="cls-9" x="2.47" y="10.15" width="18.46" height="13.54"/></g></g><g class="cls-12"><g class="cls-6"><rect class="cls-9" x="2.47" y="8.92" width="18.46" height="13.54"/></g></g><g class="cls-13"><g class="cls-6"><rect class="cls-9" x="1.24" y="6.46" width="20.92" height="13.54"/></g></g><g class="cls-14"><g class="cls-6"><rect class="cls-9" x="2.47" y="12.61" width="22.15" height="13.54"/></g></g><g class="cls-15"><g class="cls-6"><rect class="cls-9" x="9.86" y="6.46" width="14.77" height="16"/></g></g><rect class="cls-1" x="-751.19" y="-1094.11" width="1366" height="3311"/><path class="cls-3" d="M75.73,45.74,72.8,48.67a.25.25,0,0,1-.36,0L71.79,48a.24.24,0,0,1,0-.35l2.09-2.1-2.09-2.09a.25.25,0,0,1,0-.36l.65-.65a.25.25,0,0,1,.36,0l2.93,2.93A.24.24,0,0,1,75.73,45.74Z"/><g class="cls-19"><rect class="cls-3" x="-484.35" y="-303.46" width="742.75" height="1800.34"/></g><rect class="cls-3" x="76.71" y="46.98" width="5.55" height="1.51" rx="0.38"/><g class="cls-20"><rect class="cls-3" x="-483.35" y="-303.46" width="742.75" height="1800.34"/></g><rect class="cls-1" x="-509.6" y="-1020.39" width="1366" height="3024"/></svg>