<svg id="Layer_1" data-name="Layer 1" xmlns="http://www.w3.org/2000/svg" xmlns:xlink="http://www.w3.org/1999/xlink" viewBox="0 0 25 25"><defs><style>.cls-1,.cls-2{fill:none;}.cls-2{clip-rule:evenodd;}.cls-3{clip-path:url(#clip-path);}.cls-4{fill:#999;}.cls-5{fill:#202020;}.cls-6{fill:#fff;}.cls-7{clip-path:url(#clip-path-2);}.cls-8{clip-path:url(#clip-path-3);}.cls-9{clip-path:url(#clip-path-4);}.cls-10{clip-path:url(#clip-path-5);}.cls-11{clip-path:url(#clip-path-6);}.cls-12{clip-path:url(#clip-path-7);}.cls-13{clip-path:url(#clip-path-8);}.cls-14{clip-path:url(#clip-path-9);}.cls-15{clip-path:url(#clip-path-10);}.cls-16{clip-path:url(#clip-path-11);}</style><clipPath id="clip-path"><path class="cls-1" d="M-14.43,43.24a2.06,2.06,0,0,0-2.26,2c0,1.26.74,1.85,1.85,2.33l.39.16c.7.31,1,.5,1,1s-.34.76-1,.76S-15.5,49-15.83,48.5l-1.21.81a2.8,2.8,0,0,0,2.7,1.62c1.47,0,2.56-.76,2.56-2.15s-.74-1.87-2.06-2.43l-.38-.16c-.66-.29-.95-.48-.95-.94a.67.67,0,0,1,.74-.66,1,1,0,0,1,1,.66l1.2-.77A2.26,2.26,0,0,0-14.43,43.24Zm-5,0v5.09c0,.78-.3,1-.81,1a1.34,1.34,0,0,1-1.16-.77l-1.27.77a2.84,2.84,0,0,0,2.52,1.62,2.13,2.13,0,0,0,2.34-2.36V43.24Zm-6.61-6.88h14.84a.27.27,0,0,1,.27.27V51.47a.27.27,0,0,1-.27.27H-26.08a.27.27,0,0,1-.27-.27V36.63A.27.27,0,0,1-26.08,36.36Zm0-.81a1.09,1.09,0,0,0-1.08,1.08V51.47a1.09,1.09,0,0,0,1.08,1.08h14.84a1.09,1.09,0,0,0,1.08-1.08V36.63a1.09,1.09,0,0,0-1.08-1.08Z"/></clipPath><clipPath id="clip-path-2"><path class="cls-2" d="M11.72,44.21l-.31-.49c-.1-.16-.2-.33-.29-.51a5,5,0,0,1-.47-1.16c-.18-.76.25-1.22.63-1.72a1.92,1.92,0,0,1,.18-.22c.39-.45.93-1,1.35-1.44A2.59,2.59,0,0,0,13.54,37c0-.39,0-1.21-.29-1.36a2.84,2.84,0,0,1-.12,1.55A3.43,3.43,0,0,1,12,38.64c-.38.32-1,.91-1.34,1.26a3.49,3.49,0,0,0-.72,1,1.41,1.41,0,0,0,.23,1.35c.12.19.23.35.35.52s.27.34.38.5.26.32.39.48.34.39.42.45"/></clipPath><clipPath id="clip-path-3"><path class="cls-2" d="M17,49.24c.16.2,0,.29-.23.37a29.16,29.16,0,0,1-5.46.43,22.93,22.93,0,0,1-3.22-.16c-.16,0-.91-.11-.94-.26s.11-.16.17-.19a3.68,3.68,0,0,1,1-.24,3.48,3.48,0,0,0,.36,0,4.75,4.75,0,0,0-2.46.53c-.22.24.15.35.4.41a22.06,22.06,0,0,0,3.86.28c1.52,0,5.16,0,6.5-.69.08,0,.23-.12.25-.2s-.14-.2-.22-.23"/></clipPath><clipPath id="clip-path-4"><path class="cls-2" d="M12.88,45.44a4,4,0,0,0,.81-.58,1.55,1.55,0,0,0,.5-.89,1.87,1.87,0,0,0-.37-1c-.48-.69-.86-1.09-.21-1.86a4.66,4.66,0,0,1,.72-.68,12.85,12.85,0,0,1,1.24-.85l.44-.27a8,8,0,0,0-1.08.35,7.49,7.49,0,0,0-1,.46c-1,.54-1.92,1.39-1.53,2.56.26.8,1,1.27,1,1.87a2.44,2.44,0,0,1-.51.91"/></clipPath><clipPath id="clip-path-5"><path class="cls-2" d="M14.78,48.64a5.59,5.59,0,0,1-.86-.38c-.17-.08-.1-.07-.32,0a16.4,16.4,0,0,1-3.22.16c-.24,0-.91,0-1-.21s0-.21.07-.28c-.6.11-1.22.54-.38.89A9.46,9.46,0,0,0,13,49a14.93,14.93,0,0,0,1.78-.4"/></clipPath><clipPath id="clip-path-6"><path class="cls-2" d="M14.78,47.43a1.51,1.51,0,0,1-.56-.31c-.11-.1-.07-.08-.33,0-.91.15-3.63.41-4.4.09-.1,0-.22-.1-.23-.22s.11-.21.16-.29c-.62.08-1.22.67-.38,1a12.32,12.32,0,0,0,4,.2,10.31,10.31,0,0,0,1.76-.4"/></clipPath><clipPath id="clip-path-7"><path class="cls-2" d="M16,44.74a3.15,3.15,0,0,0-.43,0l-.43.05c-.9.11-1.89.19-2.78.23-.7,0-3.33.11-3.72-.19,0-.14.16-.23.27-.28a7.89,7.89,0,0,1,1.38-.38,7.57,7.57,0,0,0-2.72.61c-.6.31.41.43.78.48a27.74,27.74,0,0,0,6.44-.14,1.45,1.45,0,0,0,.68-.16c.16-.08.38-.18.53-.27"/></clipPath><clipPath id="clip-path-8"><path class="cls-2" d="M8.62,51.2a14.69,14.69,0,0,0,2.53.36,25.16,25.16,0,0,0,2.88,0,12.73,12.73,0,0,0,3.69-.6c.25-.11.71-.35.75-.58a1.13,1.13,0,0,0-.21.12c-1.87,1-6.14.92-8.34.8l-1.3-.09"/></clipPath><clipPath id="clip-path-9"><path class="cls-2" d="M16.36,44.51a1.2,1.2,0,0,1,1.23.24,1.36,1.36,0,0,1,.09,1.4,4.68,4.68,0,0,1-1.42,1.57L16,47.9a4.5,4.5,0,0,0,1.4-.67,2.64,2.64,0,0,0,1-1.21,1.35,1.35,0,0,0-.5-1.58,1.32,1.32,0,0,0-.8-.23,1.07,1.07,0,0,0-.73.3"/></clipPath><clipPath id="clip-path-10"><path class="cls-1" d="M41.58,38.22a.69.69,0,1,1-.64.69A.67.67,0,0,1,41.58,38.22Zm1.87-1.09a9.4,9.4,0,0,0-1.65.14c-1.46.27-1.72.83-1.72,1.86v1.36h3.44V41H38.79a2.16,2.16,0,0,0-2.15,1.81,6.78,6.78,0,0,0,0,3.63c.24,1.06.82,1.81,1.83,1.81h1.18V46.57a2.23,2.23,0,0,1,2.15-2.22h3.44A1.77,1.77,0,0,0,47,42.53v-3.4a2,2,0,0,0-1.72-1.86A10.8,10.8,0,0,0,43.45,37.13Z"/></clipPath><clipPath id="clip-path-11"><path class="cls-1" d="M45.5,49.61a.66.66,0,0,1,.64.67.65.65,0,1,1-1.29,0A.66.66,0,0,1,45.5,49.61Zm1.93-8.56v1.58a2.25,2.25,0,0,1-2.15,2.25H41.85a1.78,1.78,0,0,0-1.72,1.8v3.38c0,1,.81,1.52,1.72,1.8a5.57,5.57,0,0,0,3.43,0c.86-.26,1.72-.78,1.72-1.8V48.7H43.56v-.45h5.16c1,0,1.37-.71,1.71-1.79a6.23,6.23,0,0,0,0-3.61c-.24-1-.71-1.8-1.71-1.8Z"/></clipPath></defs><title>linux_icon</title><rect class="cls-1" x="-459.58" y="-932.93" width="1366" height="2644"/><path class="cls-4" d="M22,.5A2.5,2.5,0,0,1,24.5,3V22A2.5,2.5,0,0,1,22,24.5H3A2.5,2.5,0,0,1,.5,22V3A2.5,2.5,0,0,1,3,.5H22M22,0H3A3,3,0,0,0,0,3V22a3,3,0,0,0,3,3H22a3,3,0,0,0,3-3V3a3,3,0,0,0-3-3Z"/><path id="path3" class="cls-5" d="M18.53,16.8h0a1.31,1.31,0,0,1-.21-.58,1.16,1.16,0,0,0-.31-.66h0l-.12-.08a.34.34,0,0,0-.12-.06,3.35,3.35,0,0,0-.11-2.32,7.68,7.68,0,0,0-1.36-2.18,3.26,3.26,0,0,1-1-2.11c0-1.34.15-3.84-2.22-3.84h-.3c-2.65.21-2,3-2,3.95a3.32,3.32,0,0,1-.65,1.89,9.25,9.25,0,0,0-1.71,2.83,3.57,3.57,0,0,0-.18,1.57l-.07.06c-.16.18-.28.39-.41.53a1.45,1.45,0,0,1-.5.24.87.87,0,0,0-.54.42h0a.73.73,0,0,0-.08.36,2.07,2.07,0,0,0,0,.35,1.38,1.38,0,0,1,0,.6,1.19,1.19,0,0,0-.06.93.75.75,0,0,0,.59.36A6.39,6.39,0,0,1,9,19.45l0-.09,0,.09a2.52,2.52,0,0,0,1.63.31,1.08,1.08,0,0,0,.76-.6c.37,0,.77-.15,1.42-.19.44,0,1,.16,1.61.12a.84.84,0,0,0,.08.2h0a1.16,1.16,0,0,0,1.18.67,2.12,2.12,0,0,0,1.41-.82L17,19.08l.07.06a5.15,5.15,0,0,1,1.49-.94.7.7,0,0,0,.41-.54A1.34,1.34,0,0,0,18.53,16.8Z"/><path id="path5" class="cls-6" d="M18.78,17.65c0,.15-.11.26-.31.38a4.79,4.79,0,0,0-1.54,1,1.94,1.94,0,0,1-1.28.74,1,1,0,0,1-1-.56h0a1.63,1.63,0,0,1,0-1.06A7.29,7.29,0,0,0,15,17h0a6.63,6.63,0,0,1,.12-1.13.91.91,0,0,1,.4-.62h0a.9.9,0,0,0,.55.86,1.37,1.37,0,0,0,1.13-.48h.13a.69.69,0,0,1,.53.15h0a1.08,1.08,0,0,1,.25.55,1.4,1.4,0,0,0,.25.67h0C18.69,17.27,18.79,17.51,18.78,17.65Z"/><path id="path7" class="cls-6" d="M11.28,18.74h0a.82.82,0,0,1-.7.81,2.3,2.3,0,0,1-1.5-.29h0a6.06,6.06,0,0,0-1.79-.38c-.23-.05-.39-.12-.45-.26a1,1,0,0,1,.07-.77h0a1.51,1.51,0,0,0,0-.7,1,1,0,0,1,0-.59h0a.64.64,0,0,1,.44-.33A1.47,1.47,0,0,0,7.93,16h0c.16-.17.28-.38.42-.53a.54.54,0,0,1,.41-.21h.11a1,1,0,0,1,.64.47l.57,1h0a6.76,6.76,0,0,0,.75,1A1.68,1.68,0,0,1,11.28,18.74Z"/><path id="path9" class="cls-6" d="M14.14,9a.54.54,0,0,0-.3-.24h0a5.4,5.4,0,0,1-.66-.28,1.46,1.46,0,0,0-.76-.26.84.84,0,0,0-.29,0,1.47,1.47,0,0,0-.53.37h0l-.11.08-.3.23a.3.3,0,0,0-.13.35.85.85,0,0,0,.44.45h0a3.05,3.05,0,0,1,.38.32,1.32,1.32,0,0,0,.2.12.77.77,0,0,0,.28.06,1.07,1.07,0,0,0,.64-.16,2.33,2.33,0,0,1,.48-.27h0a1,1,0,0,0,.67-.53A.33.33,0,0,0,14.14,9Z"/><path id="path11" class="cls-5" d="M13.27,9.52a2.07,2.07,0,0,1-.94.32,1.32,1.32,0,0,1-.8-.31l-.23-.21c-.1-.08-.09-.19-.05-.19s.08.1.13.14l.22.21a1.23,1.23,0,0,0,.73.28,2,2,0,0,0,.88-.3c.12-.07.28-.19.41-.28s.09-.16.17-.15,0,.09-.09.19A2.2,2.2,0,0,1,13.27,9.52Z"/><path id="path13" class="cls-6" d="M17.46,15.36h-.13c.1-.3-.11-.51-.66-.77s-1-.22-1.11.29a.22.22,0,0,0,0,.08l-.13.06a1.08,1.08,0,0,0-.5.74,6.42,6.42,0,0,0-.13,1.17h0a4.41,4.41,0,0,1-.2.85,2.9,2.9,0,0,1-3.35.21L11,17.63l-.18-.22a.63.63,0,0,0,.29-.05.34.34,0,0,0,.2-.21.83.83,0,0,0-.21-.73,4.1,4.1,0,0,0-1.13-1h0a1.65,1.65,0,0,1-.72-.88,2.11,2.11,0,0,1,0-1,6.34,6.34,0,0,1,.8-1.73c.07-.05,0,.09-.25.61a2.3,2.3,0,0,0-.08,2.41,5,5,0,0,1,.41-1.8,10.88,10.88,0,0,0,1.15-3.3l.18.12h0a3.47,3.47,0,0,1,.37.3.93.93,0,0,0,.55.22h.07a1.29,1.29,0,0,0,.62-.18,3,3,0,0,1,.47-.27h0a1.26,1.26,0,0,0,.65-.43,15.29,15.29,0,0,0,1.09,2.8A6.37,6.37,0,0,1,16,14.2a1.22,1.22,0,0,1,.32,0,2.55,2.55,0,0,0-.68-2.48c-.14-.14-.15-.2-.08-.19a3.5,3.5,0,0,1,1,1.72,2.19,2.19,0,0,1,0,1.05l.13.06C17.33,14.71,17.57,15,17.46,15.36Z"/><path id="path15" class="cls-6" d="M14.17,8a1.09,1.09,0,0,1-.1.48.86.86,0,0,1-.13.23l-.06,0-.17-.07-.14,0s.09-.08.11-.14a.71.71,0,0,0,.06-.26h0a.69.69,0,0,0,0-.25.4.4,0,0,0-.12-.2.21.21,0,0,0-.16-.07h0a.25.25,0,0,0-.16.06.43.43,0,0,0-.13.19.55.55,0,0,0-.06.26h0a.76.76,0,0,0,0,.15,2.14,2.14,0,0,0-.38-.13.61.61,0,0,1,0-.14h0a1.24,1.24,0,0,1,.09-.48A.92.92,0,0,1,13,7.17.6.6,0,0,1,13.42,7h0a.58.58,0,0,1,.37.13.77.77,0,0,1,.27.34,1.08,1.08,0,0,1,.11.47Z"/><path id="path17" class="cls-6" d="M12.14,8.17h-.05a1.45,1.45,0,0,0-.25.12.43.43,0,0,0,0-.16h0a.46.46,0,0,0-.05-.2.49.49,0,0,0-.1-.16.19.19,0,0,0-.12,0h0a.15.15,0,0,0-.12.07.48.48,0,0,0-.07.16.78.78,0,0,0,0,.22h0a.5.5,0,0,0,.05.21.33.33,0,0,0,.1.15l0,0-.11.08-.08.06a.65.65,0,0,1-.17-.25,1.12,1.12,0,0,1-.1-.41h0a1.1,1.1,0,0,1,0-.41.71.71,0,0,1,.18-.32.35.35,0,0,1,.26-.12h0a.4.4,0,0,1,.25.09.74.74,0,0,1,.22.29,1.36,1.36,0,0,1,.09.41h0a.6.6,0,0,1,0,.19Z"/><path id="path28396-7" class="cls-5" d="M12.59,8.53s.07,0,.1.05.06.05.09.05.08,0,.09,0-.06-.07-.1-.09a.18.18,0,0,0-.16,0l0,0Z"/><path id="path5461" class="cls-5" d="M12.24,8.53s-.07,0-.1.05-.05.05-.09.05-.08,0-.08,0,0-.07.09-.09a.18.18,0,0,1,.16,0s0,0,0,0Z"/></svg>