<svg id="Layer_1" data-name="Layer 1" xmlns="http://www.w3.org/2000/svg" xmlns:xlink="http://www.w3.org/1999/xlink" viewBox="0 0 25 25"><defs><style>.cls-1,.cls-2{fill:none;}.cls-2{clip-rule:evenodd;}.cls-3,.cls-5{fill:#fff;}.cls-4{clip-path:url(#clip-path);}.cls-5{stroke:#ccc;stroke-miterlimit:10;stroke-width:0.25px;}.cls-6{fill:url(#linear-gradient);}.cls-7{clip-path:url(#clip-path-2);}.cls-8{clip-path:url(#clip-path-3);}.cls-9{clip-path:url(#clip-path-4);}.cls-10{clip-path:url(#clip-path-5);}.cls-11{clip-path:url(#clip-path-6);}.cls-12{clip-path:url(#clip-path-7);}.cls-13{clip-path:url(#clip-path-8);}.cls-14{clip-path:url(#clip-path-9);}.cls-15{clip-path:url(#clip-path-10);}.cls-16{clip-path:url(#clip-path-11);}.cls-17{clip-path:url(#clip-path-12);}.cls-18{clip-path:url(#clip-path-13);}.cls-19{clip-path:url(#clip-path-14);}.cls-20{clip-path:url(#clip-path-15);}.cls-21{clip-path:url(#clip-path-16);}.cls-22{clip-path:url(#clip-path-17);}.cls-23{clip-path:url(#clip-path-18);}.cls-24{clip-path:url(#clip-path-19);}.cls-25{clip-path:url(#clip-path-20);}</style><clipPath id="clip-path"><path class="cls-1" d="M-45.71,43.24a2.06,2.06,0,0,0-2.26,2c0,1.26.74,1.85,1.86,2.33l.38.16c.71.31,1,.5,1,1s-.33.76-1,.76-1.13-.52-1.46-1.06l-1.21.81a2.81,2.81,0,0,0,2.7,1.62c1.47,0,2.56-.76,2.56-2.15s-.74-1.87-2-2.43l-.39-.16c-.66-.29-1-.48-1-.94a.67.67,0,0,1,.74-.66,1,1,0,0,1,1,.66l1.21-.77A2.28,2.28,0,0,0-45.71,43.24Zm-5,0v5.09c0,.78-.29,1-.81,1a1.34,1.34,0,0,1-1.16-.77l-1.27.77a2.84,2.84,0,0,0,2.53,1.62,2.12,2.12,0,0,0,2.33-2.36V43.24Zm-6.61-6.88h14.84a.27.27,0,0,1,.27.27V51.47a.27.27,0,0,1-.27.27H-57.36a.27.27,0,0,1-.27-.27V36.63A.27.27,0,0,1-57.36,36.36Zm0-.81a1.09,1.09,0,0,0-1.08,1.08V51.47a1.09,1.09,0,0,0,1.08,1.08h14.84a1.09,1.09,0,0,0,1.08-1.08V36.63a1.09,1.09,0,0,0-1.08-1.08Z"/></clipPath><linearGradient id="linear-gradient" x1="2.35" y1="22.7" x2="2.35" y2="22.66" gradientTransform="matrix(121.8, 0, 0, -163.12, -273.05, 3712.28)" gradientUnits="userSpaceOnUse"><stop offset="0" stop-color="#58b0e3"/><stop offset="1" stop-color="#f44c26"/></linearGradient><clipPath id="clip-path-2"><path class="cls-2" d="M-19.56,44.21l-.31-.49c-.1-.16-.19-.33-.29-.51a5.51,5.51,0,0,1-.47-1.16A2,2,0,0,1-20,40.33l.18-.22c.4-.45.93-1,1.35-1.44A2.6,2.6,0,0,0-17.73,37c0-.39,0-1.21-.29-1.36a2.84,2.84,0,0,1-.13,1.55,3.35,3.35,0,0,1-1.12,1.49c-.38.32-1,.91-1.33,1.26a3.33,3.33,0,0,0-.73,1,1.39,1.39,0,0,0,.24,1.35c.11.19.22.35.34.52s.27.34.38.5.27.32.4.48.33.39.41.45"/></clipPath><clipPath id="clip-path-3"><path class="cls-2" d="M-14.26,49.24c.16.2,0,.29-.22.37a29.33,29.33,0,0,1-5.47.43,22.71,22.71,0,0,1-3.21-.16c-.17,0-.92-.11-.95-.26s.11-.16.18-.19a3.7,3.7,0,0,1,1-.24,3.69,3.69,0,0,0,.37,0,4.79,4.79,0,0,0-2.47.53c-.22.24.15.35.4.41a22.14,22.14,0,0,0,3.86.28c1.52,0,5.17,0,6.51-.69.07,0,.23-.12.24-.2s-.14-.2-.22-.23"/></clipPath><clipPath id="clip-path-4"><path class="cls-2" d="M-18.4,45.44a3.76,3.76,0,0,0,.81-.58,1.56,1.56,0,0,0,.51-.89,2,2,0,0,0-.38-1c-.47-.69-.85-1.09-.21-1.86a5.17,5.17,0,0,1,.72-.68,13,13,0,0,1,1.25-.85l.43-.27a8,8,0,0,0-1.08.35,7.35,7.35,0,0,0-1,.46c-1,.54-1.93,1.39-1.54,2.56.27.8,1,1.27,1,1.87,0,.36-.4.73-.51.91"/></clipPath><clipPath id="clip-path-5"><path class="cls-2" d="M-16.5,48.64a6.06,6.06,0,0,1-.86-.38c-.16-.08-.1-.07-.31,0a16.5,16.5,0,0,1-3.23.16c-.24,0-.9,0-1-.21s0-.21.08-.28c-.61.11-1.22.54-.38.89a9.44,9.44,0,0,0,4,.25,15.19,15.19,0,0,0,1.77-.4"/></clipPath><clipPath id="clip-path-6"><path class="cls-2" d="M-16.5,47.43a1.39,1.39,0,0,1-.55-.31c-.12-.1-.08-.08-.33,0-.91.15-3.63.41-4.41.09-.1,0-.22-.1-.22-.22s.11-.21.16-.29c-.63.08-1.23.67-.39,1a12.37,12.37,0,0,0,4,.2,10.19,10.19,0,0,0,1.75-.4"/></clipPath><clipPath id="clip-path-7"><path class="cls-2" d="M-15.27,44.74a3.19,3.19,0,0,0-.42,0l-.44.05c-.89.11-1.88.19-2.78.23-.69,0-3.33.11-3.72-.19,0-.14.16-.23.28-.28A8,8,0,0,1-21,44.22a7.52,7.52,0,0,0-2.71.61c-.61.31.4.43.78.48a27.74,27.74,0,0,0,6.44-.14A1.41,1.41,0,0,0-15.8,45a5.24,5.24,0,0,0,.53-.27"/></clipPath><clipPath id="clip-path-8"><path class="cls-2" d="M-22.65,51.2a14.43,14.43,0,0,0,2.52.36,25.16,25.16,0,0,0,2.88,0,12.74,12.74,0,0,0,3.7-.6c.25-.11.7-.35.74-.58a1.13,1.13,0,0,0-.21.12c-1.87,1-6.14.92-8.34.8l-1.29-.09"/></clipPath><clipPath id="clip-path-9"><path class="cls-2" d="M-14.92,44.51a1.19,1.19,0,0,1,1.23.24,1.34,1.34,0,0,1,.09,1.4A4.58,4.58,0,0,1-15,47.72l-.25.18a4.66,4.66,0,0,0,1.41-.67,2.56,2.56,0,0,0,1-1.21,1.35,1.35,0,0,0-.5-1.58,1.3,1.3,0,0,0-.8-.23,1.11,1.11,0,0,0-.73.3"/></clipPath><clipPath id="clip-path-10"><path class="cls-1" d="M10.31,38.22a.69.69,0,1,1-.65.69A.67.67,0,0,1,10.31,38.22Zm1.86-1.09a9.2,9.2,0,0,0-1.64.14c-1.46.27-1.73.83-1.73,1.86v1.36h3.45V41H7.51a2.16,2.16,0,0,0-2.15,1.81,6.88,6.88,0,0,0,0,3.63c.24,1.06.83,1.81,1.83,1.81H8.37V46.57a2.24,2.24,0,0,1,2.16-2.22H14a1.78,1.78,0,0,0,1.72-1.82v-3.4A2,2,0,0,0,14,37.27,11,11,0,0,0,12.17,37.13Z"/></clipPath><clipPath id="clip-path-11"><path class="cls-1" d="M14.22,49.61a.65.65,0,0,1,.64.67.66.66,0,0,1-.64.68.67.67,0,0,1-.65-.68A.66.66,0,0,1,14.22,49.61Zm1.93-8.56v1.58A2.24,2.24,0,0,1,14,44.88H10.57a1.78,1.78,0,0,0-1.72,1.8v3.38c0,1,.81,1.52,1.72,1.8a5.57,5.57,0,0,0,3.43,0c.87-.26,1.72-.78,1.72-1.8V48.7H12.29v-.45h5.15c1,0,1.37-.71,1.72-1.79a6.31,6.31,0,0,0,0-3.61c-.25-1-.72-1.8-1.72-1.8Z"/></clipPath><clipPath id="clip-path-12"><path class="cls-2" d="M85.89,45.32l.35-1.69H84.62l-.36,1.69ZM82.53,46.6H81.46l.27-1.28H82.8l.36-1.69H82.08l.27-1.27h1.08L84,39.49l1.4.32-.54,2.55h1.63l.61-2.87,1.4.29L88,42.36h1.07l-.28,1.27H87.72l-.36,1.69h1.06l-.27,1.28H87.09l-.61,2.86-1.4-.31.54-2.55H84l-.61,2.86L82,49.15Zm-2.06-5.36L79.22,42.4a6.37,6.37,0,0,0-.87-.79,3.18,3.18,0,0,0-1.82-.54,3.39,3.39,0,1,0,0,6.78,3.24,3.24,0,0,0,1.92-.62,5.64,5.64,0,0,0,.82-.73l1.26,1.14a5.19,5.19,0,0,1-4,1.81,5,5,0,1,1,0-10A5.21,5.21,0,0,1,80.47,41.24Z"/></clipPath><clipPath id="clip-path-13"><path class="cls-3" d="M44.45,77.34l-2.93,2.93a.24.24,0,0,1-.35,0l-.66-.66a.26.26,0,0,1,0-.35l2.1-2.1-2.1-2.09a.27.27,0,0,1,0-.36l.66-.65a.24.24,0,0,1,.35,0L44.45,77A.24.24,0,0,1,44.45,77.34Z"/></clipPath><clipPath id="clip-path-14"><rect class="cls-3" x="45.43" y="78.58" width="5.55" height="1.51" rx="0.38"/></clipPath><clipPath id="clip-path-15"><polygon class="cls-1" points="-59.42 106.83 -39.02 106.83 -39.02 114.26 -49.22 114.26 -49.22 115.57 -53.89 115.57 -53.89 114.26 -59.42 114.26 -59.42 106.83"/></clipPath><clipPath id="clip-path-16"><polygon class="cls-1" points="-57.23 113.38 -55.41 113.38 -55.41 109.67 -54.32 109.67 -54.32 113.38 -53.59 113.38 -53.59 108.28 -57.23 108.28 -57.23 113.38"/></clipPath><clipPath id="clip-path-17"><path class="cls-1" d="M-49.22,111.62h-1.09v-2.09h1.09Zm-2.91-3.34v5.83h1.82v-1.25h1.82v-4.58Z"/></clipPath><clipPath id="clip-path-18"><polygon class="cls-1" points="-47.76 108.28 -47.76 113.38 -45.71 113.38 -45.71 109.67 -44.48 109.67 -44.48 113.38 -43.25 113.38 -43.25 109.67 -42.02 109.67 -42.02 113.38 -41.2 113.38 -41.2 108.28 -47.76 108.28"/></clipPath><clipPath id="clip-path-19"><path class="cls-1" d="M23.41,110.08v2.77A1.38,1.38,0,0,1,22,114.23H19.26a1.38,1.38,0,0,1-1.38-1.38v-2.77a1.38,1.38,0,0,1,1.38-1.38H22A1.38,1.38,0,0,1,23.41,110.08Zm-7.37,0v2.77a1.38,1.38,0,0,1-1.39,1.38H11.89a1.38,1.38,0,0,1-1.39-1.38v-2.77a1.38,1.38,0,0,1,1.39-1.38h2.76A1.38,1.38,0,0,1,16,110.08Zm-7.38,0v2.77a1.38,1.38,0,0,1-1.38,1.38H4.51a1.38,1.38,0,0,1-1.38-1.38v-2.77a1.38,1.38,0,0,1,1.38-1.38H7.28A1.38,1.38,0,0,1,8.66,110.08Z"/></clipPath><clipPath id="clip-path-20"><path class="cls-1" d="M52.09,115.36H48.4V109.5H52v1.09H49.71v1.21h2.13v1.08H49.71v1.39h2.38v1.09Zm-.29,4.86H39v-3.78H51.8Zm-13.25-4.86V109.5h3.57v1.09H39.86v1.21H42v1.08H39.86v1.39h2.38v1.09Zm4.22-5.86h1.5l.5,1.07c.18.35.3.64.44,1h0c.14-.37.25-.63.39-1l.49-1.07h1.5L46,112.36l1.71,3H46.18l-.52-1.06c-.22-.41-.35-.72-.52-1.06h0c-.12.34-.27.65-.45,1.06l-.48,1.06H42.71l1.67-3ZM39,102h9v4a.38.38,0,0,0,.39.39H51.8v2H39Zm14,6.37h-.48V106a.43.43,0,0,0-.09-.26l-3.81-4.4h0a.46.46,0,0,0-.07-.07h0l-.08,0h0l-.08,0H39a.78.78,0,0,0-.77.79v6.37h-.48a1.12,1.12,0,0,0-1.11,1.12v5.83a1.12,1.12,0,0,0,1.11,1.12h.48v4a.77.77,0,0,0,.77.78H51.8a.77.77,0,0,0,.77-.78v-4h.48a1.11,1.11,0,0,0,1.1-1.12v-5.83A1.11,1.11,0,0,0,53.05,108.37Z"/></clipPath></defs><title>mac_os_icon</title><rect class="cls-1" x="-490.86" y="-932.93" width="1366" height="2644"/><circle class="cls-5" cx="12.73" cy="12.89" r="8"/><path class="cls-6" d="M16.41,8h-.49l-3.18,4.59h0L9.55,8h-.5l3.43,4.94L9.07,17.81h.48l3.16-4.58h0l3.15,4.58h.49L13,12.9,16.41,8Z"/><rect class="cls-1" x="-782.46" y="-1062.5" width="1366" height="3311"/><path class="cls-3" d="M44.45,77.34l-2.93,2.93a.24.24,0,0,1-.35,0l-.66-.66a.26.26,0,0,1,0-.35l2.1-2.1-2.1-2.09a.27.27,0,0,1,0-.36l.66-.65a.24.24,0,0,1,.35,0L44.45,77A.24.24,0,0,1,44.45,77.34Z"/><g class="cls-18"><rect class="cls-3" x="-515.62" y="-271.86" width="742.75" height="1800.34"/></g><rect class="cls-3" x="45.43" y="78.58" width="5.55" height="1.51" rx="0.38"/><g class="cls-19"><rect class="cls-3" x="-514.62" y="-271.86" width="742.75" height="1800.34"/></g><rect class="cls-1" x="-540.87" y="-988.79" width="1366" height="3024"/></svg>