<svg id="Layer_1" data-name="Layer 1" xmlns="http://www.w3.org/2000/svg" xmlns:xlink="http://www.w3.org/1999/xlink" viewBox="0 0 25 25"><defs><style>.cls-1,.cls-2,.cls-4{fill:none;}.cls-2{clip-rule:evenodd;}.cls-3{fill:#fff;}.cls-4{fill-rule:evenodd;}.cls-5{clip-path:url(#clip-path);}.cls-6{clip-path:url(#clip-path-2);}.cls-7{clip-path:url(#clip-path-3);}.cls-8{clip-path:url(#clip-path-4);}.cls-9{clip-path:url(#clip-path-5);}.cls-10{clip-path:url(#clip-path-6);}.cls-11{clip-path:url(#clip-path-7);}.cls-12{clip-path:url(#clip-path-8);}.cls-13{clip-path:url(#clip-path-9);}.cls-14{clip-path:url(#clip-path-10);}.cls-15{clip-path:url(#clip-path-11);}.cls-16{clip-path:url(#clip-path-12);}.cls-17{clip-path:url(#clip-path-13);}.cls-18{clip-path:url(#clip-path-14);}.cls-19{clip-path:url(#clip-path-15);}.cls-20{clip-path:url(#clip-path-16);}.cls-21{clip-path:url(#clip-path-17);}.cls-22{clip-path:url(#clip-path-18);}.cls-23{clip-path:url(#clip-path-19);}.cls-24{clip-path:url(#clip-path-20);}.cls-25{clip-path:url(#clip-path-21);}.cls-26{clip-path:url(#clip-path-22);}.cls-27{clip-path:url(#clip-path-23);}.cls-28{clip-path:url(#clip-path-24);}.cls-29{clip-path:url(#clip-path-25);}.cls-30{clip-path:url(#clip-path-26);}.cls-31{fill:url(#linear-gradient);}.cls-32,.cls-33{fill:#be202e;}.cls-33{opacity:0.35;isolation:isolate;}.cls-34{fill:url(#linear-gradient-2);}.cls-35{fill:url(#linear-gradient-3);}.cls-36{fill:url(#linear-gradient-4);}.cls-37{fill:url(#linear-gradient-5);}.cls-38{fill:url(#linear-gradient-6);}.cls-39{fill:url(#linear-gradient-7);}.cls-40{fill:url(#linear-gradient-8);}.cls-41{fill:url(#linear-gradient-9);}.cls-42{clip-path:url(#clip-path-28);}.cls-43{clip-path:url(#clip-path-29);}.cls-44{clip-path:url(#clip-path-30);}.cls-45{clip-path:url(#clip-path-31);}.cls-46{clip-path:url(#clip-path-32);}.cls-47{clip-path:url(#clip-path-33);}.cls-48{clip-path:url(#clip-path-34);}.cls-49{clip-path:url(#clip-path-35);}.cls-50{clip-path:url(#clip-path-36);}.cls-51{clip-path:url(#clip-path-37);}.cls-52{clip-path:url(#clip-path-38);}.cls-53{clip-path:url(#clip-path-39);}.cls-54{clip-path:url(#clip-path-40);}.cls-55{clip-path:url(#clip-path-41);}.cls-56{clip-path:url(#clip-path-42);}.cls-57{clip-path:url(#clip-path-43);}</style><clipPath id="clip-path"><rect class="cls-1" x="-121.47" y="806.75" width="19.26" height="20"/></clipPath><clipPath id="clip-path-2"><path class="cls-1" d="M-198.27-144.09a2.07,2.07,0,0,0-2.27,2c0,1.26.75,1.85,1.86,2.33l.39.16c.7.31,1,.5,1,1s-.34.76-1,.76-1.12-.52-1.45-1.06l-1.22.81a2.83,2.83,0,0,0,2.71,1.62c1.46,0,2.56-.76,2.56-2.15s-.74-1.87-2.06-2.43l-.38-.16c-.67-.29-.95-.48-.95-.94a.66.66,0,0,1,.74-.66,1,1,0,0,1,1,.66l1.2-.77A2.26,2.26,0,0,0-198.27-144.09Zm-5,0V-139c0,.78-.3,1-.81,1a1.34,1.34,0,0,1-1.16-.77l-1.27.77A2.84,2.84,0,0,0-204-136.4a2.13,2.13,0,0,0,2.34-2.36v-5.33Zm-6.61-6.88h14.84a.27.27,0,0,1,.27.27v14.84a.27.27,0,0,1-.27.27h-14.84a.27.27,0,0,1-.27-.27V-150.7A.27.27,0,0,1-209.92-151Zm0-.81A1.08,1.08,0,0,0-211-150.7v14.84a1.08,1.08,0,0,0,1.08,1.08h14.84a1.09,1.09,0,0,0,1.08-1.08V-150.7a1.09,1.09,0,0,0-1.08-1.08Z"/></clipPath><clipPath id="clip-path-3"><path class="cls-2" d="M-172.13-143.12l-.3-.49c-.1-.16-.2-.33-.29-.51a5,5,0,0,1-.47-1.16c-.18-.76.25-1.22.62-1.72.06-.08.13-.15.19-.22.39-.45.93-1,1.35-1.44a2.64,2.64,0,0,0,.73-1.71c0-.39,0-1.21-.29-1.36a2.84,2.84,0,0,1-.12,1.55,3.43,3.43,0,0,1-1.12,1.49c-.38.32-1,.91-1.34,1.26a3.49,3.49,0,0,0-.72,1,1.36,1.36,0,0,0,.23,1.35c.11.19.23.35.35.52s.26.34.38.5.26.32.39.48.34.39.41.45"/></clipPath><clipPath id="clip-path-4"><path class="cls-2" d="M-166.83-138.09c.17.2,0,.29-.22.37a29.16,29.16,0,0,1-5.46.43,22.93,22.93,0,0,1-3.22-.16c-.17,0-.91-.11-1-.26s.11-.16.18-.19a3.7,3.7,0,0,1,1-.24,3.69,3.69,0,0,0,.37-.05,4.73,4.73,0,0,0-2.46.53c-.22.24.15.35.4.41a22.06,22.06,0,0,0,3.86.28c1.51,0,5.16,0,6.5-.69.08,0,.23-.12.25-.2s-.14-.2-.23-.23"/></clipPath><clipPath id="clip-path-5"><path class="cls-2" d="M-171-141.89a4,4,0,0,0,.81-.58,1.61,1.61,0,0,0,.5-.89,2,2,0,0,0-.37-1c-.48-.69-.86-1.09-.22-1.86a4.74,4.74,0,0,1,.73-.68,12.85,12.85,0,0,1,1.24-.85l.44-.27a8.09,8.09,0,0,0-1.09.35,8,8,0,0,0-1,.46c-1,.54-1.93,1.39-1.53,2.56.26.8,1,1.27,1,1.87,0,.36-.39.73-.5.91"/></clipPath><clipPath id="clip-path-6"><path class="cls-2" d="M-169.06-138.69a5.59,5.59,0,0,1-.86-.38c-.17-.08-.1-.07-.32,0a16.4,16.4,0,0,1-3.22.16c-.24,0-.91,0-1-.21s0-.21.07-.28c-.6.11-1.22.54-.38.89a9.46,9.46,0,0,0,4,.25,14.93,14.93,0,0,0,1.78-.4"/></clipPath><clipPath id="clip-path-7"><path class="cls-2" d="M-169.06-139.9a1.51,1.51,0,0,1-.56-.31c-.11-.1-.07-.08-.33,0-.91.15-3.63.41-4.4.09-.1,0-.22-.1-.23-.22s.11-.21.16-.29c-.62.08-1.22.67-.39,1a12.4,12.4,0,0,0,4,.2,10.53,10.53,0,0,0,1.76-.4"/></clipPath><clipPath id="clip-path-8"><path class="cls-2" d="M-167.83-142.59a3.15,3.15,0,0,0-.43.05l-.44,0c-.89.11-1.88.19-2.77.23-.7,0-3.33.11-3.72-.19,0-.14.16-.23.27-.28a7.89,7.89,0,0,1,1.38-.38,7.57,7.57,0,0,0-2.72.61c-.6.31.4.43.78.48a27.2,27.2,0,0,0,6.44-.14,1.51,1.51,0,0,0,.67-.15c.17-.09.39-.19.54-.28"/></clipPath><clipPath id="clip-path-9"><path class="cls-2" d="M-175.22-136.13a14.55,14.55,0,0,0,2.53.36,25.16,25.16,0,0,0,2.88,0,12.73,12.73,0,0,0,3.69-.6c.25-.11.71-.35.75-.58a.88.88,0,0,0-.21.12c-1.87,1-6.14.92-8.35.8l-1.29-.09"/></clipPath><clipPath id="clip-path-10"><path class="cls-2" d="M-167.48-142.82a1.2,1.2,0,0,1,1.23.24,1.34,1.34,0,0,1,.08,1.4,4.55,4.55,0,0,1-1.41,1.57l-.25.18a4.5,4.5,0,0,0,1.4-.67,2.64,2.64,0,0,0,1-1.21,1.36,1.36,0,0,0-.5-1.58,1.32,1.32,0,0,0-.8-.23,1.07,1.07,0,0,0-.73.3"/></clipPath><clipPath id="clip-path-11"><path class="cls-1" d="M-142.26-149.11a.67.67,0,0,1,.65.69.67.67,0,0,1-.65.68.67.67,0,0,1-.64-.68A.67.67,0,0,1-142.26-149.11Zm1.87-1.09a9.32,9.32,0,0,0-1.65.14c-1.46.27-1.72.83-1.72,1.86v1.36h3.44v.46H-145a2.17,2.17,0,0,0-2.16,1.81,7,7,0,0,0,0,3.63c.25,1.06.83,1.81,1.83,1.81h1.19v-1.63A2.23,2.23,0,0,1-142-143h3.44a1.77,1.77,0,0,0,1.72-1.82v-3.4a2,2,0,0,0-1.72-1.86A10.88,10.88,0,0,0-140.39-150.2Z"/></clipPath><clipPath id="clip-path-12"><path class="cls-1" d="M-138.35-137.72a.66.66,0,0,1,.65.67.67.67,0,0,1-.65.68A.67.67,0,0,1-139-137,.66.66,0,0,1-138.35-137.72Zm1.93-8.56v1.58a2.24,2.24,0,0,1-2.14,2.25H-142a1.78,1.78,0,0,0-1.71,1.8v3.38c0,1,.81,1.52,1.71,1.8a5.6,5.6,0,0,0,3.44,0c.86-.26,1.72-.78,1.72-1.8v-1.36h-3.44v-.45h5.15c1,0,1.38-.71,1.72-1.79a6.23,6.23,0,0,0,0-3.61c-.24-1-.72-1.8-1.72-1.8Z"/></clipPath><clipPath id="clip-path-13"><path class="cls-3" d="M-108.11-110l-2.93,2.93a.25.25,0,0,1-.36,0l-.65-.66a.24.24,0,0,1,0-.35l2.09-2.1-2.09-2.09a.25.25,0,0,1,0-.36l.65-.65a.25.25,0,0,1,.36,0l2.93,2.93A.26.26,0,0,1-108.11-110Z"/></clipPath><clipPath id="clip-path-14"><rect class="cls-3" x="-107.13" y="-108.75" width="5.55" height="1.51" rx="0.38"/></clipPath><clipPath id="clip-path-15"><polygon class="cls-1" points="-211.98 -80.5 -191.58 -80.5 -191.58 -73.07 -201.78 -73.07 -201.78 -71.76 -206.46 -71.76 -206.46 -73.07 -211.98 -73.07 -211.98 -80.5"/></clipPath><clipPath id="clip-path-16"><polygon class="cls-1" points="-209.8 -73.95 -207.98 -73.95 -207.98 -77.66 -206.88 -77.66 -206.88 -73.95 -206.16 -73.95 -206.16 -79.05 -209.8 -79.05 -209.8 -73.95"/></clipPath><clipPath id="clip-path-17"><path class="cls-1" d="M-201.78-75.71h-1.1V-77.8h1.1ZM-204.7-79v5.83h1.82v-1.25H-201V-79Z"/></clipPath><clipPath id="clip-path-18"><polygon class="cls-1" points="-200.33 -79.05 -200.33 -73.95 -198.28 -73.95 -198.28 -77.66 -197.05 -77.66 -197.05 -73.95 -195.82 -73.95 -195.82 -77.66 -194.59 -77.66 -194.59 -73.95 -193.77 -73.95 -193.77 -79.05 -200.33 -79.05"/></clipPath><clipPath id="clip-path-19"><path class="cls-1" d="M-129.15-77.25v2.77a1.38,1.38,0,0,1-1.38,1.38h-2.77a1.38,1.38,0,0,1-1.38-1.38v-2.77a1.38,1.38,0,0,1,1.38-1.38h2.77A1.38,1.38,0,0,1-129.15-77.25Zm-7.38,0v2.77a1.38,1.38,0,0,1-1.38,1.38h-2.77a1.38,1.38,0,0,1-1.38-1.38v-2.77a1.38,1.38,0,0,1,1.38-1.38h2.77A1.38,1.38,0,0,1-136.53-77.25Zm-7.38,0v2.77a1.38,1.38,0,0,1-1.38,1.38h-2.77a1.38,1.38,0,0,1-1.38-1.38v-2.77a1.38,1.38,0,0,1,1.38-1.38h2.77A1.38,1.38,0,0,1-143.91-77.25Z"/></clipPath><clipPath id="clip-path-20"><path class="cls-1" d="M-100.48-72h-3.69v-5.86h3.57v1.09h-2.25v1.21h2.12v1.08h-2.12v1.39h2.37V-72Zm-.29,4.86h-12.78v-3.78h12.78ZM-114-72v-5.86h3.58v1.09h-2.26v1.21h2.13v1.08h-2.13v1.39h2.38V-72Zm4.22-5.86h1.5l.51,1.07c.17.35.3.64.44,1h0c.14-.37.25-.63.4-1l.49-1.07H-105L-106.59-75l1.72,3h-1.51l-.53-1.06c-.21-.41-.35-.72-.51-1.06h0c-.12.34-.27.65-.45,1.06l-.48,1.06h-1.49l1.67-3Zm-3.75-7.5h9v4a.39.39,0,0,0,.39.39h3.42v2h-12.78Zm14,6.37H-100v-2.32a.06.06,0,0,0,0,0,.43.43,0,0,0-.09-.26L-103.9-86h0A.27.27,0,0,0-104-86h0l-.08,0h0l-.09,0h-9.36a.79.79,0,0,0-.78.79V-79h-.47a1.12,1.12,0,0,0-1.11,1.12V-72a1.12,1.12,0,0,0,1.11,1.12h.47v4a.78.78,0,0,0,.78.78h12.78a.78.78,0,0,0,.78-.78v-4h.47A1.12,1.12,0,0,0-98.41-72v-5.83A1.12,1.12,0,0,0-99.52-79Z"/></clipPath><clipPath id="clip-path-21"><path class="cls-1" d="M-76.33,15.52a1,1,0,0,0-1,1h2A1,1,0,0,0-76.33,15.52Zm0-1.2A2.45,2.45,0,0,1-73.71,17v.49h-3.65v.09a1,1,0,0,0,1.07,1.15,1,1,0,0,0,1-.49h1.55A2.34,2.34,0,0,1-76.33,20,2.51,2.51,0,0,1-79,17.21C-79,15.38-78,14.32-76.33,14.32Zm-7.29-1.83c1.64,0,2.8.89,2.84,2.23h-1.69a1.06,1.06,0,0,0-1.15-.85c-.63,0-1.07.31-1.07.76s.31.62,1.07.75l.93.18c1.42.27,2,.89,2,2,0,1.46-1.11,2.35-3,2.35s-2.94-.84-3-2.22h1.73c.05.53.58.84,1.29.84s1.16-.31,1.16-.8-.31-.62-1.11-.75l-.94-.18c-1.29-.27-2-1-2-2.09C-86.47,13.38-85.36,12.49-83.62,12.49Zm-3.65-9.91a1.8,1.8,0,0,0-1.82,1.83V20.76a1.8,1.8,0,0,0,1.82,1.82h16.36a1.8,1.8,0,0,0,1.82-1.82V4.49l-6.8,6.85-4.62-4.62,1.91-1.91,2.67,2.66L-71,2.58Z"/></clipPath><clipPath id="clip-path-22"><path class="cls-2" d="M-40.8,10.49l1.06-.51a.15.15,0,0,1,.15,0,1.83,1.83,0,0,1,.5.75s0,0,0,0c.2-.39,1.44-2.41,2.93-2.7a12,12,0,0,0-1.49,1.73,18.61,18.61,0,0,0-1,1.87.23.23,0,0,1-.19.15h-1.29a.11.11,0,0,1-.1-.1,1.53,1.53,0,0,0-.65-1.19,0,0,0,0,1,0,0"/></clipPath><clipPath id="clip-path-23"><path class="cls-2" d="M-59.24,15.54l-.34.75a.14.14,0,0,0,.11.21h4.28a.48.48,0,0,0,.43-.28l.71-1.39a.12.12,0,0,0-.09-.18H-56.2a.13.13,0,0,1-.11-.18l.43-1a.31.31,0,0,1,.3-.21h.23a.12.12,0,0,1,.09.18l-.25.5a.15.15,0,0,0,.11.21H-54a.51.51,0,0,0,.41-.26L-53,13c0-.1,0-.23-.12-.23H-57.5a.43.43,0,0,0-.39.26l-.91,1.77a.13.13,0,0,0,.09.21h2.44a.11.11,0,0,1,.09.18l-.43.86s0,.06-.07.06h-.62a.09.09,0,0,1-.06-.14l.25-.46a.1.1,0,0,0-.09-.16h-1.72c-.13,0-.25.08-.32.21"/></clipPath><clipPath id="clip-path-24"><path class="cls-2" d="M-52.2,13.44l-.59,1c-.05.09,0,.18.12.18h1.73a.5.5,0,0,0,.4-.22l.31-.53a.45.45,0,0,1,.36-.21h0c.1,0,.14.1.12.19l-.4.8a.52.52,0,0,1-.45.25h-2.51l-.88,1.44a.14.14,0,0,0,.12.2h4.29a.49.49,0,0,0,.42-.25l1.59-2.83a.14.14,0,0,0-.12-.21h-4.17a.59.59,0,0,0-.38.23m1.14,2.65h-.14a.14.14,0,0,1-.12-.2l.21-.44a.38.38,0,0,1,.31-.18.2.2,0,0,1,.19.3l-.19.34a.28.28,0,0,1-.26.18M-45.37,11l-.07.14-2.92,5.12a.14.14,0,0,0,.12.2h1.66a.39.39,0,0,0,.33-.18l1.59-2.58a.47.47,0,0,1,.4-.23.18.18,0,0,1,.17.25l-1.43,2.54a.15.15,0,0,0,.15.2h1.54a.55.55,0,0,0,.47-.27l1.26-2.31.28-.55s.14-.27,0-.27h-2.2a.09.09,0,0,1-.07-.11l.24-.44a.57.57,0,0,0,0-.55,4.69,4.69,0,0,0-.83-1.09c-.14,0-.47-.12-.61.13"/></clipPath><clipPath id="clip-path-25"><path class="cls-2" d="M-41,12.84l-1.72,3.37a.19.19,0,0,0,.14.29h1.81a.12.12,0,0,0,.14-.1L-39,13a.17.17,0,0,0-.13-.26h-1.68c-.1,0-.14,0-.17.08"/></clipPath><clipPath id="clip-path-26"><rect class="cls-1" x="-40.75" y="8.06" width="4.6" height="3.69"/></clipPath><linearGradient id="linear-gradient" x1="-9782.68" y1="-2263.57" x2="-9759.92" y2="-2290.18" gradientTransform="matrix(0.07, -0.11, -0.11, -0.07, 483.82, -1258.34)" gradientUnits="userSpaceOnUse"><stop offset="0" stop-color="#f69923"/><stop offset="0.31" stop-color="#f79a23"/><stop offset="0.84" stop-color="#e97826"/></linearGradient><linearGradient id="linear-gradient-2" x1="-9951.05" y1="-2260.57" x2="-9788.73" y2="-2260.57" gradientTransform="matrix(0.07, -0.11, -0.11, -0.07, 483.82, -1258.34)" gradientUnits="userSpaceOnUse"><stop offset="0.32" stop-color="#9e2064"/><stop offset="0.63" stop-color="#c92037"/><stop offset="0.75" stop-color="#cd2335"/><stop offset="1" stop-color="#e97826"/></linearGradient><linearGradient id="linear-gradient-3" x1="-9931.46" y1="-2276.88" x2="-9834.73" y2="-2276.88" gradientTransform="matrix(0.07, -0.11, -0.11, -0.07, 483.82, -1258.34)" gradientUnits="userSpaceOnUse"><stop offset="0" stop-color="#282662"/><stop offset="0.1" stop-color="#662e8d"/><stop offset="0.79" stop-color="#9f2064"/><stop offset="0.95" stop-color="#cd2032"/></linearGradient><linearGradient id="linear-gradient-4" x1="-9941.94" y1="-2259.07" x2="-9779.62" y2="-2259.07" xlink:href="#linear-gradient-2"/><linearGradient id="linear-gradient-5" x1="-9930.1" y1="-2261.29" x2="-9844.8" y2="-2261.29" xlink:href="#linear-gradient-3"/><linearGradient id="linear-gradient-6" x1="-9941.94" y1="-2275.87" x2="-9779.62" y2="-2275.87" xlink:href="#linear-gradient-2"/><linearGradient id="linear-gradient-7" x1="-9952.01" y1="-2275.05" x2="-9789.69" y2="-2275.05" xlink:href="#linear-gradient-2"/><linearGradient id="linear-gradient-8" x1="-9941.94" y1="-2280.9" x2="-9779.62" y2="-2280.9" xlink:href="#linear-gradient-2"/><linearGradient id="linear-gradient-9" x1="-9941.94" y1="-2280.31" x2="-9779.62" y2="-2280.31" xlink:href="#linear-gradient-2"/><clipPath id="clip-path-28"><path class="cls-2" d="M-208.12,57.39a2,2,0,0,1-.94-.24,2,2,0,0,1-1-1.77v-8a2,2,0,0,1,2-2,2,2,0,0,1,2,2v4.26l6.31-4.26-9.37-6.34a2,2,0,0,1-.55-2.77,2,2,0,0,1,2.73-.56l11.85,8a2,2,0,0,1,.88,1.67,2,2,0,0,1-.88,1.66l-11.84,8a2,2,0,0,1-1.09.34"/></clipPath><clipPath id="clip-path-29"><rect class="cls-1" x="-150.82" y="37.35" width="20.49" height="20"/></clipPath><clipPath id="clip-path-30"><path class="cls-2" d="M-138.86,55.76l-.32,0h-.24c.09-.18.15-.33.2-.43l.36.38"/></clipPath><clipPath id="clip-path-31"><path class="cls-2" d="M-139,47.5a4,4,0,0,1-.54.37l-.62.37a7.19,7.19,0,0,0-.75.15l0,0a.1.1,0,0,0-.07.08l-.63,2.06-3.4.74-1.08-.73-.31-2.49c.61-.11,1.42-.23,2.4-.34a2.88,2.88,0,0,0-.3.39l-.58.82.84-.56a14.77,14.77,0,0,1,1.44-.78c1-.07,1.92-.11,2.89-.11Zm-5.29,2.8a2,2,0,0,1,.94-.11h.27c.44,0,.81,0,.8-.65s-.31-1.23-.75-1.22-.87.56-.84,1.24a1.18,1.18,0,0,0,.07.39.67.67,0,0,0-.49.35Zm11.18-2.24-.3,2.12-1.08.74-3.4-.38-.63-2a.17.17,0,0,0-.1-.1,6.49,6.49,0,0,0-.89-.16h.09a14.09,14.09,0,0,0,2.64-.63C-135.23,47.72-134,47.91-133.1,48.06Zm-2.17,2s-.09-.29-.5-.24a.89.89,0,0,0,.05-.43c-.05-.68-.45-1.22-.89-1.2s-.73.58-.7,1.26.39.67.83.66C-135.89,50.06-135.56,49.88-135.27,50Z"/></clipPath><clipPath id="clip-path-32"><path class="cls-2" d="M-136.43,49c0,.21-.09.39-.22.39s-.22-.16-.23-.38h0c0-.22.1-.4.22-.4h0c.13,0,.23.17.23.38h0m-6.3.28c0,.22-.09.4-.22.41s-.23-.17-.23-.39h0c0-.21.1-.39.22-.4h0c.12,0,.23.17.23.38"/></clipPath><clipPath id="clip-path-33"><path class="cls-2" d="M-131.61,49l-.41-.23-.28,2a.21.21,0,0,1-.06.1l-.41.28a.5.5,0,0,0,0,.12,1.18,1.18,0,0,0,1-.39,8.3,8.3,0,0,0,.22-1.18c0-.51,0-.61,0-.66m-6.29,7.46a1.82,1.82,0,0,1-.72-.45l0,0a4.29,4.29,0,0,1-.5.07h-.37a1.94,1.94,0,0,1-1,.68,6.23,6.23,0,0,0,2.65-.26m-8.7-4.81,0-.09-.53-.36a.17.17,0,0,1-.06-.1l-.25-2.06a4.41,4.41,0,0,0-.47.27c-.05,0-.09.15,0,.64a8.47,8.47,0,0,0,.31,1.36,1.42,1.42,0,0,0,1.07.34m7.91-.09a.14.14,0,0,1-.12-.1l-.66-2.12-.28,0-.29,0-.64,2.06a.12.12,0,0,1-.1.09l-.31.07c0,.11-.11.26-.39.35a32.8,32.8,0,0,1-3.66.93,3.21,3.21,0,0,1-.82-.38,4.3,4.3,0,0,1-.18-.46h0A9.16,9.16,0,0,0-145,54.2l1.75-.53c.46-.7,1.11-1.39,1.58-1.41h.25c.22,0,.44,0,.64,0a.82.82,0,0,1-.23-.41,2,2,0,0,0,1.35.36,2.43,2.43,0,0,0,1.23-.53v-.13l-.3,0"/></clipPath><clipPath id="clip-path-34"><path class="cls-2" d="M-138.08,51.82a.73.73,0,0,1-.32-.17v.06a.75.75,0,0,1-.33.56,4.5,4.5,0,0,1,1.08-.25.54.54,0,0,1,.38.15l.05,0,1.24,1,1.23.13c.23,0,.43,0,.63,0h.19a9.37,9.37,0,0,0,.57-1.31,4,4,0,0,1-1,.56,34.35,34.35,0,0,1-3.69-.77"/></clipPath><clipPath id="clip-path-35"><path class="cls-2" d="M-130.76,44.41c0-.06,0-.13,0-.2s0-.09,0-.14a5,5,0,0,0-.61-.41,6.38,6.38,0,0,0-.74-.37c-.25-.12-.5-.22-.76-.32a3.12,3.12,0,0,0-.39-.15l-.39-.15c.27,0,.55.11.82.18a5.26,5.26,0,0,1,.53.15,8.1,8.1,0,0,0-7.45-5.27A8.09,8.09,0,0,0-147.24,43a5.26,5.26,0,0,1,.53-.15c.27-.07.54-.13.82-.18l-.39.15a3.12,3.12,0,0,0-.39.15c-.26.1-.52.2-.77.32a7.14,7.14,0,0,0-.73.37,4.33,4.33,0,0,0-.61.41s0,.09,0,.14a1.5,1.5,0,0,0,0,.2c0,.14,0,.28,0,.41a7.37,7.37,0,0,0,.05.82,7.08,7.08,0,0,0,.16.8c0,.13.08.26.13.39l.08.18,0,.09,0,0,.06,0,.13.06.24.11h0l-.23-.86c.05,0,.49-.12,1.23-.27l-.18,0-.5-.16-.24-.11a1.08,1.08,0,0,1-.2-.16,13.12,13.12,0,0,0,4,0,41.26,41.26,0,0,1,4.16-.23,41.45,41.45,0,0,1,4.17.23,13.12,13.12,0,0,0,4,0,1.16,1.16,0,0,1-.21.16l-.23.11-.5.16h-.08c.82.15,1.3.28,1.35.29l-.22.82.13-.06.13-.06.06,0,0,0,0-.09.08-.18a2.91,2.91,0,0,0,.12-.39,5.42,5.42,0,0,0,.17-.8,7.37,7.37,0,0,0,0-.82c0-.13,0-.27,0-.41"/></clipPath><clipPath id="clip-path-36"><path class="cls-2" d="M-136.38,42.83a5.89,5.89,0,0,1-.17,1.64.11.11,0,0,0,0,.08l-.66-.06a3.64,3.64,0,0,0,.31-1.25,6.31,6.31,0,0,0,.52-.41m-6.3.41a3.38,3.38,0,0,0,.31,1.24l-.66.06a.08.08,0,0,0,0-.07,5.85,5.85,0,0,1-.17-1.64,6.31,6.31,0,0,0,.52.41m9,1.81v0l.07,0c.2.07.41.14.6.22a2.3,2.3,0,0,1-.65-1.26,5.26,5.26,0,0,1,0,1m-9.79-2.34-2.1.59a6.62,6.62,0,0,0-.07,1.63h0a6.08,6.08,0,0,1,.21-1.22c.07-.17.51-.28.85-.36s.87-.24,1,.23a4,4,0,0,0,.24.7,6.38,6.38,0,0,1-.11-1.57m7.36,0a6.76,6.76,0,0,1-.13,1.65,3.43,3.43,0,0,0,.28-.78c.1-.47.64-.31,1-.23s.78.19.85.36a5.54,5.54,0,0,1,.2,1.16A7.19,7.19,0,0,0-134,43.3l-2.1-.59m-6.59.18.23.17a.11.11,0,0,1,.06.11,3.36,3.36,0,0,0,.32,1.27s0,0,0,0c.76-.05,1.53-.07,2.29-.07s1.52,0,2.28.07l0,0a3.36,3.36,0,0,0,.32-1.27.11.11,0,0,1,.06-.11l.22-.16v0a10.21,10.21,0,0,0-.32-3.62c0,.47-.12,4.54-1.15,4.54h-2.83c-1.09,0-1.18-4.59-1.18-4.59l0,.17a10.3,10.3,0,0,0-.29,3.52m-3.2,2.18v0a5.73,5.73,0,0,1,0-1,2.23,2.23,0,0,1-.64,1.26,6.13,6.13,0,0,1,.6-.22l.07,0"/></clipPath><clipPath id="clip-path-37"><path class="cls-2" d="M-132.79,51.22l-.06.27a2.76,2.76,0,0,0,.79.06,2.18,2.18,0,0,0,.27-.72,1.18,1.18,0,0,1-1,.39m-8.37,5.62a5.13,5.13,0,0,0,1.69.18,7,7,0,0,0,2.07-.47,1.71,1.71,0,0,1-.5-.1,6.23,6.23,0,0,1-2.65.26,2.84,2.84,0,0,1-.48.11l-.13,0m-5.4-5.07a.65.65,0,0,1,0-.13,1.42,1.42,0,0,1-1.07-.34,1.82,1.82,0,0,0,.24.56,2.93,2.93,0,0,0,.87-.09m.6.68a3.21,3.21,0,0,0,.82.38,32.8,32.8,0,0,0,3.66-.93c.28-.09.37-.24.39-.35l-4.14.91h0l-.09,0-.16-.11L-146,52h0l-.2-.13v0a.3.3,0,0,1,0,.1h0a4.3,4.3,0,0,0,.18.46m12.72-.79c0-.09.05-.19.07-.29l-.14.1-.39.27-.42.29-.07,0h0l-4.17-.47v.07a.73.73,0,0,0,.32.17,34.35,34.35,0,0,0,3.69.77,4,4,0,0,0,1-.56h0l.12-.36"/></clipPath><clipPath id="clip-path-38"><path class="cls-2" d="M-137.66,46.13l-.11.13a8.4,8.4,0,0,1-.8.87l-1.16,0c-.67,0-1.3,0-1.9,0a14.79,14.79,0,0,1,3-.89c.33-.06.66-.11,1-.14m-5,.37a6.75,6.75,0,0,0-1,.81c-.74.07-1.48.16-2.21.28a16.8,16.8,0,0,1,3.19-1.09m10.41,1.73-.35,2.39-1.66,1.15-4.33-.49-.65-2.11a.16.16,0,0,0-.11-.1,2.37,2.37,0,0,0-.43,0,2.35,2.35,0,0,0-.42,0,.16.16,0,0,0-.11.1l-.64,2.06-4.3.94L-146.94,51l-.34-2.68.23-.12.35-.08.32,2.53a.13.13,0,0,0,.06.1l1.17.81.09,0h0l3.54-.77,0,0a.1.1,0,0,0,.07-.08l.64-2.07a4.73,4.73,0,0,1,1-.14,4.74,4.74,0,0,1,1,.14l.64,2.07a.14.14,0,0,0,.12.1l3.54.39a.12.12,0,0,0,.1,0l1.17-.81a.18.18,0,0,0,.06-.09l.31-2.16.59.11m.44-1.49-.31,1.13a33.57,33.57,0,0,0-3.85-.57,10.14,10.14,0,0,0,1.79-1c1.11.15,1.93.32,2.37.42m-15.89,0,.09.31c.21-.16.42-.32.64-.46-.3,0-.55.11-.73.15"/></clipPath><clipPath id="clip-path-39"><path class="cls-2" d="M-135.72,46.1l-1.4-.07a1.88,1.88,0,0,1-.16.23,8.91,8.91,0,0,1-1.37,1.46,11,11,0,0,0,3.31-1.6l-.38,0m-3.42-.12h-1.75l-.64.3h0a7.4,7.4,0,0,0-1.73,1.21l.21-.11a11,11,0,0,1,3.4-1.41h.52m-3.94.08-.89,0-1,.07-.51,0-.14,0A14.11,14.11,0,0,0-149,48.94l.07-.07a13.46,13.46,0,0,1,5.86-2.81m9.87,7.53,0,0a1.81,1.81,0,0,1-.88.17c-.22,0-.43,0-.67,0-.48,0-1.29-.14-1.3-.14h-.06l-.05,0-1.29-1-.07,0c-.06,0-.06,0-.09,0a12.39,12.39,0,0,0-1.89.52l-.08,0-.07,0a5,5,0,0,0-1.69-.29h-.23c-.09,0-.61.25-1.27,1.28l0,.06-.08,0s-1.15.36-2.36.7l-.08,0-.07,0-.93-.42.1,0c.44.38,1.29,1.11,1.39,1.21l.05.05a.46.46,0,0,0-.07-.07h0a2.45,2.45,0,0,0,.66.46,1.6,1.6,0,0,0,.37.12h.39l.8-.06.8-.08.8-.11.39-.06.18-.06a.65.65,0,0,0,.15-.1l.29-.27.29-.29c.15-.16.29-.33.44-.5l.06-.06h0l.09.07c.19.13.37.28.56.4a7.8,7.8,0,0,0,.71.46l.19.09h.19l.41,0,.85-.15.83-.17.84-.19a2.67,2.67,0,0,0,.4-.13,1.56,1.56,0,0,0,.34-.23,2.47,2.47,0,0,0,.55-.65h0a2,2,0,0,0,.19-.42m-5.23-13h.49v-1h-3.61v1h.5v-.5h1v3h-.42v.56H-139v-.56h-.42v-3h1v.5"/></clipPath><clipPath id="clip-path-40"><path class="cls-2" d="M-134.71,46.17h0l-.61,0h0a11,11,0,0,1-3.31,1.6l0,0A10.94,10.94,0,0,0-136.2,47a9.13,9.13,0,0,0,1.39-.77l.1-.07m-4.95-.2a11.24,11.24,0,0,0-3.4,1.42c.41-.2.81-.39,1.23-.56l.15-.06.05,0,.12,0,.07,0,.12,0,.08,0,.11,0,.1,0,.1,0,.12,0,.09,0,.14-.05.07,0,.22-.07.49-.14.66-.16h-.52m-3.42.09a13.46,13.46,0,0,0-5.86,2.81l-.07.07a19.15,19.15,0,0,1,5.38-2.57l.23-.07c.4-.11.8-.2,1.2-.28l-.88,0m10.3,7.33-.07,0,0,0h0l0,0h0l-.05,0h0l-.06,0h0l-.11.05a2,2,0,0,1-.19.42h0a2.47,2.47,0,0,1-.55.65,1.56,1.56,0,0,1-.34.23,2.67,2.67,0,0,1-.4.13l-.84.19-.83.17-.85.15-.42,0h-.18l-.19-.09a7.8,7.8,0,0,1-.71-.46c-.19-.12-.37-.27-.56-.4v0h0l0,0h0l0,0,.15.18,0,0c.08.09.4.46.79.84a1.46,1.46,0,0,0,1.06.44,1.59,1.59,0,0,0,.43-.06l.44-.1c.45-.11,1-.22,1.29-.31l.06,0,.13,0,.2,0a1.66,1.66,0,0,0,1.25-.79c.08-.18.17-.35.26-.52s.3-.56.44-.84h0l0,0-.06,0m-6.62,1.24,0,0c-.15.17-.29.34-.44.5l-.29.29-.29.27a.65.65,0,0,1-.15.1l-.18,0-.39.07-.8.11-.8.08-.8.06h-.39a2.29,2.29,0,0,1-.37-.12,2.66,2.66,0,0,1-.66-.45h0l.09.09,0,0-.05-.05c-.1-.1-.95-.83-1.39-1.21l-.1,0c.08.12.17.24.25.37l.4.55.18.23a2.66,2.66,0,0,0,2.26,1.18l.46,0h.21c1-.12,1.29-.17,1.45-.19l.11,0h0a2.4,2.4,0,0,0,.69-.2,1.2,1.2,0,0,0,.57-.52c.28-.62.33-.77.34-.78l.09-.26"/></clipPath><clipPath id="clip-path-41"><path class="cls-2" d="M-136.65,49a.22.22,0,0,0,.22-.22.22.22,0,0,0-.22-.22h0a.22.22,0,0,0-.22.22h0A.23.23,0,0,0-136.65,49Zm1.38,1c-.29-.14-.62,0-1.21,0-.44,0-.81,0-.83-.66s.26-1.25.7-1.26.84.52.89,1.2a.89.89,0,0,1-.05.43C-135.36,49.73-135.27,50-135.27,50Zm-7.68-.83a.23.23,0,0,0,.22-.23.23.23,0,0,0-.23-.22.24.24,0,0,0-.22.23A.24.24,0,0,0-142.95,49.19Zm.68.35c0,.68-.36.64-.8.65h-.27a2,2,0,0,0-.94.11.7.7,0,0,1,.49-.35,1.18,1.18,0,0,1-.07-.39c0-.68.4-1.24.84-1.24S-142.27,48.86-142.27,49.54Zm8.33-4.67s0,.08,0,.12l-.53-.13a17,17,0,0,0-1.76-.28h-.06v0a1.8,1.8,0,0,0,0-.19,6.76,6.76,0,0,0,.13-1.65l2.1.59A7.19,7.19,0,0,1-133.94,44.87Zm-2.61-.4a.11.11,0,0,0,0,.08l-.66-.06a3.64,3.64,0,0,0,.31-1.25,6.31,6.31,0,0,0,.52-.41A5.89,5.89,0,0,1-136.55,44.47Zm-6.48.07a.08.08,0,0,0,0-.07,5.89,5.89,0,0,1-.17-1.64,6.31,6.31,0,0,0,.52.41,3.38,3.38,0,0,0,.31,1.24Zm-.32,0c-.29,0-.59.07-.88.12l-.88.16-.52.13v-.06a6.62,6.62,0,0,1,.07-1.63l2.1-.59a6.38,6.38,0,0,0,.11,1.57,2.68,2.68,0,0,0,.07.27v0Zm10.54.83-.05,0-.09,0-.06,0c-.19-.08-.4-.15-.6-.22l-.07,0v0a5.26,5.26,0,0,0,0-1,8,8,0,0,0-.09-.88.16.16,0,0,0-.1-.11l-.3-.08a5.43,5.43,0,0,0-1-3.39,6.16,6.16,0,0,1,.83,3.33l-1.86-.52h-.13l-.13.12a6.55,6.55,0,0,0,0-.75v-.09a6.89,6.89,0,0,0-.83-2.92,3.49,3.49,0,0,1,.14.46,10.24,10.24,0,0,1,.32,3.62v0h0l-.22.16a.11.11,0,0,0-.06.11,3.36,3.36,0,0,1-.32,1.27l0,0c-.76-.05-1.52-.07-2.28-.07s-1.53,0-2.29.07c0,0,0,0,0,0a3.36,3.36,0,0,1-.32-1.27.11.11,0,0,0-.06-.11l-.23-.17a10.3,10.3,0,0,1,.29-3.52c.09-.35.16-.56.16-.58a7.47,7.47,0,0,0-.84,3.76l-.13-.12h-.14l-1.85.52a6.07,6.07,0,0,1,.83-3.33A5.43,5.43,0,0,0-145.43,43l-.3.08a.16.16,0,0,0-.1.11,8.46,8.46,0,0,0-.1.88,5.73,5.73,0,0,0,0,1v0l-.07,0c-.2.07-.41.14-.6.22l-.06,0h0l-.09,0,0,0,0,0a2,2,0,0,1,.42-.13,3.29,3.29,0,0,1,.43-.09c.29-.06.58-.1.87-.14s.58-.07.88-.09l.87-.07c1.18-.06,2.35-.09,3.53-.09s2.35,0,3.52.09l.88.07c.3,0,.59.06.88.09s.58.08.87.14a3.29,3.29,0,0,1,.43.09,2.25,2.25,0,0,1,.42.13Z"/></clipPath><clipPath id="clip-path-42"><path class="cls-2" d="M-139.46,40.11v3h.42v.56h-1.42v-.56h.42v-3h-1v.5h-.5v-1h3.61v1h-.49v-.5Zm1.88.87V39.26h-4.35V41h1.24v-.5h.28v2.31h-.42v1.3h2.16v-1.3h-.42V40.48h.28V41Z"/></clipPath><clipPath id="clip-path-43"><rect class="cls-1" x="-118.6" y="37.25" width="19.26" height="20"/></clipPath></defs><title>maven</title><rect class="cls-1" x="-643.42" y="-1120.26" width="1366" height="2644"/><rect class="cls-1" x="-935.03" y="-1249.83" width="1366" height="3311"/><path class="cls-3" d="M-108.11-110l-2.93,2.93a.25.25,0,0,1-.36,0l-.65-.66a.24.24,0,0,1,0-.35l2.09-2.1-2.09-2.09a.25.25,0,0,1,0-.36l.65-.65a.25.25,0,0,1,.36,0l2.93,2.93A.26.26,0,0,1-108.11-110Z"/><g class="cls-17"><rect class="cls-3" x="-668.19" y="-459.19" width="742.75" height="1800.34"/></g><rect class="cls-3" x="-107.13" y="-108.75" width="5.55" height="1.51" rx="0.38"/><g class="cls-18"><rect class="cls-3" x="-667.19" y="-459.19" width="742.75" height="1800.34"/></g><rect class="cls-1" x="-693.44" y="-1176.12" width="1366" height="3024"/><rect class="cls-1" x="-576.24" y="-976.67" width="1366" height="2291"/><g id="g4701"><path id="path4710" class="cls-31" d="M17.39,3.26A8.33,8.33,0,0,0,15.6,4.6l.45,1.25A13.66,13.66,0,0,1,17.59,4.4l.06-.05-.06.05a15.56,15.56,0,0,0-1.47,1.48,20.8,20.8,0,0,0,2.42,0A2.51,2.51,0,0,0,18.59,4S18.14,3,17.39,3.26Z"/><path id="path4712" class="cls-1" d="M15.39,9.69h0Z"/><path id="path4714" class="cls-1" d="M14.46,11.66h0Z"/><path id="path4716" class="cls-1" d="M9.54,15.67l0,0,.55-1c.21-.36.41-.7.6-1s.41-.69.61-1,.42-.68.62-1l.48-.75c.05-.08.1-.16.16-.24l.3-.46.27-.4.09-.13v0h-.07l0-.12,0,0-.41.6-.24.35c-.22.33-.44.66-.65,1l-.64,1-.6,1-.59,1-.59,1-.12.23q-.24.4-.45.81l.07.2H9s0,0,0,0C9.17,16.35,9.36,16,9.54,15.67Z"/><path id="path4720" class="cls-32" d="M13.91,12.65h0Z"/><path id="path4722" class="cls-33" d="M13.91,12.65h0Z"/><path id="path4724" class="cls-32" d="M14.27,11.67Z"/><path id="path4726" class="cls-33" d="M14.27,11.67Z"/><path id="path4737" class="cls-34" d="M13.8,8.56l.72-.94c.24-.31.49-.61.74-.91l.05,0c.24-.28.49-.56.73-.82L15.6,4.6l-.16.15-.65.63c-.26.25-.52.52-.79.8s-.5.54-.75.83-.43.49-.65.75l0,0,.56,1.68C13.36,9.17,13.59,8.86,13.8,8.56Z"/><path id="path4748" class="cls-35" d="M8.89,16.88q-.23.4-.45.84h0l-.06.12L8,18.61a1.64,1.64,0,0,1,.49.8,1.32,1.32,0,0,0-.28-.95A2.77,2.77,0,0,0,11,17.77c.05-.07.11-.14.16-.22a1.12,1.12,0,0,1-1.12.23h0a3.12,3.12,0,0,0,1.74-1.05,3.66,3.66,0,0,0,.32-.41,2.55,2.55,0,0,1-2.49.43l-.65,0C8.94,16.78,8.91,16.83,8.89,16.88Z"/><path id="path4759" class="cls-36" d="M9.4,15.48c.19-.34.39-.68.58-1s.39-.66.59-1,.4-.67.61-1l.63-1c.22-.33.44-.66.65-1l.24-.35.42-.6a.05.05,0,0,1,0,0l-.56-1.68-.05.06-.69.85c-.23.29-.45.59-.68.89l-.56.78-.11.16c-.22.33-.43.65-.62,1s-.41.69-.58,1L9,13.12l-.24.51a12.5,12.5,0,0,0-.48,1.2l.57,1.69c.14-.27.29-.53.44-.81C9.31,15.64,9.35,15.56,9.4,15.48Z"/><path id="path4770" class="cls-37" d="M8.23,14.88a11.32,11.32,0,0,0-.43,1.48.43.43,0,0,1,0,.05,3.33,3.33,0,0,0-.8-.92,4.43,4.43,0,0,1,.59,2.19,2.18,2.18,0,0,1-1-.32,2,2,0,0,0,.78.65,2.39,2.39,0,0,0-1.28.42,2.54,2.54,0,0,1,1.46-.05C6.78,19.84,6,21.47,5.17,23.2a.47.47,0,0,0,.37-.26c.15-.32,1.11-2.38,2.54-5.06l.13-.23,0-.06.47-.86c0-.07.07-.14.11-.2h0l-.57-1.69Z"/><path id="path4781" class="cls-38" d="M13.25,9.63l-.09.13-.27.4-.3.46c-.06.08-.11.16-.16.24l-.48.75c-.2.31-.41.64-.62,1s-.4.66-.61,1-.39.68-.6,1-.36.64-.55,1l0,0L9,16.7a0,0,0,0,1,0,0l.65,0,0,0a4.64,4.64,0,0,0,2.66-1,6.22,6.22,0,0,0,1-1,11.71,11.71,0,0,0,.71-1q.3-.51.6-1.11a3,3,0,0,1-.64.12h-.25a2.78,2.78,0,0,0,1.71-1.24,2.54,2.54,0,0,1-.91.26h-.2A3.1,3.1,0,0,0,15,11.4l.13-.08.18-.13.11-.09a1.36,1.36,0,0,0,.24-.24l.07-.09.09-.12a5.7,5.7,0,0,0,.32-.51c.05-.07.08-.14.12-.2s0,0,0-.08l.09-.19a1.19,1.19,0,0,0,.08-.21h0l-.09,0a3,3,0,0,1-.93.18l.6,0-.6,0h-.09L13.26,9.6S13.25,9.62,13.25,9.63Z"/><path id="path4792" class="cls-39" d="M16.12,5.88c-.22.25-.46.54-.72.86l0,0c-.23.28-.47.59-.73.93s-.46.6-.7,1-.43.61-.67.94l2.06.08A2.54,2.54,0,0,0,16.55,9l.25-.28a12,12,0,0,0,.74-.95,8.27,8.27,0,0,0,.59-.92,4.11,4.11,0,0,0,.26-.51c.06-.13.1-.26.15-.38A23.08,23.08,0,0,1,16.12,5.88Z"/><path id="path4794" class="cls-32" d="M13.8,12.65h0Z"/><path id="path4796" class="cls-33" d="M13.8,12.65h0Z"/><path id="path4807" class="cls-40" d="M13.8,12.65h0Z"/><path id="path4809" class="cls-32" d="M14.27,11.67h0Z"/><path id="path4811" class="cls-33" d="M14.27,11.67h0Z"/><path id="path4822" class="cls-41" d="M14.27,11.67h0Z"/></g><rect class="cls-1" x="-590.31" y="-1354.02" width="1366" height="2291"/><rect class="cls-1" x="-791.76" y="-1096.25" width="1366" height="2291"/><rect class="cls-1" x="-791.76" y="-1096.25" width="1366" height="2291"/><rect class="cls-1" x="-791.76" y="-1096.25" width="1366" height="2291"/><rect class="cls-1" x="-431.81" y="-1635.24" width="1366" height="2291"/><rect class="cls-1" x="-728.86" y="-1097.25" width="1366" height="2291"/></svg>