<?xml version="1.0" encoding="utf-8"?>
<!-- Generator: Adobe Illustrator 21.1.0, SVG Export Plug-In . SVG Version: 6.00 Build 0)  -->
<svg version="1.1" id="Layer_1" xmlns="http://www.w3.org/2000/svg" xmlns:xlink="http://www.w3.org/1999/xlink" x="0px" y="0px"
	 viewBox="0 0 12 14" style="enable-background:new 0 0 12 14;" xml:space="preserve">
<style type="text/css">
	.st0{fill:#AAAAAA;}
</style>
<title>Angle Double Right - FontAwesome</title>
<desc>Created with Sketch.</desc>
<g id="final">
	<g id="Get-started--Redesign_draft_Desktop_Create-a-Gauge-Project" transform="translate(-1227.000000, -1417.000000)">
		<path id="Angle-Double-Right---FontAwesome" class="st0" d="M1234.3,1423.9c0,0.1,0,0.2-0.1,0.3l-5.7,5.7
			c-0.1,0.1-0.2,0.1-0.3,0.1c-0.1,0-0.2,0-0.3-0.1l-0.6-0.6c-0.1-0.1-0.1-0.2-0.1-0.3c0-0.1,0-0.2,0.1-0.3l4.8-4.8l-4.8-4.8
			c-0.1-0.1-0.1-0.2-0.1-0.3s0-0.2,0.1-0.3l0.6-0.6c0.1-0.1,0.2-0.1,0.3-0.1c0.1,0,0.2,0,0.3,0.1l5.7,5.7
			C1234.3,1423.7,1234.3,1423.8,1234.3,1423.9z M1239,1423.9c0,0.1,0,0.2-0.1,0.3l-5.7,5.7c-0.1,0.1-0.2,0.1-0.3,0.1
			c-0.1,0-0.2,0-0.3-0.1l-0.6-0.6c-0.1-0.1-0.1-0.2-0.1-0.3c0-0.1,0-0.2,0.1-0.3l4.8-4.8l-4.8-4.8c-0.1-0.1-0.1-0.2-0.1-0.3
			s0-0.2,0.1-0.3l0.6-0.6c0.1-0.1,0.2-0.1,0.3-0.1c0.1,0,0.2,0,0.3,0.1l5.7,5.7C1239,1423.7,1239,1423.8,1239,1423.9z"/>
	</g>
</g>
</svg>
