<svg id="Layer_1" data-name="Layer 1" xmlns="http://www.w3.org/2000/svg" xmlns:xlink="http://www.w3.org/1999/xlink" viewBox="0 0 30 30"><defs><style>.cls-1,.cls-2{fill:none;}.cls-2{clip-rule:evenodd;}.cls-3{fill:#fff;}.cls-4{clip-path:url(#clip-path);}.cls-5{clip-path:url(#clip-path-2);}.cls-6{clip-path:url(#clip-path-3);}.cls-7{clip-path:url(#clip-path-4);}.cls-8{clip-path:url(#clip-path-5);}.cls-9{clip-path:url(#clip-path-6);}.cls-10{clip-path:url(#clip-path-7);}.cls-11{clip-path:url(#clip-path-8);}.cls-12{clip-path:url(#clip-path-9);}.cls-13{clip-path:url(#clip-path-10);}.cls-14{clip-path:url(#clip-path-11);}.cls-15{clip-path:url(#clip-path-12);}.cls-16{clip-path:url(#clip-path-13);}.cls-17{clip-path:url(#clip-path-14);}.cls-18{clip-path:url(#clip-path-15);}.cls-19{clip-path:url(#clip-path-16);}.cls-20{clip-path:url(#clip-path-17);}.cls-21{clip-path:url(#clip-path-18);}.cls-22{clip-path:url(#clip-path-19);}.cls-23{clip-path:url(#clip-path-20);}.cls-24{fill:#1e1e1e;}.cls-25{clip-path:url(#clip-path-21);}</style><clipPath id="clip-path"><path class="cls-1" d="M-44.19-53a2.07,2.07,0,0,0-2.26,2c0,1.26.74,1.86,1.86,2.33l.38.17c.71.3,1.06.49,1.06,1s-.34.76-1,.76-1.12-.51-1.45-1.05l-1.22.8a2.82,2.82,0,0,0,2.7,1.62c1.47,0,2.56-.76,2.56-2.15s-.74-1.86-2.05-2.42L-44-50c-.66-.29-1-.47-1-.94a.68.68,0,0,1,.74-.66,1.06,1.06,0,0,1,1,.66l1.2-.77A2.28,2.28,0,0,0-44.19-53Zm-5,0v5.09c0,.78-.29,1-.81,1a1.31,1.31,0,0,1-1.15-.77l-1.27.77a2.83,2.83,0,0,0,2.52,1.62,2.12,2.12,0,0,0,2.33-2.35V-53Zm-6.61-6.88H-41a.27.27,0,0,1,.27.27v14.84a.27.27,0,0,1-.27.27H-55.84a.27.27,0,0,1-.27-.27V-59.59A.27.27,0,0,1-55.84-59.86Zm0-.81a1.09,1.09,0,0,0-1.08,1.08v14.84a1.09,1.09,0,0,0,1.08,1.08H-41a1.08,1.08,0,0,0,1.08-1.08V-59.59A1.08,1.08,0,0,0-41-60.67Z"/></clipPath><clipPath id="clip-path-2"><path class="cls-2" d="M-18-52l-.3-.49c-.1-.16-.2-.34-.29-.52a4.79,4.79,0,0,1-.48-1.15,2,2,0,0,1,.63-1.73l.19-.21c.39-.46.93-1,1.35-1.45a2.61,2.61,0,0,0,.73-1.7c0-.39,0-1.22-.29-1.37a3,3,0,0,1-.12,1.56,3.47,3.47,0,0,1-1.12,1.48c-.39.33-1,.92-1.34,1.26a3.33,3.33,0,0,0-.73,1A1.38,1.38,0,0,0-19.57-54c.11.19.23.36.35.53s.26.34.37.49.27.32.4.48A4.75,4.75,0,0,0-18-52"/></clipPath><clipPath id="clip-path-3"><path class="cls-2" d="M-12.74-47c.17.2,0,.28-.22.36a28.41,28.41,0,0,1-5.46.44,22.85,22.85,0,0,1-3.22-.16c-.17,0-.91-.11-.95-.26s.11-.17.18-.2a4.14,4.14,0,0,1,1-.23,3.69,3.69,0,0,0,.37,0,4.73,4.73,0,0,0-2.46.52c-.22.24.15.35.39.41a22.24,22.24,0,0,0,3.87.29c1.51,0,5.16,0,6.5-.69.08,0,.23-.13.25-.21s-.15-.2-.23-.22"/></clipPath><clipPath id="clip-path-4"><path class="cls-2" d="M-16.87-50.77a4.13,4.13,0,0,0,.8-.59,1.56,1.56,0,0,0,.51-.89,2,2,0,0,0-.37-1c-.48-.7-.86-1.1-.22-1.87a4.74,4.74,0,0,1,.73-.68,15,15,0,0,1,1.24-.85l.44-.27a7.72,7.72,0,0,0-1.09.36,6.25,6.25,0,0,0-1,.45c-1,.54-1.93,1.39-1.54,2.57.27.79,1,1.27,1,1.87,0,.36-.39.73-.5.91"/></clipPath><clipPath id="clip-path-5"><path class="cls-2" d="M-15-47.58a4.74,4.74,0,0,1-.86-.37c-.17-.09-.11-.08-.32,0a17.28,17.28,0,0,1-3.23.16c-.23,0-.9,0-1-.22s0-.2.08-.27c-.6.1-1.22.53-.38.89a9.46,9.46,0,0,0,4,.24,12.42,12.42,0,0,0,1.78-.4"/></clipPath><clipPath id="clip-path-6"><path class="cls-2" d="M-15-48.79a1.32,1.32,0,0,1-.56-.31c-.12-.1-.08-.07-.33,0a14.27,14.27,0,0,1-4.41.1c-.1,0-.21-.11-.22-.22s.11-.22.16-.29c-.62.07-1.22.67-.39.95a12.11,12.11,0,0,0,4,.21A10.53,10.53,0,0,0-15-48.79"/></clipPath><clipPath id="clip-path-7"><path class="cls-2" d="M-13.74-51.48l-.43.06-.44.05c-.89.1-1.88.19-2.77.23-.7,0-3.33.11-3.73-.2,0-.14.16-.22.28-.27A7.93,7.93,0,0,1-19.45-52a7.57,7.57,0,0,0-2.72.61c-.6.31.4.44.78.48A26.68,26.68,0,0,0-14.95-51a1.41,1.41,0,0,0,.67-.15c.17-.09.39-.18.54-.28"/></clipPath><clipPath id="clip-path-8"><path class="cls-2" d="M-21.13-45a12.86,12.86,0,0,0,2.52.36,25.33,25.33,0,0,0,2.89,0A12.4,12.4,0,0,0-12-45.27c.25-.1.7-.35.75-.58a1.43,1.43,0,0,0-.21.12c-1.87,1-6.14.93-8.35.8L-21.13-45"/></clipPath><clipPath id="clip-path-9"><path class="cls-2" d="M-13.4-51.7a1.15,1.15,0,0,1,1.23.24,1.32,1.32,0,0,1,.09,1.4,4.58,4.58,0,0,1-1.42,1.57,2.15,2.15,0,0,0-.24.18,4.76,4.76,0,0,0,1.4-.68,2.61,2.61,0,0,0,1-1.2,1.37,1.37,0,0,0-.5-1.58,1.26,1.26,0,0,0-.8-.23,1.07,1.07,0,0,0-.74.3"/></clipPath><clipPath id="clip-path-10"><path class="cls-1" d="M11.83-58a.67.67,0,0,1,.65.68.66.66,0,0,1-.65.68.66.66,0,0,1-.65-.68A.67.67,0,0,1,11.83-58Zm1.86-1.1a10.18,10.18,0,0,0-1.64.15c-1.46.27-1.72.83-1.72,1.86v1.36h3.44v.45H9a2.18,2.18,0,0,0-2.15,1.81,7,7,0,0,0,0,3.64c.25,1,.83,1.81,1.83,1.81H9.9v-1.64a2.23,2.23,0,0,1,2.15-2.21h3.44a1.77,1.77,0,0,0,1.72-1.82v-3.4a2,2,0,0,0-1.72-1.86A10.93,10.93,0,0,0,13.69-59.09Z"/></clipPath><clipPath id="clip-path-11"><path class="cls-1" d="M15.74-46.61a.66.66,0,0,1,.65.67.66.66,0,0,1-.65.68.66.66,0,0,1-.64-.68A.66.66,0,0,1,15.74-46.61Zm1.93-8.55v1.57a2.23,2.23,0,0,1-2.14,2.25H12.09a1.78,1.78,0,0,0-1.72,1.8v3.38c0,1,.81,1.53,1.72,1.8a5.6,5.6,0,0,0,3.44,0c.86-.26,1.71-.78,1.71-1.8v-1.35H13.81V-48H19c1,0,1.37-.72,1.72-1.8a6.28,6.28,0,0,0,0-3.6c-.25-1-.72-1.8-1.72-1.8Z"/></clipPath><clipPath id="clip-path-12"><path class="cls-2" d="M87.41-50.89l.36-1.69H86.14l-.36,1.69Zm-3.36,1.27H83l.27-1.27h1.07l.36-1.69H83.61l.26-1.28H85l.61-2.86,1.4.31-.54,2.55h1.63l.61-2.86,1.4.28-.55,2.58h1.08l-.29,1.28H89.24l-.35,1.69h1l-.26,1.27H88.62L88-46.75l-1.41-.32.54-2.55H85.51l-.61,2.87-1.4-.32ZM82-55l-1.25,1.16a6.36,6.36,0,0,0-.86-.79,3.15,3.15,0,0,0-1.82-.55,3.37,3.37,0,0,0-3.46,3.4A3.38,3.38,0,0,0,78-48.37,3.22,3.22,0,0,0,80-49a5.53,5.53,0,0,0,.82-.73L82-48.57a5.17,5.17,0,0,1-4,1.81,5.12,5.12,0,0,1-5.25-5,5.11,5.11,0,0,1,5.26-5A5.21,5.21,0,0,1,82-55Z"/></clipPath><clipPath id="clip-path-13"><path class="cls-3" d="M46-18.87l-2.92,2.92a.25.25,0,0,1-.36,0L42-16.6A.25.25,0,0,1,42-17L44.13-19,42-21.14a.25.25,0,0,1,0-.36l.65-.65a.25.25,0,0,1,.36,0L46-19.23A.25.25,0,0,1,46-18.87Z"/></clipPath><clipPath id="clip-path-14"><rect class="cls-3" x="46.96" y="-17.63" width="5.55" height="1.51" rx="0.38"/></clipPath><clipPath id="clip-path-15"><polygon class="cls-1" points="-57.9 10.61 -37.49 10.61 -37.49 18.04 -47.7 18.04 -47.7 19.36 -52.37 19.36 -52.37 18.04 -57.9 18.04 -57.9 10.61"/></clipPath><clipPath id="clip-path-16"><polygon class="cls-1" points="-55.71 17.17 -53.89 17.17 -53.89 13.46 -52.8 13.46 -52.8 17.17 -52.07 17.17 -52.07 12.07 -55.71 12.07 -55.71 17.17"/></clipPath><clipPath id="clip-path-17"><path class="cls-1" d="M-47.7,15.4h-1.09V13.32h1.09Zm-2.91-3.33V17.9h1.82V16.65H-47V12.07Z"/></clipPath><clipPath id="clip-path-18"><polygon class="cls-1" points="-46.24 12.07 -46.24 17.17 -44.19 17.17 -44.19 13.46 -42.96 13.46 -42.96 17.17 -41.73 17.17 -41.73 13.46 -40.5 13.46 -40.5 17.17 -39.68 17.17 -39.68 12.07 -46.24 12.07"/></clipPath><clipPath id="clip-path-19"><path class="cls-1" d="M24.94,13.86v2.77A1.38,1.38,0,0,1,23.55,18H20.79a1.38,1.38,0,0,1-1.39-1.38V13.86a1.38,1.38,0,0,1,1.39-1.38h2.76A1.38,1.38,0,0,1,24.94,13.86Zm-7.38,0v2.77A1.38,1.38,0,0,1,16.18,18H13.41A1.38,1.38,0,0,1,12,16.63V13.86a1.38,1.38,0,0,1,1.38-1.38h2.77A1.38,1.38,0,0,1,17.56,13.86Zm-7.38,0v2.77A1.38,1.38,0,0,1,8.8,18H6a1.38,1.38,0,0,1-1.38-1.38V13.86A1.38,1.38,0,0,1,6,12.48H8.8A1.38,1.38,0,0,1,10.18,13.86Z"/></clipPath><clipPath id="clip-path-20"><rect class="cls-1" x="-688.83" y="-2069.8" width="2519.4" height="5577.35"/></clipPath><clipPath id="clip-path-21"><path class="cls-1" d="M53.61,19.14H49.92V13.28h3.57v1.09H51.23v1.22h2.13v1.07H51.23v1.39h2.38v1.09ZM53.32,24H40.53V20.23H53.32ZM40.07,19.14V13.28h3.57v1.09H41.39v1.22h2.13v1.07H41.39v1.39h2.37v1.09Zm4.22-5.86h1.5l.51,1.07c.17.36.3.65.43,1h0c.14-.38.25-.64.4-1l.49-1.07h1.49L47.5,16.14l1.72,3H47.71l-.53-1.06c-.21-.41-.35-.71-.51-1h0c-.12.34-.27.64-.45,1l-.48,1.06H44.23l1.67-3Zm-3.76-7.5h9v4a.39.39,0,0,0,.39.39h3.42v2H40.53Zm14,6.37H54.1V9.84s0,0,0-.05A.38.38,0,0,0,54,9.54L50.19,5.13h0s0,0-.08-.06l0,0L50,5H40.53a.78.78,0,0,0-.77.78v6.37h-.47a1.12,1.12,0,0,0-1.11,1.12V19.1a1.12,1.12,0,0,0,1.11,1.13h.47v4a.78.78,0,0,0,.77.78H53.32a.78.78,0,0,0,.78-.78v-4h.47a1.12,1.12,0,0,0,1.11-1.13V13.27A1.12,1.12,0,0,0,54.57,12.15Z"/></clipPath></defs><title>nightly_icon</title><rect class="cls-1" x="-489.33" y="-1029.14" width="1366" height="2644"/><rect class="cls-1" x="-780.94" y="-1158.72" width="1366" height="3311"/><path class="cls-3" d="M46-18.87l-2.92,2.92a.25.25,0,0,1-.36,0L42-16.6A.25.25,0,0,1,42-17L44.13-19,42-21.14a.25.25,0,0,1,0-.36l.65-.65a.25.25,0,0,1,.36,0L46-19.23A.25.25,0,0,1,46-18.87Z"/><g class="cls-16"><rect class="cls-3" x="-514.1" y="-368.08" width="742.75" height="1800.34"/></g><rect class="cls-3" x="46.96" y="-17.63" width="5.55" height="1.51" rx="0.38"/><g class="cls-17"><rect class="cls-3" x="-513.1" y="-368.08" width="742.75" height="1800.34"/></g><rect class="cls-1" x="-539.35" y="-1085" width="1366" height="3024"/><g class="cls-22"><g class="cls-23"><rect class="cls-24" x="-4.57" y="3.26" width="38.73" height="23.98"/></g></g></svg>