<svg id="Layer_1" data-name="Layer 1" xmlns="http://www.w3.org/2000/svg" xmlns:xlink="http://www.w3.org/1999/xlink" viewBox="0 0 30 30"><defs><style>.cls-1,.cls-2{fill:none;}.cls-2{clip-rule:evenodd;}.cls-3{fill:#fff;}.cls-4{clip-path:url(#clip-path);}.cls-5{clip-path:url(#clip-path-2);}.cls-6{clip-path:url(#clip-path-3);}.cls-7{clip-path:url(#clip-path-4);}.cls-8{clip-path:url(#clip-path-5);}.cls-9{clip-path:url(#clip-path-6);}.cls-10{clip-path:url(#clip-path-7);}.cls-11{clip-path:url(#clip-path-8);}.cls-12{clip-path:url(#clip-path-9);}.cls-13{clip-path:url(#clip-path-10);}.cls-14{clip-path:url(#clip-path-11);}.cls-15{clip-path:url(#clip-path-12);}.cls-16{clip-path:url(#clip-path-13);}.cls-17{clip-path:url(#clip-path-14);}.cls-18{clip-path:url(#clip-path-15);}.cls-19{clip-path:url(#clip-path-16);}.cls-20{fill:#d50000;}.cls-21{clip-path:url(#clip-path-17);}.cls-22{clip-path:url(#clip-path-19);}.cls-23{clip-path:url(#clip-path-21);}.cls-24{clip-path:url(#clip-path-23);}.cls-25{clip-path:url(#clip-path-24);}</style><clipPath id="clip-path"><path class="cls-1" d="M18.37-53a2.08,2.08,0,0,0-2.27,2c0,1.26.75,1.86,1.86,2.33l.39.17c.7.3,1,.49,1,1s-.34.76-1,.76S17.3-47.17,17-47.71l-1.22.8a2.83,2.83,0,0,0,2.71,1.62c1.46,0,2.56-.76,2.56-2.15S20.28-49.3,19-49.86L18.58-50c-.67-.29-.95-.47-.95-.94a.67.67,0,0,1,.74-.66,1,1,0,0,1,1,.66l1.2-.77A2.26,2.26,0,0,0,18.37-53Zm-5,0v5.09c0,.78-.3,1-.81,1a1.32,1.32,0,0,1-1.16-.77l-1.27.77a2.84,2.84,0,0,0,2.52,1.62A2.12,2.12,0,0,0,15-47.64V-53ZM6.72-59.86H21.56a.27.27,0,0,1,.27.27v14.84a.27.27,0,0,1-.27.27H6.72a.27.27,0,0,1-.27-.27V-59.59A.27.27,0,0,1,6.72-59.86Zm0-.81a1.08,1.08,0,0,0-1.08,1.08v14.84a1.08,1.08,0,0,0,1.08,1.08H21.56a1.08,1.08,0,0,0,1.08-1.08V-59.59a1.09,1.09,0,0,0-1.08-1.08Z"/></clipPath><clipPath id="clip-path-2"><path class="cls-2" d="M44.51-52l-.3-.49c-.1-.16-.2-.34-.29-.52a4.77,4.77,0,0,1-.47-1.15,2,2,0,0,1,.62-1.73l.19-.21c.39-.46.93-1,1.35-1.45a2.61,2.61,0,0,0,.73-1.7c0-.39,0-1.22-.29-1.37a3,3,0,0,1-.12,1.56,3.39,3.39,0,0,1-1.12,1.48c-.38.33-1,.92-1.34,1.26a3.49,3.49,0,0,0-.72,1A1.36,1.36,0,0,0,43-54c.11.19.23.36.35.53s.26.34.38.49.26.32.39.48a4.75,4.75,0,0,0,.41.46"/></clipPath><clipPath id="clip-path-3"><path class="cls-2" d="M49.81-47c.17.2,0,.28-.22.36a28.34,28.34,0,0,1-5.46.44,22.93,22.93,0,0,1-3.22-.16c-.17,0-.91-.11-.95-.26s.11-.17.18-.2a4.14,4.14,0,0,1,1-.23,3.69,3.69,0,0,0,.37,0,4.73,4.73,0,0,0-2.46.52c-.22.24.15.35.4.41a22.05,22.05,0,0,0,3.86.29c1.51,0,5.16,0,6.5-.69.08,0,.23-.13.25-.21s-.14-.2-.23-.22"/></clipPath><clipPath id="clip-path-4"><path class="cls-2" d="M45.68-50.77a4.52,4.52,0,0,0,.81-.59,1.61,1.61,0,0,0,.5-.89,2,2,0,0,0-.37-1c-.48-.7-.86-1.1-.22-1.87a4.74,4.74,0,0,1,.73-.68,15,15,0,0,1,1.24-.85l.44-.27a8.17,8.17,0,0,0-1.09.36,6.7,6.7,0,0,0-1,.45c-1,.54-1.93,1.39-1.53,2.57.26.79,1,1.27,1,1.87,0,.36-.39.73-.5.91"/></clipPath><clipPath id="clip-path-5"><path class="cls-2" d="M47.58-47.58a4.74,4.74,0,0,1-.86-.37c-.17-.09-.1-.08-.32,0a17.21,17.21,0,0,1-3.22.16c-.24,0-.91,0-1-.22s0-.2.07-.27c-.6.1-1.22.53-.38.89a9.46,9.46,0,0,0,4,.24,11.83,11.83,0,0,0,1.78-.4"/></clipPath><clipPath id="clip-path-6"><path class="cls-2" d="M47.58-48.79A1.38,1.38,0,0,1,47-49.1c-.11-.1-.07-.07-.33,0a14.21,14.21,0,0,1-4.4.1c-.1,0-.22-.11-.23-.22s.11-.22.16-.29c-.62.07-1.22.67-.39.95a12.12,12.12,0,0,0,4,.21,10.53,10.53,0,0,0,1.76-.41"/></clipPath><clipPath id="clip-path-7"><path class="cls-2" d="M48.81-51.48l-.43.06-.44.05c-.89.1-1.88.19-2.77.23-.7,0-3.33.11-3.72-.2,0-.14.16-.22.27-.27A7.93,7.93,0,0,1,43.1-52a7.57,7.57,0,0,0-2.72.61c-.6.31.4.44.78.48A26.68,26.68,0,0,0,47.6-51a1.38,1.38,0,0,0,.67-.15c.17-.09.39-.18.54-.28"/></clipPath><clipPath id="clip-path-8"><path class="cls-2" d="M41.42-45a12.86,12.86,0,0,0,2.53.36,25.16,25.16,0,0,0,2.88,0,12.4,12.4,0,0,0,3.69-.61c.25-.1.71-.35.75-.58a1.43,1.43,0,0,0-.21.12c-1.87,1-6.14.93-8.35.8L41.42-45"/></clipPath><clipPath id="clip-path-9"><path class="cls-2" d="M49.16-51.7a1.16,1.16,0,0,1,1.23.24,1.34,1.34,0,0,1,.08,1.4,4.55,4.55,0,0,1-1.41,1.57,1.6,1.6,0,0,0-.25.18,4.53,4.53,0,0,0,1.4-.68,2.61,2.61,0,0,0,1-1.2,1.36,1.36,0,0,0-.5-1.58,1.26,1.26,0,0,0-.8-.23,1,1,0,0,0-.73.3"/></clipPath><clipPath id="clip-path-10"><path class="cls-1" d="M74.38-58a.67.67,0,0,1,.65.68.66.66,0,0,1-.65.68.66.66,0,0,1-.64-.68A.67.67,0,0,1,74.38-58Zm1.87-1.1a10.31,10.31,0,0,0-1.65.15c-1.46.27-1.72.83-1.72,1.86v1.36h3.44v.45H71.59a2.18,2.18,0,0,0-2.16,1.81,7,7,0,0,0,0,3.64c.25,1,.83,1.81,1.83,1.81h1.19v-1.64a2.23,2.23,0,0,1,2.15-2.21H78a1.77,1.77,0,0,0,1.72-1.82v-3.4A2,2,0,0,0,78-58.94,10.9,10.9,0,0,0,76.25-59.09Z"/></clipPath><clipPath id="clip-path-11"><path class="cls-1" d="M78.29-46.61a.66.66,0,0,1,.65.67.66.66,0,0,1-.65.68.66.66,0,0,1-.64-.68A.66.66,0,0,1,78.29-46.61Zm1.93-8.55v1.57a2.23,2.23,0,0,1-2.14,2.25H74.64a1.78,1.78,0,0,0-1.71,1.8v3.38c0,1,.81,1.53,1.71,1.8a5.6,5.6,0,0,0,3.44,0c.86-.26,1.72-.78,1.72-1.8v-1.35H76.36V-48h5.15c1,0,1.38-.72,1.72-1.8a6.19,6.19,0,0,0,0-3.6c-.24-1-.72-1.8-1.72-1.8Z"/></clipPath><clipPath id="clip-path-12"><path class="cls-2" d="M150-50.89l.36-1.69h-1.63l-.35,1.69Zm-3.35,1.27h-1.08l.27-1.27h1.07l.36-1.69h-1.07l.27-1.28h1.07l.61-2.86,1.4.31L149-53.86h1.62l.61-2.86,1.41.28-.56,2.58h1.08l-.29,1.28h-1l-.36,1.69h1.06l-.27,1.27h-1.06l-.61,2.87-1.4-.32.53-2.55h-1.62l-.61,2.87-1.41-.32ZM144.55-55l-1.26,1.16a5.8,5.8,0,0,0-.86-.79,3.15,3.15,0,0,0-1.82-.55,3.37,3.37,0,0,0-3.46,3.4,3.38,3.38,0,0,0,3.44,3.38,3.22,3.22,0,0,0,1.93-.62,5.53,5.53,0,0,0,.82-.73l1.25,1.15a5.17,5.17,0,0,1-4,1.81,5.12,5.12,0,0,1-5.25-5,5.11,5.11,0,0,1,5.26-5A5.23,5.23,0,0,1,144.55-55Z"/></clipPath><clipPath id="clip-path-13"><path class="cls-3" d="M108.53-18.87l-2.93,2.92a.25.25,0,0,1-.36,0l-.65-.65a.25.25,0,0,1,0-.36L106.68-19l-2.09-2.09a.25.25,0,0,1,0-.36l.65-.65a.25.25,0,0,1,.36,0l2.93,2.92A.27.27,0,0,1,108.53-18.87Z"/></clipPath><clipPath id="clip-path-14"><rect class="cls-3" x="109.51" y="-17.63" width="5.55" height="1.51" rx="0.38"/></clipPath><clipPath id="clip-path-15"><polygon class="cls-1" points="4.66 10.61 25.06 10.61 25.06 18.04 14.86 18.04 14.86 19.36 10.18 19.36 10.18 18.04 4.66 18.04 4.66 10.61"/></clipPath><clipPath id="clip-path-16"><rect class="cls-1" x="-264.92" y="-765.32" width="995.23" height="2203.2"/></clipPath><clipPath id="clip-path-17"><polygon class="cls-1" points="6.84 17.17 8.66 17.17 8.66 13.46 9.76 13.46 9.76 17.17 10.48 17.17 10.48 12.07 6.84 12.07 6.84 17.17"/></clipPath><clipPath id="clip-path-19"><path class="cls-1" d="M14.86,15.4h-1.1V13.32h1.1Zm-2.92-3.33V17.9h1.82V16.65h1.82V12.07Z"/></clipPath><clipPath id="clip-path-21"><polygon class="cls-1" points="16.31 12.07 16.31 17.17 18.36 17.17 18.36 13.46 19.59 13.46 19.59 17.17 20.82 17.17 20.82 13.46 22.05 13.46 22.05 17.17 22.87 17.17 22.87 12.07 16.31 12.07"/></clipPath><clipPath id="clip-path-23"><path class="cls-1" d="M87.49,13.86v2.77A1.38,1.38,0,0,1,86.11,18H83.34A1.38,1.38,0,0,1,82,16.63V13.86a1.38,1.38,0,0,1,1.38-1.38h2.77A1.38,1.38,0,0,1,87.49,13.86Zm-7.38,0v2.77A1.38,1.38,0,0,1,78.73,18H76a1.38,1.38,0,0,1-1.38-1.38V13.86A1.38,1.38,0,0,1,76,12.48h2.77A1.38,1.38,0,0,1,80.11,13.86Zm-7.38,0v2.77A1.38,1.38,0,0,1,71.35,18H68.58a1.38,1.38,0,0,1-1.38-1.38V13.86a1.38,1.38,0,0,1,1.38-1.38h2.77A1.38,1.38,0,0,1,72.73,13.86Z"/></clipPath><clipPath id="clip-path-24"><path class="cls-1" d="M116.16,19.14h-3.69V13.28H116v1.09h-2.25v1.22h2.12v1.07h-2.12v1.39h2.37v1.09ZM115.87,24H103.09V20.23h12.78Zm-13.25-4.86V13.28h3.58v1.09h-2.26v1.22h2.13v1.07h-2.13v1.39h2.38v1.09Zm4.22-5.86h1.5l.51,1.07c.17.36.3.65.44,1h0c.14-.38.25-.64.4-1l.49-1.07h1.49l-1.63,2.86,1.72,3h-1.51l-.53-1.06c-.21-.41-.35-.71-.51-1h0c-.12.34-.27.64-.45,1l-.48,1.06h-1.49l1.67-3Zm-3.75-7.5h9v4a.4.4,0,0,0,.39.39h3.42v2H103.09Zm14,6.37h-.47V9.84a.09.09,0,0,0,0-.05.38.38,0,0,0-.09-.25l-3.81-4.41h0a.24.24,0,0,0-.08-.06l0,0-.08,0h-9.47a.78.78,0,0,0-.78.78v6.37h-.47a1.12,1.12,0,0,0-1.11,1.12V19.1a1.12,1.12,0,0,0,1.11,1.13h.47v4a.78.78,0,0,0,.78.78h12.78a.78.78,0,0,0,.78-.78v-4h.47a1.12,1.12,0,0,0,1.11-1.13V13.27A1.12,1.12,0,0,0,117.12,12.15Z"/></clipPath></defs><title>npm_icon</title><rect class="cls-1" x="-426.78" y="-1029.14" width="1366" height="2644"/><rect class="cls-1" x="-718.39" y="-1158.72" width="1366" height="3311"/><path class="cls-3" d="M108.53-18.87l-2.93,2.92a.25.25,0,0,1-.36,0l-.65-.65a.25.25,0,0,1,0-.36L106.68-19l-2.09-2.09a.25.25,0,0,1,0-.36l.65-.65a.25.25,0,0,1,.36,0l2.93,2.92A.27.27,0,0,1,108.53-18.87Z"/><g class="cls-16"><rect class="cls-3" x="-451.55" y="-368.08" width="742.75" height="1800.34"/></g><rect class="cls-3" x="109.51" y="-17.63" width="5.55" height="1.51" rx="0.38"/><g class="cls-17"><rect class="cls-3" x="-450.55" y="-368.08" width="742.75" height="1800.34"/></g><g class="cls-18"><g class="cls-19"><rect class="cls-20" x="1.01" y="6.97" width="27.69" height="16.03"/></g></g><g class="cls-21"><g class="cls-19"><rect class="cls-3" x="3.2" y="8.43" width="10.93" height="12.39"/></g></g><g class="cls-22"><g class="cls-19"><rect class="cls-3" x="8.3" y="8.43" width="10.93" height="13.11"/></g></g><g class="cls-23"><g class="cls-19"><rect class="cls-3" x="12.67" y="8.43" width="13.84" height="12.39"/></g></g><rect class="cls-1" x="-476.8" y="-1085" width="1366" height="3024"/></svg>