<svg id="Layer_1" data-name="Layer 1" xmlns="http://www.w3.org/2000/svg" xmlns:xlink="http://www.w3.org/1999/xlink" viewBox="0 0 25 25"><defs><style>.cls-1,.cls-2{fill:none;}.cls-2{clip-rule:evenodd;}.cls-3{fill:#fff;}.cls-4{clip-path:url(#clip-path);}.cls-5{clip-path:url(#clip-path-2);}.cls-6{clip-path:url(#clip-path-3);}.cls-7{clip-path:url(#clip-path-4);}.cls-8{clip-path:url(#clip-path-5);}.cls-9{clip-path:url(#clip-path-6);}.cls-10{clip-path:url(#clip-path-7);}.cls-11{clip-path:url(#clip-path-8);}.cls-12{clip-path:url(#clip-path-9);}.cls-13{clip-path:url(#clip-path-10);}.cls-14{clip-path:url(#clip-path-11);}.cls-15{clip-path:url(#clip-path-12);}.cls-16{clip-path:url(#clip-path-13);}.cls-17{clip-path:url(#clip-path-14);}.cls-18{clip-path:url(#clip-path-15);}.cls-19{clip-path:url(#clip-path-16);}.cls-20{clip-path:url(#clip-path-17);}.cls-21{clip-path:url(#clip-path-18);}.cls-22{clip-path:url(#clip-path-19);}.cls-23{clip-path:url(#clip-path-20);}.cls-24{fill:url(#linear-gradient);}.cls-25{fill:url(#linear-gradient-2);}.cls-26{fill:url(#linear-gradient-3);}.cls-27{clip-path:url(#clip-path-21);}.cls-28{clip-path:url(#clip-path-22);}.cls-29{clip-path:url(#clip-path-23);}.cls-30{clip-path:url(#clip-path-24);}.cls-31{clip-path:url(#clip-path-25);}.cls-32{clip-path:url(#clip-path-26);}.cls-33{clip-path:url(#clip-path-27);}.cls-34{clip-path:url(#clip-path-28);}.cls-35{clip-path:url(#clip-path-29);}.cls-36{clip-path:url(#clip-path-30);}.cls-37{clip-path:url(#clip-path-31);}.cls-38{clip-path:url(#clip-path-32);}.cls-39{clip-path:url(#clip-path-33);}.cls-40{clip-path:url(#clip-path-34);}.cls-41{clip-path:url(#clip-path-35);}.cls-42{clip-path:url(#clip-path-36);}.cls-43{clip-path:url(#clip-path-37);}.cls-44{clip-path:url(#clip-path-38);}.cls-45{clip-path:url(#clip-path-39);}.cls-46{clip-path:url(#clip-path-40);}.cls-47{clip-path:url(#clip-path-41);}.cls-48{clip-path:url(#clip-path-42);}.cls-49{clip-path:url(#clip-path-43);}</style><clipPath id="clip-path"><rect class="cls-1" x="1.04" y="807.08" width="19.26" height="20"/></clipPath><clipPath id="clip-path-2"><path class="cls-1" d="M-75.76-143.77A2.08,2.08,0,0,0-78-141.72c0,1.25.74,1.85,1.86,2.32l.38.17c.71.31,1.06.49,1.06,1s-.34.76-1,.76-1.12-.51-1.45-1.05l-1.22.81a2.84,2.84,0,0,0,2.71,1.61c1.46,0,2.56-.76,2.56-2.15s-.74-1.86-2.06-2.42l-.38-.17c-.67-.29-1-.47-1-.94a.67.67,0,0,1,.74-.66,1.06,1.06,0,0,1,1,.66l1.2-.77A2.29,2.29,0,0,0-75.76-143.77Zm-5,0v5.09c0,.78-.29,1-.8,1a1.33,1.33,0,0,1-1.16-.77l-1.27.77a2.85,2.85,0,0,0,2.52,1.61,2.11,2.11,0,0,0,2.33-2.35v-5.34Zm-6.61-6.88h14.84a.27.27,0,0,1,.27.27v14.84a.27.27,0,0,1-.27.27H-87.42a.27.27,0,0,1-.27-.27v-14.84A.27.27,0,0,1-87.42-150.65Zm0-.81a1.09,1.09,0,0,0-1.08,1.08v14.84a1.09,1.09,0,0,0,1.08,1.08h14.84a1.08,1.08,0,0,0,1.08-1.08v-14.84a1.08,1.08,0,0,0-1.08-1.08Z"/></clipPath><clipPath id="clip-path-3"><path class="cls-2" d="M-49.62-142.79l-.3-.49c-.1-.16-.2-.34-.29-.52a4.79,4.79,0,0,1-.48-1.15,2,2,0,0,1,.63-1.72c.06-.08.13-.15.19-.22.39-.46.93-1,1.35-1.45a2.61,2.61,0,0,0,.73-1.7c0-.39,0-1.22-.29-1.37a3,3,0,0,1-.12,1.56,3.39,3.39,0,0,1-1.12,1.48c-.39.33-1,.92-1.34,1.26a3.51,3.51,0,0,0-.73,1,1.38,1.38,0,0,0,.24,1.35,5.41,5.41,0,0,0,.35.53c.14.2.26.34.38.5s.26.31.39.47a4.75,4.75,0,0,0,.41.46"/></clipPath><clipPath id="clip-path-4"><path class="cls-2" d="M-44.32-137.76c.17.2,0,.28-.22.36A28.41,28.41,0,0,1-50-137a22.93,22.93,0,0,1-3.22-.16c-.17,0-.91-.11-1-.26s.11-.17.18-.2a4.14,4.14,0,0,1,1-.23,3.69,3.69,0,0,0,.37-.05,4.64,4.64,0,0,0-2.46.53c-.22.23.15.34.39.4a22.24,22.24,0,0,0,3.87.29c1.51,0,5.16,0,6.5-.69.08,0,.23-.13.25-.21s-.15-.2-.23-.22"/></clipPath><clipPath id="clip-path-5"><path class="cls-2" d="M-48.45-141.56a4.13,4.13,0,0,0,.8-.59,1.56,1.56,0,0,0,.51-.89,2,2,0,0,0-.37-1c-.48-.7-.86-1.1-.22-1.87a4.24,4.24,0,0,1,.73-.67,11.27,11.27,0,0,1,1.24-.85l.44-.28a8.17,8.17,0,0,0-1.09.36,8.82,8.82,0,0,0-1,.45c-1,.55-1.93,1.4-1.54,2.57.27.79,1,1.27,1,1.87,0,.36-.39.73-.5.91"/></clipPath><clipPath id="clip-path-6"><path class="cls-2" d="M-46.55-138.37a4.74,4.74,0,0,1-.86-.37c-.17-.09-.11-.08-.32,0a17.28,17.28,0,0,1-3.23.16c-.23,0-.9,0-1-.22s0-.2.08-.27c-.6.1-1.22.53-.38.89a9.46,9.46,0,0,0,4,.24,11.83,11.83,0,0,0,1.78-.4"/></clipPath><clipPath id="clip-path-7"><path class="cls-2" d="M-46.55-139.58a1.38,1.38,0,0,1-.56-.31c-.12-.09-.08-.07-.33,0a14.27,14.27,0,0,1-4.41.1c-.1,0-.21-.1-.22-.22s.11-.22.16-.29c-.62.08-1.22.67-.39,1a12.11,12.11,0,0,0,4,.21,10.53,10.53,0,0,0,1.76-.41"/></clipPath><clipPath id="clip-path-8"><path class="cls-2" d="M-45.32-142.27l-.43.06-.44.05c-.89.1-1.88.19-2.77.23-.7,0-3.33.11-3.73-.2,0-.13.16-.22.28-.27a8.92,8.92,0,0,1,1.38-.39,7.57,7.57,0,0,0-2.72.61c-.6.31.4.44.78.48a26.68,26.68,0,0,0,6.44-.14,1.41,1.41,0,0,0,.67-.15c.17-.09.39-.18.54-.28"/></clipPath><clipPath id="clip-path-9"><path class="cls-2" d="M-52.71-135.8a13.65,13.65,0,0,0,2.53.35,25.16,25.16,0,0,0,2.88,0,12.4,12.4,0,0,0,3.69-.61c.25-.1.7-.34.75-.58a1.43,1.43,0,0,0-.21.12c-1.87,1-6.14.93-8.35.8l-1.29-.08"/></clipPath><clipPath id="clip-path-10"><path class="cls-2" d="M-45-142.49a1.15,1.15,0,0,1,1.23.24,1.32,1.32,0,0,1,.09,1.4,4.58,4.58,0,0,1-1.42,1.57,2.15,2.15,0,0,0-.24.18,4.64,4.64,0,0,0,1.4-.68,2.61,2.61,0,0,0,1-1.2,1.37,1.37,0,0,0-.5-1.58,1.26,1.26,0,0,0-.8-.23,1.07,1.07,0,0,0-.74.3"/></clipPath><clipPath id="clip-path-11"><path class="cls-1" d="M-19.75-148.78a.67.67,0,0,1,.65.68.66.66,0,0,1-.65.68.65.65,0,0,1-.64-.68A.66.66,0,0,1-19.75-148.78Zm1.86-1.1a10.29,10.29,0,0,0-1.64.15c-1.46.27-1.72.83-1.72,1.86v1.36h3.44v.45h-4.74a2.18,2.18,0,0,0-2.15,1.81,7,7,0,0,0,0,3.64c.25,1.05.83,1.81,1.83,1.81h1.19v-1.63a2.23,2.23,0,0,1,2.15-2.22h3.44a1.77,1.77,0,0,0,1.72-1.82v-3.4a2,2,0,0,0-1.72-1.86A10.93,10.93,0,0,0-17.89-149.88Z"/></clipPath><clipPath id="clip-path-12"><path class="cls-1" d="M-15.84-137.4a.66.66,0,0,1,.65.67.66.66,0,0,1-.65.68.66.66,0,0,1-.64-.68A.66.66,0,0,1-15.84-137.4Zm1.93-8.55v1.57A2.23,2.23,0,0,1-16-142.13h-3.44a1.79,1.79,0,0,0-1.72,1.81v3.37c0,1,.81,1.53,1.72,1.8a5.6,5.6,0,0,0,3.44,0c.86-.25,1.71-.77,1.71-1.8v-1.35h-3.43v-.45h5.15c1,0,1.37-.72,1.72-1.8a6.19,6.19,0,0,0,0-3.6c-.24-1-.72-1.8-1.72-1.8Z"/></clipPath><clipPath id="clip-path-13"><path class="cls-3" d="M14.39-109.66l-2.92,2.92a.25.25,0,0,1-.36,0l-.65-.65a.25.25,0,0,1,0-.36l2.09-2.09-2.09-2.09a.25.25,0,0,1,0-.36l.65-.65a.25.25,0,0,1,.36,0L14.39-110A.25.25,0,0,1,14.39-109.66Z"/></clipPath><clipPath id="clip-path-14"><rect class="cls-3" x="15.38" y="-108.42" width="5.55" height="1.51" rx="0.38"/></clipPath><clipPath id="clip-path-15"><polygon class="cls-1" points="-89.47 -80.18 -69.08 -80.18 -69.08 -72.75 -79.28 -72.75 -79.28 -71.43 -83.95 -71.43 -83.95 -72.75 -89.47 -72.75 -89.47 -80.18"/></clipPath><clipPath id="clip-path-16"><polygon class="cls-1" points="-87.29 -73.62 -85.47 -73.62 -85.47 -77.33 -84.38 -77.33 -84.38 -73.62 -83.65 -73.62 -83.65 -78.72 -87.29 -78.72 -87.29 -73.62"/></clipPath><clipPath id="clip-path-17"><path class="cls-1" d="M-79.27-75.39h-1.1v-2.08h1.1Zm-2.92-3.33v5.83h1.82v-1.25h1.82v-4.58Z"/></clipPath><clipPath id="clip-path-18"><polygon class="cls-1" points="-77.82 -78.72 -77.82 -73.62 -75.77 -73.62 -75.77 -77.33 -74.54 -77.33 -74.54 -73.62 -73.31 -73.62 -73.31 -77.33 -72.08 -77.33 -72.08 -73.62 -71.26 -73.62 -71.26 -78.72 -77.82 -78.72"/></clipPath><clipPath id="clip-path-19"><path class="cls-1" d="M-6.64-76.93v2.77A1.38,1.38,0,0,1-8-72.78h-2.76a1.38,1.38,0,0,1-1.38-1.38v-2.77a1.38,1.38,0,0,1,1.38-1.38H-8A1.38,1.38,0,0,1-6.64-76.93Zm-7.38,0v2.77a1.38,1.38,0,0,1-1.38,1.38h-2.77a1.38,1.38,0,0,1-1.38-1.38v-2.77a1.38,1.38,0,0,1,1.38-1.38h2.77A1.38,1.38,0,0,1-14-76.93Zm-7.38,0v2.77a1.38,1.38,0,0,1-1.38,1.38h-2.77a1.38,1.38,0,0,1-1.38-1.38v-2.77a1.38,1.38,0,0,1,1.38-1.38h2.77A1.38,1.38,0,0,1-21.4-76.93Z"/></clipPath><clipPath id="clip-path-20"><path class="cls-1" d="M22-71.65H18.34v-5.86h3.57v1.09H19.65v1.22h2.13v1.07H19.65v1.4H22v1.08Zm-.29,4.86H9v-3.77H21.74ZM8.49-71.65v-5.86h3.57v1.09H9.81v1.22h2.13v1.07H9.81v1.4h2.37v1.08Zm4.22-5.86h1.5l.51,1.07c.17.36.3.65.44,1h0c.14-.38.25-.64.4-1l.49-1.07h1.49l-1.63,2.86,1.72,3H16.13l-.53-1.06c-.21-.41-.35-.71-.51-1.05h0c-.12.34-.27.64-.45,1.05l-.48,1.06H12.65l1.67-3ZM9-85h9v4a.39.39,0,0,0,.39.39h3.42v2H9Zm14,6.37h-.47v-2.31s0,0,0,0a.38.38,0,0,0-.09-.25l-3.81-4.41h0s-.05,0-.08-.06l0,0-.07,0H9a.78.78,0,0,0-.78.78v6.37H7.71A1.12,1.12,0,0,0,6.6-77.51v5.82a1.12,1.12,0,0,0,1.11,1.13h.47v4a.78.78,0,0,0,.78.78H21.74a.78.78,0,0,0,.78-.78v-4H23a1.12,1.12,0,0,0,1.11-1.13v-5.82A1.12,1.12,0,0,0,23-78.64Z"/></clipPath><linearGradient id="linear-gradient" x1="11.02" y1="714.68" x2="21.9" y2="714.68" gradientTransform="translate(-1.69 -705.08)" gradientUnits="userSpaceOnUse"><stop offset="0" stop-color="#92c452"/><stop offset="0.05" stop-color="#92c452"/><stop offset="0.16" stop-color="#a9cd51"/><stop offset="0.39" stop-color="#d5de4e"/><stop offset="0.5" stop-color="#e6e54d"/><stop offset="0.61" stop-color="#d6df4e"/><stop offset="0.82" stop-color="#aecf50"/><stop offset="0.95" stop-color="#92c452"/><stop offset="1" stop-color="#92c452"/></linearGradient><linearGradient id="linear-gradient-2" x1="16.31" y1="727.61" x2="21.34" y2="717.38" gradientTransform="translate(-1.69 -705.08)" gradientUnits="userSpaceOnUse"><stop offset="0" stop-color="#92c452"/><stop offset="0.13" stop-color="#92c452"/><stop offset="0.88" stop-color="#e6e54d"/><stop offset="1" stop-color="#e6e54d"/></linearGradient><linearGradient id="linear-gradient-3" x1="7.59" y1="714.8" x2="15.74" y2="730.87" gradientTransform="translate(-1.69 -705.08)" gradientUnits="userSpaceOnUse"><stop offset="0" stop-color="#e6e54d"/><stop offset="0.08" stop-color="#cddb4e"/><stop offset="0.18" stop-color="#b3d150"/><stop offset="0.29" stop-color="#a1ca51"/><stop offset="0.4" stop-color="#96c552"/><stop offset="0.52" stop-color="#92c452"/><stop offset="0.62" stop-color="#97c652"/><stop offset="0.73" stop-color="#a5cb51"/><stop offset="0.85" stop-color="#bcd54f"/><stop offset="0.97" stop-color="#dde14e"/><stop offset="1" stop-color="#e6e54d"/></linearGradient><clipPath id="clip-path-21"><path class="cls-1" d="M46.17,15.84a1,1,0,0,0-1,1h1.95A1,1,0,0,0,46.17,15.84Zm0-1.2a2.46,2.46,0,0,1,2.63,2.71v.49H45.15v.09a1,1,0,0,0,1.07,1.16,1,1,0,0,0,1-.49h1.55a2.35,2.35,0,0,1-2.58,1.73,2.5,2.5,0,0,1-2.71-2.8C43.51,15.71,44.49,14.64,46.17,14.64Zm-7.28-1.82c1.64,0,2.8.89,2.84,2.22H40a1,1,0,0,0-1.15-.84c-.63,0-1.07.31-1.07.75s.31.63,1.07.76l.93.18c1.42.26,2,.89,2,2,0,1.47-1.11,2.36-3,2.36s-2.94-.85-3-2.23h1.73c0,.54.58.85,1.29.85s1.16-.31,1.16-.8-.32-.62-1.12-.76L38,17.18c-1.29-.27-1.95-1-1.95-2.09C36,13.71,37.15,12.82,38.89,12.82ZM35.24,2.91a1.8,1.8,0,0,0-1.82,1.82V21.09a1.8,1.8,0,0,0,1.82,1.82H51.6a1.8,1.8,0,0,0,1.82-1.82V4.82l-6.8,6.84L42,7l1.91-1.91L46.57,7.8l4.89-4.89Z"/></clipPath><clipPath id="clip-path-22"><path class="cls-2" d="M81.7,10.82l1.07-.51a.15.15,0,0,1,.15,0,2,2,0,0,1,.5.76s0,0,0,0c.2-.39,1.44-2.41,2.93-2.71a12,12,0,0,0-1.49,1.73,17.31,17.31,0,0,0-1,1.88.24.24,0,0,1-.2.15H82.42a.11.11,0,0,1-.1-.1,1.51,1.51,0,0,0-.64-1.2,0,0,0,0,1,0,0"/></clipPath><clipPath id="clip-path-23"><path class="cls-2" d="M63.27,15.86l-.34.76a.14.14,0,0,0,.11.21h4.28a.49.49,0,0,0,.43-.29l.71-1.38a.12.12,0,0,0-.09-.18H66.31a.14.14,0,0,1-.11-.19l.43-1a.3.3,0,0,1,.3-.2h.23a.12.12,0,0,1,.09.18l-.25.49a.15.15,0,0,0,.11.21h1.44a.49.49,0,0,0,.41-.26l.5-.91c.05-.11,0-.24-.11-.24H65a.44.44,0,0,0-.39.27l-.91,1.77a.13.13,0,0,0,.09.21h2.44a.11.11,0,0,1,.09.18l-.43.86s-.05.05-.07.05h-.62a.08.08,0,0,1-.06-.13l.25-.47a.1.1,0,0,0-.1-.16H63.59a.33.33,0,0,0-.32.21"/></clipPath><clipPath id="clip-path-24"><path class="cls-2" d="M70.31,13.77l-.59,1c0,.09,0,.18.12.18h1.73a.48.48,0,0,0,.4-.23l.31-.52a.43.43,0,0,1,.35-.21h.05c.1,0,.14.09.12.18l-.4.8a.52.52,0,0,1-.45.25H69.44l-.88,1.44a.14.14,0,0,0,.12.21H73a.49.49,0,0,0,.42-.25L75,13.74a.14.14,0,0,0-.12-.2H70.69a.52.52,0,0,0-.38.23m1.14,2.65h-.14a.14.14,0,0,1-.12-.21l.21-.43a.37.37,0,0,1,.31-.19.2.2,0,0,1,.19.3l-.19.34a.28.28,0,0,1-.26.19m5.69-5.05-.08.14-2.91,5.11a.14.14,0,0,0,.12.21h1.66a.39.39,0,0,0,.33-.18l1.59-2.59a.48.48,0,0,1,.4-.22.18.18,0,0,1,.17.25L77,16.62a.16.16,0,0,0,.15.21h1.54a.58.58,0,0,0,.47-.28l1.26-2.3.28-.55s.14-.27,0-.27h-2.2a.09.09,0,0,1-.07-.12l.23-.43a.54.54,0,0,0,0-.55,4.85,4.85,0,0,0-.83-1.1c-.14,0-.47-.11-.61.14"/></clipPath><clipPath id="clip-path-25"><path class="cls-2" d="M81.55,13.16l-1.72,3.38a.19.19,0,0,0,.13.29h1.82a.13.13,0,0,0,.14-.11l1.61-3.37a.18.18,0,0,0-.14-.27H81.71c-.09,0-.13,0-.16.08"/></clipPath><clipPath id="clip-path-26"><rect class="cls-1" x="81.75" y="8.38" width="4.6" height="3.69"/></clipPath><clipPath id="clip-path-27"><path class="cls-2" d="M81.7,10.82l1.07-.51a.15.15,0,0,1,.15,0,2,2,0,0,1,.5.76s0,0,0,0c.2-.39,1.44-2.41,2.93-2.71a12,12,0,0,0-1.49,1.73,15.55,15.55,0,0,0-1,1.88.24.24,0,0,1-.2.15H82.42a.11.11,0,0,1-.1-.1,1.51,1.51,0,0,0-.64-1.2,0,0,0,0,1,0,0"/></clipPath><clipPath id="clip-path-28"><path class="cls-2" d="M-85.61,57.71a2,2,0,0,1-.94-.24,2,2,0,0,1-1-1.76v-8a2,2,0,0,1,2-2,2,2,0,0,1,2,2V52l6.31-4.26-9.37-6.34a2,2,0,0,1-.55-2.77A2,2,0,0,1-84.53,38l11.85,8a2,2,0,0,1,.88,1.66,2,2,0,0,1-.88,1.67l-11.84,8a1.9,1.9,0,0,1-1.09.34"/></clipPath><clipPath id="clip-path-29"><rect class="cls-1" x="-28.31" y="37.67" width="20.49" height="20"/></clipPath><clipPath id="clip-path-30"><path class="cls-2" d="M-16.35,56.09l-.32,0h-.24c.08-.19.15-.33.2-.44l.36.39"/></clipPath><clipPath id="clip-path-31"><path class="cls-2" d="M-16.48,47.83a5.14,5.14,0,0,1-.54.37l-.62.37a5.08,5.08,0,0,0-.75.15h0a.16.16,0,0,0-.06.08l-.64,2.07-3.4.74-1.07-.74-.31-2.48c.61-.11,1.42-.24,2.4-.35q-.16.2-.3.39l-.58.82.84-.55a14.44,14.44,0,0,1,1.44-.79c1-.07,1.92-.1,2.88-.1Zm-5.29,2.79a2,2,0,0,1,.94-.11.66.66,0,0,0,.14,0h.13c.44,0,.81,0,.8-.64s-.31-1.23-.75-1.23-.87.56-.84,1.24a1,1,0,0,0,.07.4.7.7,0,0,0-.49.34Zm11.18-2.23-.3,2.11-1.08.75-3.4-.38L-16,48.81a.15.15,0,0,0-.1-.09,4.24,4.24,0,0,0-.89-.16h.09a13.43,13.43,0,0,0,2.63-.62A35.93,35.93,0,0,1-10.59,48.39Zm-2.17,2a.42.42,0,0,0-.5-.24,1,1,0,0,0,0-.42c0-.68-.46-1.22-.9-1.2s-.72.57-.69,1.25.39.68.83.66C-13.38,50.38-13,50.2-12.76,50.34Z"/></clipPath><clipPath id="clip-path-32"><path class="cls-2" d="M-13.92,49.29c0,.22-.1.4-.22.4s-.23-.17-.23-.38h0c0-.21.1-.39.22-.39h0c.13,0,.23.16.23.38h0m-6.3.29c0,.21-.1.39-.22.4s-.23-.16-.23-.38h0c0-.22.09-.4.22-.4h0c.12,0,.23.16.23.38"/></clipPath><clipPath id="clip-path-33"><path class="cls-2" d="M-9.11,49.32l-.4-.24-.28,2a.18.18,0,0,1-.06.09l-.41.28,0,.13a1.2,1.2,0,0,0,1-.4A7.93,7.93,0,0,0-9.06,50c.05-.51,0-.62,0-.66m-6.28,7.46a2.08,2.08,0,0,1-.72-.45l-.05,0-.5.07H-17A2,2,0,0,1-18,57a6.39,6.39,0,0,0,2.65-.26M-24.09,52l0-.09-.53-.36a.21.21,0,0,1-.06-.1L-25,49.36a3,3,0,0,0-.47.27c-.06,0-.09.15,0,.64a7.71,7.71,0,0,0,.31,1.36,1.46,1.46,0,0,0,1.07.34m7.91-.1a.14.14,0,0,1-.13-.09L-17,49.66a1.52,1.52,0,0,0-.29,0,1.42,1.42,0,0,0-.28,0l-.64,2.05a.13.13,0,0,1-.1.1l-.31.07c0,.1-.11.26-.39.34a33.51,33.51,0,0,1-3.66.94,3.29,3.29,0,0,1-.82-.39,4.3,4.3,0,0,1-.18-.46h0a8.77,8.77,0,0,0,1.17,2.21c.82-.23,1.52-.46,1.75-.53.46-.69,1.11-1.38,1.58-1.41h.24a4.45,4.45,0,0,1,.65,0,.8.8,0,0,1-.23-.42,2,2,0,0,0,1.35.36A2.36,2.36,0,0,0-15.9,52l0-.13-.3,0"/></clipPath><clipPath id="clip-path-34"><path class="cls-2" d="M-15.57,52.14a.6.6,0,0,1-.32-.17V52a.74.74,0,0,1-.33.55,5.11,5.11,0,0,1,1.08-.25.56.56,0,0,1,.38.15l0,0,1.24,1,1.23.13.63,0h.19a9.92,9.92,0,0,0,.57-1.31,4.27,4.27,0,0,1-1,.56,32.21,32.21,0,0,1-3.69-.78"/></clipPath><clipPath id="clip-path-35"><path class="cls-2" d="M-8.25,44.74c0-.07,0-.14,0-.2a.77.77,0,0,1,0-.15A6.49,6.49,0,0,0-8.9,44l-.74-.37-.76-.32-.39-.15-.39-.14c.27,0,.55.11.82.17l.52.15a8.07,8.07,0,0,0-7.44-5.27,8.09,8.09,0,0,0-7.45,5.27l.53-.15c.27-.06.54-.13.82-.17l-.39.14-.39.15-.77.32-.73.37a4.63,4.63,0,0,0-.61.41.77.77,0,0,0,0,.15,1.23,1.23,0,0,0,0,.2c0,.14,0,.27,0,.41a5.64,5.64,0,0,0,0,.82,7.08,7.08,0,0,0,.16.8c0,.13.08.26.13.38a1.54,1.54,0,0,0,.08.19s0,0,0,.08l0,0,.06,0,.12,0,.25.11h0l-.23-.86c.05,0,.48-.12,1.23-.26l-.18,0a2.91,2.91,0,0,1-.5-.16l-.24-.11a1,1,0,0,1-.21-.15,13.19,13.19,0,0,0,4,0c1.38-.14,2.77-.23,4.16-.24s2.78.1,4.16.24a13.18,13.18,0,0,0,4,0,.8.8,0,0,1-.21.15l-.23.11a3,3,0,0,1-.51.16l-.07,0c.82.15,1.3.27,1.35.28L-9,47.6l.13-.06.13,0,.06,0v0l0-.08a1.54,1.54,0,0,1,.08-.19c0-.12.09-.25.12-.38a5.42,5.42,0,0,0,.17-.8,7.52,7.52,0,0,0,0-.82c0-.14,0-.27,0-.41"/></clipPath><clipPath id="clip-path-36"><path class="cls-2" d="M-13.87,43.15A5.92,5.92,0,0,1-14,44.8a.09.09,0,0,0,0,.07l-.66-.06a3.6,3.6,0,0,0,.31-1.24,4.74,4.74,0,0,0,.52-.42m-6.3.42a3.38,3.38,0,0,0,.31,1.24l-.66.06a.09.09,0,0,0,0-.07,5.92,5.92,0,0,1-.17-1.65,4.74,4.74,0,0,0,.52.42m9,1.81h0l.08,0a4.84,4.84,0,0,1,.6.22,2.3,2.3,0,0,1-.65-1.27,6.78,6.78,0,0,1,0,1M-21,43l-2.1.59a6.61,6.61,0,0,0-.07,1.63h0A5.9,5.9,0,0,1-22.91,44c.07-.17.51-.28.85-.36s.87-.24,1,.22a4.15,4.15,0,0,0,.24.71A5.94,5.94,0,0,1-21,43m7.36,0a6.65,6.65,0,0,1-.13,1.64,2.78,2.78,0,0,0,.27-.78c.11-.46.64-.3,1-.22s.78.19.85.36a5.35,5.35,0,0,1,.2,1.15,7.12,7.12,0,0,0-.07-1.56L-13.6,43m-6.59.18.23.16a.14.14,0,0,1,.06.11,3.32,3.32,0,0,0,.32,1.27,0,0,0,0,1,0,0c.76,0,1.53-.07,2.29-.07s1.52,0,2.28.07a0,0,0,0,0,0,0,3.23,3.23,0,0,0,.33-1.27.14.14,0,0,1,.06-.11l.22-.16v0a10.55,10.55,0,0,0-.32-3.63c0,.48-.13,4.54-1.15,4.54h-2.83c-1.09,0-1.18-4.58-1.18-4.58l0,.16a10.37,10.37,0,0,0-.29,3.53m-3.2,2.17h0a4.93,4.93,0,0,1,0-1,2.29,2.29,0,0,1-.64,1.27,4.31,4.31,0,0,1,.6-.22l.07,0"/></clipPath><clipPath id="clip-path-37"><path class="cls-2" d="M-10.29,51.55a1.1,1.1,0,0,1-.06.26,2.26,2.26,0,0,0,.8.06,2.18,2.18,0,0,0,.27-.72,1.2,1.2,0,0,1-1,.4m-8.36,5.62a5.41,5.41,0,0,0,1.69.18,7,7,0,0,0,2.07-.47,2.11,2.11,0,0,1-.5-.1A6.39,6.39,0,0,1-18,57a2.84,2.84,0,0,1-.49.11l-.12,0M-24,52.09a.56.56,0,0,1,0-.12,1.46,1.46,0,0,1-1.07-.34,1.73,1.73,0,0,0,.24.55,2.39,2.39,0,0,0,.87-.09m.6.68a3.29,3.29,0,0,0,.82.39A33.51,33.51,0,0,0-19,52.22c.28-.08.37-.24.39-.34l-4.14.91h0a.16.16,0,0,1-.09,0l-.16-.11-.48-.33h0l-.2-.14v0l0,.09h0a4.3,4.3,0,0,0,.18.46M-10.73,52c0-.1.05-.2.07-.29l-.14.09-.39.27-.42.29s-.05,0-.07,0h0l-4.17-.47V52a.6.6,0,0,0,.32.17,32.21,32.21,0,0,0,3.69.78,4.27,4.27,0,0,0,1-.56v0l.12-.35"/></clipPath><clipPath id="clip-path-38"><path class="cls-2" d="M-15.15,46.45l-.11.14a9.57,9.57,0,0,1-.8.87l-1.17,0c-.66,0-1.29,0-1.9.05a15.77,15.77,0,0,1,3-.9c.33-.06.66-.11,1-.14m-5,.38a7.35,7.35,0,0,0-1,.8c-.74.07-1.48.17-2.21.28a16.8,16.8,0,0,1,3.19-1.08m10.41,1.73L-10.07,51l-1.66,1.14-4.33-.48-.65-2.12a.13.13,0,0,0-.12-.09,2.27,2.27,0,0,0-.42,0,2.35,2.35,0,0,0-.42,0,.13.13,0,0,0-.11.09l-.64,2.06-4.3,1-1.71-1.18-.34-2.68.23-.12.35-.07.32,2.53a.15.15,0,0,0,.06.1l1.17.8.08,0h0l3.54-.78h0a.18.18,0,0,0,.07-.08l.64-2.07a4.61,4.61,0,0,1,1-.15,4.62,4.62,0,0,1,1,.15l.64,2.07a.12.12,0,0,0,.12.09l3.54.4.09,0,1.18-.81a.21.21,0,0,0,.06-.1l.31-2.16.59.12m.44-1.5-.31,1.14a32.79,32.79,0,0,0-3.86-.58,9.31,9.31,0,0,0,1.8-1c1.11.16,1.92.32,2.37.42m-15.89,0,.09.32c.2-.16.42-.32.63-.47l-.72.15"/></clipPath><clipPath id="clip-path-39"><path class="cls-2" d="M-13.21,46.43l-1.4-.07a1.77,1.77,0,0,1-.16.22,8.26,8.26,0,0,1-1.38,1.47,11.17,11.17,0,0,0,3.32-1.6l-.38,0m-3.42-.12h-1.75l-.64.3h0a7.79,7.79,0,0,0-1.74,1.22l.22-.11a11.14,11.14,0,0,1,3.39-1.42h.53m-3.94.07-.9,0-1,.06-.51,0-.14,0a14.11,14.11,0,0,0-3.35,2.71l.06-.08a13.66,13.66,0,0,1,5.87-2.81m9.87,7.54,0,0a2,2,0,0,1-.88.17c-.22,0-.43,0-.67,0l-1.3-.14h-.06l0,0-1.29-1-.07-.05c-.06,0-.06,0-.09,0A12.39,12.39,0,0,0-17,53.3l-.08,0-.07,0a5.62,5.62,0,0,0-1.7-.28h-.22c-.09,0-.61.25-1.27,1.28l-.05.07-.07,0s-1.15.37-2.36.71l-.08,0-.07,0-.93-.42.1,0c.44.38,1.29,1.1,1.38,1.2l.06.06-.07-.08h0a2.66,2.66,0,0,0,.66.45,1.23,1.23,0,0,0,.37.12l.19,0h.2c.27,0,.53,0,.8-.06l.8-.08.8-.1.39-.07.18,0a.72.72,0,0,0,.15-.11,3.71,3.71,0,0,0,.29-.27,3.83,3.83,0,0,0,.28-.29c.16-.16.29-.33.45-.49l.06-.07h0l.09.07.55.41c.24.16.48.32.72.46l.19.08h.18l.42,0,.84-.15.84-.17c.28-.05.56-.12.84-.19a1.79,1.79,0,0,0,.39-.13,1.15,1.15,0,0,0,.35-.22,2.64,2.64,0,0,0,.55-.65h0a3.89,3.89,0,0,0,.19-.42m-5.23-13h.49V40H-19v1h.5v-.5h1v3h-.42v.57h1.42v-.57h-.42v-3h1v.5"/></clipPath><clipPath id="clip-path-40"><path class="cls-2" d="M-12.2,46.49h0l-.61,0h0a10.93,10.93,0,0,1-3.32,1.6l0,0a11,11,0,0,0,2.47-.74,8,8,0,0,0,1.4-.76l.1-.08m-5-.19a11.14,11.14,0,0,0-3.39,1.42c.4-.21.81-.39,1.23-.56l.15-.06,0,0,.13,0,.07,0,.12,0,.08,0,.11,0,.1,0,.1,0,.12,0,.09,0,.14,0,.07,0,.22-.06.49-.14c.22-.06.44-.12.66-.16h-.53m-3.41.08a13.58,13.58,0,0,0-5.87,2.82l-.06.07a19.4,19.4,0,0,1,5.38-2.58l.23-.06a12.28,12.28,0,0,1,1.2-.28l-.88,0m10.29,7.34-.06,0h0l0,0,0,0h0l0,0h0l-.06,0h0l-.11.06a3.89,3.89,0,0,1-.19.42h0a2.64,2.64,0,0,1-.55.65,1.15,1.15,0,0,1-.35.22,1.79,1.79,0,0,1-.39.13l-.84.19-.84.17-.84.15-.42,0h-.18l-.19-.08c-.24-.14-.48-.3-.72-.46l-.55-.41v0h0l0,0h0l0,0,.15.18,0,0c.07.09.4.46.79.84a1.45,1.45,0,0,0,1.06.43,2.18,2.18,0,0,0,.43-.05l.44-.11,1.29-.3.06,0,.13,0,.2,0a1.68,1.68,0,0,0,1.25-.8c.08-.17.17-.34.26-.51l.44-.84h0l0-.06-.07,0M-16.89,55l0,0c-.16.16-.29.33-.45.5s-.18.19-.28.28a3.71,3.71,0,0,1-.29.27.72.72,0,0,1-.15.11l-.18,0-.39.07-.8.1-.8.08c-.27,0-.53.05-.8.06h-.2l-.19,0a1.23,1.23,0,0,1-.37-.12,2.66,2.66,0,0,1-.66-.45h0l.09.09h0l-.05-.06c-.1-.1-.95-.82-1.39-1.2l-.1,0,.25.36c.13.19.26.37.4.55l.18.24A2.65,2.65,0,0,0-20.85,57l.46,0,.11,0h.1c1-.11,1.29-.16,1.44-.19l.12,0h0a2.5,2.5,0,0,0,.68-.21,1.07,1.07,0,0,0,.57-.52c.28-.62.34-.76.34-.77l.1-.26"/></clipPath><clipPath id="clip-path-41"><path class="cls-2" d="M-14.14,49.35a.23.23,0,0,0,.22-.23.21.21,0,0,0-.23-.21h0a.22.22,0,0,0-.22.22h0A.23.23,0,0,0-14.14,49.35Zm1.38,1c-.29-.14-.62,0-1.21,0-.44,0-.81,0-.83-.66s.26-1.24.69-1.25.85.52.9,1.2a1,1,0,0,1,0,.42A.42.42,0,0,1-12.76,50.34Zm-7.68-.83a.22.22,0,0,0,.22-.22.22.22,0,0,0-.23-.22.22.22,0,0,0-.22.23A.22.22,0,0,0-20.44,49.51Zm.68.36c0,.68-.36.64-.8.64h-.13a.66.66,0,0,1-.14,0,2,2,0,0,0-.94.11.7.7,0,0,1,.49-.34,1,1,0,0,1-.07-.4c0-.68.4-1.23.84-1.24S-19.77,49.19-19.76,49.87Zm8.33-4.68c0,.05,0,.09,0,.13l-.53-.13a17.45,17.45,0,0,0-1.76-.29h-.06v0c0-.06,0-.13,0-.19A6.65,6.65,0,0,0-13.6,43l2.1.59A7.12,7.12,0,0,1-11.43,45.19ZM-14,44.8a.09.09,0,0,0,0,.07l-.66-.06a3.6,3.6,0,0,0,.31-1.24,4.74,4.74,0,0,0,.52-.42A5.92,5.92,0,0,1-14,44.8Zm-6.48.07a.09.09,0,0,0,0-.07,5.92,5.92,0,0,1-.17-1.65,4.74,4.74,0,0,0,.52.42,3.38,3.38,0,0,0,.31,1.24Zm-.32,0-.88.12-.88.17-.52.13v-.06a6.61,6.61,0,0,1,.07-1.63L-21,43a5.94,5.94,0,0,0,.11,1.57l.06.26v0Zm10.54.84-.06,0-.08,0-.06,0a4.84,4.84,0,0,0-.6-.22l-.08,0h0a6.78,6.78,0,0,0,0-1,7.8,7.8,0,0,0-.09-.87.13.13,0,0,0-.1-.11l-.3-.09a5.42,5.42,0,0,0-1-3.38,6.15,6.15,0,0,1,.83,3.32l-1.86-.52h-.13l-.13.12c0-.17,0-.43,0-.75V42a6.86,6.86,0,0,0-.83-2.92s.06.18.14.45a10.55,10.55,0,0,1,.32,3.63v0h0l-.22.16a.14.14,0,0,0-.06.11A3.23,3.23,0,0,1-15,44.76a0,0,0,0,1,0,0c-.76,0-1.52-.07-2.28-.07s-1.53,0-2.29.07a0,0,0,0,0,0,0,3.32,3.32,0,0,1-.32-1.27.14.14,0,0,0-.06-.11l-.23-.16a10.37,10.37,0,0,1,.29-3.53c.09-.35.16-.56.16-.57a7.47,7.47,0,0,0-.84,3.76l-.13-.12h-.14l-1.85.52a6.06,6.06,0,0,1,.83-3.32,5.36,5.36,0,0,0-1.05,3.39l-.3.08a.13.13,0,0,0-.1.11,8.58,8.58,0,0,0-.1.87,4.93,4.93,0,0,0,0,1h0l-.07,0a4.31,4.31,0,0,0-.6.22l-.06,0h0l-.09,0-.05,0h0a2.9,2.9,0,0,1,.42-.12l.43-.1c.29-.05.58-.1.87-.13s.58-.07.87-.09l.88-.07c1.18-.07,2.35-.09,3.53-.09s2.35,0,3.52.09l.88.07c.29,0,.59,0,.88.09s.58.08.87.13l.43.1a3.31,3.31,0,0,1,.42.12Z"/></clipPath><clipPath id="clip-path-42"><path class="cls-2" d="M-16.95,40.44v3h.42v.57h-1.42v-.57h.42v-3h-1v.5H-19V40h3.61v1h-.49v-.5Zm1.88.86V39.59h-4.35V41.3h1.24v-.5h.28v2.32h-.42v1.29h2.16V43.12h-.42V40.8h.28v.5Z"/></clipPath><clipPath id="clip-path-43"><rect class="cls-1" x="3.91" y="37.58" width="19.26" height="20"/></clipPath></defs><title>perfecto</title><rect class="cls-1" x="-520.91" y="-1119.93" width="1366" height="2644"/><rect class="cls-1" x="-812.52" y="-1249.51" width="1366" height="3311"/><path class="cls-3" d="M14.39-109.66l-2.92,2.92a.25.25,0,0,1-.36,0l-.65-.65a.25.25,0,0,1,0-.36l2.09-2.09-2.09-2.09a.25.25,0,0,1,0-.36l.65-.65a.25.25,0,0,1,.36,0L14.39-110A.25.25,0,0,1,14.39-109.66Z"/><g class="cls-16"><rect class="cls-3" x="-545.68" y="-458.87" width="742.75" height="1800.34"/></g><rect class="cls-3" x="15.38" y="-108.42" width="5.55" height="1.51" rx="0.38"/><g class="cls-17"><rect class="cls-3" x="-544.68" y="-458.87" width="742.75" height="1800.34"/></g><rect class="cls-1" x="-570.93" y="-1175.79" width="1366" height="3024"/><path id="b36f9e61-aff0-4fb7-998a-4fa293a823c2" class="cls-24" d="M10.19,4.18a10.25,10.25,0,0,0-.9,2.26,15.56,15.56,0,0,1,5.28-1c3.16,0,5.58,1.21,5.1,4.07,1.73-4-1.51-6.79-5.15-6.79a7.05,7.05,0,0,0-4.33,1.42"/><path id="e6e8a2eb-2241-4673-b51c-c34fa55b4f71" class="cls-25" d="M18.46,11.2c-2.29,1.6-6.66,1.51-6.66,7.31,0,1.17,2.94,3.33,5.32,2.6l.35-.22c1.55-1.64-.74-4.59,1.29-6.4a6.69,6.69,0,0,0,.35-9.79c1.21,2.64.95,5.41-.65,6.5"/><path id="b863d660-8840-4264-a6b7-119a37c120f2" class="cls-26" d="M5.22,10.76c-.57,2.73.56,8.27,3.89,10.91a5.66,5.66,0,0,0,3.51,1.08h0a6.86,6.86,0,0,0,4.85-1.9c-3.08,1.6-8-3.12-8.62-8.74-.47-5.11,1.39-8,1.39-8-2.08,1.6-4.55,4.11-5,6.62"/><rect class="cls-1" x="-453.73" y="-976.34" width="1366" height="2291"/><rect class="cls-1" x="-467.8" y="-1353.7" width="1366" height="2291"/><rect class="cls-1" x="-669.25" y="-1095.92" width="1366" height="2291"/><rect class="cls-1" x="-669.25" y="-1095.92" width="1366" height="2291"/><rect class="cls-1" x="-669.25" y="-1095.92" width="1366" height="2291"/><rect class="cls-1" x="-309.3" y="-1634.92" width="1366" height="2291"/><rect class="cls-1" x="-606.35" y="-1096.92" width="1366" height="2291"/></svg>