<?xml version="1.0" encoding="utf-8"?>
<!-- Generator: Adobe Illustrator 21.1.0, SVG Export Plug-In . SVG Version: 6.00 Build 0)  -->
<svg version="1.1" id="Layer_1" xmlns="http://www.w3.org/2000/svg" xmlns:xlink="http://www.w3.org/1999/xlink" x="0px" y="0px"
	 viewBox="0 0 13 14" style="enable-background:new 0 0 13 14;" xml:space="preserve">
<style type="text/css">
	.st0{fill:#AAAAAA;}
</style>
<title>Angle Double Left - FontAwesome</title>
<desc>Created with Sketch.</desc>
<g id="final">
	<g id="Get-started--Redesign_draft_Desktop_Create-a-Gauge-Project" transform="translate(-454.000000, -1418.000000)">
		<path id="Angle-Double-Left---FontAwesome" class="st0" d="M461.7,1430c0,0.1,0,0.2-0.1,0.3l-0.6,0.6c-0.1,0.1-0.2,0.1-0.3,0.1
			c-0.1,0-0.2,0-0.3-0.1l-5.7-5.7c-0.1-0.1-0.1-0.2-0.1-0.3c0-0.1,0-0.2,0.1-0.3l5.7-5.7c0.1-0.1,0.2-0.1,0.3-0.1
			c0.1,0,0.2,0,0.3,0.1l0.6,0.6c0.1,0.1,0.1,0.2,0.1,0.3s0,0.2-0.1,0.3l-4.8,4.8l4.8,4.8C461.6,1429.8,461.7,1429.9,461.7,1430z
			 M466.4,1430c0,0.1,0,0.2-0.1,0.3l-0.6,0.6c-0.1,0.1-0.2,0.1-0.3,0.1c-0.1,0-0.2,0-0.3-0.1l-5.7-5.7c-0.1-0.1-0.1-0.2-0.1-0.3
			c0-0.1,0-0.2,0.1-0.3l5.7-5.7c0.1-0.1,0.2-0.1,0.3-0.1c0.1,0,0.2,0,0.3,0.1l0.6,0.6c0.1,0.1,0.1,0.2,0.1,0.3s0,0.2-0.1,0.3
			l-4.8,4.8l4.8,4.8C466.4,1429.8,466.4,1429.9,466.4,1430z"/>
	</g>
</g>
</svg>
