<svg id="Layer_1" data-name="Layer 1" xmlns="http://www.w3.org/2000/svg" xmlns:xlink="http://www.w3.org/1999/xlink" viewBox="0 0 25 25"><defs><style>.cls-1,.cls-2,.cls-4{fill:none;}.cls-2{clip-rule:evenodd;}.cls-3{fill:#fff;}.cls-4{fill-rule:evenodd;}.cls-5{clip-path:url(#clip-path);}.cls-6{clip-path:url(#clip-path-2);}.cls-7{clip-path:url(#clip-path-3);}.cls-8{clip-path:url(#clip-path-4);}.cls-9{clip-path:url(#clip-path-5);}.cls-10{clip-path:url(#clip-path-6);}.cls-11{clip-path:url(#clip-path-7);}.cls-12{clip-path:url(#clip-path-8);}.cls-13{clip-path:url(#clip-path-9);}.cls-14{fill:#327bf4;}.cls-15{fill:#f9c728;}.cls-16{clip-path:url(#clip-path-10);}.cls-17{clip-path:url(#clip-path-11);}.cls-18{clip-path:url(#clip-path-12);}.cls-19{clip-path:url(#clip-path-13);}.cls-20{clip-path:url(#clip-path-14);}.cls-21{clip-path:url(#clip-path-15);}.cls-22{clip-path:url(#clip-path-16);}.cls-23{clip-path:url(#clip-path-17);}.cls-24{clip-path:url(#clip-path-18);}.cls-25{clip-path:url(#clip-path-19);}.cls-26{clip-path:url(#clip-path-20);}.cls-27{clip-path:url(#clip-path-21);}.cls-28{clip-path:url(#clip-path-22);}.cls-29{clip-path:url(#clip-path-23);}.cls-30{clip-path:url(#clip-path-25);}.cls-31{clip-path:url(#clip-path-26);}.cls-32{clip-path:url(#clip-path-27);}.cls-33{clip-path:url(#clip-path-28);}.cls-34{clip-path:url(#clip-path-29);}.cls-35{clip-path:url(#clip-path-30);}.cls-36{clip-path:url(#clip-path-31);}.cls-37{clip-path:url(#clip-path-32);}.cls-38{clip-path:url(#clip-path-33);}.cls-39{clip-path:url(#clip-path-34);}.cls-40{clip-path:url(#clip-path-35);}.cls-41{clip-path:url(#clip-path-36);}.cls-42{clip-path:url(#clip-path-37);}.cls-43{clip-path:url(#clip-path-38);}.cls-44{clip-path:url(#clip-path-39);}.cls-45{clip-path:url(#clip-path-40);}</style><clipPath id="clip-path"><path class="cls-1" d="M-45.71,11.64a2.06,2.06,0,0,0-2.26,2c0,1.25.74,1.85,1.86,2.32l.38.17c.71.31,1,.5,1,1s-.33.76-1,.76-1.13-.52-1.46-1.06l-1.21.81a2.83,2.83,0,0,0,2.7,1.62c1.47,0,2.56-.77,2.56-2.15s-.74-1.87-2-2.43l-.39-.17c-.66-.28-1-.47-1-.93a.68.68,0,0,1,.74-.67,1,1,0,0,1,1,.67l1.21-.78A2.29,2.29,0,0,0-45.71,11.64Zm-5,0v5.09c0,.78-.29,1-.81,1a1.34,1.34,0,0,1-1.16-.77l-1.27.77a2.84,2.84,0,0,0,2.53,1.62A2.12,2.12,0,0,0-49.13,17V11.64Zm-6.61-6.88h14.84a.27.27,0,0,1,.27.27V19.87a.27.27,0,0,1-.27.27H-57.36a.27.27,0,0,1-.27-.27V5A.27.27,0,0,1-57.36,4.76Zm0-.81A1.08,1.08,0,0,0-58.44,5V19.87A1.09,1.09,0,0,0-57.36,21h14.84a1.09,1.09,0,0,0,1.08-1.08V5A1.08,1.08,0,0,0-42.52,4Z"/></clipPath><clipPath id="clip-path-2"><path class="cls-2" d="M-19.56,12.61l-.31-.49c-.1-.16-.19-.34-.29-.51a5.51,5.51,0,0,1-.47-1.16A2,2,0,0,1-20,8.73l.18-.22c.4-.45.93-1,1.35-1.45a2.55,2.55,0,0,0,.74-1.7c0-.39,0-1.22-.29-1.37a2.88,2.88,0,0,1-.13,1.56A3.41,3.41,0,0,1-19.27,7c-.38.32-1,.91-1.33,1.25a3.6,3.6,0,0,0-.73,1,1.41,1.41,0,0,0,.24,1.36c.11.19.22.35.34.52s.27.34.38.5.27.32.4.47a4.75,4.75,0,0,0,.41.46"/></clipPath><clipPath id="clip-path-3"><path class="cls-2" d="M-14.26,17.64c.16.2,0,.29-.22.37a29.33,29.33,0,0,1-5.47.43,22.71,22.71,0,0,1-3.21-.16c-.17,0-.92-.11-.95-.26s.11-.16.18-.2a4.14,4.14,0,0,1,1-.23,3.69,3.69,0,0,0,.37-.05,4.79,4.79,0,0,0-2.47.53c-.22.23.15.34.4.41a23.15,23.15,0,0,0,3.86.28c1.52,0,5.17,0,6.51-.69.07,0,.23-.12.24-.21s-.14-.19-.22-.22"/></clipPath><clipPath id="clip-path-4"><path class="cls-2" d="M-18.4,13.84a3.81,3.81,0,0,0,.81-.59,1.5,1.5,0,0,0,.51-.88,2,2,0,0,0-.38-1c-.47-.69-.85-1.09-.21-1.87a5.76,5.76,0,0,1,.72-.67A13,13,0,0,1-15.7,8l.43-.27A8,8,0,0,0-16.35,8a7.35,7.35,0,0,0-1,.46c-1,.54-1.93,1.39-1.54,2.56.27.8,1,1.27,1,1.87,0,.36-.4.73-.51.91"/></clipPath><clipPath id="clip-path-5"><path class="cls-2" d="M-16.5,17a5.07,5.07,0,0,1-.86-.37c-.16-.08-.1-.08-.31,0a16.5,16.5,0,0,1-3.23.16c-.24,0-.9,0-1-.21s0-.21.08-.28c-.61.11-1.22.53-.38.89a9.6,9.6,0,0,0,4,.25A13.3,13.3,0,0,0-16.5,17"/></clipPath><clipPath id="clip-path-6"><path class="cls-2" d="M-16.5,15.82a1.38,1.38,0,0,1-.55-.3c-.12-.1-.08-.08-.33,0-.91.15-3.63.42-4.41.1-.1,0-.22-.1-.22-.22s.11-.21.16-.29c-.63.08-1.23.67-.39.95a12.09,12.09,0,0,0,4,.21,9.33,9.33,0,0,0,1.75-.41"/></clipPath><clipPath id="clip-path-7"><path class="cls-2" d="M-15.27,13.13l-.42.06-.44.05c-.89.11-1.88.19-2.78.23-.69,0-3.33.11-3.72-.2,0-.13.16-.22.28-.27A9.13,9.13,0,0,1-21,12.61a7.74,7.74,0,0,0-2.71.61c-.61.32.4.44.78.48a27.2,27.2,0,0,0,6.44-.13,1.54,1.54,0,0,0,.67-.16,5.24,5.24,0,0,0,.53-.28"/></clipPath><clipPath id="clip-path-8"><path class="cls-2" d="M-22.65,19.6a13.55,13.55,0,0,0,2.52.35,23.06,23.06,0,0,0,2.88,0,12.42,12.42,0,0,0,3.7-.61c.25-.1.7-.34.74-.58-.07,0-.14.09-.21.12-1.87,1-6.14.93-8.34.8l-1.29-.08"/></clipPath><clipPath id="clip-path-9"><path class="cls-2" d="M-14.92,12.91a1.19,1.19,0,0,1,1.23.24,1.34,1.34,0,0,1,.09,1.4A4.58,4.58,0,0,1-15,16.12l-.25.18a4.91,4.91,0,0,0,1.41-.67,2.56,2.56,0,0,0,1-1.21,1.35,1.35,0,0,0-.5-1.58,1.3,1.3,0,0,0-.8-.23,1.11,1.11,0,0,0-.73.3"/></clipPath><clipPath id="clip-path-10"><path class="cls-3" d="M44.45,45.74l-2.93,2.93a.24.24,0,0,1-.35,0L40.51,48a.26.26,0,0,1,0-.35l2.1-2.1-2.1-2.09a.27.27,0,0,1,0-.36l.66-.65a.24.24,0,0,1,.35,0l2.93,2.93A.24.24,0,0,1,44.45,45.74Z"/></clipPath><clipPath id="clip-path-11"><rect class="cls-3" x="45.43" y="46.98" width="5.55" height="1.51" rx="0.38"/></clipPath><clipPath id="clip-path-12"><polygon class="cls-1" points="-59.42 75.23 -39.02 75.23 -39.02 82.66 -49.22 82.66 -49.22 83.97 -53.89 83.97 -53.89 82.66 -59.42 82.66 -59.42 75.23"/></clipPath><clipPath id="clip-path-13"><polygon class="cls-1" points="-57.23 81.78 -55.41 81.78 -55.41 78.07 -54.32 78.07 -54.32 81.78 -53.59 81.78 -53.59 76.68 -57.23 76.68 -57.23 81.78"/></clipPath><clipPath id="clip-path-14"><path class="cls-1" d="M-49.22,80h-1.09V77.93h1.09Zm-2.91-3.33v5.83h1.82V81.26h1.82V76.68Z"/></clipPath><clipPath id="clip-path-15"><polygon class="cls-1" points="-47.76 76.68 -47.76 81.78 -45.71 81.78 -45.71 78.07 -44.48 78.07 -44.48 81.78 -43.25 81.78 -43.25 78.07 -42.02 78.07 -42.02 81.78 -41.2 81.78 -41.2 76.68 -47.76 76.68"/></clipPath><clipPath id="clip-path-16"><path class="cls-1" d="M23.41,78.48v2.76A1.38,1.38,0,0,1,22,82.63H19.26a1.38,1.38,0,0,1-1.38-1.39V78.48a1.38,1.38,0,0,1,1.38-1.39H22A1.38,1.38,0,0,1,23.41,78.48Zm-7.37,0v2.76a1.39,1.39,0,0,1-1.39,1.39H11.89a1.39,1.39,0,0,1-1.39-1.39V78.48a1.39,1.39,0,0,1,1.39-1.39h2.76A1.39,1.39,0,0,1,16,78.48Zm-7.38,0v2.76a1.38,1.38,0,0,1-1.38,1.39H4.51a1.38,1.38,0,0,1-1.38-1.39V78.48a1.38,1.38,0,0,1,1.38-1.39H7.28A1.38,1.38,0,0,1,8.66,78.48Z"/></clipPath><clipPath id="clip-path-17"><path class="cls-1" d="M52.09,83.75H48.4V77.9H52V79H49.71V80.2h2.13v1.08H49.71v1.39h2.38v1.08Zm-.29,4.87H39V84.84H51.8ZM38.55,83.75V77.9h3.57V79H39.86V80.2H42v1.08H39.86v1.39h2.38v1.08Zm4.22-5.85h1.5l.5,1.07c.18.35.3.64.44,1h0c.14-.37.25-.64.39-1l.49-1.07h1.5L46,80.76l1.71,3H46.18l-.52-1.06c-.22-.4-.35-.71-.52-1h0c-.12.34-.27.65-.45,1l-.48,1.06H42.71l1.67-3ZM39,70.4h9v4a.38.38,0,0,0,.39.39H51.8v2H39Zm14,6.37h-.48V74.41a.39.39,0,0,0-.09-.26l-3.81-4.4h0l-.07-.06,0,0-.08,0H39a.77.77,0,0,0-.77.79v6.37h-.48a1.12,1.12,0,0,0-1.11,1.12v5.83a1.12,1.12,0,0,0,1.11,1.12h.48v4a.77.77,0,0,0,.77.78H51.8a.77.77,0,0,0,.77-.78v-4h.48a1.11,1.11,0,0,0,1.1-1.12V77.89A1.11,1.11,0,0,0,53.05,76.77Z"/></clipPath><clipPath id="clip-path-18"><path class="cls-1" d="M76.23,171.24a1,1,0,0,0-1,1h2A1,1,0,0,0,76.23,171.24Zm0-1.2a2.46,2.46,0,0,1,2.62,2.72v.48H75.21v.09a1,1,0,0,0,1.07,1.16,1,1,0,0,0,1-.49h1.56a2.34,2.34,0,0,1-2.58,1.73,2.5,2.5,0,0,1-2.71-2.8C73.56,171.11,74.54,170,76.23,170Zm-7.29-1.82c1.65,0,2.8.89,2.85,2.22H70.1a1.07,1.07,0,0,0-1.16-.84c-.62,0-1.06.31-1.06.76s.31.62,1.06.75l.94.18c1.42.27,2,.89,2,2,0,1.47-1.11,2.36-3,2.36s-2.93-.85-3-2.22H67.7c0,.53.58.84,1.29.84s1.15-.31,1.15-.8-.31-.62-1.11-.75l-.93-.18c-1.29-.27-2-1-2-2.09C66.1,169.11,67.21,168.22,68.94,168.22Zm-3.64-9.91a1.8,1.8,0,0,0-1.82,1.82v16.36a1.8,1.8,0,0,0,1.82,1.82H81.65a1.8,1.8,0,0,0,1.83-1.82V160.22l-6.8,6.85-4.63-4.63L74,160.53l2.67,2.67,4.89-4.89Z"/></clipPath><clipPath id="clip-path-19"><path class="cls-2" d="M111.76,166.22l1.07-.51a.16.16,0,0,1,.15,0,1.82,1.82,0,0,1,.49.75s0,0,0,0c.2-.39,1.44-2.41,2.93-2.7a11.31,11.31,0,0,0-1.49,1.73,15.72,15.72,0,0,0-1,1.87.24.24,0,0,1-.2.15h-1.29a.11.11,0,0,1-.1-.1,1.51,1.51,0,0,0-.64-1.19s0,0,0,0"/></clipPath><clipPath id="clip-path-20"><path class="cls-2" d="M93.33,171.27,93,172a.15.15,0,0,0,.12.21h4.27a.47.47,0,0,0,.44-.29l.71-1.38a.12.12,0,0,0-.1-.18h-2a.14.14,0,0,1-.12-.18l.44-1A.3.3,0,0,1,97,169h.23a.11.11,0,0,1,.09.18l-.25.5a.15.15,0,0,0,.12.2h1.44a.49.49,0,0,0,.41-.26l.5-.91a.15.15,0,0,0-.11-.23H95.06a.41.41,0,0,0-.38.26l-.92,1.77a.13.13,0,0,0,.09.21H96.3a.11.11,0,0,1,.09.18l-.43.86s0,.05-.07.05h-.62a.08.08,0,0,1-.07-.13l.25-.47c0-.07,0-.15-.09-.15H93.65c-.14,0-.25.08-.32.21"/></clipPath><clipPath id="clip-path-21"><path class="cls-2" d="M100.37,169.17l-.59,1a.12.12,0,0,0,.11.18h1.73a.5.5,0,0,0,.41-.23l.31-.52a.43.43,0,0,1,.35-.21h0c.09,0,.14.09.12.19l-.41.79a.51.51,0,0,1-.45.26H99.49L98.62,172a.14.14,0,0,0,.11.21H103a.51.51,0,0,0,.43-.25l1.59-2.83a.15.15,0,0,0-.12-.21h-4.17a.53.53,0,0,0-.38.23m1.14,2.65h-.15a.14.14,0,0,1-.11-.21l.21-.43a.38.38,0,0,1,.31-.18.2.2,0,0,1,.19.29l-.19.35a.29.29,0,0,1-.26.18m5.68-5-.07.14L104.21,172a.14.14,0,0,0,.12.21H106a.4.4,0,0,0,.34-.18l1.58-2.58a.5.5,0,0,1,.41-.23.17.17,0,0,1,.16.25L107.05,172a.14.14,0,0,0,.14.21h1.54a.59.59,0,0,0,.48-.27l1.25-2.31.29-.55s.14-.27,0-.27h-2.2a.1.1,0,0,1-.08-.12l.24-.43a.57.57,0,0,0,0-.55,5,5,0,0,0-.83-1.09c-.14,0-.48-.12-.62.13"/></clipPath><clipPath id="clip-path-22"><path class="cls-2" d="M111.61,168.57l-1.73,3.37a.2.2,0,0,0,.14.29h1.82a.14.14,0,0,0,.14-.1l1.61-3.38a.17.17,0,0,0-.14-.26h-1.68c-.09,0-.14,0-.16.08"/></clipPath><clipPath id="clip-path-23"><rect class="cls-1" x="111.81" y="163.79" width="4.6" height="3.69"/></clipPath><clipPath id="clip-path-25"><path class="cls-2" d="M-55.56,213.11a1.82,1.82,0,0,1-.93-.24,2,2,0,0,1-1-1.76v-8a2,2,0,0,1,2-2,2,2,0,0,1,2,2v4.27l6.31-4.27-9.38-6.33a2,2,0,0,1-.55-2.78,2,2,0,0,1,2.74-.55l11.85,8a2,2,0,0,1,.87,1.66,2,2,0,0,1-.87,1.67l-11.84,8a2,2,0,0,1-1.1.33"/></clipPath><clipPath id="clip-path-26"><rect class="cls-1" x="1.75" y="193.08" width="20.49" height="20"/></clipPath><clipPath id="clip-path-27"><path class="cls-2" d="M13.71,211.49l-.33,0h-.23l.19-.44.37.39"/></clipPath><clipPath id="clip-path-28"><path class="cls-2" d="M13.58,203.23a5.14,5.14,0,0,1-.54.37l-.63.37a7.19,7.19,0,0,0-.75.15h0a.15.15,0,0,0-.06.09l-.64,2.06-3.4.74-1.07-.74-.31-2.48c.61-.11,1.42-.24,2.4-.34-.11.12-.21.25-.31.38l-.58.83.85-.56a12.57,12.57,0,0,1,1.43-.78c1-.07,1.93-.11,2.89-.11ZM8.29,206a2,2,0,0,1,.94-.11H9.5c.44,0,.8,0,.8-.64S10,204,9.54,204.05s-.86.56-.84,1.24a1.15,1.15,0,0,0,.08.39.73.73,0,0,0-.5.35Zm11.18-2.24-.31,2.11-1.08.75-3.39-.38-.64-2.05a.13.13,0,0,0-.09-.1,5.13,5.13,0,0,0-.89-.16h.08a12.79,12.79,0,0,0,2.64-.62C17.34,203.45,18.6,203.64,19.47,203.79Zm-2.17,2s-.1-.29-.51-.24a.89.89,0,0,0,.06-.43c-.06-.68-.46-1.22-.9-1.2s-.72.58-.7,1.26.4.67.84.65S17,205.61,17.3,205.75Z"/></clipPath><clipPath id="clip-path-29"><path class="cls-2" d="M16.14,204.69c0,.22-.1.4-.22.4s-.23-.17-.23-.38h0c0-.22.09-.4.22-.4h0c.12,0,.22.16.23.38h0m-6.3.29c0,.22-.1.4-.22.4s-.23-.16-.23-.38h0c0-.21.09-.39.21-.4h0c.12,0,.22.17.23.38"/></clipPath><clipPath id="clip-path-30"><path class="cls-2" d="M21,204.72a4.12,4.12,0,0,0-.4-.23l-.29,2a.1.1,0,0,1-.06.09l-.4.28,0,.13a1.2,1.2,0,0,0,1-.39,8.3,8.3,0,0,0,.22-1.18c0-.51,0-.62-.05-.66m-6.29,7.46a2,2,0,0,1-.71-.45l-.06,0-.5.07H13a2,2,0,0,1-1,.68,6.34,6.34,0,0,0,2.64-.26M6,207.37l0-.09-.53-.36a.21.21,0,0,1-.06-.1l-.26-2.06a4.41,4.41,0,0,0-.47.27s-.09.15,0,.64A7.51,7.51,0,0,0,4.9,207a1.4,1.4,0,0,0,1.07.34m7.9-.09a.17.17,0,0,1-.12-.1l-.65-2.12-.29,0-.29,0-.63,2.06a.14.14,0,0,1-.11.09l-.3.07a.5.5,0,0,1-.39.34,33.51,33.51,0,0,1-3.66.94,3.13,3.13,0,0,1-.82-.39c-.11-.25-.17-.42-.19-.46h0a9.18,9.18,0,0,0,1.18,2.21c.81-.23,1.52-.45,1.75-.52.46-.7,1.11-1.39,1.57-1.42h.25a4.45,4.45,0,0,1,.65,0,.78.78,0,0,1-.23-.41,2,2,0,0,0,1.34.36,2.43,2.43,0,0,0,1.23-.53l0-.13-.31,0"/></clipPath><clipPath id="clip-path-31"><path class="cls-2" d="M14.49,207.54a.6.6,0,0,1-.32-.16v.06a.75.75,0,0,1-.33.56,4.62,4.62,0,0,1,1.07-.26.52.52,0,0,1,.38.16l.06,0,1.24,1,1.22.13c.23,0,.44,0,.64,0h.18a9.37,9.37,0,0,0,.58-1.31,4.12,4.12,0,0,1-1,.56,31.34,31.34,0,0,1-3.69-.78"/></clipPath><clipPath id="clip-path-32"><path class="cls-2" d="M21.81,200.14l0-.2a.59.59,0,0,0,0-.14,3.25,3.25,0,0,0-.61-.41,6.24,6.24,0,0,0-.73-.37c-.25-.12-.51-.22-.76-.33l-.39-.15-.4-.14c.28,0,.55.11.82.18a4.61,4.61,0,0,1,.53.15,8.07,8.07,0,0,0-7.45-5.27,8.07,8.07,0,0,0-7.44,5.27,4.61,4.61,0,0,1,.53-.15c.27-.07.54-.13.82-.18l-.4.14-.39.15c-.25.11-.51.21-.76.33a6.24,6.24,0,0,0-.73.37,3.25,3.25,0,0,0-.61.41.59.59,0,0,0,0,.14l0,.2c0,.14,0,.27,0,.41a4.46,4.46,0,0,0,0,.82,5.39,5.39,0,0,0,.16.8c0,.13.08.26.13.38a1.08,1.08,0,0,0,.08.19.2.2,0,0,0,0,.08l0,0,.06,0,.12.06.24.11,0,0-.23-.85s.48-.13,1.23-.27l-.18,0a4.13,4.13,0,0,1-.5-.15l-.24-.12a.8.8,0,0,1-.21-.15,13.19,13.19,0,0,0,4,0c1.38-.14,2.77-.23,4.16-.24s2.78.1,4.16.24a13.19,13.19,0,0,0,4,0,.8.8,0,0,1-.21.15l-.24.12a4.13,4.13,0,0,1-.5.15l-.08,0c.83.15,1.3.27,1.36.29L21,203l.13-.05.12-.06.06,0,0,0a.2.2,0,0,0,0-.08,1.08,1.08,0,0,0,.08-.19c.05-.12.09-.25.13-.38a7.08,7.08,0,0,0,.16-.8,4.52,4.52,0,0,0,.05-.82c0-.14,0-.27,0-.41"/></clipPath><clipPath id="clip-path-33"><path class="cls-2" d="M16.18,198.55A5.56,5.56,0,0,1,16,200.2v.07l-.66-.06a3.68,3.68,0,0,0,.32-1.24,4.57,4.57,0,0,0,.51-.42m-6.3.42a3.68,3.68,0,0,0,.32,1.24l-.66.06v-.07a5.25,5.25,0,0,1-.17-1.65,4.57,4.57,0,0,0,.51.42m9,1.81v0l.07,0a4.44,4.44,0,0,1,.61.22,2.24,2.24,0,0,1-.65-1.26,6.52,6.52,0,0,1,0,1M9.1,198.44,7,199a7,7,0,0,0-.06,1.63h0a6,6,0,0,1,.21-1.21c.07-.17.51-.28.84-.36s.88-.24,1,.23a3,3,0,0,0,.24.7,5.91,5.91,0,0,1-.11-1.57m7.35,0a6.1,6.1,0,0,1-.12,1.64,3.2,3.2,0,0,0,.27-.77c.11-.47.64-.31,1-.23s.77.19.84.36a5.61,5.61,0,0,1,.21,1.16,6.76,6.76,0,0,0-.08-1.57l-2.1-.59m-6.58.18.23.17a.14.14,0,0,1,.06.11,3.13,3.13,0,0,0,.32,1.26v0c.76-.05,1.52-.07,2.28-.07s1.53,0,2.29.07v0a3.13,3.13,0,0,0,.32-1.26.14.14,0,0,1,.06-.11l.22-.17v0a10.6,10.6,0,0,0-.31-3.63c0,.48-.13,4.55-1.15,4.55H11.39c-1.09,0-1.18-4.59-1.18-4.59l-.06.16a10.41,10.41,0,0,0-.28,3.53m-3.2,2.18v0a6.52,6.52,0,0,1,0-1A2.31,2.31,0,0,1,6,201a4.44,4.44,0,0,1,.61-.22l.07,0"/></clipPath><clipPath id="clip-path-34"><path class="cls-2" d="M19.77,207l-.06.27a2.83,2.83,0,0,0,.8.06,2.39,2.39,0,0,0,.27-.72,1.2,1.2,0,0,1-1,.39m-8.36,5.62a5.13,5.13,0,0,0,1.69.18,7,7,0,0,0,2.07-.47,1.71,1.71,0,0,1-.51-.1,6.34,6.34,0,0,1-2.64.26,2.84,2.84,0,0,1-.49.11l-.12,0M6,207.49l0-.12A1.4,1.4,0,0,1,4.9,207a1.52,1.52,0,0,0,.24.55,2.34,2.34,0,0,0,.86-.09m.6.68a3.33,3.33,0,0,0,.83.39,32.79,32.79,0,0,0,3.65-.94.5.5,0,0,0,.4-.34l-4.15.91h0l-.08,0-.16-.12-.49-.33h0l-.19-.13v0l0,.09h0s.08.21.18.46m12.72-.78.08-.29-.15.1-.38.26-.42.29a.11.11,0,0,1-.07,0h0l-4.17-.47v.06a.6.6,0,0,0,.32.18,33.37,33.37,0,0,0,3.69.77,4.12,4.12,0,0,0,1-.56v0l.12-.35"/></clipPath><clipPath id="clip-path-35"><path class="cls-2" d="M14.91,201.85l-.11.14a9.7,9.7,0,0,1-.8.87l-1.17,0c-.66,0-1.3,0-1.9,0a15,15,0,0,1,3-.89c.33-.07.66-.11,1-.15m-5,.38a8,8,0,0,0-1,.8c-.74.08-1.47.17-2.21.29a17,17,0,0,1,3.19-1.09M20.34,204,20,206.35l-1.66,1.14L14,207l-.66-2.11a.13.13,0,0,0-.11-.1,2.22,2.22,0,0,0-.84,0,.13.13,0,0,0-.11.1L11.64,207l-4.31.94-1.7-1.18-.34-2.67.22-.13.36-.07.32,2.53a.12.12,0,0,0,.06.1l1.17.81.08,0h0l3.54-.78h0a.18.18,0,0,0,.07-.08l.64-2.07a4.73,4.73,0,0,1,1-.14,4.63,4.63,0,0,1,1,.14l.64,2.07a.17.17,0,0,0,.12.1l3.54.39a.12.12,0,0,0,.1,0l1.18-.81a.17.17,0,0,0,.06-.1l.31-2.16.59.12m.43-1.5-.3,1.14a35.58,35.58,0,0,0-3.86-.58,9.25,9.25,0,0,0,1.8-1c1.11.15,1.92.32,2.36.41m-15.88,0,.08.32c.21-.16.42-.32.64-.46l-.72.14"/></clipPath><clipPath id="clip-path-36"><path class="cls-2" d="M16.85,201.83l-1.4-.07-.16.23a9.06,9.06,0,0,1-1.38,1.46,11,11,0,0,0,3.32-1.6l-.38,0m-3.42-.12H11.68L11,202h0a7.27,7.27,0,0,0-1.73,1.21l.22-.11a11,11,0,0,1,3.39-1.42h.53m-3.95.07-.89.05-1,.07-.51,0-.15,0a14.12,14.12,0,0,0-3.34,2.71l.06-.07a13.56,13.56,0,0,1,5.86-2.82m9.88,7.54,0,0a2,2,0,0,1-.88.17c-.22,0-.44,0-.68,0-.48,0-1.29-.14-1.29-.14H16.4l0,0s-.71-.57-1.29-1l-.06-.05c-.06,0-.06,0-.1,0a12.74,12.74,0,0,0-1.89.52l-.07,0-.07,0a5.71,5.71,0,0,0-1.7-.28H11c-.1,0-.61.24-1.28,1.28l0,.06-.07,0s-1.16.36-2.36.7l-.08,0-.08,0-.93-.42.1,0c.45.38,1.3,1.11,1.39,1.21l.05.05-.06-.08h0a2.65,2.65,0,0,0,.65.46,1.66,1.66,0,0,0,.38.11l.19,0H9l.8-.05.8-.09c.27,0,.53-.06.8-.1l.39-.07.18-.05a.63.63,0,0,0,.15-.11,3.58,3.58,0,0,0,.29-.27l.28-.28c.16-.16.29-.34.44-.5l.06-.07h0l.1.07.55.4c.24.16.47.32.72.46l.18.08h.19a2,2,0,0,0,.42-.05l.84-.14.84-.17.83-.2a1.69,1.69,0,0,0,.4-.12,1.63,1.63,0,0,0,.35-.23,2.47,2.47,0,0,0,.55-.65h0a4.08,4.08,0,0,0,.19-.42m-5.24-13h.5v-1H11v1h.49v-.5h1v3H12.1v.56h1.42v-.56H13.1v-3h1v.5"/></clipPath><clipPath id="clip-path-37"><path class="cls-2" d="M17.86,201.9h0l-.62-.05h0a11,11,0,0,1-3.32,1.6l0,0a10.9,10.9,0,0,0,2.48-.74,7.9,7.9,0,0,0,1.39-.76l.11-.07m-5-.2a11,11,0,0,0-3.39,1.42c.4-.2.81-.39,1.22-.56l.15-.06,0,0,.13,0,.07,0,.11,0,.09,0,.11,0,.1,0,.1,0,.11,0,.1,0,.13-.05.08,0,.22-.07.49-.14.66-.16H12.9m-3.42.08a13.56,13.56,0,0,0-5.86,2.82l-.06.07a19.2,19.2,0,0,1,5.37-2.57l.23-.07c.4-.11.8-.2,1.21-.28l-.89,0m10.3,7.34-.07,0,0,0h0l0,0h0l0,0h0l-.05,0h0l-.1,0a4.08,4.08,0,0,1-.19.42h0a2.67,2.67,0,0,1-.55.65,1.63,1.63,0,0,1-.35.23,2.34,2.34,0,0,1-.4.12l-.83.2-.84.17-.84.14a2,2,0,0,1-.42.05h-.19l-.18-.08c-.25-.14-.49-.3-.72-.46l-.55-.4,0,0h0l0,0h0l0,0,.16.18v0c.08.09.41.46.8.84a1.44,1.44,0,0,0,1.05.43,1.7,1.7,0,0,0,.44,0l.44-.1,1.28-.31.07,0,.13,0,.19-.05a1.62,1.62,0,0,0,1.25-.8l.27-.51c.14-.28.29-.56.44-.84h0l0,0-.07,0m-6.61,1.24,0,0c-.15.16-.28.34-.44.5l-.28.28a3.58,3.58,0,0,1-.29.27.63.63,0,0,1-.15.11l-.18.05-.39.07c-.27,0-.53.08-.8.1l-.8.09-.8.05h-.2l-.19,0a1.66,1.66,0,0,1-.38-.11,2.65,2.65,0,0,1-.65-.46h0l.08.1,0,0-.05-.05c-.09-.1-.94-.83-1.39-1.21l-.1,0,.26.36.4.56.18.23a2.65,2.65,0,0,0,2.25,1.18l.47,0h.1l.1,0c1-.11,1.3-.16,1.45-.18l.11,0h.05a2.38,2.38,0,0,0,.68-.2,1.13,1.13,0,0,0,.57-.53c.28-.61.34-.76.34-.77l.1-.26"/></clipPath><clipPath id="clip-path-38"><path class="cls-2" d="M15.92,204.75a.22.22,0,1,0,0-.44h0a.22.22,0,0,0-.22.22h0A.22.22,0,0,0,15.92,204.75Zm1.38,1c-.3-.14-.62,0-1.21.05-.44,0-.81,0-.84-.66s.26-1.25.7-1.26.84.52.9,1.2a.83.83,0,0,1-.06.42C17.2,205.46,17.3,205.73,17.3,205.75Zm-7.68-.84a.22.22,0,0,0,.22-.22.24.24,0,0,0-.23-.22.22.22,0,0,0-.22.23A.21.21,0,0,0,9.62,204.91Zm.68.36c0,.68-.36.64-.8.64H9.23a2,2,0,0,0-.94.11.67.67,0,0,1,.49-.35,1.15,1.15,0,0,1-.08-.39c0-.68.4-1.24.84-1.24S10.29,204.59,10.3,205.27Zm8.33-4.67a.49.49,0,0,0,0,.12l-.53-.13a17.42,17.42,0,0,0-1.76-.28h-.06v0c0-.06,0-.12,0-.19a6.1,6.1,0,0,0,.12-1.64l2.1.59A6.76,6.76,0,0,1,18.63,200.6ZM16,200.2v.07l-.66-.06a3.68,3.68,0,0,0,.32-1.24,4.57,4.57,0,0,0,.51-.42A5.25,5.25,0,0,1,16,200.2Zm-6.47.07v-.07a5.25,5.25,0,0,1-.17-1.65,4.57,4.57,0,0,0,.51.42,3.68,3.68,0,0,0,.32,1.24Zm-.32,0c-.3,0-.59.07-.88.12l-.88.16-.53.13v-.06A7,7,0,0,1,7,199l2.11-.59A5.91,5.91,0,0,0,9.21,200l.06.26v0Zm10.53.83-.05,0-.09-.05-.05,0a4.44,4.44,0,0,0-.61-.22l-.07,0v0a6.52,6.52,0,0,0,0-1,6.08,6.08,0,0,0-.1-.88.14.14,0,0,0-.09-.11l-.3-.08a5.47,5.47,0,0,0-1.05-3.39,6.26,6.26,0,0,1,.83,3.33l-1.86-.52h-.13l-.13.12c0-.17,0-.43,0-.75v-.09a6.89,6.89,0,0,0-.83-2.92s.06.18.14.45a10.6,10.6,0,0,1,.31,3.63v0h0l-.22.17a.14.14,0,0,0-.06.11,3.13,3.13,0,0,1-.32,1.26v0c-.76-.05-1.52-.07-2.29-.07s-1.52,0-2.28.07v0a3.12,3.12,0,0,1-.32-1.27.13.13,0,0,0-.06-.1l-.23-.17a10.41,10.41,0,0,1,.28-3.53c.09-.34.16-.55.17-.57a7.51,7.51,0,0,0-.85,3.76l-.13-.12H9.21l-1.86.52a6.26,6.26,0,0,1,.83-3.33,5.47,5.47,0,0,0-1,3.39l-.29.08a.12.12,0,0,0-.1.11,8.46,8.46,0,0,0-.1.88,6.52,6.52,0,0,0,0,1v0l-.07,0A4.44,4.44,0,0,0,6,201l0,0h0l-.08.05,0,0h0a3.31,3.31,0,0,1,.42-.12l.44-.1.87-.13q.44-.06.87-.09l.88-.07c1.17-.07,2.35-.09,3.52-.09s2.36,0,3.53.09l.88.07q.43,0,.87.09l.87.13.43.1a3,3,0,0,1,.43.12Z"/></clipPath><clipPath id="clip-path-39"><path class="cls-2" d="M13.1,195.84v3h.42v.56H12.1v-.56h.42v-3h-1v.5H11v-1h3.61v1h-.5v-.5Zm1.89.87V195H10.64v1.72h1.23v-.51h.28v2.32h-.42v1.3H13.9v-1.3h-.43V196.2h.28v.51Z"/></clipPath><clipPath id="clip-path-40"><rect class="cls-1" x="33.97" y="192.98" width="19.26" height="20"/></clipPath></defs><title>python_icon</title><rect class="cls-1" x="-490.86" y="-964.53" width="1366" height="2644"/><path class="cls-14" d="M10.31,6.62a.68.68,0,1,1-.65.68A.67.67,0,0,1,10.31,6.62Zm1.86-1.09a9.2,9.2,0,0,0-1.64.14C9.07,5.94,8.8,6.5,8.8,7.53V8.89h3.45v.46H7.51a2.16,2.16,0,0,0-2.15,1.81,6.88,6.88,0,0,0,0,3.63c.24,1.06.83,1.81,1.83,1.81H8.37V15a2.24,2.24,0,0,1,2.16-2.22H14a1.78,1.78,0,0,0,1.72-1.82V7.53A2,2,0,0,0,14,5.67,10,10,0,0,0,12.17,5.53Z"/><path class="cls-15" d="M14.22,18a.68.68,0,0,1,0,1.36.68.68,0,0,1,0-1.36Zm1.93-8.55V11A2.24,2.24,0,0,1,14,13.28H10.57a1.78,1.78,0,0,0-1.72,1.8v3.37c0,1,.81,1.53,1.72,1.81a5.57,5.57,0,0,0,3.43,0c.87-.26,1.72-.78,1.72-1.81V17.1H12.29v-.45h5.15c1,0,1.37-.72,1.72-1.8a6.28,6.28,0,0,0,0-3.6c-.25-1-.72-1.8-1.72-1.8Z"/><rect class="cls-1" x="-782.46" y="-1094.11" width="1366" height="3311"/><path class="cls-3" d="M44.45,45.74l-2.93,2.93a.24.24,0,0,1-.35,0L40.51,48a.26.26,0,0,1,0-.35l2.1-2.1-2.1-2.09a.27.27,0,0,1,0-.36l.66-.65a.24.24,0,0,1,.35,0l2.93,2.93A.24.24,0,0,1,44.45,45.74Z"/><g class="cls-16"><rect class="cls-3" x="-515.62" y="-303.46" width="742.75" height="1800.34"/></g><rect class="cls-3" x="45.43" y="46.98" width="5.55" height="1.51" rx="0.38"/><g class="cls-17"><rect class="cls-3" x="-514.62" y="-303.46" width="742.75" height="1800.34"/></g><rect class="cls-1" x="-540.87" y="-1020.39" width="1366" height="3024"/><rect class="cls-1" x="-423.67" y="-820.94" width="1366" height="2291"/><rect class="cls-1" x="-437.75" y="-1198.29" width="1366" height="2291"/><rect class="cls-1" x="-639.19" y="-940.52" width="1366" height="2291"/><rect class="cls-1" x="-639.19" y="-940.52" width="1366" height="2291"/><rect class="cls-1" x="-639.19" y="-940.52" width="1366" height="2291"/><rect class="cls-1" x="-279.24" y="-1479.51" width="1366" height="2291"/><rect class="cls-1" x="-576.29" y="-941.52" width="1366" height="2291"/></svg>