<svg id="Layer_1" data-name="Layer 1" xmlns="http://www.w3.org/2000/svg" xmlns:xlink="http://www.w3.org/1999/xlink" viewBox="0 0 25 25"><defs><style>.cls-1,.cls-2{fill:none;}.cls-2{clip-rule:evenodd;}.cls-3{fill:#fff;}.cls-4{clip-path:url(#clip-path);}.cls-5{clip-path:url(#clip-path-2);}.cls-6{clip-path:url(#clip-path-3);}.cls-7{clip-path:url(#clip-path-4);}.cls-8{clip-path:url(#clip-path-5);}.cls-9{clip-path:url(#clip-path-6);}.cls-10{clip-path:url(#clip-path-7);}.cls-11{clip-path:url(#clip-path-8);}.cls-12{clip-path:url(#clip-path-9);}.cls-13{clip-path:url(#clip-path-10);}.cls-14{clip-path:url(#clip-path-11);}.cls-15{clip-path:url(#clip-path-12);}.cls-16{clip-path:url(#clip-path-13);}.cls-17{clip-path:url(#clip-path-14);}.cls-18{clip-path:url(#clip-path-15);}.cls-19{clip-path:url(#clip-path-16);}.cls-20{clip-path:url(#clip-path-17);}.cls-21{clip-path:url(#clip-path-18);}.cls-22{clip-path:url(#clip-path-19);}.cls-23{clip-path:url(#clip-path-20);}.cls-24{clip-path:url(#clip-path-21);}.cls-25{clip-path:url(#clip-path-22);}</style><clipPath id="clip-path"><path class="cls-1" d="M-45.71,11.64a2.06,2.06,0,0,0-2.26,2c0,1.25.74,1.85,1.86,2.32l.38.17c.71.31,1,.5,1,1s-.33.76-1,.76-1.13-.52-1.46-1.06l-1.21.81a2.83,2.83,0,0,0,2.7,1.62c1.47,0,2.56-.77,2.56-2.15s-.74-1.87-2-2.43l-.39-.17c-.66-.28-1-.47-1-.93a.68.68,0,0,1,.74-.67,1,1,0,0,1,1,.67l1.21-.78A2.29,2.29,0,0,0-45.71,11.64Zm-5,0v5.09c0,.78-.29,1-.81,1a1.34,1.34,0,0,1-1.16-.77l-1.27.77a2.84,2.84,0,0,0,2.53,1.62A2.12,2.12,0,0,0-49.13,17V11.64Zm-6.61-6.88h14.84a.27.27,0,0,1,.27.27V19.87a.27.27,0,0,1-.27.27H-57.36a.27.27,0,0,1-.27-.27V5A.27.27,0,0,1-57.36,4.76Zm0-.81A1.08,1.08,0,0,0-58.44,5V19.87A1.09,1.09,0,0,0-57.36,21h14.84a1.09,1.09,0,0,0,1.08-1.08V5A1.08,1.08,0,0,0-42.52,4Z"/></clipPath><clipPath id="clip-path-2"><path class="cls-2" d="M-19.56,12.61l-.31-.49c-.1-.16-.19-.34-.29-.51a5.51,5.51,0,0,1-.47-1.16A2,2,0,0,1-20,8.73l.18-.22c.4-.45.93-1,1.35-1.45a2.55,2.55,0,0,0,.74-1.7c0-.39,0-1.22-.29-1.37a2.88,2.88,0,0,1-.13,1.56A3.41,3.41,0,0,1-19.27,7c-.38.32-1,.91-1.33,1.25a3.6,3.6,0,0,0-.73,1,1.41,1.41,0,0,0,.24,1.36c.11.19.22.35.34.52s.27.34.38.5.27.32.4.47a4.75,4.75,0,0,0,.41.46"/></clipPath><clipPath id="clip-path-3"><path class="cls-2" d="M-14.26,17.64c.16.2,0,.29-.22.37a29.33,29.33,0,0,1-5.47.43,22.71,22.71,0,0,1-3.21-.16c-.17,0-.92-.11-.95-.26s.11-.16.18-.2a4.14,4.14,0,0,1,1-.23,3.69,3.69,0,0,0,.37-.05,4.79,4.79,0,0,0-2.47.53c-.22.23.15.34.4.41a23.15,23.15,0,0,0,3.86.28c1.52,0,5.17,0,6.51-.69.07,0,.23-.12.24-.21s-.14-.19-.22-.22"/></clipPath><clipPath id="clip-path-4"><path class="cls-2" d="M-18.4,13.84a3.81,3.81,0,0,0,.81-.59,1.5,1.5,0,0,0,.51-.88,2,2,0,0,0-.38-1c-.47-.69-.85-1.09-.21-1.87a5.76,5.76,0,0,1,.72-.67A13,13,0,0,1-15.7,8l.43-.27A8,8,0,0,0-16.35,8a7.35,7.35,0,0,0-1,.46c-1,.54-1.93,1.39-1.54,2.56.27.8,1,1.27,1,1.87,0,.36-.4.73-.51.91"/></clipPath><clipPath id="clip-path-5"><path class="cls-2" d="M-16.5,17a5.07,5.07,0,0,1-.86-.37c-.16-.08-.1-.08-.31,0a16.5,16.5,0,0,1-3.23.16c-.24,0-.9,0-1-.21s0-.21.08-.28c-.61.11-1.22.53-.38.89a9.6,9.6,0,0,0,4,.25A13.3,13.3,0,0,0-16.5,17"/></clipPath><clipPath id="clip-path-6"><path class="cls-2" d="M-16.5,15.82a1.38,1.38,0,0,1-.55-.3c-.12-.1-.08-.08-.33,0-.91.15-3.63.42-4.41.1-.1,0-.22-.1-.22-.22s.11-.21.16-.29c-.63.08-1.23.67-.39.95a12.09,12.09,0,0,0,4,.21,9.33,9.33,0,0,0,1.75-.41"/></clipPath><clipPath id="clip-path-7"><path class="cls-2" d="M-15.27,13.13l-.42.06-.44.05c-.89.11-1.88.19-2.78.23-.69,0-3.33.11-3.72-.2,0-.13.16-.22.28-.27A9.13,9.13,0,0,1-21,12.61a7.74,7.74,0,0,0-2.71.61c-.61.32.4.44.78.48a27.2,27.2,0,0,0,6.44-.13,1.54,1.54,0,0,0,.67-.16,5.24,5.24,0,0,0,.53-.28"/></clipPath><clipPath id="clip-path-8"><path class="cls-2" d="M-22.65,19.6a13.55,13.55,0,0,0,2.52.35,23.06,23.06,0,0,0,2.88,0,12.42,12.42,0,0,0,3.7-.61c.25-.1.7-.34.74-.58-.07,0-.14.09-.21.12-1.87,1-6.14.93-8.34.8l-1.29-.08"/></clipPath><clipPath id="clip-path-9"><path class="cls-2" d="M-14.92,12.91a1.19,1.19,0,0,1,1.23.24,1.34,1.34,0,0,1,.09,1.4A4.58,4.58,0,0,1-15,16.12l-.25.18a4.91,4.91,0,0,0,1.41-.67,2.56,2.56,0,0,0,1-1.21,1.35,1.35,0,0,0-.5-1.58,1.3,1.3,0,0,0-.8-.23,1.11,1.11,0,0,0-.73.3"/></clipPath><clipPath id="clip-path-10"><path class="cls-1" d="M10.31,6.62a.68.68,0,1,1-.65.68A.67.67,0,0,1,10.31,6.62Zm1.86-1.09a9.2,9.2,0,0,0-1.64.14C9.07,5.94,8.8,6.5,8.8,7.53V8.89h3.45v.46H7.51a2.16,2.16,0,0,0-2.15,1.81,6.88,6.88,0,0,0,0,3.63c.24,1.06.83,1.81,1.83,1.81H8.37V15a2.24,2.24,0,0,1,2.16-2.22H14a1.78,1.78,0,0,0,1.72-1.82V7.53A2,2,0,0,0,14,5.67,10,10,0,0,0,12.17,5.53Z"/></clipPath><clipPath id="clip-path-11"><rect class="cls-1" x="-652.9" y="-504.5" width="1203.28" height="2916.59"/></clipPath><clipPath id="clip-path-12"><path class="cls-1" d="M14.22,18a.68.68,0,0,1,0,1.36.68.68,0,0,1,0-1.36Zm1.93-8.55V11A2.24,2.24,0,0,1,14,13.28H10.57a1.78,1.78,0,0,0-1.72,1.8v3.37c0,1,.81,1.53,1.72,1.81a5.57,5.57,0,0,0,3.43,0c.87-.26,1.72-.78,1.72-1.81V17.1H12.29v-.45h5.15c1,0,1.37-.72,1.72-1.8a6.28,6.28,0,0,0,0-3.6c-.25-1-.72-1.8-1.72-1.8Z"/></clipPath><clipPath id="clip-path-13"><rect class="cls-1" x="-653.57" y="-504.98" width="1203.28" height="2916.59"/></clipPath><clipPath id="clip-path-14"><path class="cls-2" d="M85.89,13.72,86.24,12H84.62l-.36,1.69ZM82.53,15H81.46l.27-1.28H82.8L83.16,12H82.08l.27-1.27h1.08L84,7.89l1.4.32-.54,2.55h1.63l.61-2.87,1.4.29L88,10.76h1.07L88.78,12H87.72l-.36,1.69h1.06L88.15,15H87.09l-.61,2.86-1.4-.31L85.62,15H84l-.61,2.86L82,17.55ZM80.47,9.64,79.22,10.8a6.37,6.37,0,0,0-.87-.79,3.1,3.1,0,0,0-1.82-.54,3.39,3.39,0,1,0,0,6.77,3.23,3.23,0,0,0,1.92-.61,5.64,5.64,0,0,0,.82-.73L80.52,16a5.19,5.19,0,0,1-4,1.81,5.11,5.11,0,0,1-5.24-5,5.11,5.11,0,0,1,5.26-5A5.21,5.21,0,0,1,80.47,9.64Z"/></clipPath><clipPath id="clip-path-15"><path class="cls-3" d="M44.45,45.74l-2.93,2.93a.24.24,0,0,1-.35,0L40.51,48a.26.26,0,0,1,0-.35l2.1-2.1-2.1-2.09a.27.27,0,0,1,0-.36l.66-.65a.24.24,0,0,1,.35,0l2.93,2.93A.24.24,0,0,1,44.45,45.74Z"/></clipPath><clipPath id="clip-path-16"><rect class="cls-3" x="45.43" y="46.98" width="5.55" height="1.51" rx="0.38"/></clipPath><clipPath id="clip-path-17"><polygon class="cls-1" points="-59.42 75.23 -39.02 75.23 -39.02 82.66 -49.22 82.66 -49.22 83.97 -53.89 83.97 -53.89 82.66 -59.42 82.66 -59.42 75.23"/></clipPath><clipPath id="clip-path-18"><polygon class="cls-1" points="-57.23 81.78 -55.41 81.78 -55.41 78.07 -54.32 78.07 -54.32 81.78 -53.59 81.78 -53.59 76.68 -57.23 76.68 -57.23 81.78"/></clipPath><clipPath id="clip-path-19"><path class="cls-1" d="M-49.22,80h-1.09V77.93h1.09Zm-2.91-3.33v5.83h1.82V81.26h1.82V76.68Z"/></clipPath><clipPath id="clip-path-20"><polygon class="cls-1" points="-47.76 76.68 -47.76 81.78 -45.71 81.78 -45.71 78.07 -44.48 78.07 -44.48 81.78 -43.25 81.78 -43.25 78.07 -42.02 78.07 -42.02 81.78 -41.2 81.78 -41.2 76.68 -47.76 76.68"/></clipPath><clipPath id="clip-path-21"><path class="cls-1" d="M23.41,78.48v2.76A1.38,1.38,0,0,1,22,82.63H19.26a1.38,1.38,0,0,1-1.38-1.39V78.48a1.38,1.38,0,0,1,1.38-1.39H22A1.38,1.38,0,0,1,23.41,78.48Zm-7.37,0v2.76a1.39,1.39,0,0,1-1.39,1.39H11.89a1.39,1.39,0,0,1-1.39-1.39V78.48a1.39,1.39,0,0,1,1.39-1.39h2.76A1.39,1.39,0,0,1,16,78.48Zm-7.38,0v2.76a1.38,1.38,0,0,1-1.38,1.39H4.51a1.38,1.38,0,0,1-1.38-1.39V78.48a1.38,1.38,0,0,1,1.38-1.39H7.28A1.38,1.38,0,0,1,8.66,78.48Z"/></clipPath><clipPath id="clip-path-22"><path class="cls-1" d="M52.09,83.75H48.4V77.9H52V79H49.71V80.2h2.13v1.08H49.71v1.39h2.38v1.08Zm-.29,4.87H39V84.84H51.8ZM38.55,83.75V77.9h3.57V79H39.86V80.2H42v1.08H39.86v1.39h2.38v1.08Zm4.22-5.85h1.5l.5,1.07c.18.35.3.64.44,1h0c.14-.37.25-.64.39-1l.49-1.07h1.5L46,80.76l1.71,3H46.18l-.52-1.06c-.22-.4-.35-.71-.52-1h0c-.12.34-.27.65-.45,1l-.48,1.06H42.71l1.67-3ZM39,70.4h9v4a.38.38,0,0,0,.39.39H51.8v2H39Zm14,6.37h-.48V74.41a.39.39,0,0,0-.09-.26l-3.81-4.4h0l-.07-.06,0,0-.08,0H39a.77.77,0,0,0-.77.79v6.37h-.48a1.12,1.12,0,0,0-1.11,1.12v5.83a1.12,1.12,0,0,0,1.11,1.12h.48v4a.77.77,0,0,0,.77.78H51.8a.77.77,0,0,0,.77-.78v-4h.48a1.11,1.11,0,0,0,1.1-1.12V77.89A1.11,1.11,0,0,0,53.05,76.77Z"/></clipPath></defs><title>python_icon</title><rect class="cls-1" x="-490.86" y="-964.53" width="1366" height="2644"/><g class="cls-13"><g class="cls-14"><rect x="0.71" y="1.12" width="19.38" height="19.88"/></g></g><g class="cls-15"><g class="cls-16"><rect x="4.45" y="5.05" width="19.38" height="19.88"/></g></g><rect class="cls-1" x="-782.46" y="-1094.11" width="1366" height="3311"/><path class="cls-3" d="M44.45,45.74l-2.93,2.93a.24.24,0,0,1-.35,0L40.51,48a.26.26,0,0,1,0-.35l2.1-2.1-2.1-2.09a.27.27,0,0,1,0-.36l.66-.65a.24.24,0,0,1,.35,0l2.93,2.93A.24.24,0,0,1,44.45,45.74Z"/><g class="cls-18"><rect class="cls-3" x="-515.62" y="-303.46" width="742.75" height="1800.34"/></g><rect class="cls-3" x="45.43" y="46.98" width="5.55" height="1.51" rx="0.38"/><g class="cls-19"><rect class="cls-3" x="-514.62" y="-303.46" width="742.75" height="1800.34"/></g><rect class="cls-1" x="-540.87" y="-1020.39" width="1366" height="3024"/></svg>