<svg id="Layer_1" data-name="Layer 1" xmlns="http://www.w3.org/2000/svg" xmlns:xlink="http://www.w3.org/1999/xlink" viewBox="0 0 25 25"><defs><style>.cls-1,.cls-2{fill:none;}.cls-1{clip-rule:evenodd;}.cls-3{fill:#999;}.cls-4{clip-path:url(#clip-path);}.cls-5{clip-path:url(#clip-path-2);}.cls-6{clip-path:url(#clip-path-3);}.cls-7{clip-path:url(#clip-path-4);}.cls-8{clip-path:url(#clip-path-5);}.cls-9{clip-path:url(#clip-path-6);}.cls-10{clip-path:url(#clip-path-7);}.cls-11{clip-path:url(#clip-path-8);}.cls-12{clip-path:url(#clip-path-9);}.cls-13{clip-path:url(#clip-path-10);}.cls-14{clip-path:url(#clip-path-11);}.cls-15{clip-path:url(#clip-path-12);}.cls-16{clip-path:url(#clip-path-13);}</style><clipPath id="clip-path"><path class="cls-2" d="M-45.71,11.64a2.06,2.06,0,0,0-2.26,2c0,1.25.74,1.85,1.86,2.32l.38.17c.71.31,1,.5,1,1s-.33.76-1,.76-1.13-.52-1.46-1.06l-1.21.81a2.83,2.83,0,0,0,2.7,1.62c1.47,0,2.56-.77,2.56-2.15s-.74-1.87-2-2.43l-.39-.17c-.66-.28-1-.47-1-.93a.68.68,0,0,1,.74-.67,1,1,0,0,1,1,.67l1.21-.78A2.29,2.29,0,0,0-45.71,11.64Zm-5,0v5.09c0,.78-.29,1-.81,1a1.34,1.34,0,0,1-1.16-.77l-1.27.77a2.84,2.84,0,0,0,2.53,1.62A2.12,2.12,0,0,0-49.13,17V11.64Zm-6.61-6.88h14.84a.27.27,0,0,1,.27.27V19.87a.27.27,0,0,1-.27.27H-57.36a.27.27,0,0,1-.27-.27V5A.27.27,0,0,1-57.36,4.76Zm0-.81A1.08,1.08,0,0,0-58.44,5V19.87A1.09,1.09,0,0,0-57.36,21h14.84a1.09,1.09,0,0,0,1.08-1.08V5A1.08,1.08,0,0,0-42.52,4Z"/></clipPath><clipPath id="clip-path-2"><path class="cls-1" d="M-19.56,12.61l-.31-.49c-.1-.16-.19-.34-.29-.51a5.51,5.51,0,0,1-.47-1.16A2,2,0,0,1-20,8.73l.18-.22c.4-.45.93-1,1.35-1.45a2.55,2.55,0,0,0,.74-1.7c0-.39,0-1.22-.29-1.37a2.88,2.88,0,0,1-.13,1.56A3.41,3.41,0,0,1-19.27,7c-.38.32-1,.91-1.33,1.25a3.6,3.6,0,0,0-.73,1,1.41,1.41,0,0,0,.24,1.36c.11.19.22.35.34.52s.27.34.38.5.27.32.4.47a4.75,4.75,0,0,0,.41.46"/></clipPath><clipPath id="clip-path-3"><path class="cls-1" d="M-14.26,17.64c.16.2,0,.29-.22.37a29.33,29.33,0,0,1-5.47.43,22.71,22.71,0,0,1-3.21-.16c-.17,0-.92-.11-.95-.26s.11-.16.18-.2a4.14,4.14,0,0,1,1-.23,3.69,3.69,0,0,0,.37-.05,4.79,4.79,0,0,0-2.47.53c-.22.23.15.34.4.41a23.15,23.15,0,0,0,3.86.28c1.52,0,5.17,0,6.51-.69.07,0,.23-.12.24-.21s-.14-.19-.22-.22"/></clipPath><clipPath id="clip-path-4"><path class="cls-1" d="M-18.4,13.84a3.81,3.81,0,0,0,.81-.59,1.5,1.5,0,0,0,.51-.88,2,2,0,0,0-.38-1c-.47-.69-.85-1.09-.21-1.87a5.76,5.76,0,0,1,.72-.67A13,13,0,0,1-15.7,8l.43-.27A8,8,0,0,0-16.35,8a7.35,7.35,0,0,0-1,.46c-1,.54-1.93,1.39-1.54,2.56.27.8,1,1.27,1,1.87,0,.36-.4.73-.51.91"/></clipPath><clipPath id="clip-path-5"><path class="cls-1" d="M-16.5,17a5.07,5.07,0,0,1-.86-.37c-.16-.08-.1-.08-.31,0a16.5,16.5,0,0,1-3.23.16c-.24,0-.9,0-1-.21s0-.21.08-.28c-.61.11-1.22.53-.38.89a9.6,9.6,0,0,0,4,.25A13.3,13.3,0,0,0-16.5,17"/></clipPath><clipPath id="clip-path-6"><path class="cls-1" d="M-16.5,15.82a1.38,1.38,0,0,1-.55-.3c-.12-.1-.08-.08-.33,0-.91.15-3.63.42-4.41.1-.1,0-.22-.1-.22-.22s.11-.21.16-.29c-.63.08-1.23.67-.39.95a12.09,12.09,0,0,0,4,.21,9.33,9.33,0,0,0,1.75-.41"/></clipPath><clipPath id="clip-path-7"><path class="cls-1" d="M-15.27,13.13l-.42.06-.44.05c-.89.11-1.88.19-2.78.23-.69,0-3.33.11-3.72-.2,0-.13.16-.22.28-.27A9.13,9.13,0,0,1-21,12.61a7.74,7.74,0,0,0-2.71.61c-.61.32.4.44.78.48a27.2,27.2,0,0,0,6.44-.13,1.54,1.54,0,0,0,.67-.16,5.24,5.24,0,0,0,.53-.28"/></clipPath><clipPath id="clip-path-8"><path class="cls-1" d="M-22.65,19.6a13.55,13.55,0,0,0,2.52.35,23.06,23.06,0,0,0,2.88,0,12.42,12.42,0,0,0,3.7-.61c.25-.1.7-.34.74-.58-.07,0-.14.09-.21.12-1.87,1-6.14.93-8.34.8l-1.29-.08"/></clipPath><clipPath id="clip-path-9"><path class="cls-1" d="M-14.92,12.91a1.19,1.19,0,0,1,1.23.24,1.34,1.34,0,0,1,.09,1.4A4.58,4.58,0,0,1-15,16.12l-.25.18a4.91,4.91,0,0,0,1.41-.67,2.56,2.56,0,0,0,1-1.21,1.35,1.35,0,0,0-.5-1.58,1.3,1.3,0,0,0-.8-.23,1.11,1.11,0,0,0-.73.3"/></clipPath><clipPath id="clip-path-10"><path class="cls-2" d="M10.31,6.62a.68.68,0,1,1-.65.68A.67.67,0,0,1,10.31,6.62Zm1.86-1.09a9.2,9.2,0,0,0-1.64.14C9.07,5.94,8.8,6.5,8.8,7.53V8.89h3.45v.46H7.51a2.16,2.16,0,0,0-2.15,1.81,6.88,6.88,0,0,0,0,3.63c.24,1.06.83,1.81,1.83,1.81H8.37V15a2.24,2.24,0,0,1,2.16-2.22H14a1.78,1.78,0,0,0,1.72-1.82V7.53A2,2,0,0,0,14,5.67,10,10,0,0,0,12.17,5.53Z"/></clipPath><clipPath id="clip-path-11"><rect class="cls-2" x="-652.9" y="-504.5" width="1203.28" height="2916.59"/></clipPath><clipPath id="clip-path-12"><path class="cls-2" d="M14.22,18a.68.68,0,0,1,0,1.36.68.68,0,0,1,0-1.36Zm1.93-8.55V11A2.24,2.24,0,0,1,14,13.28H10.57a1.78,1.78,0,0,0-1.72,1.8v3.37c0,1,.81,1.53,1.72,1.81a5.57,5.57,0,0,0,3.43,0c.87-.26,1.72-.78,1.72-1.81V17.1H12.29v-.45h5.15c1,0,1.37-.72,1.72-1.8a6.28,6.28,0,0,0,0-3.6c-.25-1-.72-1.8-1.72-1.8Z"/></clipPath><clipPath id="clip-path-13"><rect class="cls-2" x="-653.57" y="-504.98" width="1203.28" height="2916.59"/></clipPath></defs><title>python_icon</title><rect class="cls-2" x="-490.86" y="-964.53" width="1366" height="2644"/><path class="cls-3" d="M22,.5A2.5,2.5,0,0,1,24.5,3V22A2.5,2.5,0,0,1,22,24.5H3A2.5,2.5,0,0,1,.5,22V3A2.5,2.5,0,0,1,3,.5H22M22,0H3A3,3,0,0,0,0,3V22a3,3,0,0,0,3,3H22a3,3,0,0,0,3-3V3a3,3,0,0,0-3-3Z"/><g class="cls-13"><g class="cls-14"><rect x="0.71" y="1.12" width="19.38" height="19.88"/></g></g><g class="cls-15"><g class="cls-16"><rect x="4.45" y="5.05" width="19.38" height="19.88"/></g></g></svg>