<svg id="Layer_1" data-name="Layer 1" xmlns="http://www.w3.org/2000/svg" xmlns:xlink="http://www.w3.org/1999/xlink" viewBox="0 0 25 25"><defs><style>.cls-1,.cls-2{fill:none;}.cls-2{clip-rule:evenodd;}.cls-24,.cls-3{fill:#fff;}.cls-4{clip-path:url(#clip-path);}.cls-5{clip-path:url(#clip-path-2);}.cls-6{clip-path:url(#clip-path-3);}.cls-7{clip-path:url(#clip-path-4);}.cls-8{clip-path:url(#clip-path-5);}.cls-9{clip-path:url(#clip-path-6);}.cls-10{clip-path:url(#clip-path-7);}.cls-11{clip-path:url(#clip-path-8);}.cls-12{clip-path:url(#clip-path-9);}.cls-13{clip-path:url(#clip-path-10);}.cls-14{clip-path:url(#clip-path-11);}.cls-15{clip-path:url(#clip-path-12);}.cls-16,.cls-17,.cls-18,.cls-19,.cls-20,.cls-21,.cls-22,.cls-23,.cls-24,.cls-25,.cls-26,.cls-27,.cls-28,.cls-29,.cls-30,.cls-31,.cls-32,.cls-33{fill-rule:evenodd;}.cls-16{fill:url(#linear-gradient);}.cls-17{fill:url(#linear-gradient-2);}.cls-18{fill:url(#linear-gradient-3);}.cls-19{fill:url(#linear-gradient-4);}.cls-20{fill:url(#linear-gradient-5);}.cls-21{fill:url(#linear-gradient-6);}.cls-22{fill:url(#linear-gradient-7);}.cls-23{fill:url(#linear-gradient-8);}.cls-25{fill:url(#linear-gradient-9);}.cls-26{fill:url(#linear-gradient-10);}.cls-27{fill:url(#linear-gradient-11);}.cls-28{fill:url(#linear-gradient-12);}.cls-29{fill:#aa3e35;}.cls-30{fill:url(#radial-gradient);}.cls-31{fill:url(#radial-gradient-2);}.cls-32{fill:url(#linear-gradient-13);}.cls-33{fill:url(#linear-gradient-14);}.cls-34{clip-path:url(#clip-path-13);}.cls-35{clip-path:url(#clip-path-14);}.cls-36{clip-path:url(#clip-path-15);}.cls-37{clip-path:url(#clip-path-16);}.cls-38{clip-path:url(#clip-path-17);}.cls-39{clip-path:url(#clip-path-18);}.cls-40{clip-path:url(#clip-path-19);}.cls-41{clip-path:url(#clip-path-20);}</style><clipPath id="clip-path"><path class="cls-1" d="M-78.72,11.64a2.06,2.06,0,0,0-2.26,2c0,1.25.74,1.85,1.85,2.32l.39.17c.7.31,1,.5,1,1s-.34.76-1,.76-1.12-.52-1.45-1.06l-1.21.81a2.82,2.82,0,0,0,2.7,1.62c1.47,0,2.56-.77,2.56-2.15s-.74-1.87-2.06-2.43l-.38-.17c-.66-.28-.95-.47-.95-.93a.68.68,0,0,1,.74-.67,1,1,0,0,1,1,.67l1.2-.78A2.27,2.27,0,0,0-78.72,11.64Zm-5,0v5.09c0,.78-.3,1-.81,1a1.34,1.34,0,0,1-1.16-.77l-1.27.77a2.84,2.84,0,0,0,2.52,1.62A2.13,2.13,0,0,0-82.14,17V11.64Zm-6.61-6.88h14.84a.27.27,0,0,1,.27.27V19.87a.27.27,0,0,1-.27.27H-90.37a.27.27,0,0,1-.27-.27V5A.27.27,0,0,1-90.37,4.76Zm0-.81A1.08,1.08,0,0,0-91.45,5V19.87A1.09,1.09,0,0,0-90.37,21h14.84a1.09,1.09,0,0,0,1.08-1.08V5A1.08,1.08,0,0,0-75.53,4Z"/></clipPath><clipPath id="clip-path-2"><path class="cls-2" d="M-52.57,12.61l-.31-.49c-.1-.16-.2-.34-.29-.51a5,5,0,0,1-.47-1.16A2,2,0,0,1-53,8.73a1.92,1.92,0,0,1,.18-.22c.39-.45.93-1,1.35-1.45a2.54,2.54,0,0,0,.73-1.7c0-.39,0-1.22-.29-1.37a2.88,2.88,0,0,1-.12,1.56A3.49,3.49,0,0,1-52.28,7c-.38.32-1,.91-1.34,1.25a3.79,3.79,0,0,0-.72,1,1.43,1.43,0,0,0,.23,1.36c.12.19.23.35.35.52s.27.34.38.5.26.32.39.47a4.79,4.79,0,0,0,.42.46"/></clipPath><clipPath id="clip-path-3"><path class="cls-2" d="M-47.27,17.64c.16.2,0,.29-.23.37a29.16,29.16,0,0,1-5.46.43,22.71,22.71,0,0,1-3.21-.16c-.17,0-.92-.11-.95-.26s.11-.16.17-.2a4.11,4.11,0,0,1,1-.23,3.48,3.48,0,0,0,.36-.05,4.75,4.75,0,0,0-2.46.53c-.22.23.15.34.4.41a23.15,23.15,0,0,0,3.86.28c1.52,0,5.16,0,6.5-.69.08,0,.23-.12.25-.21s-.14-.19-.22-.22"/></clipPath><clipPath id="clip-path-4"><path class="cls-2" d="M-51.41,13.84a4.08,4.08,0,0,0,.81-.59,1.49,1.49,0,0,0,.5-.88,1.87,1.87,0,0,0-.37-1c-.48-.69-.86-1.09-.21-1.87A5.14,5.14,0,0,1-50,8.81,14.22,14.22,0,0,1-48.72,8l.44-.27A8,8,0,0,0-49.36,8a7.49,7.49,0,0,0-1,.46c-1,.54-1.92,1.39-1.53,2.56.26.8,1,1.27,1,1.87a2.44,2.44,0,0,1-.51.91"/></clipPath><clipPath id="clip-path-5"><path class="cls-2" d="M-49.51,17a4.74,4.74,0,0,1-.86-.37c-.17-.08-.1-.08-.32,0a16.4,16.4,0,0,1-3.22.16c-.24,0-.91,0-1-.21s0-.21.07-.28c-.6.11-1.21.53-.37.89a9.57,9.57,0,0,0,4,.25A13.11,13.11,0,0,0-49.51,17"/></clipPath><clipPath id="clip-path-6"><path class="cls-2" d="M-49.51,15.82a1.38,1.38,0,0,1-.55-.3c-.12-.1-.08-.08-.34,0-.91.15-3.62.42-4.4.1-.1,0-.22-.1-.23-.22s.11-.21.16-.29c-.62.08-1.22.67-.38.95a12,12,0,0,0,4,.21,9.44,9.44,0,0,0,1.76-.41"/></clipPath><clipPath id="clip-path-7"><path class="cls-2" d="M-48.28,13.13l-.43.06-.43.05c-.9.11-1.89.19-2.78.23-.7,0-3.33.11-3.72-.2,0-.13.16-.22.27-.27A8.92,8.92,0,0,1-54,12.61a7.84,7.84,0,0,0-2.72.61c-.6.32.41.44.78.48a27.2,27.2,0,0,0,6.44-.13,1.58,1.58,0,0,0,.68-.16c.16-.09.38-.18.53-.28"/></clipPath><clipPath id="clip-path-8"><path class="cls-2" d="M-55.66,19.6a13.55,13.55,0,0,0,2.52.35,23.06,23.06,0,0,0,2.88,0,12.4,12.4,0,0,0,3.69-.61c.25-.1.71-.34.75-.58-.07,0-.14.09-.21.12-1.87,1-6.14.93-8.34.8l-1.29-.08"/></clipPath><clipPath id="clip-path-9"><path class="cls-2" d="M-47.93,12.91a1.2,1.2,0,0,1,1.23.24,1.36,1.36,0,0,1,.09,1.4A4.68,4.68,0,0,1-48,16.12l-.25.18a4.74,4.74,0,0,0,1.4-.67,2.58,2.58,0,0,0,1-1.21,1.35,1.35,0,0,0-.5-1.58,1.32,1.32,0,0,0-.8-.23,1.09,1.09,0,0,0-.73.3"/></clipPath><clipPath id="clip-path-10"><path class="cls-1" d="M-22.7,6.62a.67.67,0,0,1,.64.68A.66.66,0,0,1-22.7,8a.66.66,0,0,1-.65-.68A.67.67,0,0,1-22.7,6.62Zm1.86-1.09a9.4,9.4,0,0,0-1.65.14c-1.46.27-1.72.83-1.72,1.86V8.89h3.44v.46H-25.5a2.16,2.16,0,0,0-2.15,1.81,6.88,6.88,0,0,0,0,3.63c.24,1.06.83,1.81,1.83,1.81h1.18V15a2.23,2.23,0,0,1,2.15-2.22H-19a1.77,1.77,0,0,0,1.72-1.82V7.53A2,2,0,0,0-19,5.67,9.82,9.82,0,0,0-20.84,5.53Z"/></clipPath><clipPath id="clip-path-11"><path class="cls-1" d="M-18.79,18a.66.66,0,0,1,.64.68.67.67,0,0,1-.64.68.67.67,0,0,1-.65-.68A.66.66,0,0,1-18.79,18Zm1.93-8.55V11A2.25,2.25,0,0,1-19,13.28h-3.43a1.78,1.78,0,0,0-1.72,1.8v3.37c0,1,.81,1.53,1.72,1.81a5.57,5.57,0,0,0,3.43,0c.86-.26,1.72-.78,1.72-1.81V17.1h-3.43v-.45h5.15c1,0,1.37-.72,1.72-1.8a6.36,6.36,0,0,0,0-3.6c-.25-1-.72-1.8-1.72-1.8Z"/></clipPath><clipPath id="clip-path-12"><path class="cls-2" d="M52.87,13.72,53.23,12H51.61l-.36,1.69ZM49.52,15H48.44l.27-1.28h1.08L50.14,12H49.07l.27-1.27h1.07L51,7.89l1.41.32-.54,2.55h1.62l.62-2.87,1.4.29L55,10.76h1.07L55.77,12H54.71l-.36,1.69h1.06L55.14,15H54.08l-.61,2.86-1.4-.31L52.6,15H51l-.61,2.86L49,17.55ZM47.46,9.64,46.21,10.8a7,7,0,0,0-.87-.79,3.15,3.15,0,0,0-1.82-.54,3.39,3.39,0,1,0,0,6.77,3.27,3.27,0,0,0,1.92-.61,6.27,6.27,0,0,0,.82-.73L47.5,16a5.17,5.17,0,0,1-4,1.81,5.11,5.11,0,0,1-5.25-5,5.12,5.12,0,0,1,5.27-5A5.21,5.21,0,0,1,47.46,9.64Z"/></clipPath><linearGradient id="linear-gradient" x1="18.28" y1="173.62" x2="15.12" y2="179.2" gradientTransform="matrix(1, 0, 0, -1, 0, 195.12)" gradientUnits="userSpaceOnUse"><stop offset="0" stop-color="#f68f71"/><stop offset="0.41" stop-color="#dc5242"/><stop offset="0.99" stop-color="#a72c32"/><stop offset="1" stop-color="#a72c32"/></linearGradient><linearGradient id="linear-gradient-2" x1="19.84" y1="178.3" x2="15.77" y2="181.03" gradientTransform="matrix(1, 0, 0, -1, 0, 195.12)" gradientUnits="userSpaceOnUse"><stop offset="0" stop-color="#9b3f34"/><stop offset="0.99" stop-color="#a23e36"/><stop offset="1" stop-color="#a23e36"/></linearGradient><linearGradient id="linear-gradient-3" x1="16.59" y1="173.45" x2="12.52" y2="176.18" xlink:href="#linear-gradient-2"/><linearGradient id="linear-gradient-4" x1="8.06" y1="180.28" x2="8.69" y2="176.18" gradientTransform="matrix(1, 0, 0, -1, 0, 195.12)" gradientUnits="userSpaceOnUse"><stop offset="0" stop-color="#fff"/><stop offset="0.23" stop-color="#e28b6f"/><stop offset="0.46" stop-color="#da6144"/><stop offset="0.99" stop-color="#a60003"/><stop offset="1" stop-color="#a60003"/></linearGradient><linearGradient id="linear-gradient-5" x1="12.37" y1="184.1" x2="12.6" y2="179.92" gradientTransform="matrix(1, 0, 0, -1, 0, 195.12)" gradientUnits="userSpaceOnUse"><stop offset="0" stop-color="#fff"/><stop offset="0.23" stop-color="#e08a6d"/><stop offset="0.56" stop-color="#c14435"/><stop offset="0.99" stop-color="#b13430"/><stop offset="1" stop-color="#b13430"/></linearGradient><linearGradient id="linear-gradient-6" x1="16.25" y1="187.97" x2="16.94" y2="184.97" gradientTransform="matrix(1, 0, 0, -1, 0, 195.12)" gradientUnits="userSpaceOnUse"><stop offset="0" stop-color="#fff"/><stop offset="0.18" stop-color="#df8063"/><stop offset="0.4" stop-color="#c94d37"/><stop offset="0.99" stop-color="#b13430"/><stop offset="1" stop-color="#b13430"/></linearGradient><linearGradient id="linear-gradient-7" x1="14.12" y1="189" x2="17.12" y2="190.49" gradientTransform="matrix(1, 0, 0, -1, 0, 195.12)" gradientUnits="userSpaceOnUse"><stop offset="0" stop-color="#fff"/><stop offset="0.54" stop-color="#c94838"/><stop offset="0.99" stop-color="#c12d2f"/><stop offset="1" stop-color="#c12d2f"/></linearGradient><linearGradient id="linear-gradient-8" x1="5.42" y1="181.32" x2="5.67" y2="178.85" gradientTransform="matrix(1, 0, 0, -1, 0, 195.12)" gradientUnits="userSpaceOnUse"><stop offset="0" stop-color="#fff"/><stop offset="0.31" stop-color="#da6548"/><stop offset="0.99" stop-color="#c14433"/><stop offset="1" stop-color="#c14433"/></linearGradient><linearGradient id="linear-gradient-9" x1="3.74" y1="178.16" x2="15.34" y2="190.09" gradientTransform="matrix(1, 0, 0, -1, 0, 195.12)" gradientUnits="userSpaceOnUse"><stop offset="0" stop-color="#bd0012"/><stop offset="0.07" stop-color="#fff"/><stop offset="0.17" stop-color="#fff"/><stop offset="0.27" stop-color="#c95841"/><stop offset="0.33" stop-color="#983734"/><stop offset="0.46" stop-color="#ae4231"/><stop offset="0.72" stop-color="#b93e2f"/><stop offset="0.99" stop-color="#de4e2b"/><stop offset="1" stop-color="#de4e2b"/></linearGradient><linearGradient id="linear-gradient-10" x1="12.6" y1="176.98" x2="9.11" y2="177.84" gradientTransform="matrix(1, 0, 0, -1, 0, 195.12)" gradientUnits="userSpaceOnUse"><stop offset="0" stop-color="#9f3633"/><stop offset="0.54" stop-color="#a73532"/><stop offset="0.99" stop-color="#b13439"/><stop offset="1" stop-color="#b13439"/></linearGradient><linearGradient id="linear-gradient-11" x1="18.59" y1="181.16" x2="15.49" y2="183.94" gradientTransform="matrix(1, 0, 0, -1, 0, 195.12)" gradientUnits="userSpaceOnUse"><stop offset="0" stop-color="#923c36"/><stop offset="0.99" stop-color="#aa3531"/><stop offset="1" stop-color="#aa3531"/></linearGradient><linearGradient id="linear-gradient-12" x1="19.72" y1="186.25" x2="18.17" y2="187.91" gradientTransform="matrix(1, 0, 0, -1, 0, 195.12)" gradientUnits="userSpaceOnUse"><stop offset="0" stop-color="#8d3e36"/><stop offset="0.99" stop-color="#aa3e37"/><stop offset="1" stop-color="#aa3e37"/></linearGradient><radialGradient id="radial-gradient" cx="15.98" cy="183.9" r="3.8" gradientTransform="matrix(1, 0, 0, -1, 0, 195.12)" gradientUnits="userSpaceOnUse"><stop offset="0" stop-color="#b13430"/><stop offset="0.99" stop-color="#923834"/><stop offset="1" stop-color="#923834"/></radialGradient><radialGradient id="radial-gradient-2" cx="10.72" cy="178.89" r="5.06" gradientTransform="matrix(1, 0, 0, -1, 0, 195.12)" gradientUnits="userSpaceOnUse"><stop offset="0" stop-color="#ae3531"/><stop offset="0.99" stop-color="#953a36"/><stop offset="1" stop-color="#953a36"/></radialGradient><linearGradient id="linear-gradient-13" x1="7.2" y1="175.01" x2="5.94" y2="179.28" gradientTransform="matrix(1, 0, 0, -1, 0, 195.12)" gradientUnits="userSpaceOnUse"><stop offset="0" stop-color="#994939"/><stop offset="0.43" stop-color="#aa3a36"/><stop offset="0.99" stop-color="#b83936"/><stop offset="1" stop-color="#b83936"/></linearGradient><linearGradient id="linear-gradient-14" x1="16.79" y1="189.14" x2="19.62" y2="187.89" gradientTransform="matrix(1, 0, 0, -1, 0, 195.12)" gradientUnits="userSpaceOnUse"><stop offset="0" stop-color="#b9392f"/><stop offset="0.44" stop-color="#a23a36"/><stop offset="0.99" stop-color="#8d463a"/><stop offset="1" stop-color="#8d463a"/></linearGradient><clipPath id="clip-path-13"><path class="cls-3" d="M11.44,45.74,8.51,48.67a.24.24,0,0,1-.35,0L7.5,48a.24.24,0,0,1,0-.35l2.1-2.1L7.5,43.47a.25.25,0,0,1,0-.36l.66-.65a.24.24,0,0,1,.35,0l2.93,2.93A.24.24,0,0,1,11.44,45.74Z"/></clipPath><clipPath id="clip-path-14"><rect class="cls-3" x="12.42" y="46.98" width="5.55" height="1.51" rx="0.38"/></clipPath><clipPath id="clip-path-15"><polygon class="cls-1" points="-92.43 75.23 -72.03 75.23 -72.03 82.66 -82.23 82.66 -82.23 83.97 -86.91 83.97 -86.91 82.66 -92.43 82.66 -92.43 75.23"/></clipPath><clipPath id="clip-path-16"><polygon class="cls-1" points="-90.25 81.78 -88.42 81.78 -88.42 78.07 -87.33 78.07 -87.33 81.78 -86.6 81.78 -86.6 76.68 -90.25 76.68 -90.25 81.78"/></clipPath><clipPath id="clip-path-17"><path class="cls-1" d="M-82.23,80h-1.09V77.93h1.09Zm-2.92-3.33v5.83h1.83V81.26h1.82V76.68Z"/></clipPath><clipPath id="clip-path-18"><polygon class="cls-1" points="-80.77 76.68 -80.77 81.78 -78.72 81.78 -78.72 78.07 -77.5 78.07 -77.5 81.78 -76.27 81.78 -76.27 78.07 -75.04 78.07 -75.04 81.78 -74.22 81.78 -74.22 76.68 -80.77 76.68"/></clipPath><clipPath id="clip-path-19"><path class="cls-1" d="M-9.6,78.48v2.76A1.38,1.38,0,0,1-11,82.63h-2.77a1.38,1.38,0,0,1-1.38-1.39V78.48a1.38,1.38,0,0,1,1.38-1.39H-11A1.38,1.38,0,0,1-9.6,78.48Zm-7.38,0v2.76a1.38,1.38,0,0,1-1.38,1.39h-2.77a1.38,1.38,0,0,1-1.38-1.39V78.48a1.38,1.38,0,0,1,1.38-1.39h2.77A1.38,1.38,0,0,1-17,78.48Zm-7.37,0v2.76a1.39,1.39,0,0,1-1.39,1.39H-28.5a1.39,1.39,0,0,1-1.39-1.39V78.48a1.39,1.39,0,0,1,1.39-1.39h2.76A1.39,1.39,0,0,1-24.35,78.48Z"/></clipPath><clipPath id="clip-path-20"><path class="cls-1" d="M19.08,83.75h-3.7V77.9H19V79H16.7V80.2h2.13v1.08H16.7v1.39h2.38v1.08Zm-.3,4.87H6V84.84H18.78ZM5.54,83.75V77.9H9.11V79H6.85V80.2H9v1.08H6.85v1.39H9.23v1.08ZM9.75,77.9h1.5L11.76,79c.17.35.3.64.44,1h0c.13-.37.24-.64.39-1l.49-1.07h1.49L13,80.76l1.72,3H13.17l-.53-1.06c-.21-.4-.35-.71-.51-1h0c-.12.34-.26.65-.44,1l-.48,1.06H9.69l1.68-3ZM6,70.4h9v4a.39.39,0,0,0,.39.39h3.42v2H6Zm14,6.37h-.47V74.41a.4.4,0,0,0-.1-.26l-3.81-4.4h0l-.08-.06,0,0-.08,0H6a.78.78,0,0,0-.78.79v6.37H4.75a1.12,1.12,0,0,0-1.11,1.12v5.83a1.12,1.12,0,0,0,1.11,1.12h.47v4a.78.78,0,0,0,.78.78H18.78a.78.78,0,0,0,.78-.78v-4H20a1.11,1.11,0,0,0,1.11-1.12V77.89A1.11,1.11,0,0,0,20,76.77Z"/></clipPath></defs><title>ruby_icon</title><rect class="cls-1" x="-523.87" y="-964.53" width="1366" height="2644"/><polygon class="cls-16" points="8.16 20.15 19.21 19.4 20.1 8.21 16.75 15.08 8.16 20.15"/><polygon class="cls-17" points="15.7 16.27 19.28 19.4 18.31 12.84 15.7 16.27"/><polygon class="cls-18" points="8.24 20.15 19.28 19.4 12.27 18.88 8.24 20.15"/><polygon class="cls-19" points="6.15 15.22 8.24 20.15 9.95 14.4 6.15 15.22"/><polygon class="cls-20" points="9.51 14.26 15.7 16.27 14.13 10 9.51 14.26"/><polygon class="cls-21" points="14.21 10.45 19.73 10.08 15.4 6.57 14.21 10.45"/><polygon class="cls-22" points="13.54 5.3 17.71 5.3 15.18 6.72 13.54 5.3"/><polygon class="cls-23" points="5.33 12.91 5.1 17.17 6.22 15.22 5.33 12.91"/><path class="cls-24" d="M5.25,12.84l.9,2.46,3.8-.82,4.33-4,1.2-3.88L13.54,5.23,10.25,6.42c-1,1-3,2.84-3.06,2.91S5.85,11.72,5.25,12.84Z"/><path class="cls-25" d="M8.31,8.43c2.24-2.23,5.08-3.5,6.2-2.38s-.08,3.8-2.32,6-5.07,3.58-6.12,2.46S6.07,10.6,8.31,8.43Z"/><path class="cls-26" d="M8.24,20.15,10,14.4l5.75,1.87C13.61,18.21,11.3,19.85,8.24,20.15Z"/><path class="cls-27" d="M14.21,10.45l1.49,5.82a16.24,16.24,0,0,0,4-6.19Z"/><path class="cls-28" d="M19.73,10.08c.6-1.79.75-4.33-2.09-4.78L15.33,6.57Z"/><path class="cls-29" d="M5.1,17.17c.08,2.91,2.17,3,3.14,3L6.15,15.3Z"/><path class="cls-30" d="M14.21,10.45c1.34.82,4,2.46,4.1,2.46a10.26,10.26,0,0,0,1.42-2.83Z"/><path class="cls-31" d="M10,14.4l2.32,4.48a15.28,15.28,0,0,0,3.43-2.61Z"/><path class="cls-32" d="M6.15,15.3l-.3,3.88A2.42,2.42,0,0,0,8.24,20C7.49,18.43,6.22,15.23,6.15,15.3Z"/><path class="cls-33" d="M15.4,6.57,20,7.24A2.49,2.49,0,0,0,17.64,5.3Z"/><rect class="cls-1" x="-815.48" y="-1094.11" width="1366" height="3311"/><path class="cls-3" d="M11.44,45.74,8.51,48.67a.24.24,0,0,1-.35,0L7.5,48a.24.24,0,0,1,0-.35l2.1-2.1L7.5,43.47a.25.25,0,0,1,0-.36l.66-.65a.24.24,0,0,1,.35,0l2.93,2.93A.24.24,0,0,1,11.44,45.74Z"/><g class="cls-34"><rect class="cls-3" x="-548.64" y="-303.46" width="742.75" height="1800.34"/></g><rect class="cls-3" x="12.42" y="46.98" width="5.55" height="1.51" rx="0.38"/><g class="cls-35"><rect class="cls-3" x="-547.64" y="-303.46" width="742.75" height="1800.34"/></g><rect class="cls-1" x="-573.89" y="-1020.39" width="1366" height="3024"/></svg>