<svg id="Layer_1" data-name="Layer 1" xmlns="http://www.w3.org/2000/svg" xmlns:xlink="http://www.w3.org/1999/xlink" viewBox="0 0 25 25"><defs><style>.cls-1,.cls-2,.cls-4{fill:none;}.cls-2{clip-rule:evenodd;}.cls-3{fill:#fff;}.cls-4{fill-rule:evenodd;}.cls-5{clip-path:url(#clip-path);}.cls-6{clip-path:url(#clip-path-2);}.cls-7{clip-path:url(#clip-path-3);}.cls-8{clip-path:url(#clip-path-4);}.cls-9{clip-path:url(#clip-path-5);}.cls-10{clip-path:url(#clip-path-6);}.cls-11{clip-path:url(#clip-path-7);}.cls-12{clip-path:url(#clip-path-8);}.cls-13{clip-path:url(#clip-path-9);}.cls-14{clip-path:url(#clip-path-10);}.cls-15{clip-path:url(#clip-path-11);}.cls-16{clip-path:url(#clip-path-12);}.cls-17{clip-path:url(#clip-path-13);}.cls-18{clip-path:url(#clip-path-14);}.cls-19{clip-path:url(#clip-path-15);}.cls-20{clip-path:url(#clip-path-16);}.cls-21{clip-path:url(#clip-path-17);}.cls-22{clip-path:url(#clip-path-18);}.cls-23{clip-path:url(#clip-path-19);}.cls-24{clip-path:url(#clip-path-20);}.cls-25{clip-path:url(#clip-path-21);}.cls-26{clip-path:url(#clip-path-22);}.cls-27{clip-path:url(#clip-path-23);}.cls-28{fill:#222020;}.cls-29{clip-path:url(#clip-path-24);}.cls-30{clip-path:url(#clip-path-26);}.cls-31{clip-path:url(#clip-path-28);}.cls-32{clip-path:url(#clip-path-30);}.cls-33{isolation:isolate;}.cls-34{clip-path:url(#clip-path-32);}.cls-35{clip-path:url(#clip-path-33);}.cls-36{fill:#88c533;}.cls-37{clip-path:url(#clip-path-37);}.cls-38{clip-path:url(#clip-path-38);}.cls-39{clip-path:url(#clip-path-39);}.cls-40{clip-path:url(#clip-path-40);}.cls-41{clip-path:url(#clip-path-41);}.cls-42{clip-path:url(#clip-path-42);}.cls-43{clip-path:url(#clip-path-43);}.cls-44{clip-path:url(#clip-path-44);}.cls-45{clip-path:url(#clip-path-45);}.cls-46{clip-path:url(#clip-path-46);}.cls-47{clip-path:url(#clip-path-47);}.cls-48{clip-path:url(#clip-path-48);}.cls-49{clip-path:url(#clip-path-49);}.cls-50{clip-path:url(#clip-path-50);}.cls-51{clip-path:url(#clip-path-51);}.cls-52{clip-path:url(#clip-path-52);}</style><clipPath id="clip-path"><rect class="cls-1" x="-61.03" y="806.75" width="19.26" height="20"/></clipPath><clipPath id="clip-path-2"><path class="cls-1" d="M-137.84-144.09a2.06,2.06,0,0,0-2.26,2c0,1.26.74,1.85,1.85,2.33l.39.16c.7.31,1.05.5,1.05,1s-.33.76-1,.76-1.13-.52-1.46-1.06l-1.21.81a2.81,2.81,0,0,0,2.7,1.62c1.47,0,2.56-.76,2.56-2.15s-.74-1.87-2.05-2.43l-.39-.16c-.66-.29-1-.48-1-.94a.67.67,0,0,1,.74-.66,1,1,0,0,1,1,.66l1.21-.77A2.28,2.28,0,0,0-137.84-144.09Zm-5,0V-139c0,.78-.3,1-.81,1a1.34,1.34,0,0,1-1.16-.77l-1.27.77a2.84,2.84,0,0,0,2.53,1.62,2.12,2.12,0,0,0,2.33-2.36v-5.33Zm-6.61-6.88h14.84a.27.27,0,0,1,.27.27v14.84a.27.27,0,0,1-.27.27h-14.84a.27.27,0,0,1-.27-.27V-150.7A.27.27,0,0,1-149.49-151Zm0-.81a1.09,1.09,0,0,0-1.08,1.08v14.84a1.09,1.09,0,0,0,1.08,1.08h14.84a1.09,1.09,0,0,0,1.08-1.08V-150.7a1.09,1.09,0,0,0-1.08-1.08Z"/></clipPath><clipPath id="clip-path-3"><path class="cls-2" d="M-111.69-143.12l-.31-.49c-.1-.16-.2-.33-.29-.51a5,5,0,0,1-.47-1.16,2,2,0,0,1,.63-1.72,1.92,1.92,0,0,1,.18-.22c.4-.45.93-1,1.35-1.44a2.6,2.6,0,0,0,.74-1.71c0-.39,0-1.21-.29-1.36a2.84,2.84,0,0,1-.13,1.55,3.43,3.43,0,0,1-1.12,1.49c-.38.32-1,.91-1.34,1.26a3.49,3.49,0,0,0-.72,1,1.39,1.39,0,0,0,.24,1.35c.11.19.22.35.34.52s.27.34.38.5.27.32.4.48.33.39.41.45"/></clipPath><clipPath id="clip-path-4"><path class="cls-2" d="M-106.39-138.09c.16.2,0,.29-.23.37a29.16,29.16,0,0,1-5.46.43,22.71,22.71,0,0,1-3.21-.16c-.17,0-.92-.11-.95-.26s.11-.16.18-.19a3.7,3.7,0,0,1,1-.24,3.13,3.13,0,0,0,.36-.05,4.75,4.75,0,0,0-2.46.53c-.22.24.15.35.4.41a22.14,22.14,0,0,0,3.86.28c1.52,0,5.17,0,6.5-.69.08,0,.24-.12.25-.2s-.14-.2-.22-.23"/></clipPath><clipPath id="clip-path-5"><path class="cls-2" d="M-110.53-141.89a4,4,0,0,0,.81-.58,1.5,1.5,0,0,0,.5-.89,1.87,1.87,0,0,0-.37-1c-.47-.69-.85-1.09-.21-1.86a4.66,4.66,0,0,1,.72-.68,13,13,0,0,1,1.25-.85l.43-.27a8,8,0,0,0-1.08.35,6.81,6.81,0,0,0-1,.46c-1,.54-1.93,1.39-1.54,2.56.26.8,1,1.27,1,1.87,0,.36-.4.73-.51.91"/></clipPath><clipPath id="clip-path-6"><path class="cls-2" d="M-108.63-138.69a6.06,6.06,0,0,1-.86-.38c-.17-.08-.1-.07-.32,0a16.36,16.36,0,0,1-3.22.16c-.24,0-.9,0-1-.21s0-.21.08-.28c-.61.11-1.22.54-.38.89a9.44,9.44,0,0,0,4,.25,15.19,15.19,0,0,0,1.77-.4"/></clipPath><clipPath id="clip-path-7"><path class="cls-2" d="M-108.63-139.9a1.39,1.39,0,0,1-.55-.31c-.12-.1-.08-.08-.33,0-.92.15-3.63.41-4.41.09-.1,0-.22-.1-.22-.22s.11-.21.16-.29c-.63.08-1.23.67-.39,1a12.32,12.32,0,0,0,4,.2,10.09,10.09,0,0,0,1.76-.4"/></clipPath><clipPath id="clip-path-8"><path class="cls-2" d="M-107.4-142.59a3.19,3.19,0,0,0-.42.05l-.44,0c-.89.11-1.88.19-2.78.23-.69,0-3.33.11-3.72-.19,0-.14.16-.23.28-.28a8,8,0,0,1,1.37-.38,7.52,7.52,0,0,0-2.71.61c-.61.31.4.43.77.48a27.27,27.27,0,0,0,6.45-.14,1.54,1.54,0,0,0,.67-.15c.17-.09.38-.19.53-.28"/></clipPath><clipPath id="clip-path-9"><path class="cls-2" d="M-114.78-136.13a14.43,14.43,0,0,0,2.52.36,25.16,25.16,0,0,0,2.88,0,12.67,12.67,0,0,0,3.69-.6c.26-.11.71-.35.75-.58a1.13,1.13,0,0,0-.21.12c-1.87,1-6.14.92-8.34.8l-1.29-.09"/></clipPath><clipPath id="clip-path-10"><path class="cls-2" d="M-107-142.82a1.2,1.2,0,0,1,1.23.24,1.34,1.34,0,0,1,.09,1.4,4.68,4.68,0,0,1-1.42,1.57l-.25.18a4.66,4.66,0,0,0,1.41-.67,2.56,2.56,0,0,0,1-1.21,1.35,1.35,0,0,0-.5-1.58,1.32,1.32,0,0,0-.8-.23,1.09,1.09,0,0,0-.73.3"/></clipPath><clipPath id="clip-path-11"><path class="cls-1" d="M-81.82-149.11a.67.67,0,0,1,.64.69.67.67,0,0,1-.64.68.67.67,0,0,1-.65-.68A.67.67,0,0,1-81.82-149.11ZM-80-150.2a9.4,9.4,0,0,0-1.65.14c-1.45.27-1.72.83-1.72,1.86v1.36h3.45v.46h-4.74a2.16,2.16,0,0,0-2.15,1.81,6.88,6.88,0,0,0,0,3.63c.24,1.06.83,1.81,1.83,1.81h1.18v-1.63A2.23,2.23,0,0,1-81.61-143h3.44a1.78,1.78,0,0,0,1.73-1.82v-3.4a2,2,0,0,0-1.73-1.86A10.8,10.8,0,0,0-80-150.2Z"/></clipPath><clipPath id="clip-path-12"><path class="cls-1" d="M-77.91-137.72a.66.66,0,0,1,.64.67.67.67,0,0,1-.64.68.67.67,0,0,1-.65-.68A.66.66,0,0,1-77.91-137.72Zm1.93-8.56v1.58a2.24,2.24,0,0,1-2.15,2.25h-3.43a1.78,1.78,0,0,0-1.72,1.8v3.38c0,1,.81,1.52,1.72,1.8a5.57,5.57,0,0,0,3.43,0c.87-.26,1.72-.78,1.72-1.8v-1.36h-3.43v-.45h5.15c1,0,1.37-.71,1.72-1.79a6.31,6.31,0,0,0,0-3.61c-.25-1-.72-1.8-1.72-1.8Z"/></clipPath><clipPath id="clip-path-13"><path class="cls-3" d="M-47.68-110l-2.93,2.93a.24.24,0,0,1-.35,0l-.66-.66a.24.24,0,0,1,0-.35l2.1-2.1-2.1-2.09a.25.25,0,0,1,0-.36l.66-.65a.24.24,0,0,1,.35,0l2.93,2.93A.24.24,0,0,1-47.68-110Z"/></clipPath><clipPath id="clip-path-14"><rect class="cls-3" x="-46.7" y="-108.75" width="5.55" height="1.51" rx="0.38"/></clipPath><clipPath id="clip-path-15"><polygon class="cls-1" points="-151.55 -80.5 -131.15 -80.5 -131.15 -73.07 -141.35 -73.07 -141.35 -71.76 -146.02 -71.76 -146.02 -73.07 -151.55 -73.07 -151.55 -80.5"/></clipPath><clipPath id="clip-path-16"><polygon class="cls-1" points="-149.36 -73.95 -147.54 -73.95 -147.54 -77.66 -146.45 -77.66 -146.45 -73.95 -145.72 -73.95 -145.72 -79.05 -149.36 -79.05 -149.36 -73.95"/></clipPath><clipPath id="clip-path-17"><path class="cls-1" d="M-141.35-75.71h-1.09V-77.8h1.09ZM-144.26-79v5.83h1.82v-1.25h1.82V-79Z"/></clipPath><clipPath id="clip-path-18"><polygon class="cls-1" points="-139.89 -79.05 -139.89 -73.95 -137.84 -73.95 -137.84 -77.66 -136.61 -77.66 -136.61 -73.95 -135.38 -73.95 -135.38 -77.66 -134.16 -77.66 -134.16 -73.95 -133.34 -73.95 -133.34 -79.05 -139.89 -79.05"/></clipPath><clipPath id="clip-path-19"><path class="cls-1" d="M-68.72-77.25v2.77A1.38,1.38,0,0,1-70.1-73.1h-2.77a1.38,1.38,0,0,1-1.38-1.38v-2.77a1.38,1.38,0,0,1,1.38-1.38h2.77A1.38,1.38,0,0,1-68.72-77.25Zm-7.37,0v2.77a1.38,1.38,0,0,1-1.39,1.38h-2.76a1.38,1.38,0,0,1-1.39-1.38v-2.77a1.38,1.38,0,0,1,1.39-1.38h2.76A1.38,1.38,0,0,1-76.09-77.25Zm-7.38,0v2.77a1.38,1.38,0,0,1-1.38,1.38h-2.77A1.38,1.38,0,0,1-89-74.48v-2.77a1.38,1.38,0,0,1,1.38-1.38h2.77A1.38,1.38,0,0,1-83.47-77.25Z"/></clipPath><clipPath id="clip-path-20"><path class="cls-1" d="M-40-72h-3.69v-5.86h3.57v1.09h-2.26v1.21h2.13v1.08h-2.13v1.39H-40V-72Zm-.29,4.86H-53.12v-3.78h12.79ZM-53.58-72v-5.86H-50v1.09h-2.26v1.21h2.13v1.08h-2.13v1.39h2.38V-72Zm4.21-5.86h1.51l.5,1.07c.18.35.3.64.44,1h0c.14-.37.25-.63.39-1l.49-1.07h1.5L-46.16-75l1.72,3h-1.51L-46.47-73c-.22-.41-.35-.72-.52-1.06h0c-.12.34-.27.65-.45,1.06L-47.93-72h-1.5l1.68-3Zm-3.75-7.5h9v4a.38.38,0,0,0,.38.39h3.43v2H-53.12Zm14,6.37h-.48v-2.36a.43.43,0,0,0-.09-.26L-43.46-86h0a.46.46,0,0,0-.07-.07h0l-.08,0h0l-.09,0h-9.36a.78.78,0,0,0-.77.79V-79h-.48a1.12,1.12,0,0,0-1.11,1.12V-72a1.12,1.12,0,0,0,1.11,1.12h.48v4a.77.77,0,0,0,.77.78h12.79a.78.78,0,0,0,.77-.78v-4h.48A1.11,1.11,0,0,0-38-72v-5.83A1.11,1.11,0,0,0-39.08-79Z"/></clipPath><clipPath id="clip-path-21"><path class="cls-1" d="M-15.9,15.52a1,1,0,0,0-1,1h2A1,1,0,0,0-15.9,15.52Zm0-1.2A2.45,2.45,0,0,1-13.28,17v.49h-3.64v.09a1,1,0,0,0,1.06,1.15,1,1,0,0,0,1-.49h1.56A2.35,2.35,0,0,1-15.9,20a2.51,2.51,0,0,1-2.71-2.8C-18.57,15.38-17.59,14.32-15.9,14.32Zm-7.29-1.83c1.65,0,2.8.89,2.85,2.23H-22a1.07,1.07,0,0,0-1.16-.85c-.62,0-1.07.31-1.07.76s.32.62,1.07.75l.93.18c1.43.27,2.05.89,2.05,2,0,1.46-1.11,2.35-3,2.35s-2.93-.84-3-2.22h1.74c0,.53.57.84,1.29.84s1.15-.31,1.15-.8-.31-.62-1.11-.75l-.93-.18c-1.29-.27-2-1-2-2.09C-26,13.38-24.92,12.49-23.19,12.49Zm-3.64-9.91a1.81,1.81,0,0,0-1.83,1.83V20.76a1.8,1.8,0,0,0,1.83,1.82h16.35a1.8,1.8,0,0,0,1.82-1.82V4.49l-6.8,6.85-4.62-4.62,1.91-1.91,2.67,2.66,4.89-4.89Z"/></clipPath><clipPath id="clip-path-22"><path class="cls-2" d="M19.63,10.49,20.7,10a.16.16,0,0,1,.15,0,1.82,1.82,0,0,1,.49.75s0,0,0,0c.2-.39,1.44-2.41,2.93-2.7a11.31,11.31,0,0,0-1.49,1.73,16.57,16.57,0,0,0-1,1.87.25.25,0,0,1-.2.15H20.35a.11.11,0,0,1-.1-.1,1.5,1.5,0,0,0-.65-1.19,0,0,0,0,1,0,0"/></clipPath><clipPath id="clip-path-23"><rect class="cls-1" x="-300.87" y="-407.7" width="1104.9" height="2486.44"/></clipPath><clipPath id="clip-path-24"><path class="cls-2" d="M1.2,15.54l-.35.75A.15.15,0,0,0,1,16.5H5.24a.5.5,0,0,0,.44-.28l.7-1.39a.12.12,0,0,0-.09-.18h-2a.14.14,0,0,1-.12-.18l.44-1a.3.3,0,0,1,.29-.21h.23a.11.11,0,0,1,.09.18l-.25.5a.15.15,0,0,0,.12.21H6.48a.51.51,0,0,0,.41-.26l.5-.92a.15.15,0,0,0-.11-.23H2.93a.43.43,0,0,0-.39.26l-.91,1.77a.13.13,0,0,0,.09.21H4.17a.12.12,0,0,1,.09.18L3.82,16s0,.06-.06.06H3.14A.09.09,0,0,1,3.07,16l.25-.46a.1.1,0,0,0-.09-.16H1.52c-.14,0-.25.08-.32.21"/></clipPath><clipPath id="clip-path-26"><path class="cls-2" d="M8.24,13.44l-.59,1a.12.12,0,0,0,.11.18H9.49a.52.52,0,0,0,.41-.22l.3-.53a.49.49,0,0,1,.36-.21h0a.15.15,0,0,1,.12.19l-.41.8a.5.5,0,0,1-.45.25H7.36L6.48,16.3a.14.14,0,0,0,.12.2h4.29a.51.51,0,0,0,.43-.25l1.59-2.83a.15.15,0,0,0-.12-.21H8.62a.57.57,0,0,0-.38.23m1.13,2.65H9.23a.14.14,0,0,1-.12-.2l.22-.44a.38.38,0,0,1,.31-.18.2.2,0,0,1,.18.3l-.18.34a.29.29,0,0,1-.27.18M15.06,11l-.07.14L12.08,16.3a.14.14,0,0,0,.11.2h1.66a.37.37,0,0,0,.33-.18l1.59-2.58a.5.5,0,0,1,.4-.23.18.18,0,0,1,.17.25L14.92,16.3a.14.14,0,0,0,.14.2H16.6a.59.59,0,0,0,.48-.27l1.25-2.31.29-.55s.14-.27-.05-.27H16.36s-.09-.07-.07-.11l.24-.44a.57.57,0,0,0,0-.55,5,5,0,0,0-.83-1.09c-.14,0-.48-.12-.62.13"/></clipPath><clipPath id="clip-path-28"><path class="cls-2" d="M19.48,12.84l-1.73,3.37a.2.2,0,0,0,.14.29h1.82a.13.13,0,0,0,.14-.1L21.46,13a.17.17,0,0,0-.14-.26H19.64c-.09,0-.14,0-.16.08"/></clipPath><clipPath id="clip-path-30"><rect class="cls-1" x="19.68" y="8.06" width="4.6" height="3.69"/></clipPath><clipPath id="clip-path-32"><rect class="cls-1" x="19.44" y="8.06" width="4.85" height="4.04"/></clipPath><clipPath id="clip-path-33"><path class="cls-2" d="M19.7,10.46,20.75,10a.16.16,0,0,1,.15,0,1.86,1.86,0,0,1,.48.74,0,0,0,1,0,0,0c.19-.38,1.41-2.37,2.87-2.66a11.53,11.53,0,0,0-1.46,1.7,15.51,15.51,0,0,0-.95,1.85.24.24,0,0,1-.2.14H20.41a.11.11,0,0,1-.1-.09,1.51,1.51,0,0,0-.63-1.18,0,0,0,0,1,0,0"/></clipPath><clipPath id="clip-path-37"><path class="cls-2" d="M-147.69,57.39a1.92,1.92,0,0,1-.93-.24,2,2,0,0,1-1-1.77v-8a2,2,0,0,1,2-2,2,2,0,0,1,2,2v4.26l6.31-4.26-9.38-6.34a2,2,0,0,1-.55-2.77,2,2,0,0,1,2.74-.56l11.85,8a2,2,0,0,1,.87,1.67,2,2,0,0,1-.87,1.66l-11.84,8a2,2,0,0,1-1.1.34"/></clipPath><clipPath id="clip-path-38"><rect class="cls-1" x="-90.39" y="37.35" width="20.49" height="20"/></clipPath><clipPath id="clip-path-39"><path class="cls-2" d="M-78.42,55.76l-.33,0H-79c.08-.18.14-.33.19-.43l.37.38"/></clipPath><clipPath id="clip-path-40"><path class="cls-2" d="M-78.55,47.5a5.77,5.77,0,0,1-.54.37l-.63.37a7.19,7.19,0,0,0-.75.15l0,0a.1.1,0,0,0-.06.08l-.64,2.06-3.4.74-1.07-.73L-86,48.07c.61-.11,1.42-.23,2.4-.34a4.08,4.08,0,0,0-.31.39l-.58.82.85-.56a12.57,12.57,0,0,1,1.43-.78c1-.07,1.93-.11,2.89-.11Zm-5.3,2.8a2,2,0,0,1,.95-.11h.27c.44,0,.8,0,.8-.65s-.32-1.23-.76-1.22-.86.56-.84,1.24a1.15,1.15,0,0,0,.08.39.73.73,0,0,0-.5.35Zm11.19-2.24L-73,50.18l-1.08.74-3.39-.38-.64-2a.15.15,0,0,0-.09-.1,6.86,6.86,0,0,0-.89-.16H-79a14.09,14.09,0,0,0,2.64-.63C-74.79,47.72-73.53,47.91-72.66,48.06Zm-2.17,2s-.1-.29-.51-.24a.87.87,0,0,0,.06-.43c-.06-.68-.46-1.22-.9-1.2s-.72.58-.7,1.26.4.67.84.66C-75.45,50.06-75.13,49.88-74.83,50Z"/></clipPath><clipPath id="clip-path-41"><path class="cls-2" d="M-76,49c0,.21-.1.39-.22.39s-.23-.16-.23-.38h0c0-.22.09-.4.22-.4h0c.12,0,.22.17.23.38h0m-6.31.28c0,.22-.09.4-.21.41s-.23-.17-.23-.39h0c0-.21.09-.39.21-.4h0c.13,0,.23.17.23.38"/></clipPath><clipPath id="clip-path-42"><path class="cls-2" d="M-71.18,49a4.12,4.12,0,0,0-.4-.23l-.29,2a.15.15,0,0,1-.06.1l-.41.28a.5.5,0,0,1,0,.12,1.2,1.2,0,0,0,1-.39,8.3,8.3,0,0,0,.22-1.18c0-.51,0-.61-.05-.66m-6.29,7.46a2,2,0,0,1-.72-.45l0,0a4,4,0,0,1-.5.07h-.36a2,2,0,0,1-1,.68,6.2,6.2,0,0,0,2.64-.26m-8.7-4.81a.29.29,0,0,0,0-.09l-.53-.36a.13.13,0,0,1-.06-.1L-87,49a4.41,4.41,0,0,0-.47.27s-.09.15,0,.64a8.39,8.39,0,0,0,.3,1.36,1.43,1.43,0,0,0,1.07.34m7.91-.09a.15.15,0,0,1-.12-.1L-79,49.33l-.29,0-.29,0-.63,2.06a.14.14,0,0,1-.11.09l-.3.07c0,.11-.11.26-.4.35a32.65,32.65,0,0,1-3.65.93,3.25,3.25,0,0,1-.83-.38c-.1-.25-.16-.42-.18-.46h0a9.38,9.38,0,0,0,1.18,2.21l1.74-.53c.46-.7,1.12-1.39,1.58-1.41H-81c.23,0,.44,0,.65,0a.75.75,0,0,1-.23-.41,2,2,0,0,0,1.34.36A2.43,2.43,0,0,0-78,51.71v-.13l-.3,0"/></clipPath><clipPath id="clip-path-43"><path class="cls-2" d="M-77.65,51.82a.68.68,0,0,1-.31-.17v.06a.75.75,0,0,1-.33.56A4.36,4.36,0,0,1-77.23,52a.52.52,0,0,1,.38.15l0,0,1.25,1,1.22.13c.23,0,.44,0,.64,0h.18A10.71,10.71,0,0,0-72.93,52a4.12,4.12,0,0,1-1,.56,34,34,0,0,1-3.7-.77"/></clipPath><clipPath id="clip-path-44"><path class="cls-2" d="M-70.33,44.41a1.5,1.5,0,0,0,0-.2.68.68,0,0,0,0-.14,3.82,3.82,0,0,0-.61-.41,6.24,6.24,0,0,0-.73-.37c-.25-.12-.51-.22-.77-.32a2.26,2.26,0,0,0-.39-.15l-.39-.15c.28,0,.55.11.82.18a4.61,4.61,0,0,1,.53.15,8.09,8.09,0,0,0-7.45-5.27A8.07,8.07,0,0,0-86.8,43a5.08,5.08,0,0,1,.52-.15c.28-.07.55-.13.83-.18l-.4.15a3.12,3.12,0,0,0-.39.15c-.25.1-.51.2-.76.32a6.24,6.24,0,0,0-.73.37,3.82,3.82,0,0,0-.61.41l0,.14a1.23,1.23,0,0,1,0,.2c0,.14,0,.28,0,.41a5.55,5.55,0,0,0,.06.82,4.36,4.36,0,0,0,.16.8,3,3,0,0,0,.13.39L-88,47l0,.09v0l.07,0,.12.06.24.11h0l-.22-.86s.48-.12,1.23-.27l-.18,0-.51-.16-.23-.11a1.16,1.16,0,0,1-.21-.16,13.18,13.18,0,0,0,4,0,41.26,41.26,0,0,1,4.16-.23,41.26,41.26,0,0,1,4.16.23,13.19,13.19,0,0,0,4,0,1.66,1.66,0,0,1-.21.16l-.24.11-.5.16h-.08c.83.15,1.3.28,1.35.29l-.21.82.13-.06.12-.06.06,0,0,0,0-.09a1.42,1.42,0,0,0,.08-.18c.05-.13.09-.26.13-.39a7.08,7.08,0,0,0,.16-.8,4.46,4.46,0,0,0,0-.82,2.88,2.88,0,0,0,0-.41"/></clipPath><clipPath id="clip-path-45"><path class="cls-2" d="M-75.95,42.83a5.89,5.89,0,0,1-.17,1.64.22.22,0,0,0,0,.08l-.66-.06a3.41,3.41,0,0,0,.31-1.25,6.31,6.31,0,0,0,.52-.41m-6.3.41a3.45,3.45,0,0,0,.32,1.24l-.66.06v-.07a5.19,5.19,0,0,1-.17-1.64,4.78,4.78,0,0,0,.51.41m9,1.81v0l.07,0c.21.07.41.14.6.22a2.23,2.23,0,0,1-.64-1.26,4.74,4.74,0,0,1,0,1M-83,42.71l-2.1.59a7,7,0,0,0-.06,1.63h0a6.64,6.64,0,0,1,.2-1.22c.08-.17.52-.28.85-.36s.87-.24,1,.23a2.84,2.84,0,0,0,.24.7A6.49,6.49,0,0,1-83,42.71m7.36,0a5.88,5.88,0,0,1-.13,1.65,3,3,0,0,0,.28-.78c.1-.47.64-.31,1-.23s.77.19.84.36a5.61,5.61,0,0,1,.21,1.16,6.76,6.76,0,0,0-.08-1.57l-2.1-.59m-6.58.18.23.17a.17.17,0,0,1,.06.11,3.16,3.16,0,0,0,.32,1.27v0c.76-.05,1.52-.07,2.28-.07s1.53,0,2.29.07v0a3.16,3.16,0,0,0,.32-1.27.14.14,0,0,1,.06-.11l.22-.16v0a10.21,10.21,0,0,0-.32-3.62c0,.47-.12,4.54-1.15,4.54h-2.82c-1.09,0-1.18-4.59-1.18-4.59l-.06.17a10.35,10.35,0,0,0-.28,3.52m-3.2,2.18v0a6.52,6.52,0,0,1,0-1,2.24,2.24,0,0,1-.65,1.26c.2-.09.4-.15.6-.22l.08,0"/></clipPath><clipPath id="clip-path-46"><path class="cls-2" d="M-72.36,51.22l-.06.27a2.8,2.8,0,0,0,.8.06,2.18,2.18,0,0,0,.27-.72,1.2,1.2,0,0,1-1,.39m-8.36,5.62A5,5,0,0,0-79,57,6.84,6.84,0,0,0-77,56.55a1.71,1.71,0,0,1-.5-.1,6.2,6.2,0,0,1-2.64.26,3.06,3.06,0,0,1-.49.11l-.12,0m-5.41-5.07a.65.65,0,0,0,0-.13,1.43,1.43,0,0,1-1.07-.34,2.11,2.11,0,0,0,.24.56,2.9,2.9,0,0,0,.87-.09m.6.68a3.25,3.25,0,0,0,.83.38A32.65,32.65,0,0,0-81,51.9a.53.53,0,0,0,.4-.35l-4.15.91h0l-.08,0-.16-.11-.49-.34h0l-.19-.13v0l0,.1h0s.08.21.18.46m12.72-.79c0-.09,0-.19.08-.29l-.15.1-.38.27-.42.29-.08,0h0L-78,51.58v.07a.67.67,0,0,0,.32.17,33.37,33.37,0,0,0,3.69.77,4.12,4.12,0,0,0,1-.56h0l.12-.36"/></clipPath><clipPath id="clip-path-47"><path class="cls-2" d="M-77.23,46.13l-.1.13a9.7,9.7,0,0,1-.8.87l-1.17,0c-.66,0-1.3,0-1.9,0a15,15,0,0,1,3-.89c.33-.06.66-.11,1-.14m-5,.37a7.33,7.33,0,0,0-1,.81c-.74.07-1.47.16-2.21.28a16.8,16.8,0,0,1,3.19-1.09m10.41,1.73-.34,2.39-1.66,1.15-4.33-.49-.66-2.11a.14.14,0,0,0-.11-.1,2.27,2.27,0,0,0-.42,0,2.27,2.27,0,0,0-.42,0,.15.15,0,0,0-.12.1l-.63,2.06-4.31.94L-86.51,51l-.33-2.68.22-.12.36-.08.31,2.53a.17.17,0,0,0,.06.1l1.18.81.08,0h0l3.54-.77,0,0a.11.11,0,0,0,.07-.08l.64-2.07a4.63,4.63,0,0,1,1-.14,4.73,4.73,0,0,1,1,.14l.64,2.07a.17.17,0,0,0,.12.1l3.54.39a.12.12,0,0,0,.1,0l1.17-.81a.11.11,0,0,0,.06-.09l.32-2.16.58.11m.44-1.49-.3,1.13a34.25,34.25,0,0,0-3.86-.57,9.88,9.88,0,0,0,1.8-1c1.1.15,1.92.32,2.36.42m-15.88,0,.08.31c.21-.16.42-.32.64-.46-.3,0-.54.11-.72.15"/></clipPath><clipPath id="clip-path-48"><path class="cls-2" d="M-75.28,46.1l-1.4-.07-.16.23a9.06,9.06,0,0,1-1.38,1.46,11,11,0,0,0,3.32-1.6l-.38,0M-78.7,46h-1.76l-.64.3h0a7.62,7.62,0,0,0-1.73,1.21l.22-.11A10.83,10.83,0,0,1-79.23,46h.53m-4,.08-.89,0-1,.07-.51,0-.15,0a14.12,14.12,0,0,0-3.34,2.71l.06-.07a13.51,13.51,0,0,1,5.86-2.81m9.87,7.53,0,0a1.84,1.84,0,0,1-.88.17c-.22,0-.44,0-.68,0-.48,0-1.29-.14-1.3-.14h-.06l0,0s-.71-.56-1.29-1l-.06,0c-.06,0-.06,0-.1,0a12.74,12.74,0,0,0-1.89.52l-.07,0-.07,0a5.2,5.2,0,0,0-1.7-.29h-.22c-.1,0-.61.25-1.28,1.28l0,.06-.08,0s-1.15.36-2.36.7l-.07,0-.08,0-.93-.42.1,0c.45.38,1.3,1.11,1.39,1.21l0,.05-.06-.07h0a2.26,2.26,0,0,0,.65.46,1.77,1.77,0,0,0,.37.12h.39l.81-.06.8-.08.8-.11.39-.06.18-.06.15-.1.29-.27.28-.29c.16-.16.29-.33.44-.5l.06-.06h0l.1.07c.18.13.37.28.55.4a6.76,6.76,0,0,0,.72.46l.18.09h.19l.42,0,.84-.15.84-.17.83-.19a2.34,2.34,0,0,0,.4-.13,1.63,1.63,0,0,0,.35-.23A2.67,2.67,0,0,0-73,54h0a2.65,2.65,0,0,0,.18-.42m-5.23-13h.5v-1h-3.61v1h.49v-.5h1v3H-80v.56h1.42v-.56H-79v-3h1v.5"/></clipPath><clipPath id="clip-path-49"><path class="cls-2" d="M-74.27,46.17h0l-.61,0h0a11,11,0,0,1-3.32,1.6l0,0A10.94,10.94,0,0,0-75.77,47a8.68,8.68,0,0,0,1.39-.77l.11-.07m-5-.2a11,11,0,0,0-3.39,1.42c.4-.2.81-.39,1.22-.56l.15-.06,0,0,.13,0,.07,0,.11,0,.09,0,.11,0,.1,0,.1,0,.11,0,.1,0,.13-.05.08,0,.22-.07.48-.14.67-.16h-.53m-3.42.09a13.51,13.51,0,0,0-5.86,2.81l-.06.07a19.06,19.06,0,0,1,5.37-2.57l.23-.07c.4-.11.8-.2,1.21-.28l-.89,0m10.3,7.33-.07,0,0,0h0l0,0h0l0,0h0l0,0h0l-.11.05A2.65,2.65,0,0,1-73,54h0a2.91,2.91,0,0,1-.55.65,1.92,1.92,0,0,1-.35.23,2.34,2.34,0,0,1-.4.13l-.83.19-.84.17-.84.15-.42,0h-.19l-.18-.09a6.76,6.76,0,0,1-.72-.46c-.18-.12-.37-.27-.55-.4l0,0h0l0,0h0l0,0,.15.18,0,0c.08.09.41.46.79.84a1.49,1.49,0,0,0,1.06.44,1.72,1.72,0,0,0,.44-.06l.44-.1c.45-.11,1-.22,1.28-.31l.07,0,.13,0,.19,0A1.63,1.63,0,0,0-73,54.77l.27-.52c.14-.28.29-.56.44-.84h0l0,0-.07,0M-79,54.63l0,0c-.15.17-.28.34-.44.5l-.28.29-.29.27-.15.1-.18,0-.39.07-.8.11-.8.08-.8.06h-.4a2.65,2.65,0,0,1-.37-.12,2.44,2.44,0,0,1-.65-.45h0l.08.09,0,0,0-.05c-.09-.1-.94-.83-1.39-1.21l-.1,0,.26.37c.13.18.26.37.4.55l.18.23a2.65,2.65,0,0,0,2.25,1.18l.46,0h.21c1-.12,1.3-.17,1.45-.19l.11,0h0a2.47,2.47,0,0,0,.68-.2,1.15,1.15,0,0,0,.57-.52c.28-.62.34-.77.34-.78l.1-.26"/></clipPath><clipPath id="clip-path-50"><path class="cls-2" d="M-76.21,49A.22.22,0,0,0-76,48.8a.24.24,0,0,0-.23-.22h0a.21.21,0,0,0-.22.22h0A.22.22,0,0,0-76.21,49Zm1.38,1c-.3-.14-.62,0-1.21,0-.44,0-.81,0-.84-.66s.26-1.25.7-1.26.84.52.89,1.2a.78.78,0,0,1,0,.43C-74.93,49.73-74.84,50-74.83,50Zm-7.68-.83a.24.24,0,0,0,.22-.23.24.24,0,0,0-.24-.22.22.22,0,0,0-.21.23A.22.22,0,0,0-82.51,49.19Zm.68.35c0,.68-.36.64-.8.65h-.27a2,2,0,0,0-.95.11.73.73,0,0,1,.5-.35,1.15,1.15,0,0,1-.08-.39c0-.68.4-1.24.84-1.24S-81.84,48.86-81.83,49.54Zm8.33-4.67s0,.08,0,.12l-.52-.13a17.42,17.42,0,0,0-1.76-.28h-.06v0a1.05,1.05,0,0,1,0-.19,6.19,6.19,0,0,0,.12-1.65l2.1.59A6.76,6.76,0,0,1-73.5,44.87Zm-2.62-.4v.08l-.66-.06a3.41,3.41,0,0,0,.31-1.25,6.31,6.31,0,0,0,.52-.41A5.89,5.89,0,0,1-76.12,44.47Zm-6.47.07v-.07a5.21,5.21,0,0,1-.17-1.64,4.78,4.78,0,0,0,.51.41,3.45,3.45,0,0,0,.32,1.24Zm-.32,0c-.3,0-.59.07-.89.12l-.87.16-.53.13v-.06a7,7,0,0,1,.06-1.63l2.1-.59a6.49,6.49,0,0,0,.12,1.57,2.61,2.61,0,0,0,.06.27v0Zm10.53.83-.05,0-.09,0-.06,0c-.19-.08-.39-.15-.6-.22l-.07,0v0a6.52,6.52,0,0,0,0-1,6.24,6.24,0,0,0-.1-.88.16.16,0,0,0-.1-.11l-.3-.08a5.47,5.47,0,0,0-1-3.39,6.26,6.26,0,0,1,.83,3.33l-1.86-.52h-.14l-.13.12a6.55,6.55,0,0,0,0-.75v-.09a7,7,0,0,0-.83-2.92s.06.18.13.46a10.24,10.24,0,0,1,.32,3.62v0h0l-.22.16a.14.14,0,0,0-.06.11,3.16,3.16,0,0,1-.32,1.27v0c-.76-.05-1.52-.07-2.29-.07s-1.52,0-2.28.07v0A3.16,3.16,0,0,1-82,43.17a.17.17,0,0,0-.06-.11l-.23-.17A10.35,10.35,0,0,1-82,39.37c.09-.35.16-.56.17-.58a7.4,7.4,0,0,0-.85,3.76l-.13-.12h-.13l-1.86.52a6.26,6.26,0,0,1,.83-3.33A5.51,5.51,0,0,0-85,43l-.3.08a.13.13,0,0,0-.09.11,6.4,6.4,0,0,0-.1.88,6.52,6.52,0,0,0,0,1v0l-.08,0-.6.22s0,0,0,0h0l-.08,0,0,0,0,0a2.25,2.25,0,0,1,.42-.13l.43-.09c.29-.06.58-.1.87-.14l.88-.09.88-.07c1.17-.06,2.35-.09,3.52-.09s2.36,0,3.53.09l.88.07.87.09c.29,0,.58.08.87.14a3,3,0,0,1,.43.09,2.13,2.13,0,0,1,.43.13Z"/></clipPath><clipPath id="clip-path-51"><path class="cls-2" d="M-79,40.11v3h.42v.56H-80v-.56h.42v-3h-1v.5h-.49v-1h3.61v1H-78v-.5Zm1.89.87V39.26h-4.35V41h1.23v-.5H-80v2.31h-.42v1.3h2.16v-1.3h-.42V40.48h.28V41Z"/></clipPath><clipPath id="clip-path-52"><rect class="cls-1" x="-58.16" y="37.25" width="19.26" height="20"/></clipPath></defs><title>sahi</title><rect class="cls-1" x="-582.99" y="-1120.26" width="1366" height="2644"/><rect class="cls-1" x="-874.6" y="-1249.83" width="1366" height="3311"/><path class="cls-3" d="M-47.68-110l-2.93,2.93a.24.24,0,0,1-.35,0l-.66-.66a.24.24,0,0,1,0-.35l2.1-2.1-2.1-2.09a.25.25,0,0,1,0-.36l.66-.65a.24.24,0,0,1,.35,0l2.93,2.93A.24.24,0,0,1-47.68-110Z"/><g class="cls-17"><rect class="cls-3" x="-607.75" y="-459.19" width="742.75" height="1800.34"/></g><rect class="cls-3" x="-46.7" y="-108.75" width="5.55" height="1.51" rx="0.38"/><g class="cls-18"><rect class="cls-3" x="-606.75" y="-459.19" width="742.75" height="1800.34"/></g><rect class="cls-1" x="-633" y="-1176.12" width="1366" height="3024"/><g class="cls-26"><g class="cls-27"><rect class="cls-28" x="15.56" y="4.01" width="12.78" height="11.84"/></g></g><g class="cls-29"><g class="cls-27"><rect class="cls-28" x="-3.21" y="8.7" width="14.66" height="11.84"/></g></g><g class="cls-30"><g class="cls-27"><rect class="cls-28" x="2.42" y="6.83" width="20.29" height="13.72"/></g></g><g class="cls-31"><g class="cls-27"><rect class="cls-28" x="13.68" y="8.7" width="11.84" height="11.84"/></g></g><g class="cls-32"><g class="cls-27"><g class="cls-33"><g class="cls-34"><g class="cls-35"><g class="cls-34"><rect class="cls-36" x="15.64" y="4.01" width="12.69" height="11.78"/></g></g></g></g></g></g><g class="cls-26"><g class="cls-27"><rect class="cls-36" x="15.56" y="4.01" width="12.78" height="11.84"/></g></g><rect class="cls-1" x="-515.81" y="-976.67" width="1366" height="2291"/><rect class="cls-1" x="-529.88" y="-1354.02" width="1366" height="2291"/><rect class="cls-1" x="-731.32" y="-1096.25" width="1366" height="2291"/><rect class="cls-1" x="-731.32" y="-1096.25" width="1366" height="2291"/><rect class="cls-1" x="-731.32" y="-1096.25" width="1366" height="2291"/><rect class="cls-1" x="-371.37" y="-1635.24" width="1366" height="2291"/><rect class="cls-1" x="-668.42" y="-1097.25" width="1366" height="2291"/></svg>