<svg id="Layer_1" data-name="Layer 1" xmlns="http://www.w3.org/2000/svg" xmlns:xlink="http://www.w3.org/1999/xlink" viewBox="0 0 25 25"><defs><style>.cls-1,.cls-2,.cls-4{fill:none;}.cls-2{clip-rule:evenodd;}.cls-3{fill:#fff;}.cls-4{fill-rule:evenodd;}.cls-5{clip-path:url(#clip-path);}.cls-6{clip-path:url(#clip-path-2);}.cls-7{clip-path:url(#clip-path-3);}.cls-8{clip-path:url(#clip-path-4);}.cls-9{clip-path:url(#clip-path-5);}.cls-10{clip-path:url(#clip-path-6);}.cls-11{clip-path:url(#clip-path-7);}.cls-12{clip-path:url(#clip-path-8);}.cls-13{clip-path:url(#clip-path-9);}.cls-14{clip-path:url(#clip-path-10);}.cls-15{clip-path:url(#clip-path-11);}.cls-16{clip-path:url(#clip-path-12);}.cls-17{clip-path:url(#clip-path-13);}.cls-18{clip-path:url(#clip-path-14);}.cls-19{clip-path:url(#clip-path-15);}.cls-20{clip-path:url(#clip-path-16);}.cls-21{clip-path:url(#clip-path-17);}.cls-22{clip-path:url(#clip-path-18);}.cls-23{clip-path:url(#clip-path-19);}.cls-24{clip-path:url(#clip-path-20);}.cls-25{clip-path:url(#clip-path-21);}.cls-26{clip-path:url(#clip-path-22);}.cls-27{clip-path:url(#clip-path-23);}.cls-28{clip-path:url(#clip-path-24);}.cls-29{clip-path:url(#clip-path-25);}.cls-30{clip-path:url(#clip-path-26);}.cls-31{clip-path:url(#clip-path-27);}.cls-32{clip-path:url(#clip-path-29);}.cls-33{clip-path:url(#clip-path-30);}.cls-34{clip-path:url(#clip-path-31);}.cls-35{clip-path:url(#clip-path-32);}.cls-36{clip-path:url(#clip-path-33);}.cls-37{clip-path:url(#clip-path-34);}.cls-38{clip-path:url(#clip-path-35);}.cls-39{clip-path:url(#clip-path-36);}.cls-40{clip-path:url(#clip-path-37);}.cls-41{clip-path:url(#clip-path-38);}.cls-42{clip-path:url(#clip-path-39);}.cls-43{clip-path:url(#clip-path-40);}.cls-44{clip-path:url(#clip-path-41);}.cls-45{clip-path:url(#clip-path-42);}.cls-46{clip-path:url(#clip-path-43);}.cls-47{clip-path:url(#clip-path-44);}</style><clipPath id="clip-path"><rect class="cls-1" x="-30.19" y="806.75" width="19.26" height="20"/></clipPath><clipPath id="clip-path-2"><path class="cls-1" d="M-107-144.09a2.06,2.06,0,0,0-2.26,2c0,1.26.74,1.85,1.86,2.33l.38.16c.71.31,1,.5,1,1s-.33.76-1,.76-1.12-.52-1.46-1.06l-1.21.81a2.81,2.81,0,0,0,2.7,1.62c1.47,0,2.56-.76,2.56-2.15s-.74-1.87-2.05-2.43l-.39-.16c-.66-.29-.95-.48-.95-.94a.67.67,0,0,1,.74-.66,1,1,0,0,1,1,.66l1.2-.77A2.28,2.28,0,0,0-107-144.09Zm-5,0V-139c0,.78-.29,1-.81,1a1.34,1.34,0,0,1-1.16-.77l-1.27.77a2.84,2.84,0,0,0,2.53,1.62,2.12,2.12,0,0,0,2.33-2.36v-5.33Zm-6.61-6.88h14.84a.27.27,0,0,1,.27.27v14.84a.27.27,0,0,1-.27.27h-14.84a.27.27,0,0,1-.27-.27V-150.7A.27.27,0,0,1-118.65-151Zm0-.81a1.09,1.09,0,0,0-1.08,1.08v14.84a1.09,1.09,0,0,0,1.08,1.08h14.84a1.09,1.09,0,0,0,1.08-1.08V-150.7a1.09,1.09,0,0,0-1.08-1.08Z"/></clipPath><clipPath id="clip-path-3"><path class="cls-2" d="M-80.85-143.12l-.3-.49c-.11-.16-.2-.33-.3-.51a5.51,5.51,0,0,1-.47-1.16,2,2,0,0,1,.63-1.72l.18-.22c.4-.45.94-1,1.35-1.44a2.6,2.6,0,0,0,.74-1.71c0-.39,0-1.21-.29-1.36a2.84,2.84,0,0,1-.13,1.55,3.35,3.35,0,0,1-1.12,1.49c-.38.32-1,.91-1.33,1.26a3.33,3.33,0,0,0-.73,1,1.39,1.39,0,0,0,.24,1.35c.11.19.22.35.34.52s.27.34.38.5.27.32.4.48.33.39.41.45"/></clipPath><clipPath id="clip-path-4"><path class="cls-2" d="M-75.55-138.09c.17.2,0,.29-.22.37a29.33,29.33,0,0,1-5.47.43,22.71,22.71,0,0,1-3.21-.16c-.17,0-.91-.11-1-.26s.11-.16.18-.19a3.7,3.7,0,0,1,1-.24,3.69,3.69,0,0,0,.37-.05,4.73,4.73,0,0,0-2.46.53c-.23.24.14.35.39.41a22.21,22.21,0,0,0,3.86.28c1.52,0,5.17,0,6.51-.69.07,0,.23-.12.24-.2s-.14-.2-.22-.23"/></clipPath><clipPath id="clip-path-5"><path class="cls-2" d="M-79.68-141.89a4,4,0,0,0,.8-.58,1.56,1.56,0,0,0,.51-.89,2,2,0,0,0-.38-1c-.47-.69-.85-1.09-.21-1.86a5.17,5.17,0,0,1,.72-.68,13,13,0,0,1,1.25-.85l.43-.27a8,8,0,0,0-1.08.35,7.35,7.35,0,0,0-1,.46c-1,.54-1.93,1.39-1.54,2.56.27.8,1,1.27,1,1.87,0,.36-.4.73-.5.91"/></clipPath><clipPath id="clip-path-6"><path class="cls-2" d="M-77.79-138.69a6.06,6.06,0,0,1-.86-.38c-.16-.08-.1-.07-.31,0a16.5,16.5,0,0,1-3.23.16c-.24,0-.9,0-1-.21s0-.21.08-.28c-.61.11-1.22.54-.38.89a9.45,9.45,0,0,0,4,.25,15.19,15.19,0,0,0,1.77-.4"/></clipPath><clipPath id="clip-path-7"><path class="cls-2" d="M-77.79-139.9a1.39,1.39,0,0,1-.55-.31c-.12-.1-.08-.08-.33,0-.91.15-3.63.41-4.41.09-.1,0-.22-.1-.22-.22s.11-.21.16-.29c-.63.08-1.23.67-.39,1a12.37,12.37,0,0,0,4,.2,10.19,10.19,0,0,0,1.75-.4"/></clipPath><clipPath id="clip-path-8"><path class="cls-2" d="M-76.56-142.59a3.19,3.19,0,0,0-.42.05l-.44,0c-.89.11-1.88.19-2.78.23-.69,0-3.32.11-3.72-.19,0-.14.16-.23.28-.28a8,8,0,0,1,1.37-.38,7.57,7.57,0,0,0-2.71.61c-.61.31.4.43.78.48a27.2,27.2,0,0,0,6.44-.14,1.54,1.54,0,0,0,.67-.15c.17-.09.39-.19.53-.28"/></clipPath><clipPath id="clip-path-9"><path class="cls-2" d="M-83.94-136.13a14.43,14.43,0,0,0,2.52.36,25.16,25.16,0,0,0,2.88,0,12.74,12.74,0,0,0,3.7-.6c.25-.11.7-.35.75-.58a.94.94,0,0,0-.22.12c-1.87,1-6.14.92-8.34.8l-1.29-.09"/></clipPath><clipPath id="clip-path-10"><path class="cls-2" d="M-76.21-142.82a1.19,1.19,0,0,1,1.23.24,1.32,1.32,0,0,1,.09,1.4,4.58,4.58,0,0,1-1.42,1.57l-.25.18a4.66,4.66,0,0,0,1.41-.67,2.56,2.56,0,0,0,1-1.21,1.35,1.35,0,0,0-.5-1.58,1.3,1.3,0,0,0-.8-.23,1.11,1.11,0,0,0-.73.3"/></clipPath><clipPath id="clip-path-11"><path class="cls-1" d="M-51-149.11a.68.68,0,0,1,.65.69.68.68,0,0,1-.65.68.67.67,0,0,1-.65-.68A.67.67,0,0,1-51-149.11Zm1.86-1.09a9.2,9.2,0,0,0-1.64.14c-1.46.27-1.73.83-1.73,1.86v1.36H-49v.46h-4.74a2.16,2.16,0,0,0-2.15,1.81,6.88,6.88,0,0,0,0,3.63c.24,1.06.83,1.81,1.83,1.81h1.18v-1.63A2.24,2.24,0,0,1-50.76-143h3.44a1.78,1.78,0,0,0,1.72-1.82v-3.4a2,2,0,0,0-1.72-1.86A11,11,0,0,0-49.12-150.2Z"/></clipPath><clipPath id="clip-path-12"><path class="cls-1" d="M-47.07-137.72a.65.65,0,0,1,.64.67.66.66,0,0,1-.64.68.67.67,0,0,1-.65-.68A.66.66,0,0,1-47.07-137.72Zm1.93-8.56v1.58a2.24,2.24,0,0,1-2.15,2.25h-3.43a1.78,1.78,0,0,0-1.72,1.8v3.38c0,1,.81,1.52,1.72,1.8a5.57,5.57,0,0,0,3.43,0c.87-.26,1.72-.78,1.72-1.8v-1.36H-49v-.45h5.15c1,0,1.37-.71,1.72-1.79a6.31,6.31,0,0,0,0-3.61c-.25-1-.72-1.8-1.72-1.8Z"/></clipPath><clipPath id="clip-path-13"><path class="cls-3" d="M-16.84-110l-2.93,2.93a.24.24,0,0,1-.35,0l-.66-.66a.26.26,0,0,1,0-.35l2.1-2.1-2.1-2.09a.27.27,0,0,1,0-.36l.66-.65a.24.24,0,0,1,.35,0l2.93,2.93A.24.24,0,0,1-16.84-110Z"/></clipPath><clipPath id="clip-path-14"><rect class="cls-3" x="-15.86" y="-108.75" width="5.55" height="1.51" rx="0.38"/></clipPath><clipPath id="clip-path-15"><polygon class="cls-1" points="-120.71 -80.5 -100.31 -80.5 -100.31 -73.07 -110.51 -73.07 -110.51 -71.76 -115.18 -71.76 -115.18 -73.07 -120.71 -73.07 -120.71 -80.5"/></clipPath><clipPath id="clip-path-16"><polygon class="cls-1" points="-118.52 -73.95 -116.7 -73.95 -116.7 -77.66 -115.61 -77.66 -115.61 -73.95 -114.88 -73.95 -114.88 -79.05 -118.52 -79.05 -118.52 -73.95"/></clipPath><clipPath id="clip-path-17"><path class="cls-1" d="M-110.51-75.71h-1.09V-77.8h1.09ZM-113.42-79v5.83h1.82v-1.25h1.82V-79Z"/></clipPath><clipPath id="clip-path-18"><polygon class="cls-1" points="-109.05 -79.05 -109.05 -73.95 -107 -73.95 -107 -77.66 -105.77 -77.66 -105.77 -73.95 -104.54 -73.95 -104.54 -77.66 -103.31 -77.66 -103.31 -73.95 -102.49 -73.95 -102.49 -79.05 -109.05 -79.05"/></clipPath><clipPath id="clip-path-19"><path class="cls-1" d="M-37.87-77.25v2.77a1.38,1.38,0,0,1-1.39,1.38H-42a1.38,1.38,0,0,1-1.39-1.38v-2.77A1.38,1.38,0,0,1-42-78.63h2.76A1.38,1.38,0,0,1-37.87-77.25Zm-7.38,0v2.77a1.38,1.38,0,0,1-1.39,1.38H-49.4a1.38,1.38,0,0,1-1.39-1.38v-2.77a1.38,1.38,0,0,1,1.39-1.38h2.76A1.38,1.38,0,0,1-45.25-77.25Zm-7.38,0v2.77A1.38,1.38,0,0,1-54-73.1h-2.77a1.38,1.38,0,0,1-1.38-1.38v-2.77a1.38,1.38,0,0,1,1.38-1.38H-54A1.38,1.38,0,0,1-52.63-77.25Z"/></clipPath><clipPath id="clip-path-20"><path class="cls-1" d="M-9.2-72h-3.69v-5.86h3.57v1.09h-2.26v1.21h2.13v1.08h-2.13v1.39H-9.2V-72Zm-.29,4.86H-22.28v-3.78H-9.49ZM-22.74-72v-5.86h3.57v1.09h-2.26v1.21h2.13v1.08h-2.13v1.39H-19V-72Zm4.22-5.86H-17l.5,1.07a10.15,10.15,0,0,1,.44,1h0c.14-.37.25-.63.39-1l.49-1.07h1.5L-15.31-75l1.71,3h-1.51L-15.63-73c-.22-.41-.35-.72-.52-1.06h0c-.12.34-.27.65-.45,1.06L-17.09-72h-1.49l1.67-3Zm-3.76-7.5h9v4a.38.38,0,0,0,.39.39h3.42v2H-22.28Zm14,6.37h-.48v-2.36a.43.43,0,0,0-.09-.26L-12.62-86h0A.23.23,0,0,0-12.7-86h0l-.07,0h0l-.08,0h-9.37a.78.78,0,0,0-.77.79V-79h-.48a1.11,1.11,0,0,0-1.1,1.12V-72a1.11,1.11,0,0,0,1.1,1.12H-23v4a.77.77,0,0,0,.77.78H-9.49a.77.77,0,0,0,.77-.78v-4h.48A1.12,1.12,0,0,0-7.13-72v-5.83A1.12,1.12,0,0,0-8.24-79Z"/></clipPath><clipPath id="clip-path-21"><path class="cls-1" d="M14.94,15.52a1,1,0,0,0-1,1h2A1,1,0,0,0,14.94,15.52Zm0-1.2A2.45,2.45,0,0,1,17.56,17v.49H13.92v.09A1,1,0,0,0,15,18.76a1,1,0,0,0,1-.49h1.56A2.35,2.35,0,0,1,14.94,20a2.51,2.51,0,0,1-2.71-2.8C12.27,15.38,13.25,14.32,14.94,14.32ZM7.65,12.49c1.65,0,2.8.89,2.85,2.23H8.81a1.07,1.07,0,0,0-1.16-.85c-.62,0-1.06.31-1.06.76s.31.62,1.06.75l.94.18c1.42.27,2,.89,2,2,0,1.46-1.11,2.35-3,2.35s-2.93-.84-3-2.22H6.41c0,.53.58.84,1.29.84s1.15-.31,1.15-.8-.31-.62-1.11-.75l-.93-.18c-1.29-.27-2-1-2-2.09C4.81,13.38,5.92,12.49,7.65,12.49ZM4,2.58A1.8,1.8,0,0,0,2.19,4.41V20.76A1.8,1.8,0,0,0,4,22.58H20.36a1.8,1.8,0,0,0,1.83-1.82V4.49l-6.8,6.85L10.76,6.72l1.91-1.91,2.67,2.66,4.89-4.89Z"/></clipPath><clipPath id="clip-path-22"><rect class="cls-1" x="-528.93" y="-419.64" width="1517.78" height="3415.56"/></clipPath><clipPath id="clip-path-23"><path class="cls-2" d="M50.47,10.49,51.54,10a.16.16,0,0,1,.15,0,1.82,1.82,0,0,1,.49.75s0,0,0,0c.2-.39,1.44-2.41,2.93-2.7a11.31,11.31,0,0,0-1.49,1.73,16.57,16.57,0,0,0-1,1.87.24.24,0,0,1-.2.15H51.19a.11.11,0,0,1-.1-.1,1.51,1.51,0,0,0-.64-1.19s0,0,0,0"/></clipPath><clipPath id="clip-path-24"><path class="cls-2" d="M32,15.54l-.34.75a.14.14,0,0,0,.11.21h4.27a.48.48,0,0,0,.44-.28l.71-1.39a.12.12,0,0,0-.1-.18H35.08a.14.14,0,0,1-.12-.18l.44-1a.3.3,0,0,1,.29-.21h.23a.11.11,0,0,1,.09.18l-.25.5a.16.16,0,0,0,.12.21h1.44a.51.51,0,0,0,.41-.26l.5-.92a.15.15,0,0,0-.11-.23H33.78a.43.43,0,0,0-.39.26l-.92,1.77a.13.13,0,0,0,.09.21H35a.11.11,0,0,1,.09.18l-.43.86s-.05.06-.07.06H34a.09.09,0,0,1-.07-.14l.25-.46a.1.1,0,0,0-.09-.16H32.36c-.14,0-.25.08-.32.21"/></clipPath><clipPath id="clip-path-25"><path class="cls-2" d="M39.08,13.44l-.59,1c-.05.09,0,.18.12.18h1.72a.52.52,0,0,0,.41-.22l.31-.53a.45.45,0,0,1,.35-.21h.05a.15.15,0,0,1,.12.19l-.41.8a.5.5,0,0,1-.45.25H38.2l-.87,1.44a.14.14,0,0,0,.11.2h4.29a.51.51,0,0,0,.43-.25l1.59-2.83a.15.15,0,0,0-.12-.21H39.46a.57.57,0,0,0-.38.23m1.14,2.65h-.15a.14.14,0,0,1-.11-.2l.21-.44a.38.38,0,0,1,.31-.18.21.21,0,0,1,.19.3l-.19.34a.29.29,0,0,1-.26.18M45.9,11l-.07.14L42.92,16.3a.14.14,0,0,0,.12.2h1.65a.39.39,0,0,0,.34-.18l1.58-2.58a.5.5,0,0,1,.41-.23.17.17,0,0,1,.16.25L45.76,16.3a.14.14,0,0,0,.14.2h1.54a.59.59,0,0,0,.48-.27l1.25-2.31.29-.55s.14-.27-.05-.27h-2.2c-.05,0-.1-.07-.08-.11l.24-.44a.57.57,0,0,0,0-.55,5,5,0,0,0-.83-1.09c-.14,0-.47-.12-.62.13"/></clipPath><clipPath id="clip-path-26"><path class="cls-2" d="M50.32,12.84l-1.73,3.37a.2.2,0,0,0,.14.29h1.82a.12.12,0,0,0,.14-.1L52.3,13a.17.17,0,0,0-.14-.26H50.48c-.09,0-.14,0-.16.08"/></clipPath><clipPath id="clip-path-27"><rect class="cls-1" x="50.52" y="8.06" width="4.6" height="3.69"/></clipPath><clipPath id="clip-path-29"><path class="cls-2" d="M-116.85,57.39a1.92,1.92,0,0,1-.93-.24,2,2,0,0,1-1-1.77v-8a2,2,0,0,1,2-2,2,2,0,0,1,2,2v4.26l6.31-4.26-9.38-6.34a2,2,0,0,1-.55-2.77,2,2,0,0,1,2.74-.56l11.85,8a2,2,0,0,1,.87,1.67,2,2,0,0,1-.87,1.66l-11.84,8a2,2,0,0,1-1.1.34"/></clipPath><clipPath id="clip-path-30"><rect class="cls-1" x="-59.54" y="37.35" width="20.49" height="20"/></clipPath><clipPath id="clip-path-31"><path class="cls-2" d="M-47.58,55.76l-.33,0h-.23l.19-.43.37.38"/></clipPath><clipPath id="clip-path-32"><path class="cls-2" d="M-47.71,47.5a4,4,0,0,1-.54.37l-.62.37a7,7,0,0,0-.76.15l0,0a.1.1,0,0,0-.06.08l-.64,2.06-3.4.74-1.07-.73-.31-2.49c.61-.11,1.42-.23,2.4-.34a4.08,4.08,0,0,0-.31.39l-.58.82.85-.56a12.57,12.57,0,0,1,1.43-.78c1-.07,1.93-.11,2.89-.11ZM-53,50.3a2,2,0,0,1,.94-.11h.27c.44,0,.8,0,.8-.65s-.32-1.23-.76-1.22-.86.56-.84,1.24a1.15,1.15,0,0,0,.08.39.67.67,0,0,0-.49.35Zm11.18-2.24-.31,2.12-1.08.74-3.39-.38-.64-2a.15.15,0,0,0-.09-.1,6.49,6.49,0,0,0-.89-.16h.08a14.09,14.09,0,0,0,2.64-.63C-43.95,47.72-42.69,47.91-41.82,48.06ZM-44,50s-.1-.29-.51-.24a.87.87,0,0,0,.06-.43c-.06-.68-.46-1.22-.9-1.2s-.72.58-.7,1.26.4.67.84.66C-44.61,50.06-44.29,49.88-44,50Z"/></clipPath><clipPath id="clip-path-33"><path class="cls-2" d="M-45.15,49c0,.21-.1.39-.22.39s-.23-.16-.23-.38h0c0-.22.09-.4.22-.4h0c.12,0,.23.17.23.38h0m-6.3.28c0,.22-.1.4-.22.41s-.23-.17-.23-.39h0c0-.21.09-.39.22-.4h0c.12,0,.22.17.23.38"/></clipPath><clipPath id="clip-path-34"><path class="cls-2" d="M-40.34,49a4.12,4.12,0,0,0-.4-.23l-.29,2a.12.12,0,0,1-.06.1l-.4.28,0,.12a1.2,1.2,0,0,0,1-.39,8.3,8.3,0,0,0,.22-1.18c0-.51,0-.61-.05-.66m-6.29,7.46a1.86,1.86,0,0,1-.71-.45l-.06,0a4,4,0,0,1-.5.07h-.36a1.94,1.94,0,0,1-1,.68,6.18,6.18,0,0,0,2.64-.26m-8.69-4.81,0-.09-.53-.36a.17.17,0,0,1-.06-.1L-56.2,49a4.41,4.41,0,0,0-.47.27s-.09.15,0,.64a7.51,7.51,0,0,0,.31,1.36,1.4,1.4,0,0,0,1.07.34m7.9-.09a.17.17,0,0,1-.12-.1l-.65-2.12-.29,0-.29,0-.63,2.06a.14.14,0,0,1-.11.09l-.3.07a.51.51,0,0,1-.39.35,33.36,33.36,0,0,1-3.66.93,3.06,3.06,0,0,1-.82-.38c-.11-.25-.17-.42-.19-.46h0a9.38,9.38,0,0,0,1.18,2.21l1.75-.53c.46-.7,1.11-1.39,1.58-1.41h.24a6.48,6.48,0,0,1,.65,0,.75.75,0,0,1-.23-.41,2,2,0,0,0,1.35.36,2.42,2.42,0,0,0,1.22-.53l0-.13-.31,0"/></clipPath><clipPath id="clip-path-35"><path class="cls-2" d="M-46.8,51.82a.67.67,0,0,1-.32-.17v.06a.75.75,0,0,1-.33.56A4.36,4.36,0,0,1-46.39,52a.52.52,0,0,1,.38.15l.06,0,1.24,1,1.22.13c.23,0,.44,0,.64,0h.19A10.73,10.73,0,0,0-42.09,52a4.12,4.12,0,0,1-1,.56,33.86,33.86,0,0,1-3.69-.77"/></clipPath><clipPath id="clip-path-36"><path class="cls-2" d="M-39.48,44.41l0-.2a.68.68,0,0,0,0-.14,3.82,3.82,0,0,0-.61-.41,6.24,6.24,0,0,0-.73-.37c-.25-.12-.51-.22-.76-.32a3.12,3.12,0,0,0-.39-.15l-.4-.15c.28,0,.55.11.82.18a4.61,4.61,0,0,1,.53.15,8.09,8.09,0,0,0-7.45-5.27A8.08,8.08,0,0,0-56,43a4.61,4.61,0,0,1,.53-.15c.27-.07.54-.13.82-.18l-.4.15a3.12,3.12,0,0,0-.39.15c-.25.1-.51.2-.76.32a6.24,6.24,0,0,0-.73.37,3.82,3.82,0,0,0-.61.41.68.68,0,0,0,0,.14l0,.2c0,.14,0,.28,0,.41a4.46,4.46,0,0,0,.05.82,7.08,7.08,0,0,0,.16.8c0,.13.08.26.13.39a1.42,1.42,0,0,0,.08.18.36.36,0,0,0,0,.09l0,0,.06,0,.12.06.24.11h0l-.23-.86s.48-.12,1.23-.27l-.18,0-.5-.16-.24-.11a1.16,1.16,0,0,1-.21-.16,13.19,13.19,0,0,0,4,0,41.26,41.26,0,0,1,4.16-.23,41.26,41.26,0,0,1,4.16.23,13.19,13.19,0,0,0,4,0,1.16,1.16,0,0,1-.21.16l-.24.11-.5.16h-.08c.83.15,1.3.28,1.36.29l-.22.82.13-.06.12-.06.06,0,0,0a.36.36,0,0,0,0-.09,1.42,1.42,0,0,0,.08-.18c.05-.13.09-.26.13-.39a5.39,5.39,0,0,0,.16-.8,4.46,4.46,0,0,0,.05-.82c0-.13,0-.27,0-.41"/></clipPath><clipPath id="clip-path-37"><path class="cls-2" d="M-45.11,42.83a5.21,5.21,0,0,1-.17,1.64v.08l-.66-.06a3.72,3.72,0,0,0,.32-1.25,6.05,6.05,0,0,0,.51-.41m-6.3.41a3.68,3.68,0,0,0,.32,1.24l-.66.06v-.07a5.5,5.5,0,0,1-.17-1.64,6.05,6.05,0,0,0,.51.41m9,1.81v0l.07,0,.61.22a2.18,2.18,0,0,1-.65-1.26,6.52,6.52,0,0,1,0,1m-9.79-2.34-2.11.59a7,7,0,0,0-.06,1.63h0a6.08,6.08,0,0,1,.21-1.22c.07-.17.51-.28.84-.36s.88-.24,1,.23a2.84,2.84,0,0,0,.24.7,5.91,5.91,0,0,1-.11-1.57m7.35,0A6.19,6.19,0,0,1-45,44.36a3.48,3.48,0,0,0,.27-.78c.11-.47.64-.31,1-.23s.77.19.84.36a5.61,5.61,0,0,1,.21,1.16,7.19,7.19,0,0,0-.07-1.57l-2.11-.59m-6.58.18.23.17a.14.14,0,0,1,.06.11,3.16,3.16,0,0,0,.32,1.27v0c.76-.05,1.52-.07,2.29-.07s1.52,0,2.28.07c0,0,0,0,0,0a3.16,3.16,0,0,0,.32-1.27.14.14,0,0,1,.06-.11l.22-.16v0a10.5,10.5,0,0,0-.31-3.62c0,.47-.13,4.54-1.15,4.54H-49.9c-1.09,0-1.18-4.59-1.18-4.59l-.06.17a10.35,10.35,0,0,0-.28,3.52m-3.2,2.18v0a6.52,6.52,0,0,1,0-1,2.18,2.18,0,0,1-.65,1.26,6.32,6.32,0,0,1,.61-.22l.07,0"/></clipPath><clipPath id="clip-path-38"><path class="cls-2" d="M-41.52,51.22l-.06.27a2.85,2.85,0,0,0,.8.06,2.18,2.18,0,0,0,.27-.72,1.2,1.2,0,0,1-1,.39m-8.36,5.62a5.13,5.13,0,0,0,1.69.18,7,7,0,0,0,2.07-.47,1.71,1.71,0,0,1-.51-.1,6.18,6.18,0,0,1-2.64.26,2.84,2.84,0,0,1-.49.11l-.12,0m-5.41-5.07,0-.13a1.4,1.4,0,0,1-1.07-.34,1.6,1.6,0,0,0,.24.56,2.87,2.87,0,0,0,.86-.09m.61.68a3.06,3.06,0,0,0,.82.38,33.36,33.36,0,0,0,3.66-.93.51.51,0,0,0,.39-.35l-4.15.91h0l-.08,0-.16-.11-.49-.34h0l-.19-.13v0l0,.1h0s.08.21.19.46M-42,51.66a2.45,2.45,0,0,0,.08-.29l-.15.1-.38.27-.42.29-.07,0h0l-4.17-.47v.07a.67.67,0,0,0,.32.17,33.86,33.86,0,0,0,3.69.77,4.12,4.12,0,0,0,1-.56h0l.12-.36"/></clipPath><clipPath id="clip-path-39"><path class="cls-2" d="M-46.38,46.13l-.11.13a9.7,9.7,0,0,1-.8.87l-1.17,0c-.66,0-1.3,0-1.9,0a15,15,0,0,1,3-.89c.33-.06.66-.11,1-.14m-5,.37a8,8,0,0,0-1,.81c-.74.07-1.47.16-2.21.28a17,17,0,0,1,3.19-1.09m10.42,1.73-.35,2.39L-43,51.77l-4.33-.49-.65-2.11a.15.15,0,0,0-.12-.1,2.27,2.27,0,0,0-.42,0,2.27,2.27,0,0,0-.42,0,.14.14,0,0,0-.11.1l-.64,2.06-4.31.94L-55.66,51-56,48.32l.22-.12.36-.08.32,2.53a.11.11,0,0,0,.06.1l1.17.81.08,0h0l3.54-.77,0,0a.11.11,0,0,0,.07-.08l.64-2.07a4.73,4.73,0,0,1,1-.14,4.85,4.85,0,0,1,1,.14l.63,2.07a.17.17,0,0,0,.12.1l3.54.39a.12.12,0,0,0,.1,0l1.18-.81a.18.18,0,0,0,.06-.09l.31-2.16.59.11m.43-1.49-.3,1.13a33.49,33.49,0,0,0-3.86-.57,9.88,9.88,0,0,0,1.8-1c1.11.15,1.92.32,2.36.42m-15.88,0,.08.31c.21-.16.42-.32.64-.46-.3,0-.54.11-.72.15"/></clipPath><clipPath id="clip-path-40"><path class="cls-2" d="M-44.44,46.1l-1.4-.07-.16.23a9.06,9.06,0,0,1-1.38,1.46,11,11,0,0,0,3.32-1.6l-.38,0M-47.86,46h-1.75l-.65.3h0A7.62,7.62,0,0,0-52,47.5l.22-.11A10.83,10.83,0,0,1-48.39,46h.53m-4,.08-.89,0-1,.07-.51,0-.15,0a14.12,14.12,0,0,0-3.34,2.71l.06-.07a13.51,13.51,0,0,1,5.86-2.81m9.88,7.53,0,0a1.84,1.84,0,0,1-.88.17c-.22,0-.44,0-.68,0-.48,0-1.29-.14-1.29-.14h-.07l0,0-1.3-1-.06,0c-.06,0-.06,0-.1,0a12.74,12.74,0,0,0-1.89.52l-.07,0-.07,0a5.2,5.2,0,0,0-1.7-.29h-.22c-.09,0-.61.25-1.28,1.28l0,.06-.07,0s-1.16.36-2.36.7l-.08,0-.08,0-.93-.42.1,0c.45.38,1.3,1.11,1.39,1.21l0,.05-.06-.07h0A2.41,2.41,0,0,0-53,56a1.68,1.68,0,0,0,.38.12h.39l.8-.06.8-.08.8-.11.39-.06.18-.06a.65.65,0,0,0,.15-.1l.29-.27.28-.29c.16-.16.29-.33.44-.5l.06-.06h0l.1.07c.18.13.37.28.55.4a7.94,7.94,0,0,0,.72.46l.18.09h.19l.42,0,.84-.15.84-.17.83-.19a2.34,2.34,0,0,0,.4-.13,1.63,1.63,0,0,0,.35-.23,2.47,2.47,0,0,0,.55-.65h0a4.08,4.08,0,0,0,.19-.42m-5.24-13h.5v-1h-3.61v1h.49v-.5h1v3h-.42v.56h1.42v-.56h-.42v-3h1v.5"/></clipPath><clipPath id="clip-path-41"><path class="cls-2" d="M-43.43,46.17h0l-.62,0h0a11,11,0,0,1-3.32,1.6l0,0A10.8,10.8,0,0,0-44.93,47a9.22,9.22,0,0,0,1.4-.77l.1-.07m-5-.2a11,11,0,0,0-3.39,1.42c.4-.2.81-.39,1.22-.56l.15-.06,0,0,.13,0,.07,0,.11,0,.09,0,.11,0,.1,0,.1,0,.12,0,.09,0,.13-.05.08,0,.22-.07.49-.14.66-.16h-.53m-3.42.09a13.51,13.51,0,0,0-5.86,2.81l-.06.07a19.2,19.2,0,0,1,5.37-2.57l.23-.07c.4-.11.8-.2,1.21-.28l-.89,0m10.3,7.33-.07,0,0,0h0l0,0h0l0,0h0l0,0h0l-.1.05a4.08,4.08,0,0,1-.19.42h0a2.67,2.67,0,0,1-.55.65,1.63,1.63,0,0,1-.35.23,2.34,2.34,0,0,1-.4.13l-.83.19-.84.17-.84.15-.42,0h-.19l-.18-.09a7.94,7.94,0,0,1-.72-.46c-.18-.12-.37-.27-.55-.4l0,0h0l0,0h0l0,0,.16.18v0c.08.09.41.46.8.84a1.46,1.46,0,0,0,1.06.44,1.71,1.71,0,0,0,.43-.06l.44-.1c.45-.11,1-.22,1.28-.31l.07,0,.13,0,.19,0a1.63,1.63,0,0,0,1.25-.79l.27-.52c.14-.28.29-.56.44-.84h0l0,0-.07,0m-6.61,1.24,0,0c-.15.17-.28.34-.44.5l-.28.29-.29.27a.65.65,0,0,1-.15.1l-.18,0-.39.07-.8.11-.8.08-.8.06h-.39A2.4,2.4,0,0,1-53,56a2.8,2.8,0,0,1-.65-.45h0l.08.09v0l-.06-.05c-.09-.1-.94-.83-1.39-1.21l-.1,0,.26.37c.13.18.26.37.4.55l.18.23a2.65,2.65,0,0,0,2.25,1.18l.47,0h.2c1-.12,1.3-.17,1.45-.19l.11,0h0a2.38,2.38,0,0,0,.68-.2,1.15,1.15,0,0,0,.57-.52c.28-.62.34-.77.34-.78l.1-.26"/></clipPath><clipPath id="clip-path-42"><path class="cls-2" d="M-45.37,49a.22.22,0,0,0,.22-.22.23.23,0,0,0-.23-.22h0a.22.22,0,0,0-.22.22h0A.22.22,0,0,0-45.37,49ZM-44,50c-.3-.14-.62,0-1.21,0-.44,0-.81,0-.84-.66s.26-1.25.7-1.26.84.52.9,1.2a.87.87,0,0,1-.06.43C-44.09,49.73-44,50-44,50Zm-7.68-.83a.24.24,0,0,0,.22-.23.24.24,0,0,0-.23-.22.22.22,0,0,0-.22.23A.22.22,0,0,0-51.67,49.19Zm.68.35c0,.68-.36.64-.8.65h-.27a2,2,0,0,0-.94.11.67.67,0,0,1,.49-.35,1.15,1.15,0,0,1-.08-.39c0-.68.4-1.24.84-1.24S-51,48.86-51,49.54Zm8.33-4.67a.49.49,0,0,0,0,.12l-.53-.13A17.42,17.42,0,0,0-45,44.58H-45v0c0-.07,0-.13,0-.19a6.19,6.19,0,0,0,.12-1.65l2.11.59A7.19,7.19,0,0,1-42.66,44.87Zm-2.62-.4v.08l-.66-.06a3.72,3.72,0,0,0,.32-1.25,6.05,6.05,0,0,0,.51-.41A5.21,5.21,0,0,1-45.28,44.47Zm-6.47.07v-.07a5.53,5.53,0,0,1-.17-1.64,6.05,6.05,0,0,0,.51.41,3.68,3.68,0,0,0,.32,1.24Zm-.32,0c-.3,0-.59.07-.88.12l-.88.16-.53.13v-.06a6.62,6.62,0,0,1,.07-1.63l2.1-.59a5.91,5.91,0,0,0,.11,1.57l.06.27v0Zm10.53.83-.05,0-.09,0a.1.1,0,0,1,0,0l-.61-.22-.07,0v0a6.52,6.52,0,0,0,0-1,6.24,6.24,0,0,0-.1-.88.14.14,0,0,0-.09-.11l-.3-.08a5.51,5.51,0,0,0-1.05-3.39,6.26,6.26,0,0,1,.83,3.33l-1.86-.52h-.13l-.13.12c0-.17,0-.43,0-.75v-.09a6.89,6.89,0,0,0-.83-2.92s.06.18.14.46a10.53,10.53,0,0,1,.31,3.62v0h0l-.22.16a.14.14,0,0,0-.06.11,3.16,3.16,0,0,1-.32,1.27s0,0,0,0c-.76-.05-1.52-.07-2.28-.07s-1.53,0-2.29.07v0a3.16,3.16,0,0,1-.32-1.27.14.14,0,0,0-.06-.11l-.23-.17a10.35,10.35,0,0,1,.28-3.52c.09-.35.17-.56.17-.58a7.51,7.51,0,0,0-.85,3.76l-.13-.12h-.13l-1.86.52a6.26,6.26,0,0,1,.83-3.33,5.51,5.51,0,0,0-1,3.39l-.29.08a.14.14,0,0,0-.1.11,8.46,8.46,0,0,0-.1.88,6.52,6.52,0,0,0,0,1v0l-.07,0-.61.22a.05.05,0,0,1-.05,0h0l-.09,0-.05,0,0,0a2.13,2.13,0,0,1,.43-.13,3,3,0,0,1,.43-.09c.29-.06.58-.1.87-.14l.87-.09.88-.07c1.17-.06,2.35-.09,3.53-.09s2.35,0,3.52.09l.88.07.87.09c.29,0,.59.08.87.14a3,3,0,0,1,.43.09,2.13,2.13,0,0,1,.43.13Z"/></clipPath><clipPath id="clip-path-43"><path class="cls-2" d="M-48.19,40.11v3h.42v.56h-1.42v-.56h.42v-3h-1v.5h-.49v-1h3.61v1h-.5v-.5Zm1.89.87V39.26h-4.35V41h1.23v-.5h.28v2.31h-.42v1.3h2.17v-1.3h-.43V40.48h.28V41Z"/></clipPath><clipPath id="clip-path-44"><rect class="cls-1" x="-27.32" y="37.25" width="19.26" height="20"/></clipPath></defs><title>selenium</title><rect class="cls-1" x="-552.15" y="-1120.26" width="1366" height="2644"/><rect class="cls-1" x="-843.75" y="-1249.83" width="1366" height="3311"/><path class="cls-3" d="M-16.84-110l-2.93,2.93a.24.24,0,0,1-.35,0l-.66-.66a.26.26,0,0,1,0-.35l2.1-2.1-2.1-2.09a.27.27,0,0,1,0-.36l.66-.65a.24.24,0,0,1,.35,0l2.93,2.93A.24.24,0,0,1-16.84-110Z"/><g class="cls-17"><rect class="cls-3" x="-576.91" y="-459.19" width="742.75" height="1800.34"/></g><rect class="cls-3" x="-15.86" y="-108.75" width="5.55" height="1.51" rx="0.38"/><g class="cls-18"><rect class="cls-3" x="-575.91" y="-459.19" width="742.75" height="1800.34"/></g><rect class="cls-1" x="-602.16" y="-1176.12" width="1366" height="3024"/><g class="cls-25"><g class="cls-26"><rect x="-3.37" y="-2.97" width="31.11" height="31.11"/></g></g><rect class="cls-1" x="-484.96" y="-976.67" width="1366" height="2291"/><rect class="cls-1" x="-499.04" y="-1354.02" width="1366" height="2291"/><rect class="cls-1" x="-700.48" y="-1096.25" width="1366" height="2291"/><rect class="cls-1" x="-700.48" y="-1096.25" width="1366" height="2291"/><rect class="cls-1" x="-700.48" y="-1096.25" width="1366" height="2291"/><rect class="cls-1" x="-340.53" y="-1635.24" width="1366" height="2291"/><rect class="cls-1" x="-637.58" y="-1097.25" width="1366" height="2291"/></svg>