<svg id="Layer_1" data-name="Layer 1" xmlns="http://www.w3.org/2000/svg" xmlns:xlink="http://www.w3.org/1999/xlink" viewBox="0 0 25 25"><defs><style>.cls-1,.cls-2,.cls-4{fill:none;}.cls-2{clip-rule:evenodd;}.cls-3{fill:#fff;}.cls-4{fill-rule:evenodd;}.cls-5{clip-path:url(#clip-path);}.cls-6{clip-path:url(#clip-path-2);}.cls-7{clip-path:url(#clip-path-3);}.cls-8{clip-path:url(#clip-path-4);}.cls-9{clip-path:url(#clip-path-5);}.cls-10{clip-path:url(#clip-path-6);}.cls-11{clip-path:url(#clip-path-7);}.cls-12{clip-path:url(#clip-path-8);}.cls-13{clip-path:url(#clip-path-9);}.cls-14{clip-path:url(#clip-path-10);}.cls-15{clip-path:url(#clip-path-11);}.cls-16{clip-path:url(#clip-path-12);}.cls-17{clip-path:url(#clip-path-13);}.cls-18{clip-path:url(#clip-path-14);}.cls-19{clip-path:url(#clip-path-15);}.cls-20{clip-path:url(#clip-path-16);}.cls-21{clip-path:url(#clip-path-17);}.cls-22{clip-path:url(#clip-path-18);}.cls-23{clip-path:url(#clip-path-19);}.cls-24{clip-path:url(#clip-path-20);}.cls-25{fill:#126ca9;}.cls-26{fill:#126ca8;}.cls-27{clip-path:url(#clip-path-21);}.cls-28{clip-path:url(#clip-path-22);}.cls-29{clip-path:url(#clip-path-23);}.cls-30{clip-path:url(#clip-path-24);}.cls-31{clip-path:url(#clip-path-25);}.cls-32{clip-path:url(#clip-path-26);}.cls-33{clip-path:url(#clip-path-28);}.cls-34{clip-path:url(#clip-path-29);}.cls-35{clip-path:url(#clip-path-30);}.cls-36{clip-path:url(#clip-path-31);}.cls-37{clip-path:url(#clip-path-32);}.cls-38{clip-path:url(#clip-path-33);}.cls-39{clip-path:url(#clip-path-34);}.cls-40{clip-path:url(#clip-path-35);}.cls-41{clip-path:url(#clip-path-36);}.cls-42{clip-path:url(#clip-path-37);}.cls-43{clip-path:url(#clip-path-38);}.cls-44{clip-path:url(#clip-path-39);}.cls-45{clip-path:url(#clip-path-40);}.cls-46{clip-path:url(#clip-path-41);}.cls-47{clip-path:url(#clip-path-42);}.cls-48{clip-path:url(#clip-path-43);}</style><clipPath id="clip-path"><rect class="cls-1" x="63.64" y="807.08" width="19.26" height="20"/></clipPath><clipPath id="clip-path-2"><path class="cls-1" d="M-13.17-143.77a2.07,2.07,0,0,0-2.26,2.05c0,1.25.74,1.85,1.85,2.32l.39.17c.7.31,1,.49,1,1s-.34.76-1,.76-1.12-.51-1.45-1.05l-1.21.81a2.81,2.81,0,0,0,2.7,1.61c1.47,0,2.56-.76,2.56-2.15s-.74-1.86-2.06-2.42l-.38-.17c-.66-.29-.95-.47-.95-.94a.68.68,0,0,1,.74-.66,1,1,0,0,1,1,.66l1.2-.77A2.28,2.28,0,0,0-13.17-143.77Zm-5,0v5.09c0,.78-.3,1-.81,1a1.34,1.34,0,0,1-1.16-.77l-1.27.77a2.85,2.85,0,0,0,2.52,1.61,2.12,2.12,0,0,0,2.34-2.35v-5.34Zm-6.61-6.88H-10a.27.27,0,0,1,.27.27v14.84a.27.27,0,0,1-.27.27H-24.82a.27.27,0,0,1-.27-.27v-14.84A.27.27,0,0,1-24.82-150.65Zm0-.81a1.09,1.09,0,0,0-1.08,1.08v14.84a1.09,1.09,0,0,0,1.08,1.08H-10a1.08,1.08,0,0,0,1.08-1.08v-14.84A1.09,1.09,0,0,0-10-151.46Z"/></clipPath><clipPath id="clip-path-3"><path class="cls-2" d="M13-142.79l-.31-.49c-.1-.16-.2-.34-.29-.52a4.77,4.77,0,0,1-.47-1.15,1.92,1.92,0,0,1,.63-1.72,1.92,1.92,0,0,1,.18-.22c.39-.46.93-1,1.35-1.45a2.56,2.56,0,0,0,.73-1.7c0-.39,0-1.22-.29-1.37a2.88,2.88,0,0,1-.12,1.56,3.39,3.39,0,0,1-1.12,1.48c-.38.33-1,.92-1.34,1.26a3.49,3.49,0,0,0-.72,1,1.4,1.4,0,0,0,.23,1.35c.12.2.23.36.35.53s.27.34.38.5.26.31.39.47a4.79,4.79,0,0,0,.42.46"/></clipPath><clipPath id="clip-path-4"><path class="cls-2" d="M18.28-137.76c.16.2,0,.28-.23.36a28.34,28.34,0,0,1-5.46.44,22.93,22.93,0,0,1-3.22-.16c-.16,0-.91-.11-.94-.26s.11-.17.17-.2a4.11,4.11,0,0,1,1-.23,3.48,3.48,0,0,0,.36-.05,4.66,4.66,0,0,0-2.46.53c-.22.23.15.34.4.4a22.05,22.05,0,0,0,3.86.29c1.52,0,5.16,0,6.5-.69.08,0,.23-.13.25-.21s-.14-.2-.22-.22"/></clipPath><clipPath id="clip-path-5"><path class="cls-2" d="M14.14-141.56a4.52,4.52,0,0,0,.81-.59,1.55,1.55,0,0,0,.5-.89,1.87,1.87,0,0,0-.37-1c-.48-.7-.86-1.1-.21-1.87a4.18,4.18,0,0,1,.72-.67,12.31,12.31,0,0,1,1.24-.85l.44-.28a8,8,0,0,0-1.08.36,9,9,0,0,0-1,.45c-1,.55-1.92,1.4-1.53,2.57.26.79,1,1.27,1,1.87a2.44,2.44,0,0,1-.51.91"/></clipPath><clipPath id="clip-path-6"><path class="cls-2" d="M16-138.37a4.74,4.74,0,0,1-.86-.37c-.17-.09-.1-.08-.32,0a17.21,17.21,0,0,1-3.22.16c-.24,0-.91,0-1-.22s0-.2.07-.27c-.6.1-1.22.53-.37.89a9.4,9.4,0,0,0,4,.24,11.83,11.83,0,0,0,1.78-.4"/></clipPath><clipPath id="clip-path-7"><path class="cls-2" d="M16-139.58a1.38,1.38,0,0,1-.56-.31c-.11-.09-.07-.07-.33,0a14.21,14.21,0,0,1-4.4.1c-.1,0-.22-.1-.23-.22s.11-.22.16-.29c-.62.08-1.22.67-.38,1a12,12,0,0,0,4,.21,10.3,10.3,0,0,0,1.76-.41"/></clipPath><clipPath id="clip-path-8"><path class="cls-2" d="M17.27-142.27l-.43.06-.43.05c-.9.1-1.89.19-2.78.23-.7,0-3.33.11-3.72-.2,0-.13.16-.22.27-.27a8.92,8.92,0,0,1,1.38-.39,7.57,7.57,0,0,0-2.72.61c-.6.31.41.44.78.48a26.68,26.68,0,0,0,6.44-.14,1.46,1.46,0,0,0,.68-.15c.16-.09.38-.18.53-.28"/></clipPath><clipPath id="clip-path-9"><path class="cls-2" d="M9.88-135.8a13.77,13.77,0,0,0,2.53.35,25.16,25.16,0,0,0,2.88,0,12.4,12.4,0,0,0,3.69-.61c.25-.1.71-.34.75-.58a2.25,2.25,0,0,0-.21.12c-1.87,1-6.14.93-8.34.8l-1.3-.08"/></clipPath><clipPath id="clip-path-10"><path class="cls-2" d="M17.62-142.49a1.15,1.15,0,0,1,1.23.24,1.36,1.36,0,0,1,.09,1.4,4.68,4.68,0,0,1-1.42,1.57,2.27,2.27,0,0,0-.25.18,4.53,4.53,0,0,0,1.4-.68,2.61,2.61,0,0,0,1-1.2,1.35,1.35,0,0,0-.5-1.58,1.26,1.26,0,0,0-.8-.23,1,1,0,0,0-.73.3"/></clipPath><clipPath id="clip-path-11"><path class="cls-1" d="M42.84-148.78a.67.67,0,0,1,.65.68.66.66,0,0,1-.65.68.66.66,0,0,1-.64-.68A.67.67,0,0,1,42.84-148.78Zm1.87-1.1a10.42,10.42,0,0,0-1.65.15c-1.46.27-1.72.83-1.72,1.86v1.36h3.44v.45H40.05a2.17,2.17,0,0,0-2.15,1.81,6.92,6.92,0,0,0,0,3.64c.24,1.05.82,1.81,1.83,1.81h1.18v-1.63a2.23,2.23,0,0,1,2.15-2.22H46.5a1.77,1.77,0,0,0,1.72-1.82v-3.4a2,2,0,0,0-1.72-1.86A10.81,10.81,0,0,0,44.71-149.88Z"/></clipPath><clipPath id="clip-path-12"><path class="cls-1" d="M46.76-137.4a.66.66,0,0,1,.64.67.66.66,0,0,1-.64.68.66.66,0,0,1-.65-.68A.66.66,0,0,1,46.76-137.4Zm1.93-8.55v1.57a2.24,2.24,0,0,1-2.15,2.25H43.11a1.79,1.79,0,0,0-1.72,1.81v3.37c0,1,.81,1.53,1.72,1.8a5.57,5.57,0,0,0,3.43,0c.86-.25,1.72-.77,1.72-1.8v-1.35H44.82v-.45H50c1,0,1.37-.72,1.71-1.8a6.19,6.19,0,0,0,0-3.6c-.24-1-.71-1.8-1.71-1.8Z"/></clipPath><clipPath id="clip-path-13"><path class="cls-3" d="M77-109.66l-2.93,2.92a.24.24,0,0,1-.35,0l-.66-.65a.25.25,0,0,1,0-.36l2.09-2.09-2.09-2.09a.25.25,0,0,1,0-.36l.66-.65a.24.24,0,0,1,.35,0L77-110A.25.25,0,0,1,77-109.66Z"/></clipPath><clipPath id="clip-path-14"><rect class="cls-3" x="77.97" y="-108.42" width="5.55" height="1.51" rx="0.38"/></clipPath><clipPath id="clip-path-15"><polygon class="cls-1" points="-26.88 -80.18 -6.48 -80.18 -6.48 -72.75 -16.68 -72.75 -16.68 -71.43 -21.36 -71.43 -21.36 -72.75 -26.88 -72.75 -26.88 -80.18"/></clipPath><clipPath id="clip-path-16"><polygon class="cls-1" points="-24.7 -73.62 -22.88 -73.62 -22.88 -77.33 -21.78 -77.33 -21.78 -73.62 -21.05 -73.62 -21.05 -78.72 -24.7 -78.72 -24.7 -73.62"/></clipPath><clipPath id="clip-path-17"><path class="cls-1" d="M-16.68-75.39h-1.09v-2.08h1.09Zm-2.92-3.33v5.83h1.83v-1.25h1.82v-4.58Z"/></clipPath><clipPath id="clip-path-18"><polygon class="cls-1" points="-15.22 -78.72 -15.22 -73.62 -13.18 -73.62 -13.18 -77.33 -11.95 -77.33 -11.95 -73.62 -10.72 -73.62 -10.72 -77.33 -9.49 -77.33 -9.49 -73.62 -8.67 -73.62 -8.67 -78.72 -15.22 -78.72"/></clipPath><clipPath id="clip-path-19"><path class="cls-1" d="M56-76.93v2.77a1.38,1.38,0,0,1-1.38,1.38H51.8a1.38,1.38,0,0,1-1.38-1.38v-2.77a1.38,1.38,0,0,1,1.38-1.38h2.77A1.38,1.38,0,0,1,56-76.93Zm-7.38,0v2.77a1.38,1.38,0,0,1-1.38,1.38H44.42A1.38,1.38,0,0,1,43-74.16v-2.77a1.38,1.38,0,0,1,1.38-1.38h2.77A1.38,1.38,0,0,1,48.57-76.93Zm-7.37,0v2.77a1.38,1.38,0,0,1-1.39,1.38H37.05a1.38,1.38,0,0,1-1.39-1.38v-2.77a1.38,1.38,0,0,1,1.39-1.38h2.76A1.38,1.38,0,0,1,41.2-76.93Z"/></clipPath><clipPath id="clip-path-20"><path class="cls-1" d="M84.63-71.65h-3.7v-5.86h3.58v1.09H82.25v1.22h2.13v1.07H82.25v1.4h2.38v1.08Zm-.3,4.86H71.55v-3.77H84.33ZM71.09-71.65v-5.86h3.57v1.09H72.4v1.22h2.13v1.07H72.4v1.4h2.38v1.08Zm4.21-5.86h1.5l.51,1.07c.17.36.3.65.44,1h0c.13-.38.24-.64.39-1l.49-1.07h1.49l-1.63,2.86,1.72,3H78.72l-.53-1.06c-.21-.41-.35-.71-.51-1.05h0c-.12.34-.26.64-.44,1.05l-.48,1.06h-1.5l1.68-3ZM71.55-85h9v4a.4.4,0,0,0,.39.39h3.42v2H71.55Zm14,6.37h-.47v-2.31a.09.09,0,0,0,0,0,.34.34,0,0,0-.09-.25L81.2-85.66h0a.24.24,0,0,0-.08-.06l0,0-.08,0H71.55a.78.78,0,0,0-.78.78v6.37H70.3a1.12,1.12,0,0,0-1.11,1.13v5.82a1.12,1.12,0,0,0,1.11,1.13h.47v4a.78.78,0,0,0,.78.78H84.33a.78.78,0,0,0,.78-.78v-4h.47a1.12,1.12,0,0,0,1.11-1.13v-5.82A1.12,1.12,0,0,0,85.58-78.64Z"/></clipPath><clipPath id="clip-path-21"><path class="cls-1" d="M108.77,15.84a1,1,0,0,0-1,1h1.95A1,1,0,0,0,108.77,15.84Zm0-1.2a2.45,2.45,0,0,1,2.62,2.71v.49h-3.65v.09a1,1,0,0,0,1.07,1.16,1,1,0,0,0,1-.49h1.55a2.34,2.34,0,0,1-2.57,1.73,2.5,2.5,0,0,1-2.71-2.8C106.1,15.71,107.08,14.64,108.77,14.64Zm-7.29-1.82c1.64,0,2.8.89,2.84,2.22h-1.69a1,1,0,0,0-1.15-.84c-.62,0-1.07.31-1.07.75s.31.63,1.07.76l.93.18c1.42.26,2,.89,2,2,0,1.47-1.12,2.36-3,2.36s-2.94-.85-3-2.23h1.73c0,.54.58.85,1.29.85s1.16-.31,1.16-.8-.31-.62-1.11-.76l-.94-.17c-1.29-.27-1.95-1-1.95-2.09C98.63,13.71,99.74,12.82,101.48,12.82ZM97.83,2.91A1.8,1.8,0,0,0,96,4.73V21.09a1.8,1.8,0,0,0,1.82,1.82h16.36A1.8,1.8,0,0,0,116,21.09V4.82l-6.8,6.84L104.59,7l1.91-1.91,2.67,2.67,4.89-4.89Z"/></clipPath><clipPath id="clip-path-22"><path class="cls-2" d="M144.3,10.82l1.06-.51a.15.15,0,0,1,.15,0,1.78,1.78,0,0,1,.5.76s0,0,0,0c.2-.39,1.44-2.41,2.93-2.71a12,12,0,0,0-1.49,1.73,16.52,16.52,0,0,0-1,1.88.25.25,0,0,1-.2.15H145a.11.11,0,0,1-.1-.1,1.56,1.56,0,0,0-.65-1.2s0,0,0,0"/></clipPath><clipPath id="clip-path-23"><path class="cls-2" d="M125.86,15.86l-.34.76a.15.15,0,0,0,.12.21h4.27a.49.49,0,0,0,.43-.29l.71-1.38A.11.11,0,0,0,131,15H128.9c-.09,0-.13-.11-.11-.19l.43-1a.3.3,0,0,1,.3-.2h.23a.11.11,0,0,1,.09.18l-.25.49a.15.15,0,0,0,.11.21h1.44a.49.49,0,0,0,.41-.26l.51-.91c0-.11,0-.24-.12-.24H127.6a.44.44,0,0,0-.39.27l-.91,1.77a.13.13,0,0,0,.09.21h2.44a.12.12,0,0,1,.1.18l-.44.86s0,.05-.07.05h-.61c-.07,0-.12-.08-.07-.13l.25-.47a.1.1,0,0,0-.09-.16h-1.72a.34.34,0,0,0-.32.21"/></clipPath><clipPath id="clip-path-24"><path class="cls-2" d="M132.9,13.77l-.59,1c-.05.09,0,.18.12.18h1.73a.47.47,0,0,0,.4-.23l.31-.52a.43.43,0,0,1,.36-.21h0a.13.13,0,0,1,.12.18l-.4.8a.52.52,0,0,1-.45.25H132l-.88,1.44a.14.14,0,0,0,.12.21h4.29a.49.49,0,0,0,.42-.25l1.59-2.84a.14.14,0,0,0-.12-.2h-4.17a.54.54,0,0,0-.38.23M134,16.42h-.14a.14.14,0,0,1-.12-.21l.21-.43a.38.38,0,0,1,.31-.19.2.2,0,0,1,.19.3l-.19.34a.27.27,0,0,1-.26.19m5.69-5.05-.07.14-2.92,5.11a.15.15,0,0,0,.12.21h1.66a.39.39,0,0,0,.33-.18l1.59-2.59a.5.5,0,0,1,.4-.22.18.18,0,0,1,.17.25l-1.42,2.53a.15.15,0,0,0,.14.21h1.54a.56.56,0,0,0,.47-.28l1.26-2.3.28-.55s.14-.27,0-.27H141a.09.09,0,0,1-.07-.12l.24-.43a.57.57,0,0,0,0-.55,4.57,4.57,0,0,0-.83-1.1c-.14,0-.47-.11-.61.14"/></clipPath><clipPath id="clip-path-25"><path class="cls-2" d="M144.15,13.16l-1.73,3.38a.19.19,0,0,0,.14.29h1.82a.13.13,0,0,0,.13-.11l1.61-3.37a.18.18,0,0,0-.13-.27h-1.68c-.1,0-.14,0-.16.08"/></clipPath><clipPath id="clip-path-26"><rect class="cls-1" x="144.35" y="8.38" width="4.6" height="3.69"/></clipPath><clipPath id="clip-path-28"><path class="cls-2" d="M-23,57.71a1.92,1.92,0,0,1-.93-.24A2,2,0,0,1-25,55.71v-8a2,2,0,0,1,2-2,2,2,0,0,1,2,2V52l6.31-4.26-9.37-6.34a2,2,0,0,1-.55-2.77A2,2,0,0,1-21.93,38l11.84,8a2,2,0,0,1,.88,1.66,2,2,0,0,1-.88,1.67l-11.84,8a1.9,1.9,0,0,1-1.09.34"/></clipPath><clipPath id="clip-path-29"><rect class="cls-1" x="34.28" y="37.67" width="20.49" height="20"/></clipPath><clipPath id="clip-path-30"><path class="cls-2" d="M46.24,56.09l-.32,0h-.24l.2-.44.36.39"/></clipPath><clipPath id="clip-path-31"><path class="cls-2" d="M46.11,47.83a5.14,5.14,0,0,1-.54.37l-.62.37a5.08,5.08,0,0,0-.75.15h0a.18.18,0,0,0-.07.08l-.63,2.07-3.4.74L39,50.88l-.32-2.48c.61-.11,1.43-.24,2.4-.35l-.3.39-.58.82.85-.55a13.49,13.49,0,0,1,1.43-.79c1-.07,1.92-.1,2.89-.1Zm-5.29,2.79a2,2,0,0,1,.94-.11.65.65,0,0,0,.14,0H42c.44,0,.81,0,.8-.64s-.31-1.23-.75-1.23-.87.56-.84,1.24a1,1,0,0,0,.08.4.73.73,0,0,0-.5.34ZM52,48.39l-.3,2.11-1.08.75-3.4-.38-.63-2.06a.13.13,0,0,0-.1-.09,4.23,4.23,0,0,0-.88-.16h.08a13.61,13.61,0,0,0,2.64-.62A35.67,35.67,0,0,1,52,48.39Zm-2.16,2a.44.44,0,0,0-.51-.24.74.74,0,0,0,.05-.42c-.05-.68-.45-1.22-.89-1.2s-.72.57-.7,1.25.39.68.83.66C49.21,50.38,49.54,50.2,49.84,50.34Z"/></clipPath><clipPath id="clip-path-32"><path class="cls-2" d="M48.67,49.29c0,.22-.09.4-.22.4s-.22-.17-.23-.38h0c0-.21.1-.39.22-.39h0c.12,0,.22.16.22.38h0m-6.3.29c0,.21-.09.39-.22.4s-.22-.16-.23-.38h0c0-.22.1-.4.22-.4h0c.13,0,.23.16.23.38"/></clipPath><clipPath id="clip-path-33"><path class="cls-2" d="M53.49,49.32l-.41-.24-.28,2a.18.18,0,0,1-.06.09l-.41.28s0,.09,0,.13a1.17,1.17,0,0,0,1-.4A7.93,7.93,0,0,0,53.53,50c0-.51,0-.62,0-.66M47.2,56.78a2.08,2.08,0,0,1-.72-.45s0,0,0,0l-.5.07h-.37a2,2,0,0,1-1,.68,6.39,6.39,0,0,0,2.65-.26M38.5,52l0-.09L38,51.52a.12.12,0,0,1-.06-.1l-.26-2.06a4.41,4.41,0,0,0-.47.27s-.09.15,0,.64a10,10,0,0,0,.31,1.36A1.46,1.46,0,0,0,38.5,52m7.91-.1a.12.12,0,0,1-.12-.09l-.65-2.12a1.57,1.57,0,0,0-.29,0,1.52,1.52,0,0,0-.29,0l-.64,2.05a.13.13,0,0,1-.1.1l-.3.07a.52.52,0,0,1-.4.34,33.36,33.36,0,0,1-3.65.94,3.18,3.18,0,0,1-.83-.39,4.3,4.3,0,0,1-.18-.46h0a9.16,9.16,0,0,0,1.17,2.21c.82-.23,1.53-.46,1.75-.53.46-.69,1.12-1.38,1.58-1.41h.25a4.4,4.4,0,0,1,.64,0,.88.88,0,0,1-.23-.42,2,2,0,0,0,1.35.36A2.37,2.37,0,0,0,46.7,52v-.13l-.3,0"/></clipPath><clipPath id="clip-path-34"><path class="cls-2" d="M47,52.14A.69.69,0,0,1,46.7,52V52a.78.78,0,0,1-.33.55,5,5,0,0,1,1.07-.25.54.54,0,0,1,.38.15l0,0,1.25,1,1.22.13.64,0h.18a9.92,9.92,0,0,0,.57-1.31,4.09,4.09,0,0,1-1,.56A32.21,32.21,0,0,1,47,52.14"/></clipPath><clipPath id="clip-path-35"><path class="cls-2" d="M54.34,44.74a1.23,1.23,0,0,0,0-.2s0-.1,0-.15a4.63,4.63,0,0,0-.61-.41L53,43.61l-.77-.32-.39-.15L51.41,43c.27,0,.55.11.82.17l.53.15a7.89,7.89,0,0,0-14.89,0l.52-.15c.27-.06.55-.13.82-.17l-.39.14-.39.15-.76.32c-.26.12-.5.24-.74.37a6.49,6.49,0,0,0-.61.41s0,.1,0,.15,0,.13,0,.2,0,.27,0,.41a7.52,7.52,0,0,0,.05.82,5.42,5.42,0,0,0,.17.8,2.4,2.4,0,0,0,.12.38c0,.06,0,.13.08.19a.3.3,0,0,1,0,.08l0,0,.06,0,.13,0,.24.11h0L37,46.78s.49-.12,1.24-.26l-.19,0a3.22,3.22,0,0,1-.5-.16l-.23-.11a.8.8,0,0,1-.21-.15,13.12,13.12,0,0,0,4,0c1.39-.14,2.77-.23,4.17-.24s2.77.1,4.16.24a13.12,13.12,0,0,0,4,0,.75.75,0,0,1-.2.15l-.24.11a2.91,2.91,0,0,1-.5.16l-.08,0c.82.15,1.3.27,1.35.28l-.22.82.13-.06.13,0,.06,0,0,0s0-.05,0-.08.05-.13.08-.19.09-.25.13-.38a7.08,7.08,0,0,0,.16-.8,7.52,7.52,0,0,0,0-.82c0-.14,0-.27,0-.41"/></clipPath><clipPath id="clip-path-36"><path class="cls-2" d="M48.72,43.15a5.92,5.92,0,0,1-.17,1.65.09.09,0,0,0,0,.07l-.66-.06a3.38,3.38,0,0,0,.31-1.24,4.74,4.74,0,0,0,.52-.42m-6.3.42a3.6,3.6,0,0,0,.31,1.24l-.66.06a.09.09,0,0,0,0-.07,5.92,5.92,0,0,1-.17-1.65,4.74,4.74,0,0,0,.52.42m9,1.81h0l.07,0a4.31,4.31,0,0,1,.6.22,2.29,2.29,0,0,1-.64-1.27,4.93,4.93,0,0,1,0,1M41.63,43l-2.1.59a6.61,6.61,0,0,0-.07,1.63h0A5.9,5.9,0,0,1,39.68,44c.07-.17.51-.28.85-.36s.87-.24,1,.22a3.48,3.48,0,0,0,.23.71A7,7,0,0,1,41.63,43M49,43a6.19,6.19,0,0,1-.13,1.64,3.1,3.1,0,0,0,.28-.78c.1-.46.64-.3,1-.22s.78.19.85.36a4.8,4.8,0,0,1,.2,1.15,6.52,6.52,0,0,0-.07-1.56L49,43m-6.59.18.23.16a.14.14,0,0,1,.06.11A3.32,3.32,0,0,0,43,44.76l0,0c.76,0,1.52-.07,2.28-.07s1.53,0,2.29.07a0,0,0,0,1,0,0,3.32,3.32,0,0,0,.32-1.27.14.14,0,0,1,.06-.11l.22-.16v0a10.3,10.3,0,0,0-.32-3.63c0,.48-.12,4.54-1.15,4.54H43.92c-1.09,0-1.17-4.58-1.17-4.58l-.06.16a10.37,10.37,0,0,0-.29,3.53m-3.2,2.17h0a5.46,5.46,0,0,1,0-1,2.37,2.37,0,0,1-.65,1.27,4.31,4.31,0,0,1,.6-.22l.07,0"/></clipPath><clipPath id="clip-path-37"><path class="cls-2" d="M52.31,51.55l-.06.26a2.19,2.19,0,0,0,.79.06,2.18,2.18,0,0,0,.27-.72,1.17,1.17,0,0,1-1,.4m-8.37,5.62a5.41,5.41,0,0,0,1.69.18,6.84,6.84,0,0,0,2.07-.47,2.11,2.11,0,0,1-.5-.1,6.39,6.39,0,0,1-2.65.26,2.84,2.84,0,0,1-.48.11l-.13,0m-5.4-5.08s0-.08,0-.12a1.46,1.46,0,0,1-1.07-.34,2,2,0,0,0,.24.55,2.39,2.39,0,0,0,.87-.09m.6.68a3.18,3.18,0,0,0,.83.39,33.36,33.36,0,0,0,3.65-.94.52.52,0,0,0,.4-.34l-4.15.91h0a.11.11,0,0,1-.08,0l-.17-.11-.48-.33h0l-.19-.14v0l0,.09h0a4.3,4.3,0,0,0,.18.46M51.86,52c0-.1,0-.2.07-.29l-.14.09-.39.27-.42.29s0,0-.07,0h0l-4.18-.47V52a.69.69,0,0,0,.32.17,32.21,32.21,0,0,0,3.69.78,4.09,4.09,0,0,0,1-.56v0l.12-.35"/></clipPath><clipPath id="clip-path-38"><path class="cls-2" d="M47.44,46.45l-.11.14a9.29,9.29,0,0,1-.79.87l-1.17,0c-.67,0-1.3,0-1.9.05a15.44,15.44,0,0,1,3-.9c.33-.06.66-.11,1-.14m-5,.38a7.35,7.35,0,0,0-1,.8c-.74.07-1.48.17-2.21.28a16.8,16.8,0,0,1,3.19-1.08m10.41,1.73L52.52,51l-1.66,1.14-4.33-.48-.65-2.12a.13.13,0,0,0-.11-.09,2.27,2.27,0,0,0-.42,0,2.45,2.45,0,0,0-.43,0,.13.13,0,0,0-.11.09l-.63,2.06-4.31,1-1.71-1.18-.34-2.68.23-.12.35-.07L38.72,51a.21.21,0,0,0,.06.1l1.18.8a.11.11,0,0,0,.08,0h0l3.54-.78h0a.13.13,0,0,0,.07-.08L44.35,49a3.38,3.38,0,0,1,2,0L47,51a.12.12,0,0,0,.12.09l3.54.4.1,0,1.17-.81a.15.15,0,0,0,.06-.1l.31-2.16.59.12m.44-1.5L53,48.2a32.88,32.88,0,0,0-3.85-.58,9,9,0,0,0,1.79-1c1.11.16,1.93.32,2.37.42m-15.88,0,.08.32c.21-.16.42-.32.64-.47l-.72.15"/></clipPath><clipPath id="clip-path-39"><path class="cls-2" d="M49.38,46.43,48,46.36a1.77,1.77,0,0,1-.16.22,8.51,8.51,0,0,1-1.37,1.47,11.4,11.4,0,0,0,3.32-1.6l-.39,0M46,46.31H44.21l-.64.3h0a7.6,7.6,0,0,0-1.73,1.22l.22-.11a11,11,0,0,1,3.39-1.42H46M42,46.38l-.89,0-1,.06-.52,0-.14,0a13.92,13.92,0,0,0-3.34,2.71l.06-.08A13.58,13.58,0,0,1,42,46.38m9.87,7.54,0,0a1.92,1.92,0,0,1-.87.17c-.22,0-.44,0-.68,0L49,53.93h-.06l0,0-1.29-1-.06-.05c-.06,0-.06,0-.1,0a12.74,12.74,0,0,0-1.89.52l-.07,0-.07,0a5.71,5.71,0,0,0-1.7-.28h-.23c-.09,0-.61.25-1.27,1.28l0,.07-.08,0s-1.15.37-2.36.71l-.08,0-.07,0-.93-.42.1,0c.44.38,1.29,1.1,1.39,1.2l0,.06-.06-.08h0a2.44,2.44,0,0,0,.65.45,1.23,1.23,0,0,0,.37.12l.19,0h.2c.27,0,.54,0,.8-.06l.81-.08.79-.1.4-.07.18,0a.67.67,0,0,0,.14-.11l.3-.27.28-.29.44-.49.06-.07h0l.09.07.56.41c.23.16.47.32.71.46l.19.08h.19l.42,0,.84-.15.84-.17c.28-.05.55-.12.83-.19a1.87,1.87,0,0,0,.4-.13,1.46,1.46,0,0,0,.35-.22,2.83,2.83,0,0,0,.54-.65h0a2.6,2.6,0,0,0,.19-.42m-5.23-13h.49V40h-3.6v1H44v-.5h1v3h-.42v.57h1.42v-.57h-.42v-3h1v.5"/></clipPath><clipPath id="clip-path-40"><path class="cls-2" d="M50.39,46.49h0l-.61,0h0a11.15,11.15,0,0,1-3.32,1.6l0,0a11,11,0,0,0,2.48-.74,8.27,8.27,0,0,0,1.39-.76l.1-.08m-5-.19a11,11,0,0,0-3.39,1.42c.4-.21.8-.39,1.22-.56l.15-.06,0,0,.12,0,.07,0,.12,0,.09,0,.1,0,.1,0,.1,0,.12,0,.09,0,.14,0,.08,0,.21-.06.49-.14c.22-.06.44-.12.66-.16h-.52M42,46.38a13.51,13.51,0,0,0-5.86,2.82l-.06.07a19.18,19.18,0,0,1,5.37-2.58l.23-.06c.4-.11.8-.21,1.21-.28l-.89,0m10.3,7.34-.07,0h0l0,0,0,0h0l0,0h0l-.05,0h0l-.11.06a2.6,2.6,0,0,1-.19.42h0a2.83,2.83,0,0,1-.54.65,1.46,1.46,0,0,1-.35.22,1.87,1.87,0,0,1-.4.13l-.83.19-.84.17-.84.15-.42,0h-.19l-.19-.08c-.24-.14-.48-.3-.71-.46l-.56-.41v0h0l0,0h0l0,0,.15.18,0,0c.08.09.4.46.79.84a1.46,1.46,0,0,0,1.06.43,2.1,2.1,0,0,0,.43-.05l.44-.11L50,56l.07,0,.12,0,.2,0a1.66,1.66,0,0,0,1.25-.8l.26-.51.45-.84h0l0-.06-.07,0M45.71,55l0,0c-.15.16-.29.33-.44.5l-.28.28-.3.27a.67.67,0,0,1-.14.11l-.18,0-.4.07-.79.1-.81.08c-.26,0-.53.05-.8.06h-.2l-.19,0a1.23,1.23,0,0,1-.37-.12,2.44,2.44,0,0,1-.65-.45h0l.08.09h0l0-.06c-.1-.1-1-.82-1.39-1.2l-.1,0,.25.36c.13.19.27.37.4.55l.18.24A2.67,2.67,0,0,0,41.74,57l.46,0,.11,0h.1c1-.11,1.29-.16,1.45-.19l.11,0h0a2.63,2.63,0,0,0,.69-.21,1.11,1.11,0,0,0,.57-.52c.28-.62.33-.76.34-.77l.1-.26"/></clipPath><clipPath id="clip-path-41"><path class="cls-2" d="M48.45,49.35a.22.22,0,0,0,.22-.23.21.21,0,0,0-.22-.21h0a.22.22,0,0,0-.22.22h0A.24.24,0,0,0,48.45,49.35Zm1.39,1c-.3-.14-.63,0-1.22,0-.44,0-.81,0-.83-.66s.26-1.24.7-1.25.84.52.89,1.2a.74.74,0,0,1-.05.42A.44.44,0,0,1,49.84,50.34Zm-7.69-.83a.21.21,0,0,0,.22-.22.22.22,0,0,0-.23-.22.22.22,0,0,0-.22.23A.22.22,0,0,0,42.15,49.51Zm.68.36c0,.68-.36.64-.8.64H41.9a.65.65,0,0,1-.14,0,2,2,0,0,0-.94.11.73.73,0,0,1,.5-.34,1,1,0,0,1-.08-.4c0-.68.4-1.23.84-1.24S42.83,49.19,42.83,49.87Zm8.33-4.68a.53.53,0,0,1,0,.13l-.52-.13a17.45,17.45,0,0,0-1.76-.29H48.8v0a1.33,1.33,0,0,0,0-.19A6.19,6.19,0,0,0,49,43l2.1.59A6.52,6.52,0,0,1,51.16,45.19Zm-2.61-.39a.09.09,0,0,0,0,.07l-.66-.06a3.38,3.38,0,0,0,.31-1.24,4.74,4.74,0,0,0,.52-.42A5.92,5.92,0,0,1,48.55,44.8Zm-6.48.07a.09.09,0,0,0,0-.07,5.92,5.92,0,0,1-.17-1.65,4.74,4.74,0,0,0,.52.42,3.6,3.6,0,0,0,.31,1.24Zm-.31,0-.89.12-.87.17-.53.13v-.06a6.61,6.61,0,0,1,.07-1.63l2.1-.59a7,7,0,0,0,.11,1.57c0,.08,0,.17.07.26v0Zm10.53.84,0,0-.09,0-.06,0a4.31,4.31,0,0,0-.6-.22l-.07,0h0a4.93,4.93,0,0,0,0-1c0-.25-.05-.55-.1-.87a.13.13,0,0,0-.1-.11L51,43.3a5.35,5.35,0,0,0-1.05-3.38,6.06,6.06,0,0,1,.83,3.32l-1.85-.52h-.14l-.13.12a6.55,6.55,0,0,0,0-.75V42a7,7,0,0,0-.82-2.92s.06.18.13.45a10.3,10.3,0,0,1,.32,3.63v0h0l-.22.16a.14.14,0,0,0-.06.11,3.32,3.32,0,0,1-.32,1.27,0,0,0,0,0,0,0c-.76,0-1.53-.07-2.29-.07s-1.52,0-2.28.07l0,0a3.32,3.32,0,0,1-.32-1.27.14.14,0,0,0-.06-.11l-.23-.16a10.37,10.37,0,0,1,.29-3.53,4.64,4.64,0,0,1,.17-.57A7.4,7.4,0,0,0,42,42.88l-.13-.12h-.13l-1.86.52a6.15,6.15,0,0,1,.83-3.32,5.36,5.36,0,0,0-1,3.39l-.3.08a.13.13,0,0,0-.1.11,6.42,6.42,0,0,0-.09.87,5.46,5.46,0,0,0,0,1h0l-.07,0a4.31,4.31,0,0,0-.6.22l-.06,0h0l-.09,0,0,0h0a3.31,3.31,0,0,1,.42-.12l.43-.1c.29-.05.58-.1.87-.13s.59-.07.88-.09l.88-.07c1.17-.07,2.34-.09,3.52-.09s2.35,0,3.53.09l.87.07c.3,0,.59,0,.88.09s.58.08.87.13l.43.1a2.9,2.9,0,0,1,.42.12Z"/></clipPath><clipPath id="clip-path-42"><path class="cls-2" d="M45.64,40.44v3h.42v.57H44.64v-.57h.42v-3H44v.5h-.49V40h3.6v1h-.49v-.5Zm1.89.86V39.59H43.17V41.3h1.24v-.5h.28v2.32h-.42v1.29h2.16V43.12H46V40.8h.28v.5Z"/></clipPath><clipPath id="clip-path-43"><rect class="cls-1" x="66.51" y="37.58" width="19.26" height="20"/></clipPath></defs><title>selendroid</title><rect class="cls-1" x="-458.32" y="-1119.93" width="1366" height="2644"/><rect class="cls-1" x="-749.93" y="-1249.51" width="1366" height="3311"/><path class="cls-3" d="M77-109.66l-2.93,2.92a.24.24,0,0,1-.35,0l-.66-.65a.25.25,0,0,1,0-.36l2.09-2.09-2.09-2.09a.25.25,0,0,1,0-.36l.66-.65a.24.24,0,0,1,.35,0L77-110A.25.25,0,0,1,77-109.66Z"/><g class="cls-17"><rect class="cls-3" x="-483.09" y="-458.87" width="742.75" height="1800.34"/></g><rect class="cls-3" x="77.97" y="-108.42" width="5.55" height="1.51" rx="0.38"/><g class="cls-18"><rect class="cls-3" x="-482.09" y="-458.87" width="742.75" height="1800.34"/></g><rect class="cls-1" x="-508.34" y="-1175.79" width="1366" height="3024"/><path class="cls-25" d="M2.56,14.9A28.84,28.84,0,0,1,3.3,8.07,12,12,0,0,1,4.67,4.62,3.07,3.07,0,0,1,6.91,2.93a7,7,0,0,1,2.77.22c3.59,1.17,9,3.86,11.82,8.1a6.41,6.41,0,0,1,1,2.91,4.08,4.08,0,0,1-1.28,3.6c-1.71,2-9.77,5-15.63,5.1a2.11,2.11,0,0,1-1.94-1,6.66,6.66,0,0,1-.57-1.48A23.63,23.63,0,0,1,2.56,14.9Zm13.37,0c.43,0,.85,0,1.27,0A2.69,2.69,0,0,0,20,12.69a2.8,2.8,0,0,0-.34-1.84A3.15,3.15,0,0,0,17.9,9.53a5.76,5.76,0,0,0-3-.09,3.3,3.3,0,0,0-2.78,2.79,20,20,0,0,0-.08,2.45,10.33,10.33,0,0,0,.08,1.67,2.62,2.62,0,0,0,1.54,2.12,5.19,5.19,0,0,0,4.76,0,3,3,0,0,0,1.68-2.76c0-.24-.08-.34-.33-.3l-.91.14c-.17,0-.26.1-.27.28a1.53,1.53,0,0,1-1.11,1.43,3.54,3.54,0,0,1-2.4.11,1.88,1.88,0,0,1-1.19-.71,1.21,1.21,0,0,1-.19-1.22c.17-.39.56-.44.93-.46ZM7.52,9.1c-.62.08-1.25.13-1.86.26a2.53,2.53,0,0,0-1.9,1.48,3.22,3.22,0,0,0-.25,1.47,2.17,2.17,0,0,0,1.41,2,6.49,6.49,0,0,0,2.57.45,3.37,3.37,0,0,1,1.6.31,1.07,1.07,0,0,1,.63,1.05,1,1,0,0,1-.64,1,4,4,0,0,1-3,.18,2.52,2.52,0,0,1-1.24-.72c-.19-.23-.38-.48-.56-.72s-.27-.23-.39,0-.37.61-.57.9a.45.45,0,0,0,.07.65A4.53,4.53,0,0,0,6.4,19a6.06,6.06,0,0,0,3.36-.44,2.62,2.62,0,0,0,1.49-1.68,2.77,2.77,0,0,0-2.11-3.47c-.74-.14-1.51-.14-2.26-.24a9.67,9.67,0,0,1-1.32-.28.64.64,0,0,1-.45-.52,1.11,1.11,0,0,1,.47-1.24,2.59,2.59,0,0,1,1.48-.39,3.78,3.78,0,0,1,2.66.54.74.74,0,0,0,.28.14.31.31,0,0,0,.27-.06c.22-.33.42-.66.61-1a.28.28,0,0,0-.07-.25,10.48,10.48,0,0,0-1.05-.55A6.31,6.31,0,0,0,7.52,9.1Z"/><path class="cls-26" d="M13.65,13.49A3,3,0,0,1,14,12.1a2.25,2.25,0,0,1,2-1.18,3.17,3.17,0,0,1,1.66.24,1.25,1.25,0,0,1,.79.75,1,1,0,0,1-1,1.45c-.53.05-1.06.07-1.59.08C15.14,13.47,14.41,13.47,13.65,13.49Z"/><rect class="cls-1" x="-391.14" y="-976.34" width="1366" height="2291"/><rect class="cls-1" x="-405.21" y="-1353.7" width="1366" height="2291"/><rect class="cls-1" x="-606.65" y="-1095.92" width="1366" height="2291"/><rect class="cls-1" x="-606.65" y="-1095.92" width="1366" height="2291"/><rect class="cls-1" x="-606.65" y="-1095.92" width="1366" height="2291"/><rect class="cls-1" x="-246.71" y="-1634.92" width="1366" height="2291"/><rect class="cls-1" x="-543.75" y="-1096.92" width="1366" height="2291"/></svg>