<svg id="Layer_1" data-name="Layer 1" xmlns="http://www.w3.org/2000/svg" xmlns:xlink="http://www.w3.org/1999/xlink" viewBox="0 0 25 25"><defs><style>.cls-1,.cls-2,.cls-4{fill:none;}.cls-2{clip-rule:evenodd;}.cls-3{fill:#fff;}.cls-4{fill-rule:evenodd;}.cls-5{clip-path:url(#clip-path);}.cls-6{clip-path:url(#clip-path-2);}.cls-7{clip-path:url(#clip-path-3);}.cls-8{clip-path:url(#clip-path-4);}.cls-9{clip-path:url(#clip-path-5);}.cls-10{clip-path:url(#clip-path-6);}.cls-11{clip-path:url(#clip-path-7);}.cls-12{clip-path:url(#clip-path-8);}.cls-13{clip-path:url(#clip-path-9);}.cls-14{clip-path:url(#clip-path-10);}.cls-15{clip-path:url(#clip-path-11);}.cls-16{clip-path:url(#clip-path-12);}.cls-17{clip-path:url(#clip-path-13);}.cls-18{clip-path:url(#clip-path-14);}.cls-19{clip-path:url(#clip-path-15);}.cls-20{clip-path:url(#clip-path-16);}.cls-21{clip-path:url(#clip-path-17);}.cls-22{clip-path:url(#clip-path-18);}.cls-23{clip-path:url(#clip-path-19);}.cls-24{clip-path:url(#clip-path-20);}.cls-25{fill:#68bd45;}.cls-26{clip-path:url(#clip-path-21);}.cls-27{clip-path:url(#clip-path-22);}.cls-28{clip-path:url(#clip-path-23);}.cls-29{clip-path:url(#clip-path-24);}.cls-30{clip-path:url(#clip-path-25);}.cls-31{clip-path:url(#clip-path-26);}.cls-32{clip-path:url(#clip-path-28);}.cls-33{clip-path:url(#clip-path-29);}.cls-34{clip-path:url(#clip-path-30);}.cls-35{clip-path:url(#clip-path-31);}.cls-36{clip-path:url(#clip-path-32);}.cls-37{clip-path:url(#clip-path-33);}.cls-38{clip-path:url(#clip-path-34);}.cls-39{clip-path:url(#clip-path-35);}.cls-40{clip-path:url(#clip-path-36);}.cls-41{clip-path:url(#clip-path-37);}.cls-42{clip-path:url(#clip-path-38);}.cls-43{clip-path:url(#clip-path-39);}.cls-44{clip-path:url(#clip-path-40);}.cls-45{clip-path:url(#clip-path-41);}.cls-46{clip-path:url(#clip-path-42);}.cls-47{clip-path:url(#clip-path-43);}</style><clipPath id="clip-path"><rect class="cls-1" x="32.97" y="807.08" width="19.26" height="20"/></clipPath><clipPath id="clip-path-2"><path class="cls-1" d="M-43.84-143.77a2.07,2.07,0,0,0-2.26,2.05c0,1.25.74,1.85,1.86,2.32l.38.17c.71.31,1,.49,1,1s-.33.76-1,.76-1.12-.51-1.45-1.05l-1.22.81a2.82,2.82,0,0,0,2.7,1.61c1.47,0,2.56-.76,2.56-2.15s-.74-1.86-2.05-2.42l-.39-.17c-.66-.29-.95-.47-.95-.94a.68.68,0,0,1,.74-.66,1.06,1.06,0,0,1,1,.66l1.2-.77A2.3,2.3,0,0,0-43.84-143.77Zm-5,0v5.09c0,.78-.29,1-.81,1a1.33,1.33,0,0,1-1.15-.77l-1.28.77a2.87,2.87,0,0,0,2.53,1.61,2.12,2.12,0,0,0,2.33-2.35v-5.34Zm-6.61-6.88h14.84a.27.27,0,0,1,.27.27v14.84a.27.27,0,0,1-.27.27H-55.49a.27.27,0,0,1-.27-.27v-14.84A.27.27,0,0,1-55.49-150.65Zm0-.81a1.09,1.09,0,0,0-1.08,1.08v14.84a1.09,1.09,0,0,0,1.08,1.08h14.84a1.08,1.08,0,0,0,1.08-1.08v-14.84a1.09,1.09,0,0,0-1.08-1.08Z"/></clipPath><clipPath id="clip-path-3"><path class="cls-2" d="M-17.69-142.79l-.3-.49c-.1-.16-.2-.34-.3-.52a5.22,5.22,0,0,1-.47-1.15,2,2,0,0,1,.63-1.72l.18-.22c.4-.46.94-1,1.35-1.45a2.57,2.57,0,0,0,.74-1.7c0-.39,0-1.22-.29-1.37a2.88,2.88,0,0,1-.13,1.56,3.38,3.38,0,0,1-1.11,1.48c-.39.33-1,.92-1.34,1.26a3.33,3.33,0,0,0-.73,1,1.38,1.38,0,0,0,.24,1.35,4.05,4.05,0,0,0,.35.53c.14.2.26.34.37.5s.27.31.4.47a4.75,4.75,0,0,0,.41.46"/></clipPath><clipPath id="clip-path-4"><path class="cls-2" d="M-12.39-137.76c.17.2,0,.28-.22.36a28.45,28.45,0,0,1-5.47.44,22.71,22.71,0,0,1-3.21-.16c-.17,0-.91-.11-.95-.26s.11-.17.18-.2a4.14,4.14,0,0,1,1-.23,3.69,3.69,0,0,0,.37-.05,4.64,4.64,0,0,0-2.46.53c-.23.23.15.34.39.4a22.2,22.2,0,0,0,3.86.29c1.52,0,5.17,0,6.51-.69.07,0,.23-.13.24-.21s-.14-.2-.22-.22"/></clipPath><clipPath id="clip-path-5"><path class="cls-2" d="M-16.52-141.56a4.13,4.13,0,0,0,.8-.59,1.56,1.56,0,0,0,.51-.89,2,2,0,0,0-.38-1c-.47-.7-.85-1.1-.21-1.87a4.58,4.58,0,0,1,.72-.67,11.41,11.41,0,0,1,1.25-.85l.43-.28a8,8,0,0,0-1.08.36,8.82,8.82,0,0,0-1,.45c-1,.55-1.93,1.4-1.54,2.57.27.79,1,1.27,1,1.87,0,.36-.4.73-.5.91"/></clipPath><clipPath id="clip-path-6"><path class="cls-2" d="M-14.63-138.37a5.44,5.44,0,0,1-.86-.37c-.16-.09-.1-.08-.31,0a17.32,17.32,0,0,1-3.23.16c-.24,0-.9,0-1-.22s0-.2.08-.27c-.61.1-1.22.53-.38.89a9.45,9.45,0,0,0,4,.24,12,12,0,0,0,1.77-.4"/></clipPath><clipPath id="clip-path-7"><path class="cls-2" d="M-14.63-139.58a1.28,1.28,0,0,1-.55-.31c-.12-.09-.08-.07-.33,0a14.27,14.27,0,0,1-4.41.1c-.1,0-.22-.1-.22-.22s.11-.22.16-.29c-.63.08-1.23.67-.39,1a12.11,12.11,0,0,0,4,.21,10.19,10.19,0,0,0,1.75-.41"/></clipPath><clipPath id="clip-path-8"><path class="cls-2" d="M-13.4-142.27l-.42.06-.44.05c-.89.1-1.88.19-2.78.23-.69,0-3.32.11-3.72-.2,0-.13.16-.22.28-.27a9.13,9.13,0,0,1,1.37-.39,7.57,7.57,0,0,0-2.71.61c-.61.31.4.44.78.48a26.68,26.68,0,0,0,6.44-.14,1.41,1.41,0,0,0,.67-.15,5.24,5.24,0,0,0,.53-.28"/></clipPath><clipPath id="clip-path-9"><path class="cls-2" d="M-20.78-135.8a13.67,13.67,0,0,0,2.52.35,25.16,25.16,0,0,0,2.88,0,12.42,12.42,0,0,0,3.7-.61c.25-.1.7-.34.75-.58a1.55,1.55,0,0,0-.22.12c-1.86,1-6.14.93-8.34.8l-1.29-.08"/></clipPath><clipPath id="clip-path-10"><path class="cls-2" d="M-13-142.49a1.15,1.15,0,0,1,1.23.24,1.32,1.32,0,0,1,.09,1.4,4.58,4.58,0,0,1-1.42,1.57,2.27,2.27,0,0,0-.25.18,4.69,4.69,0,0,0,1.41-.68,2.53,2.53,0,0,0,1-1.2,1.36,1.36,0,0,0-.49-1.58,1.29,1.29,0,0,0-.81-.23,1.06,1.06,0,0,0-.73.3"/></clipPath><clipPath id="clip-path-11"><path class="cls-1" d="M12.18-148.78a.67.67,0,0,1,.65.68.66.66,0,0,1-.65.68.66.66,0,0,1-.65-.68A.67.67,0,0,1,12.18-148.78Zm1.86-1.1a10.18,10.18,0,0,0-1.64.15c-1.46.27-1.73.83-1.73,1.86v1.36h3.45v.45H9.38a2.17,2.17,0,0,0-2.15,1.81,6.92,6.92,0,0,0,0,3.64c.24,1.05.83,1.81,1.83,1.81h1.18v-1.63a2.24,2.24,0,0,1,2.16-2.22h3.44a1.78,1.78,0,0,0,1.72-1.82v-3.4a2,2,0,0,0-1.72-1.86A11,11,0,0,0,14-149.88Z"/></clipPath><clipPath id="clip-path-12"><path class="cls-1" d="M16.09-137.4a.66.66,0,0,1,.65.67.66.66,0,0,1-.65.68.66.66,0,0,1-.64-.68A.66.66,0,0,1,16.09-137.4ZM18-145.95v1.57a2.23,2.23,0,0,1-2.15,2.25H12.44a1.79,1.79,0,0,0-1.72,1.81v3.37c0,1,.81,1.53,1.72,1.8a5.57,5.57,0,0,0,3.43,0c.87-.25,1.72-.77,1.72-1.8v-1.35H14.16v-.45h5.15c1,0,1.37-.72,1.72-1.8a6.28,6.28,0,0,0,0-3.6c-.25-1-.72-1.8-1.72-1.8Z"/></clipPath><clipPath id="clip-path-13"><path class="cls-3" d="M46.32-109.66l-2.93,2.92a.24.24,0,0,1-.35,0l-.65-.65a.25.25,0,0,1,0-.36l2.09-2.09-2.09-2.09a.25.25,0,0,1,0-.36l.65-.65a.24.24,0,0,1,.35,0L46.32-110A.25.25,0,0,1,46.32-109.66Z"/></clipPath><clipPath id="clip-path-14"><rect class="cls-3" x="47.31" y="-108.42" width="5.55" height="1.51" rx="0.38"/></clipPath><clipPath id="clip-path-15"><polygon class="cls-1" points="-57.55 -80.18 -37.15 -80.18 -37.15 -72.75 -47.35 -72.75 -47.35 -71.43 -52.02 -71.43 -52.02 -72.75 -57.55 -72.75 -57.55 -80.18"/></clipPath><clipPath id="clip-path-16"><polygon class="cls-1" points="-55.36 -73.62 -53.54 -73.62 -53.54 -77.33 -52.45 -77.33 -52.45 -73.62 -51.72 -73.62 -51.72 -78.72 -55.36 -78.72 -55.36 -73.62"/></clipPath><clipPath id="clip-path-17"><path class="cls-1" d="M-47.35-75.39h-1.09v-2.08h1.09Zm-2.91-3.33v5.83h1.82v-1.25h1.82v-4.58Z"/></clipPath><clipPath id="clip-path-18"><polygon class="cls-1" points="-45.89 -78.72 -45.89 -73.62 -43.84 -73.62 -43.84 -77.33 -42.61 -77.33 -42.61 -73.62 -41.38 -73.62 -41.38 -77.33 -40.15 -77.33 -40.15 -73.62 -39.33 -73.62 -39.33 -78.72 -45.89 -78.72"/></clipPath><clipPath id="clip-path-19"><path class="cls-1" d="M25.29-76.93v2.77a1.38,1.38,0,0,1-1.39,1.38H21.14a1.38,1.38,0,0,1-1.39-1.38v-2.77a1.38,1.38,0,0,1,1.39-1.38H23.9A1.38,1.38,0,0,1,25.29-76.93Zm-7.38,0v2.77a1.38,1.38,0,0,1-1.39,1.38H13.76a1.38,1.38,0,0,1-1.38-1.38v-2.77a1.38,1.38,0,0,1,1.38-1.38h2.76A1.38,1.38,0,0,1,17.91-76.93Zm-7.38,0v2.77a1.38,1.38,0,0,1-1.38,1.38H6.38A1.38,1.38,0,0,1,5-74.16v-2.77a1.38,1.38,0,0,1,1.38-1.38H9.15A1.38,1.38,0,0,1,10.53-76.93Z"/></clipPath><clipPath id="clip-path-20"><path class="cls-1" d="M54-71.65H50.27v-5.86h3.57v1.09H51.58v1.22h2.13v1.07H51.58v1.4H54v1.08Zm-.29,4.86H40.88v-3.77H53.67ZM40.42-71.65v-5.86H44v1.09H41.73v1.22h2.13v1.07H41.73v1.4h2.38v1.08Zm4.22-5.86h1.5l.51,1.07c.17.36.3.65.43,1h0c.14-.38.25-.64.4-1L48-77.51h1.5l-1.63,2.86,1.71,3H48.05l-.52-1.06c-.21-.41-.35-.71-.52-1.05h0c-.12.34-.27.64-.45,1.05l-.48,1.06H44.58l1.67-3ZM40.88-85h9v4a.39.39,0,0,0,.39.39h3.42v2H40.88Zm14,6.37h-.48V-81a.38.38,0,0,0-.09-.25l-3.81-4.41h0s0,0-.07-.06l0,0-.07,0H40.88a.78.78,0,0,0-.77.78v6.37h-.48a1.12,1.12,0,0,0-1.1,1.13v5.82a1.12,1.12,0,0,0,1.1,1.13h.48v4a.78.78,0,0,0,.77.78H53.67a.77.77,0,0,0,.77-.78v-4h.48A1.12,1.12,0,0,0,56-71.69v-5.82A1.12,1.12,0,0,0,54.92-78.64Z"/></clipPath><clipPath id="clip-path-21"><path class="cls-1" d="M78.1,15.84a1,1,0,0,0-1,1h2A1,1,0,0,0,78.1,15.84Zm0-1.2a2.45,2.45,0,0,1,2.62,2.71v.49H77.08v.09a1,1,0,0,0,1.07,1.16,1,1,0,0,0,1-.49h1.56a2.35,2.35,0,0,1-2.58,1.73,2.5,2.5,0,0,1-2.71-2.8C75.43,15.71,76.41,14.64,78.1,14.64Zm-7.29-1.82c1.65,0,2.8.89,2.85,2.22H72a1.07,1.07,0,0,0-1.16-.84c-.62,0-1.06.31-1.06.75s.31.63,1.06.76l.94.18c1.42.26,2,.89,2,2,0,1.47-1.11,2.36-3,2.36s-2.93-.85-3-2.23h1.74c0,.54.58.85,1.29.85S72,18.6,72,18.11s-.31-.62-1.11-.76L70,17.18c-1.29-.27-2-1-2-2.09C68,13.71,69.08,12.82,70.81,12.82ZM67.17,2.91a1.8,1.8,0,0,0-1.82,1.82V21.09a1.8,1.8,0,0,0,1.82,1.82H83.52a1.8,1.8,0,0,0,1.83-1.82V4.82l-6.8,6.84L73.92,7l1.91-1.91L78.5,7.8l4.89-4.89Z"/></clipPath><clipPath id="clip-path-22"><path class="cls-2" d="M113.63,10.82l1.07-.51a.16.16,0,0,1,.15,0,1.85,1.85,0,0,1,.49.76,0,0,0,0,0,0,0c.2-.39,1.44-2.41,2.93-2.71a11.31,11.31,0,0,0-1.49,1.73,15.55,15.55,0,0,0-1,1.88.24.24,0,0,1-.2.15h-1.29a.11.11,0,0,1-.1-.1,1.54,1.54,0,0,0-.64-1.2,0,0,0,0,1,0,0"/></clipPath><clipPath id="clip-path-23"><path class="cls-2" d="M95.2,15.86l-.34.76a.14.14,0,0,0,.11.21h4.27a.49.49,0,0,0,.44-.29l.71-1.38a.12.12,0,0,0-.1-.18H98.24c-.09,0-.14-.11-.12-.19l.44-1a.3.3,0,0,1,.3-.2h.22a.11.11,0,0,1,.09.18l-.25.49a.16.16,0,0,0,.12.21h1.44a.49.49,0,0,0,.41-.26l.5-.91c0-.11,0-.24-.11-.24H96.94a.44.44,0,0,0-.39.27l-.92,1.77a.13.13,0,0,0,.09.21h2.45a.11.11,0,0,1,.09.18l-.43.86s0,.05-.07.05h-.62a.08.08,0,0,1-.07-.13l.25-.47a.1.1,0,0,0-.09-.16H95.52a.33.33,0,0,0-.32.21"/></clipPath><clipPath id="clip-path-24"><path class="cls-2" d="M102.24,13.77l-.59,1c-.05.09,0,.18.12.18h1.73a.5.5,0,0,0,.4-.23l.31-.52a.43.43,0,0,1,.35-.21h0a.14.14,0,0,1,.12.18l-.41.8a.5.5,0,0,1-.45.25h-2.51l-.87,1.44a.14.14,0,0,0,.11.21h4.29a.51.51,0,0,0,.43-.25l1.59-2.84a.14.14,0,0,0-.12-.2h-4.17a.5.5,0,0,0-.38.23m1.14,2.65h-.15a.14.14,0,0,1-.11-.21l.21-.43a.37.37,0,0,1,.31-.19.21.21,0,0,1,.19.3l-.19.34a.28.28,0,0,1-.26.19m5.68-5.05-.07.14-2.91,5.11a.14.14,0,0,0,.12.21h1.65a.39.39,0,0,0,.34-.18l1.58-2.59a.52.52,0,0,1,.41-.22.17.17,0,0,1,.16.25l-1.42,2.53a.15.15,0,0,0,.14.21h1.54a.6.6,0,0,0,.48-.28l1.25-2.3.29-.55s.14-.27-.05-.27h-2.2a.09.09,0,0,1-.07-.12l.23-.43a.57.57,0,0,0,0-.55,4.85,4.85,0,0,0-.83-1.1c-.14,0-.47-.11-.62.14"/></clipPath><clipPath id="clip-path-25"><path class="cls-2" d="M113.48,13.16l-1.73,3.38a.2.2,0,0,0,.14.29h1.82a.13.13,0,0,0,.14-.11l1.61-3.37a.18.18,0,0,0-.14-.27h-1.68c-.09,0-.14,0-.16.08"/></clipPath><clipPath id="clip-path-26"><rect class="cls-1" x="113.68" y="8.38" width="4.6" height="3.69"/></clipPath><clipPath id="clip-path-28"><path class="cls-2" d="M-53.69,57.71a1.92,1.92,0,0,1-.93-.24,2,2,0,0,1-1-1.76v-8a2,2,0,0,1,2-2,2,2,0,0,1,2,2V52l6.31-4.26-9.38-6.34a2,2,0,0,1-.55-2.77A2,2,0,0,1-52.6,38l11.85,8a2,2,0,0,1,.88,1.66,2,2,0,0,1-.88,1.67l-11.84,8a1.93,1.93,0,0,1-1.1.34"/></clipPath><clipPath id="clip-path-29"><rect class="cls-1" x="3.62" y="37.67" width="20.49" height="20"/></clipPath><clipPath id="clip-path-30"><path class="cls-2" d="M15.58,56.09l-.33,0H15c.08-.19.15-.33.19-.44l.37.39"/></clipPath><clipPath id="clip-path-31"><path class="cls-2" d="M15.45,47.83a5.14,5.14,0,0,1-.54.37l-.62.37a5,5,0,0,0-.76.15h0a.16.16,0,0,0-.06.08l-.64,2.07-3.4.74-1.07-.74L8,48.4c.61-.11,1.42-.24,2.4-.35l-.31.39-.58.82.85-.55a13.49,13.49,0,0,1,1.43-.79c1-.07,1.93-.1,2.89-.1Zm-5.29,2.79a2,2,0,0,1,.94-.11.65.65,0,0,0,.14,0h.13c.44,0,.8,0,.8-.64s-.32-1.23-.76-1.23-.86.56-.84,1.24a1.16,1.16,0,0,0,.08.4.7.7,0,0,0-.49.34Zm11.18-2.23L21,50.5,20,51.25l-3.39-.38-.64-2.06a.14.14,0,0,0-.09-.09,4.24,4.24,0,0,0-.89-.16H15a13.61,13.61,0,0,0,2.64-.62A36.31,36.31,0,0,1,21.34,48.39Zm-2.17,2s-.1-.29-.51-.24a.83.83,0,0,0,.06-.42c-.06-.68-.46-1.22-.9-1.2s-.72.57-.69,1.25.39.68.83.66S18.87,50.2,19.17,50.34Z"/></clipPath><clipPath id="clip-path-32"><path class="cls-2" d="M18,49.29c0,.22-.1.4-.22.4s-.23-.17-.23-.38h0c0-.21.1-.39.22-.39h0c.12,0,.23.16.23.38h0m-6.3.29c0,.21-.1.39-.22.4s-.23-.16-.23-.38h0c0-.22.09-.4.22-.4h0c.12,0,.22.16.23.38"/></clipPath><clipPath id="clip-path-33"><path class="cls-2" d="M22.82,49.32l-.4-.24-.29,2a.11.11,0,0,1-.06.09l-.4.28,0,.13a1.2,1.2,0,0,0,1-.4A7.93,7.93,0,0,0,22.87,50c0-.51,0-.62-.05-.66m-6.29,7.46a2.14,2.14,0,0,1-.71-.45l-.06,0-.49.07H14.9a2,2,0,0,1-1,.68,6.34,6.34,0,0,0,2.64-.26M7.84,52l0-.09-.53-.36a.21.21,0,0,1-.06-.1L7,49.36a4.41,4.41,0,0,0-.47.27s-.09.15,0,.64a7.71,7.71,0,0,0,.31,1.36A1.44,1.44,0,0,0,7.84,52m7.9-.1a.14.14,0,0,1-.12-.09L15,49.66a2.11,2.11,0,0,0-.58,0l-.63,2.05a.16.16,0,0,1-.11.1l-.3.07a.5.5,0,0,1-.39.34,33.51,33.51,0,0,1-3.66.94,3.29,3.29,0,0,1-.82-.39c-.11-.25-.17-.42-.19-.46h0a9.38,9.38,0,0,0,1.18,2.21c.82-.23,1.52-.46,1.75-.53.46-.69,1.11-1.38,1.58-1.41H13a4.45,4.45,0,0,1,.65,0,.8.8,0,0,1-.23-.42,2,2,0,0,0,1.35.36A2.36,2.36,0,0,0,16,52l0-.13-.31,0"/></clipPath><clipPath id="clip-path-34"><path class="cls-2" d="M16.36,52.14A.6.6,0,0,1,16,52V52a.74.74,0,0,1-.33.55,5,5,0,0,1,1.07-.25.56.56,0,0,1,.39.15l.05,0,1.24,1,1.22.13.64,0h.19a11.45,11.45,0,0,0,.57-1.31,4.47,4.47,0,0,1-1,.56,31.77,31.77,0,0,1-3.69-.78"/></clipPath><clipPath id="clip-path-35"><path class="cls-2" d="M23.68,44.74a1.5,1.5,0,0,1,0-.2l0-.15A4.63,4.63,0,0,0,23,44c-.23-.13-.48-.25-.73-.37l-.76-.32-.39-.15-.4-.14c.28,0,.55.11.83.17l.52.15a8.08,8.08,0,0,0-7.44-5.27A8.09,8.09,0,0,0,7.2,43.32l.53-.15c.27-.06.54-.13.82-.17l-.4.14-.39.15L7,43.61c-.25.12-.5.24-.73.37a4.63,4.63,0,0,0-.61.41.77.77,0,0,0,0,.15l0,.2c0,.14,0,.27,0,.41a4.52,4.52,0,0,0,.05.82,7.08,7.08,0,0,0,.16.8c0,.13.08.26.13.38a1.54,1.54,0,0,0,.08.19l0,.08,0,0,.06,0,.12,0,.24.11h0l-.23-.86s.48-.12,1.23-.26l-.18,0a2.91,2.91,0,0,1-.5-.16l-.24-.11a.8.8,0,0,1-.21-.15,13.19,13.19,0,0,0,4,0c1.38-.14,2.77-.23,4.16-.24s2.78.1,4.16.24a13.19,13.19,0,0,0,4,0,.8.8,0,0,1-.21.15l-.24.11a2.91,2.91,0,0,1-.5.16l-.07,0c.82.15,1.3.27,1.35.28l-.22.82.13-.06.12,0,.07,0v0l0-.08a1.54,1.54,0,0,0,.08-.19c0-.12.09-.25.13-.38a5.39,5.39,0,0,0,.16-.8,5.66,5.66,0,0,0,.06-.82c0-.14,0-.27,0-.41"/></clipPath><clipPath id="clip-path-36"><path class="cls-2" d="M18.05,43.15a5.25,5.25,0,0,1-.17,1.65v.07l-.66-.06a3.68,3.68,0,0,0,.32-1.24,3.81,3.81,0,0,0,.51-.42m-6.29.42a3.38,3.38,0,0,0,.31,1.24l-.66.06V44.8a5.56,5.56,0,0,1-.17-1.65,4,4,0,0,0,.52.42m9,1.81h0l.07,0a4.44,4.44,0,0,1,.61.22,2.3,2.3,0,0,1-.65-1.27,6.78,6.78,0,0,1,0,1M11,43l-2.1.59a6.61,6.61,0,0,0-.07,1.63h0A5.9,5.9,0,0,1,9,44c.07-.17.51-.28.84-.36s.88-.24,1,.22a2.93,2.93,0,0,0,.24.71A5.94,5.94,0,0,1,11,43m7.35,0a6.1,6.1,0,0,1-.12,1.64,3.15,3.15,0,0,0,.27-.78c.11-.46.64-.3,1-.22s.77.19.85.36a6.05,6.05,0,0,1,.2,1.15,7.12,7.12,0,0,0-.07-1.56L18.32,43m-6.58.18.23.16a.17.17,0,0,1,.06.11,3.12,3.12,0,0,0,.32,1.27s0,0,0,0c.76,0,1.52-.07,2.29-.07s1.52,0,2.28.07c0,0,0,0,0,0a3.12,3.12,0,0,0,.32-1.27.17.17,0,0,1,.06-.11l.22-.16v0a10.6,10.6,0,0,0-.31-3.63c0,.48-.13,4.54-1.15,4.54H13.26c-1.09,0-1.18-4.58-1.18-4.58l-.06.16a10.41,10.41,0,0,0-.28,3.53m-3.2,2.17h0a6.78,6.78,0,0,1,0-1,2.24,2.24,0,0,1-.65,1.27,4.44,4.44,0,0,1,.61-.22l.07,0"/></clipPath><clipPath id="clip-path-37"><path class="cls-2" d="M21.64,51.55a1.1,1.1,0,0,1-.06.26,2.26,2.26,0,0,0,.8.06,2.18,2.18,0,0,0,.27-.72,1.2,1.2,0,0,1-1,.4m-8.36,5.62a5.41,5.41,0,0,0,1.69.18A7,7,0,0,0,17,56.88a2.19,2.19,0,0,1-.51-.1,6.34,6.34,0,0,1-2.64.26,2.84,2.84,0,0,1-.49.11l-.12,0M7.87,52.09l0-.12a1.44,1.44,0,0,1-1.07-.34,1.52,1.52,0,0,0,.24.55,2.34,2.34,0,0,0,.86-.09m.61.68a3.13,3.13,0,0,0,.82.39A33.51,33.51,0,0,0,13,52.22a.5.5,0,0,0,.39-.34l-4.15.91h0a.13.13,0,0,1-.08,0l-.16-.11-.48-.33h0l-.2-.14v0l0,.09h0s.08.21.19.46M21.19,52c0-.1.06-.2.08-.29l-.14.09-.39.27-.42.29s-.05,0-.07,0h0l-4.17-.47V52a.6.6,0,0,0,.32.17,31.77,31.77,0,0,0,3.69.78,4.47,4.47,0,0,0,1-.56v0l.12-.35"/></clipPath><clipPath id="clip-path-38"><path class="cls-2" d="M16.78,46.45a1.71,1.71,0,0,0-.11.14,9.57,9.57,0,0,1-.8.87l-1.17,0c-.66,0-1.29,0-1.9.05a15.66,15.66,0,0,1,3-.9c.33-.06.66-.11,1-.14m-5,.38a8.88,8.88,0,0,0-1,.8c-.74.07-1.47.17-2.21.28a17,17,0,0,1,3.19-1.08m10.42,1.73L21.86,51,20.2,52.09l-4.33-.48-.65-2.12a.13.13,0,0,0-.12-.09,2.23,2.23,0,0,0-.84,0,.12.12,0,0,0-.11.09l-.64,2.06-4.31,1L7.5,51.32l-.34-2.68.22-.12.36-.07L8.06,51a.12.12,0,0,0,.06.1l1.17.8a.11.11,0,0,0,.08,0h0l3.54-.78h0a.18.18,0,0,0,.07-.08L13.69,49a4.61,4.61,0,0,1,1-.15,4.73,4.73,0,0,1,1,.15L16.31,51a.14.14,0,0,0,.12.09l3.54.4.1,0,1.18-.81a.21.21,0,0,0,.06-.1l.31-2.16.59.12m.43-1.5-.3,1.14a32.79,32.79,0,0,0-3.86-.58,9.31,9.31,0,0,0,1.8-1c1.11.16,1.92.32,2.36.42m-15.88,0,.08.32c.21-.16.42-.32.64-.47l-.72.15"/></clipPath><clipPath id="clip-path-39"><path class="cls-2" d="M18.72,46.43l-1.4-.07c-.05.08-.11.15-.16.22a8.65,8.65,0,0,1-1.38,1.47,11.29,11.29,0,0,0,3.32-1.6l-.38,0m-3.42-.12H13.55l-.65.3h0a8.1,8.1,0,0,0-1.73,1.22l.22-.11a11,11,0,0,1,3.39-1.42h.53m-4,.07-.89,0-1,.06-.51,0-.15,0a14.12,14.12,0,0,0-3.34,2.71l.06-.08a13.63,13.63,0,0,1,5.86-2.81m9.88,7.54,0,0a2,2,0,0,1-.88.17c-.22,0-.44,0-.68,0l-1.29-.14h-.07l0,0-1.3-1-.06-.05c-.06,0-.06,0-.1,0a13.1,13.1,0,0,0-1.89.52l-.07,0-.07,0A5.71,5.71,0,0,0,13,53h-.22c-.09,0-.61.25-1.27,1.28l-.05.07-.07,0s-1.15.37-2.36.71l-.08,0-.08,0L8,54.66l.1,0c.45.38,1.3,1.1,1.39,1.2l.06.06-.07-.08h0a2.8,2.8,0,0,0,.65.45,1.29,1.29,0,0,0,.38.12l.19,0h.2l.8-.06.8-.08.8-.1.39-.07.18,0A.72.72,0,0,0,14,56a3.71,3.71,0,0,0,.29-.27,3.83,3.83,0,0,0,.28-.29c.16-.16.29-.33.44-.49l.06-.07h0l.09.07.55.41c.24.16.47.32.72.46l.18.08h.19l.42,0,.84-.15.84-.17c.28-.05.56-.12.83-.19a1.7,1.7,0,0,0,.4-.13,1.29,1.29,0,0,0,.35-.22,2.64,2.64,0,0,0,.55-.65h0a3.89,3.89,0,0,0,.19-.42M16,40.94h.49V40H12.88v1h.49v-.5h1v3H14v.57h1.42v-.57H15v-3h1v.5"/></clipPath><clipPath id="clip-path-40"><path class="cls-2" d="M19.73,46.49h0l-.62,0h0a11,11,0,0,1-3.32,1.6l0,0a10.9,10.9,0,0,0,2.48-.74,8.35,8.35,0,0,0,1.4-.76l.1-.08m-5-.19a11,11,0,0,0-3.39,1.42c.4-.21.81-.39,1.22-.56l.15-.06.05,0,.13,0L13,47l.11,0,.09,0,.11,0,.1,0,.1,0,.12,0,.09,0,.13,0,.08,0,.22-.06.49-.14c.22-.06.44-.12.66-.16h-.53m-3.42.08A13.56,13.56,0,0,0,5.49,49.2l-.06.07a19.46,19.46,0,0,1,5.37-2.58l.23-.06c.4-.11.8-.21,1.21-.28l-.89,0m10.3,7.34-.07,0h0l0,0-.05,0h0l-.06,0h0l-.05,0h0l-.11.06a3.89,3.89,0,0,1-.19.42h0a2.64,2.64,0,0,1-.55.65,1.29,1.29,0,0,1-.35.22,1.7,1.7,0,0,1-.4.13l-.83.19-.84.17-.84.15-.42,0h-.19l-.18-.08c-.25-.14-.48-.3-.72-.46l-.55-.41,0,0h0l0,0h0l0,0,.16.18v0c.08.09.41.46.8.84a1.45,1.45,0,0,0,1.06.43,2.18,2.18,0,0,0,.43-.05l.44-.11,1.29-.3.06,0,.13,0,.19,0a1.64,1.64,0,0,0,1.25-.8l.27-.51c.14-.28.29-.56.44-.84h0l0-.06-.07,0M15,55l0,0c-.15.16-.28.33-.44.5s-.18.19-.28.28A3.71,3.71,0,0,1,14,56a.72.72,0,0,1-.15.11l-.18,0-.39.07-.8.1-.8.08-.8.06h-.2l-.19,0a1.29,1.29,0,0,1-.38-.12,2.8,2.8,0,0,1-.65-.45h0l.09.09h0l-.06-.06c-.09-.1-.94-.82-1.39-1.2l-.1,0,.26.36c.13.19.26.37.4.55l.18.24A2.65,2.65,0,0,0,11.08,57l.46,0,.1,0h.11c1-.11,1.29-.16,1.44-.19l.11,0h0a2.61,2.61,0,0,0,.68-.21A1.11,1.11,0,0,0,14.6,56c.28-.62.34-.76.34-.77L15,55"/></clipPath><clipPath id="clip-path-41"><path class="cls-2" d="M17.79,49.35a.23.23,0,0,0,.22-.23.21.21,0,0,0-.23-.21h0a.22.22,0,0,0-.22.22h0A.22.22,0,0,0,17.79,49.35Zm1.38,1c-.3-.14-.62,0-1.21,0s-.81,0-.84-.66.26-1.24.7-1.25.84.52.9,1.2a.83.83,0,0,1-.06.42C19.07,50.05,19.17,50.33,19.17,50.34Zm-7.68-.83a.22.22,0,0,0,.22-.22.23.23,0,0,0-.23-.22.21.21,0,0,0-.22.23A.21.21,0,0,0,11.49,49.51Zm.68.36c0,.68-.36.64-.8.64h-.13a.65.65,0,0,1-.14,0,2,2,0,0,0-.94.11.7.7,0,0,1,.49-.34,1.16,1.16,0,0,1-.08-.4c0-.68.4-1.23.84-1.24S12.16,49.19,12.17,49.87Zm8.33-4.68c0,.05,0,.09,0,.13L20,45.19a17.45,17.45,0,0,0-1.76-.29h-.06v0c0-.06,0-.13.05-.19A6.1,6.1,0,0,0,18.32,43l2.11.59A7.12,7.12,0,0,1,20.5,45.19Zm-2.62-.39v.07l-.66-.06a3.68,3.68,0,0,0,.32-1.24,4.57,4.57,0,0,0,.51-.42A5.25,5.25,0,0,1,17.88,44.8Zm-6.47.07V44.8a5.56,5.56,0,0,1-.17-1.65,4.74,4.74,0,0,0,.52.42,3.38,3.38,0,0,0,.31,1.24Zm-.32,0-.88.12-.88.17-.53.13v-.06a6.61,6.61,0,0,1,.07-1.63L11,43a5.94,5.94,0,0,0,.11,1.57l.06.26v0Zm10.53.84-.05,0-.09,0-.05,0a4.44,4.44,0,0,0-.61-.22l-.07,0h0a6.78,6.78,0,0,0,0-1,6.12,6.12,0,0,0-.1-.87.11.11,0,0,0-.09-.11l-.3-.09a5.42,5.42,0,0,0-1.05-3.38,6.25,6.25,0,0,1,.83,3.32l-1.86-.52h-.13l-.13.12c0-.17,0-.43,0-.75V42a6.86,6.86,0,0,0-.83-2.92s.06.18.14.45a10.6,10.6,0,0,1,.31,3.63v0h0l-.22.16a.24.24,0,0,0-.06.11,3.12,3.12,0,0,1-.32,1.27s0,0,0,0c-.76,0-1.52-.07-2.28-.07s-1.53,0-2.29.07c0,0,0,0,0,0A3.12,3.12,0,0,1,12,43.49a.17.17,0,0,0-.06-.11l-.23-.16A10.41,10.41,0,0,1,12,39.69c.09-.35.17-.56.17-.57a7.62,7.62,0,0,0-.85,3.76l-.12-.12h-.14l-1.86.52a6.25,6.25,0,0,1,.83-3.32A5.44,5.44,0,0,0,9,43.31l-.29.08a.12.12,0,0,0-.1.11,8.58,8.58,0,0,0-.1.87,6.78,6.78,0,0,0,0,1h0l-.07,0a4.44,4.44,0,0,0-.61.22l-.05,0h0l-.09,0,0,0h0a3,3,0,0,1,.43-.12l.43-.1c.29-.05.58-.1.87-.13s.58-.07.87-.09l.88-.07c1.17-.07,2.35-.09,3.53-.09s2.35,0,3.52.09l.88.07q.43,0,.87.09c.3,0,.59.08.87.13l.43.1a3,3,0,0,1,.43.12Z"/></clipPath><clipPath id="clip-path-42"><path class="cls-2" d="M15,40.44v3h.42v.57H14v-.57h.42v-3h-1v.5h-.49V40h3.61v1H16v-.5Zm1.89.86V39.59H12.51V41.3h1.23v-.5H14v2.32H13.6v1.29h2.17V43.12h-.42V40.8h.27v.5Z"/></clipPath><clipPath id="clip-path-43"><rect class="cls-1" x="35.84" y="37.58" width="19.26" height="20"/></clipPath></defs><title>spring</title><rect class="cls-1" x="-488.99" y="-1119.93" width="1366" height="2644"/><rect class="cls-1" x="-780.59" y="-1249.51" width="1366" height="3311"/><path class="cls-3" d="M46.32-109.66l-2.93,2.92a.24.24,0,0,1-.35,0l-.65-.65a.25.25,0,0,1,0-.36l2.09-2.09-2.09-2.09a.25.25,0,0,1,0-.36l.65-.65a.24.24,0,0,1,.35,0L46.32-110A.25.25,0,0,1,46.32-109.66Z"/><g class="cls-17"><rect class="cls-3" x="-513.75" y="-458.87" width="742.75" height="1800.34"/></g><rect class="cls-3" x="47.31" y="-108.42" width="5.55" height="1.51" rx="0.38"/><g class="cls-18"><rect class="cls-3" x="-512.75" y="-458.87" width="742.75" height="1800.34"/></g><rect class="cls-1" x="-539" y="-1175.79" width="1366" height="3024"/><path class="cls-25" d="M20.92,3.94a9,9,0,0,1-1.06,1.89A10,10,0,1,0,5.64,20l.21.2.37.33a10,10,0,0,0,16.46-6.95C23,11,22.2,7.78,20.92,3.94ZM7.27,20.25a.85.85,0,0,1-1.2.13.86.86,0,1,1,1.08-1.33h0A.85.85,0,0,1,7.27,20.25Zm13.61-3c-2.47,3.3-7.76,2.18-11.15,2.34,0,0-.6,0-1.2.14l.52-.21A40.66,40.66,0,0,0,14,17.79a11.64,11.64,0,0,0,6-7.57c-1,3-4.18,5.64-7,6.7a48.89,48.89,0,0,1-5.51,1.43l-.14-.08c-2.41-1.17-2.48-6.39,1.9-8.08,1.92-.74,3.76-.33,5.83-.83A9.08,9.08,0,0,0,20.83,5c1.17,3.47,2.57,8.89.05,12.24Z"/><rect class="cls-1" x="-421.8" y="-976.34" width="1366" height="2291"/><rect class="cls-1" x="-435.88" y="-1353.7" width="1366" height="2291"/><rect class="cls-1" x="-637.32" y="-1095.92" width="1366" height="2291"/><rect class="cls-1" x="-637.32" y="-1095.92" width="1366" height="2291"/><rect class="cls-1" x="-637.32" y="-1095.92" width="1366" height="2291"/><rect class="cls-1" x="-277.37" y="-1634.92" width="1366" height="2291"/><rect class="cls-1" x="-574.42" y="-1096.92" width="1366" height="2291"/></svg>