<svg id="Layer_1" data-name="Layer 1" xmlns="http://www.w3.org/2000/svg" xmlns:xlink="http://www.w3.org/1999/xlink" viewBox="0 0 25 25"><defs><style>.cls-1,.cls-2,.cls-4{fill:none;}.cls-2{clip-rule:evenodd;}.cls-3{fill:#fff;}.cls-4{fill-rule:evenodd;}.cls-5{clip-path:url(#clip-path);}.cls-6{clip-path:url(#clip-path-2);}.cls-7{clip-path:url(#clip-path-3);}.cls-8{clip-path:url(#clip-path-4);}.cls-9{clip-path:url(#clip-path-5);}.cls-10{clip-path:url(#clip-path-6);}.cls-11{clip-path:url(#clip-path-7);}.cls-12{clip-path:url(#clip-path-8);}.cls-13{clip-path:url(#clip-path-9);}.cls-14{clip-path:url(#clip-path-10);}.cls-15{clip-path:url(#clip-path-11);}.cls-16{clip-path:url(#clip-path-12);}.cls-17{clip-path:url(#clip-path-13);}.cls-18{clip-path:url(#clip-path-14);}.cls-19{clip-path:url(#clip-path-15);}.cls-20{clip-path:url(#clip-path-16);}.cls-21{clip-path:url(#clip-path-17);}.cls-22{clip-path:url(#clip-path-18);}.cls-23{clip-path:url(#clip-path-19);}.cls-24{clip-path:url(#clip-path-20);}.cls-25{clip-path:url(#clip-path-21);}.cls-26{clip-path:url(#clip-path-22);}.cls-27{clip-path:url(#clip-path-23);}.cls-28{clip-path:url(#clip-path-24);}.cls-29{clip-path:url(#clip-path-25);}.cls-30{clip-path:url(#clip-path-26);}.cls-31{clip-path:url(#clip-path-28);}.cls-32{clip-path:url(#clip-path-29);}.cls-33{clip-path:url(#clip-path-30);}.cls-34{clip-path:url(#clip-path-31);}.cls-35{clip-path:url(#clip-path-32);}.cls-36{clip-path:url(#clip-path-33);}.cls-37{clip-path:url(#clip-path-34);}.cls-38{clip-path:url(#clip-path-35);}.cls-39{clip-path:url(#clip-path-36);}.cls-40{clip-path:url(#clip-path-37);}.cls-41{clip-path:url(#clip-path-38);}.cls-42{clip-path:url(#clip-path-39);}.cls-43{clip-path:url(#clip-path-40);}.cls-44{clip-path:url(#clip-path-41);}.cls-45{clip-path:url(#clip-path-42);}.cls-46{clip-path:url(#clip-path-43);}.cls-47{clip-path:url(#clip-path-44);}.cls-48{clip-path:url(#clip-path-45);}.cls-49{fill:#1e1e1e;}</style><clipPath id="clip-path"><rect class="cls-1" x="-153.61" y="806.75" width="19.26" height="20"/></clipPath><clipPath id="clip-path-2"><path class="cls-1" d="M-230.42-144.09a2.06,2.06,0,0,0-2.26,2c0,1.26.74,1.85,1.86,2.33l.38.16c.7.31,1.05.5,1.05,1s-.33.76-1,.76-1.13-.52-1.46-1.06L-233-138a2.81,2.81,0,0,0,2.7,1.62c1.47,0,2.56-.76,2.56-2.15s-.74-1.87-2-2.43l-.39-.16c-.66-.29-.95-.48-.95-.94a.67.67,0,0,1,.74-.66,1,1,0,0,1,1,.66l1.21-.77A2.28,2.28,0,0,0-230.42-144.09Zm-5,0V-139c0,.78-.29,1-.81,1a1.34,1.34,0,0,1-1.16-.77l-1.27.77a2.84,2.84,0,0,0,2.53,1.62,2.12,2.12,0,0,0,2.33-2.36v-5.33Zm-6.61-6.88h14.84a.27.27,0,0,1,.27.27v14.84a.27.27,0,0,1-.27.27h-14.84a.27.27,0,0,1-.27-.27V-150.7A.27.27,0,0,1-242.07-151Zm0-.81a1.09,1.09,0,0,0-1.08,1.08v14.84a1.09,1.09,0,0,0,1.08,1.08h14.84a1.09,1.09,0,0,0,1.08-1.08V-150.7a1.09,1.09,0,0,0-1.08-1.08Z"/></clipPath><clipPath id="clip-path-3"><path class="cls-2" d="M-204.27-143.12l-.31-.49c-.1-.16-.19-.33-.29-.51a5.51,5.51,0,0,1-.47-1.16,2,2,0,0,1,.63-1.72l.18-.22c.4-.45.93-1,1.35-1.44a2.6,2.6,0,0,0,.74-1.71c0-.39-.05-1.21-.29-1.36a2.84,2.84,0,0,1-.13,1.55,3.35,3.35,0,0,1-1.12,1.49c-.38.32-1,.91-1.33,1.26a3.33,3.33,0,0,0-.73,1,1.39,1.39,0,0,0,.24,1.35c.11.19.22.35.34.52s.27.34.38.5.27.32.4.48.33.39.41.45"/></clipPath><clipPath id="clip-path-4"><path class="cls-2" d="M-199-138.09c.16.2,0,.29-.22.37a29.33,29.33,0,0,1-5.47.43,22.71,22.71,0,0,1-3.21-.16c-.17,0-.92-.11-.95-.26s.11-.16.18-.19a3.7,3.7,0,0,1,1-.24,3.13,3.13,0,0,0,.36-.05,4.78,4.78,0,0,0-2.46.53c-.22.24.15.35.4.41a22.14,22.14,0,0,0,3.86.28c1.52,0,5.17,0,6.51-.69.07,0,.23-.12.24-.2s-.14-.2-.22-.23"/></clipPath><clipPath id="clip-path-5"><path class="cls-2" d="M-203.11-141.89a3.76,3.76,0,0,0,.81-.58,1.56,1.56,0,0,0,.51-.89,2,2,0,0,0-.38-1c-.47-.69-.85-1.09-.21-1.86a5.17,5.17,0,0,1,.72-.68,13,13,0,0,1,1.25-.85l.43-.27a8,8,0,0,0-1.08.35,6.81,6.81,0,0,0-1,.46c-1,.54-1.93,1.39-1.54,2.56.27.8,1,1.27,1,1.87,0,.36-.4.73-.51.91"/></clipPath><clipPath id="clip-path-6"><path class="cls-2" d="M-201.21-138.69a6.06,6.06,0,0,1-.86-.38c-.16-.08-.1-.07-.31,0a16.5,16.5,0,0,1-3.23.16c-.24,0-.9,0-1-.21s0-.21.08-.28c-.61.11-1.22.54-.38.89a9.44,9.44,0,0,0,4,.25,15.19,15.19,0,0,0,1.77-.4"/></clipPath><clipPath id="clip-path-7"><path class="cls-2" d="M-201.21-139.9a1.39,1.39,0,0,1-.55-.31c-.12-.1-.08-.08-.33,0-.91.15-3.63.41-4.41.09-.1,0-.22-.1-.22-.22s.11-.21.16-.29c-.63.08-1.23.67-.39,1a12.37,12.37,0,0,0,4,.2,10.19,10.19,0,0,0,1.75-.4"/></clipPath><clipPath id="clip-path-8"><path class="cls-2" d="M-200-142.59a3.19,3.19,0,0,0-.42.05l-.44,0c-.89.11-1.88.19-2.78.23-.69,0-3.33.11-3.72-.19,0-.14.16-.23.28-.28a8,8,0,0,1,1.37-.38,7.52,7.52,0,0,0-2.71.61c-.61.31.4.43.78.48a27.2,27.2,0,0,0,6.44-.14,1.54,1.54,0,0,0,.67-.15c.17-.09.39-.19.53-.28"/></clipPath><clipPath id="clip-path-9"><path class="cls-2" d="M-207.36-136.13a14.43,14.43,0,0,0,2.52.36,25.16,25.16,0,0,0,2.88,0,12.62,12.62,0,0,0,3.69-.6c.26-.11.71-.35.75-.58a1.13,1.13,0,0,0-.21.12c-1.87,1-6.14.92-8.34.8l-1.29-.09"/></clipPath><clipPath id="clip-path-10"><path class="cls-2" d="M-199.63-142.82a1.19,1.19,0,0,1,1.23.24,1.34,1.34,0,0,1,.09,1.4,4.58,4.58,0,0,1-1.42,1.57l-.25.18a4.66,4.66,0,0,0,1.41-.67,2.56,2.56,0,0,0,1-1.21,1.35,1.35,0,0,0-.5-1.58,1.3,1.3,0,0,0-.8-.23,1.09,1.09,0,0,0-.73.3"/></clipPath><clipPath id="clip-path-11"><path class="cls-1" d="M-174.4-149.11a.67.67,0,0,1,.64.69.67.67,0,0,1-.64.68.67.67,0,0,1-.65-.68A.67.67,0,0,1-174.4-149.11Zm1.86-1.09a9.2,9.2,0,0,0-1.64.14c-1.46.27-1.73.83-1.73,1.86v1.36h3.45v.46h-4.74a2.16,2.16,0,0,0-2.15,1.81,6.88,6.88,0,0,0,0,3.63c.24,1.06.83,1.81,1.83,1.81h1.18v-1.63a2.24,2.24,0,0,1,2.16-2.22h3.44A1.78,1.78,0,0,0-169-144.8v-3.4a2,2,0,0,0-1.72-1.86A11,11,0,0,0-172.54-150.2Z"/></clipPath><clipPath id="clip-path-12"><path class="cls-1" d="M-170.49-137.72a.65.65,0,0,1,.64.67.66.66,0,0,1-.64.68.67.67,0,0,1-.65-.68A.66.66,0,0,1-170.49-137.72Zm1.93-8.56v1.58a2.24,2.24,0,0,1-2.15,2.25h-3.43a1.78,1.78,0,0,0-1.72,1.8v3.38c0,1,.81,1.52,1.72,1.8a5.57,5.57,0,0,0,3.43,0c.87-.26,1.72-.78,1.72-1.8v-1.36h-3.43v-.45h5.15c1,0,1.37-.71,1.72-1.79a6.31,6.31,0,0,0,0-3.61c-.25-1-.72-1.8-1.72-1.8Z"/></clipPath><clipPath id="clip-path-13"><path class="cls-3" d="M-140.26-110l-2.93,2.93a.24.24,0,0,1-.35,0l-.66-.66a.26.26,0,0,1,0-.35l2.1-2.1-2.1-2.09a.27.27,0,0,1,0-.36l.66-.65a.24.24,0,0,1,.35,0l2.93,2.93A.24.24,0,0,1-140.26-110Z"/></clipPath><clipPath id="clip-path-14"><rect class="cls-3" x="-139.28" y="-108.75" width="5.55" height="1.51" rx="0.38"/></clipPath><clipPath id="clip-path-15"><polygon class="cls-1" points="-244.13 -80.5 -223.73 -80.5 -223.73 -73.07 -233.93 -73.07 -233.93 -71.76 -238.6 -71.76 -238.6 -73.07 -244.13 -73.07 -244.13 -80.5"/></clipPath><clipPath id="clip-path-16"><polygon class="cls-1" points="-241.94 -73.95 -240.12 -73.95 -240.12 -77.66 -239.03 -77.66 -239.03 -73.95 -238.3 -73.95 -238.3 -79.05 -241.94 -79.05 -241.94 -73.95"/></clipPath><clipPath id="clip-path-17"><path class="cls-1" d="M-233.93-75.71H-235V-77.8h1.09ZM-236.84-79v5.83H-235v-1.25h1.82V-79Z"/></clipPath><clipPath id="clip-path-18"><polygon class="cls-1" points="-232.47 -79.05 -232.47 -73.95 -230.42 -73.95 -230.42 -77.66 -229.19 -77.66 -229.19 -73.95 -227.96 -73.95 -227.96 -77.66 -226.73 -77.66 -226.73 -73.95 -225.91 -73.95 -225.91 -79.05 -232.47 -79.05"/></clipPath><clipPath id="clip-path-19"><path class="cls-1" d="M-161.3-77.25v2.77a1.38,1.38,0,0,1-1.38,1.38h-2.77a1.38,1.38,0,0,1-1.38-1.38v-2.77a1.38,1.38,0,0,1,1.38-1.38h2.77A1.38,1.38,0,0,1-161.3-77.25Zm-7.37,0v2.77a1.38,1.38,0,0,1-1.39,1.38h-2.76a1.38,1.38,0,0,1-1.39-1.38v-2.77a1.38,1.38,0,0,1,1.39-1.38h2.76A1.38,1.38,0,0,1-168.67-77.25Zm-7.38,0v2.77a1.38,1.38,0,0,1-1.38,1.38h-2.77a1.38,1.38,0,0,1-1.38-1.38v-2.77a1.38,1.38,0,0,1,1.38-1.38h2.77A1.38,1.38,0,0,1-176-77.25Z"/></clipPath><clipPath id="clip-path-20"><path class="cls-1" d="M-132.62-72h-3.69v-5.86h3.57v1.09H-135v1.21h2.13v1.08H-135v1.39h2.38V-72Zm-.29,4.86H-145.7v-3.78h12.79ZM-146.16-72v-5.86h3.57v1.09h-2.26v1.21h2.13v1.08h-2.13v1.39h2.38V-72Zm4.22-5.86h1.5l.5,1.07c.18.35.3.64.44,1h0c.14-.37.25-.63.39-1l.49-1.07h1.5L-138.73-75l1.71,3h-1.51L-139-73c-.22-.41-.35-.72-.52-1.06h0c-.12.34-.27.65-.45,1.06l-.48,1.06H-142l1.67-3Zm-3.76-7.5h9v4a.38.38,0,0,0,.39.39h3.42v2H-145.7Zm14,6.37h-.48v-2.36a.43.43,0,0,0-.09-.26L-136-86h0a.46.46,0,0,0-.07-.07h0a.2.2,0,0,0-.08,0h0l-.08,0h-9.37a.78.78,0,0,0-.77.79V-79h-.48a1.12,1.12,0,0,0-1.11,1.12V-72a1.12,1.12,0,0,0,1.11,1.12h.48v4a.77.77,0,0,0,.77.78h12.79a.77.77,0,0,0,.77-.78v-4h.48a1.11,1.11,0,0,0,1.1-1.12v-5.83A1.11,1.11,0,0,0-131.66-79Z"/></clipPath><clipPath id="clip-path-21"><path class="cls-1" d="M-108.48,15.52a1,1,0,0,0-1,1h2A1,1,0,0,0-108.48,15.52Zm0-1.2A2.45,2.45,0,0,1-105.86,17v.49h-3.64v.09a1,1,0,0,0,1.06,1.15,1,1,0,0,0,1-.49h1.56A2.35,2.35,0,0,1-108.48,20a2.51,2.51,0,0,1-2.71-2.8C-111.15,15.38-110.17,14.32-108.48,14.32Zm-7.29-1.83c1.65,0,2.8.89,2.85,2.23h-1.69a1.07,1.07,0,0,0-1.16-.85c-.62,0-1.07.31-1.07.76s.32.62,1.07.75l.93.18c1.43.27,2,.89,2,2,0,1.46-1.11,2.35-3,2.35s-2.93-.84-3-2.22H-117c0,.53.57.84,1.29.84s1.15-.31,1.15-.8-.31-.62-1.11-.75l-.93-.18c-1.29-.27-2-1-2-2.09C-118.61,13.38-117.5,12.49-115.77,12.49Zm-3.64-9.91a1.81,1.81,0,0,0-1.83,1.83V20.76a1.8,1.8,0,0,0,1.83,1.82h16.35a1.8,1.8,0,0,0,1.82-1.82V4.49l-6.8,6.85-4.62-4.62,1.91-1.91,2.67,2.66,4.89-4.89Z"/></clipPath><clipPath id="clip-path-22"><path class="cls-2" d="M-72.95,10.49l1.07-.51a.16.16,0,0,1,.15,0,1.82,1.82,0,0,1,.49.75s0,0,0,0c.2-.39,1.44-2.41,2.93-2.7a11.31,11.31,0,0,0-1.49,1.73,16.57,16.57,0,0,0-1,1.87.24.24,0,0,1-.2.15h-1.29a.11.11,0,0,1-.1-.1A1.51,1.51,0,0,0-73,10.52s0,0,0,0"/></clipPath><clipPath id="clip-path-23"><path class="cls-2" d="M-91.38,15.54l-.35.75a.15.15,0,0,0,.12.21h4.27a.48.48,0,0,0,.44-.28l.71-1.39a.12.12,0,0,0-.1-.18h-2a.14.14,0,0,1-.12-.18l.44-1a.3.3,0,0,1,.29-.21h.23a.11.11,0,0,1,.09.18l-.25.5a.16.16,0,0,0,.12.21h1.44a.51.51,0,0,0,.41-.26l.5-.92a.15.15,0,0,0-.11-.23h-4.35A.41.41,0,0,0-90,13l-.92,1.77a.13.13,0,0,0,.09.21h2.45a.11.11,0,0,1,.09.18l-.43.86s0,.06-.07.06h-.62a.09.09,0,0,1-.07-.14l.25-.46a.1.1,0,0,0-.09-.16h-1.71c-.14,0-.25.08-.32.21"/></clipPath><clipPath id="clip-path-24"><path class="cls-2" d="M-84.34,13.44l-.59,1a.12.12,0,0,0,.11.18h1.73a.52.52,0,0,0,.41-.22l.31-.53a.45.45,0,0,1,.35-.21h0a.15.15,0,0,1,.12.19l-.41.8a.5.5,0,0,1-.45.25h-2.51l-.87,1.44a.14.14,0,0,0,.11.2h4.29a.51.51,0,0,0,.43-.25l1.59-2.83a.15.15,0,0,0-.12-.21H-84a.57.57,0,0,0-.38.23m1.14,2.65h-.15a.14.14,0,0,1-.11-.2l.21-.44a.38.38,0,0,1,.31-.18.21.21,0,0,1,.19.3l-.19.34a.29.29,0,0,1-.26.18M-77.52,11l-.07.14L-80.5,16.3a.14.14,0,0,0,.12.2h1.65a.4.4,0,0,0,.34-.18l1.58-2.58a.5.5,0,0,1,.41-.23.17.17,0,0,1,.16.25l-1.42,2.54a.14.14,0,0,0,.14.2H-76a.59.59,0,0,0,.48-.27l1.25-2.31.29-.55s.14-.27-.05-.27h-2.2c-.05,0-.1-.07-.08-.11l.24-.44a.57.57,0,0,0,0-.55,5,5,0,0,0-.83-1.09c-.14,0-.48-.12-.62.13"/></clipPath><clipPath id="clip-path-25"><path class="cls-2" d="M-73.1,12.84l-1.73,3.37a.2.2,0,0,0,.14.29h1.82a.13.13,0,0,0,.14-.1L-71.12,13a.17.17,0,0,0-.14-.26h-1.68c-.09,0-.14,0-.16.08"/></clipPath><clipPath id="clip-path-26"><rect class="cls-1" x="-72.9" y="8.06" width="4.6" height="3.69"/></clipPath><clipPath id="clip-path-28"><path class="cls-2" d="M-240.27,57.39a1.92,1.92,0,0,1-.93-.24,2,2,0,0,1-1-1.77v-8a2,2,0,0,1,2-2,2,2,0,0,1,2,2v4.26l6.31-4.26-9.38-6.34a2,2,0,0,1-.55-2.77,2,2,0,0,1,2.74-.56l11.85,8a2,2,0,0,1,.87,1.67,2,2,0,0,1-.87,1.66l-11.84,8a2,2,0,0,1-1.1.34"/></clipPath><clipPath id="clip-path-29"><rect class="cls-1" x="-182.96" y="37.35" width="20.49" height="20"/></clipPath><clipPath id="clip-path-30"><path class="cls-2" d="M-171,55.76l-.33,0h-.23c.08-.18.14-.33.19-.43l.37.38"/></clipPath><clipPath id="clip-path-31"><path class="cls-2" d="M-171.13,47.5a4,4,0,0,1-.54.37l-.63.37a7.19,7.19,0,0,0-.75.15l0,0a.1.1,0,0,0-.06.08l-.64,2.06-3.4.74-1.07-.73-.31-2.49c.61-.11,1.42-.23,2.4-.34a4.08,4.08,0,0,0-.31.39l-.58.82.85-.56a12.57,12.57,0,0,1,1.43-.78c1-.07,1.93-.11,2.89-.11Zm-5.29,2.8a2,2,0,0,1,.94-.11h.27c.44,0,.8,0,.8-.65s-.32-1.23-.76-1.22-.86.56-.84,1.24a1.15,1.15,0,0,0,.08.39.73.73,0,0,0-.5.35Zm11.18-2.24-.31,2.12-1.08.74-3.39-.38-.64-2a.15.15,0,0,0-.09-.1,6.49,6.49,0,0,0-.89-.16h.08a14.09,14.09,0,0,0,2.64-.63C-167.37,47.72-166.11,47.91-165.24,48.06Zm-2.17,2s-.1-.29-.51-.24a.87.87,0,0,0,.06-.43c-.06-.68-.46-1.22-.9-1.2s-.72.58-.7,1.26.4.67.84.66C-168,50.06-167.71,49.88-167.41,50Z"/></clipPath><clipPath id="clip-path-32"><path class="cls-2" d="M-168.57,49c0,.21-.1.39-.22.39S-169,49.2-169,49h0c0-.22.09-.4.22-.4h0c.12,0,.22.17.23.38h0m-6.3.28c0,.22-.1.4-.22.41s-.23-.17-.23-.39h0c0-.21.09-.39.21-.4h0c.12,0,.22.17.23.38"/></clipPath><clipPath id="clip-path-33"><path class="cls-2" d="M-163.76,49a4.12,4.12,0,0,0-.4-.23l-.29,2a.12.12,0,0,1-.06.1l-.4.28,0,.12a1.2,1.2,0,0,0,1-.39,8.3,8.3,0,0,0,.22-1.18c0-.51,0-.61,0-.66M-170,56.45a1.86,1.86,0,0,1-.71-.45l-.06,0a4,4,0,0,1-.5.07h-.36a2,2,0,0,1-1,.68,6.18,6.18,0,0,0,2.64-.26m-8.69-4.81,0-.09-.53-.36a.17.17,0,0,1-.06-.1l-.26-2.06a4.41,4.41,0,0,0-.47.27s-.09.15,0,.64a7.51,7.51,0,0,0,.31,1.36,1.4,1.4,0,0,0,1.07.34m7.9-.09a.17.17,0,0,1-.12-.1l-.65-2.12-.29,0-.29,0-.63,2.06a.14.14,0,0,1-.11.09l-.3.07c0,.11-.11.26-.4.35a32.65,32.65,0,0,1-3.65.93,3.25,3.25,0,0,1-.83-.38c-.1-.25-.16-.42-.18-.46h0a9.38,9.38,0,0,0,1.18,2.21l1.75-.53c.46-.7,1.11-1.39,1.57-1.41h.25a6.48,6.48,0,0,1,.65,0,.75.75,0,0,1-.23-.41,2,2,0,0,0,1.34.36,2.43,2.43,0,0,0,1.23-.53l0-.13-.31,0"/></clipPath><clipPath id="clip-path-34"><path class="cls-2" d="M-170.22,51.82a.67.67,0,0,1-.32-.17v.06a.75.75,0,0,1-.33.56,4.36,4.36,0,0,1,1.07-.25.52.52,0,0,1,.38.15l.06,0,1.24,1,1.22.13c.23,0,.44,0,.64,0h.18a9.37,9.37,0,0,0,.58-1.31,4.12,4.12,0,0,1-1,.56,33.37,33.37,0,0,1-3.69-.77"/></clipPath><clipPath id="clip-path-35"><path class="cls-2" d="M-162.9,44.41l0-.2a.68.68,0,0,0,0-.14,3.82,3.82,0,0,0-.61-.41,6.24,6.24,0,0,0-.73-.37c-.25-.12-.51-.22-.77-.32a2.5,2.5,0,0,0-.38-.15l-.4-.15c.28,0,.55.11.82.18a4.61,4.61,0,0,1,.53.15,8.09,8.09,0,0,0-7.45-5.27A8.08,8.08,0,0,0-179.38,43a4.61,4.61,0,0,1,.53-.15c.27-.07.54-.13.82-.18l-.4.15a3.12,3.12,0,0,0-.39.15c-.25.1-.51.2-.76.32a6.24,6.24,0,0,0-.73.37,3.82,3.82,0,0,0-.61.41l0,.14a1.23,1.23,0,0,1,0,.2c0,.14,0,.28,0,.41a4.46,4.46,0,0,0,0,.82,5.39,5.39,0,0,0,.16.8c0,.13.08.26.13.39a1.42,1.42,0,0,0,.08.18.36.36,0,0,0,0,.09l0,0,.06,0,.12.06.24.11h0l-.23-.86s.48-.12,1.23-.27l-.18,0-.5-.16-.24-.11a1.16,1.16,0,0,1-.21-.16,13.19,13.19,0,0,0,4,0,41.26,41.26,0,0,1,4.16-.23,41.26,41.26,0,0,1,4.16.23,13.19,13.19,0,0,0,4,0,1.66,1.66,0,0,1-.21.16l-.24.11-.5.16h-.08c.83.15,1.3.28,1.36.29l-.22.82.13-.06.12-.06.06,0,0,0a.36.36,0,0,0,0-.09,1.42,1.42,0,0,0,.08-.18c0-.13.09-.26.13-.39a7.08,7.08,0,0,0,.16-.8,4.46,4.46,0,0,0,.05-.82c0-.13,0-.27,0-.41"/></clipPath><clipPath id="clip-path-36"><path class="cls-2" d="M-168.53,42.83a5.53,5.53,0,0,1-.17,1.64v.08q-.33,0-.66-.06a3.72,3.72,0,0,0,.32-1.25,6.05,6.05,0,0,0,.51-.41m-6.3.41a3.68,3.68,0,0,0,.32,1.24l-.66.06v-.07a5.19,5.19,0,0,1-.17-1.64,6.05,6.05,0,0,0,.51.41m9,1.81v0l.07,0,.61.22a2.18,2.18,0,0,1-.65-1.26,6.52,6.52,0,0,1,0,1m-9.79-2.34-2.11.59a7,7,0,0,0-.06,1.63h0a6.08,6.08,0,0,1,.21-1.22c.07-.17.51-.28.84-.36s.87-.24,1,.23a2.84,2.84,0,0,0,.24.7,5.91,5.91,0,0,1-.11-1.57m7.35,0a6.19,6.19,0,0,1-.12,1.65,3.48,3.48,0,0,0,.27-.78c.11-.47.64-.31,1-.23s.77.19.84.36a5.61,5.61,0,0,1,.21,1.16,6.76,6.76,0,0,0-.08-1.57l-2.1-.59m-6.58.18.23.17a.14.14,0,0,1,.06.11,3.16,3.16,0,0,0,.32,1.27v0c.76-.05,1.52-.07,2.28-.07s1.53,0,2.29.07c0,0,0,0,0,0a3.16,3.16,0,0,0,.32-1.27.14.14,0,0,1,.06-.11l.22-.16v0a10.5,10.5,0,0,0-.31-3.62c0,.47-.13,4.54-1.15,4.54h-2.83c-1.09,0-1.18-4.59-1.18-4.59l-.06.17a10.35,10.35,0,0,0-.28,3.52m-3.2,2.18v0a6.52,6.52,0,0,1,0-1,2.24,2.24,0,0,1-.65,1.26,6.32,6.32,0,0,1,.61-.22l.07,0"/></clipPath><clipPath id="clip-path-37"><path class="cls-2" d="M-164.94,51.22l-.06.27a2.83,2.83,0,0,0,.8.06,2.18,2.18,0,0,0,.27-.72,1.2,1.2,0,0,1-1,.39m-8.36,5.62a5.13,5.13,0,0,0,1.69.18,6.85,6.85,0,0,0,2.06-.47,1.71,1.71,0,0,1-.5-.1,6.18,6.18,0,0,1-2.64.26,2.84,2.84,0,0,1-.49.11l-.12,0m-5.41-5.07,0-.13a1.4,1.4,0,0,1-1.07-.34,1.6,1.6,0,0,0,.24.56,2.87,2.87,0,0,0,.86-.09m.6.68a3.25,3.25,0,0,0,.83.38,32.65,32.65,0,0,0,3.65-.93c.29-.09.37-.24.4-.35l-4.15.91h0l-.08,0-.16-.11-.49-.34h0l-.19-.13v0l0,.1h0s.08.21.18.46m12.72-.79c0-.09,0-.19.08-.29l-.15.1-.38.27-.42.29-.07,0h0l-4.17-.47v.07a.67.67,0,0,0,.32.17,33.37,33.37,0,0,0,3.69.77,4.12,4.12,0,0,0,1-.56h0l.12-.36"/></clipPath><clipPath id="clip-path-38"><path class="cls-2" d="M-169.81,46.13l-.1.13a9.7,9.7,0,0,1-.8.87l-1.17,0c-.66,0-1.3,0-1.9,0a15,15,0,0,1,3-.89c.33-.06.66-.11,1-.14m-5,.37a7.33,7.33,0,0,0-1,.81c-.74.07-1.47.16-2.21.28a17,17,0,0,1,3.19-1.09m10.42,1.73-.35,2.39-1.66,1.15-4.33-.49-.66-2.11a.14.14,0,0,0-.11-.1,2.27,2.27,0,0,0-.42,0,2.27,2.27,0,0,0-.42,0,.13.13,0,0,0-.11.1l-.64,2.06-4.31.94-1.7-1.17-.34-2.68.22-.12.36-.08.31,2.53a.14.14,0,0,0,.07.1l1.17.81.08,0h0l3.54-.77,0,0a.11.11,0,0,0,.07-.08l.64-2.07a4.73,4.73,0,0,1,1-.14,4.73,4.73,0,0,1,1,.14l.64,2.07a.17.17,0,0,0,.12.1l3.54.39a.12.12,0,0,0,.1,0l1.18-.81a.12.12,0,0,0,.05-.09l.32-2.16.59.11m.43-1.49-.3,1.13a33.86,33.86,0,0,0-3.86-.57,9.88,9.88,0,0,0,1.8-1c1.11.15,1.92.32,2.36.42m-15.88,0,.08.31c.21-.16.42-.32.64-.46-.3,0-.54.11-.72.15"/></clipPath><clipPath id="clip-path-39"><path class="cls-2" d="M-167.86,46.1l-1.4-.07-.16.23a9.06,9.06,0,0,1-1.38,1.46,11,11,0,0,0,3.32-1.6l-.38,0m-3.42-.12H-173l-.65.3h0a7.62,7.62,0,0,0-1.73,1.21l.22-.11A10.83,10.83,0,0,1-171.81,46h.53m-3.95.08-.89,0-1,.07-.51,0-.15,0a14.12,14.12,0,0,0-3.34,2.71l.06-.07a13.51,13.51,0,0,1,5.86-2.81m9.88,7.53,0,0a1.84,1.84,0,0,1-.88.17c-.22,0-.44,0-.68,0-.48,0-1.29-.14-1.29-.14h-.07l-.05,0s-.71-.56-1.29-1l-.06,0c-.06,0-.06,0-.1,0a12.74,12.74,0,0,0-1.89.52l-.07,0-.07,0a5.2,5.2,0,0,0-1.7-.29h-.22c-.1,0-.61.25-1.28,1.28l0,.06-.07,0s-1.16.36-2.37.7l-.07,0-.08,0-.93-.42.1,0c.45.38,1.3,1.11,1.39,1.21l.05.05-.06-.07h0a2.41,2.41,0,0,0,.65.46,1.77,1.77,0,0,0,.37.12h.4l.8-.06.8-.08.8-.11.39-.06.18-.06.15-.1.29-.27.28-.29c.16-.16.29-.33.44-.5l.06-.06h0l.1.07c.18.13.37.28.55.4a7.94,7.94,0,0,0,.72.46,1.51,1.51,0,0,0,.18.09h.19l.42,0,.84-.15.84-.17.83-.19a2.34,2.34,0,0,0,.4-.13,1.63,1.63,0,0,0,.35-.23,2.47,2.47,0,0,0,.55-.65h0a4.08,4.08,0,0,0,.19-.42m-5.24-13h.5v-1h-3.61v1h.49v-.5h1v3h-.42v.56h1.42v-.56h-.42v-3h1v.5"/></clipPath><clipPath id="clip-path-40"><path class="cls-2" d="M-166.85,46.17h0l-.61,0h0a11,11,0,0,1-3.32,1.6l0,0a10.8,10.8,0,0,0,2.48-.73,8.68,8.68,0,0,0,1.39-.77l.11-.07m-5-.2a11,11,0,0,0-3.39,1.42c.4-.2.81-.39,1.22-.56l.15-.06.05,0,.13,0,.07,0,.11,0,.09,0,.11,0,.1,0,.1,0,.11,0,.1,0,.13-.05.08,0,.22-.07.49-.14.66-.16h-.53m-3.42.09a13.51,13.51,0,0,0-5.86,2.81l-.06.07a19.2,19.2,0,0,1,5.37-2.57l.23-.07c.4-.11.8-.2,1.21-.28l-.89,0m10.3,7.33-.07,0,0,0h0l-.05,0h0l-.05,0h0l-.05,0h0l-.1.05a4.08,4.08,0,0,1-.19.42h0a2.67,2.67,0,0,1-.55.65,1.63,1.63,0,0,1-.35.23,2.34,2.34,0,0,1-.4.13l-.83.19-.84.17-.84.15-.42,0H-170a1.51,1.51,0,0,1-.18-.09,6.76,6.76,0,0,1-.72-.46c-.18-.12-.37-.27-.55-.4l0,0h0l0,0h0l0,0,.16.18v0c.08.09.41.46.8.84a1.45,1.45,0,0,0,1,.44,1.72,1.72,0,0,0,.44-.06l.44-.1c.45-.11,1-.22,1.28-.31l.07,0,.13,0,.19,0a1.63,1.63,0,0,0,1.25-.79l.27-.52c.14-.28.29-.56.44-.84h0l0,0-.07,0m-6.61,1.24,0,0c-.15.17-.28.34-.44.5l-.28.29-.29.27-.15.1-.18,0-.39.07-.8.11-.8.08-.8.06h-.39a2.4,2.4,0,0,1-.38-.12,2.61,2.61,0,0,1-.65-.45h0l.08.09,0,0-.05-.05c-.09-.1-.94-.83-1.39-1.21l-.1,0,.26.37c.13.18.26.37.4.55l.18.23a2.65,2.65,0,0,0,2.25,1.18l.47,0h.2c1-.12,1.3-.17,1.45-.19l.11,0h.05a2.38,2.38,0,0,0,.68-.2,1.15,1.15,0,0,0,.57-.52c.28-.62.34-.77.34-.78l.1-.26"/></clipPath><clipPath id="clip-path-41"><path class="cls-2" d="M-168.79,49a.22.22,0,0,0,.22-.22.23.23,0,0,0-.23-.22h0a.22.22,0,0,0-.22.22h0A.22.22,0,0,0-168.79,49Zm1.38,1c-.3-.14-.62,0-1.21,0-.44,0-.81,0-.84-.66s.26-1.25.7-1.26.84.52.9,1.2a.87.87,0,0,1-.06.43C-167.51,49.73-167.42,50-167.41,50Zm-7.68-.83a.24.24,0,0,0,.22-.23.24.24,0,0,0-.23-.22.22.22,0,0,0-.22.23A.22.22,0,0,0-175.09,49.19Zm.68.35c0,.68-.36.64-.8.65h-.27a2,2,0,0,0-1,.11.73.73,0,0,1,.5-.35,1.15,1.15,0,0,1-.08-.39c0-.68.4-1.24.84-1.24S-174.42,48.86-174.41,49.54Zm8.33-4.67a.49.49,0,0,0,0,.12l-.53-.13a17.42,17.42,0,0,0-1.76-.28h-.06v0c0-.07,0-.13.05-.19a6.19,6.19,0,0,0,.12-1.65l2.1.59A6.76,6.76,0,0,1-166.08,44.87Zm-2.62-.4v.08q-.33,0-.66-.06a3.72,3.72,0,0,0,.32-1.25,6.05,6.05,0,0,0,.51-.41A5.53,5.53,0,0,1-168.7,44.47Zm-6.47.07v-.07a5.21,5.21,0,0,1-.17-1.64,6.05,6.05,0,0,0,.51.41,3.68,3.68,0,0,0,.32,1.24Zm-.32,0c-.3,0-.59.07-.88.12l-.88.16-.53.13v-.06a7,7,0,0,1,.06-1.63l2.11-.59a5.91,5.91,0,0,0,.11,1.57l.06.27v0Zm10.53.83,0,0-.09,0-.06,0c-.19-.08-.39-.15-.6-.22l-.07,0v0a6.52,6.52,0,0,0,0-1,6.24,6.24,0,0,0-.1-.88.14.14,0,0,0-.1-.11l-.29-.08a5.51,5.51,0,0,0-1.05-3.39,6.26,6.26,0,0,1,.83,3.33l-1.86-.52h-.14l-.12.12c0-.17,0-.43,0-.75v-.09a6.89,6.89,0,0,0-.83-2.92s.06.18.13.46a10.24,10.24,0,0,1,.32,3.62v0h0l-.22.16a.14.14,0,0,0-.06.11,3.16,3.16,0,0,1-.32,1.27s0,0,0,0c-.76-.05-1.52-.07-2.29-.07s-1.52,0-2.28.07v0a3.16,3.16,0,0,1-.32-1.27.14.14,0,0,0-.06-.11l-.23-.17a10.35,10.35,0,0,1,.28-3.52c.09-.35.16-.56.17-.58a7.51,7.51,0,0,0-.85,3.76l-.13-.12h-.13l-1.86.52a6.26,6.26,0,0,1,.83-3.33A5.51,5.51,0,0,0-177.58,43l-.29.08a.13.13,0,0,0-.1.11,8.46,8.46,0,0,0-.1.88,6.52,6.52,0,0,0,0,1v0l-.07,0-.61.22s0,0-.05,0h0l-.08,0,0,0,0,0a2.25,2.25,0,0,1,.42-.13,3.43,3.43,0,0,1,.44-.09c.28-.06.57-.1.87-.14l.87-.09.88-.07c1.17-.06,2.35-.09,3.52-.09s2.36,0,3.53.09l.88.07.87.09c.29,0,.58.08.87.14a3,3,0,0,1,.43.09,2.13,2.13,0,0,1,.43.13Z"/></clipPath><clipPath id="clip-path-42"><path class="cls-2" d="M-171.61,40.11v3h.42v.56h-1.42v-.56h.42v-3h-1v.5h-.49v-1h3.61v1h-.5v-.5Zm1.89.87V39.26h-4.35V41h1.23v-.5h.28v2.31H-173v1.3h2.16v-1.3h-.42V40.48h.28V41Z"/></clipPath><clipPath id="clip-path-43"><rect class="cls-1" x="-150.74" y="37.25" width="19.26" height="20"/></clipPath><clipPath id="clip-path-44"><path class="cls-1" d="M21,11.37a1.68,1.68,0,1,0,1.56,1.69A1.62,1.62,0,0,0,21,11.37Zm0-.93A2.62,2.62,0,1,1,18.43,13,2.59,2.59,0,0,1,21,10.44Zm-5.4,2.23,1.85,2.88H16.26L14.9,13.4l-.4.46v1.69h-1v-5h1V12.5l1.73-1.94h1.21Zm-3.79-2.11v5h-.95v-5Zm-3.94,2.9-.63-1.84-.63,1.84Zm.32.93H6.25l-.4,1.16h-1l1.78-5H7.76l1.79,5h-1ZM4.43,10.56v.92H3.29v4.07h-1V11.48H1.18v-.92Z"/></clipPath><clipPath id="clip-path-45"><rect class="cls-1" x="1.18" y="10.44" width="22.53" height="5.63"/></clipPath></defs><title>Taiko</title><rect class="cls-1" x="-675.57" y="-1120.26" width="1366" height="2644"/><rect class="cls-1" x="-967.17" y="-1249.83" width="1366" height="3311"/><path class="cls-3" d="M-140.26-110l-2.93,2.93a.24.24,0,0,1-.35,0l-.66-.66a.26.26,0,0,1,0-.35l2.1-2.1-2.1-2.09a.27.27,0,0,1,0-.36l.66-.65a.24.24,0,0,1,.35,0l2.93,2.93A.24.24,0,0,1-140.26-110Z"/><g class="cls-17"><rect class="cls-3" x="-700.33" y="-459.19" width="742.75" height="1800.34"/></g><rect class="cls-3" x="-139.28" y="-108.75" width="5.55" height="1.51" rx="0.38"/><g class="cls-18"><rect class="cls-3" x="-699.33" y="-459.19" width="742.75" height="1800.34"/></g><rect class="cls-1" x="-725.58" y="-1176.12" width="1366" height="3024"/><rect class="cls-1" x="-608.38" y="-976.67" width="1366" height="2291"/><rect class="cls-1" x="-622.46" y="-1354.02" width="1366" height="2291"/><rect class="cls-1" x="-823.9" y="-1096.25" width="1366" height="2291"/><rect class="cls-1" x="-823.9" y="-1096.25" width="1366" height="2291"/><rect class="cls-1" x="-823.9" y="-1096.25" width="1366" height="2291"/><rect class="cls-1" x="-463.95" y="-1635.24" width="1366" height="2291"/><rect class="cls-1" x="-761" y="-1097.25" width="1366" height="2291"/><g class="cls-47"><g class="cls-48"><rect class="cls-49" x="-2.84" y="6.42" width="30.35" height="13.27"/></g></g></svg>