<?xml version="1.0" encoding="UTF-8" standalone="no"?>
<svg width="568px" height="100px" viewBox="0 0 568 100" version="1.1" xmlns="http://www.w3.org/2000/svg" xmlns:xlink="http://www.w3.org/1999/xlink" xmlns:sketch="http://www.bohemiancoding.com/sketch/ns">
    <!-- Generator: Sketch Beta 3.4 (15575) - http://www.bohemiancoding.com/sketch -->
    <title>Slice 1</title>
    <desc>Created with Sketch Beta.</desc>
    <defs>
        <path id="path-1" d="M0,0.043 L568,0.043 L568,99 L0,99 L0,0.043 Z"></path>
        <path id="path-3" d="M0,0.043 L568,0.043 L568,99 L0,99 L0,0.043 Z"></path>
    </defs>
    <g id="Page-1" stroke="none" stroke-width="1" fill="none" fill-rule="evenodd" sketch:type="MSPage">
        <g sketch:type="MSLayerGroup">
            <path d="M0,13.0383 L0,24.7963 L17.98,24.7963 L17.98,82.3363 L31.883,82.3363 L31.883,24.7963 L49.866,24.7963 L49.866,13.0383 L0,13.0383 Z" id="Fill-1" fill="#E4E4E4" sketch:type="MSShapeGroup"></path>
            <g id="Group-28">
                <path d="M68.3208,37.6221 C72.5048,34.1501 77.6648,31.3871 83.1898,31.3871 C88.6268,31.3871 96.2838,34.6831 96.2838,46.9811 L96.2838,82.3371 L83.0998,82.3371 L83.0998,52.3171 C83.0998,48.3161 83.3698,41.9841 77.6648,41.9841 C73.8388,41.9841 70.8078,44.7501 68.3208,47.4221 L68.3208,82.3371 L55.1268,82.3371 L55.1268,13.0381 L68.3208,13.0381 L68.3208,37.6221 Z" id="Fill-2" fill="#E4E4E4" sketch:type="MSShapeGroup"></path>
                <path d="M132.0044,57.3945 C132.0044,51.1625 130.7574,41.0945 123.6244,41.0945 C116.5034,41.0945 115.2594,51.1625 115.2594,57.3945 C115.2594,63.6295 116.5034,73.6995 123.6244,73.6995 C130.7574,73.6995 132.0044,63.6295 132.0044,57.3945 M101.7114,57.3945 C101.7114,44.1235 109.0254,31.3875 123.6244,31.3875 C138.2384,31.3875 145.5394,44.1235 145.5394,57.3945 C145.5394,70.5775 138.1454,83.4075 123.6244,83.4075 C109.1064,83.4075 101.7114,70.5775 101.7114,57.3945" id="Fill-4" fill="#E4E4E4" sketch:type="MSShapeGroup"></path>
                <path d="M179.2993,77.1768 C175.1153,80.6468 169.9543,83.4068 164.4243,83.4068 C158.9943,83.4068 151.3303,80.1108 151.3303,67.8208 L151.3303,32.4498 L164.5113,32.4498 L164.5113,62.4688 C164.5113,66.4868 164.2443,72.8078 169.9543,72.8078 C173.7813,72.8078 176.7993,70.0498 179.2993,67.3698 L179.2993,32.4498 L192.4873,32.4498 L192.4873,82.3368 L179.2993,82.3368 L179.2993,77.1768 Z" id="Fill-6" fill="#E4E4E4" sketch:type="MSShapeGroup"></path>
                <g id="Group-10">
                    <mask id="mask-2" sketch:name="Clip 9" fill="white">
                        <use xlink:href="#path-1"></use>
                    </mask>
                    <g id="Clip-9"></g>
                    <path d="M218.937,57.5781 C224.467,57.5781 226.061,53.0351 226.061,48.3161 C226.061,43.7701 223.927,39.9371 218.937,39.9371 C213.419,39.9371 211.726,44.5691 211.726,49.2921 C211.726,53.8391 213.863,57.5781 218.937,57.5781 L218.937,57.5781 Z M209.85,82.4221 C208.606,83.2251 207.809,83.9431 207.809,85.5461 C207.809,90.1791 217.153,90.4461 220.273,90.4461 C222.504,90.4461 234.082,90.1791 234.082,86.1691 C234.082,83.5811 232.305,83.8551 224.467,83.4071 L209.85,82.4221 Z M214.04,65.9531 C212.52,65.9531 210.299,66.7561 210.299,69.0691 C210.299,75.5721 244.866,64.2601 244.866,83.7671 C244.866,91.1621 239.869,99.0001 220.101,99.0001 C202.912,99.0001 197.019,92.9361 197.019,86.4361 C197.019,82.6051 199.425,80.6461 202.462,78.8601 C200.312,77.2631 198.544,75.3901 198.544,72.5451 C198.544,67.6361 201.212,65.0571 205.039,62.5631 C201.392,59.0031 198.808,54.5461 198.808,48.8511 C198.808,37.7991 208.162,31.3861 218.937,31.3861 C223.304,31.3861 227.488,32.6361 231.231,34.8571 C233.905,32.3601 236.305,30.7641 240.229,30.7641 C241.473,30.7641 242.818,30.8561 244.06,31.1171 L244.06,40.3881 C242.722,39.8481 241.302,39.3191 239.869,39.3191 C238.458,39.3191 237.561,39.7661 236.305,40.3881 C237.735,43.0571 238.901,45.9961 238.979,48.8511 C238.979,59.8961 229.715,66.3061 218.937,66.3061 L214.04,65.9531 Z" id="Fill-8" fill="#E4E4E4" sketch:type="MSShapeGroup" mask="url(#mask-2)"></path>
                </g>
                <path d="M262.9409,37.6221 C267.1229,34.1501 272.2979,31.3871 277.8189,31.3871 C283.2619,31.3871 290.9149,34.6831 290.9149,46.9811 L290.9149,82.3371 L277.7329,82.3371 L277.7329,52.3171 C277.7329,48.3161 278.0029,41.9841 272.2979,41.9841 C268.4589,41.9841 265.4409,44.7501 262.9409,47.4221 L262.9409,82.3371 L249.7599,82.3371 L249.7599,13.0381 L262.9409,13.0381 L262.9409,37.6221 Z" id="Fill-11" fill="#E4E4E4" sketch:type="MSShapeGroup"></path>
                <path d="M314.8765,32.457 L325.1175,32.457 L325.1175,43.414 L314.8765,43.414 L314.8765,68.803 C314.8765,71.204 315.5805,73.692 319.8705,73.692 C322.0935,73.692 323.5085,72.808 325.1175,71.836 L325.1175,81.896 C322.3575,82.698 319.5145,83.407 316.6565,83.407 C308.4625,83.407 301.6945,78.775 301.6945,67.908 L301.6945,43.414 L295.5445,43.414 L295.5445,32.457 L301.6945,32.457 L301.6945,19.99 L314.8765,19.99 L314.8765,32.457 Z" id="Fill-13" fill="#E4E4E4" sketch:type="MSShapeGroup"></path>
                <path d="M379.981,82.3369 L372.866,82.3369 L361.102,25.6839 L360.928,25.6839 L348.546,82.3369 L341.416,82.3369 L326.901,13.0379 L333.842,13.0379 L345.251,68.9769 L345.432,68.9769 L357.901,13.0379 L364.755,13.0379 L376.597,68.9769 L376.786,68.9769 L388.987,13.0379 L395.844,13.0379 L379.981,82.3369 Z" id="Fill-15" fill="#E4E4E4" sketch:type="MSShapeGroup"></path>
                <path d="M425.2339,57.748 C425.2339,49.38 423.1999,37.622 412.4999,37.622 C401.8059,37.622 399.7609,49.38 399.7609,57.748 C399.7609,66.124 401.8059,77.886 412.4999,77.886 C423.1999,77.886 425.2339,66.124 425.2339,57.748 M392.8079,57.748 C392.8079,39.316 401.5429,31.743 412.4999,31.743 C423.4549,31.743 432.1849,39.316 432.1849,57.748 C432.1849,76.194 423.4549,83.766 412.4999,83.766 C401.5429,83.766 392.8079,76.194 392.8079,57.748" id="Fill-17" fill="#E4E4E4" sketch:type="MSShapeGroup"></path>
                <path d="M444.5659,43.7705 L444.7499,43.7705 C447.5059,37.8905 451.0709,32.4575 458.3719,32.4575 L461.0449,32.4575 L461.0449,38.7845 C451.9629,37.5295 447.2469,47.3355 444.5659,54.4545 L444.5659,82.3395 L437.6259,82.3395 L437.6259,33.1715 L444.5659,33.1715 L444.5659,43.7705 Z" id="Fill-19" fill="#E4E4E4" sketch:type="MSShapeGroup"></path>
                <path d="M473.6001,55.9756 L491.8591,33.1716 L499.6161,33.1716 L486.0831,50.0076 L501.6651,82.3396 L494.1811,82.3396 L481.6211,55.6216 L473.6001,65.5076 L473.6001,82.3396 L466.6681,82.3396 L466.6681,13.0376 L473.6001,13.0376 L473.6001,55.9756 Z" id="Fill-21" fill="#E4E4E4" sketch:type="MSShapeGroup"></path>
                <path d="M531.7661,44.123 C529.0151,40.021 525.7181,37.622 520.5381,37.622 C515.9971,37.622 511.7331,39.937 511.7331,44.925 C511.7331,56.951 537.6531,51.695 537.6531,68.261 C537.6531,77.885 530.7791,83.765 521.5251,83.765 C513.6041,83.765 507.1891,80.292 503.1761,73.43 L508.7031,69.957 C511.3761,75.033 515.6571,77.885 521.5251,77.885 C526.6111,77.885 531.1551,75.123 531.1551,69.515 C531.1551,57.129 505.2201,63.013 505.2201,45.371 C505.2201,36.907 512.1891,31.744 520.2841,31.744 C527.1451,31.744 532.8421,34.595 536.6661,40.298 L531.7661,44.123 Z" id="Fill-23" fill="#E4E4E4" sketch:type="MSShapeGroup"></path>
                <g id="Group-27">
                    <mask id="mask-4" sketch:name="Clip 26" fill="white">
                        <use xlink:href="#path-3"></use>
                    </mask>
                    <g id="Clip-26"></g>
                    <path d="M557.1626,11.8027 C557.6866,11.8027 558.1716,11.6487 558.6156,11.3417 C559.0606,11.0327 559.2826,10.4917 559.2826,9.7177 C559.2826,8.9427 559.0956,8.4017 558.7196,8.0937 C558.3436,7.7847 557.8236,7.6317 557.1626,7.6317 L553.1626,7.6317 L553.1626,11.8027 L557.1626,11.8027 Z M558.9406,18.9137 L556.4786,14.1617 L553.1626,14.1617 L553.1626,18.8797 L550.5996,18.8797 L550.5996,5.2727 L557.1286,5.2727 C558.5646,5.2727 559.7036,5.6717 560.5466,6.4697 C561.3916,7.2677 561.8126,8.3497 561.8126,9.7177 C561.8126,10.6977 561.5576,11.5527 561.0426,12.2817 C560.5306,13.0107 559.8416,13.5347 558.9746,13.8547 L561.8806,18.9137 L558.9406,18.9137 Z M564.7536,8.4697 C564.2286,7.2507 563.5216,6.1847 562.6336,5.2727 C561.7436,4.3617 560.6956,3.6437 559.4876,3.1187 C558.2796,2.5947 556.9916,2.3317 555.6246,2.3317 C554.2576,2.3317 552.9706,2.5947 551.7626,3.1187 C550.5546,3.6437 549.5056,4.3617 548.6156,5.2727 C547.7266,6.1847 547.0206,7.2507 546.4966,8.4697 C545.9736,9.6887 545.7106,10.9937 545.7106,12.3847 C545.7106,13.7747 545.9736,15.0847 546.4966,16.3157 C547.0206,17.5467 547.7266,18.6167 548.6156,19.5297 C549.5056,20.4407 550.5546,21.1577 551.7626,21.6827 C552.9706,22.2067 554.2576,22.4697 555.6246,22.4697 C556.9916,22.4697 558.2796,22.2067 559.4876,21.6827 C560.6956,21.1577 561.7436,20.4407 562.6336,19.5297 C563.5216,18.6167 564.2286,17.5467 564.7536,16.3157 C565.2766,15.0847 565.5386,13.7747 565.5386,12.3847 C565.5386,10.9937 565.2766,9.6887 564.7536,8.4697 L564.7536,8.4697 Z M567.0256,17.2047 C566.3766,18.7087 565.4936,20.0197 564.3766,21.1357 C563.2606,22.2527 561.9496,23.1357 560.4446,23.7847 C558.9406,24.4357 557.3336,24.7597 555.6246,24.7597 C553.9156,24.7597 552.3086,24.4357 550.8046,23.7847 C549.3006,23.1357 547.9886,22.2527 546.8716,21.1357 C545.7556,20.0197 544.8726,18.7087 544.2236,17.2047 C543.5726,15.7007 543.2486,14.0937 543.2486,12.3847 C543.2486,10.6747 543.5726,9.0737 544.2236,7.5797 C544.8726,6.0877 545.7556,4.7827 546.8716,3.6657 C547.9886,2.5497 549.3006,1.6657 550.8046,1.0167 C552.3086,0.3667 553.9156,0.0427 555.6246,0.0427 C557.3336,0.0427 558.9406,0.3667 560.4446,1.0167 C561.9496,1.6657 563.2606,2.5497 564.3766,3.6657 C565.4936,4.7827 566.3766,6.0877 567.0256,7.5797 C567.6766,9.0737 567.9996,10.6747 567.9996,12.3847 C567.9996,14.0937 567.6766,15.7007 567.0256,17.2047 L567.0256,17.2047 Z" id="Fill-25" fill="#E3E3E3" sketch:type="MSShapeGroup" mask="url(#mask-4)"></path>
                </g>
            </g>
        </g>
    </g>
</svg>