<svg id="Layer_1" data-name="Layer 1" xmlns="http://www.w3.org/2000/svg" xmlns:xlink="http://www.w3.org/1999/xlink" viewBox="0 0 25 25"><defs><style>.cls-1,.cls-2,.cls-4{fill:none;}.cls-2{clip-rule:evenodd;}.cls-3{fill:#fff;}.cls-4{fill-rule:evenodd;}.cls-5{clip-path:url(#clip-path);}.cls-6{clip-path:url(#clip-path-2);}.cls-7{clip-path:url(#clip-path-3);}.cls-8{clip-path:url(#clip-path-4);}.cls-9{clip-path:url(#clip-path-5);}.cls-10{clip-path:url(#clip-path-6);}.cls-11{clip-path:url(#clip-path-7);}.cls-12{clip-path:url(#clip-path-8);}.cls-13{clip-path:url(#clip-path-9);}.cls-14{clip-path:url(#clip-path-10);}.cls-15{clip-path:url(#clip-path-11);}.cls-16{clip-path:url(#clip-path-12);}.cls-17{clip-path:url(#clip-path-13);}.cls-18{clip-path:url(#clip-path-14);}.cls-19{clip-path:url(#clip-path-15);}.cls-20{clip-path:url(#clip-path-16);}.cls-21{clip-path:url(#clip-path-17);}.cls-22{clip-path:url(#clip-path-18);}.cls-23{clip-path:url(#clip-path-19);}.cls-24{clip-path:url(#clip-path-20);}.cls-25{clip-path:url(#clip-path-21);}.cls-26{clip-path:url(#clip-path-22);}.cls-27{clip-path:url(#clip-path-23);}.cls-28{clip-path:url(#clip-path-24);}.cls-29{clip-path:url(#clip-path-25);}.cls-30{clip-path:url(#clip-path-26);}.cls-31{clip-path:url(#clip-path-28);}.cls-32{clip-path:url(#clip-path-29);}.cls-33{clip-path:url(#clip-path-30);}.cls-34{isolation:isolate;}.cls-35{clip-path:url(#clip-path-31);}.cls-36{clip-path:url(#clip-path-32);}.cls-37{clip-path:url(#clip-path-33);}.cls-38{fill:#0e0f0d;}.cls-39{clip-path:url(#clip-path-34);}.cls-40{fill:#e1c5a2;}.cls-41{clip-path:url(#clip-path-36);}.cls-42{fill:#a89983;}.cls-43{clip-path:url(#clip-path-38);}.cls-44{clip-path:url(#clip-path-40);}.cls-45{clip-path:url(#clip-path-42);}.cls-46{clip-path:url(#clip-path-44);}.cls-47{fill:#e0d896;}.cls-48{clip-path:url(#clip-path-46);}.cls-49{fill:#d7c184;}.cls-50{clip-path:url(#clip-path-48);}.cls-51{fill:#9f8f78;}.cls-52{clip-path:url(#clip-path-50);}.cls-53{fill:#6e6a67;}.cls-54{clip-path:url(#clip-path-52);}.cls-55{fill:#93232c;}.cls-56{clip-path:url(#clip-path-54);}.cls-57{fill:#731b2a;}.cls-58{clip-path:url(#clip-path-56);}.cls-59{clip-path:url(#clip-path-58);}.cls-60{clip-path:url(#clip-path-60);}</style><clipPath id="clip-path"><rect class="cls-1" x="31.28" y="772" width="19.26" height="20"/></clipPath><clipPath id="clip-path-2"><path class="cls-1" d="M-45.53-178.84a2.06,2.06,0,0,0-2.26,2c0,1.26.74,1.85,1.85,2.32l.39.17c.7.31,1,.5,1,1s-.34.76-1,.76-1.12-.52-1.45-1.06l-1.21.81a2.8,2.8,0,0,0,2.7,1.62c1.47,0,2.56-.76,2.56-2.15s-.74-1.87-2.06-2.43l-.38-.17c-.66-.28-1-.47-1-.93a.68.68,0,0,1,.74-.67,1,1,0,0,1,1,.67l1.2-.77A2.26,2.26,0,0,0-45.53-178.84Zm-5,0v5.09c0,.78-.3,1-.81,1a1.34,1.34,0,0,1-1.16-.77l-1.27.77a2.84,2.84,0,0,0,2.52,1.62,2.13,2.13,0,0,0,2.34-2.36v-5.33Zm-6.61-6.88h14.84a.27.27,0,0,1,.27.27v14.84a.27.27,0,0,1-.27.27H-57.18a.27.27,0,0,1-.27-.27v-14.84A.27.27,0,0,1-57.18-185.72Zm0-.81a1.09,1.09,0,0,0-1.08,1.08v14.84a1.09,1.09,0,0,0,1.08,1.08h14.84a1.09,1.09,0,0,0,1.08-1.08v-14.84a1.09,1.09,0,0,0-1.08-1.08Z"/></clipPath><clipPath id="clip-path-3"><path class="cls-2" d="M-19.38-177.87l-.31-.49c-.1-.16-.2-.34-.29-.51a5,5,0,0,1-.47-1.16,1.92,1.92,0,0,1,.63-1.72,1.92,1.92,0,0,1,.18-.22c.39-.45.93-1,1.35-1.45a2.54,2.54,0,0,0,.73-1.7c0-.39,0-1.22-.29-1.36a2.84,2.84,0,0,1-.12,1.55,3.43,3.43,0,0,1-1.12,1.49c-.38.32-1,.91-1.34,1.26a3.57,3.57,0,0,0-.72,1,1.42,1.42,0,0,0,.23,1.36c.12.19.23.35.35.52s.27.34.38.5.26.32.39.47a4.79,4.79,0,0,0,.42.46"/></clipPath><clipPath id="clip-path-4"><path class="cls-2" d="M-14.08-172.84c.16.2,0,.29-.23.37a29.16,29.16,0,0,1-5.46.43A22.71,22.71,0,0,1-23-172.2c-.17,0-.92-.11-.95-.26s.11-.16.17-.2a4.11,4.11,0,0,1,1-.23,3.48,3.48,0,0,0,.36-.05,4.75,4.75,0,0,0-2.46.53c-.22.24.15.35.4.41a23.15,23.15,0,0,0,3.86.28c1.52,0,5.16,0,6.5-.69.08,0,.23-.12.25-.21s-.14-.19-.22-.22"/></clipPath><clipPath id="clip-path-5"><path class="cls-2" d="M-18.22-176.64a3.72,3.72,0,0,0,.81-.59,1.49,1.49,0,0,0,.5-.88,1.87,1.87,0,0,0-.37-1c-.48-.69-.86-1.09-.21-1.87a5.14,5.14,0,0,1,.72-.67,14.22,14.22,0,0,1,1.24-.85l.44-.27a8,8,0,0,0-1.08.35,7.49,7.49,0,0,0-1,.46c-1,.54-1.92,1.39-1.53,2.56.26.8,1,1.27,1,1.87a2.44,2.44,0,0,1-.51.91"/></clipPath><clipPath id="clip-path-6"><path class="cls-2" d="M-16.32-173.44a5.59,5.59,0,0,1-.86-.38c-.17-.08-.1-.08-.32,0a16.4,16.4,0,0,1-3.22.16c-.24,0-.91,0-1-.21s0-.21.07-.28c-.6.11-1.21.53-.37.89a9.57,9.57,0,0,0,4,.25,14.93,14.93,0,0,0,1.78-.4"/></clipPath><clipPath id="clip-path-7"><path class="cls-2" d="M-16.32-174.66a1.38,1.38,0,0,1-.55-.3c-.12-.1-.08-.08-.34,0-.91.14-3.62.41-4.4.09-.1,0-.22-.1-.23-.22s.11-.21.16-.29c-.62.08-1.22.67-.38.95a12,12,0,0,0,4,.21,9.44,9.44,0,0,0,1.76-.41"/></clipPath><clipPath id="clip-path-8"><path class="cls-2" d="M-15.09-177.34a3.15,3.15,0,0,0-.43.05l-.43,0c-.9.11-1.89.19-2.78.23-.7,0-3.33.11-3.72-.19,0-.14.16-.23.27-.28a8.92,8.92,0,0,1,1.38-.39,7.79,7.79,0,0,0-2.72.61c-.6.32.41.44.78.49a27.74,27.74,0,0,0,6.44-.14,1.45,1.45,0,0,0,.68-.16c.16-.08.38-.18.53-.27"/></clipPath><clipPath id="clip-path-9"><path class="cls-2" d="M-22.47-170.88a14.43,14.43,0,0,0,2.52.36,25.16,25.16,0,0,0,2.88,0,12.4,12.4,0,0,0,3.69-.61c.25-.1.71-.34.75-.58l-.21.12c-1.87,1-6.14.93-8.34.8l-1.29-.08"/></clipPath><clipPath id="clip-path-10"><path class="cls-2" d="M-14.74-177.57a1.2,1.2,0,0,1,1.23.24,1.36,1.36,0,0,1,.09,1.4,4.68,4.68,0,0,1-1.42,1.57l-.25.18a4.74,4.74,0,0,0,1.4-.67,2.58,2.58,0,0,0,1-1.21,1.35,1.35,0,0,0-.5-1.58,1.32,1.32,0,0,0-.8-.23,1.09,1.09,0,0,0-.73.3"/></clipPath><clipPath id="clip-path-11"><path class="cls-1" d="M10.48-183.86a.67.67,0,0,1,.65.69.66.66,0,0,1-.65.67.66.66,0,0,1-.64-.67A.67.67,0,0,1,10.48-183.86Zm1.87-1.09a9.4,9.4,0,0,0-1.65.14C9.24-184.54,9-184,9-182.95v1.36h3.44v.46H7.69a2.16,2.16,0,0,0-2.15,1.81,6.88,6.88,0,0,0,0,3.63c.24,1.06.83,1.81,1.83,1.81H8.55v-1.63a2.23,2.23,0,0,1,2.15-2.22h3.44a1.77,1.77,0,0,0,1.72-1.82v-3.4a2,2,0,0,0-1.72-1.86A9.82,9.82,0,0,0,12.35-184.95Z"/></clipPath><clipPath id="clip-path-12"><path class="cls-1" d="M14.4-172.48a.67.67,0,0,1,.64.68.67.67,0,0,1-.64.68.67.67,0,0,1-.65-.68A.67.67,0,0,1,14.4-172.48ZM16.33-181v1.58a2.25,2.25,0,0,1-2.15,2.25H10.75A1.78,1.78,0,0,0,9-175.4V-172c0,1,.81,1.53,1.72,1.81a5.57,5.57,0,0,0,3.43,0c.86-.26,1.72-.78,1.72-1.81v-1.35H12.46v-.45h5.16c1,0,1.37-.72,1.72-1.79a6.4,6.4,0,0,0,0-3.61c-.25-1-.72-1.8-1.72-1.8Z"/></clipPath><clipPath id="clip-path-13"><path class="cls-3" d="M44.63-144.74l-2.93,2.93a.24.24,0,0,1-.35,0l-.66-.66a.24.24,0,0,1,0-.35l2.1-2.1L40.69-147a.25.25,0,0,1,0-.36l.66-.65a.24.24,0,0,1,.35,0l2.93,2.93A.24.24,0,0,1,44.63-144.74Z"/></clipPath><clipPath id="clip-path-14"><rect class="cls-3" x="45.61" y="-143.5" width="5.55" height="1.51" rx="0.38"/></clipPath><clipPath id="clip-path-15"><polygon class="cls-1" points="-59.24 -115.25 -38.84 -115.25 -38.84 -107.82 -49.04 -107.82 -49.04 -106.51 -53.72 -106.51 -53.72 -107.82 -59.24 -107.82 -59.24 -115.25"/></clipPath><clipPath id="clip-path-16"><polygon class="cls-1" points="-57.06 -108.7 -55.23 -108.7 -55.23 -112.41 -54.14 -112.41 -54.14 -108.7 -53.41 -108.7 -53.41 -113.8 -57.06 -113.8 -57.06 -108.7"/></clipPath><clipPath id="clip-path-17"><path class="cls-1" d="M-49-110.47h-1.09v-2.08H-49ZM-52-113.8V-108h1.83v-1.25h1.82v-4.58Z"/></clipPath><clipPath id="clip-path-18"><polygon class="cls-1" points="-47.59 -113.8 -47.59 -108.7 -45.53 -108.7 -45.53 -112.41 -44.31 -112.41 -44.31 -108.7 -43.08 -108.7 -43.08 -112.41 -41.85 -112.41 -41.85 -108.7 -41.03 -108.7 -41.03 -113.8 -47.59 -113.8"/></clipPath><clipPath id="clip-path-19"><path class="cls-1" d="M23.59-112v2.76a1.38,1.38,0,0,1-1.38,1.39H19.44a1.38,1.38,0,0,1-1.38-1.39V-112a1.38,1.38,0,0,1,1.38-1.39h2.77A1.38,1.38,0,0,1,23.59-112Zm-7.38,0v2.76a1.38,1.38,0,0,1-1.38,1.39H12.06a1.38,1.38,0,0,1-1.38-1.39V-112a1.38,1.38,0,0,1,1.38-1.39h2.77A1.38,1.38,0,0,1,16.21-112Zm-7.37,0v2.76a1.39,1.39,0,0,1-1.39,1.39H4.69a1.39,1.39,0,0,1-1.39-1.39V-112a1.39,1.39,0,0,1,1.39-1.39H7.45A1.39,1.39,0,0,1,8.84-112Z"/></clipPath><clipPath id="clip-path-20"><path class="cls-1" d="M52.27-106.73h-3.7v-5.85h3.58v1.08H49.89v1.22H52v1.08H49.89v1.39h2.38v1.08Zm-.3,4.87H39.19v-3.78H52Zm-13.24-4.87v-5.85H42.3v1.08H40v1.22h2.13v1.08H40v1.39h2.38v1.08Zm4.21-5.85h1.5l.51,1.07c.17.35.3.64.44,1h0c.13-.37.24-.63.39-1l.49-1.07h1.49l-1.63,2.86,1.72,3H46.36l-.53-1.06c-.21-.4-.35-.71-.51-1h0c-.12.34-.26.65-.44,1l-.48,1.06h-1.5l1.68-3Zm-3.75-7.5h9v4a.39.39,0,0,0,.39.39H52v2H39.19Zm14,6.37h-.47v-2.36a.4.4,0,0,0-.1-.26l-3.81-4.4h0a.27.27,0,0,0-.08-.07l0,0-.08,0H39.19a.79.79,0,0,0-.78.79v6.37h-.47a1.12,1.12,0,0,0-1.11,1.12v5.83a1.12,1.12,0,0,0,1.11,1.12h.47v4a.78.78,0,0,0,.78.78H52a.78.78,0,0,0,.78-.78v-4h.47a1.11,1.11,0,0,0,1.11-1.12v-5.83A1.11,1.11,0,0,0,53.22-113.71Z"/></clipPath><clipPath id="clip-path-21"><path class="cls-1" d="M76.41-19.23a1,1,0,0,0-1,1h1.95A1,1,0,0,0,76.41-19.23Zm0-1.2A2.45,2.45,0,0,1,79-17.72v.49H75.38v.08A1,1,0,0,0,76.45-16a1,1,0,0,0,1-.49H79c-.17,1.07-1.2,1.73-2.57,1.73a2.5,2.5,0,0,1-2.71-2.8C73.74-19.37,74.72-20.43,76.41-20.43Zm-7.29-1.83c1.64,0,2.8.89,2.84,2.23H70.27a1.06,1.06,0,0,0-1.15-.85c-.62,0-1.07.31-1.07.76s.31.62,1.07.75l.93.18c1.42.27,2,.89,2,2,0,1.47-1.12,2.36-3,2.36s-2.94-.84-3-2.22h1.73c0,.53.58.84,1.29.84s1.16-.31,1.16-.8-.31-.62-1.11-.75l-.94-.18c-1.29-.27-2-1-2-2.09C66.27-21.37,67.38-22.26,69.12-22.26Zm-3.65-9.91a1.8,1.8,0,0,0-1.82,1.82V-14a1.8,1.8,0,0,0,1.82,1.82H81.83A1.8,1.8,0,0,0,83.65-14V-30.26l-6.8,6.85L72.23-28l1.91-1.92,2.67,2.67,4.89-4.89Z"/></clipPath><clipPath id="clip-path-22"><path class="cls-2" d="M111.94-24.26l1.06-.51a.15.15,0,0,1,.15,0,1.74,1.74,0,0,1,.5.75s0,0,0,0c.2-.39,1.44-2.41,2.93-2.7A12,12,0,0,0,115.11-25a16.72,16.72,0,0,0-1,1.87.25.25,0,0,1-.2.15h-1.29a.11.11,0,0,1-.1-.1,1.53,1.53,0,0,0-.65-1.19,0,0,0,0,1,0,0"/></clipPath><clipPath id="clip-path-23"><path class="cls-2" d="M93.5-19.21l-.34.75a.14.14,0,0,0,.12.21h4.27a.47.47,0,0,0,.43-.29l.71-1.38a.11.11,0,0,0-.09-.18H96.54c-.09,0-.13-.1-.11-.18l.43-1a.31.31,0,0,1,.3-.21h.23a.11.11,0,0,1,.09.18l-.25.5a.14.14,0,0,0,.11.2h1.44a.49.49,0,0,0,.41-.26l.51-.91c0-.1,0-.23-.12-.23H95.24a.43.43,0,0,0-.39.26L93.94-20a.13.13,0,0,0,.09.21h2.45a.12.12,0,0,1,.09.18l-.44.86s0,0-.07,0h-.61a.08.08,0,0,1-.07-.13l.25-.47c.05-.07,0-.15-.09-.15H93.82c-.13,0-.25.08-.32.21"/></clipPath><clipPath id="clip-path-24"><path class="cls-2" d="M100.54-21.31l-.59,1a.12.12,0,0,0,.12.18h1.73a.47.47,0,0,0,.4-.23l.31-.52a.43.43,0,0,1,.36-.21h0c.1,0,.15.09.12.19l-.4.8a.5.5,0,0,1-.45.25H99.67l-.88,1.44a.14.14,0,0,0,.12.2h4.29a.52.52,0,0,0,.43-.25l1.58-2.83a.14.14,0,0,0-.12-.21h-4.17a.62.62,0,0,0-.38.23m1.14,2.65h-.14a.15.15,0,0,1-.12-.21l.21-.43a.39.39,0,0,1,.31-.18.2.2,0,0,1,.19.29l-.19.35a.27.27,0,0,1-.26.18m5.69-5.05-.07.14-2.92,5.12a.14.14,0,0,0,.12.2h1.66a.39.39,0,0,0,.33-.18L108.08-21a.48.48,0,0,1,.4-.23.18.18,0,0,1,.17.25l-1.42,2.54a.14.14,0,0,0,.14.2h1.54a.55.55,0,0,0,.47-.27l1.26-2.31.28-.55s.15-.27,0-.27h-2.21a.09.09,0,0,1-.07-.12l.24-.43a.57.57,0,0,0,0-.55,4.69,4.69,0,0,0-.83-1.09c-.14,0-.47-.12-.61.13"/></clipPath><clipPath id="clip-path-25"><path class="cls-2" d="M111.79-21.91l-1.73,3.37a.19.19,0,0,0,.14.29H112a.13.13,0,0,0,.13-.1l1.62-3.38a.18.18,0,0,0-.14-.26H112c-.1,0-.14,0-.16.08"/></clipPath><clipPath id="clip-path-26"><rect class="cls-1" x="111.99" y="-26.69" width="4.6" height="3.69"/></clipPath><clipPath id="clip-path-28"><path class="cls-2" d="M-55.38,22.63a1.82,1.82,0,0,1-.93-.24,2,2,0,0,1-1-1.76v-8a2,2,0,0,1,2-2,2,2,0,0,1,2,2V16.9l6.31-4.26L-56.48,6.3A2,2,0,0,1-57,3.52,2,2,0,0,1-54.29,3l11.84,8a2,2,0,0,1,.88,1.67,2,2,0,0,1-.88,1.66l-11.84,8a2,2,0,0,1-1.09.33"/></clipPath><clipPath id="clip-path-29"><rect class="cls-1" x="1.92" y="2.6" width="20.49" height="20"/></clipPath><clipPath id="clip-path-30"><rect class="cls-1" x="-350.62" y="-1396.79" width="1277.38" height="2142.36"/></clipPath><clipPath id="clip-path-31"><rect class="cls-1" x="1.92" y="2.15" width="20.57" height="21.51"/></clipPath><clipPath id="clip-path-32"><path class="cls-2" d="M22.36,9.62a1.7,1.7,0,0,0,0-.22,1.74,1.74,0,0,0-.05-.22l-.06-.09a4,4,0,0,0-.74-.44c-.22-.1-.43-.19-.65-.27a9.15,9.15,0,0,0-3-4.16,8,8,0,0,0-9.68,0,9.12,9.12,0,0,0-3,4.17,5,5,0,0,0-.64.26,4.08,4.08,0,0,0-.75.44l-.06.09a1.74,1.74,0,0,0,0,.22,1.7,1.7,0,0,0,0,.22c0,.15,0,.29,0,.44a5.18,5.18,0,0,0,0,.88,5.31,5.31,0,0,0,.16.87,3.52,3.52,0,0,0,.15.42,1,1,0,0,0,.09.21.47.47,0,0,0,0,.1.52.52,0,0,0,.07.11l.07.07.14.07.13.06.08,0A10.8,10.8,0,0,0,2.64,15l-.72,1.12,1-.87A15.58,15.58,0,0,1,5.2,13.72l0,.16a4.79,4.79,0,0,0-.67.38c-.22.18-.23.46-.17,1a8.22,8.22,0,0,0,.27,1.25c.23.81.4.95.55,1a1,1,0,0,0,.26,0,3.21,3.21,0,0,0,.84-.12,7.83,7.83,0,0,0,1.1,2.18l-.07,0-1.56-.7-.67-.3.4.61c0,.05.71,1.1,1.28,1.82a3.08,3.08,0,0,0,2.6,1.34l.51,0,.94-.11a6.48,6.48,0,0,0,4.49,0,6.56,6.56,0,0,0,1.13-.55c.57-.13,1.2-.28,1.51-.37l.18,0a2,2,0,0,0,1.54-1c.39-.77,1-1.94,1-2l.3-.54-.58.24s-.76.33-1.14.53a10.36,10.36,0,0,0,.47-1.29,3.83,3.83,0,0,0,.76,0,1.23,1.23,0,0,0,.31,0c.15,0,.27-.14.49-1a8,8,0,0,0,.24-1.28c.05-.53,0-.82-.18-1a5.31,5.31,0,0,0-.6-.35.19.19,0,0,1,.14,0l.15-.56.17-.06.27-.11.13-.06.14-.07.08-.07,0-.05a1.09,1.09,0,0,0,.08-.16,2,2,0,0,0,.1-.21c.05-.14.1-.28.14-.42a6.68,6.68,0,0,0,.17-.87,5.18,5.18,0,0,0,0-.88C22.39,9.91,22.38,9.77,22.36,9.62Z"/></clipPath><clipPath id="clip-path-33"><rect class="cls-1" x="1.92" y="2.15" width="20.57" height="20.57"/></clipPath><clipPath id="clip-path-34"><path class="cls-2" d="M13.88,21l-.32,0h-.24c.09-.18.15-.33.2-.44.1.11.22.25.36.39"/></clipPath><clipPath id="clip-path-36"><path class="cls-2" d="M13.75,12.75a6.3,6.3,0,0,1-.53.37l-.63.37a7.19,7.19,0,0,0-.75.15l0,0a.11.11,0,0,0-.07.08l-.63,2.06-3.4.74L6.64,15.8l-.32-2.48c.61-.11,1.43-.24,2.4-.34l-.3.38-.58.83.85-.56a12.57,12.57,0,0,1,1.43-.78c1-.07,1.92-.11,2.89-.11Zm-5.29,2.8a2,2,0,0,1,.94-.11h.27c.44,0,.81,0,.8-.64s-.31-1.23-.75-1.22-.87.56-.84,1.24A1,1,0,0,0,9,15.2a.7.7,0,0,0-.5.35Zm11.19-2.24-.31,2.11-1.08.75-3.4-.38-.63-2a.14.14,0,0,0-.1-.1,6.54,6.54,0,0,0-.88-.16h.08A12.79,12.79,0,0,0,16,12.85C17.52,13,18.78,13.16,19.65,13.31Zm-2.17,2S17.38,15,17,15A.8.8,0,0,0,17,14.6c-.05-.68-.45-1.22-.89-1.2s-.72.58-.7,1.26.39.67.83.66S17.18,15.13,17.48,15.27Z"/></clipPath><clipPath id="clip-path-38"><path class="cls-2" d="M16.31,14.21c0,.22-.09.4-.22.4s-.22-.16-.23-.38h0c0-.22.1-.4.22-.4h0c.12,0,.22.16.22.38h0M10,14.5c0,.22-.09.4-.22.4s-.22-.16-.23-.38h0c0-.21.1-.39.22-.4h0c.13,0,.23.17.23.38"/></clipPath><clipPath id="clip-path-40"><path class="cls-2" d="M21.13,14.24a4.67,4.67,0,0,0-.41-.23l-.28,2a.15.15,0,0,1-.06.09l-.41.28c0,.05,0,.09,0,.13a1.17,1.17,0,0,0,1-.39,7.1,7.1,0,0,0,.22-1.18c0-.51,0-.62,0-.66M14.84,21.7a1.82,1.82,0,0,1-.72-.45l0-.05a4,4,0,0,1-.5.07H13.2a1.9,1.9,0,0,1-1,.68,6.23,6.23,0,0,0,2.65-.26m-8.7-4.81,0-.09-.52-.36a.11.11,0,0,1-.06-.1l-.26-2.06a4.41,4.41,0,0,0-.47.27s-.09.15,0,.64a9.7,9.7,0,0,0,.31,1.36,1.42,1.42,0,0,0,1.07.34m7.91-.09a.14.14,0,0,1-.12-.1l-.65-2.12-.29,0-.29,0-.64,2.06a.12.12,0,0,1-.1.09l-.3.07a.51.51,0,0,1-.4.34,33.36,33.36,0,0,1-3.65.94,3.18,3.18,0,0,1-.83-.39,4.59,4.59,0,0,1-.18-.45h0a9.35,9.35,0,0,0,1.17,2.21l1.75-.53c.46-.7,1.12-1.39,1.58-1.42h.25a4.4,4.4,0,0,1,.64,0,.82.82,0,0,1-.23-.41,2.06,2.06,0,0,0,1.35.36A2.43,2.43,0,0,0,14.34,17v-.13l-.3,0"/></clipPath><clipPath id="clip-path-42"><path class="cls-2" d="M14.66,17.07a.79.79,0,0,1-.32-.17V17a.79.79,0,0,1-.33.56,4.36,4.36,0,0,1,1.07-.25.54.54,0,0,1,.38.15l0,0,1.25,1,1.22.13c.23,0,.43,0,.64,0h.18a9.37,9.37,0,0,0,.57-1.31,3.79,3.79,0,0,1-1,.56,34.35,34.35,0,0,1-3.69-.77"/></clipPath><clipPath id="clip-path-44"><path class="cls-2" d="M22,9.66a1.5,1.5,0,0,0,0-.2c0-.05,0-.1,0-.14a3.25,3.25,0,0,0-.61-.41,7.14,7.14,0,0,0-.73-.37c-.25-.12-.51-.22-.77-.33l-.39-.14-.39-.15c.28,0,.55.11.82.18a5.26,5.26,0,0,1,.53.15A8.07,8.07,0,0,0,13,3,8.06,8.06,0,0,0,5.51,8.25,5.08,5.08,0,0,1,6,8.1c.27-.07.55-.13.82-.18l-.39.15-.39.14c-.26.11-.51.21-.76.33a6.38,6.38,0,0,0-.74.37A4.07,4.07,0,0,0,4,9.32a.78.78,0,0,1,0,.14c0,.07,0,.14,0,.2s0,.28,0,.41a7.37,7.37,0,0,0,.05.82,5.42,5.42,0,0,0,.17.8,2.91,2.91,0,0,0,.12.39l.08.18a.36.36,0,0,1,0,.09l0,0,.06,0,.13.06.24.11h0l-.23-.86s.49-.13,1.24-.27l-.19,0-.5-.16a1.67,1.67,0,0,1-.23-.12A.8.8,0,0,1,4.7,11a13.12,13.12,0,0,0,4,0,41.45,41.45,0,0,1,4.17-.23,41.26,41.26,0,0,1,4.16.23,13.12,13.12,0,0,0,4,0,.75.75,0,0,1-.2.15l-.24.12-.5.16h-.08c.82.15,1.3.27,1.35.29l-.22.81.13,0,.13-.06.06,0,0,0,0-.09.08-.18c.05-.13.09-.26.13-.39a7.08,7.08,0,0,0,.16-.8,7.37,7.37,0,0,0,.05-.82c0-.13,0-.27,0-.41"/></clipPath><clipPath id="clip-path-46"><path class="cls-2" d="M16.36,8.08a5.89,5.89,0,0,1-.17,1.64.08.08,0,0,0,0,.07l-.66-.06a3.38,3.38,0,0,0,.31-1.24,6.31,6.31,0,0,0,.52-.41m-6.3.41a3.6,3.6,0,0,0,.31,1.24l-.66.06a.08.08,0,0,0,0-.07,5.89,5.89,0,0,1-.17-1.64,6.31,6.31,0,0,0,.52.41m9,1.81v0l.07,0a6.13,6.13,0,0,1,.6.22,2.23,2.23,0,0,1-.64-1.26,4.74,4.74,0,0,1,0,1M9.27,8l-2.1.59a7.19,7.19,0,0,0-.07,1.63h0A6,6,0,0,1,7.32,9c.07-.17.51-.28.85-.36s.87-.24,1,.23a3.37,3.37,0,0,0,.23.7A6.92,6.92,0,0,1,9.27,8m7.36,0A6.19,6.19,0,0,1,16.5,9.6a3.16,3.16,0,0,0,.28-.77c.1-.47.64-.31,1-.23s.78.19.85.36a5,5,0,0,1,.2,1.16,6.59,6.59,0,0,0-.07-1.57L16.63,8M10,8.14l.23.17a.11.11,0,0,1,.06.11,3.33,3.33,0,0,0,.32,1.26l0,0c.76-.05,1.52-.07,2.28-.07s1.53,0,2.29.07a0,0,0,0,1,0,0,3.33,3.33,0,0,0,.32-1.26.11.11,0,0,1,.06-.11l.22-.17v0a10.21,10.21,0,0,0-.32-3.62C15.53,5,15.42,9,14.39,9H11.56c-1.09,0-1.17-4.59-1.17-4.59l-.06.16A10.39,10.39,0,0,0,10,8.14m-3.2,2.18v0a5.26,5.26,0,0,1,0-1,2.34,2.34,0,0,1-.65,1.26,6.13,6.13,0,0,1,.6-.22l.07,0"/></clipPath><clipPath id="clip-path-48"><path class="cls-2" d="M20,16.47l-.06.27a2.76,2.76,0,0,0,.79.06,2.28,2.28,0,0,0,.27-.72,1.17,1.17,0,0,1-1,.39m-8.37,5.62a5.13,5.13,0,0,0,1.69.18,6.84,6.84,0,0,0,2.07-.47,1.71,1.71,0,0,1-.5-.1,6.23,6.23,0,0,1-2.65.26,2.84,2.84,0,0,1-.48.11l-.13,0M6.18,17s0-.08,0-.12a1.42,1.42,0,0,1-1.07-.34,1.86,1.86,0,0,0,.24.55A2.39,2.39,0,0,0,6.18,17m.6.68a3.18,3.18,0,0,0,.83.39,33.36,33.36,0,0,0,3.65-.94.51.51,0,0,0,.4-.34l-4.15.91h0l-.08,0-.16-.11-.49-.34h0l-.19-.13v0l0,.09h0a4.3,4.3,0,0,0,.18.46m12.72-.78c0-.1.05-.19.07-.29l-.14.1L19,17l-.42.29a.09.09,0,0,1-.07,0h0l-4.18-.47v.07a.79.79,0,0,0,.32.17,34.35,34.35,0,0,0,3.69.77,3.79,3.79,0,0,0,1-.56v0l.12-.35"/></clipPath><clipPath id="clip-path-50"><path class="cls-2" d="M15.08,11.38l-.11.13a8.19,8.19,0,0,1-.79.87l-1.17,0c-.66,0-1.3,0-1.9.05a14.79,14.79,0,0,1,3-.89c.33-.06.66-.11,1-.14m-5,.37a7.35,7.35,0,0,0-1,.8c-.74.08-1.48.17-2.21.29a16.8,16.8,0,0,1,3.19-1.09m10.41,1.73-.34,2.39L18.5,17l-4.33-.48-.65-2.11a.13.13,0,0,0-.11-.1,2.23,2.23,0,0,0-.84,0,.15.15,0,0,0-.12.1l-.63,2.06-4.31.94L5.8,16.24l-.33-2.67.22-.13L6,13.37l.32,2.53a.17.17,0,0,0,.06.1l1.18.81.08,0h0l3.54-.78h0a.16.16,0,0,0,.06-.08L12,13.89a4.74,4.74,0,0,1,1-.14,4.73,4.73,0,0,1,1,.14L14.62,16a.15.15,0,0,0,.12.1l3.54.39a.12.12,0,0,0,.1,0l1.17-.81a.13.13,0,0,0,.06-.1l.32-2.16.58.12M21,12l-.31,1.13a35.27,35.27,0,0,0-3.85-.58,8.9,8.9,0,0,0,1.79-1c1.11.15,1.93.32,2.37.42M5.07,12l.08.31c.21-.16.42-.32.64-.46a7.27,7.27,0,0,0-.72.15"/></clipPath><clipPath id="clip-path-52"><path class="cls-2" d="M17,11.35l-1.4-.07-.16.23A8.91,8.91,0,0,1,14.09,13a11.15,11.15,0,0,0,3.32-1.6l-.39,0m-3.42-.12H11.85l-.64.3h0a7.07,7.07,0,0,0-1.73,1.21l.22-.11a11,11,0,0,1,3.39-1.42h.52m-3.94.08-.89,0-1,.07-.52,0-.14,0a13.92,13.92,0,0,0-3.34,2.71l.06-.07a13.46,13.46,0,0,1,5.86-2.81m9.87,7.53,0,0a1.92,1.92,0,0,1-.87.17c-.22,0-.44,0-.68,0-.48,0-1.29-.14-1.3-.14h-.06l0,0-1.29-1-.06-.05c-.06-.05-.06-.05-.1-.05a12.74,12.74,0,0,0-1.89.52l-.07,0-.07,0a5.2,5.2,0,0,0-1.7-.29h-.23c-.09,0-.61.24-1.27,1.28l0,.06-.08,0s-1.15.36-2.36.7l-.08,0-.07,0-.93-.42.1,0c.44.38,1.29,1.11,1.39,1.21l0,.05-.06-.08h0a2.47,2.47,0,0,0,.65.46,2.29,2.29,0,0,0,.37.12h.39l.8-.06c.27,0,.54,0,.81-.09s.53-.06.79-.1l.4-.07.18-.05.15-.1.29-.28.28-.28c.15-.16.29-.33.44-.5l.06-.06h0l.1.07c.18.13.37.28.55.4s.47.32.71.46l.19.08h.19a3,3,0,0,0,.42-.06l.84-.14.84-.17.83-.19a2.67,2.67,0,0,0,.4-.13,1.92,1.92,0,0,0,.35-.23,2.64,2.64,0,0,0,.54-.65h0a2,2,0,0,0,.19-.42m-5.23-13h.49v-1h-3.6v1h.49v-.5h1V8.41h-.42V9H13.7V8.41h-.42v-3h1v.5"/></clipPath><clipPath id="clip-path-54"><path class="cls-2" d="M18,11.42h0l-.61-.05h0A11.15,11.15,0,0,1,14.09,13l0,0a11.49,11.49,0,0,0,2.48-.73,9.13,9.13,0,0,0,1.39-.77l.1-.07m-5-.2a11,11,0,0,0-3.39,1.42c.4-.2.81-.39,1.22-.56l.15-.06,0,0,.12-.05.07,0,.12,0,.09,0,.1,0,.1,0,.11,0,.11,0,.09,0,.14-.05.08,0,.21-.07.49-.14.66-.16h-.52m-3.42.09A13.46,13.46,0,0,0,3.8,14.12l-.06.07a18.93,18.93,0,0,1,5.37-2.57l.23-.07c.4-.11.8-.2,1.21-.28l-.89,0M20,18.64l-.07,0,0,0h0l0,0h0l-.05,0h0l-.05,0h0l-.11.05a2,2,0,0,1-.19.42h0a2.64,2.64,0,0,1-.54.65,1.92,1.92,0,0,1-.35.23,2.67,2.67,0,0,1-.4.13l-.83.19-.84.17-.84.14a3,3,0,0,1-.42.06h-.19l-.19-.08c-.24-.14-.48-.3-.71-.46l-.56-.4v0h0l0,0h0l0,0,.15.18,0,0c.08.09.4.46.79.84a1.46,1.46,0,0,0,1.06.43,1.7,1.7,0,0,0,.44-.05l.43-.1,1.29-.31.07,0,.12,0,.2-.05A1.65,1.65,0,0,0,19.29,20l.26-.52.45-.84h0l0-.05-.07,0m-6.61,1.24,0,0c-.15.16-.29.34-.44.5l-.28.28-.3.28a.61.61,0,0,1-.14.1l-.18.05-.4.07c-.26,0-.53.08-.79.1s-.54.06-.81.09l-.8.06H9a.65.65,0,0,1-.19,0,1.58,1.58,0,0,1-.37-.11,2.47,2.47,0,0,1-.65-.46h0a.39.39,0,0,0,.08.1l0,0,0-.05c-.1-.1-1-.83-1.39-1.21l-.1,0,.25.36.4.56.18.23a2.67,2.67,0,0,0,2.26,1.18l.46,0h.21c1-.12,1.29-.17,1.45-.19l.11,0h0a2.4,2.4,0,0,0,.69-.2,1.15,1.15,0,0,0,.57-.52c.28-.62.33-.77.34-.78l.1-.26"/></clipPath><clipPath id="clip-path-56"><path class="cls-2" d="M16.09,14.27a.21.21,0,0,0,.22-.22.22.22,0,0,0-.22-.22h0a.22.22,0,0,0-.23.22h0A.23.23,0,0,0,16.09,14.27Zm1.39,1c-.3-.14-.63,0-1.22.05s-.81,0-.83-.66.26-1.25.7-1.26.84.52.89,1.2A.8.8,0,0,1,17,15C17.38,15,17.47,15.25,17.48,15.27Zm-7.69-.83a.23.23,0,1,0,0-.45.23.23,0,0,0,0,.45Zm.68.35c0,.68-.36.64-.8.64H9.4a2,2,0,0,0-.94.11A.7.7,0,0,1,9,15.2a1,1,0,0,1-.08-.39c0-.68.4-1.24.84-1.24S10.47,14.11,10.47,14.79Zm8.33-4.67a.49.49,0,0,1,0,.12l-.52-.13a17.42,17.42,0,0,0-1.76-.28h-.07v0a1.46,1.46,0,0,0,.05-.2A6.19,6.19,0,0,0,16.63,8l2.1.59A6.59,6.59,0,0,1,18.8,10.12Zm-2.61-.4a.08.08,0,0,0,0,.07l-.66-.06a3.38,3.38,0,0,0,.31-1.24,6.31,6.31,0,0,0,.52-.41A5.89,5.89,0,0,1,16.19,9.72Zm-6.48.07a.08.08,0,0,0,0-.07,5.89,5.89,0,0,1-.17-1.64,6.31,6.31,0,0,0,.52.41,3.6,3.6,0,0,0,.31,1.24Zm-.31,0c-.3,0-.59.07-.89.12l-.87.16-.53.13v-.06a7.19,7.19,0,0,1,.07-1.63L9.27,8a6.92,6.92,0,0,0,.11,1.57,2,2,0,0,0,.07.26v0Zm10.53.83-.05,0-.09,0-.06,0a6.13,6.13,0,0,0-.6-.22l-.07,0v0a4.74,4.74,0,0,0,0-1c0-.26-.05-.55-.1-.88a.16.16,0,0,0-.1-.11l-.3-.08a5.4,5.4,0,0,0-1.05-3.39,6.07,6.07,0,0,1,.83,3.33l-1.85-.52h-.14l-.13.12a6.55,6.55,0,0,0,0-.75V7A7,7,0,0,0,15.41,4s.06.18.13.46a10.21,10.21,0,0,1,.32,3.62v0h0l-.22.17a.11.11,0,0,0-.06.11,3.33,3.33,0,0,1-.32,1.26,0,0,0,0,0,0,0c-.76-.05-1.53-.07-2.29-.07s-1.52,0-2.28.07l0,0a3.33,3.33,0,0,1-.32-1.26.11.11,0,0,0-.06-.11L10,8.14a10.39,10.39,0,0,1,.29-3.53c.09-.34.16-.55.17-.57A7.4,7.4,0,0,0,9.65,7.8l-.13-.12H9.39l-1.86.52a6.16,6.16,0,0,1,.83-3.33,5.4,5.4,0,0,0-1,3.39L7,8.31a.16.16,0,0,0-.1.11,6.4,6.4,0,0,0-.09.88,5.26,5.26,0,0,0,0,1v0l-.07,0a6.13,6.13,0,0,0-.6.22l-.06,0h0l-.09,0,0,0H6a3.31,3.31,0,0,1,.42-.12,3.29,3.29,0,0,1,.43-.09c.29-.06.58-.1.87-.14s.59-.07.88-.09l.88-.07c1.17-.07,2.34-.09,3.52-.09s2.35,0,3.53.09l.87.07c.3,0,.59,0,.88.09s.58.08.87.14a3.29,3.29,0,0,1,.43.09,2,2,0,0,1,.42.13Z"/></clipPath><clipPath id="clip-path-58"><path class="cls-2" d="M13.28,5.36V8.41h.42V9H12.28V8.41h.42v-3h-1v.5h-.49v-1h3.6v1H14.3v-.5Zm1.89.87V4.51H10.82V6.23h1.23v-.5h.28V8h-.42v1.3h2.16V8h-.42V5.73h.28v.5Z"/></clipPath><clipPath id="clip-path-60"><rect class="cls-1" x="34.15" y="2.5" width="19.26" height="20"/></clipPath></defs><title>travisci</title><rect class="cls-1" x="-490.68" y="-1155.01" width="1366" height="2644"/><rect class="cls-1" x="-782.29" y="-1284.59" width="1366" height="3311"/><path class="cls-3" d="M44.63-144.74l-2.93,2.93a.24.24,0,0,1-.35,0l-.66-.66a.24.24,0,0,1,0-.35l2.1-2.1L40.69-147a.25.25,0,0,1,0-.36l.66-.65a.24.24,0,0,1,.35,0l2.93,2.93A.24.24,0,0,1,44.63-144.74Z"/><g class="cls-17"><rect class="cls-3" x="-515.45" y="-493.94" width="742.75" height="1800.34"/></g><rect class="cls-3" x="45.61" y="-143.5" width="5.55" height="1.51" rx="0.38"/><g class="cls-18"><rect class="cls-3" x="-514.45" y="-493.94" width="742.75" height="1800.34"/></g><rect class="cls-1" x="-540.7" y="-1210.87" width="1366" height="3024"/><rect class="cls-1" x="-423.5" y="-1011.42" width="1366" height="2291"/><rect class="cls-1" x="-437.57" y="-1388.77" width="1366" height="2291"/><g class="cls-32"><g class="cls-33"><g class="cls-34"><g class="cls-35"><g class="cls-36"><g class="cls-37"><rect class="cls-38" x="-2.75" y="-2.08" width="29.84" height="29.35"/></g></g></g></g></g></g><g class="cls-39"><g class="cls-33"><rect class="cls-40" x="8.65" y="15.95" width="9.91" height="9.79"/></g></g><g class="cls-41"><g class="cls-33"><rect class="cls-42" x="1.65" y="8.07" width="22.67" height="13.15"/></g></g><g class="cls-43"><g class="cls-33"><rect class="cls-3" x="4.89" y="9.15" width="16.1" height="10.43"/></g></g><g class="cls-44"><g class="cls-33"><rect class="cls-40" x="0.06" y="9.33" width="25.81" height="17.36"/></g></g><g class="cls-45"><g class="cls-33"><rect class="cls-40" x="9.33" y="12.22" width="14.72" height="11.05"/></g></g><g class="cls-46"><g class="cls-33"><rect class="cls-47" x="-0.77" y="-1.7" width="27.45" height="18.95"/></g></g><g class="cls-48"><g class="cls-33"><rect class="cls-49" x="1.49" y="-0.22" width="22.91" height="15.46"/></g></g><g class="cls-50"><g class="cls-33"><rect class="cls-51" x="0.4" y="11.4" width="25.23" height="15.55"/></g></g><g class="cls-52"><g class="cls-33"><rect class="cls-53" x="0.39" y="6.7" width="25.23" height="15.4"/></g></g><g class="cls-54"><g class="cls-33"><rect class="cls-55" x="-0.94" y="0.2" width="25.15" height="25.87"/></g></g><g class="cls-56"><g class="cls-33"><rect class="cls-57" x="-0.94" y="6.55" width="25.64" height="20.03"/></g></g><g class="cls-58"><g class="cls-33"><rect class="cls-38" x="1.27" y="-0.63" width="23.36" height="20.86"/></g></g><g class="cls-59"><g class="cls-33"><rect class="cls-38" x="6.14" y="-0.17" width="13.7" height="14.18"/></g></g><rect class="cls-1" x="-639.01" y="-1131" width="1366" height="2291"/><rect class="cls-1" x="-639.01" y="-1131" width="1366" height="2291"/><rect class="cls-1" x="-639.01" y="-1131" width="1366" height="2291"/><rect class="cls-1" x="-279.07" y="-1669.99" width="1366" height="2291"/><rect class="cls-1" x="-576.11" y="-1132" width="1366" height="2291"/></svg>