<?xml version="1.0" encoding="utf-8"?>
<!-- Generator: Adobe Illustrator 21.1.0, SVG Export Plug-In . SVG Version: 6.00 Build 0)  -->
<svg version="1.1" id="Layer_1" xmlns="http://www.w3.org/2000/svg" xmlns:xlink="http://www.w3.org/1999/xlink" x="0px" y="0px"
	 viewBox="0 0 30 30" style="enable-background:new 0 0 30 30;" xml:space="preserve">
<style type="text/css">
	.st0{clip-path:url(#SVGID_2_);}
	.st1{clip-path:url(#SVGID_4_);fill:#FFFFFF;}
</style>
<g>
	<defs>
		<path id="SVGID_1_" d="M30,5.7c-0.8,1.2-1.9,2.3-3.1,3.2c0,0.3,0,0.5,0,0.8c0,8.1-6.2,17.5-17.5,17.5c-3.5,0-6.7-1-9.4-2.8
			c0.5,0.1,1,0.1,1.5,0.1c2.9,0,5.5-1,7.6-2.6c-2.7-0.1-5-1.8-5.7-4.3c0.4,0.1,0.8,0.1,1.2,0.1c0.6,0,1.1-0.1,1.6-0.2
			c-2.8-0.6-4.9-3-4.9-6v-0.1C2,11.8,3,12.1,4,12.2c-1.7-1.1-2.7-3-2.7-5.1c0-1.1,0.3-2.2,0.8-3.1c3,3.7,7.6,6.2,12.7,6.4
			c-0.1-0.5-0.2-0.9-0.2-1.4c0-3.4,2.7-6.1,6.1-6.1c1.8,0,3.4,0.7,4.5,1.9C26.6,4.5,28,4,29.2,3.3c-0.5,1.4-1.4,2.6-2.7,3.4
			C27.7,6.5,28.9,6.2,30,5.7z"/>
	</defs>
	<clipPath id="SVGID_2_">
		<use xlink:href="#SVGID_1_"  style="overflow:visible;"/>
	</clipPath>
	<g class="st0">
		<defs>
			<rect id="SVGID_3_" x="-19" y="-15.2" width="60" height="60"/>
		</defs>
		<clipPath id="SVGID_4_">
			<use xlink:href="#SVGID_3_"  style="overflow:visible;"/>
		</clipPath>
		<rect x="-5" y="-2.2" class="st1" width="40" height="34.4"/>
	</g>
</g>
</svg>
