<svg id="Layer_1" data-name="Layer 1" xmlns="http://www.w3.org/2000/svg" xmlns:xlink="http://www.w3.org/1999/xlink" viewBox="0 0 25 25"><defs><style>.cls-1,.cls-2{fill:none;}.cls-2{clip-rule:evenodd;}.cls-16,.cls-3{fill:#fff;}.cls-4{clip-path:url(#clip-path);}.cls-5{clip-path:url(#clip-path-2);}.cls-6{clip-path:url(#clip-path-3);}.cls-7{clip-path:url(#clip-path-4);}.cls-8{clip-path:url(#clip-path-5);}.cls-9{clip-path:url(#clip-path-6);}.cls-10{clip-path:url(#clip-path-7);}.cls-11{clip-path:url(#clip-path-8);}.cls-12{clip-path:url(#clip-path-9);}.cls-13{clip-path:url(#clip-path-10);}.cls-14{clip-path:url(#clip-path-11);}.cls-15{clip-path:url(#clip-path-12);}.cls-16,.cls-22{fill-rule:evenodd;}.cls-17{fill:#52218a;}.cls-18{fill:#6c33af;}.cls-19{fill:#854cc7;}.cls-20{fill:#b179f1;}.cls-21{opacity:0.25;}.cls-22{fill:url(#linear-gradient);}.cls-23{clip-path:url(#clip-path-13);}.cls-24{clip-path:url(#clip-path-14);}.cls-25{clip-path:url(#clip-path-15);}.cls-26{clip-path:url(#clip-path-16);}.cls-27{clip-path:url(#clip-path-17);}.cls-28{clip-path:url(#clip-path-18);}.cls-29{clip-path:url(#clip-path-19);}.cls-30{clip-path:url(#clip-path-20);}</style><clipPath id="clip-path"><path class="cls-1" d="M16.52-21.38a2.07,2.07,0,0,0-2.26,2c0,1.26.74,1.86,1.85,2.33l.39.17c.7.3,1.05.49,1.05,1s-.34.76-1,.76-1.12-.51-1.45-1.06l-1.21.81a2.8,2.8,0,0,0,2.7,1.62c1.47,0,2.56-.76,2.56-2.15s-.74-1.86-2.06-2.43l-.38-.16c-.66-.29-1-.47-1-.94a.68.68,0,0,1,.74-.66,1,1,0,0,1,1,.66l1.2-.77A2.26,2.26,0,0,0,16.52-21.38Zm-5,0v5.09c0,.78-.3,1-.81,1a1.32,1.32,0,0,1-1.16-.77l-1.27.77a2.84,2.84,0,0,0,2.52,1.62A2.12,2.12,0,0,0,13.1-16v-5.34ZM4.87-28.26H19.71A.27.27,0,0,1,20-28v14.84a.27.27,0,0,1-.27.27H4.87a.27.27,0,0,1-.27-.27V-28A.27.27,0,0,1,4.87-28.26Zm0-.81A1.09,1.09,0,0,0,3.79-28v14.84a1.09,1.09,0,0,0,1.08,1.08H19.71a1.08,1.08,0,0,0,1.08-1.08V-28a1.09,1.09,0,0,0-1.08-1.08Z"/></clipPath><clipPath id="clip-path-2"><path class="cls-2" d="M42.67-20.4l-.31-.49c-.1-.16-.2-.34-.29-.52a5,5,0,0,1-.47-1.15,2,2,0,0,1,.63-1.73c.05-.07.12-.14.18-.21.39-.46.93-1,1.35-1.45a2.56,2.56,0,0,0,.73-1.7c0-.39,0-1.22-.29-1.37a2.88,2.88,0,0,1-.12,1.56A3.39,3.39,0,0,1,43-26c-.38.33-1,.92-1.34,1.26a3.49,3.49,0,0,0-.72,1,1.4,1.4,0,0,0,.23,1.35c.12.19.23.36.35.53s.27.34.38.49.26.32.39.48a4.79,4.79,0,0,0,.42.46"/></clipPath><clipPath id="clip-path-3"><path class="cls-2" d="M48-15.37c.16.2,0,.28-.23.36a29.16,29.16,0,0,1-5.46.44,22.93,22.93,0,0,1-3.22-.16c-.16,0-.91-.11-.94-.26s.11-.17.17-.2a4.11,4.11,0,0,1,1-.23,3.48,3.48,0,0,0,.36-.05,4.75,4.75,0,0,0-2.46.52c-.22.24.15.35.4.41a22.05,22.05,0,0,0,3.86.29c1.52,0,5.16,0,6.5-.69.08,0,.23-.13.25-.21s-.14-.2-.22-.22"/></clipPath><clipPath id="clip-path-4"><path class="cls-2" d="M43.83-19.17a4.52,4.52,0,0,0,.81-.59,1.55,1.55,0,0,0,.5-.89,1.87,1.87,0,0,0-.37-1c-.48-.7-.86-1.1-.21-1.87a4.66,4.66,0,0,1,.72-.68c.33-.26.86-.61,1.24-.85l.44-.27a8,8,0,0,0-1.08.36,6.36,6.36,0,0,0-1,.45c-1,.54-1.92,1.39-1.53,2.57.26.79,1,1.27,1,1.86,0,.37-.4.73-.51.92"/></clipPath><clipPath id="clip-path-5"><path class="cls-2" d="M45.73-16a4.74,4.74,0,0,1-.86-.37c-.17-.09-.1-.08-.32,0a17.21,17.21,0,0,1-3.22.16c-.24,0-.91,0-1-.22s0-.2.07-.27c-.6.1-1.22.53-.37.89a9.4,9.4,0,0,0,4,.24,11.83,11.83,0,0,0,1.78-.4"/></clipPath><clipPath id="clip-path-6"><path class="cls-2" d="M45.73-17.19a1.38,1.38,0,0,1-.56-.31c-.11-.1-.07-.07-.33,0a14.21,14.21,0,0,1-4.4.1c-.1,0-.22-.11-.23-.22s.11-.22.16-.29c-.62.07-1.22.67-.38,1a11.78,11.78,0,0,0,4,.2,9.44,9.44,0,0,0,1.76-.4"/></clipPath><clipPath id="clip-path-7"><path class="cls-2" d="M47-19.88l-.43.06-.43.05c-.9.1-1.89.19-2.78.23-.7,0-3.33.11-3.72-.2,0-.14.16-.22.27-.27a7.93,7.93,0,0,1,1.38-.39,7.57,7.57,0,0,0-2.72.61c-.6.31.41.44.78.48a26.68,26.68,0,0,0,6.44-.14,1.46,1.46,0,0,0,.68-.15c.16-.09.38-.18.53-.28"/></clipPath><clipPath id="clip-path-8"><path class="cls-2" d="M39.57-13.42a13,13,0,0,0,2.53.36,25.16,25.16,0,0,0,2.88,0,12.4,12.4,0,0,0,3.69-.61c.25-.1.71-.35.75-.58l-.21.12c-1.87,1-6.14.93-8.34.8l-1.3-.09"/></clipPath><clipPath id="clip-path-9"><path class="cls-2" d="M47.31-20.1a1.15,1.15,0,0,1,1.23.24,1.36,1.36,0,0,1,.09,1.4,4.68,4.68,0,0,1-1.42,1.57,2.27,2.27,0,0,0-.25.18,4.53,4.53,0,0,0,1.4-.68,2.61,2.61,0,0,0,1-1.2,1.34,1.34,0,0,0-.5-1.58,1.26,1.26,0,0,0-.8-.23,1,1,0,0,0-.73.3"/></clipPath><clipPath id="clip-path-10"><path class="cls-1" d="M72.53-26.39a.66.66,0,0,1,.65.68.66.66,0,0,1-.65.68.66.66,0,0,1-.64-.68A.66.66,0,0,1,72.53-26.39Zm1.87-1.1a10.42,10.42,0,0,0-1.65.15c-1.46.27-1.72.83-1.72,1.86v1.36h3.44v.45H69.74a2.17,2.17,0,0,0-2.15,1.81,6.92,6.92,0,0,0,0,3.64c.24,1,.82,1.81,1.83,1.81H70.6V-18a2.23,2.23,0,0,1,2.15-2.22h3.44a1.76,1.76,0,0,0,1.72-1.81v-3.4a2,2,0,0,0-1.72-1.86A10.81,10.81,0,0,0,74.4-27.49Z"/></clipPath><clipPath id="clip-path-11"><path class="cls-1" d="M76.45-15a.66.66,0,0,1,.64.67.66.66,0,0,1-.64.68.66.66,0,0,1-.65-.68A.66.66,0,0,1,76.45-15Zm1.93-8.55V-22a2.25,2.25,0,0,1-2.15,2.25H72.8a1.78,1.78,0,0,0-1.72,1.8v3.38c0,1,.81,1.53,1.72,1.8a5.57,5.57,0,0,0,3.43,0c.86-.26,1.72-.78,1.72-1.8v-1.35H74.51v-.45h5.16c1,0,1.37-.72,1.71-1.8a6.19,6.19,0,0,0,0-3.6c-.24-1-.71-1.8-1.71-1.8Z"/></clipPath><clipPath id="clip-path-12"><path class="cls-2" d="M148.11-19.29l.36-1.69h-1.63l-.35,1.69ZM144.76-18h-1.08l.27-1.27H145l.35-1.69h-1.07l.27-1.28h1.07l.61-2.86,1.4.31-.53,2.55h1.62l.62-2.86,1.4.28-.55,2.58h1.07L151-21H150l-.36,1.69h1.06L150.38-18h-1.06l-.61,2.87-1.4-.32.53-2.55h-1.62l-.61,2.87-1.41-.32Zm-2.06-5.35-1.25,1.16a6.29,6.29,0,0,0-.87-.79,3.15,3.15,0,0,0-1.82-.55,3.37,3.37,0,0,0-3.46,3.4,3.39,3.39,0,0,0,3.45,3.38,3.21,3.21,0,0,0,1.92-.62,5.53,5.53,0,0,0,.82-.73L142.74-17a5.16,5.16,0,0,1-4,1.8,5.11,5.11,0,0,1-5.25-5,5.12,5.12,0,0,1,5.27-5A5.21,5.21,0,0,1,142.7-23.37Z"/></clipPath><linearGradient id="linear-gradient" x1="357.33" y1="284.78" x2="357.33" y2="298.47" gradientTransform="translate(-344.76 -279.3)" gradientUnits="userSpaceOnUse"><stop offset="0" stop-color="#fff"/><stop offset="1" stop-color="#fff" stop-opacity="0"/></linearGradient><clipPath id="clip-path-13"><path class="cls-3" d="M106.68,12.73l-2.93,2.92a.24.24,0,0,1-.35,0l-.66-.65a.25.25,0,0,1,0-.36l2.09-2.09-2.09-2.1a.24.24,0,0,1,0-.35l.66-.66a.26.26,0,0,1,.35,0l2.93,2.93A.25.25,0,0,1,106.68,12.73Z"/></clipPath><clipPath id="clip-path-14"><rect class="cls-3" x="107.66" y="13.97" width="5.55" height="1.51" rx="0.38"/></clipPath><clipPath id="clip-path-15"><polygon class="cls-1" points="2.81 42.21 23.21 42.21 23.21 49.64 13.01 49.64 13.01 50.95 8.33 50.95 8.33 49.64 2.81 49.64 2.81 42.21"/></clipPath><clipPath id="clip-path-16"><polygon class="cls-1" points="4.99 48.77 6.82 48.77 6.82 45.06 7.91 45.06 7.91 48.77 8.64 48.77 8.64 43.67 4.99 43.67 4.99 48.77"/></clipPath><clipPath id="clip-path-17"><path class="cls-1" d="M13,47H11.92V44.92H13Zm-2.92-3.33V49.5h1.83V48.25h1.82V43.67Z"/></clipPath><clipPath id="clip-path-18"><polygon class="cls-1" points="14.46 43.67 14.46 48.77 16.51 48.77 16.51 45.06 17.74 45.06 17.74 48.77 18.97 48.77 18.97 45.06 20.2 45.06 20.2 48.77 21.02 48.77 21.02 43.67 14.46 43.67"/></clipPath><clipPath id="clip-path-19"><path class="cls-1" d="M85.64,45.46v2.77a1.38,1.38,0,0,1-1.38,1.38H81.49a1.38,1.38,0,0,1-1.38-1.38V45.46a1.38,1.38,0,0,1,1.38-1.38h2.77A1.38,1.38,0,0,1,85.64,45.46Zm-7.38,0v2.77a1.38,1.38,0,0,1-1.38,1.38H74.11a1.38,1.38,0,0,1-1.38-1.38V45.46a1.38,1.38,0,0,1,1.38-1.38h2.77A1.38,1.38,0,0,1,78.26,45.46Zm-7.37,0v2.77a1.38,1.38,0,0,1-1.39,1.38H66.74a1.38,1.38,0,0,1-1.39-1.38V45.46a1.38,1.38,0,0,1,1.39-1.38H69.5A1.38,1.38,0,0,1,70.89,45.46Z"/></clipPath><clipPath id="clip-path-20"><path class="cls-1" d="M114.32,50.74h-3.7V44.88h3.58V46h-2.26v1.22h2.13v1.07h-2.13v1.39h2.38v1.09ZM114,55.6H101.24V51.82H114Zm-13.24-4.86V44.88h3.57V46h-2.26v1.22h2.13v1.07h-2.13v1.39h2.38v1.09ZM105,44.88h1.5L107,46c.17.36.3.65.44,1h0c.13-.38.24-.64.39-1l.49-1.07h1.49l-1.63,2.86,1.72,3h-1.51l-.53-1.06c-.21-.41-.35-.71-.51-1h0c-.12.34-.26.64-.44,1l-.48,1.06h-1.5l1.68-3Zm-3.75-7.5h9v4a.4.4,0,0,0,.39.39H114v2H101.24Zm14,6.37h-.47V41.44a.09.09,0,0,0,0,0,.34.34,0,0,0-.09-.25l-3.81-4.41h0a.24.24,0,0,0-.08-.06l0,0-.08,0h-9.47a.78.78,0,0,0-.78.78v6.37H100a1.12,1.12,0,0,0-1.11,1.12V50.7A1.12,1.12,0,0,0,100,51.82h.47v4a.78.78,0,0,0,.78.78H114a.78.78,0,0,0,.78-.78v-4h.47a1.11,1.11,0,0,0,1.11-1.12V44.87A1.12,1.12,0,0,0,115.27,43.75Z"/></clipPath></defs><title>visual_studio_icon</title><rect class="cls-1" x="-428.63" y="-997.54" width="1366" height="2644"/><g id="a"><path class="cls-16" d="M15.57,19.15a.78.78,0,0,0,.56-.06L19,17.73a.88.88,0,0,0,.48-.78V7.71A.87.87,0,0,0,19,6.93L16.13,5.57a.84.84,0,0,0-.64,0,.9.9,0,0,0-.34.2l-4.57,5.06L7.91,8.6l-.23-.2a.58.58,0,0,0-.52-.12l-.08,0L6,8.74a.59.59,0,0,0-.35.49v6.2a.56.56,0,0,0,.35.48l1,.43.08,0a.58.58,0,0,0,.52-.12l.23-.19,2.67-2.19,4.57,5.06A.85.85,0,0,0,15.57,19.15ZM16,9.42l-3.55,2.91L16,15.24Zm-8.6.94,1.78,2-1.78,2Z"/></g><path class="cls-17" d="M7.68,16.26a.59.59,0,0,1-.6.09l-1-.44a.56.56,0,0,1-.35-.52V9.27A.58.58,0,0,1,6,8.74l1-.43a.6.6,0,0,1,.6.1l.23.19a.32.32,0,0,0-.44.07.33.33,0,0,0-.06.19V15.8a.32.32,0,0,0,.31.32.31.31,0,0,0,.19-.06Z"/><path class="cls-18" d="M6,15.91a.56.56,0,0,1-.35-.52v-.05a.33.33,0,0,0,.33.33.32.32,0,0,0,.24-.11l8.89-9.83a.87.87,0,0,1,1-.16L19,6.93a.88.88,0,0,1,.48.78v0a.54.54,0,0,0-.54-.54.5.5,0,0,0-.34.12L7.91,16.06l-.23.2a.59.59,0,0,1-.6.09Z"/><path class="cls-19" d="M6,8.74a.58.58,0,0,0-.35.53v.05A.33.33,0,0,1,6,9a.32.32,0,0,1,.24.11l8.89,9.83a.87.87,0,0,0,1,.16L19,17.73a.88.88,0,0,0,.48-.78v0a.54.54,0,0,1-.54.54.5.5,0,0,1-.34-.12L7.91,8.6l-.23-.2a.59.59,0,0,0-.6-.09Z"/><path class="cls-20" d="M16.13,19.09a.87.87,0,0,1-1-.16.52.52,0,0,0,.72,0,.5.5,0,0,0,.14-.35V6.09a.5.5,0,0,0-.5-.5.54.54,0,0,0-.36.14.87.87,0,0,1,1-.16L19,6.93a.87.87,0,0,1,.48.78V17a.88.88,0,0,1-.48.78Z"/><g class="cls-21"><path class="cls-22" d="M15.57,19.15a.78.78,0,0,0,.56-.06L19,17.73a.88.88,0,0,0,.48-.78V7.71A.87.87,0,0,0,19,6.93L16.13,5.57a.84.84,0,0,0-.64,0,.9.9,0,0,0-.34.2l-4.57,5.06L7.91,8.6l-.23-.2a.58.58,0,0,0-.52-.12l-.08,0L6,8.74a.59.59,0,0,0-.35.49v6.2a.56.56,0,0,0,.35.48l1,.43.08,0a.58.58,0,0,0,.52-.12l.23-.19,2.67-2.19,4.57,5.06A.85.85,0,0,0,15.57,19.15ZM16,9.42l-3.55,2.91L16,15.24Zm-8.6.94,1.78,2-1.78,2Z"/></g><rect class="cls-1" x="-720.24" y="-1127.12" width="1366" height="3311"/><path class="cls-3" d="M106.68,12.73l-2.93,2.92a.24.24,0,0,1-.35,0l-.66-.65a.25.25,0,0,1,0-.36l2.09-2.09-2.09-2.1a.24.24,0,0,1,0-.35l.66-.66a.26.26,0,0,1,.35,0l2.93,2.93A.25.25,0,0,1,106.68,12.73Z"/><g class="cls-23"><rect class="cls-3" x="-453.4" y="-336.48" width="742.75" height="1800.34"/></g><rect class="cls-3" x="107.66" y="13.97" width="5.55" height="1.51" rx="0.38"/><g class="cls-24"><rect class="cls-3" x="-452.4" y="-336.48" width="742.75" height="1800.34"/></g><rect class="cls-1" x="-478.65" y="-1053.4" width="1366" height="3024"/></svg>