<svg id="Layer_1" data-name="Layer 1" xmlns="http://www.w3.org/2000/svg" xmlns:xlink="http://www.w3.org/1999/xlink" viewBox="0 0 25 25"><defs><style>.cls-1,.cls-2{fill:none;}.cls-2{clip-rule:evenodd;}.cls-3{fill:#fff;}.cls-4{clip-path:url(#clip-path);}.cls-5{clip-path:url(#clip-path-2);}.cls-6{clip-path:url(#clip-path-3);}.cls-7{clip-path:url(#clip-path-4);}.cls-8{clip-path:url(#clip-path-5);}.cls-9{clip-path:url(#clip-path-6);}.cls-10{clip-path:url(#clip-path-7);}.cls-11{clip-path:url(#clip-path-8);}.cls-12{clip-path:url(#clip-path-9);}.cls-13{clip-path:url(#clip-path-10);}.cls-14{clip-path:url(#clip-path-11);}.cls-15{clip-path:url(#clip-path-12);}.cls-16{fill:#0065a9;}.cls-17{fill:#007acc;}.cls-18{fill:#1f9cf0;}.cls-19{opacity:0.25;}.cls-20{fill-rule:evenodd;fill:url(#linear-gradient);}.cls-21{clip-path:url(#clip-path-13);}.cls-22{clip-path:url(#clip-path-14);}.cls-23{clip-path:url(#clip-path-15);}.cls-24{clip-path:url(#clip-path-16);}.cls-25{clip-path:url(#clip-path-17);}.cls-26{clip-path:url(#clip-path-18);}.cls-27{clip-path:url(#clip-path-19);}.cls-28{clip-path:url(#clip-path-20);}</style><clipPath id="clip-path"><path class="cls-1" d="M-45.6-21.38a2.07,2.07,0,0,0-2.26,2c0,1.26.74,1.86,1.85,2.33l.39.17c.7.3,1,.49,1,1s-.33.76-1,.76-1.13-.51-1.46-1.06l-1.21.81a2.81,2.81,0,0,0,2.7,1.62c1.47,0,2.56-.76,2.56-2.15s-.74-1.86-2-2.43l-.39-.16c-.66-.29-1-.47-1-.94A.68.68,0,0,1-45.6-20a1,1,0,0,1,1,.66l1.21-.77A2.28,2.28,0,0,0-45.6-21.38Zm-5,0v5.09c0,.78-.3,1-.81,1a1.32,1.32,0,0,1-1.16-.77l-1.27.77a2.84,2.84,0,0,0,2.53,1.62A2.12,2.12,0,0,0-49-16v-5.34Zm-6.61-6.88h14.84a.27.27,0,0,1,.27.27v14.84a.27.27,0,0,1-.27.27H-57.25a.27.27,0,0,1-.27-.27V-28A.27.27,0,0,1-57.25-28.26Zm0-.81A1.09,1.09,0,0,0-58.33-28v14.84a1.09,1.09,0,0,0,1.08,1.08h14.84a1.08,1.08,0,0,0,1.08-1.08V-28a1.09,1.09,0,0,0-1.08-1.08Z"/></clipPath><clipPath id="clip-path-2"><path class="cls-2" d="M-19.45-20.4l-.31-.49c-.1-.16-.2-.34-.29-.52a5,5,0,0,1-.47-1.15,2,2,0,0,1,.63-1.73c.05-.07.12-.14.18-.21.4-.46.93-1,1.35-1.45a2.56,2.56,0,0,0,.73-1.7c0-.39,0-1.22-.29-1.37A2.78,2.78,0,0,1-18-27.46,3.39,3.39,0,0,1-19.16-26c-.38.33-1,.92-1.34,1.26a3.49,3.49,0,0,0-.72,1A1.4,1.4,0,0,0-21-22.36c.12.19.23.36.35.53s.27.34.38.49.27.32.4.48a4.75,4.75,0,0,0,.41.46"/></clipPath><clipPath id="clip-path-3"><path class="cls-2" d="M-14.15-15.37c.16.2,0,.28-.23.36a29.16,29.16,0,0,1-5.46.44A22.71,22.71,0,0,1-23-14.73c-.17,0-.92-.11-.95-.26s.11-.17.18-.2a4.14,4.14,0,0,1,1-.23,3.13,3.13,0,0,0,.36-.05,4.75,4.75,0,0,0-2.46.52c-.22.24.15.35.4.41a22.13,22.13,0,0,0,3.86.29c1.52,0,5.17,0,6.5-.69.08,0,.24-.13.25-.21s-.14-.2-.22-.22"/></clipPath><clipPath id="clip-path-4"><path class="cls-2" d="M-18.29-19.17a4.52,4.52,0,0,0,.81-.59,1.5,1.5,0,0,0,.5-.89,1.87,1.87,0,0,0-.37-1c-.47-.7-.85-1.1-.21-1.87a4.66,4.66,0,0,1,.72-.68c.33-.26.86-.61,1.25-.85l.43-.27a8,8,0,0,0-1.08.36,5.86,5.86,0,0,0-1,.45c-1,.54-1.93,1.39-1.54,2.57.26.79,1,1.27,1,1.86,0,.37-.4.73-.51.92"/></clipPath><clipPath id="clip-path-5"><path class="cls-2" d="M-16.39-16a5.07,5.07,0,0,1-.86-.37c-.17-.09-.1-.08-.32,0a17.17,17.17,0,0,1-3.22.16c-.24,0-.91,0-1-.22s0-.2.08-.27c-.61.1-1.22.53-.38.89a9.44,9.44,0,0,0,4,.24,12,12,0,0,0,1.77-.4"/></clipPath><clipPath id="clip-path-6"><path class="cls-2" d="M-16.39-17.19a1.28,1.28,0,0,1-.55-.31c-.12-.1-.08-.07-.33,0a14.28,14.28,0,0,1-4.41.1c-.1,0-.22-.11-.22-.22s.11-.22.16-.29c-.63.07-1.23.67-.39,1a11.78,11.78,0,0,0,4,.2,9.44,9.44,0,0,0,1.76-.4"/></clipPath><clipPath id="clip-path-7"><path class="cls-2" d="M-15.16-19.88l-.42.06-.44.05c-.89.1-1.88.19-2.78.23-.7,0-3.33.11-3.72-.2,0-.14.16-.22.28-.27a8.08,8.08,0,0,1,1.37-.39,7.62,7.62,0,0,0-2.72.61c-.6.31.41.44.78.48a26.66,26.66,0,0,0,6.44-.14,1.43,1.43,0,0,0,.68-.15c.17-.09.38-.18.53-.28"/></clipPath><clipPath id="clip-path-8"><path class="cls-2" d="M-22.54-13.42a12.76,12.76,0,0,0,2.52.36,25.16,25.16,0,0,0,2.88,0,12.35,12.35,0,0,0,3.69-.61c.26-.1.71-.35.75-.58l-.21.12c-1.87,1-6.14.93-8.34.8l-1.29-.09"/></clipPath><clipPath id="clip-path-9"><path class="cls-2" d="M-14.81-20.1a1.15,1.15,0,0,1,1.23.24,1.34,1.34,0,0,1,.09,1.4,4.68,4.68,0,0,1-1.42,1.57,2.27,2.27,0,0,0-.25.18,4.69,4.69,0,0,0,1.41-.68,2.53,2.53,0,0,0,1-1.2,1.34,1.34,0,0,0-.5-1.58,1.26,1.26,0,0,0-.8-.23,1,1,0,0,0-.73.3"/></clipPath><clipPath id="clip-path-10"><path class="cls-1" d="M10.42-26.39a.66.66,0,0,1,.64.68.66.66,0,0,1-.64.68.66.66,0,0,1-.65-.68A.66.66,0,0,1,10.42-26.39Zm1.86-1.1a10.42,10.42,0,0,0-1.65.15c-1.45.27-1.72.83-1.72,1.86v1.36h3.45v.45H7.62a2.17,2.17,0,0,0-2.15,1.81,6.92,6.92,0,0,0,0,3.64c.24,1,.83,1.81,1.83,1.81H8.48V-18a2.23,2.23,0,0,1,2.15-2.22h3.44a1.77,1.77,0,0,0,1.73-1.81v-3.4a2,2,0,0,0-1.73-1.86A10.81,10.81,0,0,0,12.28-27.49Z"/></clipPath><clipPath id="clip-path-11"><path class="cls-1" d="M14.33-15a.66.66,0,0,1,.64.67.66.66,0,0,1-.64.68.66.66,0,0,1-.65-.68A.66.66,0,0,1,14.33-15Zm1.93-8.55V-22a2.24,2.24,0,0,1-2.15,2.25H10.68A1.78,1.78,0,0,0,9-17.94v3.38c0,1,.81,1.53,1.72,1.8a5.57,5.57,0,0,0,3.43,0c.87-.26,1.72-.78,1.72-1.8v-1.35H12.4v-.45h5.15c1,0,1.37-.72,1.72-1.8a6.28,6.28,0,0,0,0-3.6c-.25-1-.72-1.8-1.72-1.8Z"/></clipPath><clipPath id="clip-path-12"><path class="cls-2" d="M86-19.29,86.35-21H84.73l-.36,1.69ZM82.64-18H81.57l.26-1.27h1.08L83.27-21H82.19l.27-1.28h1.07l.62-2.86,1.4.31L85-22.26h1.63l.61-2.86,1.4.28-.55,2.58h1.07L88.89-21H87.83l-.36,1.69h1.06L88.26-18H87.2l-.61,2.87-1.4-.32L85.73-18H84.1l-.61,2.87-1.4-.32Zm-2.06-5.35-1.25,1.16a5.76,5.76,0,0,0-.87-.79,3.13,3.13,0,0,0-1.82-.55,3.37,3.37,0,0,0-3.46,3.4,3.39,3.39,0,0,0,3.45,3.38,3.19,3.19,0,0,0,1.92-.62,5,5,0,0,0,.82-.73L80.63-17a5.19,5.19,0,0,1-4,1.8,5.11,5.11,0,0,1-5.25-5,5.12,5.12,0,0,1,5.27-5A5.21,5.21,0,0,1,80.58-23.37Z"/></clipPath><linearGradient id="linear-gradient" x1="356.9" y1="-1084.61" x2="356.9" y2="-1098.12" gradientTransform="matrix(1, 0, 0, -1, -344.76, -1078.76)" gradientUnits="userSpaceOnUse"><stop offset="0" stop-color="#fff"/><stop offset="1" stop-color="#fff" stop-opacity="0"/></linearGradient><clipPath id="clip-path-13"><path class="cls-3" d="M44.56,12.73l-2.93,2.92a.24.24,0,0,1-.35,0L40.62,15a.25.25,0,0,1,0-.36l2.1-2.09-2.1-2.1a.24.24,0,0,1,0-.35l.66-.66a.26.26,0,0,1,.35,0l2.93,2.93A.25.25,0,0,1,44.56,12.73Z"/></clipPath><clipPath id="clip-path-14"><rect class="cls-3" x="45.54" y="13.97" width="5.55" height="1.51" rx="0.38"/></clipPath><clipPath id="clip-path-15"><polygon class="cls-1" points="-59.31 42.21 -38.91 42.21 -38.91 49.64 -49.11 49.64 -49.11 50.95 -53.78 50.95 -53.78 49.64 -59.31 49.64 -59.31 42.21"/></clipPath><clipPath id="clip-path-16"><polygon class="cls-1" points="-57.12 48.77 -55.3 48.77 -55.3 45.06 -54.21 45.06 -54.21 48.77 -53.48 48.77 -53.48 43.67 -57.12 43.67 -57.12 48.77"/></clipPath><clipPath id="clip-path-17"><path class="cls-1" d="M-49.11,47H-50.2V44.92h1.09ZM-52,43.67V49.5h1.82V48.25h1.82V43.67Z"/></clipPath><clipPath id="clip-path-18"><polygon class="cls-1" points="-47.65 43.67 -47.65 48.77 -45.6 48.77 -45.6 45.06 -44.37 45.06 -44.37 48.77 -43.14 48.77 -43.14 45.06 -41.91 45.06 -41.91 48.77 -41.09 48.77 -41.09 43.67 -47.65 43.67"/></clipPath><clipPath id="clip-path-19"><path class="cls-1" d="M23.52,45.46v2.77a1.38,1.38,0,0,1-1.38,1.38H19.37A1.38,1.38,0,0,1,18,48.23V45.46a1.38,1.38,0,0,1,1.38-1.38h2.77A1.38,1.38,0,0,1,23.52,45.46Zm-7.37,0v2.77a1.38,1.38,0,0,1-1.39,1.38H12a1.38,1.38,0,0,1-1.39-1.38V45.46A1.38,1.38,0,0,1,12,44.08h2.76A1.38,1.38,0,0,1,16.15,45.46Zm-7.38,0v2.77a1.38,1.38,0,0,1-1.38,1.38H4.62a1.38,1.38,0,0,1-1.38-1.38V45.46a1.38,1.38,0,0,1,1.38-1.38H7.39A1.38,1.38,0,0,1,8.77,45.46Z"/></clipPath><clipPath id="clip-path-20"><path class="cls-1" d="M52.2,50.74H48.51V44.88h3.57V46H49.82v1.22H52v1.07H49.82v1.39H52.2v1.09Zm-.29,4.86H39.12V51.82H51.91ZM38.66,50.74V44.88h3.57V46H40v1.22H42.1v1.07H40v1.39h2.38v1.09Zm4.21-5.86h1.51l.5,1.07c.17.36.3.65.44,1h0c.14-.38.25-.64.39-1l.49-1.07h1.5l-1.64,2.86,1.72,3H46.29l-.52-1.06c-.22-.41-.35-.71-.52-1h0c-.13.34-.27.64-.45,1l-.48,1.06h-1.5l1.68-3Zm-3.75-7.5h9v4a.39.39,0,0,0,.38.39h3.43v2H39.12Zm14,6.37h-.48V41.39a.38.38,0,0,0-.09-.25l-3.81-4.41h0l-.07-.06,0,0-.08,0H39.12a.77.77,0,0,0-.77.78v6.37h-.48a1.12,1.12,0,0,0-1.11,1.12V50.7a1.12,1.12,0,0,0,1.11,1.12h.48v4a.77.77,0,0,0,.77.78H51.91a.78.78,0,0,0,.77-.78v-4h.48a1.11,1.11,0,0,0,1.1-1.12V44.87A1.11,1.11,0,0,0,53.16,43.75Z"/></clipPath></defs><title>vs_code_icon</title><rect class="cls-1" x="-490.75" y="-997.54" width="1366" height="2644"/><rect class="cls-1" x="4.95" y="5.41" width="14.39" height="14.43"/><path class="cls-16" d="M18.45,7.28l-2.8-1.35a.84.84,0,0,0-1,.17L5.53,14.45a.57.57,0,0,0,0,.83l.75.68A.56.56,0,0,0,7,16L18,7.63a.56.56,0,0,1,.9.45v0A.86.86,0,0,0,18.45,7.28Z"/><path class="cls-17" d="M18.45,17.93l-2.8,1.34a.84.84,0,0,1-1-.16L5.53,10.76a.58.58,0,0,1,0-.84l.75-.68a.57.57,0,0,1,.72,0l11,8.37a.56.56,0,0,0,.9-.45v0A.87.87,0,0,1,18.45,17.93Z"/><path class="cls-18" d="M15.65,19.27a.84.84,0,0,1-1-.16.5.5,0,0,0,.85-.35V6.45a.5.5,0,0,0-.85-.35.84.84,0,0,1,1-.17l2.8,1.35a.85.85,0,0,1,.48.76v9.12a.86.86,0,0,1-.48.77Z"/><g class="cls-19"><path class="cls-20" d="M15,19.3a.85.85,0,0,0,.68,0l2.79-1.34a.84.84,0,0,0,.48-.77V8a.84.84,0,0,0-.48-.76L15.65,5.93a.87.87,0,0,0-.87.08l-.1.09L9.33,11,7,9.21a.57.57,0,0,0-.72,0l-.75.68a.58.58,0,0,0,0,.84l2,1.84-2,1.85a.57.57,0,0,0,0,.83l.75.68A.56.56,0,0,0,7,16l2.33-1.77,5.35,4.88A1,1,0,0,0,15,19.3Zm.56-9.78L11.47,12.6l4.06,3.09Z"/></g><rect class="cls-1" x="-782.36" y="-1127.12" width="1366" height="3311"/><path class="cls-3" d="M44.56,12.73l-2.93,2.92a.24.24,0,0,1-.35,0L40.62,15a.25.25,0,0,1,0-.36l2.1-2.09-2.1-2.1a.24.24,0,0,1,0-.35l.66-.66a.26.26,0,0,1,.35,0l2.93,2.93A.25.25,0,0,1,44.56,12.73Z"/><g class="cls-21"><rect class="cls-3" x="-515.51" y="-336.48" width="742.75" height="1800.34"/></g><rect class="cls-3" x="45.54" y="13.97" width="5.55" height="1.51" rx="0.38"/><g class="cls-22"><rect class="cls-3" x="-514.51" y="-336.48" width="742.75" height="1800.34"/></g><rect class="cls-1" x="-540.76" y="-1053.4" width="1366" height="3024"/></svg>