<svg id="Layer_1" data-name="Layer 1" xmlns="http://www.w3.org/2000/svg" xmlns:xlink="http://www.w3.org/1999/xlink" viewBox="0 0 30 30"><defs><style>.cls-1,.cls-2{fill:none;}.cls-2{clip-rule:evenodd;}.cls-3{fill:#fff;}.cls-4{clip-path:url(#clip-path);}.cls-5{clip-path:url(#clip-path-2);}.cls-6{clip-path:url(#clip-path-3);}.cls-7{clip-path:url(#clip-path-4);}.cls-8{clip-path:url(#clip-path-5);}.cls-9{clip-path:url(#clip-path-6);}.cls-10{clip-path:url(#clip-path-7);}.cls-11{clip-path:url(#clip-path-8);}.cls-12{clip-path:url(#clip-path-9);}.cls-13{clip-path:url(#clip-path-10);}.cls-14{clip-path:url(#clip-path-11);}.cls-15{clip-path:url(#clip-path-12);}.cls-16{clip-path:url(#clip-path-13);}.cls-17{clip-path:url(#clip-path-14);}.cls-18{clip-path:url(#clip-path-15);}.cls-19{clip-path:url(#clip-path-16);}.cls-20{clip-path:url(#clip-path-17);}.cls-21{clip-path:url(#clip-path-18);}.cls-22{clip-path:url(#clip-path-19);}.cls-23{clip-path:url(#clip-path-20);}.cls-24{fill:#1e1e1e;}.cls-25{clip-path:url(#clip-path-21);}.cls-26{clip-path:url(#clip-path-22);}</style><clipPath id="clip-path"><path class="cls-1" d="M-76.11-53a2.08,2.08,0,0,0-2.27,2c0,1.26.75,1.86,1.86,2.33l.39.17c.7.3,1,.49,1,1s-.34.76-1,.76-1.12-.51-1.45-1.05l-1.21.8A2.8,2.8,0,0,0-76-45.29c1.46,0,2.56-.76,2.56-2.15s-.74-1.86-2.06-2.42L-75.9-50c-.67-.29-.95-.47-.95-.94a.67.67,0,0,1,.74-.66,1,1,0,0,1,1,.66l1.2-.77A2.26,2.26,0,0,0-76.11-53Zm-5,0v5.09c0,.78-.3,1-.81,1a1.32,1.32,0,0,1-1.16-.77l-1.27.77a2.84,2.84,0,0,0,2.52,1.62,2.12,2.12,0,0,0,2.34-2.35V-53Zm-6.61-6.88h14.84a.27.27,0,0,1,.27.27v14.84a.27.27,0,0,1-.27.27H-87.76a.27.27,0,0,1-.27-.27V-59.59A.27.27,0,0,1-87.76-59.86Zm0-.81a1.08,1.08,0,0,0-1.08,1.08v14.84a1.08,1.08,0,0,0,1.08,1.08h14.84a1.08,1.08,0,0,0,1.08-1.08V-59.59a1.09,1.09,0,0,0-1.08-1.08Z"/></clipPath><clipPath id="clip-path-2"><path class="cls-2" d="M-50-52l-.31-.49c-.1-.16-.2-.34-.29-.52A4.77,4.77,0,0,1-51-54.16a2,2,0,0,1,.62-1.73l.19-.21c.39-.46.93-1,1.35-1.45a2.61,2.61,0,0,0,.73-1.7c0-.39,0-1.22-.29-1.37a2.88,2.88,0,0,1-.12,1.56,3.39,3.39,0,0,1-1.12,1.48c-.38.33-1,.92-1.34,1.26a3.49,3.49,0,0,0-.72,1A1.36,1.36,0,0,0-51.5-54c.11.19.23.36.35.53s.27.34.38.49.26.32.39.48A4.79,4.79,0,0,0-50-52"/></clipPath><clipPath id="clip-path-3"><path class="cls-2" d="M-44.67-47c.17.2,0,.28-.22.36a28.34,28.34,0,0,1-5.46.44,22.93,22.93,0,0,1-3.22-.16c-.17,0-.91-.11-.94-.26s.1-.17.17-.2a4.11,4.11,0,0,1,1-.23c.08,0,.29,0,.36,0a4.73,4.73,0,0,0-2.46.52c-.22.24.15.35.4.41a22.05,22.05,0,0,0,3.86.29c1.51,0,5.16,0,6.5-.69.08,0,.23-.13.25-.21s-.14-.2-.23-.22"/></clipPath><clipPath id="clip-path-4"><path class="cls-2" d="M-48.8-50.77a4.52,4.52,0,0,0,.81-.59,1.55,1.55,0,0,0,.5-.89,2,2,0,0,0-.37-1c-.48-.7-.86-1.1-.21-1.87a4.25,4.25,0,0,1,.72-.68,15,15,0,0,1,1.24-.85l.44-.27a8.67,8.67,0,0,0-1.09.36,6.7,6.7,0,0,0-1,.45c-1,.54-1.93,1.39-1.53,2.57.26.79,1,1.27,1,1.87a2.44,2.44,0,0,1-.51.91"/></clipPath><clipPath id="clip-path-5"><path class="cls-2" d="M-46.9-47.58a4.74,4.74,0,0,1-.86-.37c-.17-.09-.1-.08-.32,0a17.21,17.21,0,0,1-3.22.16c-.24,0-.91,0-1-.22s0-.2.07-.27c-.6.1-1.22.53-.38.89a9.46,9.46,0,0,0,4,.24,11.83,11.83,0,0,0,1.78-.4"/></clipPath><clipPath id="clip-path-6"><path class="cls-2" d="M-46.9-48.79a1.38,1.38,0,0,1-.56-.31c-.11-.1-.07-.07-.33,0a14.21,14.21,0,0,1-4.4.1c-.1,0-.22-.11-.23-.22s.11-.22.16-.29c-.62.07-1.22.67-.38.95a12,12,0,0,0,4,.21,10.53,10.53,0,0,0,1.76-.41"/></clipPath><clipPath id="clip-path-7"><path class="cls-2" d="M-45.67-51.48l-.43.06-.44.05c-.89.1-1.88.19-2.77.23-.7,0-3.33.11-3.72-.2,0-.14.16-.22.27-.27A7.93,7.93,0,0,1-51.38-52a7.57,7.57,0,0,0-2.72.61c-.6.31.4.44.78.48A26.68,26.68,0,0,0-46.88-51a1.38,1.38,0,0,0,.67-.15c.17-.09.39-.18.54-.28"/></clipPath><clipPath id="clip-path-8"><path class="cls-2" d="M-53.06-45a12.86,12.86,0,0,0,2.53.36,25.16,25.16,0,0,0,2.88,0A12.4,12.4,0,0,0-44-45.27c.25-.1.71-.35.75-.58a1.43,1.43,0,0,0-.21.12c-1.87,1-6.14.93-8.35.8L-53.06-45"/></clipPath><clipPath id="clip-path-9"><path class="cls-2" d="M-45.32-51.7a1.16,1.16,0,0,1,1.23.24,1.34,1.34,0,0,1,.08,1.4,4.55,4.55,0,0,1-1.41,1.57,1.6,1.6,0,0,0-.25.18,4.53,4.53,0,0,0,1.4-.68,2.61,2.61,0,0,0,1-1.2,1.36,1.36,0,0,0-.5-1.58,1.26,1.26,0,0,0-.8-.23,1,1,0,0,0-.73.3"/></clipPath><clipPath id="clip-path-10"><path class="cls-1" d="M-20.1-58a.67.67,0,0,1,.65.68.66.66,0,0,1-.65.68.66.66,0,0,1-.64-.68A.67.67,0,0,1-20.1-58Zm1.87-1.1a10.42,10.42,0,0,0-1.65.15c-1.46.27-1.72.83-1.72,1.86v1.36h3.44v.45h-4.73A2.18,2.18,0,0,0-25-53.46a7,7,0,0,0,0,3.64c.25,1,.83,1.81,1.83,1.81H-22v-1.64a2.23,2.23,0,0,1,2.15-2.21h3.44a1.77,1.77,0,0,0,1.72-1.82v-3.4a2,2,0,0,0-1.72-1.86A10.9,10.9,0,0,0-18.23-59.09Z"/></clipPath><clipPath id="clip-path-11"><path class="cls-1" d="M-16.19-46.61a.66.66,0,0,1,.65.67.66.66,0,0,1-.65.68.66.66,0,0,1-.64-.68A.66.66,0,0,1-16.19-46.61Zm1.94-8.55v1.57a2.24,2.24,0,0,1-2.15,2.25h-3.43a1.78,1.78,0,0,0-1.72,1.8v3.38c0,1,.81,1.53,1.72,1.8a5.57,5.57,0,0,0,3.43,0c.86-.26,1.72-.78,1.72-1.8v-1.35h-3.44V-48H-13c1,0,1.37-.72,1.71-1.8a6.19,6.19,0,0,0,0-3.6c-.24-1-.71-1.8-1.71-1.8Z"/></clipPath><clipPath id="clip-path-12"><path class="cls-2" d="M55.48-50.89l.36-1.69H54.21l-.35,1.69Zm-3.35,1.27H51.05l.27-1.27h1.07l.36-1.69H51.68L52-53.86H53l.61-2.86,1.4.31-.53,2.55h1.62l.61-2.86,1.41.28-.56,2.58h1.08l-.29,1.28h-1L57-50.89H58l-.27,1.27H56.69l-.61,2.87-1.4-.32.53-2.55H53.59L53-46.75l-1.41-.32ZM50.07-55l-1.26,1.16A5.8,5.8,0,0,0,48-54.6a3.15,3.15,0,0,0-1.82-.55,3.37,3.37,0,0,0-3.46,3.4,3.39,3.39,0,0,0,3.45,3.38A3.21,3.21,0,0,0,48-49a5.53,5.53,0,0,0,.82-.73l1.25,1.15a5.17,5.17,0,0,1-4,1.81,5.12,5.12,0,0,1-5.25-5,5.11,5.11,0,0,1,5.26-5A5.23,5.23,0,0,1,50.07-55Z"/></clipPath><clipPath id="clip-path-13"><path class="cls-3" d="M14.05-18.87l-2.93,2.92a.25.25,0,0,1-.36,0l-.65-.65a.25.25,0,0,1,0-.36L12.2-19l-2.09-2.09a.25.25,0,0,1,0-.36l.65-.65a.25.25,0,0,1,.36,0l2.93,2.92A.27.27,0,0,1,14.05-18.87Z"/></clipPath><clipPath id="clip-path-14"><rect class="cls-3" x="15.03" y="-17.63" width="5.55" height="1.51" rx="0.38"/></clipPath><clipPath id="clip-path-15"><polygon class="cls-1" points="-89.82 10.61 -69.42 10.61 -69.42 18.04 -79.62 18.04 -79.62 19.36 -84.3 19.36 -84.3 18.04 -89.82 18.04 -89.82 10.61"/></clipPath><clipPath id="clip-path-16"><polygon class="cls-1" points="-87.64 17.17 -85.82 17.17 -85.82 13.46 -84.72 13.46 -84.72 17.17 -83.99 17.17 -83.99 12.07 -87.64 12.07 -87.64 17.17"/></clipPath><clipPath id="clip-path-17"><path class="cls-1" d="M-79.62,15.4h-1.1V13.32h1.1Zm-2.92-3.33V17.9h1.82V16.65h1.83V12.07Z"/></clipPath><clipPath id="clip-path-18"><polygon class="cls-1" points="-78.17 12.07 -78.17 17.17 -76.12 17.17 -76.12 13.46 -74.89 13.46 -74.89 17.17 -73.66 17.17 -73.66 13.46 -72.43 13.46 -72.43 17.17 -71.61 17.17 -71.61 12.07 -78.17 12.07"/></clipPath><clipPath id="clip-path-19"><path class="cls-1" d="M-7,13.86v2.77A1.38,1.38,0,0,1-8.37,18h-2.77a1.38,1.38,0,0,1-1.38-1.38V13.86a1.38,1.38,0,0,1,1.38-1.38h2.77A1.38,1.38,0,0,1-7,13.86Zm-7.38,0v2.77A1.38,1.38,0,0,1-15.75,18h-2.77a1.38,1.38,0,0,1-1.38-1.38V13.86a1.38,1.38,0,0,1,1.38-1.38h2.77A1.38,1.38,0,0,1-14.37,13.86Zm-7.38,0v2.77A1.38,1.38,0,0,1-23.13,18h-2.76a1.38,1.38,0,0,1-1.39-1.38V13.86a1.38,1.38,0,0,1,1.39-1.38h2.76A1.38,1.38,0,0,1-21.75,13.86Z"/></clipPath><clipPath id="clip-path-20"><rect class="cls-1" x="-720.76" y="-2069.8" width="2519.4" height="5577.35"/></clipPath><clipPath id="clip-path-21"><path class="cls-1" d="M21.68,19.14H18V13.28h3.57v1.09H19.31v1.22h2.13v1.07H19.31v1.39h2.37v1.09ZM21.39,24H8.61V20.23H21.39ZM8.14,19.14V13.28h3.58v1.09H9.46v1.22h2.13v1.07H9.46v1.39h2.38v1.09Zm4.22-5.86h1.5l.51,1.07c.17.36.3.65.44,1h0c.14-.38.25-.64.4-1l.49-1.07H17.2l-1.63,2.86,1.72,3H15.78l-.53-1.06c-.21-.41-.35-.71-.51-1h0c-.12.34-.26.64-.45,1l-.48,1.06H12.3l1.67-3ZM8.61,5.78h9v4a.4.4,0,0,0,.39.39h3.42v2H8.61Zm14,6.37h-.47V9.84a.09.09,0,0,0,0-.05.38.38,0,0,0-.09-.25L18.26,5.13h0a.24.24,0,0,0-.08-.06l0,0-.08,0H8.61a.78.78,0,0,0-.78.78v6.37H7.36a1.12,1.12,0,0,0-1.11,1.12V19.1a1.12,1.12,0,0,0,1.11,1.13h.47v4a.78.78,0,0,0,.78.78H21.39a.78.78,0,0,0,.78-.78v-4h.47a1.12,1.12,0,0,0,1.11-1.13V13.27A1.12,1.12,0,0,0,22.64,12.15Z"/></clipPath><clipPath id="clip-path-22"><rect class="cls-1" x="-303.75" y="-729.17" width="1138.33" height="2520"/></clipPath></defs><title>windows_installer_icon</title><rect class="cls-1" x="-521.26" y="-1029.14" width="1366" height="2644"/><rect class="cls-1" x="-812.87" y="-1158.72" width="1366" height="3311"/><path class="cls-3" d="M14.05-18.87l-2.93,2.92a.25.25,0,0,1-.36,0l-.65-.65a.25.25,0,0,1,0-.36L12.2-19l-2.09-2.09a.25.25,0,0,1,0-.36l.65-.65a.25.25,0,0,1,.36,0l2.93,2.92A.27.27,0,0,1,14.05-18.87Z"/><g class="cls-16"><rect class="cls-3" x="-546.03" y="-368.08" width="742.75" height="1800.34"/></g><rect class="cls-3" x="15.03" y="-17.63" width="5.55" height="1.51" rx="0.38"/><g class="cls-17"><rect class="cls-3" x="-545.03" y="-368.08" width="742.75" height="1800.34"/></g><rect class="cls-1" x="-571.28" y="-1085" width="1366" height="3024"/><g class="cls-22"><g class="cls-23"><rect class="cls-24" x="-36.5" y="3.26" width="38.73" height="23.98"/></g></g><g class="cls-25"><g class="cls-26"><rect x="2.08" y="0.83" width="25.83" height="28.33"/></g></g></svg>