<svg id="Layer_1" data-name="Layer 1" xmlns="http://www.w3.org/2000/svg" xmlns:xlink="http://www.w3.org/1999/xlink" viewBox="0 0 25 25"><defs><style>.cls-1,.cls-2{fill:none;}.cls-2{clip-rule:evenodd;}.cls-3{clip-path:url(#clip-path);}.cls-4{clip-path:url(#clip-path-2);}.cls-5{clip-path:url(#clip-path-3);}.cls-6{fill:#00acf2;}.cls-7{fill:#999;}.cls-8{clip-path:url(#clip-path-4);}.cls-9{clip-path:url(#clip-path-5);}.cls-10{clip-path:url(#clip-path-6);}.cls-11{clip-path:url(#clip-path-7);}.cls-12{clip-path:url(#clip-path-8);}.cls-13{clip-path:url(#clip-path-9);}.cls-14{clip-path:url(#clip-path-10);}.cls-15{clip-path:url(#clip-path-11);}.cls-16{clip-path:url(#clip-path-12);}.cls-17{clip-path:url(#clip-path-13);}</style><clipPath id="clip-path"><path class="cls-1" d="M16.52,43.24a2.06,2.06,0,0,0-2.26,2c0,1.26.74,1.85,1.85,2.33l.39.16c.7.31,1.05.5,1.05,1s-.34.76-1,.76S15.45,49,15.12,48.5l-1.21.81a2.8,2.8,0,0,0,2.7,1.62c1.47,0,2.56-.76,2.56-2.15s-.74-1.87-2.06-2.43l-.38-.16c-.66-.29-1-.48-1-.94a.67.67,0,0,1,.74-.66,1,1,0,0,1,1,.66l1.2-.77A2.26,2.26,0,0,0,16.52,43.24Zm-5,0v5.09c0,.78-.3,1-.81,1a1.34,1.34,0,0,1-1.16-.77l-1.27.77a2.84,2.84,0,0,0,2.52,1.62,2.13,2.13,0,0,0,2.34-2.36V43.24ZM4.87,36.36H19.71a.27.27,0,0,1,.27.27V51.47a.27.27,0,0,1-.27.27H4.87a.27.27,0,0,1-.27-.27V36.63A.27.27,0,0,1,4.87,36.36Zm0-.81a1.09,1.09,0,0,0-1.08,1.08V51.47a1.09,1.09,0,0,0,1.08,1.08H19.71a1.09,1.09,0,0,0,1.08-1.08V36.63a1.09,1.09,0,0,0-1.08-1.08Z"/></clipPath><clipPath id="clip-path-2"><path class="cls-1" d="M12.5,12.85v5.74l7.5.91V12.85Zm-7.5,0v4.82l6.79.83V12.85ZM11.79,6.5,5,7.33v4.82h6.79ZM20,5.5l-7.5.91v5.74H20Z"/></clipPath><clipPath id="clip-path-3"><rect class="cls-1" x="5" y="5.5" width="15" height="14.4"/></clipPath><clipPath id="clip-path-4"><path class="cls-2" d="M42.67,44.21l-.31-.49c-.1-.16-.2-.33-.29-.51a5,5,0,0,1-.47-1.16c-.18-.76.25-1.22.63-1.72a1.92,1.92,0,0,1,.18-.22c.39-.45.93-1,1.35-1.44A2.59,2.59,0,0,0,44.49,37c0-.39,0-1.21-.29-1.36a2.84,2.84,0,0,1-.12,1.55A3.43,3.43,0,0,1,43,38.64c-.38.32-1,.91-1.34,1.26a3.49,3.49,0,0,0-.72,1,1.41,1.41,0,0,0,.23,1.35c.12.19.23.35.35.52s.27.34.38.5.26.32.39.48.34.39.42.45"/></clipPath><clipPath id="clip-path-5"><path class="cls-2" d="M48,49.24c.16.2,0,.29-.23.37a29.16,29.16,0,0,1-5.46.43,22.93,22.93,0,0,1-3.22-.16c-.16,0-.91-.11-.94-.26s.11-.16.17-.19a3.68,3.68,0,0,1,1-.24,3.48,3.48,0,0,0,.36,0,4.75,4.75,0,0,0-2.46.53c-.22.24.15.35.4.41a22.06,22.06,0,0,0,3.86.28c1.52,0,5.16,0,6.5-.69.08,0,.23-.12.25-.2s-.14-.2-.22-.23"/></clipPath><clipPath id="clip-path-6"><path class="cls-2" d="M43.83,45.44a4,4,0,0,0,.81-.58,1.55,1.55,0,0,0,.5-.89,1.87,1.87,0,0,0-.37-1c-.48-.69-.86-1.09-.21-1.86a4.66,4.66,0,0,1,.72-.68,14.22,14.22,0,0,1,1.24-.85l.44-.27a8,8,0,0,0-1.08.35,7.49,7.49,0,0,0-1,.46c-1,.54-1.92,1.39-1.53,2.56.26.8,1,1.27,1,1.87a2.44,2.44,0,0,1-.51.91"/></clipPath><clipPath id="clip-path-7"><path class="cls-2" d="M45.73,48.64a5.59,5.59,0,0,1-.86-.38c-.17-.08-.1-.07-.32,0a16.4,16.4,0,0,1-3.22.16c-.24,0-.91,0-1-.21s0-.21.07-.28c-.6.11-1.22.54-.37.89A9.4,9.4,0,0,0,44,49a14.93,14.93,0,0,0,1.78-.4"/></clipPath><clipPath id="clip-path-8"><path class="cls-2" d="M45.73,47.43a1.51,1.51,0,0,1-.56-.31c-.11-.1-.07-.08-.33,0-.91.15-3.62.41-4.4.09-.1,0-.22-.1-.23-.22s.11-.21.16-.29c-.62.08-1.22.67-.38,1a12.32,12.32,0,0,0,4,.2,10.31,10.31,0,0,0,1.76-.4"/></clipPath><clipPath id="clip-path-9"><path class="cls-2" d="M47,44.74a3.15,3.15,0,0,0-.43,0l-.43.05c-.9.11-1.89.19-2.78.23-.7,0-3.33.11-3.72-.19,0-.14.16-.23.27-.28a7.89,7.89,0,0,1,1.38-.38,7.57,7.57,0,0,0-2.72.61c-.6.31.41.43.78.48a27.74,27.74,0,0,0,6.44-.14,1.45,1.45,0,0,0,.68-.16c.16-.08.38-.18.53-.27"/></clipPath><clipPath id="clip-path-10"><path class="cls-2" d="M39.57,51.2a14.69,14.69,0,0,0,2.53.36,25.16,25.16,0,0,0,2.88,0,12.73,12.73,0,0,0,3.69-.6c.25-.11.71-.35.75-.58a1.13,1.13,0,0,0-.21.12c-1.87,1-6.14.92-8.34.8l-1.3-.09"/></clipPath><clipPath id="clip-path-11"><path class="cls-2" d="M47.31,44.51a1.2,1.2,0,0,1,1.23.24,1.36,1.36,0,0,1,.09,1.4,4.68,4.68,0,0,1-1.42,1.57L47,47.9a4.5,4.5,0,0,0,1.4-.67,2.64,2.64,0,0,0,1-1.21,1.35,1.35,0,0,0-.5-1.58,1.32,1.32,0,0,0-.8-.23,1.09,1.09,0,0,0-.73.3"/></clipPath><clipPath id="clip-path-12"><path class="cls-1" d="M72.53,38.22a.69.69,0,1,1-.64.69A.67.67,0,0,1,72.53,38.22Zm1.87-1.09a9.4,9.4,0,0,0-1.65.14c-1.46.27-1.72.83-1.72,1.86v1.36h3.44V41H69.74a2.16,2.16,0,0,0-2.15,1.81,6.88,6.88,0,0,0,0,3.63c.24,1.06.82,1.81,1.83,1.81H70.6V46.57a2.23,2.23,0,0,1,2.15-2.22h3.44a1.77,1.77,0,0,0,1.72-1.82v-3.4a2,2,0,0,0-1.72-1.86A10.8,10.8,0,0,0,74.4,37.13Z"/></clipPath><clipPath id="clip-path-13"><path class="cls-1" d="M76.45,49.61a.66.66,0,0,1,.64.67.65.65,0,1,1-1.29,0A.66.66,0,0,1,76.45,49.61Zm1.93-8.56v1.58a2.25,2.25,0,0,1-2.15,2.25H72.8a1.78,1.78,0,0,0-1.72,1.8v3.38c0,1,.81,1.52,1.72,1.8a5.57,5.57,0,0,0,3.43,0c.86-.26,1.72-.78,1.72-1.8V48.7H74.51v-.45h5.16c1,0,1.37-.71,1.71-1.79a6.23,6.23,0,0,0,0-3.61c-.24-1-.71-1.8-1.71-1.8Z"/></clipPath></defs><title>windows_os_icon</title><rect class="cls-1" x="-428.63" y="-932.93" width="1366" height="2644"/><g class="cls-4"><g class="cls-5"><rect class="cls-6" y="0.5" width="25" height="24"/></g></g><path class="cls-7" d="M22,.5A2.5,2.5,0,0,1,24.5,3V22A2.5,2.5,0,0,1,22,24.5H3A2.5,2.5,0,0,1,.5,22V3A2.5,2.5,0,0,1,3,.5H22M22,0H3A3,3,0,0,0,0,3V22a3,3,0,0,0,3,3H22a3,3,0,0,0,3-3V3a3,3,0,0,0-3-3Z"/></svg>