<svg id="Layer_1" data-name="Layer 1" xmlns="http://www.w3.org/2000/svg" xmlns:xlink="http://www.w3.org/1999/xlink" viewBox="0 0 39.75 39.16"><defs><style>.cls-1{fill:none;}.cls-2{fill:#fff;stroke:#ccc;stroke-miterlimit:10;}.cls-3{clip-path:url(#clip-path);}.cls-4{clip-path:url(#clip-path-2);}</style><clipPath id="clip-path"><path class="cls-1" d="M27.89,24.55H23.47v-7h4.28v1.3H25v1.46H27.6v1.29H25v1.67h2.85v1.31Zm-.35,5.83H12.2V25.85H27.54ZM11.65,24.55v-7h4.28v1.3H13.22v1.46h2.56v1.29H13.22v1.67h2.86v1.31Zm5.06-7h1.8l.61,1.28c.2.43.36.77.52,1.17h0c.17-.45.3-.76.48-1.17l.58-1.28h1.8l-2,3.43,2.06,3.6H20.81l-.63-1.28c-.26-.49-.42-.85-.62-1.26h0c-.15.41-.32.77-.54,1.26l-.57,1.28h-1.8l2-3.56Zm-4.51-9H23v4.81a.47.47,0,0,0,.47.47h4.1v2.36H12.2ZM29,16.16h-.57V13.33a.51.51,0,0,0-.11-.31L23.79,7.74h0a.23.23,0,0,0-.09-.08l0,0-.09,0H12.2a.94.94,0,0,0-.93.94v7.64H10.7a1.34,1.34,0,0,0-1.33,1.35v7a1.34,1.34,0,0,0,1.33,1.35h.57v4.79a.94.94,0,0,0,.93.94H27.54a.93.93,0,0,0,.93-.94V25.85H29a1.33,1.33,0,0,0,1.33-1.35v-7A1.33,1.33,0,0,0,29,16.16Z"/></clipPath><clipPath id="clip-path-2"><rect class="cls-1" x="-353.63" y="-955.42" width="1366" height="2644"/></clipPath></defs><title>windows_installer_icon</title><rect class="cls-2" x="2.37" y="2.08" width="35" height="35" rx="3"/><g class="cls-3"><g class="cls-4"><rect x="4.37" y="2.58" width="31" height="34"/></g></g></svg>