<svg id="Layer_1" data-name="Layer 1" xmlns="http://www.w3.org/2000/svg" xmlns:xlink="http://www.w3.org/1999/xlink" viewBox="0 0 30 30"><defs><style>.cls-1,.cls-2{fill:none;}.cls-2{clip-rule:evenodd;}.cls-3{fill:#fff;}.cls-4{clip-path:url(#clip-path);}.cls-5{clip-path:url(#clip-path-2);}.cls-6{clip-path:url(#clip-path-3);}.cls-7{clip-path:url(#clip-path-4);}.cls-8{clip-path:url(#clip-path-5);}.cls-9{clip-path:url(#clip-path-6);}.cls-10{clip-path:url(#clip-path-7);}.cls-11{clip-path:url(#clip-path-8);}.cls-12{clip-path:url(#clip-path-9);}.cls-13{clip-path:url(#clip-path-10);}.cls-14{clip-path:url(#clip-path-11);}.cls-15{clip-path:url(#clip-path-12);}.cls-16{clip-path:url(#clip-path-13);}.cls-17{clip-path:url(#clip-path-14);}.cls-18{clip-path:url(#clip-path-15);}.cls-19{clip-path:url(#clip-path-16);}.cls-20{clip-path:url(#clip-path-17);}.cls-21{clip-path:url(#clip-path-18);}.cls-22{clip-path:url(#clip-path-19);}.cls-23{clip-path:url(#clip-path-20);}</style><clipPath id="clip-path"><path class="cls-1" d="M-108.69-53a2.07,2.07,0,0,0-2.26,2c0,1.26.74,1.86,1.85,2.33l.39.17c.7.3,1,.49,1,1s-.34.76-1,.76-1.12-.51-1.45-1.05l-1.21.8a2.8,2.8,0,0,0,2.7,1.62c1.47,0,2.56-.76,2.56-2.15s-.74-1.86-2.06-2.42l-.38-.17c-.66-.29-1-.47-1-.94a.68.68,0,0,1,.74-.66,1,1,0,0,1,1,.66l1.2-.77A2.26,2.26,0,0,0-108.69-53Zm-5,0v5.09c0,.78-.3,1-.81,1a1.32,1.32,0,0,1-1.16-.77l-1.27.77a2.84,2.84,0,0,0,2.52,1.62,2.12,2.12,0,0,0,2.34-2.35V-53Zm-6.61-6.88h14.84a.27.27,0,0,1,.27.27v14.84a.27.27,0,0,1-.27.27h-14.84a.27.27,0,0,1-.27-.27V-59.59A.27.27,0,0,1-120.34-59.86Zm0-.81a1.09,1.09,0,0,0-1.08,1.08v14.84a1.09,1.09,0,0,0,1.08,1.08h14.84a1.08,1.08,0,0,0,1.08-1.08V-59.59a1.09,1.09,0,0,0-1.08-1.08Z"/></clipPath><clipPath id="clip-path-2"><path class="cls-2" d="M-82.54-52l-.31-.49c-.1-.16-.2-.34-.29-.52a4.77,4.77,0,0,1-.47-1.15A2,2,0,0,1-83-55.89c0-.07.12-.14.18-.21.39-.46.93-1,1.35-1.45a2.56,2.56,0,0,0,.73-1.7c0-.39,0-1.22-.29-1.37a2.88,2.88,0,0,1-.12,1.56,3.39,3.39,0,0,1-1.12,1.48c-.38.33-1,.92-1.34,1.26a3.49,3.49,0,0,0-.72,1A1.4,1.4,0,0,0-84.08-54c.12.19.23.36.35.53s.27.34.38.49.26.32.39.48a4.79,4.79,0,0,0,.42.46"/></clipPath><clipPath id="clip-path-3"><path class="cls-2" d="M-77.24-47c.16.2,0,.28-.23.36a28.34,28.34,0,0,1-5.46.44,22.93,22.93,0,0,1-3.22-.16c-.16,0-.91-.11-.94-.26s.11-.17.17-.2a4.11,4.11,0,0,1,1-.23,3.48,3.48,0,0,0,.36,0,4.75,4.75,0,0,0-2.46.52c-.22.24.15.35.4.41a22.05,22.05,0,0,0,3.86.29c1.52,0,5.16,0,6.5-.69.08,0,.23-.13.25-.21s-.14-.2-.22-.22"/></clipPath><clipPath id="clip-path-4"><path class="cls-2" d="M-81.38-50.77a4.52,4.52,0,0,0,.81-.59,1.55,1.55,0,0,0,.5-.89,1.87,1.87,0,0,0-.37-1c-.48-.7-.86-1.1-.21-1.87a4.66,4.66,0,0,1,.72-.68,15,15,0,0,1,1.24-.85l.44-.27a8,8,0,0,0-1.08.36,6.36,6.36,0,0,0-1,.45c-1,.54-1.92,1.39-1.53,2.57.26.79,1,1.27,1,1.87a2.44,2.44,0,0,1-.51.91"/></clipPath><clipPath id="clip-path-5"><path class="cls-2" d="M-79.48-47.58a4.74,4.74,0,0,1-.86-.37c-.17-.09-.1-.08-.32,0a17.21,17.21,0,0,1-3.22.16c-.24,0-.91,0-1-.22s0-.2.07-.27c-.6.1-1.22.53-.38.89a9.46,9.46,0,0,0,4,.24,11.83,11.83,0,0,0,1.78-.4"/></clipPath><clipPath id="clip-path-6"><path class="cls-2" d="M-79.48-48.79A1.38,1.38,0,0,1-80-49.1c-.11-.1-.07-.07-.33,0a14.21,14.21,0,0,1-4.4.1c-.1,0-.22-.11-.23-.22s.11-.22.16-.29c-.62.07-1.22.67-.38.95a12,12,0,0,0,4,.21,10.3,10.3,0,0,0,1.76-.41"/></clipPath><clipPath id="clip-path-7"><path class="cls-2" d="M-78.25-51.48l-.43.06-.43.05c-.9.1-1.89.19-2.78.23-.7,0-3.33.11-3.72-.2,0-.14.16-.22.27-.27A7.93,7.93,0,0,1-84-52a7.57,7.57,0,0,0-2.72.61c-.6.31.41.44.78.48A26.68,26.68,0,0,0-79.46-51a1.46,1.46,0,0,0,.68-.15c.16-.09.38-.18.53-.28"/></clipPath><clipPath id="clip-path-8"><path class="cls-2" d="M-85.64-45a13,13,0,0,0,2.53.36,25.16,25.16,0,0,0,2.88,0,12.4,12.4,0,0,0,3.69-.61c.25-.1.71-.35.75-.58l-.21.12c-1.87,1-6.14.93-8.34.8l-1.3-.09"/></clipPath><clipPath id="clip-path-9"><path class="cls-2" d="M-77.9-51.7a1.15,1.15,0,0,1,1.23.24,1.36,1.36,0,0,1,.09,1.4A4.68,4.68,0,0,1-78-48.49a2.27,2.27,0,0,0-.25.18,4.53,4.53,0,0,0,1.4-.68,2.61,2.61,0,0,0,1-1.2,1.35,1.35,0,0,0-.5-1.58,1.26,1.26,0,0,0-.8-.23,1,1,0,0,0-.73.3"/></clipPath><clipPath id="clip-path-10"><path class="cls-1" d="M-52.68-58a.67.67,0,0,1,.65.68.66.66,0,0,1-.65.68.66.66,0,0,1-.64-.68A.67.67,0,0,1-52.68-58Zm1.87-1.1a10.42,10.42,0,0,0-1.65.15c-1.46.27-1.72.83-1.72,1.86v1.36h3.44v.45h-4.73a2.17,2.17,0,0,0-2.15,1.81,6.81,6.81,0,0,0,0,3.64c.24,1,.82,1.81,1.83,1.81h1.18v-1.64a2.23,2.23,0,0,1,2.15-2.21H-49a1.77,1.77,0,0,0,1.72-1.82v-3.4A2,2,0,0,0-49-58.94,10.81,10.81,0,0,0-50.81-59.09Z"/></clipPath><clipPath id="clip-path-11"><path class="cls-1" d="M-48.76-46.61a.66.66,0,0,1,.64.67.66.66,0,0,1-.64.68.66.66,0,0,1-.65-.68A.66.66,0,0,1-48.76-46.61Zm1.93-8.55v1.57A2.24,2.24,0,0,1-49-51.34h-3.43a1.78,1.78,0,0,0-1.72,1.8v3.38c0,1,.81,1.53,1.72,1.8a5.57,5.57,0,0,0,3.43,0c.86-.26,1.72-.78,1.72-1.8v-1.35H-50.7V-48h5.16c1,0,1.37-.72,1.71-1.8a6.19,6.19,0,0,0,0-3.6c-.24-1-.71-1.8-1.71-1.8Z"/></clipPath><clipPath id="clip-path-12"><path class="cls-2" d="M22.9-50.89l.36-1.69H21.63l-.35,1.69Zm-3.35,1.27H18.47l.27-1.27h1.07l.36-1.69H19.1l.27-1.28h1.07l.61-2.86,1.4.31-.53,2.55h1.62l.61-2.86,1.41.28L25-53.86h1.07l-.28,1.28H24.74l-.36,1.69h1.06l-.27,1.27H24.11l-.61,2.87-1.4-.32.53-2.55H21l-.61,2.87L19-47.07ZM17.49-55l-1.25,1.16a6.29,6.29,0,0,0-.87-.79,3.15,3.15,0,0,0-1.82-.55,3.37,3.37,0,0,0-3.46,3.4,3.39,3.39,0,0,0,3.45,3.38A3.21,3.21,0,0,0,15.46-49a5.53,5.53,0,0,0,.82-.73l1.25,1.15a5.17,5.17,0,0,1-4,1.81,5.12,5.12,0,0,1-5.25-5,5.12,5.12,0,0,1,5.27-5A5.21,5.21,0,0,1,17.49-55Z"/></clipPath><clipPath id="clip-path-13"><path class="cls-3" d="M-18.53-18.87l-2.93,2.92a.25.25,0,0,1-.36,0l-.65-.65a.25.25,0,0,1,0-.36L-20.38-19l-2.09-2.09a.25.25,0,0,1,0-.36l.65-.65a.25.25,0,0,1,.36,0l2.93,2.92A.25.25,0,0,1-18.53-18.87Z"/></clipPath><clipPath id="clip-path-14"><rect class="cls-3" x="-17.55" y="-17.63" width="5.55" height="1.51" rx="0.38"/></clipPath><clipPath id="clip-path-15"><polygon class="cls-1" points="-122.4 10.61 -102 10.61 -102 18.04 -112.2 18.04 -112.2 19.36 -116.88 19.36 -116.88 18.04 -122.4 18.04 -122.4 10.61"/></clipPath><clipPath id="clip-path-16"><polygon class="cls-1" points="-120.22 17.17 -118.39 17.17 -118.39 13.46 -117.3 13.46 -117.3 17.17 -116.57 17.17 -116.57 12.07 -120.22 12.07 -120.22 17.17"/></clipPath><clipPath id="clip-path-17"><path class="cls-1" d="M-112.2,15.4h-1.09V13.32h1.09Zm-2.92-3.33V17.9h1.83V16.65h1.82V12.07Z"/></clipPath><clipPath id="clip-path-18"><polygon class="cls-1" points="-110.75 12.07 -110.75 17.17 -108.7 17.17 -108.7 13.46 -107.47 13.46 -107.47 17.17 -106.24 17.17 -106.24 13.46 -105.01 13.46 -105.01 17.17 -104.19 17.17 -104.19 12.07 -110.75 12.07"/></clipPath><clipPath id="clip-path-19"><path class="cls-1" d="M-39.57,13.86v2.77A1.38,1.38,0,0,1-40.95,18h-2.77a1.38,1.38,0,0,1-1.38-1.38V13.86a1.38,1.38,0,0,1,1.38-1.38h2.77A1.38,1.38,0,0,1-39.57,13.86Zm-7.38,0v2.77A1.38,1.38,0,0,1-48.33,18H-51.1a1.38,1.38,0,0,1-1.38-1.38V13.86a1.38,1.38,0,0,1,1.38-1.38h2.77A1.38,1.38,0,0,1-46.95,13.86Zm-7.37,0v2.77A1.38,1.38,0,0,1-55.71,18h-2.76a1.38,1.38,0,0,1-1.39-1.38V13.86a1.38,1.38,0,0,1,1.39-1.38h2.76A1.38,1.38,0,0,1-54.32,13.86Z"/></clipPath><clipPath id="clip-path-20"><path class="cls-1" d="M-10.89,19.14h-3.7V13.28H-11v1.09h-2.25v1.22h2.13v1.07h-2.13v1.39h2.38v1.09Zm-.3,4.86H-24V20.23h12.78Zm-13.24-4.86V13.28h3.57v1.09h-2.26v1.22H-21v1.07h-2.13v1.39h2.38v1.09Zm4.21-5.86h1.5l.51,1.07c.17.36.3.65.44,1h0c.13-.38.24-.64.39-1l.49-1.07h1.49L-17,16.14l1.72,3H-16.8l-.53-1.06c-.21-.41-.35-.71-.51-1h0c-.12.34-.26.64-.44,1l-.48,1.06h-1.5l1.68-3ZM-24,5.78h9v4a.4.4,0,0,0,.39.39h3.42v2H-24Zm14,6.37h-.47V9.84a.09.09,0,0,0,0-.05.38.38,0,0,0-.09-.25l-3.81-4.41h0a.24.24,0,0,0-.08-.06l0,0-.08,0H-24a.78.78,0,0,0-.78.78v6.37h-.47a1.12,1.12,0,0,0-1.11,1.12V19.1a1.12,1.12,0,0,0,1.11,1.13h.47v4A.78.78,0,0,0-24,25h12.78a.78.78,0,0,0,.78-.78v-4h.47A1.12,1.12,0,0,0-8.83,19.1V13.27A1.12,1.12,0,0,0-9.94,12.15Z"/></clipPath></defs><title>zip_icon</title><rect class="cls-1" x="-553.84" y="-1029.14" width="1366" height="2644"/><rect class="cls-1" x="-845.45" y="-1158.72" width="1366" height="3311"/><path class="cls-3" d="M-18.53-18.87l-2.93,2.92a.25.25,0,0,1-.36,0l-.65-.65a.25.25,0,0,1,0-.36L-20.38-19l-2.09-2.09a.25.25,0,0,1,0-.36l.65-.65a.25.25,0,0,1,.36,0l2.93,2.92A.25.25,0,0,1-18.53-18.87Z"/><g class="cls-16"><rect class="cls-3" x="-578.61" y="-368.08" width="742.75" height="1800.34"/></g><rect class="cls-3" x="-17.55" y="-17.63" width="5.55" height="1.51" rx="0.38"/><g class="cls-17"><rect class="cls-3" x="-577.61" y="-368.08" width="742.75" height="1800.34"/></g><rect class="cls-1" x="-603.86" y="-1085" width="1366" height="3024"/><path d="M22.66,12h-.48V9.68a.38.38,0,0,0-.09-.25L18.23,5h0L18.15,5h0l-.07,0H8.46a.79.79,0,0,0-.79.78V12H7.19a1.12,1.12,0,0,0-1.12,1.12V19a1.12,1.12,0,0,0,1.12,1.12h.48v4a.8.8,0,0,0,.79.79H21.4a.79.79,0,0,0,.78-.79v-4h.48A1.13,1.13,0,0,0,23.79,19V13.16A1.13,1.13,0,0,0,22.66,12ZM8.46,5.67h9.08v4a.4.4,0,0,0,.4.4H21.4v2H8.46ZM16.72,13V18.9H15.39V13Zm-6.45,1.1V13h4.24v.77l-2.72,4v0h2.77V18.9H10v-.71l2.78-4v0ZM21.4,23.89H8.46V20.11H21.4v3.78Zm.14-7.67a2.76,2.76,0,0,1-1.91.61l-.45,0V18.9H17.87V13.12A10.82,10.82,0,0,1,19.66,13a2.82,2.82,0,0,1,1.79.47,1.71,1.71,0,0,1,.62,1.36A1.92,1.92,0,0,1,21.54,16.22Z"/><path d="M19.73,14a2.74,2.74,0,0,0-.55.05v1.73a1.73,1.73,0,0,0,.44,0c.71,0,1.14-.36,1.14-1S20.39,14,19.73,14Z"/></svg>