<?xml version="1.0" encoding="utf-8"?>
<!-- Generator: Adobe Illustrator 21.1.0, SVG Export Plug-In . SVG Version: 6.00 Build 0)  -->
<svg version="1.1" id="Layer_1" xmlns="http://www.w3.org/2000/svg" xmlns:xlink="http://www.w3.org/1999/xlink" x="0px" y="0px"
	 viewBox="0 0 15 15" style="enable-background:new 0 0 15 15;" xml:space="preserve">
<style type="text/css">
	.st0{clip-path:url(#SVGID_2_);fill:#FFFFFF;}
</style>
<g>
	<defs>
		<path id="SVGID_1_" d="M11,13.6c0.2,0.2,0.5,0.3,0.8,0.3s0.6-0.1,0.8-0.3c0.2-0.2,0.3-0.5,0.3-0.8c0-0.3-0.1-0.6-0.3-0.8
			c-0.2-0.2-0.5-0.3-0.8-0.3s-0.6,0.1-0.8,0.3c-0.2,0.2-0.3,0.5-0.3,0.8C10.7,13.2,10.8,13.4,11,13.6z M12.8,11
			c0.7,0.4,1.1,1,1.1,1.9c0,0.6-0.2,1.1-0.6,1.5S12.4,15,11.8,15c-0.6,0-1.1-0.2-1.5-0.6c-0.4-0.4-0.6-0.9-0.6-1.5
			c0-0.8,0.3-1.4,1-1.8V5.8c0-0.5-0.1-0.9-0.4-1.1C10,4.4,9.4,4.3,8.6,4.3v2.1L5.4,3.2L8.6,0v2.1c1.4,0,2.5,0.3,3.2,1
			c0.7,0.6,1,1.5,1,2.7V11z M2.4,4c0.2,0.2,0.5,0.3,0.8,0.3C3.5,4.3,3.8,4.2,4,4c0.2-0.2,0.3-0.5,0.3-0.8c0-0.3-0.1-0.6-0.3-0.8
			C3.8,2.2,3.5,2.1,3.2,2.1c-0.3,0-0.6,0.1-0.8,0.3C2.2,2.6,2.1,2.9,2.1,3.2C2.1,3.5,2.2,3.8,2.4,4z M2.4,13.6
			c0.2,0.2,0.5,0.3,0.8,0.3c0.3,0,0.6-0.1,0.8-0.3c0.2-0.2,0.3-0.5,0.3-0.8c0-0.3-0.1-0.6-0.3-0.8c-0.2-0.2-0.5-0.3-0.8-0.3
			c-0.3,0-0.6,0.1-0.8,0.3c-0.2,0.2-0.3,0.5-0.3,0.8C2.1,13.2,2.2,13.4,2.4,13.6z M1.7,1.7c0.4-0.4,0.9-0.6,1.5-0.6s1.1,0.2,1.5,0.6
			c0.4,0.4,0.6,0.9,0.6,1.5C5.4,4,5,4.6,4.3,5.1v6c0.7,0.4,1.1,1,1.1,1.8c0,0.6-0.2,1.1-0.6,1.5C4.3,14.8,3.8,15,3.2,15
			s-1.1-0.2-1.5-0.6c-0.4-0.4-0.6-0.9-0.6-1.5c0-0.8,0.4-1.4,1.1-1.8v-6C1.4,4.6,1.1,4,1.1,3.2C1.1,2.6,1.3,2.1,1.7,1.7z"/>
	</defs>
	<clipPath id="SVGID_2_">
		<use xlink:href="#SVGID_1_"  style="overflow:visible;"/>
	</clipPath>
	<rect x="-3.9" y="-5" class="st0" width="22.9" height="25"/>
</g>
</svg>
