<?xml version="1.0" encoding="utf-8"?>
<!-- Generator: Adobe Illustrator 21.1.0, SVG Export Plug-In . SVG Version: 6.00 Build 0)  -->
<svg version="1.1" id="Layer_1" xmlns="http://www.w3.org/2000/svg" xmlns:xlink="http://www.w3.org/1999/xlink" x="0px" y="0px"
	 viewBox="0 0 45 45" style="enable-background:new 0 0 45 45;" xml:space="preserve">
<style type="text/css">
	.st0{fill:#672893;}
</style>
<g>
	<path class="st0" d="M34.5,3.9c-1.4,0.1-2.9,0.1-4.3,0.4c-3.7,0.8-6.5,2.9-8.5,6c-2.3,3.4-3.2,7.2-3.4,11.2c-0.1,1.7,0,3.4,0,5.1
		c0,0.4-0.1,0.6-0.5,0.7c-2.7,0.6-5.5,0.8-8.2,0.1c-3.5-0.9-6.1-3-7.8-6.1c-0.2-0.3-0.3-0.6-0.5-0.9c-1.2-1.6-0.5-3.3,0.1-4.8
		C2.3,12.5,4,9.6,6.4,7.2c2.9-2.9,6.3-5,10.3-6c4.4-1.1,8.8-1,13.1,0.4c1.5,0.5,3,1.3,4.4,2C34.4,3.7,34.4,3.9,34.5,3.9z"/>
	<path class="st0" d="M0.2,21.5c0.8,1.7,1.8,3.2,3.2,4.4c2.1,1.9,4.6,3,7.4,3.4c5.6,0.8,10.8-0.7,15.6-3.5c0.7-0.4,1.3-0.9,2-1.3
		c0.2-0.1,0.6-0.1,0.8,0c3.9,3.3,5.6,7.5,4.7,12.5c-0.4,2-1.2,3.9-2.6,5.5c-0.4,0.4-1.1,0.6-1.6,0.8c-3.8,1.2-7.7,1.5-11.6,0.7
		c-4.9-1-9-3.3-12.3-6.9c-2.7-3-4.5-6.4-5.3-10.2c-0.4-1.7-0.4-3.5-0.6-5.3C0.1,21.5,0.2,21.5,0.2,21.5z"/>
	<path class="st0" d="M33.7,41.6c0.6-1.6,1.2-3,1.6-4.4c1.1-3.7,0.5-7.1-1.5-10.4c-2.2-3.5-5.4-6-8.9-8.1c-1.3-0.7-2.6-1.4-4-2.2
		c0.6-1.4,1.1-2.9,1.8-4.2c1.3-2.5,3.2-4.6,5.9-5.8c2.2-1,4.4-1.2,6.8-1.2c1.6,0,2.5,1.1,3.4,2c3.4,3.5,5.4,7.6,6,12.4
		c0.9,8.1-1.9,14.7-8.3,19.9C35.7,40.4,34.7,40.9,33.7,41.6z"/>
</g>
</svg>
