<?xml version="1.0" encoding="utf-8"?>
<!-- Generator: Adobe Illustrator 21.1.0, SVG Export Plug-In . SVG Version: 6.00 Build 0)  -->
<svg version="1.1" id="Layer_1" xmlns="http://www.w3.org/2000/svg" xmlns:xlink="http://www.w3.org/1999/xlink" x="0px" y="0px"
	 viewBox="0 0 15 15" style="enable-background:new 0 0 15 15;" xml:space="preserve">
<style type="text/css">
	.st0{clip-path:url(#SVGID_2_);fill:#FFFFFF;}
</style>
<g>
	<defs>
		<path id="SVGID_1_" d="M12.3,8.3c-0.1-0.4-0.6-0.6-1-0.5l-1,0.3L9.7,6.4l1-0.3c0.4-0.1,0.6-0.5,0.5-0.9c-0.1-0.4-0.6-0.6-1-0.5
			L9.2,5L8.8,4c-0.1-0.4-0.6-0.6-1-0.5C7.4,3.7,7.2,4.1,7.4,4.5l0.3,0.9l-2,0.6L5.4,5.1c-0.1-0.4-0.6-0.6-1-0.5
			C4,4.8,3.7,5.2,3.9,5.6l0.3,0.9l-1,0.3C2.8,6.9,2.6,7.4,2.7,7.7C2.9,8,3.2,8.2,3.5,8.2c0.1,0,0.3,0,1.2-0.3l0.6,1.8l-1,0.3
			C4,10.2,3.8,10.6,3.9,11c0.1,0.3,0.4,0.5,0.7,0.5c0.1,0,0.3,0,1.2-0.3l0.3,0.9c0.1,0.3,0.5,0.6,1,0.5c0.4-0.1,0.6-0.5,0.5-0.9
			l-0.3-0.9l2-0.6L9.7,11c0.1,0.3,0.5,0.6,1,0.5c0.4-0.1,0.6-0.5,0.5-0.9l-0.3-0.9l1-0.3C12.2,9.1,12.4,8.7,12.3,8.3z M9.6,14.5
			c-5.2,1.5-7.4,0.3-8.9-4.5S0.3,3,5.4,1.6s7.4-0.3,8.9,4.5S14.7,13,9.6,14.5z M8.2,6.8l0.6,1.8l-2,0.6L6.2,7.5L8.2,6.8z"/>
	</defs>
	<clipPath id="SVGID_2_">
		<use xlink:href="#SVGID_1_"  style="overflow:visible;"/>
	</clipPath>
	<rect x="-5" y="-4" class="st0" width="25" height="24.1"/>
</g>
</svg>
